<svg xmlns="http://www.w3.org/2000/svg" width="94" height="94" viewBox="0 0 94 94">
  <g id="arrow-right" transform="translate(-0.294 -0.859)">
    <circle id="Ellipse_12" data-name="Ellipse 12" cx="47" cy="47" r="47" transform="translate(0.294 0.859)" fill="#14152e"/>
    <path id="Ellipse_12_-_Outline" data-name="Ellipse 12 - Outline" d="M47,5A42.012,42.012,0,0,0,30.653,85.7,42.012,42.012,0,0,0,63.347,8.3,41.733,41.733,0,0,0,47,5m0-5A47,47,0,1,1,0,47,47,47,0,0,1,47,0Z" transform="translate(0.294 0.859)" fill="#d9cbb4"/>
    <path id="Path_33838" data-name="Path 33838" d="M-4087.427-6909h7.6l19.1,25.539-19.1,26.007h-7.6l22.1-26.007Z" transform="translate(4124.168 6930.475)" fill="#d9cbb4"/>
  </g>
</svg>
