<svg xmlns="http://www.w3.org/2000/svg" width="880.089" height="714.163" viewBox="0 0 880.089 714.163">
  <g id="burger-bg" transform="translate(-5774.497 1745.09)">
    <path id="Path_41005" data-name="Path 41005" d="M6642.7-1042.98H5777.065v-699.543h861.282Z" transform="translate(4.66 4.66)" fill="#d0742d" fill-rule="evenodd"/>
    <path id="Path_41006" data-name="Path 41006" d="M6038.759-1221.748c-.2-10.659-.059-21.318-.374-31.977-.237-7.835-1.18-15.645-1.432-23.48-.5-15.687-.99-31.383-1.013-47.077-.01-9.161.12-18.322.331-27.481q.16-6.871.376-13.745a60.857,60.857,0,0,0-.9-12.416,34.083,34.083,0,0,1,.779-14.693,19.243,19.243,0,0,0,.772-3.325c.252-2.818-.645-5.929-.884-8.756q-.408-4.785-.645-9.586c-.285-5.743-.318-11.492-.36-17.242a1.775,1.775,0,0,0-.2-.974.614.614,0,0,0-.863-.2c.508-.5.043-3.933.048-4.741.006-1.509,0-3.018,0-4.527,0-2.151.011-4.3-.035-6.453-.311-15.144-1-30.285-1.049-45.426-.07-22.346-2.334-45.173.873-67.386a27.954,27.954,0,0,0,.4-5.507c-.25-4.555-1.184-9.043-1.36-13.629-.195-4.983-.074-9.972.161-14.953.463-9.859,1.381-19.708,1.2-29.587-.514-28.055.73-56.139.46-84.2-.1-9.268-.628-18.514-1.144-27.762a1.725,1.725,0,0,0-.106-.625,1.784,1.784,0,0,0-.4-.529l-1.427-1.476a8.832,8.832,0,0,0-1.416-1.253c-1.18-.782-2.627-1.016-3.832-1.765a24.037,24.037,0,0,0,.1,4.8l.152,5.039q.152,5.156.311,10.307.283,10.194.44,20.392c.288,20.2.063,40.41-.144,60.616-.121,11.771-.807,23.537-.941,35.313-.126,11.223-1.069,22.247-1.089,33.43v1.217l0,2.914c-.039,22.743.164,45.483.285,68.223q.108,20.672.193,41.347c.028,8.418-.416,16.842-.4,25.26a8.012,8.012,0,0,0,3.161,7.6c.023,7.238.035,14.479.1,21.721.152,15.721.18,31.442.223,47.163.07,26.389-1.444,52.9.548,79.147,2.642,34.815,1.2,69.594,2.077,104.37-.056.715-.173,1.422-.28,2.129a37.335,37.335,0,0,1-.285,20.524,7.5,7.5,0,0,1,.2,1.442,92.209,92.209,0,0,1,.628,10.085q.231,23.582.311,47.167c.042,11.89.1,23.776.159,36.569.123,27.645,6.729,2.193,6.746-.4.175-33.858.758-68.608.774-103.37C6039.99-1180.263,6039.142-1201.007,6038.759-1221.748Z" transform="translate(614.596 4.661)" fill="#14152e" fill-rule="evenodd" style="mix-blend-mode: normal;isolation: isolate"/>
    <path id="Path_41007" data-name="Path 41007" d="M5787.724-1221.748c-.2-10.659-.059-21.318-.376-31.977-.234-7.835-1.177-15.645-1.431-23.48-.5-15.687-.99-31.383-1.011-47.077-.013-9.161.116-18.322.331-27.481q.16-6.871.376-13.745a60.858,60.858,0,0,0-.905-12.416,34.091,34.091,0,0,1,.781-14.693,18.751,18.751,0,0,0,.77-3.325c.257-2.818-.645-5.929-.881-8.756q-.405-4.785-.645-9.586c-.288-5.743-.317-11.492-.363-17.242a1.809,1.809,0,0,0-.193-.974.618.618,0,0,0-.866-.2c.507-.5.046-3.933.049-4.741,0-1.509,0-3.018,0-4.527,0-2.151.013-4.3-.035-6.453-.312-15.144-1-30.285-1.051-45.426-.067-22.346-2.331-45.173.873-67.386a27.735,27.735,0,0,0,.4-5.507c-.25-4.555-1.183-9.043-1.363-13.629-.193-4.983-.069-9.972.164-14.953.465-9.859,1.381-19.708,1.2-29.587-.514-28.055.732-56.139.458-84.2-.093-9.268-.628-18.514-1.139-27.762a1.737,1.737,0,0,0-.108-.625,1.8,1.8,0,0,0-.4-.529l-1.426-1.476a8.775,8.775,0,0,0-1.419-1.253c-1.177-.782-2.625-1.016-3.832-1.765a23.929,23.929,0,0,0,.1,4.8l.154,5.039q.152,5.156.313,10.307.275,10.194.439,20.392c.285,20.2.059,40.41-.143,60.616-.125,11.771-.812,23.537-.944,35.313-.123,11.223-1.07,22.247-1.087,33.43l0,1.217,0,2.914c-.039,22.743.164,45.483.285,68.223q.108,20.672.2,41.347c.029,8.418-.416,16.842-.4,25.26a8.014,8.014,0,0,0,3.164,7.6c.021,7.238.034,14.479.1,21.721.155,15.721.183,31.442.224,47.163.072,26.389-1.445,52.9.548,79.147,2.644,34.815,1.2,69.594,2.081,104.37-.056.715-.174,1.422-.285,2.129a37.335,37.335,0,0,1-.285,20.524,7.383,7.383,0,0,1,.2,1.442,91.486,91.486,0,0,1,.628,10.085q.236,23.582.311,47.167c.046,11.89.1,23.776.159,36.569.126,27.645,6.732,2.193,6.746-.4.178-33.858.761-68.608.774-103.37C5788.951-1180.263,5788.107-1201.007,5787.724-1221.748Z" transform="translate(-0.001 4.661)" fill="#14152e" fill-rule="evenodd" style="mix-blend-mode: normal;isolation: isolate"/>
    <path id="Path_41008" data-name="Path 41008" d="M5997.99-1731.559c13.324-.2,26.648-.062,39.973-.385,9.8-.239,19.56-1.205,29.353-1.464,19.613-.509,39.236-1.014,58.853-1.036,11.453-.011,22.908.121,34.357.338q8.592.164,17.179.386a92.549,92.549,0,0,0,15.524-.926,51.836,51.836,0,0,1,18.371.8,28.053,28.053,0,0,0,4.153.789c3.526.261,7.415-.659,10.947-.9q5.988-.414,11.986-.659c7.18-.293,14.367-.324,21.555-.372a2.7,2.7,0,0,0,1.218-.2c.35-.189.532-.628.256-.884.618.518,4.914.045,5.926.048q2.83.009,5.66,0c2.688,0,5.375.014,8.068-.034,18.932-.321,37.861-1.025,56.789-1.073,27.937-.073,56.474-2.388,84.244.892a42.687,42.687,0,0,0,6.887.406c5.693-.253,11.3-1.208,17.033-1.391,6.233-.2,12.474-.076,18.7.166,12.327.473,24.641,1.413,36.992,1.228,35.07-.527,70.181.749,105.261.467,11.587-.1,23.146-.639,34.708-1.166a2.692,2.692,0,0,0,.783-.11,2.285,2.285,0,0,0,.66-.414l1.845-1.458a10.052,10.052,0,0,0,1.568-1.45c.974-1.208,1.268-2.688,2.206-3.919a36.593,36.593,0,0,0-6,.1l-6.3.158q-6.445.156-12.883.321-12.748.283-25.5.448c-25.248.293-50.512.062-75.776-.146-14.718-.126-29.424-.828-44.146-.963-14.031-.129-27.813-1.1-41.793-1.115l-1.52,0-3.645,0c-28.431-.04-56.857.166-85.286.29q-25.848.114-51.691.2c-10.524.028-21.056-.425-31.583-.411a11.139,11.139,0,0,0-9.494,3.238c-9.048.023-18.1.034-27.152.1-19.654.157-39.311.186-58.962.228-32.992.073-66.129-1.478-98.944.563-43.526,2.7-87,1.228-130.481,2.126-.895-.056-1.775-.18-2.661-.29a56.714,56.714,0,0,1-25.663-.29,11.571,11.571,0,0,1-1.8.208q-6.28.6-12.609.639-29.48.24-58.965.32c-14.861.045-29.723.1-45.716.161-34.561.129-2.744,6.887.5,6.9,42.326.18,85.768.774,129.227.791C5946.121-1730.3,5972.056-1731.17,5997.99-1731.559Z" transform="translate(-0.001 0)" fill="#14152e" fill-rule="evenodd" style="mix-blend-mode: normal;isolation: isolate"/>
    <path id="Path_41009" data-name="Path 41009" d="M5997.99-1483.149c13.324-.2,26.648-.062,39.973-.385,9.8-.239,19.56-1.205,29.353-1.462,19.613-.509,39.236-1.013,58.853-1.036,11.453-.014,22.908.118,34.357.338q8.592.164,17.179.385a92.549,92.549,0,0,0,15.524-.926,51.836,51.836,0,0,1,18.371.8,27.943,27.943,0,0,0,4.153.788c3.526.262,7.415-.659,10.947-.9q5.988-.414,11.986-.659c7.18-.293,14.367-.327,21.555-.372a2.653,2.653,0,0,0,1.218-.2c.35-.189.532-.628.256-.884.618.518,4.914.045,5.926.051q2.83.008,5.66,0c2.688-.006,5.375.011,8.068-.034,18.932-.321,37.861-1.028,56.789-1.076,27.937-.07,56.474-2.387,84.244.892a42.275,42.275,0,0,0,6.887.408c5.693-.256,11.3-1.211,17.033-1.393,6.233-.2,12.474-.073,18.7.166,12.327.476,24.641,1.414,36.992,1.228,35.07-.524,70.181.749,105.261.47,11.587-.1,23.146-.642,34.708-1.168a2.624,2.624,0,0,0,.783-.11,2.234,2.234,0,0,0,.66-.414l1.845-1.459a9.91,9.91,0,0,0,1.568-1.45c.974-1.205,1.268-2.686,2.206-3.919a36.81,36.81,0,0,0-6,.1l-6.3.158q-6.445.157-12.883.321-12.748.282-25.5.45c-25.248.29-50.512.059-75.776-.149-14.718-.124-29.424-.827-44.146-.963-14.031-.126-27.813-1.095-41.793-1.112l-1.52,0-3.645-.006c-28.431-.039-56.857.166-85.286.29q-25.848.114-51.691.2c-10.524.028-21.056-.428-31.583-.411a11.128,11.128,0,0,0-9.494,3.235c-9.048.022-18.1.037-27.152.107-19.654.155-39.311.186-58.962.228-32.992.073-66.129-1.481-98.944.56-43.526,2.7-87,1.228-130.481,2.125-.895-.057-1.775-.177-2.661-.287a56.714,56.714,0,0,1-25.663-.29,11.471,11.471,0,0,1-1.8.205q-6.28.6-12.609.642-29.48.241-58.965.321c-14.861.045-29.723.1-45.716.16-34.561.127-2.744,6.884.5,6.9,42.326.18,85.768.777,129.227.791C5946.121-1481.893,5972.056-1482.758,5997.99-1483.149Z" transform="translate(-0.001 450.966)" fill="#14152e" fill-rule="evenodd" style="mix-blend-mode: normal;isolation: isolate"/>
  </g>
</svg>
