<svg id="byrin-art" xmlns="http://www.w3.org/2000/svg" width="725.168" height="1081.359" viewBox="0 0 725.168 1081.359">
  <path id="Path_41916" data-name="Path 41916" d="M5363.478,1277.506a2.2,2.2,0,1,0,2.175,2.206A2.2,2.2,0,0,0,5363.478,1277.506Z" transform="translate(-4924.37 -1005.438)" fill="#d9cbb4"/>
  <path id="Path_41917" data-name="Path 41917" d="M5363.452,1283.994a2.2,2.2,0,1,0,2.2,2.181A2.2,2.2,0,0,0,5363.452,1283.994Z" transform="translate(-4924.369 -1001.882)" fill="#d9cbb4"/>
  <path id="Path_41918" data-name="Path 41918" d="M5367.2,1274.262a2.2,2.2,0,1,0,2.195,2.184A2.2,2.2,0,0,0,5367.2,1274.262Z" transform="translate(-4922.318 -1007.216)" fill="#d9cbb4"/>
  <path id="Path_41919" data-name="Path 41919" d="M5367.212,1280.75a2.2,2.2,0,1,0,2.18,2.2A2.2,2.2,0,0,0,5367.212,1280.75Z" transform="translate(-4922.318 -1003.66)" fill="#d9cbb4"/>
  <path id="Path_41920" data-name="Path 41920" d="M5363.465,1271.018a2.2,2.2,0,1,0,2.188,2.192A2.2,2.2,0,0,0,5363.465,1271.018Z" transform="translate(-4924.37 -1008.994)" fill="#d9cbb4"/>
  <path id="Path_41921" data-name="Path 41921" d="M5363.473,1290.482a2.2,2.2,0,1,0,2.18,2.2A2.2,2.2,0,0,0,5363.473,1290.482Z" transform="translate(-4924.369 -998.326)" fill="#d9cbb4"/>
  <path id="Path_41922" data-name="Path 41922" d="M5367.154,1287.238a2.2,2.2,0,1,0,2.238,2.141A2.2,2.2,0,0,0,5367.154,1287.238Z" transform="translate(-4922.318 -1000.104)" fill="#d9cbb4"/>
  <path id="Path_41923" data-name="Path 41923" d="M5359.659,1280.75a2.2,2.2,0,1,0,2.21,2.172A2.2,2.2,0,0,0,5359.659,1280.75Z" transform="translate(-4926.443 -1003.66)" fill="#d9cbb4"/>
  <path id="Path_41924" data-name="Path 41924" d="M5370.916,1283.994a2.2,2.2,0,1,0,2.216,2.163A2.206,2.206,0,0,0,5370.916,1283.994Z" transform="translate(-4920.27 -1001.882)" fill="#d9cbb4"/>
  <path id="Path_41925" data-name="Path 41925" d="M5359.637,1274.262a2.2,2.2,0,1,0,2.232,2.149A2.2,2.2,0,0,0,5359.637,1274.262Z" transform="translate(-4926.443 -1007.216)" fill="#d9cbb4"/>
  <path id="Path_41926" data-name="Path 41926" d="M5359.65,1287.238a2.2,2.2,0,1,0,2.219,2.163A2.2,2.2,0,0,0,5359.65,1287.238Z" transform="translate(-4926.443 -1000.104)" fill="#d9cbb4"/>
  <path id="Path_41927" data-name="Path 41927" d="M5370.924,1290.482a2.2,2.2,0,1,0,2.208,2.174A2.2,2.2,0,0,0,5370.924,1290.482Z" transform="translate(-4920.27 -998.326)" fill="#d9cbb4"/>
  <path id="Path_41928" data-name="Path 41928" d="M5797.29,1175.173a17.916,17.916,0,0,0-15.145-1.417,12.071,12.071,0,0,0-3.476-4.364c.493-.138.994-.269,1.478-.412a3.094,3.094,0,0,0,2.154-3.652c-.112-.508-11.979-50.559-62.2-43.038-50.115,7.508-48.9,53.972-48.882,54.44a3.085,3.085,0,0,0,2.816,2.949c-3.486,7.66-1.016,11.95.351,13.542a8.5,8.5,0,0,0,1.914,1.606c-.021.052-.053.1-.073.153a11.712,11.712,0,0,0,.78,9.448,12.424,12.424,0,0,0,2.16,2.949,4.181,4.181,0,0,0-2.565,2.937,6.794,6.794,0,0,0-.026,2.755c-14.817.739-22.07,15.04-24.044,23.568-15.715,23.627-56.37,84.087-62.716,90.6-9.474,6.279-60.186,23.7-87.623,32.677-2.24-15.716-4.742-30.713-7.487-44.856,1.917-1.129,7.953-5.751,7.878-19.218-.066-11.82-10.028-17.369-15.287-18.652a3.031,3.031,0,0,0-1.06-.061c-3.741-14.587-7.79-27.856-12.112-39.641a16.968,16.968,0,0,0-.588-16.48c-2.593-4.336-6.334-7.222-10.314-8.13a155.7,155.7,0,0,0-8.349-13.817,3.057,3.057,0,0,0,.463-1.259c1.129-8.957-.622-15.563-5.211-19.633-5.539-4.915-13.4-4.371-16.789-3.845-20.007-17.6-43.787-26.246-67.276-25.082-1.991-15.529-8.773-30.132-20.2-43.429a3.134,3.134,0,0,0-.633-.559c-.318-.214-7.91-5.166-17.162-2.9-6.844,1.681-12.632,6.762-17.207,15.1a3.1,3.1,0,0,0,1.07,4.112c.165.105,16.265,10.456,26.038,33.951-29.88,12.217-50.454,40.249-52.427,71.456-.4,6.312-.394,13.659-.174,22.1a3.008,3.008,0,0,0-.962.3c-.433.226-10.622,5.658-8.992,15.877a13.633,13.633,0,0,0,11.023,11.555c.257,5.948.523,12.258.763,18.93-3.589,2.2-11.941,8.443-12.171,19.061-.277,12.8,8.227,18.331,13.03,19.575.095,15.489-.136,32.339-.945,50.58-45.5,4.572-93.938,7.855-142.562-4.87a3.076,3.076,0,0,0-2.5.432c.782-19.573,6.208-44.18,7.008-47.717a21.78,21.78,0,0,0,5.143-1.279,22.04,22.04,0,0,0,9.139-6.8,27.566,27.566,0,0,0,8.73,1.61c5.19,0,9.965-1.948,15.523-6.041,5.658-4.171,9.939-12.31,10.646-20.256a23.518,23.518,0,0,0-3.192-14.52c8.86-4.892,13.85-12.292,13.7-20.477,6.937-.049,23.043-1.056,31.333-8.934a16.3,16.3,0,0,0,5.257-12.244c0-5.83-2.429-10.891-7.226-15.043-8.531-7.386-24.456-11.787-47.33-13.083-6.192-.35-12.4-.438-18.36-.342.031-.07.073-.132.1-.206,5.342-14.5,5.443-26.605.306-35.99a24.662,24.662,0,0,0-18.362-12.085c-6.223-.731-11.723,1.164-15.492,5.336a30.956,30.956,0,0,0-4.406,6.976c-.369.72-.734,1.438-1.12,2.142-4.824,8.8-12.626,15.3-20.888,22.172-2.489,2.071-5.063,4.214-7.52,6.406-1.075.958-2.146,1.878-3.2,2.786-9.357,8.038-18.2,15.631-20.14,40.241-1.1,13.973-4.231,92.091-1.678,145.411.651,13.6,2.766,28.676,13.514,37.426,7.029,5.723,16.337,7.4,23.819,8.745a378.823,378.823,0,0,0,67.091,5.648c30.653,0,63.6-3.146,98.525-9.394q-1.748,16.979-4.269,35.182a19.162,19.162,0,0,0-7.6,31.835,3.09,3.09,0,0,0,2.185.9c.1,0,.194-.019.292-.028-.631,3.647-1.276,7.329-1.94,11.106-4.824,27.4-9.89,56.223-9.974,83.72a11.761,11.761,0,0,0-7.834,2.587c-5.084,3.869-7.746,10.493-6.467,16.111.975,4.29,3.26,7.659,6.436,9.487a12.484,12.484,0,0,0,6.3,1.6,17.083,17.083,0,0,0,3.708-.435,126.648,126.648,0,0,0,5.956,23.212,3.049,3.049,0,0,0-.824,1.22c-1.638,4.584-40.2,112.634-47.275,144.465-6.039,27.178-12.061,67.522-20.834,131.537a3.028,3.028,0,0,0-1.563-.225c-8.488,1.045-13.9,3.76-16.554,8.3-3.331,5.7-1.263,12.567,1.2,18.529.881,2.135-.758,5.621-2.654,9.658-3.763,8.01-8.918,18.979.733,31.469,5.178,6.7,4.161,11.154,2.874,16.792-1.141,5-2.436,10.676,1.359,17.583a19.185,19.185,0,0,0,7.794,7.358,168.492,168.492,0,0,0-21.98,27.03c-14.659,22.444-20.792,44.639-17.731,64.182a10.927,10.927,0,0,0,1.034,3.155,3.056,3.056,0,0,0-.6,1.742l-.357,14.308c-.085,2.936,1.441,5.623,4.532,7.987l.022.017a2.164,2.164,0,0,0-.4-.042,2.2,2.2,0,1,0,2.2,2.185,2.175,2.175,0,0,0-.339-1.145,49.076,49.076,0,0,0,12.38,5.126,2.193,2.193,0,1,0,2.717,2.139,2.176,2.176,0,0,0-.654-1.568c2.107.557,4.368,1.081,6.757,1.57a2.2,2.2,0,0,0,4.232.8q3.334.588,6.947,1.091a2.179,2.179,0,0,0,1.054.286,2.212,2.212,0,0,0,.542-.074c4.041.53,8.323.979,12.812,1.34a2.2,2.2,0,1,0,2.831.215q3.209.228,6.546.4a2.2,2.2,0,1,0,3.814.173q2.98.116,6.051.188a2.2,2.2,0,1,0,4.106.074q2.38.029,4.764.029c.382,0,.762-.007,1.141-.009a2.277,2.277,0,0,0-.129.661,2.2,2.2,0,1,0,4.4.056,2.057,2.057,0,0,0-.14-.752q3.213-.042,6.422-.138a2.175,2.175,0,0,0-.184.86,2.2,2.2,0,1,0,4.4,0,2.123,2.123,0,0,0-.26-1q3.179-.124,6.346-.294a2.195,2.195,0,1,0,3.958,1.326,2.165,2.165,0,0,0-.6-1.524q3.739-.234,7.459-.533a2.2,2.2,0,1,0,1.3-.1q7.194-.6,14.263-1.461a2.157,2.157,0,0,0,1.028.255,2.2,2.2,0,0,0,1.435-.565q3.283-.419,6.525-.884a2.19,2.19,0,0,0,4.248-.63q2.933-.458,5.827-.953a2.248,2.248,0,0,0-.17.813,2.2,2.2,0,1,0,4.4.014,2.174,2.174,0,0,0-.6-1.483q6.242-1.144,12.235-2.481a2.175,2.175,0,0,0,3.112-.706q3.04-.713,6-1.474a2.241,2.241,0,0,0-.037.359,2.2,2.2,0,0,0,4.4.04,2.159,2.159,0,0,0-.508-1.42c2.206-.6,4.381-1.218,6.507-1.862,9.344-2.827,6.512-19.464,5.849-22.772a3.47,3.47,0,0,0-.2-.627c2.583-8.974-.335-28.136-4.375-46.646a3.2,3.2,0,0,0-.215-.978c-4.034-18.276-9.074-35.7-10.868-41.735a3.173,3.173,0,0,0-1.352-1.777,19.649,19.649,0,0,0,7.557-5.629c2.891-3.783,3.534-8.6,1.914-14.306-2.513-8.836-.538-12.742,2.194-18.148,2.961-5.853,6.645-13.137,4.476-27.926a45.1,45.1,0,0,0-4.295-13.846c-1.748-3.755-2.8-6.024-1.708-11.518,1.364-6.858.3-12.326-3.155-16.252-4.291-4.868-11.019-5.827-15.336-5.878-1.126-23.888-3.413-77.275-4.285-98.857-.712-17.64,2.6-100.475,3.438-121.021.566.334,1.121.673,1.7,1,20.277,11.587,41.28,17.307,61.8,17.307a109.044,109.044,0,0,0,27.441-3.508c.84,14.343,4.736,83.07,3.4,101-1.2,16.046-16.016,85.139-22.17,112.658-3.868-.212-12.357.062-17.436,5.831-3.459,3.926-4.522,9.4-3.158,16.252,1.187,5.958.163,8.263-1.695,12.45a59,59,0,0,0-4.272,12.713c-1.9,8.863,1.455,16.6,4.419,23.433,2.882,6.637,4.546,10.878,2.527,14.292-3.372,5.716-3.848,10.965-1.41,15.607,1.021,1.946,3.145,5.954,12.3,9.876a3.119,3.119,0,0,0-.526,1.367c-.045.347-4.342,34.908-6.568,56.731-1.644,16.134-2.991,29.537,2.8,35.065a3.052,3.052,0,0,0-.644,1.217,31.383,31.383,0,0,0-.5,9.79,2.2,2.2,0,1,0,.479,4.083c.082.526.144.864.153.929l.341,1.8,1.491.488a2.119,2.119,0,0,0-.148.8,2.2,2.2,0,0,0,4.365.363,220.136,220.136,0,0,0,21.878,3.884,2.2,2.2,0,1,0,3.446,1.783,2.17,2.17,0,0,0-.543-1.4c2.2.279,4.541.557,7.036.832a2.117,2.117,0,0,0-.094.587,2.2,2.2,0,1,0,4.4-.014c0-.042-.013-.081-.014-.123,1.606.162,3.272.321,4.989.478a2.189,2.189,0,0,0,4.241.368c14.077,1.172,31.627,2.118,53.216,2.485a2.191,2.191,0,1,0,1.49.027q3.952.062,8.087.1a2.2,2.2,0,1,0,2.006.011c1.883.014,3.76.028,5.7.031l2.256,0a2.2,2.2,0,1,0,2.143,0q4.286,0,8.429-.037a2.2,2.2,0,1,0,1.968-.016q4.274-.042,8.378-.112a2.194,2.194,0,1,0,1.324-.025c12.368-.226,23.474-.651,32.861-1.268a2.147,2.147,0,0,0,2.515-.17l.051,0c2.5-.177,4.727-.362,6.749-.549a2.186,2.186,0,0,0,3.928-.4c2.486-.279,4.543-.563,6.249-.854,0,.042-.011.082-.011.124a2.2,2.2,0,1,0,4.4-.056,2.178,2.178,0,0,0-.247-.943c3.741-1.017,4.227-2.044,4.651-2.955a33.367,33.367,0,0,0,2.554-17.868l.413-1.252c8.625-26.127-1.109-51.6-28.145-73.663-12.8-10.449-18.187-13.059-19.946-13.7a10.829,10.829,0,0,0-9.406-9.543,11.37,11.37,0,0,0-4.833-10.982c2.789-6.466.519-11.207-1.345-15.077-2.122-4.408-3.659-7.594,1.164-13.837,9.651-12.49,4.5-23.459.732-31.471-1.9-4.035-3.534-7.522-2.653-9.657,2.46-5.96,4.527-12.824,1.2-18.529-2.65-4.542-8.065-7.258-16.552-8.3a3.04,3.04,0,0,0-.343-.008c.229-10.739.521-20.973.811-30.912,1.185-40.751,2.123-72.941-3.086-97.563-11.39-53.838-28.648-124.218-30.5-131.754a218.876,218.876,0,0,0,12.405-22.239,16.042,16.042,0,0,0,10.683-24.907,3.016,3.016,0,0,0,.321-.687c11.97-43.447,16.267-101.649,15.609-149.686a9.494,9.494,0,0,0,4.905-2.543,14.55,14.55,0,0,0,4.289-11.615c-.729-6.5-5.319-10.375-9.009-13.495a3.1,3.1,0,0,0-1.206-.619c-.075-1.236-.148-2.471-.231-3.68q-1.493-21.965-3.572-42.818c4.46-.367,101.48-8.625,127.06-32.6,25.029-24.814,86.066-88.7,94.25-97.278,2.617-.083,8.79-.585,20.106-3.039,24.446-5.3,28.965-12.307,35.443-25.265,1.267-2.534,2.68-5.175,4.175-7.973,5.973-11.176,12.152-22.733,11.549-31.769a12.16,12.16,0,0,0-1.592-5.148,81.157,81.157,0,0,0,4.751-15.759C5805.165,1183.985,5802.768,1178.411,5797.29,1175.173Zm-3.152,5.33c2.205,1.3,4.632,3.881,3.66,8.745a79.339,79.339,0,0,1-3.4,12.088,12.815,12.815,0,0,0-1.592-.819c-2.547-1.091-7.247-2.077-13.343,1.011a4.7,4.7,0,0,0-.965-2.453,13.8,13.8,0,0,0,1.693-11.968,3.8,3.8,0,0,0-.964-1.51,10.3,10.3,0,0,0,3.412-5.078C5785.255,1178.365,5790.5,1178.351,5794.138,1180.5Zm-78.05,45.379a197.886,197.886,0,0,1-25.877-1.9c-3.671-4.232-6.812-9.014-7.483-11.282,2.537-.52,8.81-.61,14.907-.7,8.557-.122,19.208-.276,31.468-1.343a257.973,257.973,0,0,0,35.081-5.625,88.981,88.981,0,0,1,8.877-1.692c-.085.257-.2.565-.342.93a3.086,3.086,0,0,0-.072,2.058,206,206,0,0,0-20.149,20.114A55.5,55.5,0,0,0,5716.088,1225.882Zm-14.77-28.864c-.013.009-.015.03-.028.037a.44.44,0,0,0-.04-.031C5701.273,1197.021,5701.294,1197.021,5701.318,1197.018Zm24.5-4.856q.389-.121.752-.274c-.027.136-.063.269-.089.4-.08-.025-.161-.047-.244-.067A3.535,3.535,0,0,0,5725.819,1192.162Zm44.466-20.322c3.955,1.4,6.345,3.468,6.554,5.679a4.044,4.044,0,0,1-2.212,3.766c-2.214,1.3-5.141.954-7.825-.91a2.892,2.892,0,0,0-.285-.176c-9.638-5.256-13.274-2.316-16.172,1.15-1.5,1.782-2.049,2.447-6.5-.019-9.3-5.154-13.8-.555-16.784,2.487-2.3,2.347-3.07,2.883-4.825,2.317l-.694-.223c-7.895-2.544-12.66-4.079-19.549,3.833-1.231,1.415-1.234,1.415-3.372.337-2.589-1.3-6.5-3.273-12.589-.783-3.037,1.24-5.828,1.2-6.95-.11-1.022-1.19-1.142-4.37,1.882-9.409.009-.016.013-.031.021-.046,15.953-.059,56.819-.961,88.824-8.118A3.1,3.1,0,0,0,5770.285,1171.84Zm-49.269-43.425c38.4-5.755,51.361,25.592,54.454,35.444-34.235,9.166-85.036,9.72-98,9.677C5678.062,1163.892,5682.984,1134.112,5721.017,1128.414Zm-224.628,167.458c.038,6.706-1.687,10.329-3.083,12.17q-2.555-12.514-5.36-24.073C5491.027,1285.32,5496.35,1288.686,5496.389,1295.872Zm-46.963-104.348a128.872,128.872,0,0,0-9.807-11.235,11.264,11.264,0,0,1,6.4,2.506C5448.1,1184.647,5449.226,1187.587,5449.425,1191.524Zm-131.744-73.457c3.4-5.316,7.351-8.568,11.788-9.681a17.069,17.069,0,0,1,12.01,1.833c10.52,12.357,16.552,25.322,18.411,39.553a85.071,85.071,0,0,0-16.129,3.615C5335.45,1133.229,5322.966,1122.094,5317.682,1118.067Zm-36.16,146.207c-.629-3.945,2.139-6.814,4.055-8.29q.237,6.746.576,14.334A7.361,7.361,0,0,1,5281.522,1264.274Zm-.309,50.656c.114-5.369,3.4-9.313,6.236-11.73q.37,11.585.543,24.524C5285.447,1326.45,5281.035,1323.069,5281.213,1314.93Zm-162.761,123.728c-7.132-1.284-15.215-2.739-21-7.454-8.836-7.192-10.624-20.072-11.239-32.92-2.54-53.051.569-130.737,1.667-144.628,1.741-22.064,8.916-28.228,18-36.033,1.085-.932,2.184-1.876,3.288-2.861,2.377-2.119,4.912-4.229,7.36-6.268,8.344-6.943,16.969-14.122,22.357-23.953.416-.759.811-1.531,1.2-2.3a25.828,25.828,0,0,1,3.487-5.639c3.222-3.566,7.755-3.621,10.173-3.338a18.559,18.559,0,0,1,13.655,8.906c4.24,7.746,4.01,18.134-.686,30.876a3.076,3.076,0,0,0,.166,2.491,255.013,255.013,0,0,0-26.411,2.229,3.1,3.1,0,1,0,.885,6.129,264.888,264.888,0,0,1,49.079-1.978c21.173,1.2,36.259,5.2,43.627,11.582,3.422,2.965,5.085,6.354,5.085,10.362a10.19,10.19,0,0,1-3.325,7.75c-7.071,6.727-22.729,7.259-28.155,7.231-2.529-7.434-9.225-13.433-17.939-15.634-12.616-3.188-19.489-2.546-31.966-1.387-3.583.333-7.645.709-12.47,1.054a3.1,3.1,0,1,0,.441,6.177c4.893-.35,8.986-.731,12.6-1.065,12.177-1.133,18.292-1.7,29.876,1.224,8.028,2.028,13.783,8.109,14.327,15.134.5,6.493-3.66,12.331-11.475,16.276-9.64-9.4-21.583-9.206-35.36-8.941-2.311.045-4.685.09-7.123.09a3.294,3.294,0,0,0,0,6.588c2.48,0,4.9-.046,7.248-.091,13.176-.246,23.579-.451,31.374,7.783a16.846,16.846,0,0,1,4.471,13.4c-.6,6.781-4.479,12.949-7.992,15.538-6.286,4.63-10.5,5.719-16.693,3.983a41.143,41.143,0,0,0,2.015-4.7,3.1,3.1,0,0,0-5.838-2.061c-2.488,7.046-6.245,11.6-11.171,13.529-7.9,3.1-16.581-1.381-16.672-1.429a3.1,3.1,0,0,0-2.905,5.467,31.749,31.749,0,0,0,10.286,3.05c-1.993,8.994-9.938,47.151-5.71,65.471a3.1,3.1,0,0,0,3.013,2.4,3.038,3.038,0,0,0,.7-.081,3.1,3.1,0,0,0,2.32-3.712,53.449,53.449,0,0,1-1.069-11.318,3.053,3.053,0,0,0,1.021.491c17.362,4.542,38.586,8.973,75.489,8.973,14.223,0,30.786-.659,50.345-2.225a2.121,2.121,0,0,0,3.811-.315q4.591-.387,9.4-.842a2.134,2.134,0,1,0,3.043-.291l1.741-.172q-.438,8.619-1.06,17.629a2.131,2.131,0,1,0-.1,1.344c-.152,2.141-.309,4.29-.479,6.463a2.139,2.139,0,1,0-.262,3.265c-.135,1.69-.275,3.382-.422,5.093a2.135,2.135,0,1,0-.815,4.112,2.085,2.085,0,0,0,.453-.048q-.206,2.281-.425,4.582a2.142,2.142,0,0,0-1.979,1.3c-3.042.544-6.073,1.073-9.083,1.568a2.117,2.117,0,0,0,.138-.7,2.136,2.136,0,1,0-4.271-.022,2.119,2.119,0,0,0,.459,1.3C5212.847,1446,5162.265,1446.545,5118.452,1438.658Zm153.683,52.168a13.313,13.313,0,0,1,5.524-7.318q-.6,4.136-1.256,8.327-.839,5.4-1.768,10.841A13.4,13.4,0,0,1,5272.134,1490.827Zm-15.249,135.711c-2.129-1.225-3.073-3.663-3.489-5.493-.833-3.672,1.532-7.794,4.181-9.808a5.428,5.428,0,0,1,4.154-1.287c.147,5.72.53,11.375,1.2,16.936C5260.486,1627.522,5258.442,1627.432,5256.886,1626.538Zm-29.177,176.774c3.908-17.588,18.033-60.089,29.8-94.342a2.132,2.132,0,1,0,2.07-2.661,2.108,2.108,0,0,0-1.315.461q.9-2.608,1.771-5.136a2.149,2.149,0,0,0,1.375-2,2.112,2.112,0,0,0-.309-1.085c1.29-3.723,2.526-7.288,3.7-10.646a2.133,2.133,0,1,0,1.4-4.011c2.958-8.457,5.37-15.284,6.873-19.526a102.184,102.184,0,0,0,7.285,13.24,2.12,2.12,0,0,0-1.626-.785,2.139,2.139,0,1,0,2.125,2.133,2.089,2.089,0,0,0-.218-.916,102.99,102.99,0,0,0,16.917,19.645,2.134,2.134,0,1,0,2.9,2.538q1.369,1.158,2.8,2.291a2.129,2.129,0,1,0,3.364,2.575q1.5,1.106,3.063,2.184a2.108,2.108,0,0,0-.361,1.153,2.143,2.143,0,0,0,2.094,2.164c.059,0,.114-.011.172-.014-.049,1.21-.113,2.738-.186,4.545a2.13,2.13,0,0,0-.174,4.248q-.084,2.146-.184,4.6a2.133,2.133,0,0,0-.165,4.147c-1.252,31.832-3.4,90.6-2.794,105.544.486,12.011,1.648,39.51,2.752,64.734.539,12.315,1.055,23.859,1.451,32.335.316,6.8.494,10.6.709,12.8-28.92,3.816-86.154-.331-106.949-2.435C5215.3,1873.3,5221.506,1831.22,5227.709,1803.312Zm-15.972,237.567c9.444-4.966,29.622-.9,40.035,5.778a5.405,5.405,0,0,1-4.185,9.819c-11.225-7.753-23.768-10.53-38.184-8.431A5.411,5.411,0,0,1,5211.737,2040.878Zm125.057,95.8c-2.447.512-4.85.994-7.248,1.47-.02-5.2.333-22.437,5.382-37.107C5341.308,2133.881,5336.844,2136.655,5336.794,2136.682Zm-35.019-27.931.011.014c2.671,3.293,3.382,7.747,2.767,13.18-.632,5.592-2.8,8.687-5.817,9.7-3.578,1.194-7.411,1.608-11.438,2.376-.983.187-1.983.291-3.215.432-.792.092-1.436-.823-1.448-2.066-.165-15.3-.33-30.494-.5-46.243-.012-1.283.643-2.215,1.458-2.078,4.72.8,8.747,1.474,12.556,2.13a4.554,4.554,0,0,1,.955.372c2.838,1.195,5.189,3.3,6.089,8.505.738,4.286.178,7.708-1.549,10.576A3.109,3.109,0,0,0,5301.775,2108.751Zm-56.665-47.412a5.419,5.419,0,1,1-6.283,8.831c-11.711-8.333-23.441-7.012-31.245-5.29a5.419,5.419,0,0,1-2.334-10.583C5220.642,2050.9,5233.681,2053.208,5245.111,2061.339Zm31.5,84.841c.07.09.133.185.205.27-.077.009-.153.017-.231.025C5276.6,2146.376,5276.609,2146.284,5276.615,2146.18Zm-110.893-50.216a3.166,3.166,0,0,0,.589-.621c6.5-9.292,17.749-15.168,31.666-16.551,18.554-1.837,38.375,4.438,50.489,16,23.719,22.638,22.325,46.687,21.6,52.37-58.221,5.739-93.8-.9-105.27-8.826-1.71-1.181-3.818-3.034-4.15-5.147C5158.635,2120.341,5161.164,2107.587,5165.722,2095.964Zm170.551,58.409c-65.136,19.714-155.812,15.679-173.6,2.083-.8-.61-2.132-1.8-2.1-2.9l.254-10.171c.11.079.21.161.323.24,10.448,7.217,33.6,12.156,67.285,12.154,29.143,0,66.177-3.7,109.678-12.812.1-.02.208-.051.315-.079C5338.9,2148.141,5338.43,2153.721,5336.273,2154.373Zm-7.034-212.141c2.113,2.4,2.7,6.085,1.728,10.949-1.487,7.48.289,11.3,2.168,15.34a39.1,39.1,0,0,1,3.783,12.132c1.883,12.846-1.043,18.636-3.874,24.234-2.851,5.638-5.8,11.47-2.628,22.635,1.434,5.034.188,7.464-.876,8.853-4.962,6.5-22.255,9.481-52.86,9.157q-9.416-.1-17.868-.253a11.538,11.538,0,0,0-3.7-3.836c-10.866-6.969-33.72-12.642-46.257-6.045a11.545,11.545,0,0,0-4.909,4.96c-6.429-1.892-10.481-4.42-12.3-7.725-2.661-4.845-1.776-8.73-.749-13.225,1.382-6.066,2.953-12.942-4.013-21.955-7.338-9.5-3.622-17.405-.028-25.051,2.417-5.14,4.7-10,2.772-14.654-1.88-4.559-3.541-9.674-1.574-13.044,1.589-2.72,5.611-4.5,11.959-5.278l-.141,1.037a3.093,3.093,0,0,0-.126,6.15c9.792,1.256,48.891,4.616,82.055,4.616,15.409,0,29.545-.728,38.853-2.728a3.1,3.1,0,1,0-1.3-6.053c-.094.021-.2.039-.292.059-.055-.963-.126-2.328-.211-4.043C5321.919,1938.55,5326.58,1939.216,5329.239,1942.232Zm190.14,100.746a5.408,5.408,0,0,1,3.587,6.626c-14.539.539-26.381,5.527-36.019,15.168a5.407,5.407,0,0,1-5.9-8.889C5490.08,2047.436,5509.2,2039.8,5519.379,2042.977Zm-139.045,67.061c.218-2.168.462-4.467.717-6.842,15.975,2.992,23.674,15.364,25.38,40.54q-3.045-.39-6.057-.78c-5.694-.735-11.313-1.461-16.909-2.14C5378.661,2140.234,5377.958,2133.331,5380.334,2110.039Zm87.247,3.394.016.016c3.95,3.887,5.029,9.174,4.094,15.507-.953,6.456-4.142,9.633-8.416,10.177-4.821.611-9.715.313-14.58.359-1.15.011-2.3-.066-3.7-.147-.882-.053-1.6-1.085-1.611-2.334-.182-15.361-.363-30.583-.548-46.324-.018-1.281.707-2.318,1.614-2.308,5.444.044,10.379.083,15.314.141a6.527,6.527,0,0,1,1.281.245c3.912.851,7.29,2.874,8.61,8.778,1.1,4.926.263,8.951-2.269,12.324A2.963,2.963,0,0,0,5467.581,2113.432Zm17.684,36.234c.017.1.03.209.048.314l-.568-.007C5484.921,2149.877,5485.094,2149.772,5485.265,2149.667Zm93.291,12.753c-4.685,1.928-31.713,4.437-80.318,4.356-75.545-.153-108.47-7.333-116.1-9.31-.369-2.819-.7-7.312.057-10.222.023-.086.023-.172.042-.257.162.027.3.078.472.1,5.578.676,11.18,1.4,16.86,2.132,26.545,3.429,55.128,7.122,91.053,7.122a609.039,609.039,0,0,0,89.739-7.039A27.487,27.487,0,0,1,5578.556,2162.42Zm2.856-19.653c-34.926,5.257-64.191,7.19-89.735,7.24a2.574,2.574,0,0,0-.027-.334c-3.71-20.392,2.163-40.929,15.709-54.939,12.421-12.846,29.889-18.763,48.031-16.346C5579.054,2097.986,5588.025,2120.191,5581.412,2142.767Zm-48.009-82.154a5.4,5.4,0,0,1-5.608,5.222c-8-.28-19.763.53-29.777,10.84a5.419,5.419,0,0,1-7.773-7.551c9.774-10.062,22.194-14.688,37.936-14.117A5.419,5.419,0,0,1,5533.4,2060.613Zm-15.148-107.371c1.968,3.372.308,8.485-1.574,13.045-1.924,4.658.358,9.515,2.772,14.655,3.593,7.646,7.308,15.554-.028,25.051-7.163,9.268-4.21,15.391-1.841,20.311,1.7,3.532,2.963,6.16,1.143,10.161-13.54-2.461-33.043,6.6-41.911,14.894a11.564,11.564,0,0,0-3.014,4.618c-8.863.165-23.269-.455-43.921-1.9-40.671-2.847-52.662-10.019-55.559-15.534-1.391-2.65-.98-5.784,1.262-9.58,3.724-6.305.724-13.221-2.182-19.907-2.718-6.266-5.531-12.745-4.042-19.667a52.81,52.81,0,0,1,3.877-11.5c2.055-4.629,3.677-8.285,2.108-16.168-.966-4.865-.386-8.549,1.729-10.951,2.974-3.375,8.452-3.806,11.4-3.774-.418,1.828-.744,3.222-.959,4.105-.186-.039-.375-.074-.559-.113a3.1,3.1,0,0,0-1.3,6.055c9.307,2,23.436,2.726,38.85,2.726,33.164,0,72.265-3.363,82.057-4.616a3.089,3.089,0,0,0,0-6.129c0-.342.012-.673.019-1.016C5512.757,1948.809,5516.692,1950.567,5518.254,1953.242Zm-16.926-42.521c-.36,12.374-.731,25.167-.971,38.894-20.657,2.094-77.7,6.24-106.751,2.481.643-2.463,1.621-6.875,3.427-15.044,1.544-6.986,4.664-21.217,8.2-38.027,5.466-26.02,12.159-59.352,12.983-70.376,1.439-19.267-2.832-92.485-3.474-103.254.266-.085.529-.18.8-.268a2.13,2.13,0,1,0,3.881-1.343c1.152-.429,2.3-.885,3.44-1.353a2.087,2.087,0,0,0,1.241.376,2.143,2.143,0,0,0,2.064-1.8,124.642,124.642,0,0,0,29.9-19.012,2.062,2.062,0,0,0,.766.133,2.142,2.142,0,0,0,2.094-2.164,2.061,2.061,0,0,0-.045-.406c.972-.873,1.939-1.769,2.9-2.68a2.1,2.1,0,0,0,1.453.548,2.127,2.127,0,0,0,1.538-3.562q1.451-1.6,2.933-3.477c0,.016,0,.031,0,.046a2.142,2.142,0,0,0,2.177,2.143,2.17,2.17,0,0,0,.361-.045c.27,1.111.563,2.313.868,3.581a2.092,2.092,0,0,0-1.28-.433,2.139,2.139,0,1,0,1.919,3.069c.825,3.4,1.752,7.255,2.764,11.465a2.116,2.116,0,0,0,.753,3.136q.606,2.531,1.244,5.208a1.935,1.935,0,0,0-.281-.026,2.138,2.138,0,1,0,1.206,3.9c6.32,26.576,14.56,61.989,20.949,92.182C5503.43,1838.518,5502.5,1870.381,5501.328,1910.72Zm-32.1-222.321h0Zm22.831-58.872c-.264-.164-.524-.333-.8-.48a3.1,3.1,0,1,0-2.923,5.459,10.091,10.091,0,0,1-7.408,18.634,3.1,3.1,0,1,0-1.621,5.977c.071.019.143.024.212.042-5.776,11.487-14.15,25.69-21.146,32.437-38.356,36.984-89.161,43.12-135.9,16.413-70.542-40.311-57.425-114.851-44.739-186.936,1.645-9.35,3.347-19.018,4.787-28.286,15.218-97.921,12.059-170.905,9.969-219.2-.839-19.39-1.5-34.7-.774-46.222,1.827-28.9,20.949-54.872,48.714-66.168,29.872-12.152,63.484-5.149,89.921,18.739a130.21,130.21,0,0,1,26.049,33.425,12.474,12.474,0,0,0-7.265,8.169,3.1,3.1,0,1,0,5.905,1.862c.838-2.658,2.608-4.333,4.854-4.6,2.933-.365,6.132,1.717,8.324,5.384a10.716,10.716,0,0,1,.467,10.32,3.088,3.088,0,0,0-1.094,1.771c-1.576,2.051-3.585,3.006-5.4,2.55a3.1,3.1,0,1,0-1.514,6,9.855,9.855,0,0,0,2.413.3,11.07,11.07,0,0,0,6.431-2.167c17.387,49.142,30.131,123.227,36,209.576C5508.941,1502.916,5506.057,1576.694,5492.055,1629.527Zm23.934-158.932a8.419,8.419,0,0,1-2.393,6.431,4.5,4.5,0,0,1-.765.578q-.166-6.955-.466-13.544C5514.356,1466.061,5515.7,1468.047,5515.989,1470.595ZM5783.7,1240.219c-1.516,2.836-2.948,5.514-4.254,8.123-5.679,11.362-8.531,17.066-31.216,21.983-14.465,3.137-19.9,2.91-19.928,2.912a3.132,3.132,0,0,0-2.436.952c-.683.714-68.379,71.678-94.977,98.046-17.555,16.455-74.868,25.321-104.769,28.928v-.012a2.2,2.2,0,0,0-4.393-.054,2.364,2.364,0,0,0,.073.574c-3.033.347-5.672.629-7.827.848a2.194,2.194,0,1,0-3.088.305c-2.019.193-3.19.293-3.292.3-.03,0-.058.012-.088.016-.16-1.545-.326-3.076-.492-4.61a2.187,2.187,0,0,0-.466-4.258q-.338-3.044-.689-6.059a2.117,2.117,0,0,0,.526.057,2.2,2.2,0,0,0-.072-4.4,2.17,2.17,0,0,0-.945.234q-.412-3.439-.84-6.836a2.2,2.2,0,1,0-.253-1.98q-.589-4.609-1.208-9.148l1.09-.357a1.672,1.672,0,0,0-.02.172,2.2,2.2,0,1,0,4.391.023,2.176,2.176,0,0,0-.561-1.45c18.661-6.174,75.271-25.211,85.589-32.349a3.5,3.5,0,0,0,.385-.314c7.452-7.172,61.761-88.809,64.069-92.281a3.153,3.153,0,0,0,.451-1.076,35.068,35.068,0,0,1,4.6-10.657c4.073-6.141,9.471-8.99,16.036-8.553a63.086,63.086,0,0,0,7.246,9.648,3.1,3.1,0,0,0,1.812.985c.385.063,7.035,1.115,16.132,1.72a3.091,3.091,0,0,0,4.063,4.473c22.572-13.033,42.846-3.581,43.691-3.175a3.1,3.1,0,0,0,3.729-.8,200.71,200.71,0,0,1,22.256-22.255c4.586-3.822,8.969-5.13,12.343-3.683a6.892,6.892,0,0,1,4.167,5.57C5795.015,1219.049,5789,1230.3,5783.7,1240.219Z" transform="translate(-5079.045 -1101.76)" fill="#d9cbb4"/>
  <path id="Path_41929" data-name="Path 41929" d="M5209.417,1793.693a2.2,2.2,0,1,0,2.187,2.193A2.205,2.205,0,0,0,5209.417,1793.693Z" transform="translate(-5008.802 -722.526)" fill="#d9cbb4"/>
  <path id="Path_41930" data-name="Path 41930" d="M5258.064,1797.439a2.2,2.2,0,1,0,2.2,2.178A2.2,2.2,0,0,0,5258.064,1797.439Z" transform="translate(-4982.132 -720.472)" fill="#d9cbb4"/>
  <path id="Path_41931" data-name="Path 41931" d="M5251.54,1797.439a2.2,2.2,0,1,0,2.237,2.144A2.2,2.2,0,0,0,5251.54,1797.439Z" transform="translate(-4985.688 -720.473)" fill="#d9cbb4"/>
  <path id="Path_41932" data-name="Path 41932" d="M5245.061,1797.439a2.2,2.2,0,1,0,2.227,2.152A2.2,2.2,0,0,0,5245.061,1797.439Z" transform="translate(-4989.243 -720.473)" fill="#d9cbb4"/>
  <path id="Path_41933" data-name="Path 41933" d="M5238.552,1797.439a2.2,2.2,0,1,0,2.25,2.192A2.2,2.2,0,0,0,5238.552,1797.439Z" transform="translate(-4992.801 -720.473)" fill="#d9cbb4"/>
  <path id="Path_41934" data-name="Path 41934" d="M5232.105,1797.439a2.2,2.2,0,1,0,2.206,2.235A2.2,2.2,0,0,0,5232.105,1797.439Z" transform="translate(-4996.355 -720.472)" fill="#d9cbb4"/>
  <path id="Path_41935" data-name="Path 41935" d="M5225.607,1797.439a2.2,2.2,0,1,0,2.218,2.161A2.2,2.2,0,0,0,5225.607,1797.439Z" transform="translate(-4999.913 -720.472)" fill="#d9cbb4"/>
  <path id="Path_41936" data-name="Path 41936" d="M5258.064,1782.373a2.2,2.2,0,1,0,2.2,2.179A2.2,2.2,0,0,0,5258.064,1782.373Z" transform="translate(-4982.132 -728.73)" fill="#d9cbb4"/>
  <path id="Path_41937" data-name="Path 41937" d="M5251.583,1786.767a2.2,2.2,0,1,0-2.205-2.176A2.205,2.205,0,0,0,5251.583,1786.767Z" transform="translate(-4985.688 -728.73)" fill="#d9cbb4"/>
  <path id="Path_41938" data-name="Path 41938" d="M5215.858,1793.693a2.2,2.2,0,1,0,2.233,2.147A2.2,2.2,0,0,0,5215.858,1793.693Z" transform="translate(-5005.246 -722.526)" fill="#d9cbb4"/>
  <path id="Path_41939" data-name="Path 41939" d="M5222.354,1793.693a2.2,2.2,0,1,0,2.225,2.155A2.208,2.208,0,0,0,5222.354,1793.693Z" transform="translate(-5001.69 -722.525)" fill="#d9cbb4"/>
  <path id="Path_41940" data-name="Path 41940" d="M5228.866,1793.693a2.2,2.2,0,1,0,2.2,2.24A2.2,2.2,0,0,0,5228.866,1793.693Z" transform="translate(-4998.135 -722.526)" fill="#d9cbb4"/>
  <path id="Path_41941" data-name="Path 41941" d="M5235.35,1793.693a2.2,2.2,0,1,0,2.207,2.175A2.2,2.2,0,0,0,5235.35,1793.693Z" transform="translate(-4994.577 -722.526)" fill="#d9cbb4"/>
  <path id="Path_41942" data-name="Path 41942" d="M5241.851,1793.693a2.2,2.2,0,1,0,2.194,2.189A2.2,2.2,0,0,0,5241.851,1793.693Z" transform="translate(-4991.021 -722.526)" fill="#d9cbb4"/>
  <path id="Path_41943" data-name="Path 41943" d="M5248.314,1793.693a2.2,2.2,0,1,0,2.218,2.163A2.2,2.2,0,0,0,5248.314,1793.693Z" transform="translate(-4987.466 -722.526)" fill="#d9cbb4"/>
  <path id="Path_41944" data-name="Path 41944" d="M5254.824,1793.693a2.2,2.2,0,1,0,2.2,2.183A2.2,2.2,0,0,0,5254.824,1793.693Z" transform="translate(-4983.91 -722.526)" fill="#d9cbb4"/>
  <path id="Path_41945" data-name="Path 41945" d="M5257.021,1788.369a2.2,2.2,0,1,0-2.205,2.239A2.207,2.207,0,0,0,5257.021,1788.369Z" transform="translate(-4983.91 -726.624)" fill="#d9cbb4"/>
  <path id="Path_41946" data-name="Path 41946" d="M5248.338,1790.608a2.2,2.2,0,1,0-2.2-2.177A2.2,2.2,0,0,0,5248.338,1790.608Z" transform="translate(-4987.466 -726.625)" fill="#d9cbb4"/>
  <path id="Path_41947" data-name="Path 41947" d="M5417.666,1790.607a2.2,2.2,0,1,0-2.19-2.194A2.2,2.2,0,0,0,5417.666,1790.607Z" transform="translate(-4894.652 -726.625)" fill="#d9cbb4"/>
  <path id="Path_41948" data-name="Path 41948" d="M5411.161,1790.607a2.2,2.2,0,1,0-2.173-2.209A2.205,2.205,0,0,0,5411.161,1790.607Z" transform="translate(-4898.209 -726.625)" fill="#d9cbb4"/>
  <path id="Path_41949" data-name="Path 41949" d="M5260.264,1792.146a2.2,2.2,0,1,0-2.244,2.2A2.2,2.2,0,0,0,5260.264,1792.146Z" transform="translate(-4982.131 -724.575)" fill="#d9cbb4"/>
  <path id="Path_41950" data-name="Path 41950" d="M5251.521,1789.955a2.2,2.2,0,1,0,2.255,2.186A2.2,2.2,0,0,0,5251.521,1789.955Z" transform="translate(-4985.689 -724.575)" fill="#d9cbb4"/>
  <path id="Path_41951" data-name="Path 41951" d="M5245.09,1789.954a2.2,2.2,0,1,0,2.2,2.181A2.2,2.2,0,0,0,5245.09,1789.954Z" transform="translate(-4989.243 -724.575)" fill="#d9cbb4"/>
  <path id="Path_41952" data-name="Path 41952" d="M5303.69,1797.439a2.2,2.2,0,1,0,2.2,2.178A2.2,2.2,0,0,0,5303.69,1797.439Z" transform="translate(-4957.126 -720.472)" fill="#d9cbb4"/>
  <path id="Path_41953" data-name="Path 41953" d="M5297.166,1797.439a2.2,2.2,0,1,0,2.237,2.144A2.2,2.2,0,0,0,5297.166,1797.439Z" transform="translate(-4960.682 -720.473)" fill="#d9cbb4"/>
  <path id="Path_41954" data-name="Path 41954" d="M5293.94,1793.693a2.2,2.2,0,1,0,2.217,2.163A2.2,2.2,0,0,0,5293.94,1793.693Z" transform="translate(-4962.46 -722.526)" fill="#d9cbb4"/>
  <path id="Path_41955" data-name="Path 41955" d="M5300.448,1793.693a2.2,2.2,0,1,0,2.2,2.183A2.2,2.2,0,0,0,5300.448,1793.693Z" transform="translate(-4958.903 -722.526)" fill="#d9cbb4"/>
  <path id="Path_41956" data-name="Path 41956" d="M5306.943,1793.693a2.2,2.2,0,1,0,2.191,2.189A2.206,2.206,0,0,0,5306.943,1793.693Z" transform="translate(-4955.348 -722.526)" fill="#d9cbb4"/>
  <path id="Path_41957" data-name="Path 41957" d="M5238.586,1789.954a2.2,2.2,0,1,0,2.215,2.227A2.2,2.2,0,0,0,5238.586,1789.954Z" transform="translate(-4992.8 -724.575)" fill="#d9cbb4"/>
  <path id="Path_41958" data-name="Path 41958" d="M5284.1,1797.439a2.2,2.2,0,1,0,2.2,2.178A2.2,2.2,0,0,0,5284.1,1797.439Z" transform="translate(-4967.862 -720.472)" fill="#d9cbb4"/>
  <path id="Path_41959" data-name="Path 41959" d="M5277.579,1797.439a2.2,2.2,0,1,0,2.236,2.144A2.2,2.2,0,0,0,5277.579,1797.439Z" transform="translate(-4971.417 -720.473)" fill="#d9cbb4"/>
  <path id="Path_41960" data-name="Path 41960" d="M5271.1,1797.439a2.2,2.2,0,1,0,2.228,2.152A2.2,2.2,0,0,0,5271.1,1797.439Z" transform="translate(-4974.974 -720.473)" fill="#d9cbb4"/>
  <path id="Path_41961" data-name="Path 41961" d="M5264.59,1797.439a2.2,2.2,0,1,0,2.247,2.192A2.2,2.2,0,0,0,5264.59,1797.439Z" transform="translate(-4978.53 -720.473)" fill="#d9cbb4"/>
  <path id="Path_41962" data-name="Path 41962" d="M5264.59,1782.373a2.2,2.2,0,1,0,2.247,2.194A2.2,2.2,0,0,0,5264.59,1782.373Z" transform="translate(-4978.53 -728.73)" fill="#d9cbb4"/>
  <path id="Path_41963" data-name="Path 41963" d="M5261.388,1793.693a2.2,2.2,0,1,0,2.207,2.175A2.2,2.2,0,0,0,5261.388,1793.693Z" transform="translate(-4980.308 -722.526)" fill="#d9cbb4"/>
  <path id="Path_41964" data-name="Path 41964" d="M5385.335,1793.693a2.2,2.2,0,1,0,2.187,2.193A2.2,2.2,0,0,0,5385.335,1793.693Z" transform="translate(-4912.384 -722.526)" fill="#d9cbb4"/>
  <path id="Path_41965" data-name="Path 41965" d="M5391.775,1793.693a2.2,2.2,0,1,0,2.234,2.147A2.2,2.2,0,0,0,5391.775,1793.693Z" transform="translate(-4908.829 -722.526)" fill="#d9cbb4"/>
  <path id="Path_41966" data-name="Path 41966" d="M5398.271,1793.693a2.2,2.2,0,1,0,2.227,2.155A2.2,2.2,0,0,0,5398.271,1793.693Z" transform="translate(-4905.272 -722.525)" fill="#d9cbb4"/>
  <path id="Path_41967" data-name="Path 41967" d="M5404.783,1793.693a2.2,2.2,0,1,0,2.2,2.24A2.2,2.2,0,0,0,5404.783,1793.693Z" transform="translate(-4901.717 -722.526)" fill="#d9cbb4"/>
  <path id="Path_41968" data-name="Path 41968" d="M5411.268,1793.693a2.2,2.2,0,1,0,2.207,2.175A2.2,2.2,0,0,0,5411.268,1793.693Z" transform="translate(-4898.161 -722.526)" fill="#d9cbb4"/>
  <path id="Path_41969" data-name="Path 41969" d="M5417.769,1793.693a2.2,2.2,0,1,0,2.193,2.189A2.2,2.2,0,0,0,5417.769,1793.693Z" transform="translate(-4894.604 -722.526)" fill="#d9cbb4"/>
  <path id="Path_41970" data-name="Path 41970" d="M5424.234,1793.693a2.2,2.2,0,1,0,2.216,2.163A2.2,2.2,0,0,0,5424.234,1793.693Z" transform="translate(-4891.049 -722.526)" fill="#d9cbb4"/>
  <path id="Path_41971" data-name="Path 41971" d="M5267.891,1793.693a2.2,2.2,0,1,0,2.191,2.189A2.2,2.2,0,0,0,5267.891,1793.693Z" transform="translate(-4976.75 -722.526)" fill="#d9cbb4"/>
  <path id="Path_41972" data-name="Path 41972" d="M5274.352,1793.693a2.2,2.2,0,1,0,2.221,2.163A2.2,2.2,0,0,0,5274.352,1793.693Z" transform="translate(-4973.196 -722.526)" fill="#d9cbb4"/>
  <path id="Path_41973" data-name="Path 41973" d="M5280.861,1793.693a2.2,2.2,0,1,0,2.2,2.183A2.2,2.2,0,0,0,5280.861,1793.693Z" transform="translate(-4969.639 -722.526)" fill="#d9cbb4"/>
  <path id="Path_41974" data-name="Path 41974" d="M5267.871,1786.214a2.2,2.2,0,1,0,2.211,2.232A2.2,2.2,0,0,0,5267.871,1786.214Z" transform="translate(-4976.75 -726.625)" fill="#d9cbb4"/>
  <path id="Path_41975" data-name="Path 41975" d="M5261.391,1786.214a2.2,2.2,0,1,0,2.2,2.24A2.2,2.2,0,0,0,5261.391,1786.214Z" transform="translate(-4980.308 -726.625)" fill="#d9cbb4"/>
  <path id="Path_41976" data-name="Path 41976" d="M5277.557,1789.955a2.2,2.2,0,1,0,2.257,2.186A2.2,2.2,0,0,0,5277.557,1789.955Z" transform="translate(-4971.417 -724.575)" fill="#d9cbb4"/>
  <path id="Path_41977" data-name="Path 41977" d="M5284.181,1789.955a2.2,2.2,0,1,0,2.257,2.186A2.2,2.2,0,0,0,5284.181,1789.955Z" transform="translate(-4967.788 -724.575)" fill="#d9cbb4"/>
  <path id="Path_41978" data-name="Path 41978" d="M5271.127,1789.954a2.2,2.2,0,1,0,2.2,2.181A2.2,2.2,0,0,0,5271.127,1789.954Z" transform="translate(-4974.974 -724.575)" fill="#d9cbb4"/>
  <path id="Path_41979" data-name="Path 41979" d="M5264.625,1789.954a2.2,2.2,0,1,0,2.213,2.227A2.2,2.2,0,0,0,5264.625,1789.954Z" transform="translate(-4978.53 -724.575)" fill="#d9cbb4"/>
  <path id="Path_41980" data-name="Path 41980" d="M5342.849,1797.439a2.2,2.2,0,1,0,2.2,2.178A2.2,2.2,0,0,0,5342.849,1797.439Z" transform="translate(-4935.664 -720.472)" fill="#d9cbb4"/>
  <path id="Path_41981" data-name="Path 41981" d="M5336.326,1797.439a2.2,2.2,0,1,0,2.235,2.144A2.2,2.2,0,0,0,5336.326,1797.439Z" transform="translate(-4939.219 -720.473)" fill="#d9cbb4"/>
  <path id="Path_41982" data-name="Path 41982" d="M5329.845,1797.439a2.2,2.2,0,1,0,2.227,2.152A2.2,2.2,0,0,0,5329.845,1797.439Z" transform="translate(-4942.774 -720.473)" fill="#d9cbb4"/>
  <path id="Path_41983" data-name="Path 41983" d="M5323.092,1797.439a2.2,2.2,0,1,0,2.2,2.178A2.2,2.2,0,0,0,5323.092,1797.439Z" transform="translate(-4946.492 -720.472)" fill="#d9cbb4"/>
  <path id="Path_41984" data-name="Path 41984" d="M5316.569,1797.439a2.2,2.2,0,1,0,2.235,2.144A2.2,2.2,0,0,0,5316.569,1797.439Z" transform="translate(-4950.048 -720.473)" fill="#d9cbb4"/>
  <path id="Path_41985" data-name="Path 41985" d="M5310.09,1797.439a2.2,2.2,0,1,0,2.227,2.152A2.2,2.2,0,0,0,5310.09,1797.439Z" transform="translate(-4953.603 -720.473)" fill="#d9cbb4"/>
  <path id="Path_41986" data-name="Path 41986" d="M5375.468,1797.439a2.2,2.2,0,1,0,2.2,2.178A2.2,2.2,0,0,0,5375.468,1797.439Z" transform="translate(-4917.785 -720.472)" fill="#d9cbb4"/>
  <path id="Path_41987" data-name="Path 41987" d="M5368.946,1797.439a2.2,2.2,0,1,0,2.236,2.144A2.2,2.2,0,0,0,5368.946,1797.439Z" transform="translate(-4921.342 -720.473)" fill="#d9cbb4"/>
  <path id="Path_41988" data-name="Path 41988" d="M5362.466,1797.439a2.2,2.2,0,1,0,2.228,2.152A2.2,2.2,0,0,0,5362.466,1797.439Z" transform="translate(-4924.898 -720.473)" fill="#d9cbb4"/>
  <path id="Path_41989" data-name="Path 41989" d="M5355.711,1797.439a2.2,2.2,0,1,0,2.2,2.178A2.2,2.2,0,0,0,5355.711,1797.439Z" transform="translate(-4928.613 -720.472)" fill="#d9cbb4"/>
  <path id="Path_41990" data-name="Path 41990" d="M5349.188,1797.439a2.2,2.2,0,1,0,2.236,2.144A2.2,2.2,0,0,0,5349.188,1797.439Z" transform="translate(-4932.169 -720.473)" fill="#d9cbb4"/>
  <path id="Path_41991" data-name="Path 41991" d="M5414.627,1797.439a2.2,2.2,0,1,0,2.2,2.178A2.2,2.2,0,0,0,5414.627,1797.439Z" transform="translate(-4896.321 -720.472)" fill="#d9cbb4"/>
  <path id="Path_41992" data-name="Path 41992" d="M5408.105,1797.439a2.2,2.2,0,1,0,2.236,2.144A2.207,2.207,0,0,0,5408.105,1797.439Z" transform="translate(-4899.878 -720.473)" fill="#d9cbb4"/>
  <path id="Path_41993" data-name="Path 41993" d="M5401.626,1797.439a2.2,2.2,0,1,0,2.229,2.152A2.2,2.2,0,0,0,5401.626,1797.439Z" transform="translate(-4903.435 -720.473)" fill="#d9cbb4"/>
  <path id="Path_41994" data-name="Path 41994" d="M5394.871,1797.439a2.2,2.2,0,1,0,2.2,2.178A2.2,2.2,0,0,0,5394.871,1797.439Z" transform="translate(-4907.151 -720.472)" fill="#d9cbb4"/>
  <path id="Path_41995" data-name="Path 41995" d="M5388.35,1797.439a2.2,2.2,0,1,0,2.234,2.144A2.2,2.2,0,0,0,5388.35,1797.439Z" transform="translate(-4910.707 -720.473)" fill="#d9cbb4"/>
  <path id="Path_41996" data-name="Path 41996" d="M5381.869,1797.439a2.2,2.2,0,1,0,2.228,2.152A2.2,2.2,0,0,0,5381.869,1797.439Z" transform="translate(-4914.261 -720.473)" fill="#d9cbb4"/>
  <path id="Path_41997" data-name="Path 41997" d="M5290.631,1797.439a2.2,2.2,0,1,0,2.249,2.192A2.206,2.206,0,0,0,5290.631,1797.439Z" transform="translate(-4964.258 -720.473)" fill="#d9cbb4"/>
  <path id="Path_41998" data-name="Path 41998" d="M5287.427,1793.693a2.2,2.2,0,1,0,2.208,2.175A2.2,2.2,0,0,0,5287.427,1793.693Z" transform="translate(-4966.035 -722.526)" fill="#d9cbb4"/>
  <path id="Path_41999" data-name="Path 41999" d="M5232.2,1794.342a2.194,2.194,0,1,0-2.283-2.09A2.2,2.2,0,0,0,5232.2,1794.342Z" transform="translate(-4996.356 -724.574)" fill="#d9cbb4"/>
  <path id="Path_42000" data-name="Path 42000" d="M5427.509,1789.959a2.194,2.194,0,1,0,2.317,2.119A2.192,2.192,0,0,0,5427.509,1789.959Z" transform="translate(-4889.198 -724.574)" fill="#d9cbb4"/>
  <path id="Path_42001" data-name="Path 42001" d="M5421.147,1789.954a2.2,2.2,0,1,0,2.192,2.187A2.205,2.205,0,0,0,5421.147,1789.954Z" transform="translate(-4892.754 -724.575)" fill="#d9cbb4"/>
  <path id="Path_42002" data-name="Path 42002" d="M5414.651,1789.954a2.2,2.2,0,1,0,2.2,2.181A2.2,2.2,0,0,0,5414.651,1789.954Z" transform="translate(-4896.311 -724.575)" fill="#d9cbb4"/>
  <path id="Path_42003" data-name="Path 42003" d="M5408.172,1789.954a2.2,2.2,0,1,0,2.192,2.189A2.2,2.2,0,0,0,5408.172,1789.954Z" transform="translate(-4899.867 -724.575)" fill="#d9cbb4"/>
  <path id="Path_42004" data-name="Path 42004" d="M5333.607,1793.532a2.352,2.352,0,1,0-.676,4.642,2.137,2.137,0,0,0,1.086-.289,2.192,2.192,0,0,0-.41-4.353Z" transform="translate(-4941.09 -722.614)" fill="#d9cbb4"/>
  <path id="Path_42005" data-name="Path 42005" d="M5326.881,1793.532a2.2,2.2,0,1,0,2.228,2.153A2.205,2.205,0,0,0,5326.881,1793.532Z" transform="translate(-4944.4 -722.614)" fill="#d9cbb4"/>
  <path id="Path_42006" data-name="Path 42006" d="M5320.127,1793.532a2.2,2.2,0,1,0,2.2,2.18A2.2,2.2,0,0,0,5320.127,1793.532Z" transform="translate(-4948.116 -722.614)" fill="#d9cbb4"/>
  <path id="Path_42007" data-name="Path 42007" d="M5313.6,1793.532a2.2,2.2,0,1,0,2.236,2.144A2.206,2.206,0,0,0,5313.6,1793.532Z" transform="translate(-4951.671 -722.614)" fill="#d9cbb4"/>
  <path id="Path_42008" data-name="Path 42008" d="M5372.5,1793.532a2.2,2.2,0,1,0,2.2,2.18A2.2,2.2,0,0,0,5372.5,1793.532Z" transform="translate(-4919.411 -722.614)" fill="#d9cbb4"/>
  <path id="Path_42009" data-name="Path 42009" d="M5378.9,1793.532a2.2,2.2,0,1,0,2.228,2.153A2.206,2.206,0,0,0,5378.9,1793.532Z" transform="translate(-4915.887 -722.614)" fill="#d9cbb4"/>
  <path id="Path_42010" data-name="Path 42010" d="M5124.7,1786.214a2.2,2.2,0,1,0,2.179,2.2A2.207,2.207,0,0,0,5124.7,1786.214Z" transform="translate(-5055.238 -726.625)" fill="#d9cbb4"/>
  <path id="Path_42011" data-name="Path 42011" d="M5157.021,1793.693a2.2,2.2,0,1,0,2.21,2.17A2.2,2.2,0,0,0,5157.021,1793.693Z" transform="translate(-5037.505 -722.526)" fill="#d9cbb4"/>
  <path id="Path_42012" data-name="Path 42012" d="M5150.577,1793.693a2.2,2.2,0,1,0,2.163,2.279A2.2,2.2,0,0,0,5150.577,1793.693Z" transform="translate(-5041.063 -722.526)" fill="#d9cbb4"/>
  <path id="Path_42013" data-name="Path 42013" d="M5144.084,1793.693a2.2,2.2,0,1,0,2.172,2.208A2.208,2.208,0,0,0,5144.084,1793.693Z" transform="translate(-5044.619 -722.525)" fill="#d9cbb4"/>
  <path id="Path_42014" data-name="Path 42014" d="M5137.572,1793.693a2.2,2.2,0,1,0,2.2,2.184A2.205,2.205,0,0,0,5137.572,1793.693Z" transform="translate(-5048.176 -722.526)" fill="#d9cbb4"/>
  <path id="Path_42015" data-name="Path 42015" d="M5131.089,1793.693a2.2,2.2,0,1,0,2.19,2.189A2.206,2.206,0,0,0,5131.089,1793.693Z" transform="translate(-5051.731 -722.526)" fill="#d9cbb4"/>
  <path id="Path_42016" data-name="Path 42016" d="M5124.585,1793.693a2.2,2.2,0,1,0,2.206,2.175A2.2,2.2,0,0,0,5124.585,1793.693Z" transform="translate(-5055.286 -722.526)" fill="#d9cbb4"/>
  <path id="Path_42017" data-name="Path 42017" d="M5118.123,1793.693a2.2,2.2,0,1,0,2.181,2.2A2.21,2.21,0,0,0,5118.123,1793.693Z" transform="translate(-5058.841 -722.526)" fill="#d9cbb4"/>
  <path id="Path_42018" data-name="Path 42018" d="M5199.506,1797.439a2.2,2.2,0,1,0,2.2,2.181A2.2,2.2,0,0,0,5199.506,1797.439Z" transform="translate(-5014.228 -720.472)" fill="#d9cbb4"/>
  <path id="Path_42019" data-name="Path 42019" d="M5206.028,1797.439a2.2,2.2,0,1,0,2.163,2.217A2.2,2.2,0,0,0,5206.028,1797.439Z" transform="translate(-5010.671 -720.473)" fill="#d9cbb4"/>
  <path id="Path_42020" data-name="Path 42020" d="M5212.508,1797.439a2.2,2.2,0,1,0,2.173,2.207A2.2,2.2,0,0,0,5212.508,1797.439Z" transform="translate(-5007.117 -720.473)" fill="#d9cbb4"/>
  <path id="Path_42021" data-name="Path 42021" d="M5219.263,1797.439a2.2,2.2,0,1,0,2.2,2.181A2.2,2.2,0,0,0,5219.263,1797.439Z" transform="translate(-5003.398 -720.472)" fill="#d9cbb4"/>
  <path id="Path_42022" data-name="Path 42022" d="M5166.886,1797.439a2.2,2.2,0,1,0,2.2,2.181A2.2,2.2,0,0,0,5166.886,1797.439Z" transform="translate(-5032.106 -720.472)" fill="#d9cbb4"/>
  <path id="Path_42023" data-name="Path 42023" d="M5173.41,1797.439a2.2,2.2,0,1,0,2.162,2.217A2.2,2.2,0,0,0,5173.41,1797.439Z" transform="translate(-5028.55 -720.473)" fill="#d9cbb4"/>
  <path id="Path_42024" data-name="Path 42024" d="M5179.888,1797.439a2.2,2.2,0,1,0,2.171,2.207A2.2,2.2,0,0,0,5179.888,1797.439Z" transform="translate(-5024.995 -720.473)" fill="#d9cbb4"/>
  <path id="Path_42025" data-name="Path 42025" d="M5186.643,1797.439a2.2,2.2,0,1,0,2.2,2.181A2.2,2.2,0,0,0,5186.643,1797.439Z" transform="translate(-5021.278 -720.472)" fill="#d9cbb4"/>
  <path id="Path_42026" data-name="Path 42026" d="M5193.167,1797.439a2.2,2.2,0,1,0,2.162,2.217A2.2,2.2,0,0,0,5193.167,1797.439Z" transform="translate(-5017.722 -720.473)" fill="#d9cbb4"/>
  <path id="Path_42027" data-name="Path 42027" d="M5127.726,1797.439a2.2,2.2,0,1,0,2.2,2.181A2.2,2.2,0,0,0,5127.726,1797.439Z" transform="translate(-5053.569 -720.472)" fill="#d9cbb4"/>
  <path id="Path_42028" data-name="Path 42028" d="M5134.25,1797.439a2.2,2.2,0,1,0,2.163,2.217A2.2,2.2,0,0,0,5134.25,1797.439Z" transform="translate(-5050.013 -720.473)" fill="#d9cbb4"/>
  <path id="Path_42029" data-name="Path 42029" d="M5140.729,1797.439a2.2,2.2,0,1,0,2.171,2.207A2.2,2.2,0,0,0,5140.729,1797.439Z" transform="translate(-5046.457 -720.473)" fill="#d9cbb4"/>
  <path id="Path_42030" data-name="Path 42030" d="M5147.483,1797.439a2.2,2.2,0,1,0,2.2,2.181A2.2,2.2,0,0,0,5147.483,1797.439Z" transform="translate(-5042.741 -720.472)" fill="#d9cbb4"/>
  <path id="Path_42031" data-name="Path 42031" d="M5154.006,1797.439a2.2,2.2,0,1,0,2.163,2.217A2.2,2.2,0,0,0,5154.006,1797.439Z" transform="translate(-5039.186 -720.473)" fill="#d9cbb4"/>
  <path id="Path_42032" data-name="Path 42032" d="M5160.485,1797.439a2.2,2.2,0,1,0,2.172,2.207A2.2,2.2,0,0,0,5160.485,1797.439Z" transform="translate(-5035.629 -720.473)" fill="#d9cbb4"/>
  <path id="Path_42033" data-name="Path 42033" d="M5114.845,1789.959a2.194,2.194,0,1,0,2.078,2.292A2.2,2.2,0,0,0,5114.845,1789.959Z" transform="translate(-5060.692 -724.574)" fill="#d9cbb4"/>
  <path id="Path_42034" data-name="Path 42034" d="M5121.208,1789.954a2.2,2.2,0,1,0,2.205,2.174A2.2,2.2,0,0,0,5121.208,1789.954Z" transform="translate(-5057.136 -724.575)" fill="#d9cbb4"/>
  <path id="Path_42035" data-name="Path 42035" d="M5127.737,1794.346a2.2,2.2,0,1,0-2.232-2.21A2.2,2.2,0,0,0,5127.737,1794.346Z" transform="translate(-5053.582 -724.575)" fill="#d9cbb4"/>
  <path id="Path_42036" data-name="Path 42036" d="M5134.168,1794.346a2.2,2.2,0,1,0-2.176-2.2A2.2,2.2,0,0,0,5134.168,1794.346Z" transform="translate(-5050.025 -724.575)" fill="#d9cbb4"/>
  <path id="Path_42037" data-name="Path 42037" d="M5364.7,1675.128a3.1,3.1,0,0,0-2.272-5.76c-23.372,9.232-68.407,3.2-68.859,3.144a3.1,3.1,0,1,0-.842,6.133,262.6,262.6,0,0,0,32.39,2.081C5338.607,1680.726,5353.66,1679.492,5364.7,1675.128Z" transform="translate(-4963.395 -790.785)" fill="#d9cbb4"/>
  <path id="Path_42038" data-name="Path 42038" d="M5365.761,1691.52c-9.4,3.016-39.35,7.35-69.221,4.227a3.1,3.1,0,1,0-.645,6.158,216.87,216.87,0,0,0,22.491,1.125c21.56,0,40.786-2.891,49.267-5.613a3.1,3.1,0,0,0-1.892-5.9Z" transform="translate(-4961.714 -778.607)" fill="#d9cbb4"/>
  <path id="Path_42039" data-name="Path 42039" d="M5320.3,1756.759a32.679,32.679,0,0,0,4.141.074,15.016,15.016,0,0,0,4.623-.964c1.826-.752,2.752-2.779,2.664-5.518-.086-2.785-1.218-4.512-3.1-5.2a14.639,14.639,0,0,0-8.833-.511,2.21,2.21,0,0,0-1.306,2.313c.064,2.51.125,4.933.19,7.518C5318.713,1755.7,5319.428,1756.713,5320.3,1756.759Z" transform="translate(-4947.808 -749.661)" fill="#d9cbb4"/>
  <path id="Path_42040" data-name="Path 42040" d="M5329.2,1757.914a56.932,56.932,0,0,0-8.837-.916c-.931-.063-1.7.979-1.685,2.295.032,3.621.062,6.906.094,10.378.011,1.289.77,2.344,1.682,2.345a77.272,77.272,0,0,0,8.418-.192c3.11-.345,4.649-2.629,4.79-6.234C5333.816,1761.729,5332.293,1758.621,5329.2,1757.914Z" transform="translate(-4947.703 -742.639)" fill="#d9cbb4"/>
  <path id="Path_42041" data-name="Path 42041" d="M5222.6,1754.595a37.481,37.481,0,0,0-6.912-.656c-.769-.042-1.41.972-1.4,2.232.029,3.469.052,6.614.079,9.937.01,1.234.641,2.166,1.395,2.073a53.156,53.156,0,0,0,6.593-.994c2.286-.588,3.388-2.736,3.487-5.927C5225.955,1757.852,5224.866,1755.152,5222.6,1754.595Z" transform="translate(-5004.918 -744.315)" fill="#d9cbb4"/>
  <path id="Path_42042" data-name="Path 42042" d="M5215.64,1753.638a22.808,22.808,0,0,0,3.33.146,9.757,9.757,0,0,0,3.542-.791c1.348-.635,2.022-2.415,1.961-4.861-.064-2.487-.892-4.106-2.286-4.869a10.25,10.25,0,0,0-6.963-1.186c-.652.118-1.113,1.022-1.088,2.109.053,2.41.1,4.74.157,7.222C5214.319,1752.6,5214.916,1753.578,5215.64,1753.638Z" transform="translate(-5005.005 -750.909)" fill="#d9cbb4"/>
  <path id="Path_42043" data-name="Path 42043" d="M5247.874,1667.048c-.441.054-44.321,5.518-75.02-3.4a3.1,3.1,0,0,0-1.728,5.948c14.548,4.224,31.536,5.394,45.9,5.394a271.913,271.913,0,0,0,31.632-1.8,3.1,3.1,0,0,0-.787-6.141Z" transform="translate(-5029.8 -793.865)" fill="#d9cbb4"/>
  <path id="Path_42044" data-name="Path 42044" d="M5242.83,1690.229c-29.869,3.128-59.822-1.208-69.219-4.225a3.1,3.1,0,1,0-1.894,5.9c8.483,2.723,27.7,5.613,49.258,5.613a217,217,0,0,0,22.5-1.127,3.1,3.1,0,1,0-.645-6.158Z" transform="translate(-5029.432 -781.63)" fill="#d9cbb4"/>
  <path id="Path_42045" data-name="Path 42045" d="M5244.784,1403.712c.31-1.1,7.649-27.429,9.093-68.964a3.107,3.107,0,0,0-4.528-2.851c-.88.449-5.409,2.488-8.281-1.669a9.844,9.844,0,0,1-.135-9.948c1.212-2.151,3.751-4.646,8.969-4.333a3.087,3.087,0,0,0,3.26-2.7c1.186-9.329-3.667-57.606-4.629-62.169a3.1,3.1,0,0,0-6.06,1.276c.679,3.225,4.906,44.411,4.7,57.471a14.623,14.623,0,0,0-11.629,7.415c-2.9,5.151-2.724,11.939.434,16.509a11.559,11.559,0,0,0,11.542,5.092c-1.382,30.082-5.917,51.752-7.827,59.774-4.268-1.277-10.143-1.331-14.443,3.723-4.381,5.146-5.583,11.91-3.141,17.653,2.393,5.629,7.734,9.233,14.286,9.637.066,0,.13.006.194.006a3.1,3.1,0,0,0,.187-6.186c-4.222-.262-7.493-2.4-8.97-5.88-1.541-3.626-.733-7.818,2.16-11.216,3.821-4.494,10.011-.967,10.261-.824a3.1,3.1,0,0,0,4.563-1.816Z" transform="translate(-5001.32 -1021.271)" fill="#d9cbb4"/>
  <path id="Path_42046" data-name="Path 42046" d="M5273.21,1269.275a3.1,3.1,0,0,0-2.59,3.53c3.694,24.138,3.165,48.45,2.828,56.881-4.838.17-11.182,2.449-13.6,10.363-4.034,13.177,4.733,19.39,9.057,21.575a204.025,204.025,0,0,1-8.616,51.266h-.017c-6.673,0-11.689,5.634-13.258,11.723-1.711,6.642.352,14.832,8.514,18.41l-3.334,25.155a3.1,3.1,0,0,0,2.664,3.475,3,3,0,0,0,.409.028,3.1,3.1,0,0,0,3.064-2.691l3.666-27.633a3.1,3.1,0,0,0-2.237-3.389c-6.743-1.884-7.85-7.539-6.75-11.81,1.08-4.2,4.421-7.914,8.73-6.9a3.1,3.1,0,0,0,3.627-1.977,202.262,202.262,0,0,0,9.787-57.585,3.118,3.118,0,0,0-2.151-3.017c-1.094-.359-10.6-3.816-7.234-14.82,2.176-7.1,9.233-5.986,10.012-5.839a3.1,3.1,0,0,0,3.7-2.836c.018-.305,1.914-30.923-2.737-61.32A3.1,3.1,0,0,0,5273.21,1269.275Z" transform="translate(-4987.29 -1009.969)" fill="#d9cbb4"/>
  <path id="Path_42047" data-name="Path 42047" d="M5334.16,1321.888c-3.7-2.675-8.458-2.828-11.743-2.5a435.935,435.935,0,0,0-7.525-63.754,3.1,3.1,0,0,0-6.063,1.26c.067.321,6.657,32.4,7.507,66.23a3.1,3.1,0,0,0,3.905,2.91c1.847-.5,7.3-1.3,10.3.883,1.494,1.087,2.289,2.87,2.421,5.454.248,4.716-1.29,8.053-4.217,9.157a6.567,6.567,0,0,1-7.358-2.426,3.1,3.1,0,1,0-4.858,3.838,13.739,13.739,0,0,0,4.149,3.518c1.923,15.721.139,39.2-1.046,54.779-1.113,14.657-1.245,17.679-.237,19.414a3.1,3.1,0,0,0,2.681,1.54,3.059,3.059,0,0,0,1.553-.421,3.1,3.1,0,0,0,1.324-3.814c-.252-1.7.31-9.094.856-16.249,1.146-15.074,2.842-37.436,1.27-53.643a11.716,11.716,0,0,0,3.852-.742c5.537-2.087,8.609-7.8,8.217-15.275C5338.856,1326.419,5336.274,1323.416,5334.16,1321.888Z" transform="translate(-4953.139 -1018.779)" fill="#d9cbb4"/>
  <path id="Path_42048" data-name="Path 42048" d="M5303.763,1382.268a13.68,13.68,0,0,0-8.49-1.8c.08-10.478.509-37.306,2.8-51.09a.472.472,0,0,0,0-.065,10.636,10.636,0,0,0,1.474-.2c2.524-.534,7.009-2.485,8.695-9.54,2-8.374-1-12.881-2.968-14.824a12.377,12.377,0,0,0-8.378-3.451c.618-6.008,1.361-17.607-.878-25.855a3.1,3.1,0,0,0-5.976,1.623c2.741,10.093.278,27.085.253,27.255a3.1,3.1,0,0,0,3.821,3.455,7.2,7.2,0,0,1,6.809,1.378c1.794,1.773,2.255,4.962,1.294,8.979-.681,2.855-2.012,4.511-3.955,4.921-2.569.553-5.952-1.049-8.046-3.791a3.1,3.1,0,1,0-4.92,3.757,16.57,16.57,0,0,0,6.7,5.215c-.008.042-.025.079-.032.121-2.964,17.789-2.908,54.889-2.906,56.46a3.1,3.1,0,0,0,4.916,2.5c1.343-.975,4.316-1.1,6.609.268,2.243,1.338,3.2,3.765,2.76,7.019a6.6,6.6,0,0,1-2.489,4.744c-2.947,2.166-7.569,1.4-7.6,1.395a3.1,3.1,0,0,0-3.647,3.158c.508,13.965-5.612,31.784-5.674,31.963a3.1,3.1,0,0,0,5.85,2.031c.248-.715,5.664-16.476,6.026-30.825a15.5,15.5,0,0,0,8.669-2.7,12.612,12.612,0,0,0,5.005-8.943C5310.256,1389.693,5308.168,1384.9,5303.763,1382.268Z" transform="translate(-4966.842 -1007.819)" fill="#d9cbb4"/>
  <path id="Path_42049" data-name="Path 42049" d="M5347.543,1350.405c7.477-2.243,12.964-9.988,12.161-17.871-.781-7.67-7.367-14.014-14.884-14.985a157.432,157.432,0,0,0-5.675-36.789,3.1,3.1,0,0,0-5.966,1.661,151.112,151.112,0,0,1,5.524,38.186,3.094,3.094,0,0,0,3.357,3.036c5.344-.466,10.94,4.167,11.485,9.518s-3.989,11-9.328,11.635a3.1,3.1,0,0,0-2.73,2.909l-2.777,51.882a6.513,6.513,0,0,0,5.655,7.759l.333.088c5.036,1.358,8.766,6.244,8.308,10.889a8.241,8.241,0,0,1-3.922,5.914,6.552,6.552,0,0,1-5.717.858,3.1,3.1,0,0,0-4.169,2.923,158.835,158.835,0,0,1-7.451,49.071,3.1,3.1,0,1,0,5.9,1.873,165.1,165.1,0,0,0,7.725-47.347,13.49,13.49,0,0,0,7-2.13,14.347,14.347,0,0,0,6.8-10.555c.753-7.654-4.9-15.329-12.862-17.475l-.385-.1c-.348-.09-.853-.222-1.026-.268a7.8,7.8,0,0,1,0-1.167Z" transform="translate(-4940.625 -1004.896)" fill="#d9cbb4"/>
  <path id="Path_42050" data-name="Path 42050" d="M5264.024,1230.492c3.675,3.118,7.449,4.718,10.905,4.718a10.283,10.283,0,0,0,5.29-1.43c5.395-3.183,7.651-10.77,6.236-20.554a142.738,142.738,0,0,1,26.869-2.752,20.307,20.307,0,0,0,2.747,5.392c-4.734,0-10.175-.359-12.632-1.913a3.1,3.1,0,1,0-3.309,5.234c3.965,2.506,10.966,3.3,23.4,2.645.037,0,.083,0,.126,0q.646.27,1.283.474a3.333,3.333,0,0,1,.731,1.754c.8,4.639-2.981,12.816-11.9,15.46a3.1,3.1,0,1,0,1.759,5.937c11.815-3.5,17.627-14.378,16.241-22.447-.029-.17-.084-.321-.123-.486a9.586,9.586,0,0,0,2.308-1.031c4.852-3.025,6.756-9.973,5.225-19.062-1.932-11.454-8.833-17.373-14.816-18.156a9.533,9.533,0,0,0-10.243,5.63,29.689,29.689,0,0,0-2.1,14.4,147.581,147.581,0,0,0-26.93,2.87c-3.109-9.841-9.391-12.6-12.158-13.338a11.683,11.683,0,0,0-11.927,3.4c-3.22,3.675-4.981,10.4-4.483,17.125S5259.693,1226.817,5264.024,1230.492Z" transform="translate(-4981.812 -1056.591)" fill="#d9cbb4"/>
  <path id="Path_42051" data-name="Path 42051" d="M5300.49,1230.621a45.4,45.4,0,0,1-35.674,2.364,3.158,3.158,0,0,0-4.375,3.287c.364,2.971,3.949,29.09,17.835,31.192a15.248,15.248,0,0,0,2.294.181,10.026,10.026,0,0,0,6.42-2.1c4.622-3.667,5.189-10.908,5.793-18.572.179-2.29.365-4.651.663-6.849a51.211,51.211,0,0,0,9.941-3.893,3.157,3.157,0,0,0-2.9-5.61Z" transform="translate(-4979.637 -1031.327)" fill="#d9cbb4"/>
  <path id="Path_42052" data-name="Path 42052" d="M5232.354,1255.034a16.86,16.86,0,0,0,6.921,1.543,15.288,15.288,0,0,0,11.091-4.739,3.1,3.1,0,0,0-4.632-4.109c-.433.472-4.407,4.531-10.853,1.651-3.232-1.443-5-3.635-5.251-6.516a10.788,10.788,0,0,1,4.576-9.275,5.5,5.5,0,0,1,5.724-.617,3.1,3.1,0,0,0,4.385-3.565c-.064-.246-6.564-24.943-3.659-49.512a3.1,3.1,0,0,0-6.15-.728c-2.3,19.445.886,38.446,2.714,47.068a12.446,12.446,0,0,0-6.485,2.228,17.081,17.081,0,0,0-7.272,14.944C5223.915,1248.544,5227.072,1252.673,5232.354,1255.034Z" transform="translate(-4999.92 -1060.833)" fill="#d9cbb4"/>
  <path id="Path_42053" data-name="Path 42053" d="M5219.277,1430.381c3.739-.063,7.623-1.462,8.889-4.217a3.1,3.1,0,0,0-5.51-2.816,7.957,7.957,0,0,1-6.2.45c-2.355-.8-3.716-2.612-4.161-5.548-.31-2.051.644-4.561,2.614-6.886,2.351-2.776,6.792-4.371,9.215-2.354a3.1,3.1,0,1,0,3.963-4.759,9.908,9.908,0,0,0-4.81-2.164,263.694,263.694,0,0,0,5.151-33.214,3.1,3.1,0,0,0-6.172-.508,258.451,258.451,0,0,1-5.5,34.446,15.911,15.911,0,0,0-6.569,4.55c-1.836,2.167-4.8,6.584-4.011,11.814a12.588,12.588,0,0,0,7.041,9.964c-5,26.545-7.941,55.883,14.194,96.469a3.1,3.1,0,0,0,5.438-2.964C5211.707,1483.9,5214.494,1455.8,5219.277,1430.381Z" transform="translate(-5009.44 -957.197)" fill="#d9cbb4"/>
  <path id="Path_42054" data-name="Path 42054" d="M5255.95,1423.631a3.093,3.093,0,0,0-3.715,2.317,139.232,139.232,0,0,0-2.741,47.1,15.2,15.2,0,0,0-12.957,7.6c-3.165,5.6-2.49,13.261,1.639,18.62a14.091,14.091,0,0,0,9.217,5.661,10.48,10.48,0,0,0,1.387.09,10.2,10.2,0,0,0,9.1-5.279,3.1,3.1,0,0,0-5.52-2.807,4.154,4.154,0,0,1-4.177,1.856,8.1,8.1,0,0,1-5.1-3.3,11.009,11.009,0,0,1-1.154-11.8c1.962-3.474,6.583-5.319,10.086-4.03a3.1,3.1,0,0,0,4.137-3.342,133.152,133.152,0,0,1,2.114-48.975A3.093,3.093,0,0,0,5255.95,1423.631Z" transform="translate(-4993.812 -925.394)" fill="#d9cbb4"/>
  <path id="Path_42055" data-name="Path 42055" d="M5329.441,1382.971a3.1,3.1,0,0,0-3.293,2.885,235.25,235.25,0,0,1-12.227,60.916c-.323.938-1.18,3.43.454,5.559a5.836,5.836,0,0,0,2.033,1.584c4.243,2.253,7.341,5.94,8.289,9.864,1,4.149-.575,8.646-3.745,10.691a7.463,7.463,0,0,1-5.71.853,5.919,5.919,0,0,1-3.847-2.667,3.1,3.1,0,0,0-5.364,3.095,11.4,11.4,0,0,0,3.838,3.94,67.485,67.485,0,0,1-9.832,19.928,3.1,3.1,0,1,0,5.026,3.617,73.632,73.632,0,0,0,10.681-21.575c.46.045.922.082,1.381.082a13.257,13.257,0,0,0,7.188-2.068c5.393-3.483,8.026-10.615,6.406-17.345a21.859,21.859,0,0,0-10.917-13.616,241.464,241.464,0,0,0,12.525-62.449A3.1,3.1,0,0,0,5329.441,1382.971Z" transform="translate(-4958.243 -947.638)" fill="#d9cbb4"/>
  <path id="Path_42056" data-name="Path 42056" d="M5291.9,1462.811a17.048,17.048,0,0,0-3.187-13.313,10.239,10.239,0,0,0-3.684-2.858c3.067-12.315,5.794-24.851,8.12-37.309a3.1,3.1,0,1,0-6.086-1.135c-2.493,13.357-5.455,26.8-8.8,39.967a3.1,3.1,0,0,0,2.962,3.861,3.5,3.5,0,0,1,2.727,1.43,11.108,11.108,0,0,1,1.847,8.3c-.329,1.909-1.268,5.339-3.836,6.874a4.321,4.321,0,0,1-3.381.351,2.331,2.331,0,0,1-1.485-1.164,3.1,3.1,0,0,0-5.655,2.527,8.4,8.4,0,0,0,5.274,4.542,10.454,10.454,0,0,0,3.153.481,10.313,10.313,0,0,0,5.27-1.421C5288.609,1471.866,5291.011,1467.912,5291.9,1462.811Z" transform="translate(-4973.746 -935.195)" fill="#d9cbb4"/>
  <path id="Path_42057" data-name="Path 42057" d="M5294.374,1475.846a3.1,3.1,0,0,0-2.413,5.7A5.866,5.866,0,1,1,5285.3,1491a3.1,3.1,0,1,0-4.56,4.192,11.833,11.833,0,0,0,8.8,3.69c.3,0,.591-.008.889-.028a12.057,12.057,0,0,0,3.948-23.014Z" transform="translate(-4968.946 -896.867)" fill="#d9cbb4"/>
  <path id="Path_42058" data-name="Path 42058" d="M5319.506,1494.48a2.139,2.139,0,1,0,2.146,2.112A2.14,2.14,0,0,0,5319.506,1494.48Z" transform="translate(-4948.417 -886.518)" fill="#d9cbb4"/>
  <path id="Path_42059" data-name="Path 42059" d="M5302.654,1517.238a2.139,2.139,0,1,0,2.146,2.112A2.141,2.141,0,0,0,5302.654,1517.238Z" transform="translate(-4957.653 -874.045)" fill="#d9cbb4"/>
  <path id="Path_42060" data-name="Path 42060" d="M5319.506,1500.171a2.138,2.138,0,1,0,2.146,2.112A2.138,2.138,0,0,0,5319.506,1500.171Z" transform="translate(-4948.417 -883.399)" fill="#d9cbb4"/>
  <path id="Path_42061" data-name="Path 42061" d="M5315.369,1514.337a2.139,2.139,0,1,0,2.146,2.112A2.139,2.139,0,0,0,5315.369,1514.337Z" transform="translate(-4950.684 -875.635)" fill="#d9cbb4"/>
  <path id="Path_42062" data-name="Path 42062" d="M5323.8,1508.651a2.139,2.139,0,1,0,2.145,2.113A2.141,2.141,0,0,0,5323.8,1508.651Z" transform="translate(-4946.067 -878.751)" fill="#d9cbb4"/>
  <path id="Path_42063" data-name="Path 42063" d="M5299.031,1508.771a2.139,2.139,0,1,0,2.146,2.112A2.14,2.14,0,0,0,5299.031,1508.771Z" transform="translate(-4959.638 -878.686)" fill="#d9cbb4"/>
  <path id="Path_42064" data-name="Path 42064" d="M5306.944,1508.651a2.139,2.139,0,1,0,2.146,2.113A2.142,2.142,0,0,0,5306.944,1508.651Z" transform="translate(-4955.301 -878.751)" fill="#d9cbb4"/>
  <path id="Path_42065" data-name="Path 42065" d="M5306.944,1514.337a2.139,2.139,0,1,0,2.146,2.112A2.142,2.142,0,0,0,5306.944,1514.337Z" transform="translate(-4955.301 -875.635)" fill="#d9cbb4"/>
  <path id="Path_42066" data-name="Path 42066" d="M5323.8,1502.96a2.139,2.139,0,1,0,2.145,2.113A2.141,2.141,0,0,0,5323.8,1502.96Z" transform="translate(-4946.067 -881.871)" fill="#d9cbb4"/>
  <path id="Path_42067" data-name="Path 42067" d="M5302.654,1505.861a2.139,2.139,0,1,0,2.146,2.113A2.142,2.142,0,0,0,5302.654,1505.861Z" transform="translate(-4957.653 -880.281)" fill="#d9cbb4"/>
  <path id="Path_42068" data-name="Path 42068" d="M5302.654,1511.547a2.139,2.139,0,1,0,2.146,2.111A2.141,2.141,0,0,0,5302.654,1511.547Z" transform="translate(-4957.653 -877.165)" fill="#d9cbb4"/>
  <path id="Path_42069" data-name="Path 42069" d="M5319.506,1505.861a2.139,2.139,0,1,0,2.146,2.113A2.14,2.14,0,0,0,5319.506,1505.861Z" transform="translate(-4948.417 -880.281)" fill="#d9cbb4"/>
  <path id="Path_42070" data-name="Path 42070" d="M5311.079,1505.861a2.139,2.139,0,1,0,2.146,2.113A2.137,2.137,0,0,0,5311.079,1505.861Z" transform="translate(-4953.036 -880.281)" fill="#d9cbb4"/>
  <path id="Path_42071" data-name="Path 42071" d="M5311.079,1511.547a2.139,2.139,0,1,0,2.146,2.111A2.137,2.137,0,0,0,5311.079,1511.547Z" transform="translate(-4953.036 -877.165)" fill="#d9cbb4"/>
  <path id="Path_42072" data-name="Path 42072" d="M5306.944,1502.96a2.139,2.139,0,1,0,2.146,2.113A2.143,2.143,0,0,0,5306.944,1502.96Z" transform="translate(-4955.301 -881.871)" fill="#d9cbb4"/>
  <path id="Path_42073" data-name="Path 42073" d="M5315.369,1508.651a2.139,2.139,0,1,0,2.146,2.113A2.139,2.139,0,0,0,5315.369,1508.651Z" transform="translate(-4950.684 -878.751)" fill="#d9cbb4"/>
  <path id="Path_42074" data-name="Path 42074" d="M5311.079,1500.171a2.138,2.138,0,1,0,2.146,2.112A2.136,2.136,0,0,0,5311.079,1500.171Z" transform="translate(-4953.036 -883.399)" fill="#d9cbb4"/>
  <path id="Path_42075" data-name="Path 42075" d="M5311.079,1517.238a2.139,2.139,0,1,0,2.146,2.112A2.137,2.137,0,0,0,5311.079,1517.238Z" transform="translate(-4953.036 -874.045)" fill="#d9cbb4"/>
  <path id="Path_42076" data-name="Path 42076" d="M5299.031,1520.028a2.139,2.139,0,1,0,2.146,2.112A2.14,2.14,0,0,0,5299.031,1520.028Z" transform="translate(-4959.638 -872.516)" fill="#d9cbb4"/>
  <path id="Path_42077" data-name="Path 42077" d="M5319.506,1511.506a2.139,2.139,0,1,0,2.146,2.112A2.14,2.14,0,0,0,5319.506,1511.506Z" transform="translate(-4948.417 -877.187)" fill="#d9cbb4"/>
  <path id="Path_42078" data-name="Path 42078" d="M5299.031,1514.307a2.139,2.139,0,1,0,2.146,2.112A2.14,2.14,0,0,0,5299.031,1514.307Z" transform="translate(-4959.638 -875.652)" fill="#d9cbb4"/>
  <path id="Path_42079" data-name="Path 42079" d="M5315.369,1502.96a2.139,2.139,0,1,0,2.146,2.113A2.14,2.14,0,0,0,5315.369,1502.96Z" transform="translate(-4950.684 -881.871)" fill="#d9cbb4"/>
  <path id="Path_42080" data-name="Path 42080" d="M5315.369,1497.27a2.138,2.138,0,1,0,2.146,2.112A2.139,2.139,0,0,0,5315.369,1497.27Z" transform="translate(-4950.684 -884.989)" fill="#d9cbb4"/>
  <path id="Path_42081" data-name="Path 42081" d="M5323.8,1491.579a2.139,2.139,0,1,0,2.145,2.111A2.14,2.14,0,0,0,5323.8,1491.579Z" transform="translate(-4946.067 -888.109)" fill="#d9cbb4"/>
  <path id="Path_42082" data-name="Path 42082" d="M5327.932,1494.48a2.139,2.139,0,1,0,2.146,2.112A2.141,2.141,0,0,0,5327.932,1494.48Z" transform="translate(-4943.798 -886.518)" fill="#d9cbb4"/>
  <path id="Path_42083" data-name="Path 42083" d="M5332.221,1508.651a2.139,2.139,0,1,0,2.146,2.113A2.14,2.14,0,0,0,5332.221,1508.651Z" transform="translate(-4941.447 -878.751)" fill="#d9cbb4"/>
  <path id="Path_42084" data-name="Path 42084" d="M5327.932,1488.542a2.139,2.139,0,1,0,2.146,2.111A2.14,2.14,0,0,0,5327.932,1488.542Z" transform="translate(-4943.798 -889.773)" fill="#d9cbb4"/>
  <path id="Path_42085" data-name="Path 42085" d="M5327.932,1500.171a2.138,2.138,0,1,0,2.146,2.112A2.139,2.139,0,0,0,5327.932,1500.171Z" transform="translate(-4943.798 -883.399)" fill="#d9cbb4"/>
  <path id="Path_42086" data-name="Path 42086" d="M5332.221,1502.96a2.139,2.139,0,1,0,2.146,2.113A2.141,2.141,0,0,0,5332.221,1502.96Z" transform="translate(-4941.447 -881.871)" fill="#d9cbb4"/>
  <path id="Path_42087" data-name="Path 42087" d="M5332.221,1491.332a2.138,2.138,0,1,0,2.146,2.112A2.14,2.14,0,0,0,5332.221,1491.332Z" transform="translate(-4941.447 -888.244)" fill="#d9cbb4"/>
  <path id="Path_42088" data-name="Path 42088" d="M5323.8,1497.27a2.138,2.138,0,1,0,2.145,2.112A2.141,2.141,0,0,0,5323.8,1497.27Z" transform="translate(-4946.067 -884.989)" fill="#d9cbb4"/>
  <path id="Path_42089" data-name="Path 42089" d="M5332.221,1497.27a2.138,2.138,0,1,0,2.146,2.112A2.14,2.14,0,0,0,5332.221,1497.27Z" transform="translate(-4941.447 -884.989)" fill="#d9cbb4"/>
  <path id="Path_42090" data-name="Path 42090" d="M5327.932,1505.861a2.139,2.139,0,1,0,2.146,2.113A2.141,2.141,0,0,0,5327.932,1505.861Z" transform="translate(-4943.798 -880.281)" fill="#d9cbb4"/>
  <path id="Path_42091" data-name="Path 42091" d="M5336.167,1505.861a2.139,2.139,0,1,0,2.146,2.113A2.142,2.142,0,0,0,5336.167,1505.861Z" transform="translate(-4939.286 -880.281)" fill="#d9cbb4"/>
  <path id="Path_42092" data-name="Path 42092" d="M5327.932,1511.552a2.139,2.139,0,1,0,2.146,2.111A2.141,2.141,0,0,0,5327.932,1511.552Z" transform="translate(-4943.798 -877.162)" fill="#d9cbb4"/>
  <path id="Path_42093" data-name="Path 42093" d="M5204.606,1490.861a2.138,2.138,0,1,0-2.094-2.164A2.142,2.142,0,0,0,5204.606,1490.861Z" transform="translate(-5011.375 -890.846)" fill="#d9cbb4"/>
  <path id="Path_42094" data-name="Path 42094" d="M5225.593,1499.342a2.139,2.139,0,1,0-2.093-2.166A2.142,2.142,0,0,0,5225.593,1499.342Z" transform="translate(-4999.872 -886.198)" fill="#d9cbb4"/>
  <path id="Path_42095" data-name="Path 42095" d="M5204.606,1485.17a2.138,2.138,0,1,0-2.094-2.164A2.142,2.142,0,0,0,5204.606,1485.17Z" transform="translate(-5011.375 -893.965)" fill="#d9cbb4"/>
  <path id="Path_42096" data-name="Path 42096" d="M5204.606,1479.232a2.138,2.138,0,1,0-2.094-2.164A2.142,2.142,0,0,0,5204.606,1479.232Z" transform="translate(-5011.375 -897.219)" fill="#d9cbb4"/>
  <path id="Path_42097" data-name="Path 42097" d="M5225.593,1505.028a2.139,2.139,0,1,0-2.093-2.166A2.143,2.143,0,0,0,5225.593,1505.028Z" transform="translate(-4999.872 -883.081)" fill="#d9cbb4"/>
  <path id="Path_42098" data-name="Path 42098" d="M5221.458,1496.552a2.139,2.139,0,1,0-2.094-2.164A2.142,2.142,0,0,0,5221.458,1496.552Z" transform="translate(-5002.139 -887.727)" fill="#d9cbb4"/>
  <path id="Path_42099" data-name="Path 42099" d="M5200.317,1493.651a2.139,2.139,0,1,0-2.1-2.164A2.139,2.139,0,0,0,5200.317,1493.651Z" transform="translate(-5013.724 -889.317)" fill="#d9cbb4"/>
  <path id="Path_42100" data-name="Path 42100" d="M5200.317,1499.342a2.139,2.139,0,1,0-2.1-2.166A2.139,2.139,0,0,0,5200.317,1499.342Z" transform="translate(-5013.724 -886.198)" fill="#d9cbb4"/>
  <path id="Path_42101" data-name="Path 42101" d="M5204.606,1473.772a2.139,2.139,0,1,0-2.094-2.166A2.143,2.143,0,0,0,5204.606,1473.772Z" transform="translate(-5011.375 -900.212)" fill="#d9cbb4"/>
  <path id="Path_42102" data-name="Path 42102" d="M5204.606,1496.552a2.139,2.139,0,1,0-2.094-2.164A2.142,2.142,0,0,0,5204.606,1496.552Z" transform="translate(-5011.375 -887.727)" fill="#d9cbb4"/>
  <path id="Path_42103" data-name="Path 42103" d="M5204.606,1502.243a2.139,2.139,0,1,0-2.094-2.166A2.144,2.144,0,0,0,5204.606,1502.243Z" transform="translate(-5011.375 -884.608)" fill="#d9cbb4"/>
  <path id="Path_42104" data-name="Path 42104" d="M5200.317,1487.96a2.138,2.138,0,1,0-2.1-2.164A2.138,2.138,0,0,0,5200.317,1487.96Z" transform="translate(-5013.724 -892.435)" fill="#d9cbb4"/>
  <path id="Path_42105" data-name="Path 42105" d="M5221.458,1502.239a2.139,2.139,0,1,0-2.094-2.166A2.144,2.144,0,0,0,5221.458,1502.239Z" transform="translate(-5002.139 -884.611)" fill="#d9cbb4"/>
  <path id="Path_42106" data-name="Path 42106" d="M5213.033,1496.552a2.139,2.139,0,1,0-2.095-2.164A2.141,2.141,0,0,0,5213.033,1496.552Z" transform="translate(-5006.757 -887.727)" fill="#d9cbb4"/>
  <path id="Path_42107" data-name="Path 42107" d="M5208.743,1487.96a2.138,2.138,0,1,0-2.1-2.164A2.139,2.139,0,0,0,5208.743,1487.96Z" transform="translate(-5009.108 -892.435)" fill="#d9cbb4"/>
  <path id="Path_42108" data-name="Path 42108" d="M5213.033,1502.2a2.139,2.139,0,1,0-2.095-2.166A2.143,2.143,0,0,0,5213.033,1502.2Z" transform="translate(-5006.757 -884.633)" fill="#d9cbb4"/>
  <path id="Path_42109" data-name="Path 42109" d="M5221.458,1507.93a2.139,2.139,0,1,0-2.094-2.166A2.144,2.144,0,0,0,5221.458,1507.93Z" transform="translate(-5002.139 -881.491)" fill="#d9cbb4"/>
  <path id="Path_42110" data-name="Path 42110" d="M5208.743,1499.342a2.139,2.139,0,1,0-2.1-2.166A2.14,2.14,0,0,0,5208.743,1499.342Z" transform="translate(-5009.108 -886.198)" fill="#d9cbb4"/>
  <path id="Path_42111" data-name="Path 42111" d="M5208.743,1493.651a2.139,2.139,0,1,0-2.1-2.164A2.14,2.14,0,0,0,5208.743,1493.651Z" transform="translate(-5009.108 -889.317)" fill="#d9cbb4"/>
  <path id="Path_42112" data-name="Path 42112" d="M5208.743,1482.27a2.139,2.139,0,1,0-2.1-2.166A2.141,2.141,0,0,0,5208.743,1482.27Z" transform="translate(-5009.108 -895.555)" fill="#d9cbb4"/>
  <path id="Path_42113" data-name="Path 42113" d="M5217.167,1505.028a2.139,2.139,0,1,0-2.094-2.166A2.145,2.145,0,0,0,5217.167,1505.028Z" transform="translate(-5004.489 -883.081)" fill="#d9cbb4"/>
  <path id="Path_42114" data-name="Path 42114" d="M5213.033,1490.861a2.138,2.138,0,1,0-2.095-2.164A2.141,2.141,0,0,0,5213.033,1490.861Z" transform="translate(-5006.757 -890.846)" fill="#d9cbb4"/>
  <path id="Path_42115" data-name="Path 42115" d="M5217.167,1499.342a2.139,2.139,0,1,0-2.094-2.166A2.144,2.144,0,0,0,5217.167,1499.342Z" transform="translate(-5004.489 -886.198)" fill="#d9cbb4"/>
  <path id="Path_42116" data-name="Path 42116" d="M5217.167,1487.96a2.138,2.138,0,1,0-2.094-2.164A2.142,2.142,0,0,0,5217.167,1487.96Z" transform="translate(-5004.489 -892.435)" fill="#d9cbb4"/>
  <path id="Path_42117" data-name="Path 42117" d="M5217.167,1493.651a2.139,2.139,0,1,0-2.094-2.164A2.143,2.143,0,0,0,5217.167,1493.651Z" transform="translate(-5004.489 -889.317)" fill="#d9cbb4"/>
  <path id="Path_42118" data-name="Path 42118" d="M5213.033,1485.17a2.138,2.138,0,1,0-2.095-2.164A2.14,2.14,0,0,0,5213.033,1485.17Z" transform="translate(-5006.757 -893.965)" fill="#d9cbb4"/>
  <path id="Path_42119" data-name="Path 42119" d="M5203.553,1303.348a2.139,2.139,0,1,0-2.125-2.134A2.147,2.147,0,0,0,5203.553,1303.348Z" transform="translate(-5011.969 -993.62)" fill="#d9cbb4"/>
  <path id="Path_42120" data-name="Path 42120" d="M5207.688,1306.137a2.139,2.139,0,1,0-2.125-2.133A2.142,2.142,0,0,0,5207.688,1306.137Z" transform="translate(-5009.701 -992.09)" fill="#d9cbb4"/>
  <path id="Path_42121" data-name="Path 42121" d="M5207.688,1311.828a2.139,2.139,0,1,0-2.125-2.133A2.142,2.142,0,0,0,5207.688,1311.828Z" transform="translate(-5009.701 -988.971)" fill="#d9cbb4"/>
  <path id="Path_42122" data-name="Path 42122" d="M5203.553,1309.038a2.139,2.139,0,1,0-2.125-2.133A2.147,2.147,0,0,0,5203.553,1309.038Z" transform="translate(-5011.969 -990.5)" fill="#d9cbb4"/>
  <path id="Path_42123" data-name="Path 42123" d="M5199.314,1307.551a2.139,2.139,0,1,0,2.1,2.164A2.142,2.142,0,0,0,5199.314,1307.551Z" transform="translate(-5014.32 -988.971)" fill="#d9cbb4"/>
  <path id="Path_42124" data-name="Path 42124" d="M5211.979,1297.656a2.139,2.139,0,1,0-2.125-2.133A2.145,2.145,0,0,0,5211.979,1297.656Z" transform="translate(-5007.35 -996.738)" fill="#d9cbb4"/>
  <path id="Path_42125" data-name="Path 42125" d="M5207.688,1294.756a2.139,2.139,0,1,0-2.125-2.133A2.142,2.142,0,0,0,5207.688,1294.756Z" transform="translate(-5009.701 -998.328)" fill="#d9cbb4"/>
  <path id="Path_42126" data-name="Path 42126" d="M5207.688,1300.447a2.139,2.139,0,1,0-2.125-2.134A2.142,2.142,0,0,0,5207.688,1300.447Z" transform="translate(-5009.701 -995.209)" fill="#d9cbb4"/>
  <path id="Path_42127" data-name="Path 42127" d="M5203.553,1297.656a2.139,2.139,0,1,0-2.125-2.133A2.145,2.145,0,0,0,5203.553,1297.656Z" transform="translate(-5011.969 -996.738)" fill="#d9cbb4"/>
  <path id="Path_42128" data-name="Path 42128" d="M5199.314,1301.86a2.139,2.139,0,1,0,2.1,2.164A2.142,2.142,0,0,0,5199.314,1301.86Z" transform="translate(-5014.32 -992.09)" fill="#d9cbb4"/>
  <path id="Path_42129" data-name="Path 42129" d="M5203.553,1314.728a2.138,2.138,0,1,0-2.125-2.132A2.144,2.144,0,0,0,5203.553,1314.728Z" transform="translate(-5011.969 -987.381)" fill="#d9cbb4"/>
  <path id="Path_42130" data-name="Path 42130" d="M5199.314,1313.241a2.139,2.139,0,1,0,2.1,2.166A2.144,2.144,0,0,0,5199.314,1313.241Z" transform="translate(-5014.32 -985.852)" fill="#d9cbb4"/>
  <path id="Path_42131" data-name="Path 42131" d="M5207.688,1317.519a2.139,2.139,0,1,0-2.125-2.134A2.14,2.14,0,0,0,5207.688,1317.519Z" transform="translate(-5009.701 -985.852)" fill="#d9cbb4"/>
</svg>
