<svg xmlns="http://www.w3.org/2000/svg" width="597.535" height="681.479" viewBox="0 0 597.535 681.479">
  <g id="byron-art" transform="translate(-4066.599 -2338.284)">
    <path id="Path_33597" data-name="Path 33597" d="M4123.71,2362.2a2.888,2.888,0,0,0,3.847-1.374l4.991-10.537,3.106,9.316a2.891,2.891,0,0,0,3.755,1.792l14.629-5.486-4.78,9.559a2.889,2.889,0,0,0,.419,3.2l7.525,8.529-10.994-2.5a2.888,2.888,0,0,0-3.523,2.638l-.6,9.506-10.232-6.4a2.89,2.89,0,0,0-3.063,4.9l14.346,8.967a2.89,2.89,0,0,0,4.416-2.271l.685-10.955,16.413,3.729a2.888,2.888,0,0,0,2.806-4.729l-12.16-13.781,7.2-14.4a2.89,2.89,0,0,0-3.6-4l-18.711,7.018-4.431-13.294a2.89,2.89,0,0,0-5.353-.324l-8.07,17.036A2.889,2.889,0,0,0,4123.71,2362.2Z" transform="translate(24.671 0.613)" fill="#14152e"/>
    <path id="Path_33598" data-name="Path 33598" d="M4334.037,2787.427a2.05,2.05,0,1,0,2.054,2.033A2.055,2.055,0,0,0,4334.037,2787.427Z" transform="translate(118.058 199.801)" fill="#14152e"/>
    <path id="Path_33599" data-name="Path 33599" d="M4337.364,2776.2a2.05,2.05,0,1,0,2.057,2.091A2.055,2.055,0,0,0,4337.364,2776.2Z" transform="translate(119.54 194.808)" fill="#14152e"/>
    <path id="Path_33600" data-name="Path 33600" d="M4334.049,2779.942a2.05,2.05,0,1,0,2.042,2.046A2.059,2.059,0,0,0,4334.049,2779.942Z" transform="translate(118.058 196.472)" fill="#14152e"/>
    <path id="Path_33601" data-name="Path 33601" d="M4337.361,2783.681a2.05,2.05,0,1,0,2.059,2.029A2.058,2.058,0,0,0,4337.361,2783.681Z" transform="translate(119.54 198.135)" fill="#14152e"/>
    <path id="Path_33602" data-name="Path 33602" d="M4327.516,2787.427a2.05,2.05,0,1,0,2.086,2A2.057,2.057,0,0,0,4327.516,2787.427Z" transform="translate(115.171 199.802)" fill="#14152e"/>
    <path id="Path_33603" data-name="Path 33603" d="M4330.8,2783.681a2.05,2.05,0,1,0,2.051,2.037A2.057,2.057,0,0,0,4330.8,2783.681Z" transform="translate(116.615 198.135)" fill="#14152e"/>
    <path id="Path_33604" data-name="Path 33604" d="M4308.08,2787.427a2.05,2.05,0,1,0,2.058,2.087A2.054,2.054,0,0,0,4308.08,2787.427Z" transform="translate(106.513 199.801)" fill="#14152e"/>
    <path id="Path_33605" data-name="Path 33605" d="M4301.58,2787.427a2.05,2.05,0,1,0,2.071,2.017A2.055,2.055,0,0,0,4301.58,2787.427Z" transform="translate(103.627 199.802)" fill="#14152e"/>
    <path id="Path_33606" data-name="Path 33606" d="M4291.833,2783.681a2.05,2.05,0,1,0,2.084,2A2.057,2.057,0,0,0,4291.833,2783.681Z" transform="translate(99.298 198.135)" fill="#14152e"/>
    <path id="Path_33607" data-name="Path 33607" d="M4324.29,2783.681a2.051,2.051,0,1,0,2.069,2.018A2.056,2.056,0,0,0,4324.29,2783.681Z" transform="translate(113.728 198.135)" fill="#14152e"/>
    <path id="Path_33608" data-name="Path 33608" d="M4288.63,2779.942a2.05,2.05,0,1,0,2.044,2.043A2.057,2.057,0,0,0,4288.63,2779.942Z" transform="translate(97.854 196.472)" fill="#14152e"/>
    <path id="Path_33609" data-name="Path 33609" d="M4314.528,2787.427a2.05,2.05,0,1,0,2.1,2.046A2.056,2.056,0,0,0,4314.528,2787.427Z" transform="translate(109.399 199.801)" fill="#14152e"/>
    <path id="Path_33610" data-name="Path 33610" d="M4321.037,2787.427a2.05,2.05,0,1,0,2.078,2.009A2.058,2.058,0,0,0,4321.037,2787.427Z" transform="translate(112.286 199.801)" fill="#14152e"/>
    <path id="Path_33611" data-name="Path 33611" d="M4350.3,2776.2a2.05,2.05,0,1,0,2.079,2.011A2.058,2.058,0,0,0,4350.3,2776.2Z" transform="translate(125.303 194.808)" fill="#14152e"/>
    <path id="Path_33612" data-name="Path 33612" d="M4353.346,2779.942a2.05,2.05,0,1,0,2.061,2.027A2.053,2.053,0,0,0,4353.346,2779.942Z" transform="translate(126.651 196.472)" fill="#14152e"/>
    <path id="Path_33613" data-name="Path 33613" d="M4347.046,2772.361a2.05,2.05,0,1,0,2.087,2A2.059,2.059,0,0,0,4347.046,2772.361Z" transform="translate(123.86 193.1)" fill="#14152e"/>
    <path id="Path_33614" data-name="Path 33614" d="M4350.326,2783.681a2.05,2.05,0,1,0,2.053,2.037A2.056,2.056,0,0,0,4350.326,2783.681Z" transform="translate(125.303 198.135)" fill="#14152e"/>
    <path id="Path_33615" data-name="Path 33615" d="M4340.566,2787.427a2.05,2.05,0,1,0,2.1,2.046A2.058,2.058,0,0,0,4340.566,2787.427Z" transform="translate(120.982 199.801)" fill="#14152e"/>
    <path id="Path_33616" data-name="Path 33616" d="M4356.632,2776.2a2.05,2.05,0,1,0,2.02,2.068A2.058,2.058,0,0,0,4356.632,2776.2Z" transform="translate(128.094 194.808)" fill="#14152e"/>
    <path id="Path_33617" data-name="Path 33617" d="M4356.588,2783.681a2.05,2.05,0,1,0,2.064,2.026A2.058,2.058,0,0,0,4356.588,2783.681Z" transform="translate(128.095 198.135)" fill="#14152e"/>
    <path id="Path_33618" data-name="Path 33618" d="M4340.566,2772.361a2.05,2.05,0,1,0,2.1,2.047A2.059,2.059,0,0,0,4340.566,2772.361Z" transform="translate(120.982 193.099)" fill="#14152e"/>
    <path id="Path_33619" data-name="Path 33619" d="M4340.6,2779.942a2.05,2.05,0,1,0,2.066,2.079A2.055,2.055,0,0,0,4340.6,2779.942Z" transform="translate(120.982 196.472)" fill="#14152e"/>
    <path id="Path_33620" data-name="Path 33620" d="M4343.864,2783.681a2.05,2.05,0,1,0,2.046,2.043A2.057,2.057,0,0,0,4343.864,2783.681Z" transform="translate(122.426 198.135)" fill="#14152e"/>
    <path id="Path_33621" data-name="Path 33621" d="M4343.846,2776.2a2.05,2.05,0,1,0,2.063,2.083A2.056,2.056,0,0,0,4343.846,2776.2Z" transform="translate(122.426 194.808)" fill="#14152e"/>
    <path id="Path_33622" data-name="Path 33622" d="M4347.046,2787.427a2.05,2.05,0,1,0,2.087,2A2.058,2.058,0,0,0,4347.046,2787.427Z" transform="translate(123.86 199.802)" fill="#14152e"/>
    <path id="Path_33623" data-name="Path 33623" d="M4347.028,2779.942a2.05,2.05,0,1,0,2.106,2.04A2.057,2.057,0,0,0,4347.028,2779.942Z" transform="translate(123.859 196.471)" fill="#14152e"/>
    <path id="Path_33624" data-name="Path 33624" d="M4359.857,2779.942a2.05,2.05,0,1,0,2.038,2.049A2.057,2.057,0,0,0,4359.857,2779.942Z" transform="translate(129.537 196.472)" fill="#14152e"/>
    <path id="Path_33625" data-name="Path 33625" d="M4282.121,2779.942a2.05,2.05,0,1,0,2.065,2.022A2.055,2.055,0,0,0,4282.121,2779.942Z" transform="translate(94.969 196.472)" fill="#14152e"/>
    <path id="Path_33626" data-name="Path 33626" d="M4285.388,2783.681a2.05,2.05,0,1,0,2.042,2.047A2.057,2.057,0,0,0,4285.388,2783.681Z" transform="translate(96.412 198.135)" fill="#14152e"/>
    <path id="Path_33627" data-name="Path 33627" d="M4285.346,2776.2a2.05,2.05,0,1,0,2.085,2A2.057,2.057,0,0,0,4285.346,2776.2Z" transform="translate(96.412 194.808)" fill="#14152e"/>
    <path id="Path_33628" data-name="Path 33628" d="M4658.513,2350.075a2.328,2.328,0,0,0-2.366-.438c-21.685,8.092-49.508,4.7-84.733.395l-2.867-.35c-12.893-1.573-22-.789-28,.465a25.322,25.322,0,0,0,3.62-7.074,2.341,2.341,0,0,0-3-2.845c-.167.056-17.138,5.625-43.091,7.843-22.236,1.9-38.6,6.743-49.535,14.664-7.919-16.834-30.489-27.023-53.705-23.886a47.878,47.878,0,0,0-29.726,16.662,2.9,2.9,0,0,0-.537,1.254c-42.873-11.332-81.814-17.184-94.867-13.372-4.856,1.416-7.362,3.8-7.449,7.081-.1,3.913-.361,14.246,86.722,44.938-5.314,14.462-9,36.518,4.323,58.507a39.222,39.222,0,0,0,25.78,18.366c-1.757,5.863-4.358,12.7-6.078,17.047-2.354.169-5.744,2.616-12.762,10.341-3.469,3.819-6.934,7.99-9.222,10.9a135.251,135.251,0,0,1-12.12-28.747c-3.132-11.222-6.18-20.417-12.608-27.312a203.682,203.682,0,0,1,7.315-41.129c4.567-16.315-.315-22.011-3.633-23.954-4.555-2.67-11.072-1.205-15.849,3.559a36.822,36.822,0,0,0-7.378,11.387,38.712,38.712,0,0,1,.717-4.613,10.894,10.894,0,0,0-5.967-12.581c-4.229-1.929-10.623-1.384-15.9,5.9-11.851,16.377-5.108,42.135-3.5,47.538a17.183,17.183,0,0,0-5.457,8.948c-1.278,4.4-2.534,8.743-3.451,12.878a11.681,11.681,0,0,0-10.787-3.767c-5.718.974-10.871,5.741-12.823,11.865-3.932,12.332,4.492,22.732,15.535,28.647-76.941-18.478-90.784-35.908-92.756-39.151,2.463-8.048,2-14.917,1.617-20.481-.454-6.643-.781-11.444,3.307-16.013,5.552-6.2,4.458-13.78.51-18.056-4.1-4.449-11.856-6.2-19.915-.071a44.5,44.5,0,0,0-14.258,17.613c-.322-19.874-.834-43.764-1.512-52.264-.4-4.972-2.315-8.509-5.7-10.513-6.828-4.046-16.673.164-17.774.656-.056.024-.1.06-.154.088-.138.039-.275.063-.412.107l-11.108,4.538a11.424,11.424,0,0,0-2.782,1.334,13.709,13.709,0,0,0-12.3-3.218c-6.694,1.416-10.956,6.743-10.364,12.958.978,10.274,12.237,53.875,12.715,55.724a2.621,2.621,0,0,0,.455.913c-2.781,3.649-3.884,8.849-3.6,13.557.461,7.6,4.24,13.235,9.649,14.782a16.953,16.953,0,0,0-1.985,8.7c.136,4.579,1.9,8.809,4.719,11.314,2.144,1.906,5.865,2.832,10.187,2.83a35.073,35.073,0,0,0,5.539-.469,2.648,2.648,0,0,0,1.426,1.3c8.877,3.381,25.091,8.192,36.786,3.779,8.361,7.155,55.715,43.807,166.36,61.515-11.585,25.874-7.416,43.266,13.656,60.6-.021.044-.054.081-.072.127-.192.461-4.716,11.426-4.716,20.89a3.02,3.02,0,0,0,.542,1.709c-10.5,11.858-16.042,30.714-19.925,49.081-23.464-18.317-50.424-30.116-77.812-20.03-9.917,3.654-18.38,11.5-25.6,21.768a2.871,2.871,0,0,0-1.352,1.936c0,.014,0,.026,0,.038-13.817,20.7-22.87,50.3-28.563,75.778-1.893,8.465-3.541,17.043-4.968,25.6-51.643,30.55-54.717,61.363-48.117,81.9,3.9,12.143,16.2,21.15,30.853,26.991-.519,5.881-1.117,11.226-1.8,15.375-1.523,9.233-39.5,45.2-71.595,65.275a14.231,14.231,0,0,0-6.5,15.233,13.023,13.023,0,0,0,4.992,7.808,2,2,0,0,0,.668.478,13.267,13.267,0,0,0,5.493,1.982c2.136.275,4.375.5,6.656.71a2,2,0,1,0,2.4.215q2.566.206,5.221.364a1.96,1.96,0,0,0-.334,1.141,2,2,0,0,0,3.99-.047,1.942,1.942,0,0,0-.24-.917q2.285.11,4.612.191a1.975,1.975,0,0,0-.141.773,2,2,0,0,0,3.991-.047,1.978,1.978,0,0,0-.107-.609c1.466.038,2.935.073,4.416.1a1.974,1.974,0,0,0-.078.559,2,2,0,1,0,3.93-.509c1.448.015,2.9.021,4.35.025a1.888,1.888,0,0,0-.056.484,2,2,0,0,0,3.991-.047,1.928,1.928,0,0,0-.054-.437q2.177-.007,4.347-.025a1.976,1.976,0,0,0-.062.509,2,2,0,0,0,3.991-.047,1.889,1.889,0,0,0-.074-.5q2.211-.028,4.4-.062a1.914,1.914,0,0,0-.092.61,2,2,0,0,0,3.991-.047,1.964,1.964,0,0,0-.114-.627c1.507-.029,3-.058,4.482-.088a1.951,1.951,0,0,0-.139.763,2,2,0,0,0,3.993-.047,1.97,1.97,0,0,0-.174-.795l3.255-.071c.464-.012.917-.02,1.377-.03a1.934,1.934,0,0,0-.228.943,2,2,0,1,0,3.721-1.02q2.45-.052,4.822-.1a1.951,1.951,0,0,0-.321,1.117,2,2,0,0,0,3.992-.047,1.975,1.975,0,0,0-.361-1.127c1.718-.028,3.392-.051,5.007-.065a1.963,1.963,0,0,0-.417,1.24,2,2,0,0,0,3.993-.047,1.978,1.978,0,0,0-.43-1.211c1.777,0,3.482,0,5.072.024a1.953,1.953,0,0,0-.412,1.234,2,2,0,1,0,3.356-1.488,24.72,24.72,0,0,0,9.134-3.83,1.988,1.988,0,1,0,3.2-2.288q7.6-5.96,16.133-17.438c3.357-4.521,6.326-9.016,8.7-12.814l3.75,33.355a3.853,3.853,0,0,0,4.24,3.4l1.235-.133a1.956,1.956,0,0,0-.415,1.238,2,2,0,0,0,3.991-.047,1.97,1.97,0,0,0-.708-1.5l17.434-1.878a3.835,3.835,0,0,0,2.016-.846,1.978,1.978,0,0,0,1.4-3.06c0-.115.008-.227,0-.341-.05-.454-5-45.646-9.155-77.717-1.2-9.229-1.979-19.618-2.492-29.729,24.191-4.97,47.311-8.744,60.979-10.836.046.013.091.031.14.04-1.369,13.752-2.47,24.69-2.5,24.948a3.851,3.851,0,0,0,3.933,4.235c.545-.016,54.866-1.345,71.922,5.246,2.5.967,6.025,7.7,9.756,14.837,2.888,5.526,6.4,12.245,10.988,19.633-11.423,9.274-17.157,16.913-17.394,23.158a2.01,2.01,0,0,0,.3,2.871,9.686,9.686,0,0,0,.78,2.087c1.485,2.838,4.371,4.788,8.154,6.025a2.009,2.009,0,0,0-.331,1.118,2.053,2.053,0,1,0,4.1-.049,1.271,1.271,0,0,0-.016-.127,45.4,45.4,0,0,0,5.354.668,2.041,2.041,0,0,0,3.921.14c.133,0,.262.006.4.006,1.643,0,3.336-.074,5.046-.181a2.045,2.045,0,0,0,4.033-.334c1.786-.186,3.579-.424,5.372-.7a2.01,2.01,0,0,0-.089.542,2.052,2.052,0,1,0,3.728-1.156c3.875-.715,7.651-1.6,11.159-2.594a2.017,2.017,0,0,0,1.252.418,2.056,2.056,0,0,0,1.9-1.362c2.676-.952,5.476-3.326,7.935-9.656a2.054,2.054,0,0,0,1.566-2,2.031,2.031,0,0,0-.445-1.244c3.6-11.712,6.228-33.708,6.2-75.213-.008-11.946-9.817-26.612-19.273-37.978l5.166-2.272c3.534,13.366,9.158,25.5,15.9,27.13a6.911,6.911,0,0,0,1.611.193c2.067,0,4.9-.949,7.417-5.082a30.222,30.222,0,0,0,3.842-13.747c3.5,7.591,7.729,13.437,12.419,14.129a6.821,6.821,0,0,0,.989.072c2.251,0,5.093-1.164,7.4-5.856,2.15-4.366,2.985-9.711,3.056-15.227,4.425,8.6,9.544,15.485,14.571,16.332a2.852,2.852,0,0,0,4.217-.729c1.472-.844,2.948-2.443,4.134-5.324,2.734-6.636,2.13-15.448-.007-24.46,6.646,9.187,13.693,16.758,18.884,16.758a5.252,5.252,0,0,0,.794-.062c1.954-.315,4.442-1.731,5.2-6.7.782-5.115-.371-10.674-2.451-16.05,6.052,5.065,11.965,8.6,16.467,8.6a7.218,7.218,0,0,0,2.108-.3c2.212-.673,4.868-2.673,4.957-8.367.22-14.278-14.592-29.906-21.809-36.663,1.647-1.169,3.256-3.378,3.586-7.574,1.458-18.559-24.506-39.269-25.612-40.142a2.866,2.866,0,0,0-1.752-.609,2.824,2.824,0,0,0-.263-1.348c-.151-.308-15.419-31.211-32.187-71.679-8.586-20.723-18.546-46.372-26.923-72.257,22.814,30.752,56.5,57.1,82.251,66.766a2.843,2.843,0,0,0,1.014.185,2.891,2.891,0,0,0,2.359-4.561c-8.306-11.726-14.416-39.583-10.275-62.369,7.323-40.269,3.9-55.452-5.642-80.494-11.745-30.813-38.912-56.6-74.929-71.357.152-3.961-1.125-7.915-4.268-10.26a56.483,56.483,0,0,0,3.26-8.555c14.131,4.882,59.27,19.834,82.174,19.834,5.2,0,9.246-.77,11.529-2.6,3.2-2.569,4.624-5.444,4.228-8.542-1.233-9.669-20.316-18.253-58.333-35.351-10.165-4.572-21.686-9.753-34.13-15.55q-1.4-.648-2.815-1.293a2.888,2.888,0,0,0-.521-3.185l-.124-.129a86.2,86.2,0,0,1,10.744,4.762,142.068,142.068,0,0,0,23.951,9.816c32.7,9.792,76.92,9.89,78,9.89h.016a2.341,2.341,0,0,0,1.546-4.094,35.3,35.3,0,0,1-3.638-3.757c11.5,3.833,30.032,3.775,48.733-.719,36.99-8.894,46.5-47.512,46.591-47.9A2.34,2.34,0,0,0,4658.513,2350.075Zm-262.9-5.5c21.429-2.9,42.086,6.54,48.3,21.976a38.469,38.469,0,0,0-6.01,7.3c-12.39-6.515-33.091-14.274-65.223-17.982A42.223,42.223,0,0,1,4395.609,2344.577Zm43.969,36.922c-14.754-6.031-30.724-11.647-46.809-16.639C4416.066,2369.546,4430.97,2376.385,4439.578,2381.5Zm-62.891,114.15c.8-1.932,5.5-13.351,8.154-22.453,1.553.146,3.081.214,4.562.214a41.847,41.847,0,0,0,14.5-2.385,2.89,2.89,0,0,0-2.086-5.391c-9.158,3.551-31.857,4.617-43.57-14.71-18.506-30.533-.919-61.471,2.974-67.619a137.323,137.323,0,0,1,42.358,3.547c4.169,37.986,26.735,52.9,35.778,56.614a47.433,47.433,0,0,1-9.292,9.969,2.847,2.847,0,0,0-1.173.553,65.876,65.876,0,0,1-6.53,4.624,63.255,63.255,0,0,1-6.236,3.039,2.856,2.856,0,0,0-.857.569c-.387.145-.6.208-.607.211a2.891,2.891,0,0,0-2.067,2.373c-1.348,9.483-2.669,18.324-2.863,19.62a57.485,57.485,0,0,0-10.366,8.333c-8.431,8.43-17.906,12-21.469,10.046C4375.79,2501.646,4376.206,2497.921,4376.687,2495.65Zm62.225-9.322a13.231,13.231,0,0,0-1.943-2.479,10.022,10.022,0,0,0-2.911-2.01l.4-2.155a146.015,146.015,0,0,1,3.127-14.5,11.127,11.127,0,0,0,1.479.1c.23,0,.457-.039.685-.053A145.152,145.152,0,0,0,4438.912,2486.327Zm-6.665-23.433a141.192,141.192,0,0,0-3.471,15.732l-.216,1.167c-.175-.036-.35-.074-.519-.1a22.657,22.657,0,0,0-11.995,1.54c.5-3.392,1.247-8.471,2.024-13.9a49.779,49.779,0,0,0,7.383-3.835c1.674-.948,3.229-1.948,4.713-2.978A9.038,9.038,0,0,0,4432.248,2462.895Zm-61.657,34.444c-.565,6.6,2.472,9.4,4.523,10.53,6.478,3.554,18.394-1.082,28.336-11.027,5.758-5.759,11.767-9.579,17.074-11-4.143,5.473-5.705,15.063-7.526,26.361-1.335,8.273-2.847,17.65-5.592,26.885a140.522,140.522,0,0,1-11.934,28.275c-9.529-9.3-27.539-28.306-41.34-51.366A175.439,175.439,0,0,1,4370.59,2497.339Zm-65.046-57.284c.18-12.378,3.7-34.039,12.664-42.975,2.826-2.816,6.627-3.963,8.846-2.664,2.436,1.426,3.975,6.749.989,17.41a219.094,219.094,0,0,0-7.2,38,38.349,38.349,0,0,0-5.2-3.007c-1.112-.535-2.258-1.1-3.429-1.68-2.345-1.16-4.771-2.358-7.214-3.442A2.884,2.884,0,0,0,4305.544,2440.054Zm-15.264-43.583c2.744-3.793,6.044-5.3,8.821-4.032a5.169,5.169,0,0,1,2.734,6.015c-2.035,8.763-1.238,26.368-1.2,27.114a2.874,2.874,0,0,0,.267,1.082,119.861,119.861,0,0,0-1.127,12.957c-4.314-1.485-8.544-2.242-12.358-1.441C4285.722,2432.024,4280.59,2409.863,4290.28,2396.472Zm-35.195,75.828c1.292-4.053,4.7-7.311,8.286-7.923a5.981,5.981,0,0,1,6.033,2.507,18.9,18.9,0,0,1,2.414,7.8l0,.064a11.506,11.506,0,0,1-3.7,9.4,2.89,2.89,0,1,0,3.962,4.208,17.859,17.859,0,0,0,3.008-3.708,16.789,16.789,0,0,0,5.819,4.728c8.878,4.567,17.914,8.334,23.867,5,3.072-1.722,4.809-5,5.161-9.739.719-9.654-7.117-16.767-15.2-19.534a2.89,2.89,0,1,0-1.871,5.469c5.789,1.981,11.8,7.093,11.312,13.636-.2,2.686-.948,4.41-2.222,5.126-4.065,2.272-14.479-3.077-18.4-5.094-8.6-4.42-6.92-13.919-1.369-33.054,1.061-3.652,2.68-5.915,4.952-6.913,5.448-2.4,14.908,2.287,22.514,6.05,1.19.589,2.357,1.166,3.491,1.709,11.372,5.458,15.266,13.713,20.188,31.353,13.9,49.787,62.85,92.7,64.926,94.5a2.89,2.89,0,0,0,3.789-4.366c-.06-.054-.875-.767-2.275-2.063a140.179,140.179,0,0,0,13.173-30.719c2.852-9.6,4.395-19.169,5.758-27.615,2.14-13.271,3.988-24.735,9.792-26.168a5.383,5.383,0,0,1,2.378-.115,13.315,13.315,0,0,1,3.364,2.93c2.229,3.95,4.5,13.406,2.593,36.057a373.161,373.161,0,0,1-7.994,49.694c-3.365,14.347-9.9,31.977-21.888,34.5-10.336,2.171-23.928-7.49-39.32-27.944-35.967-47.8-51.731-73.836-51.887-74.092a2.89,2.89,0,0,0-3.394-1.251c-11.481,3.853-19.724-.56-28.452-5.234a75,75,0,0,0-10.3-4.862C4262.22,2492.64,4251.571,2483.321,4255.085,2472.3Zm150.552,159.352a1.908,1.908,0,0,0-.807,1.016c-.019-.338-.04-.677-.058-1.016Zm-6.63.406a1.852,1.852,0,0,0-.487-.4h.466C4398.994,2631.791,4399,2631.925,4399.008,2632.058ZM4133.694,2364.85c1.827,1.085,2.837,3.161,3.092,6.344,1.2,15.008,1.893,81.226,1.9,81.891,0,.063,0,.139.01.2,0,.038.232,3.175-1.173,4.341a21.4,21.4,0,0,0-2.787-2.1,13.313,13.313,0,0,0,2.407-5.984,16.716,16.716,0,0,0-2.194-10.954,1.477,1.477,0,0,0,.25-.847l-2.029-66.214v-.02a11.4,11.4,0,0,0-3.4-7.635A8.137,8.137,0,0,1,4133.694,2364.85Zm-14.881,8.506c1.682,0,3.564,3.065,3.564,7.169s-1.883,7.167-3.564,7.167-3.566-2.942-3.566-7.167S4117.127,2373.356,4118.813,2373.356Zm-32,2.856c-.382-4.015,2.816-6.525,6.155-7.23a8.2,8.2,0,0,1,7.522,1.891,11.468,11.468,0,0,0-1.521,6.262l2.421,51.831a11.543,11.543,0,0,0-2.354.793C4097.108,2422.222,4087.664,2385.1,4086.818,2376.212Zm16.539,80.563c-4.4-.315-6.659-5.342-6.954-10.186-.335-5.518,1.745-11.576,6.369-12.478,6-1.168,18.175,1.526,25.052,4.72,2.8,1.3,4.654,5.844,4.042,9.92-.393,2.618-1.9,5.884-6.859,6.565C4112.86,2456.99,4108.182,2457.121,4103.357,2456.776Zm3.649,20.943c-1.715-1.524-2.838-4.392-2.929-7.482a10.435,10.435,0,0,1,2.515-7.6,2.576,2.576,0,0,0,.309-.379c.205,0,.393.012.6.012a135.639,135.639,0,0,0,18.231-1.664,14.627,14.627,0,0,0,4.632-1.436c1.816.916,5.517,3.329,6.144,6.294.367,1.729-.348,3.571-2.186,5.623C4127.976,2478.184,4111.214,2481.46,4107.006,2477.719Zm52.73,6.372a2.67,2.67,0,0,0-2.969-.468c-6.519,3.094-17.2,2.461-29.739-1.65a28.992,28.992,0,0,0,11.272-7.33c3.017-3.372,4.17-6.841,3.425-10.31a10.4,10.4,0,0,0-.877-2.459c2.816-2.25,3.372-6.434,3.172-8.942-.011-1.046-.068-6.367-.167-13.879a2.66,2.66,0,0,0,.725-1.253l.305-1.228c1.972-7.991,4.428-17.939,16.221-26.9,5.763-4.378,10.479-3.036,12.766-.558,2.242,2.429,3.022,6.87-.565,10.878-5.587,6.246-5.134,12.9-4.654,19.934.382,5.608.815,11.962-1.683,19.455a2.67,2.67,0,0,0-.04,1.561c.712,2.552,10.1,25.574,119.164,48.426a2.569,2.569,0,0,0,.542.056c7.159,3.482,15.257,6.143,25.34,3.457,2.3,3.681,8.016,12.626,17.558,26.426q-1.827,3.251-3.378,6.337C4206.517,2526.78,4160.19,2484.514,4159.736,2484.091Zm173.651,60.752c7.727,11.033,17.538,24.646,29.622,40.7a126.243,126.243,0,0,0,18.094,19.942c-9.256.556-26.262,1.725-37.143,3.343a3.105,3.105,0,0,0-.469-.461C4320.345,2590.368,4317.6,2574.072,4333.387,2544.843Zm-28.169,139.4a2.857,2.857,0,0,0,.68.7c5.889,4.21,9.724,10.849,11.09,19.2,1.85,11.294-1.245,24.233-8.3,35.157q-13.277-12.694-24.811-17.88a56.028,56.028,0,0,0-4.341-44.044,44.642,44.642,0,0,0-7.427-10C4283.544,2670.469,4294.687,2676.573,4305.218,2684.24Zm17.475,18.966a41.158,41.158,0,0,0-1.415-5.791,340.634,340.634,0,0,1,27.081,28.058c.015.453.032.975.053,1.553a1.98,1.98,0,0,0,.145,3.316c.07,1.375.156,2.938.266,4.668a1.992,1.992,0,0,0,.261,3.775q.149,2.042.34,4.316a1.991,1.991,0,0,0,.142,3.976,2.055,2.055,0,0,0,.209-.02q.2,2.1.428,4.364a1.969,1.969,0,0,0-.59-.113,2,2,0,1,0-.047,3.992,1.965,1.965,0,0,0,1.023-.288q.289,2.61.63,5.392a2,2,0,1,0,.222,1.8c.717,5.682,1.6,11.864,2.682,18.451a1.979,1.979,0,0,0,.528,3.153q.537,3.143,1.138,6.4a1.8,1.8,0,0,0-.2-.025,2,2,0,1,0-.048,3.992,1.961,1.961,0,0,0,.947-.246q.908,4.724,1.95,9.649-4.978-7.811-9.8-14.908a1.96,1.96,0,0,0,.924.244,2,2,0,1,0-1.983-1.991,1.526,1.526,0,0,0,.022.211c-.951-1.39-1.892-2.739-2.833-4.088a2,2,0,0,0-1.358-3.417,1.938,1.938,0,0,0-.9.206c-2.027-2.854-4.035-5.629-6.02-8.287a1.961,1.961,0,0,0,.9.229,2,2,0,1,0-1.984-1.99,1.913,1.913,0,0,0,.04.368c-.877-1.166-1.753-2.322-2.621-3.449a1.99,1.99,0,0,0-1.585-3.145,1.952,1.952,0,0,0-.77.139,253.984,253.984,0,0,0-17.6-20.256C4321.155,2731.131,4324.827,2716.241,4322.693,2703.207Zm-55.753,71.861a1.983,1.983,0,0,0,1.494-.735q1.343,1.153,2.7,2.48a1.909,1.909,0,0,0-.028.285,2,2,0,0,0,2.03,2,1.863,1.863,0,0,0,.22-.027c3.532,3.728,7.145,8.157,10.771,12.849a1.988,1.988,0,1,0,2.413,3.154c1.663,2.193,3.324,4.418,4.98,6.636q.952,1.272,1.9,2.547c-.274.078-.542.156-.814.234a1.966,1.966,0,0,0-1.347-.526,1.991,1.991,0,0,0-1.9,1.462q-7.495,2.178-14.294,4.336a1.987,1.987,0,0,0-3.962.224,1.965,1.965,0,0,0,.257.964q-2.02.656-3.964,1.308a1.928,1.928,0,0,0-2.056.693c-6.354,2.161-12.089,4.274-17.107,6.3-.777-3.8-3.618-10-12.78-17.749.983-9.744,2.26-19.229,3.868-28.031,2.918-.811,5.292-1.594,7.564-2.353.382-.129.765-.255,1.147-.383a1.939,1.939,0,0,0,.751.136,2,2,0,0,0,1.63-.907c1.683-.532,3.484-1.052,5.586-1.572a10.656,10.656,0,0,1,2.94.347c0,.044-.013.086-.013.131a1.982,1.982,0,0,0,3.533,1.254,26.264,26.264,0,0,1,2.847,1.753,1.975,1.975,0,0,0-.4,1.185A2,2,0,0,0,4266.94,2775.067Zm-24.217,46.514c-3.527,1.553-6.581,3.049-9.126,4.466.3-5.783.7-11.6,1.194-17.367C4241.9,2815.57,4242.674,2820.17,4242.723,2821.582Zm10.848-58.655a2.707,2.707,0,0,0-.511.261c-3.1.822-5.585,1.648-8,2.455-1.419.474-2.884.958-4.48,1.449,3.95-18.781,9.59-33.645,17.336-39.866a2.892,2.892,0,0,0,1.224-.9,13.86,13.86,0,0,1,3.31-1.644c11.073-3.692,24.229,2.96,37.562,14.683-1.255,3.324-2.12,6.135-2.593,7.786C4281.623,2752.145,4253.858,2762.815,4253.571,2762.927Zm-16.143-94.464a53.456,53.456,0,0,1,19.76-3.31,2.889,2.889,0,0,0,.633.221c6.018,1.289,12.247,6.821,16.66,14.8a50.178,50.178,0,0,1,3.988,39.2q-9.6-2.913-17.848-.175a18.579,18.579,0,0,0-2.7,1.146c-4.711-8.7-18.52-28.447-41.351-34.812C4222.835,2677.241,4229.781,2671.281,4237.429,2668.463Zm-24.4,22.122c23.43,5.471,36.646,26.653,40.178,33.1q-6.391,5.8-11.27,17.8c-29.488-4.465-43.284-15.141-45.163-16.7C4201.474,2711.649,4206.888,2699.97,4213.026,2690.586Zm-54.836,200.3c-8.815-3.676-16.5-8.544-21.364-14.553a39.728,39.728,0,0,0,15.625,3.259,37.6,37.6,0,0,0,6.529-.578C4158.746,2883,4158.483,2887,4158.189,2890.886Zm10.782-53.128-4.452-.11a3.689,3.689,0,0,0-2.754,1.058,3.849,3.849,0,0,0-1.2,2.7c-.006.27-.378,14.9-1.254,31.564-12.342,2.657-22.729-2.529-26.279-5.48a2.854,2.854,0,0,0-1.112-.563c-3.116-10.769-3.018-24.521,6.877-39.635a2.934,2.934,0,0,0,.56-.241c.467-.265,11.551-6.26,30.045,5.336Q4169.173,2835.091,4168.972,2837.758Zm1.018-11.756c-10.906-6.2-19.642-6.969-25.461-6.3,6.7-7.812,16.16-15.9,29.224-24.057C4172.188,2805.927,4170.946,2816.117,4169.989,2826Zm60.81-34.973c-.325,2.692-.623,5.408-.9,8.131a2.849,2.849,0,0,0-.821.612,1.985,1.985,0,0,0,.015,3.967,2.862,2.862,0,0,0,.3.286l.037.031q-.357,3.966-.653,7.922a1.986,1.986,0,0,0-.271,3.823c-.2,2.933-.374,5.844-.525,8.717a1.969,1.969,0,0,0-.155,3.049c-.159,3.326-.289,6.587-.395,9.761a1.948,1.948,0,0,0-.254.99,2.079,2.079,0,0,0,.059.427c-1.4-.005-2.852-.014-4.343-.026a1.926,1.926,0,0,0,.053-.449,2,2,0,1,0-3.992.048,2.139,2.139,0,0,0,.046.367q-2.121-.022-4.312-.049a1.915,1.915,0,0,0,.035-.365,2,2,0,1,0-3.991.048,1.789,1.789,0,0,0,.033.266q-2.135-.031-4.289-.064a1.91,1.91,0,0,0,.024-.25,2,2,0,1,0-3.992.048c0,.047.013.092.018.139q-2.141-.037-4.257-.075c0-.037.01-.074.01-.111a2,2,0,1,0-3.991.037l-4.236-.082a1.989,1.989,0,0,0-3.973-.081l-4.269-.091a1.988,1.988,0,0,0-3.94-.086c-1.109-.026-2.174-.05-3.177-.072q.149-1.879.309-3.774a1.959,1.959,0,0,0,.83.177,1.993,1.993,0,0,0-.018-3.987,2.031,2.031,0,0,0-.479.063q.376-4.121.821-8.289a1.988,1.988,0,0,0,.419-3.8c1.5-13.223,3.508-26.664,6.025-39.813,2.751,2.2,13.127,9.343,31.6,9.343a82.793,82.793,0,0,0,17.256-1.919C4231.232,2787.583,4231.009,2789.285,4230.8,2791.029Zm1.493-10.927a2.894,2.894,0,0,0-1.27-.013c-30.222,6.719-44.644-5.944-45.232-6.477a2.88,2.88,0,0,0-2.074-.763,370.232,370.232,0,0,1,11.065-42.291c5.028,3.688,19.127,12.345,45.1,16.464A195.766,195.766,0,0,0,4232.292,2780.1Zm23.758,102.693q-4.648.905-9.4,1.875c-.925-22.342-.607-41.853-.6-42.151a3.844,3.844,0,0,0-.271-1.471q5.871-.842,11.344-1.529a2.821,2.821,0,0,0,.189.613C4267.005,2861.934,4258.193,2879.145,4256.05,2882.794Zm53.94-22.718a1.975,1.975,0,0,0-1.555-.751,2,2,0,1,0,1.282,3.518c-.161,1.624-.323,3.251-.483,4.87a1.967,1.967,0,0,0-.8-.166,2,2,0,1,0,.048,3.992,1.9,1.9,0,0,0,.376-.047q-.11,1.121-.221,2.227c-1.394.211-2.913.445-4.524.695a1.941,1.941,0,0,0,.124-.7,1.992,1.992,0,0,0-3.985.021,1.976,1.976,0,0,0,.426,1.223c-10,1.582-23.158,3.779-37.49,6.474a53.358,53.358,0,0,0-.167-42.621c12.032-1.395,22.5-2.246,31.352-2.736a1.954,1.954,0,0,0-.1.58,1.993,1.993,0,1,0,3.825-.773q4.675-.219,8.677-.314a1.994,1.994,0,1,0,3.281-.066q1.2-.02,2.324-.029C4311.75,2842.135,4310.889,2850.962,4309.99,2860.077Zm2.941-30.437c-16.027.094-42.613,1.505-79.811,7.492q.07-2.061.154-4.135c9.429-6.305,33.143-15.139,63.882-23.786a216.7,216.7,0,0,0,15.9,19.1C4313.015,2828.725,4312.973,2829.173,4312.931,2829.639Zm46.907-4.841c-21.121.111-42.47-.818-42.706-.828-.058,0-.111.01-.167.011-7.2-7.508-14.217-16.9-20.812-25.73-10.731-14.37-21.021-28.147-31.346-33.4,10-3.751,25.909-9.6,35.833-12.653a2.888,2.888,0,0,0,1.954-2.062c.008-.033.687-2.723,2.022-6.535,20.169,19.37,40.241,48.937,53.65,70.557.633,1.021,1.125,1.814,1.52,2.444A36.573,36.573,0,0,1,4359.838,2824.8Zm62.494,26.721a3.668,3.668,0,0,0-.253.634c-10.5,21.43-15.772,35.348-18.082,42.1-6.839-5-12.839-13.838-17.279-21.8a167.063,167.063,0,0,1-9.03-20.018c-2.557-8.029-4.955-16.35-7.125-24.822a3.869,3.869,0,0,0-.816-1.552c-15.2-57.119-15.658-102.431-15.661-102.944a2.881,2.881,0,0,0-2.6-2.845c-9.683-11.016-20.9-22.839-33.19-33.115,2.2-10.811,5.077-22.577,9.371-32.762a1.87,1.87,0,0,0,1.477-1.79,1.8,1.8,0,0,0-.274-.937q.649-1.405,1.338-2.76a1.889,1.889,0,1,0,1.6-2.975,44.47,44.47,0,0,1,8.784-11.2c.824-.093,1.759-.2,2.781-.3a1.843,1.843,0,0,0,3.126-.322c1.616-.161,3.386-.328,5.294-.5a1.87,1.87,0,0,0,1.844,1.543,1.9,1.9,0,0,0,1.868-1.861q2.435-.2,5.081-.391a1.731,1.731,0,0,0-.073.347,1.9,1.9,0,1,0,3.79,0,1.858,1.858,0,0,0-.125-.594q2.629-.171,5.4-.322a1.85,1.85,0,0,0-.275.883,1.895,1.895,0,1,0,3.789.064,1.849,1.849,0,0,0-.386-1.106c1.943-.092,3.93-.175,5.947-.244a1.89,1.89,0,1,0,3.229,1.341,1.85,1.85,0,0,0-.672-1.42q3.205-.094,6.488-.136a1.89,1.89,0,1,0,2.975,1.577,1.859,1.859,0,0,0-.9-1.6c.123,0,.244,0,.365,0,2.223-.014,4.387-.022,6.479-.03a1.878,1.878,0,0,0-.946,1.555,1.9,1.9,0,0,0,1.89,1.936,1.868,1.868,0,0,0,1.563-.879c.418,7.1.945,14.391,1.576,21.793a1.854,1.854,0,0,0,.244,2.812c3.947,44.491,11.716,92.314,23.261,123.659a2.863,2.863,0,0,0-1.061,1.9c-1.708,14.291-2,45.062,7.772,50.314C4428.438,2839.533,4422.4,2851.391,4422.333,2851.519Zm7.974-28.119c-2.193-7.983-3.177-22.344-1.533-37.177.665-.112,1.786-.308,3.328-.605Zm5.013-44.62a2.927,2.927,0,0,0-2,.687c-1.538.319-2.824.568-3.812.753-10.817-29.546-18.255-73.961-22.279-116.189a1.848,1.848,0,0,0-.322-3.439q-.279-3.066-.535-6.112a1.891,1.891,0,0,0,.019-3.782,1.754,1.754,0,0,0-.325.061q-.238-3.005-.452-5.979a1.891,1.891,0,1,0,.777-3.625,1.829,1.829,0,0,0-1.01.317q-.256-3.743-.475-7.422a1.888,1.888,0,0,0,3.605-.756,1.865,1.865,0,0,0-.958-1.64c2.7,0,5.037.009,6.9.016a1.876,1.876,0,0,0-.938,1.549,1.895,1.895,0,1,0,3.789.064,1.865,1.865,0,0,0-.923-1.6l1.392.007c1.093,1.641,2.171,3.288,3.222,4.945a1.877,1.877,0,0,0-1.187-.487,1.891,1.891,0,1,0,1.851,1.922,1.834,1.834,0,0,0-.095-.525q1.139,1.811,2.248,3.635a1.888,1.888,0,0,0,.231,3.761,1.857,1.857,0,0,0,1.521-.8c.5.857,1.008,1.714,1.5,2.573a1.847,1.847,0,0,0-.4,1.094,1.9,1.9,0,0,0,1.919,1.907c.053,0,.1-.028.151-.033,23.291,42.032,32.592,87.175,25.069,124.617-7,2.079-13.181,3.585-17.822,4.6A2.952,2.952,0,0,0,4435.319,2778.781Zm23.327,40.805c-4.082-7.3-8.5-21.984-10.1-37.67,0-.034-.016-.064-.021-.1q1.626-.433,3.341-.916Zm-21.935,8.265c-.3.328-.592.614-.871.864l2.1-44.31c1.507-.334,3.162-.717,4.937-1.147.025.225.048.445.075.676a2.871,2.871,0,0,0-.274,1.732C4442.729,2785.97,4447.305,2816.279,4436.711,2827.851Zm6.286,1.31a33.825,33.825,0,0,0,4.416-10.272l7.022,49.946C4449.655,2861.837,4444.34,2845.452,4443,2829.162Zm17.967,40.855c-.123.2-.274.43-.438.66a.431.431,0,0,0,0-.044l-6.762-48.094a18.642,18.642,0,0,0,5.44,6.337C4461.151,2834.844,4468.1,2858.325,4460.964,2870.017Zm4.563-48.123c-.158.277-.317.526-.475.76l-7.526-42.951a2.816,2.816,0,0,0-.12-.425c.9-.273,1.8-.551,2.721-.844.6-.191,1.228-.4,1.846-.6a2.868,2.868,0,0,0,.145,1.594c.088.225,6.941,17.865,6.116,32.028a2.866,2.866,0,0,0-.065.857A23.029,23.029,0,0,1,4465.527,2821.894Zm48.872-20.068-18.93-38.308c.708-.394,1.409-.808,2.112-1.215a2.85,2.85,0,0,0,.572,1.235C4498.343,2763.772,4516.573,2786.481,4514.4,2801.826Zm-11.69-42.628q1.66-1.064,3.281-2.183L4534.6,2790.8c-7.007-1.838-21.557-15.156-30.92-30.641A2.875,2.875,0,0,0,4502.709,2759.2Zm6.236,44.637c-5.682-4.921-15.081-18.247-22.6-35.643q2.008-.954,4.017-1.972Zm-19.013,9.513-13.755-40.693q2.432-.984,4.907-2.06c.189.435.4.9.62,1.4a2.874,2.874,0,0,0,.271.9C4482.108,2773.155,4494.915,2798.734,4489.933,2813.347Zm-5.118,2.907c-5.025-4.652-12.479-21.247-16.117-39.616a2.855,2.855,0,0,0-.4-.978c.821-.3,1.646-.6,2.484-.909Zm-18.368,12.989a11.6,11.6,0,0,0,4.095-4.473c.1-.172.18-.354.274-.529l9.338,41.405C4475.6,2860.394,4469.582,2845.722,4466.447,2829.244Zm19.306,34.952-11.8-52.332c.027-.458.054-.916.066-1.377,2.491,4.813,5.267,8.793,8.22,10.99a2.908,2.908,0,0,0,.065,1.156c.778,2.943,1.866,6.525,3.192,10.373C4487.621,2842.432,4489.433,2855.616,4485.752,2864.2Zm5.444-32.2c-.807-3.624-1.661-6.72-2.315-8.9a7.857,7.857,0,0,0,4.28-3.3l11.823,40.037C4500.849,2854.813,4495.483,2844.39,4491.2,2832Zm20,28.455-14.719-49.839a35.448,35.448,0,0,0,.339-4.983,2.811,2.811,0,0,0,.123.315c.075.149,2.332,4.513,5.8,10.569,1.01,2.25,2.03,4.635,3.011,7.106C4512.362,2840.274,4514.246,2853.009,4511.193,2860.454Zm-2.914-45.728c-1.052-2.37-2.092-4.584-3.077-6.6a17.9,17.9,0,0,0,4.331,2.813,2.859,2.859,0,0,0,.437,1.806l22.54,35.065C4527.271,2843.653,4517.446,2830.606,4508.279,2814.726Zm7.4-3.78a6.444,6.444,0,0,0,1.885-1.567c.247.278.6.677,1.053,1.212,1.157,1.5,2.4,3.047,3.724,4.625,5.046,6.6,12.141,17.347,13.343,26.848Zm11.71,1.344c-1.845-2.446-3.461-4.4-4.548-5.661q-1.417-1.862-2.761-3.768a28.255,28.255,0,0,0-.24-8.983l34.1,40.967C4548.69,2833.466,4537.478,2824.182,4527.394,2812.29Zm29.041,16.512-29.194-35.072a24.3,24.3,0,0,0,5.734,2.569,2.706,2.706,0,0,0,.194.2C4533.391,2796.677,4553.878,2813.772,4556.435,2828.8Zm-42.344-77.99a2.868,2.868,0,0,0,.976,1.448c.241.193,23.667,18.894,23.456,34.223l-27.856-32.9Q4512.415,2752.234,4514.09,2750.811ZM4479.1,2676.3c14.407,34.769,27.724,62.536,31.371,70.032a110.747,110.747,0,0,1-19,12.791,2.882,2.882,0,0,0-1.259.288,2.846,2.846,0,0,0-1.083.952,194.461,194.461,0,0,1-29.083,11.987c7.717-43.957-6.291-97.389-37.9-144.508-.006-.019,0-.039-.01-.058l-5.046-16.509c7.522-6.049,13.445-17.7,17.37-34.438,1.368-5.825,2.9-13.274,4.3-21.412q1.042,4.841,2.259,9.81a2.847,2.847,0,0,0-.773.184,2.888,2.888,0,0,0-1.587,3.765,131.006,131.006,0,0,0,7.505,15.314C4455.479,2616.773,4468.362,2650.373,4479.1,2676.3Zm-28.052-220.559c34.07,14.206,59.7,38.624,70.777,67.676,9.346,24.525,12.448,38.393,5.355,77.4-3.043,16.74-.789,42.235,6.911,59.079-28.317-13.44-63.436-44.273-82.553-77.6a379.581,379.581,0,0,1-9.567-40.649,2.888,2.888,0,0,0-.877-1.618c.6-4.58,1.11-9.2,1.492-13.728.185-2.193.324-4.278.44-6.308A204.859,204.859,0,0,0,4461,2570.232a2.89,2.89,0,0,0,5.148-2.628c-26.859-52.642-21.278-97.9-20.215-104.792A16.331,16.331,0,0,0,4451.051,2455.74Zm-8.627-17.38c-5.165-2.1-27.967-13.441-32.825-49.877,21.839,6.52,35.058,16.821,38.217,19.474A54.574,54.574,0,0,1,4442.424,2438.36Zm11.894-44.143c12.478,5.811,24.018,11,34.2,15.581,30.252,13.606,54.147,24.352,54.97,30.812.047.36.187,1.458-2.112,3.3-1.532,1.228-9.553,4.423-48.478-6.035-18.056-4.852-35.243-10.629-40.233-12.338a61.22,61.22,0,0,0,.706-19.553,2.9,2.9,0,0,0-.876-1.62c-1.371-1.277-34.253-31.25-93.124-26.723a2.887,2.887,0,0,0-2.127,1.2,72.28,72.28,0,0,0-6.084,11.208c-83.575-29.44-83.18-39.037-83.122-39.428,0-.008.4-.841,3.289-1.683C4290.693,2343.292,4388.432,2363.531,4454.318,2394.217Zm70.645-19.472c-12.24-1.1-24.894-2.235-36.689-2.553a121.163,121.163,0,0,0-42.648,6.141c-.016.006-.027.017-.042.023-.848-.556-1.759-1.135-2.76-1.737,14.478-5.366,37.064-10.523,65.837-6.816,39.038,5.032,65.418,6.282,81.873,6.3C4570.723,2378.852,4547.563,2376.773,4524.963,2374.745Z" transform="translate(4.829 0)" fill="#14152e"/>
    <path id="Path_33629" data-name="Path 33629" d="M4288.9,2419.125a2.889,2.889,0,0,0,.19-5.772c-5.014-.338-10.426-2.957-13.164-6.369a7.858,7.858,0,0,1-1.862-6.265,3.073,3.073,0,0,1,.657-1.792c1.123-.809,5.724-.031,11.048.872,1.842.312,3.891.659,6.167,1.013a2.89,2.89,0,0,0,.887-5.712c-2.248-.348-4.268-.69-6.088-1-2.239-.38-4.187-.708-5.909-.937l1.514-6.3a2.889,2.889,0,1,0-5.617-1.353l-1.565,6.508a2.879,2.879,0,0,0-.059.884,7.615,7.615,0,0,0-3.763,1.339,7.968,7.968,0,0,0-2.984,5.6,13.591,13.591,0,0,0,3.067,10.756c4.307,5.369,11.785,8.146,17.282,8.516C4288.763,2419.124,4288.83,2419.125,4288.9,2419.125Z" transform="translate(89.68 20.025)" fill="#14152e"/>
    <path id="Path_33630" data-name="Path 33630" d="M4303.581,2385.874l-10.842,1.488a2.89,2.89,0,0,0-.926,5.434l9.571,4.912a2.889,2.889,0,1,0,2.638-5.142l-1.414-.727,1.76-.241a2.889,2.889,0,1,0-.787-5.724Z" transform="translate(99.488 21.157)" fill="#14152e"/>
    <path id="Path_33631" data-name="Path 33631" d="M4306.48,2407.589a2.892,2.892,0,0,0-3.8,1.517c-2.164,5.052-12.348,9.653-18.161,8.2a2.889,2.889,0,1,0-1.4,5.606,15.713,15.713,0,0,0,3.8.439c8.216,0,18.259-5.386,21.08-11.965A2.888,2.888,0,0,0,4306.48,2407.589Z" transform="translate(95.347 30.726)" fill="#14152e"/>
    <path id="Path_33632" data-name="Path 33632" d="M4392.2,2490.942a2.89,2.89,0,0,0,5.517-1.725c-5.642-18.052-21.473-40.161-40.33-56.323a2.89,2.89,0,0,0-3.762,4.388C4371.72,2452.788,4386.861,2473.853,4392.2,2490.942Z" transform="translate(127.237 41.778)" fill="#14152e"/>
    <path id="Path_33633" data-name="Path 33633" d="M4257.034,2547.905a1.891,1.891,0,1,0,1.87,1.9A1.9,1.9,0,0,0,4257.034,2547.905Z" transform="translate(83.862 93.25)" fill="#14152e"/>
    <path id="Path_33634" data-name="Path 33634" d="M4260.165,2557.813a1.892,1.892,0,1,0,1.852,1.922A1.9,1.9,0,0,0,4260.165,2557.813Z" transform="translate(85.247 97.657)" fill="#14152e"/>
    <path id="Path_33635" data-name="Path 33635" d="M4254.062,2557.813a1.891,1.891,0,1,0,1.871,1.9A1.9,1.9,0,0,0,4254.062,2557.813Z" transform="translate(82.54 97.658)" fill="#14152e"/>
    <path id="Path_33636" data-name="Path 33636" d="M4257.034,2554.51a1.892,1.892,0,1,0,1.87,1.9A1.9,1.9,0,0,0,4257.034,2554.51Z" transform="translate(83.862 96.188)" fill="#14152e"/>
    <path id="Path_33637" data-name="Path 33637" d="M4269.186,2547.9a1.891,1.891,0,1,0,1.888,1.884A1.9,1.9,0,0,0,4269.186,2547.9Z" transform="translate(89.275 93.25)" fill="#14152e"/>
    <path id="Path_33638" data-name="Path 33638" d="M4260.165,2551.207a1.892,1.892,0,1,0,1.852,1.922A1.9,1.9,0,0,0,4260.165,2551.207Z" transform="translate(85.247 94.719)" fill="#14152e"/>
    <path id="Path_33639" data-name="Path 33639" d="M4269.186,2554.51a1.892,1.892,0,1,0,1.888,1.884A1.9,1.9,0,0,0,4269.186,2554.51Z" transform="translate(89.275 96.188)" fill="#14152e"/>
    <path id="Path_33640" data-name="Path 33640" d="M4269.186,2561.281a1.891,1.891,0,1,0,1.888,1.884A1.9,1.9,0,0,0,4269.186,2561.281Z" transform="translate(89.275 99.2)" fill="#14152e"/>
    <path id="Path_33641" data-name="Path 33641" d="M4260.165,2544.437a1.891,1.891,0,1,0,1.852,1.922A1.9,1.9,0,0,0,4260.165,2544.437Z" transform="translate(85.247 91.707)" fill="#14152e"/>
    <path id="Path_33642" data-name="Path 33642" d="M4263.137,2554.51a1.892,1.892,0,1,0,1.851,1.922A1.9,1.9,0,0,0,4263.137,2554.51Z" transform="translate(86.569 96.188)" fill="#14152e"/>
    <path id="Path_33643" data-name="Path 33643" d="M4263.137,2547.9a1.892,1.892,0,1,0,1.851,1.92A1.9,1.9,0,0,0,4263.137,2547.9Z" transform="translate(86.569 93.25)" fill="#14152e"/>
    <path id="Path_33644" data-name="Path 33644" d="M4308.914,2557.813a1.892,1.892,0,1,0,1.851,1.922A1.9,1.9,0,0,0,4308.914,2557.813Z" transform="translate(106.933 97.657)" fill="#14152e"/>
    <path id="Path_33645" data-name="Path 33645" d="M4299.631,2554.51a1.892,1.892,0,1,0,1.862,1.91A1.9,1.9,0,0,0,4299.631,2554.51Z" transform="translate(102.807 96.188)" fill="#14152e"/>
    <path id="Path_33646" data-name="Path 33646" d="M4299.631,2561.281a1.891,1.891,0,1,0,1.862,1.909A1.9,1.9,0,0,0,4299.631,2561.281Z" transform="translate(102.807 99.2)" fill="#14152e"/>
    <path id="Path_33647" data-name="Path 33647" d="M4293.558,2554.51a1.892,1.892,0,1,0,1.851,1.922A1.9,1.9,0,0,0,4293.558,2554.51Z" transform="translate(100.101 96.188)" fill="#14152e"/>
    <path id="Path_33648" data-name="Path 33648" d="M4293.558,2547.9a1.892,1.892,0,1,0,1.851,1.92A1.9,1.9,0,0,0,4293.558,2547.9Z" transform="translate(100.101 93.25)" fill="#14152e"/>
    <path id="Path_33649" data-name="Path 33649" d="M4293.558,2561.281a1.892,1.892,0,1,0,1.851,1.922A1.9,1.9,0,0,0,4293.558,2561.281Z" transform="translate(100.101 99.2)" fill="#14152e"/>
    <path id="Path_33650" data-name="Path 33650" d="M4296.657,2557.813a1.891,1.891,0,1,0,1.864,1.909A1.9,1.9,0,0,0,4296.657,2557.813Z" transform="translate(101.486 97.658)" fill="#14152e"/>
    <path id="Path_33651" data-name="Path 33651" d="M4296.657,2544.437a1.891,1.891,0,1,0,1.864,1.908A1.9,1.9,0,0,0,4296.657,2544.437Z" transform="translate(101.486 91.707)" fill="#14152e"/>
    <path id="Path_33652" data-name="Path 33652" d="M4296.657,2551.207a1.892,1.892,0,1,0,1.864,1.91A1.9,1.9,0,0,0,4296.657,2551.207Z" transform="translate(101.486 94.719)" fill="#14152e"/>
    <path id="Path_33653" data-name="Path 33653" d="M4317.972,2561.281a1.892,1.892,0,1,0,1.851,1.922A1.9,1.9,0,0,0,4317.972,2561.281Z" transform="translate(110.962 99.2)" fill="#14152e"/>
    <path id="Path_33654" data-name="Path 33654" d="M4317.972,2554.51a1.892,1.892,0,1,0,1.851,1.922A1.9,1.9,0,0,0,4317.972,2554.51Z" transform="translate(110.962 96.188)" fill="#14152e"/>
    <path id="Path_33655" data-name="Path 33655" d="M4321.04,2557.813a1.891,1.891,0,1,0,1.895,1.88A1.893,1.893,0,0,0,4321.04,2557.813Z" transform="translate(112.346 97.658)" fill="#14152e"/>
    <path id="Path_33656" data-name="Path 33656" d="M4324.013,2561.281a1.891,1.891,0,1,0,1.893,1.88A1.9,1.9,0,0,0,4324.013,2561.281Z" transform="translate(113.668 99.2)" fill="#14152e"/>
    <path id="Path_33657" data-name="Path 33657" d="M4315,2551.207a1.892,1.892,0,1,0,1.852,1.922A1.9,1.9,0,0,0,4315,2551.207Z" transform="translate(109.639 94.719)" fill="#14152e"/>
    <path id="Path_33658" data-name="Path 33658" d="M4311.887,2547.9a1.892,1.892,0,1,0,1.85,1.92A1.9,1.9,0,0,0,4311.887,2547.9Z" transform="translate(108.255 93.25)" fill="#14152e"/>
    <path id="Path_33659" data-name="Path 33659" d="M4315,2557.813a1.891,1.891,0,1,0,1.852,1.922A1.9,1.9,0,0,0,4315,2557.813Z" transform="translate(109.639 97.657)" fill="#14152e"/>
    <path id="Path_33660" data-name="Path 33660" d="M4308.914,2544.437a1.891,1.891,0,1,0,1.851,1.922A1.9,1.9,0,0,0,4308.914,2544.437Z" transform="translate(106.933 91.707)" fill="#14152e"/>
    <path id="Path_33661" data-name="Path 33661" d="M4311.887,2561.281a1.892,1.892,0,1,0,1.85,1.922A1.9,1.9,0,0,0,4311.887,2561.281Z" transform="translate(108.255 99.2)" fill="#14152e"/>
    <path id="Path_33662" data-name="Path 33662" d="M4308.914,2551.207a1.892,1.892,0,1,0,1.851,1.922A1.9,1.9,0,0,0,4308.914,2551.207Z" transform="translate(106.933 94.719)" fill="#14152e"/>
    <path id="Path_33663" data-name="Path 33663" d="M4311.887,2554.51a1.892,1.892,0,1,0,1.85,1.922A1.9,1.9,0,0,0,4311.887,2554.51Z" transform="translate(108.255 96.188)" fill="#14152e"/>
    <path id="Path_33664" data-name="Path 33664" d="M4299.631,2547.905a1.891,1.891,0,1,0,1.862,1.909A1.9,1.9,0,0,0,4299.631,2547.905Z" transform="translate(102.807 93.25)" fill="#14152e"/>
    <path id="Path_33665" data-name="Path 33665" d="M4272.292,2557.813a1.891,1.891,0,1,0,1.893,1.88A1.9,1.9,0,0,0,4272.292,2557.813Z" transform="translate(90.659 97.658)" fill="#14152e"/>
    <path id="Path_33666" data-name="Path 33666" d="M4275.264,2561.281a1.891,1.891,0,1,0,1.894,1.88A1.9,1.9,0,0,0,4275.264,2561.281Z" transform="translate(91.981 99.2)" fill="#14152e"/>
    <path id="Path_33667" data-name="Path 33667" d="M4272.292,2551.207a1.892,1.892,0,1,0,1.893,1.88A1.9,1.9,0,0,0,4272.292,2551.207Z" transform="translate(90.659 94.719)" fill="#14152e"/>
    <path id="Path_33668" data-name="Path 33668" d="M4272.292,2544.437a1.891,1.891,0,1,0,1.893,1.88A1.9,1.9,0,0,0,4272.292,2544.437Z" transform="translate(90.659 91.707)" fill="#14152e"/>
    <path id="Path_33669" data-name="Path 33669" d="M4275.264,2554.51a1.892,1.892,0,1,0,1.894,1.88A1.9,1.9,0,0,0,4275.264,2554.51Z" transform="translate(91.981 96.188)" fill="#14152e"/>
    <path id="Path_33670" data-name="Path 33670" d="M4275.264,2547.9a1.891,1.891,0,1,0,1.894,1.878A1.9,1.9,0,0,0,4275.264,2547.9Z" transform="translate(91.981 93.25)" fill="#14152e"/>
    <path id="Path_33671" data-name="Path 33671" d="M4263.137,2561.281a1.891,1.891,0,1,0,1.851,1.922A1.9,1.9,0,0,0,4263.137,2561.281Z" transform="translate(86.569 99.2)" fill="#14152e"/>
    <path id="Path_33672" data-name="Path 33672" d="M4278.405,2557.813a1.891,1.891,0,1,0,1.862,1.909A1.9,1.9,0,0,0,4278.405,2557.813Z" transform="translate(93.366 97.658)" fill="#14152e"/>
    <path id="Path_33673" data-name="Path 33673" d="M4257.034,2561.281a1.891,1.891,0,1,0,1.87,1.9A1.9,1.9,0,0,0,4257.034,2561.281Z" transform="translate(83.862 99.2)" fill="#14152e"/>
    <path id="Path_33674" data-name="Path 33674" d="M4250.958,2561.281a1.891,1.891,0,1,0,1.861,1.909A1.9,1.9,0,0,0,4250.958,2561.281Z" transform="translate(81.155 99.2)" fill="#14152e"/>
    <path id="Path_33675" data-name="Path 33675" d="M4266.212,2544.437a1.891,1.891,0,1,0,1.888,1.884A1.9,1.9,0,0,0,4266.212,2544.437Z" transform="translate(87.953 91.707)" fill="#14152e"/>
    <path id="Path_33676" data-name="Path 33676" d="M4266.212,2557.813a1.891,1.891,0,1,0,1.888,1.884A1.9,1.9,0,0,0,4266.212,2557.813Z" transform="translate(87.953 97.658)" fill="#14152e"/>
    <path id="Path_33677" data-name="Path 33677" d="M4266.212,2551.207a1.892,1.892,0,1,0,1.888,1.884A1.9,1.9,0,0,0,4266.212,2551.207Z" transform="translate(87.953 94.719)" fill="#14152e"/>
    <path id="Path_33678" data-name="Path 33678" d="M4284.482,2544.437a1.891,1.891,0,1,0,1.871,1.9A1.9,1.9,0,0,0,4284.482,2544.437Z" transform="translate(96.072 91.707)" fill="#14152e"/>
    <path id="Path_33679" data-name="Path 33679" d="M4287.454,2554.51a1.892,1.892,0,1,0,1.872,1.9A1.9,1.9,0,0,0,4287.454,2554.51Z" transform="translate(97.395 96.188)" fill="#14152e"/>
    <path id="Path_33680" data-name="Path 33680" d="M4287.454,2547.905a1.891,1.891,0,1,0,1.872,1.9A1.9,1.9,0,0,0,4287.454,2547.905Z" transform="translate(97.395 93.25)" fill="#14152e"/>
    <path id="Path_33681" data-name="Path 33681" d="M4287.454,2561.281a1.891,1.891,0,1,0,1.872,1.9A1.9,1.9,0,0,0,4287.454,2561.281Z" transform="translate(97.395 99.2)" fill="#14152e"/>
    <path id="Path_33682" data-name="Path 33682" d="M4290.585,2551.207a1.892,1.892,0,1,0,1.851,1.922A1.9,1.9,0,0,0,4290.585,2551.207Z" transform="translate(98.779 94.719)" fill="#14152e"/>
    <path id="Path_33683" data-name="Path 33683" d="M4278.405,2551.207a1.892,1.892,0,1,0,1.862,1.91A1.9,1.9,0,0,0,4278.405,2551.207Z" transform="translate(93.366 94.719)" fill="#14152e"/>
    <path id="Path_33684" data-name="Path 33684" d="M4290.585,2557.813a1.891,1.891,0,1,0,1.851,1.922A1.9,1.9,0,0,0,4290.585,2557.813Z" transform="translate(98.779 97.657)" fill="#14152e"/>
    <path id="Path_33685" data-name="Path 33685" d="M4281.377,2554.51a1.892,1.892,0,1,0,1.865,1.91A1.9,1.9,0,0,0,4281.377,2554.51Z" transform="translate(94.689 96.188)" fill="#14152e"/>
    <path id="Path_33686" data-name="Path 33686" d="M4290.585,2544.437a1.891,1.891,0,1,0,1.851,1.922A1.9,1.9,0,0,0,4290.585,2544.437Z" transform="translate(98.779 91.707)" fill="#14152e"/>
    <path id="Path_33687" data-name="Path 33687" d="M4281.377,2561.281a1.891,1.891,0,1,0,1.865,1.909A1.9,1.9,0,0,0,4281.377,2561.281Z" transform="translate(94.689 99.2)" fill="#14152e"/>
    <path id="Path_33688" data-name="Path 33688" d="M4284.482,2551.207a1.892,1.892,0,1,0,1.871,1.9A1.9,1.9,0,0,0,4284.482,2551.207Z" transform="translate(96.072 94.719)" fill="#14152e"/>
    <path id="Path_33689" data-name="Path 33689" d="M4278.405,2544.437a1.891,1.891,0,1,0,1.862,1.908A1.9,1.9,0,0,0,4278.405,2544.437Z" transform="translate(93.366 91.707)" fill="#14152e"/>
    <path id="Path_33690" data-name="Path 33690" d="M4284.482,2557.813a1.891,1.891,0,1,0,1.871,1.9A1.9,1.9,0,0,0,4284.482,2557.813Z" transform="translate(96.072 97.658)" fill="#14152e"/>
    <path id="Path_33691" data-name="Path 33691" d="M4281.377,2547.905a1.891,1.891,0,1,0,1.865,1.909A1.9,1.9,0,0,0,4281.377,2547.905Z" transform="translate(94.689 93.25)" fill="#14152e"/>
    <path id="Path_33692" data-name="Path 33692" d="M4177.411,2678.518a1.993,1.993,0,1,0-2.021-1.955A2,2,0,0,0,4177.411,2678.518Z" transform="translate(48.396 149.58)" fill="#14152e"/>
    <path id="Path_33693" data-name="Path 33693" d="M4171.7,2674.532a1.993,1.993,0,1,0,1.991,1.984A2,2,0,0,0,4171.7,2674.532Z" transform="translate(45.864 149.58)" fill="#14152e"/>
    <path id="Path_33694" data-name="Path 33694" d="M4166.01,2674.532a1.993,1.993,0,1,0,1.99,1.984A2,2,0,0,0,4166.01,2674.532Z" transform="translate(43.333 149.58)" fill="#14152e"/>
    <path id="Path_33695" data-name="Path 33695" d="M4160.32,2674.532a1.993,1.993,0,1,0,1.99,1.984A2,2,0,0,0,4160.32,2674.532Z" transform="translate(40.801 149.58)" fill="#14152e"/>
    <path id="Path_33696" data-name="Path 33696" d="M4154.627,2674.532a1.993,1.993,0,1,0,1.991,1.984A2,2,0,0,0,4154.627,2674.532Z" transform="translate(38.269 149.58)" fill="#14152e"/>
    <path id="Path_33697" data-name="Path 33697" d="M4148.937,2674.532a1.993,1.993,0,1,0,1.991,1.984A2,2,0,0,0,4148.937,2674.532Z" transform="translate(35.738 149.58)" fill="#14152e"/>
    <path id="Path_33698" data-name="Path 33698" d="M4180.313,2682.808a1.993,1.993,0,1,0-2.021-1.955A2,2,0,0,0,4180.313,2682.808Z" transform="translate(49.686 151.489)" fill="#14152e"/>
    <path id="Path_33699" data-name="Path 33699" d="M4174.621,2682.808a1.993,1.993,0,1,0-2.02-1.955A2,2,0,0,0,4174.621,2682.808Z" transform="translate(47.155 151.489)" fill="#14152e"/>
    <path id="Path_33700" data-name="Path 33700" d="M4168.911,2678.822a1.993,1.993,0,1,0,1.991,1.984A2,2,0,0,0,4168.911,2678.822Z" transform="translate(44.623 151.489)" fill="#14152e"/>
    <path id="Path_33701" data-name="Path 33701" d="M4163.22,2678.822a1.993,1.993,0,1,0,1.99,1.984A2,2,0,0,0,4163.22,2678.822Z" transform="translate(42.092 151.489)" fill="#14152e"/>
    <path id="Path_33702" data-name="Path 33702" d="M4157.53,2678.822a1.993,1.993,0,1,0,1.99,1.984A2,2,0,0,0,4157.53,2678.822Z" transform="translate(39.56 151.489)" fill="#14152e"/>
    <path id="Path_33703" data-name="Path 33703" d="M4151.838,2678.822a1.993,1.993,0,1,0,1.991,1.984A2,2,0,0,0,4151.838,2678.822Z" transform="translate(37.028 151.489)" fill="#14152e"/>
    <path id="Path_33704" data-name="Path 33704" d="M4177.411,2670.091a1.992,1.992,0,1,0-2.021-1.955A2,2,0,0,0,4177.411,2670.091Z" transform="translate(48.396 145.832)" fill="#14152e"/>
    <path id="Path_33705" data-name="Path 33705" d="M4171.7,2666.106a1.992,1.992,0,1,0,1.991,1.982A2,2,0,0,0,4171.7,2666.106Z" transform="translate(45.864 145.832)" fill="#14152e"/>
    <path id="Path_33706" data-name="Path 33706" d="M4166.01,2666.106a1.992,1.992,0,1,0,1.99,1.982A2,2,0,0,0,4166.01,2666.106Z" transform="translate(43.333 145.832)" fill="#14152e"/>
    <path id="Path_33707" data-name="Path 33707" d="M4160.32,2666.106a1.992,1.992,0,1,0,1.99,1.982A2,2,0,0,0,4160.32,2666.106Z" transform="translate(40.801 145.832)" fill="#14152e"/>
    <path id="Path_33708" data-name="Path 33708" d="M4154.627,2666.106a1.992,1.992,0,1,0,1.991,1.982A2,2,0,0,0,4154.627,2666.106Z" transform="translate(38.269 145.832)" fill="#14152e"/>
    <path id="Path_33709" data-name="Path 33709" d="M4180.313,2674.38a1.992,1.992,0,1,0-2.021-1.955A2,2,0,0,0,4180.313,2674.38Z" transform="translate(49.686 147.74)" fill="#14152e"/>
    <path id="Path_33710" data-name="Path 33710" d="M4174.621,2674.38a1.992,1.992,0,1,0-2.02-1.955A2,2,0,0,0,4174.621,2674.38Z" transform="translate(47.155 147.74)" fill="#14152e"/>
    <path id="Path_33711" data-name="Path 33711" d="M4168.911,2670.4a1.992,1.992,0,1,0,1.991,1.982A2,2,0,0,0,4168.911,2670.4Z" transform="translate(44.623 147.74)" fill="#14152e"/>
    <path id="Path_33712" data-name="Path 33712" d="M4163.22,2670.4a1.992,1.992,0,1,0,1.99,1.982A2,2,0,0,0,4163.22,2670.4Z" transform="translate(42.092 147.74)" fill="#14152e"/>
    <path id="Path_33713" data-name="Path 33713" d="M4157.53,2670.4a1.992,1.992,0,1,0,1.99,1.982A2,2,0,0,0,4157.53,2670.4Z" transform="translate(39.56 147.74)" fill="#14152e"/>
    <path id="Path_33714" data-name="Path 33714" d="M4151.838,2670.4a1.992,1.992,0,1,0,1.991,1.982A2,2,0,0,0,4151.838,2670.4Z" transform="translate(37.028 147.74)" fill="#14152e"/>
    <path id="Path_33715" data-name="Path 33715" d="M4180.313,2665.955a1.993,1.993,0,1,0-2.021-1.955A2,2,0,0,0,4180.313,2665.955Z" transform="translate(49.686 143.992)" fill="#14152e"/>
    <path id="Path_33716" data-name="Path 33716" d="M4174.621,2665.955a1.993,1.993,0,1,0-2.02-1.955A2,2,0,0,0,4174.621,2665.955Z" transform="translate(47.155 143.992)" fill="#14152e"/>
    <path id="Path_33717" data-name="Path 33717" d="M4168.911,2661.97a1.992,1.992,0,1,0,1.991,1.982A2,2,0,0,0,4168.911,2661.97Z" transform="translate(44.623 143.992)" fill="#14152e"/>
    <path id="Path_33718" data-name="Path 33718" d="M4209.226,2647.508a2,2,0,1,0-2.032-2A2,2,0,0,0,4209.226,2647.508Z" transform="translate(62.544 135.782)" fill="#14152e"/>
    <path id="Path_33719" data-name="Path 33719" d="M4209.177,2649.207a2,2,0,1,0,2,1.971A2,2,0,0,0,4209.177,2649.207Z" transform="translate(62.544 138.314)" fill="#14152e"/>
    <path id="Path_33720" data-name="Path 33720" d="M4209.177,2654.9a2,2,0,1,0,2,1.971A2,2,0,0,0,4209.177,2654.9Z" transform="translate(62.544 140.846)" fill="#14152e"/>
    <path id="Path_33721" data-name="Path 33721" d="M4209.177,2660.589a2,2,0,1,0,2,1.97A2,2,0,0,0,4209.177,2660.589Z" transform="translate(62.544 143.378)" fill="#14152e"/>
    <path id="Path_33722" data-name="Path 33722" d="M4213.515,2650.3a2,2,0,1,0-2.03-2A2,2,0,0,0,4213.515,2650.3Z" transform="translate(64.453 137.024)" fill="#14152e"/>
    <path id="Path_33723" data-name="Path 33723" d="M4213.515,2655.989a2,2,0,1,0-2.03-2A2,2,0,0,0,4213.515,2655.989Z" transform="translate(64.453 139.556)" fill="#14152e"/>
    <path id="Path_33724" data-name="Path 33724" d="M4213.515,2661.68a2,2,0,1,0-2.03-2A2,2,0,0,0,4213.515,2661.68Z" transform="translate(64.453 142.087)" fill="#14152e"/>
    <path id="Path_33725" data-name="Path 33725" d="M4217.65,2653.2a2,2,0,1,0-2.03-2A2,2,0,0,0,4217.65,2653.2Z" transform="translate(66.293 138.314)" fill="#14152e"/>
    <path id="Path_33726" data-name="Path 33726" d="M4217.65,2658.89a2,2,0,1,0-2.03-2A2,2,0,0,0,4217.65,2658.89Z" transform="translate(66.293 140.846)" fill="#14152e"/>
    <path id="Path_33727" data-name="Path 33727" d="M4217.65,2664.58a2,2,0,1,0-2.03-2A2,2,0,0,0,4217.65,2664.58Z" transform="translate(66.293 143.378)" fill="#14152e"/>
    <path id="Path_33728" data-name="Path 33728" d="M4221.94,2661.68a2,2,0,1,0-2.029-2A2,2,0,0,0,4221.94,2661.68Z" transform="translate(68.201 142.087)" fill="#14152e"/>
    <path id="Path_33729" data-name="Path 33729" d="M4200.751,2637.825a2,2,0,1,0,2,1.971A2,2,0,0,0,4200.751,2637.825Z" transform="translate(58.797 133.252)" fill="#14152e"/>
    <path id="Path_33730" data-name="Path 33730" d="M4200.751,2643.516a2,2,0,1,0,2,1.972A2,2,0,0,0,4200.751,2643.516Z" transform="translate(58.797 135.782)" fill="#14152e"/>
    <path id="Path_33731" data-name="Path 33731" d="M4200.751,2649.207a2,2,0,1,0,2,1.971A2,2,0,0,0,4200.751,2649.207Z" transform="translate(58.797 138.314)" fill="#14152e"/>
    <path id="Path_33732" data-name="Path 33732" d="M4200.751,2654.9a2,2,0,1,0,2,1.971A2,2,0,0,0,4200.751,2654.9Z" transform="translate(58.797 140.846)" fill="#14152e"/>
    <path id="Path_33733" data-name="Path 33733" d="M4200.751,2660.589a2,2,0,1,0,2,1.97A2,2,0,0,0,4200.751,2660.589Z" transform="translate(58.797 143.378)" fill="#14152e"/>
    <path id="Path_33734" data-name="Path 33734" d="M4205.042,2640.616a2,2,0,1,0,2,1.971A2,2,0,0,0,4205.042,2640.616Z" transform="translate(60.705 134.493)" fill="#14152e"/>
    <path id="Path_33735" data-name="Path 33735" d="M4205.042,2646.306a2,2,0,1,0,2,1.972A2,2,0,0,0,4205.042,2646.306Z" transform="translate(60.705 137.024)" fill="#14152e"/>
    <path id="Path_33736" data-name="Path 33736" d="M4205.042,2652a2,2,0,1,0,2,1.971A2,2,0,0,0,4205.042,2652Z" transform="translate(60.705 139.556)" fill="#14152e"/>
    <path id="Path_33737" data-name="Path 33737" d="M4205.042,2657.688a2,2,0,1,0,2,1.971A2,2,0,0,0,4205.042,2657.688Z" transform="translate(60.705 142.087)" fill="#14152e"/>
    <path id="Path_33738" data-name="Path 33738" d="M4205.042,2663.379a2,2,0,1,0,2,1.971A2,2,0,0,0,4205.042,2663.379Z" transform="translate(60.705 144.619)" fill="#14152e"/>
    <path id="Path_33739" data-name="Path 33739" d="M4196.614,2640.616a2,2,0,1,0,2,1.971A2,2,0,0,0,4196.614,2640.616Z" transform="translate(56.956 134.493)" fill="#14152e"/>
    <path id="Path_33740" data-name="Path 33740" d="M4196.614,2646.306a2,2,0,1,0,2,1.972A2,2,0,0,0,4196.614,2646.306Z" transform="translate(56.956 137.024)" fill="#14152e"/>
    <path id="Path_33741" data-name="Path 33741" d="M4233.639,2684.733a2,2,0,1,0,2,1.971A2,2,0,0,0,4233.639,2684.733Z" transform="translate(73.427 154.118)" fill="#14152e"/>
    <path id="Path_33742" data-name="Path 33742" d="M4233.639,2690.423a2,2,0,1,0,2,1.972A2,2,0,0,0,4233.639,2690.423Z" transform="translate(73.427 156.649)" fill="#14152e"/>
    <path id="Path_33743" data-name="Path 33743" d="M4233.639,2696.114a2,2,0,1,0,2,1.972A2,2,0,0,0,4233.639,2696.114Z" transform="translate(73.427 159.181)" fill="#14152e"/>
    <path id="Path_33744" data-name="Path 33744" d="M4233.639,2701.8a2,2,0,1,0,2,1.971A2,2,0,0,0,4233.639,2701.8Z" transform="translate(73.427 161.713)" fill="#14152e"/>
    <path id="Path_33745" data-name="Path 33745" d="M4237.929,2687.522a2,2,0,1,0,2,1.972A2,2,0,0,0,4237.929,2687.522Z" transform="translate(75.335 155.358)" fill="#14152e"/>
    <path id="Path_33746" data-name="Path 33746" d="M4237.929,2693.213a2,2,0,1,0,2,1.972A2,2,0,0,0,4237.929,2693.213Z" transform="translate(75.335 157.89)" fill="#14152e"/>
    <path id="Path_33747" data-name="Path 33747" d="M4225.213,2684.733a2,2,0,1,0,2,1.971A2,2,0,0,0,4225.213,2684.733Z" transform="translate(69.677 154.118)" fill="#14152e"/>
    <path id="Path_33748" data-name="Path 33748" d="M4225.213,2690.423a2,2,0,1,0,2,1.972A2,2,0,0,0,4225.213,2690.423Z" transform="translate(69.677 156.649)" fill="#14152e"/>
    <path id="Path_33749" data-name="Path 33749" d="M4225.213,2696.114a2,2,0,1,0,2,1.972A2,2,0,0,0,4225.213,2696.114Z" transform="translate(69.677 159.181)" fill="#14152e"/>
    <path id="Path_33750" data-name="Path 33750" d="M4229.5,2687.522a2,2,0,1,0,2,1.972A2,2,0,0,0,4229.5,2687.522Z" transform="translate(71.587 155.358)" fill="#14152e"/>
    <path id="Path_33751" data-name="Path 33751" d="M4229.5,2693.213a2,2,0,1,0,2,1.972A2,2,0,0,0,4229.5,2693.213Z" transform="translate(71.587 157.89)" fill="#14152e"/>
    <path id="Path_33752" data-name="Path 33752" d="M4229.5,2698.9a2,2,0,1,0,2,1.971A2,2,0,0,0,4229.5,2698.9Z" transform="translate(71.587 160.422)" fill="#14152e"/>
    <path id="Path_33753" data-name="Path 33753" d="M4229.5,2704.595a2,2,0,1,0,2,1.971A2,2,0,0,0,4229.5,2704.595Z" transform="translate(71.587 162.954)" fill="#14152e"/>
    <path id="Path_33754" data-name="Path 33754" d="M4262.106,2636.616a2,2,0,1,0-1.983-1.991A2,2,0,0,0,4262.106,2636.616Z" transform="translate(86.089 130.937)" fill="#14152e"/>
    <path id="Path_33755" data-name="Path 33755" d="M4262.106,2630.925a2,2,0,1,0-1.983-1.991A2,2,0,0,0,4262.106,2630.925Z" transform="translate(86.089 128.406)" fill="#14152e"/>
    <path id="Path_33756" data-name="Path 33756" d="M4262.106,2625.235a2,2,0,1,0-1.983-1.991A2,2,0,0,0,4262.106,2625.235Z" transform="translate(86.089 125.874)" fill="#14152e"/>
    <path id="Path_33757" data-name="Path 33757" d="M4262.106,2619.544a2,2,0,1,0-1.983-1.991A2,2,0,0,0,4262.106,2619.544Z" transform="translate(86.089 123.343)" fill="#14152e"/>
    <path id="Path_33758" data-name="Path 33758" d="M4262.106,2613.853a2,2,0,1,0-1.983-1.991A2,2,0,0,0,4262.106,2613.853Z" transform="translate(86.089 120.812)" fill="#14152e"/>
    <path id="Path_33759" data-name="Path 33759" d="M4262.106,2608.162a2,2,0,1,0-1.983-1.991A2,2,0,0,0,4262.106,2608.162Z" transform="translate(86.089 118.28)" fill="#14152e"/>
    <path id="Path_33760" data-name="Path 33760" d="M4253.68,2630.925a2,2,0,1,0-1.984-1.991A2,2,0,0,0,4253.68,2630.925Z" transform="translate(82.342 128.406)" fill="#14152e"/>
    <path id="Path_33761" data-name="Path 33761" d="M4253.68,2625.235a2,2,0,1,0-1.984-1.991A2,2,0,0,0,4253.68,2625.235Z" transform="translate(82.342 125.874)" fill="#14152e"/>
    <path id="Path_33762" data-name="Path 33762" d="M4253.68,2619.544a2,2,0,1,0-1.984-1.991A2,2,0,0,0,4253.68,2619.544Z" transform="translate(82.342 123.343)" fill="#14152e"/>
    <path id="Path_33763" data-name="Path 33763" d="M4257.971,2633.825a2,2,0,1,0-1.984-1.991A2,2,0,0,0,4257.971,2633.825Z" transform="translate(84.25 129.696)" fill="#14152e"/>
    <path id="Path_33764" data-name="Path 33764" d="M4257.971,2628.136a2,2,0,1,0-1.984-1.991A2,2,0,0,0,4257.971,2628.136Z" transform="translate(84.25 127.165)" fill="#14152e"/>
    <path id="Path_33765" data-name="Path 33765" d="M4262.106,2642.33a2,2,0,1,0-1.983-1.991A2,2,0,0,0,4262.106,2642.33Z" transform="translate(86.089 133.48)" fill="#14152e"/>
    <path id="Path_33766" data-name="Path 33766" d="M4266.4,2645.231a2,2,0,1,0-1.982-1.991A2,2,0,0,0,4266.4,2645.231Z" transform="translate(87.998 134.77)" fill="#14152e"/>
    <path id="Path_33767" data-name="Path 33767" d="M4266.4,2639.54a2,2,0,1,0-1.982-1.99A2,2,0,0,0,4266.4,2639.54Z" transform="translate(87.998 132.238)" fill="#14152e"/>
    <path id="Path_33768" data-name="Path 33768" d="M4257.971,2622.445a2,2,0,1,0-1.984-1.991A2,2,0,0,0,4257.971,2622.445Z" transform="translate(84.25 124.633)" fill="#14152e"/>
    <path id="Path_33769" data-name="Path 33769" d="M4257.971,2616.754a2,2,0,1,0-1.984-1.991A2,2,0,0,0,4257.971,2616.754Z" transform="translate(84.25 122.102)" fill="#14152e"/>
    <path id="Path_33770" data-name="Path 33770" d="M4257.971,2611.063a2,2,0,1,0-1.984-1.991A2,2,0,0,0,4257.971,2611.063Z" transform="translate(84.25 119.57)" fill="#14152e"/>
    <path id="Path_33771" data-name="Path 33771" d="M4257.971,2605.372a2,2,0,1,0-1.984-1.991A2,2,0,0,0,4257.971,2605.372Z" transform="translate(84.25 117.039)" fill="#14152e"/>
    <path id="Path_33772" data-name="Path 33772" d="M4119.816,2807.185a1.993,1.993,0,1,0,1.99,1.984A2,2,0,0,0,4119.816,2807.185Z" transform="translate(22.784 208.591)" fill="#14152e"/>
    <path id="Path_33773" data-name="Path 33773" d="M4116.916,2802.895a1.993,1.993,0,1,0,1.991,1.984A2,2,0,0,0,4116.916,2802.895Z" transform="translate(21.493 206.683)" fill="#14152e"/>
    <path id="Path_33774" data-name="Path 33774" d="M4122.607,2802.895a1.993,1.993,0,1,0,1.99,1.984A2,2,0,0,0,4122.607,2802.895Z" transform="translate(24.025 206.683)" fill="#14152e"/>
    <path id="Path_33775" data-name="Path 33775" d="M4125.507,2807.185a1.993,1.993,0,1,0,1.99,1.984A2,2,0,0,0,4125.507,2807.185Z" transform="translate(25.316 208.591)" fill="#14152e"/>
    <path id="Path_33776" data-name="Path 33776" d="M4108.435,2807.185a1.993,1.993,0,1,0,1.991,1.984A2,2,0,0,0,4108.435,2807.185Z" transform="translate(17.721 208.591)" fill="#14152e"/>
    <path id="Path_33777" data-name="Path 33777" d="M4111.225,2802.895a1.993,1.993,0,1,0,1.991,1.984A2,2,0,0,0,4111.225,2802.895Z" transform="translate(18.962 206.683)" fill="#14152e"/>
    <path id="Path_33778" data-name="Path 33778" d="M4114.125,2807.185a1.993,1.993,0,1,0,1.99,1.984A2,2,0,0,0,4114.125,2807.185Z" transform="translate(20.253 208.591)" fill="#14152e"/>
    <path id="Path_33779" data-name="Path 33779" d="M4139.68,2802.895a1.993,1.993,0,1,0,1.99,1.984A2,2,0,0,0,4139.68,2802.895Z" transform="translate(31.62 206.683)" fill="#14152e"/>
    <path id="Path_33780" data-name="Path 33780" d="M4136.889,2807.185a1.993,1.993,0,1,0,1.99,1.984A2,2,0,0,0,4136.889,2807.185Z" transform="translate(30.378 208.591)" fill="#14152e"/>
    <path id="Path_33781" data-name="Path 33781" d="M4145.37,2802.895a1.993,1.993,0,1,0,1.991,1.984A2,2,0,0,0,4145.37,2802.895Z" transform="translate(34.151 206.683)" fill="#14152e"/>
    <path id="Path_33782" data-name="Path 33782" d="M4142.58,2807.185a1.993,1.993,0,1,0,1.99,1.984A2,2,0,0,0,4142.58,2807.185Z" transform="translate(32.91 208.591)" fill="#14152e"/>
    <path id="Path_33783" data-name="Path 33783" d="M4128.3,2802.895a1.993,1.993,0,1,0,1.99,1.984A2,2,0,0,0,4128.3,2802.895Z" transform="translate(26.556 206.683)" fill="#14152e"/>
    <path id="Path_33784" data-name="Path 33784" d="M4105.534,2802.895a1.993,1.993,0,1,0,1.99,1.984A2,2,0,0,0,4105.534,2802.895Z" transform="translate(16.43 206.683)" fill="#14152e"/>
    <path id="Path_33785" data-name="Path 33785" d="M4133.988,2802.895a1.993,1.993,0,1,0,1.99,1.984A2,2,0,0,0,4133.988,2802.895Z" transform="translate(29.088 206.683)" fill="#14152e"/>
    <path id="Path_33786" data-name="Path 33786" d="M4131.2,2807.185a1.993,1.993,0,1,0,1.992,1.984A2,2,0,0,0,4131.2,2807.185Z" transform="translate(27.847 208.591)" fill="#14152e"/>
    <path id="Path_33787" data-name="Path 33787" d="M4077.08,2802.895a1.993,1.993,0,1,0,1.991,1.984A2,2,0,0,0,4077.08,2802.895Z" transform="translate(3.773 206.683)" fill="#14152e"/>
    <path id="Path_33788" data-name="Path 33788" d="M4074.29,2798.759a1.993,1.993,0,1,0,1.991,1.984A2,2,0,0,0,4074.29,2798.759Z" transform="translate(2.532 204.843)" fill="#14152e"/>
    <path id="Path_33789" data-name="Path 33789" d="M4077.08,2794.469a1.993,1.993,0,1,0,1.991,1.984A2,2,0,0,0,4077.08,2794.469Z" transform="translate(3.773 202.934)" fill="#14152e"/>
    <path id="Path_33790" data-name="Path 33790" d="M4079.981,2798.759a1.993,1.993,0,1,0,1.991,1.984A2,2,0,0,0,4079.981,2798.759Z" transform="translate(5.063 204.843)" fill="#14152e"/>
    <path id="Path_33791" data-name="Path 33791" d="M4102.744,2807.185a1.993,1.993,0,1,0,1.991,1.984A2,2,0,0,0,4102.744,2807.185Z" transform="translate(15.189 208.591)" fill="#14152e"/>
    <path id="Path_33792" data-name="Path 33792" d="M4082.771,2802.895a1.993,1.993,0,1,0,1.991,1.984A2,2,0,0,0,4082.771,2802.895Z" transform="translate(6.305 206.683)" fill="#14152e"/>
    <path id="Path_33793" data-name="Path 33793" d="M4148.27,2807.185a1.993,1.993,0,1,0,1.991,1.984A2,2,0,0,0,4148.27,2807.185Z" transform="translate(35.442 208.591)" fill="#14152e"/>
    <path id="Path_33794" data-name="Path 33794" d="M4068.6,2798.759a1.993,1.993,0,1,0,1.991,1.984A2,2,0,0,0,4068.6,2798.759Z" transform="translate(0 204.843)" fill="#14152e"/>
    <path id="Path_33795" data-name="Path 33795" d="M4071.389,2802.895a1.993,1.993,0,1,0,1.991,1.984A2,2,0,0,0,4071.389,2802.895Z" transform="translate(1.241 206.683)" fill="#14152e"/>
    <path id="Path_33796" data-name="Path 33796" d="M4094.151,2802.895a1.993,1.993,0,1,0,1.991,1.984A2,2,0,0,0,4094.151,2802.895Z" transform="translate(11.368 206.683)" fill="#14152e"/>
    <path id="Path_33797" data-name="Path 33797" d="M4097.052,2807.185a1.993,1.993,0,1,0,1.991,1.984A2,2,0,0,0,4097.052,2807.185Z" transform="translate(12.658 208.591)" fill="#14152e"/>
    <path id="Path_33798" data-name="Path 33798" d="M4085.672,2807.185a1.993,1.993,0,1,0,1.991,1.984A2,2,0,0,0,4085.672,2807.185Z" transform="translate(7.595 208.591)" fill="#14152e"/>
    <path id="Path_33799" data-name="Path 33799" d="M4099.843,2802.895a1.993,1.993,0,1,0,1.99,1.984A2,2,0,0,0,4099.843,2802.895Z" transform="translate(13.899 206.683)" fill="#14152e"/>
    <path id="Path_33800" data-name="Path 33800" d="M4085.672,2798.759a1.993,1.993,0,1,0,1.991,1.984A2,2,0,0,0,4085.672,2798.759Z" transform="translate(7.595 204.843)" fill="#14152e"/>
    <path id="Path_33801" data-name="Path 33801" d="M4088.461,2802.895a1.993,1.993,0,1,0,1.991,1.984A2,2,0,0,0,4088.461,2802.895Z" transform="translate(8.836 206.683)" fill="#14152e"/>
    <path id="Path_33802" data-name="Path 33802" d="M4091.363,2807.185a1.993,1.993,0,1,0,1.991,1.984A2,2,0,0,0,4091.363,2807.185Z" transform="translate(10.127 208.591)" fill="#14152e"/>
    <path id="Path_33803" data-name="Path 33803" d="M4165.341,2807.185a1.993,1.993,0,1,0,1.991,1.984A2,2,0,0,0,4165.341,2807.185Z" transform="translate(43.036 208.591)" fill="#14152e"/>
    <path id="Path_33804" data-name="Path 33804" d="M4188.106,2807.185a1.993,1.993,0,1,0,1.99,1.984A2,2,0,0,0,4188.106,2807.185Z" transform="translate(53.162 208.591)" fill="#14152e"/>
    <path id="Path_33805" data-name="Path 33805" d="M4190.9,2802.895a1.993,1.993,0,1,0,1.99,1.984A2,2,0,0,0,4190.9,2802.895Z" transform="translate(54.404 206.683)" fill="#14152e"/>
    <path id="Path_33806" data-name="Path 33806" d="M4193.8,2798.759a1.993,1.993,0,1,0,1.992,1.984A2,2,0,0,0,4193.8,2798.759Z" transform="translate(55.694 204.843)" fill="#14152e"/>
    <path id="Path_33807" data-name="Path 33807" d="M4193.8,2807.185a1.993,1.993,0,1,0,1.992,1.984A2,2,0,0,0,4193.8,2807.185Z" transform="translate(55.694 208.591)" fill="#14152e"/>
    <path id="Path_33808" data-name="Path 33808" d="M4185.2,2802.895a1.993,1.993,0,1,0,1.991,1.984A2,2,0,0,0,4185.2,2802.895Z" transform="translate(51.872 206.683)" fill="#14152e"/>
    <path id="Path_33809" data-name="Path 33809" d="M4182.415,2807.185a1.993,1.993,0,1,0,1.991,1.984A2,2,0,0,0,4182.415,2807.185Z" transform="translate(50.631 208.591)" fill="#14152e"/>
    <path id="Path_33810" data-name="Path 33810" d="M4182.415,2798.759a1.993,1.993,0,1,0,1.991,1.984A2,2,0,0,0,4182.415,2798.759Z" transform="translate(50.631 204.843)" fill="#14152e"/>
    <path id="Path_33811" data-name="Path 33811" d="M4207.968,2794.469a1.993,1.993,0,1,0,1.99,1.984A2,2,0,0,0,4207.968,2794.469Z" transform="translate(61.998 202.934)" fill="#14152e"/>
    <path id="Path_33812" data-name="Path 33812" d="M4179.514,2794.469a1.993,1.993,0,1,0,1.99,1.984A2,2,0,0,0,4179.514,2794.469Z" transform="translate(49.34 202.934)" fill="#14152e"/>
    <path id="Path_33813" data-name="Path 33813" d="M4210.868,2798.759a1.993,1.993,0,1,0,1.991,1.984A2,2,0,0,0,4210.868,2798.759Z" transform="translate(63.289 204.843)" fill="#14152e"/>
    <path id="Path_33814" data-name="Path 33814" d="M4207.968,2802.895a1.993,1.993,0,1,0,1.99,1.984A2,2,0,0,0,4207.968,2802.895Z" transform="translate(61.998 206.683)" fill="#14152e"/>
    <path id="Path_33815" data-name="Path 33815" d="M4196.585,2802.895a1.993,1.993,0,1,0,1.991,1.984A2,2,0,0,0,4196.585,2802.895Z" transform="translate(56.935 206.683)" fill="#14152e"/>
    <path id="Path_33816" data-name="Path 33816" d="M4199.487,2798.759a1.993,1.993,0,1,0,1.991,1.984A2,2,0,0,0,4199.487,2798.759Z" transform="translate(58.225 204.843)" fill="#14152e"/>
    <path id="Path_33817" data-name="Path 33817" d="M4205.178,2798.759a1.993,1.993,0,1,0,1.99,1.984A2,2,0,0,0,4205.178,2798.759Z" transform="translate(60.757 204.843)" fill="#14152e"/>
    <path id="Path_33818" data-name="Path 33818" d="M4202.278,2802.895a1.993,1.993,0,1,0,1.991,1.984A2,2,0,0,0,4202.278,2802.895Z" transform="translate(59.466 206.683)" fill="#14152e"/>
    <path id="Path_33819" data-name="Path 33819" d="M4171.033,2807.185a1.993,1.993,0,1,0,1.991,1.984A2,2,0,0,0,4171.033,2807.185Z" transform="translate(45.567 208.591)" fill="#14152e"/>
    <path id="Path_33820" data-name="Path 33820" d="M4159.653,2798.759a1.993,1.993,0,1,0,1.99,1.984A2,2,0,0,0,4159.653,2798.759Z" transform="translate(40.504 204.843)" fill="#14152e"/>
    <path id="Path_33821" data-name="Path 33821" d="M4168.132,2802.895a1.993,1.993,0,1,0,1.991,1.984A2,2,0,0,0,4168.132,2802.895Z" transform="translate(44.277 206.683)" fill="#14152e"/>
    <path id="Path_33822" data-name="Path 33822" d="M4165.341,2798.759a1.993,1.993,0,1,0,1.991,1.984A2,2,0,0,0,4165.341,2798.759Z" transform="translate(43.036 204.843)" fill="#14152e"/>
    <path id="Path_33823" data-name="Path 33823" d="M4162.442,2802.895a1.993,1.993,0,1,0,1.991,1.984A2,2,0,0,0,4162.442,2802.895Z" transform="translate(41.746 206.683)" fill="#14152e"/>
    <path id="Path_33824" data-name="Path 33824" d="M4159.653,2807.185a1.993,1.993,0,1,0,1.99,1.984A2,2,0,0,0,4159.653,2807.185Z" transform="translate(40.504 208.591)" fill="#14152e"/>
    <path id="Path_33825" data-name="Path 33825" d="M4153.961,2807.185a1.993,1.993,0,1,0,1.99,1.984A2,2,0,0,0,4153.961,2807.185Z" transform="translate(37.973 208.591)" fill="#14152e"/>
    <path id="Path_33826" data-name="Path 33826" d="M4156.75,2802.895a1.993,1.993,0,1,0,1.991,1.984A2,2,0,0,0,4156.75,2802.895Z" transform="translate(39.214 206.683)" fill="#14152e"/>
    <path id="Path_33827" data-name="Path 33827" d="M4171.033,2798.759a1.993,1.993,0,1,0,1.991,1.984A2,2,0,0,0,4171.033,2798.759Z" transform="translate(45.567 204.843)" fill="#14152e"/>
    <path id="Path_33828" data-name="Path 33828" d="M4173.822,2794.469a1.993,1.993,0,1,0,1.992,1.984A2,2,0,0,0,4173.822,2794.469Z" transform="translate(46.809 202.934)" fill="#14152e"/>
    <path id="Path_33829" data-name="Path 33829" d="M4176.724,2807.185a1.993,1.993,0,1,0,1.991,1.984A2,2,0,0,0,4176.724,2807.185Z" transform="translate(48.099 208.591)" fill="#14152e"/>
    <path id="Path_33830" data-name="Path 33830" d="M4168.132,2794.469a1.993,1.993,0,1,0,1.991,1.984A2,2,0,0,0,4168.132,2794.469Z" transform="translate(44.277 202.934)" fill="#14152e"/>
    <path id="Path_33831" data-name="Path 33831" d="M4176.724,2798.759a1.993,1.993,0,1,0,1.991,1.984A2,2,0,0,0,4176.724,2798.759Z" transform="translate(48.099 204.843)" fill="#14152e"/>
    <path id="Path_33832" data-name="Path 33832" d="M4151.06,2802.895a1.993,1.993,0,1,0,1.991,1.984A2,2,0,0,0,4151.06,2802.895Z" transform="translate(36.682 206.683)" fill="#14152e"/>
    <path id="Path_33833" data-name="Path 33833" d="M4173.822,2802.895a1.993,1.993,0,1,0,1.992,1.984A2,2,0,0,0,4173.822,2802.895Z" transform="translate(46.809 206.683)" fill="#14152e"/>
    <path id="Path_33834" data-name="Path 33834" d="M4179.514,2802.895a1.993,1.993,0,1,0,1.99,1.984A2,2,0,0,0,4179.514,2802.895Z" transform="translate(49.34 206.683)" fill="#14152e"/>
  </g>
</svg>
