<svg xmlns="http://www.w3.org/2000/svg" width="1920" height="605" viewBox="0 0 1920 605">
  <g id="byron-club-bg" transform="translate(13032 328.129)">
    <rect id="byron-club-bg-2" data-name="byron-club-bg" width="1920" height="605" transform="translate(-13032 -328.129)" fill="#bf423e"/>
    <path id="Path_55640" data-name="Path 55640" d="M786.74,827.94c-1.18,1.57-2.36,3.14-3.56,4.72-.69-.74-1.26-1.37-1.84-1.99-.08,1.38.41,2.84,1.14,2.98,2.86.52,5.32-.31,6.39-2.57-.93-1.34-1.62-2.33-2.3-3.31q2.62-.52,2.67-4.39c-2.67.54-1.68,3.06-2.51,4.55Z" transform="translate(-13030.13 -1006.124)" fill="rgba(20,21,46,0.32)"/>
    <path id="Path_55646" data-name="Path 55646" d="M1722.48,806.72c-.34,2.79-4.25,4.23-2.01,7.71C1726.58,811.53,1726.78,810.88,1722.48,806.72Z" transform="translate(-13030.13 -1006.124)" fill="rgba(20,21,46,0.32)"/>
    <path id="Path_55647" data-name="Path 55647" d="M1815.03,811.58c.44-3.17,4.24-4.55,2.07-7.75C1811.12,805.94,1810.84,806.67,1815.03,811.58Z" transform="translate(-13030.13 -1006.124)" fill="rgba(20,21,46,0.32)"/>
    <path id="Path_55659" data-name="Path 55659" d="M188.69,732.44c3.64,1.74,6.25,1.56,9.65.38Q194.26,730.78,188.69,732.44Z" transform="translate(-13030.13 -1006.124)" fill="rgba(20,21,46,0.32)"/>
    <path id="Path_55662" data-name="Path 55662" d="M443.24,780.35c3.37-.13,4.73,4.78,8.84,3.34C449.86,780.37,447.05,779.09,443.24,780.35Z" transform="translate(-13030.13 -1006.124)" fill="rgba(20,21,46,0.32)"/>
    <path id="Path_55665" data-name="Path 55665" d="M226.78,854.25c-4.45-1.32-4.78-1.2-8.48,3.87C221.67,856.58,224.37,855.35,226.78,854.25Z" transform="translate(-13030.13 -1057.718)" fill="rgba(20,21,46,0.32)"/>
    <path id="Path_55675" data-name="Path 55675" d="M585.8,790.28l.96-1.41c-1.78-1-2.59-3.92-6.55-2.2,2.21,1.43,3.9,2.52,5.59,3.62Z" transform="translate(-13030.13 -1006.124)" fill="rgba(20,21,46,0.32)"/>
    <path id="Path_55689" data-name="Path 55689" d="M869.99,862.89c.55-1.73.98-3.07,1.55-4.86-1.29-.14-2.23-.24-3.87-.42.9,2.06,1.54,3.52,2.31,5.28Z" transform="translate(-13030.13 -1058.959)" fill="rgba(20,21,46,0.32)"/>
    <path id="Path_55697" data-name="Path 55697" d="M909.12,857.11q.08-3.86-3.31-3.07C906.94,855.09,907.86,855.94,909.12,857.11Z" transform="translate(-13030.13 -1057.742)" fill="rgba(20,21,46,0.32)"/>
    <path id="Path_55698" data-name="Path 55698" d="M1538.29,817.15c.46-.31.92-.61,1.37-.92l-1.41-2.82c-.67.42-1.35.84-2.02,1.27C1536.92,815.5,1537.6,816.33,1538.29,817.15Z" transform="translate(-13030.13 -1006.124)" fill="rgba(20,21,46,0.32)"/>
    <path id="Path_55699" data-name="Path 55699" d="M1571.36,729c-.49-.26-.99-.51-1.48-.77-.59.9-1.19,1.8-1.78,2.7.72.34,1.43.69,2.15,1.03C1570.62,730.97,1570.99,729.99,1571.36,729Z" transform="translate(-13030.13 -1006.124)" fill="rgba(20,21,46,0.32)"/>
    <path id="Path_55702" data-name="Path 55702" d="M914.97,807.17c-.98,1.51-1.71,2.63-2.66,4.1C916.91,812.3,915.71,809.85,914.97,807.17Z" transform="translate(-13030.13 -1006.124)" fill="rgba(20,21,46,0.32)"/>
    <path id="Path_55703" data-name="Path 55703" d="M916.29,859.11c-.37.43-.75.86-1.12,1.3.89.76,1.78,1.52,2.66,2.28.25-.32.78-.84.72-.92-.7-.92-1.49-1.78-2.26-2.65Z" transform="translate(-13030.13 -1059.294)" fill="rgba(20,21,46,0.32)"/>
    <path id="Path_55733" data-name="Path 55733" d="M497.64,695.88c-.03-.48-.05-.97-.08-1.45a20.2,20.2,0,0,0-2.45.55c-.17.06-.15.69-.22,1.06l2.75-.15Z" transform="translate(-13030.13 -1006.124)" fill="rgba(20,21,46,0.32)"/>
    <path id="Path_55734" data-name="Path 55734" d="M785.81,696.78l-.9-1.26c-.75.55-1.52,1.08-2.23,1.67a2.776,2.776,0,0,0,.42.8c.92-.37,1.82-.8,2.72-1.22Z" transform="translate(-13030.13 -1006.124)" fill="rgba(20,21,46,0.32)"/>
    <path id="Path_55736" data-name="Path 55736" d="M1297.55,749.54l-1.05-.45c-.39,1.02-.79,2.03-1.18,3.05.27.12.53.23.8.35.48-.99.96-1.97,1.43-2.96Z" transform="translate(-13030.13 -1006.124)" fill="rgba(20,21,46,0.32)"/>
    <path id="Path_55737" data-name="Path 55737" d="M1421.89,793.78c.85.63,1.31,1.23,1.68,1.18a1.952,1.952,0,0,0,1.31-1.03c.12-.31-.54-1.31-.64-1.28a15.275,15.275,0,0,0-2.34,1.13Z" transform="translate(-13030.13 -1006.124)" fill="rgba(20,21,46,0.32)"/>
    <path id="Path_55740" data-name="Path 55740" d="M516.32,864.53c-.37-.09-.73-.17-1.1-.26-.3,1.09-.6,2.18-.89,3.27.41.09.81.19,1.22.28.26-1.1.51-2.2.77-3.3Z" transform="translate(-13030.13 -1060.808)" fill="rgba(20,21,46,0.32)"/>
    <path id="Path_55759" data-name="Path 55759" d="M1108.46,735.28l.33,1.05,2.82-1.05c-.12-.33-.24-.66-.35-.98l-2.79.99Z" transform="translate(-13030.13 -1006.124)" fill="rgba(20,21,46,0.32)"/>
    <path id="Path_55760" data-name="Path 55760" d="M1439.47,774.57c.66-1.12,1.1-1.64,1.01-1.76a10.179,10.179,0,0,0-1.41-1.37c.1.8.2,1.61.4,3.12Z" transform="translate(-13030.13 -1006.124)" fill="rgba(20,21,46,0.32)"/>
    <path id="Path_55761" data-name="Path 55761" d="M833.92,776.08c-.25-.46-.52-.97-.79-1.48-.36.35-1.05.76-1,1.05.08.48.63.89.98,1.33.24-.26.47-.53.81-.91Z" transform="translate(-13030.13 -1006.124)" fill="rgba(20,21,46,0.32)"/>
    <path id="Path_55763" data-name="Path 55763" d="M1491.04,800.18c-.25-.4-.54-.86-.83-1.32-.23.24-.69.53-.65.7a7.034,7.034,0,0,0,.69,1.44C1490.47,800.77,1490.7,800.53,1491.04,800.18Z" transform="translate(-13030.13 -1006.124)" fill="rgba(20,21,46,0.32)"/>
    <path id="Path_55767" data-name="Path 55767" d="M764.64,846.77c-.28-.39-.57-.78-.85-1.17l-2.27,1.73.48.75C762.88,847.64,763.76,847.21,764.64,846.77Z" transform="translate(-13030.13 -1006.124)" fill="rgba(20,21,46,0.32)"/>
    <path id="Path_55770" data-name="Path 55770" d="M1670.41,862.83a19.948,19.948,0,0,0-1.99-.73,2.421,2.421,0,0,0-.43.9,19.288,19.288,0,0,0,1.82,1.16c.15-.33.3-.67.6-1.33Z" transform="translate(-13030.13 -1060.076)" fill="rgba(20,21,46,0.32)"/>
    <path id="Path_55784" data-name="Path 55784" d="M1702.21,681.98c-.43-.36-.84-.84-.97-.77a8.175,8.175,0,0,0-1.38,1.06c.4.32.89.96,1.18.87.46-.13.78-.74,1.17-1.16Z" transform="translate(-13030.13 -1006.124)" fill="rgba(20,21,46,0.32)"/>
    <path id="Path_55786" data-name="Path 55786" d="M630.8,700.01c-.35.41-.74.85-1.12,1.3.5.18,1.1.6,1.47.46s.54-.86.8-1.33c-.34-.13-.69-.25-1.15-.43Z" transform="translate(-13030.13 -1006.124)" fill="rgba(20,21,46,0.32)"/>
    <path id="Path_55787" data-name="Path 55787" d="M1850.75,715.75c-.5-.53-.87-.92-1.24-1.31-.37.36-.99.68-1.05,1.09s.45.88.71,1.32c.47-.32.93-.65,1.58-1.1Z" transform="translate(-13030.13 -1006.124)" fill="rgba(20,21,46,0.32)"/>
    <path id="Path_55788" data-name="Path 55788" d="M1575.5,730.56c.17-.34.48-.69.45-1.02-.02-.26-.45-.48-.7-.72-.17.34-.49.7-.47,1.03.01.25.46.47.71.71Z" transform="translate(-13030.13 -1006.124)" fill="rgba(20,21,46,0.32)"/>
    <path id="Path_55789" data-name="Path 55789" d="M1491.73,751.14c.31-.48.6-.91.88-1.34-.31-.12-.68-.41-.91-.33a1.345,1.345,0,0,0-.72.81c-.05.16.39.47.75.86Z" transform="translate(-13030.13 -1006.124)" fill="rgba(20,21,46,0.32)"/>
    <path id="Path_55790" data-name="Path 55790" d="M174.78,770.13c.12-.48.24-.96.35-1.44l-2.55-.32c-.06.3-.13.6-.19.9.8.28,1.59.57,2.39.85Z" transform="translate(-13030.13 -1006.124)" fill="rgba(20,21,46,0.32)"/>
    <path id="Path_55794" data-name="Path 55794" d="M1300.95,785c-.48-.25-.96-.5-1.45-.75-.15.32-.51.84-.43.92a8.534,8.534,0,0,0,1.32.95c.16-.32.32-.64.55-1.13Z" transform="translate(-13030.13 -1006.124)" fill="rgba(20,21,46,0.32)"/>
    <path id="Path_55795" data-name="Path 55795" d="M1839.56,790.24c.32-.25.64-.5.96-.76a4.054,4.054,0,0,0-1.33-.54c-.2-.01-.43.57-.65.88Z" transform="translate(-13030.13 -1006.124)" fill="rgba(20,21,46,0.32)"/>
    <path id="Path_55796" data-name="Path 55796" d="M1446.39,793.18c-.23.37-.45.74-.68,1.11.69.33,1.39.66,2.08.98.13-.24.26-.49.39-.73-.6-.45-1.2-.91-1.8-1.36Z" transform="translate(-13030.13 -1006.124)" fill="rgba(20,21,46,0.32)"/>
    <path id="Path_55799" data-name="Path 55799" d="M1349.24,821.56a9.022,9.022,0,0,0-1.56-1.17c-.14-.07-.77.45-.74.56a2.327,2.327,0,0,0,.75,1.34c.23.14.84-.37,1.55-.73Z" transform="translate(-13030.13 -1006.124)" fill="rgba(20,21,46,0.32)"/>
    <path id="Path_55800" data-name="Path 55800" d="M1696.71,828.26c.16.33.33.67.49,1a7.746,7.746,0,0,0,1.66-.57c.13-.07-.04-.69-.07-1.05-.69.21-1.39.41-2.08.62Z" transform="translate(-13030.13 -1006.124)" fill="rgba(20,21,46,0.32)"/>
    <path id="Path_55801" data-name="Path 55801" d="M1561,830.39c-.09.32-.18.64-.26.96.88.18,1.76.35,2.64.53a6.813,6.813,0,0,0,.14-.83c-.83-.25-1.67-.45-2.52-.66Z" transform="translate(-13030.13 -1006.124)" fill="rgba(20,21,46,0.32)"/>
    <path id="Path_55802" data-name="Path 55802" d="M1307.7,838.33c-.24-.3-.48-.61-.72-.91a5.748,5.748,0,0,0-.61,1.37c-.03.14.53.4.81.6.17-.35.34-.7.52-1.06Z" transform="translate(-13030.13 -1006.124)" fill="rgba(20,21,46,0.32)"/>
    <path id="Path_55803" data-name="Path 55803" d="M1245.46,843.9c-.26-.53-.45-1.17-.58-1.16a6.574,6.574,0,0,0-1.5.49c.15.36.3,1.02.46,1.02a6.3,6.3,0,0,0,1.62-.35Z" transform="translate(-13030.13 -1006.124)" fill="rgba(20,21,46,0.32)"/>
    <path id="Path_55804" data-name="Path 55804" d="M626.72,858.07l.37-.43-1.57-1.42-.42.48C625.64,857.16,626.18,857.61,626.72,858.07Z" transform="translate(-13030.13 -1058.339)" fill="rgba(20,21,46,0.32)"/>
    <path id="Path_55807" data-name="Path 55807" d="M648.24,872.55c.42-3.71.98-4.08,3.55-2.28.99.69,1.88,1.52,2.81,2.28Z" transform="translate(-13030.13 -1062.248)" fill="rgba(20,21,46,0.32)"/>
    <path id="Path_55808" data-name="Path 55808" d="M870.82,872.55c1.27-2.76,2.54-2.52,3.82,0Z" transform="translate(-13030.13 -1062.554)" fill="rgba(20,21,46,0.32)"/>
    <path id="Path_55814" data-name="Path 55814" d="M1722.48,806.72c4.3,4.16,4.1,4.81-2.01,7.71C1718.23,810.95,1722.13,809.51,1722.48,806.72Z" transform="translate(-13030.13 -1006.124)" fill="rgba(20,21,46,0.32)"/>
    <path id="Path_55815" data-name="Path 55815" d="M1815.03,811.58c-4.19-4.91-3.91-5.64,2.07-7.75C1819.27,807.03,1815.47,808.41,1815.03,811.58Z" transform="translate(-13030.13 -1006.124)" fill="rgba(20,21,46,0.32)"/>
    <path id="Path_55818" data-name="Path 55818" d="M786.56,827.77c.69.99,1.38,1.98,2.31,3.32-1.07,2.25-3.54,3.09-6.39,2.57-.73-.13-1.22-1.59-1.14-2.98.58.62,1.15,1.25,1.84,1.99,1.2-1.59,2.38-3.16,3.56-4.72l-.18-.18Z" transform="translate(-13030.13 -1006.124)" fill="rgba(20,21,46,0.32)"/>
    <path id="Path_55828" data-name="Path 55828" d="M188.69,732.44q5.57-1.65,9.65.38C194.94,734,192.33,734.18,188.69,732.44Z" transform="translate(-13030.13 -1006.124)" fill="rgba(20,21,46,0.32)"/>
    <path id="Path_55831" data-name="Path 55831" d="M443.24,780.35c3.81-1.27,6.62.02,8.84,3.34C447.98,785.13,446.61,780.22,443.24,780.35Z" transform="translate(-13030.13 -1006.124)" fill="rgba(20,21,46,0.32)"/>
    <path id="Path_55834" data-name="Path 55834" d="M226.78,854.25c-2.42,1.1-5.11,2.33-8.48,3.87C222,853.06,222.33,852.94,226.78,854.25Z" transform="translate(-13030.13 -1057.719)" fill="rgba(20,21,46,0.32)"/>
    <path id="Path_55844" data-name="Path 55844" d="M585.8,790.28c-1.69-1.09-3.37-2.18-5.59-3.62,3.95-1.72,4.77,1.2,6.55,2.2l-.96,1.41Z" transform="translate(-13030.13 -1006.124)" fill="rgba(20,21,46,0.32)"/>
    <path id="Path_55859" data-name="Path 55859" d="M869.99,862.89c-.77-1.76-1.41-3.22-2.31-5.28,1.64.18,2.58.28,3.87.42-.57,1.78-1,3.13-1.55,4.86Z" transform="translate(-13030.13 -1058.959)" fill="rgba(20,21,46,0.32)"/>
    <path id="Path_55867" data-name="Path 55867" d="M909.12,857.11c-1.26-1.17-2.19-2.02-3.31-3.07Q909.2,853.25,909.12,857.11Z" transform="translate(-13030.13 -1057.742)" fill="rgba(20,21,46,0.32)"/>
    <path id="Path_55868" data-name="Path 55868" d="M1538.29,817.15c-.69-.82-1.37-1.65-2.06-2.47.67-.42,1.35-.84,2.02-1.27l1.41,2.82C1539.2,816.54,1538.74,816.84,1538.29,817.15Z" transform="translate(-13030.13 -1006.124)" fill="rgba(20,21,46,0.32)"/>
    <path id="Path_55869" data-name="Path 55869" d="M1571.36,729c-.37.99-.74,1.97-1.11,2.96-.72-.34-1.43-.69-2.15-1.03.59-.9,1.19-1.8,1.78-2.7C1570.37,728.49,1570.87,728.74,1571.36,729Z" transform="translate(-13030.13 -1006.124)" fill="rgba(20,21,46,0.32)"/>
    <path id="Path_55872" data-name="Path 55872" d="M914.97,807.17c.74,2.69,1.93,5.13-2.66,4.1C913.27,809.8,913.99,808.68,914.97,807.17Z" transform="translate(-13030.13 -1006.124)" fill="rgba(20,21,46,0.32)"/>
    <path id="Path_55873" data-name="Path 55873" d="M786.74,827.94c.83-1.49-.17-4.01,2.51-4.55q-.05,3.87-2.68,4.38Z" transform="translate(-13030.13 -1006.124)" fill="rgba(20,21,46,0.32)"/>
    <path id="Path_55874" data-name="Path 55874" d="M916.29,859.11c.77.87,1.56,1.73,2.26,2.65.06.08-.46.6-.72.92-.89-.76-1.78-1.52-2.66-2.28.37-.43.75-.86,1.12-1.3Z" transform="translate(-13030.13 -1059.291)" fill="rgba(20,21,46,0.32)"/>
    <path id="Path_55909" data-name="Path 55909" d="M497.64,695.88l-2.75.15c.07-.37.05-1,.22-1.06a20.193,20.193,0,0,1,2.45-.55c.03.48.05.97.08,1.45Z" transform="translate(-13030.13 -1006.124)" fill="rgba(20,21,46,0.32)"/>
    <path id="Path_55910" data-name="Path 55910" d="M785.81,696.78c-.9.42-1.8.85-2.72,1.22a2.91,2.91,0,0,1-.42-.8c.71-.59,1.48-1.13,2.23-1.67l.9,1.26Z" transform="translate(-13030.13 -1006.124)" fill="rgba(20,21,46,0.32)"/>
    <path id="Path_55913" data-name="Path 55913" d="M1297.55,749.54c-.48.99-.96,1.97-1.43,2.96-.27-.12-.53-.23-.8-.35.39-1.02.79-2.03,1.18-3.05l1.05.45Z" transform="translate(-13030.13 -1006.124)" fill="rgba(20,21,46,0.32)"/>
    <path id="Path_55914" data-name="Path 55914" d="M1421.89,793.78a15.746,15.746,0,0,1,2.34-1.13c.1-.03.77.97.64,1.28a1.924,1.924,0,0,1-1.31,1.03c-.37.05-.83-.55-1.68-1.18Z" transform="translate(-13030.13 -1006.124)" fill="rgba(20,21,46,0.32)"/>
    <path id="Path_55917" data-name="Path 55917" d="M516.32,864.53c-.26,1.1-.51,2.2-.77,3.3-.41-.09-.81-.19-1.22-.28.3-1.09.6-2.18.89-3.27.37.09.73.17,1.1.26Z" transform="translate(-13030.13 -1060.811)" fill="rgba(20,21,46,0.32)"/>
    <path id="Path_55937" data-name="Path 55937" d="M1108.46,735.28l2.79-.99c.12.33.24.66.35.98l-2.82,1.05-.33-1.05Z" transform="translate(-13030.13 -1006.124)" fill="rgba(20,21,46,0.32)"/>
    <path id="Path_55938" data-name="Path 55938" d="M1439.47,774.57c-.19-1.51-.29-2.32-.4-3.12a10.751,10.751,0,0,1,1.41,1.37c.09.12-.35.63-1.01,1.76Z" transform="translate(-13030.13 -1006.124)" fill="rgba(20,21,46,0.32)"/>
    <path id="Path_55939" data-name="Path 55939" d="M833.92,776.08c-.34.38-.58.64-.81.91-.35-.44-.9-.85-.98-1.33-.05-.29.64-.7,1-1.05.27.51.54,1.01.79,1.48Z" transform="translate(-13030.13 -1006.124)" fill="rgba(20,21,46,0.32)"/>
    <path id="Path_55941" data-name="Path 55941" d="M1491.04,800.18c-.34.35-.56.59-.79.82a6.55,6.55,0,0,1-.69-1.44c-.04-.17.42-.46.65-.7C1490.5,799.32,1490.79,799.78,1491.04,800.18Z" transform="translate(-13030.13 -1006.124)" fill="rgba(20,21,46,0.32)"/>
    <path id="Path_55945" data-name="Path 55945" d="M764.64,846.77c-.88.44-1.76.87-2.64,1.31l-.48-.75,2.27-1.73C764.07,845.99,764.36,846.38,764.64,846.77Z" transform="translate(-13030.13 -1006.124)" fill="rgba(20,21,46,0.32)"/>
    <path id="Path_55948" data-name="Path 55948" d="M1670.41,862.83c-.3.66-.45.99-.6,1.33a17.019,17.019,0,0,1-1.82-1.16,2.275,2.275,0,0,1,.43-.9,19.075,19.075,0,0,1,1.99.73Z" transform="translate(-13030.13 -1060.076)" fill="rgba(20,21,46,0.32)"/>
    <path id="Path_55962" data-name="Path 55962" d="M1702.21,681.98c-.39.42-.71,1.03-1.17,1.16-.28.08-.78-.56-1.18-.87a8.175,8.175,0,0,1,1.38-1.06c.13-.07.54.42.97.77Z" transform="translate(-13030.13 -1006.124)" fill="rgba(20,21,46,0.32)"/>
    <path id="Path_55964" data-name="Path 55964" d="M630.8,700.01c.46.17.81.3,1.15.43-.26.47-.42,1.18-.8,1.33s-.97-.28-1.47-.46c.38-.44.76-.89,1.12-1.3Z" transform="translate(-13030.13 -1006.124)" fill="rgba(20,21,46,0.32)"/>
    <path id="Path_55965" data-name="Path 55965" d="M1850.75,715.75c-.65.45-1.11.77-1.58,1.1-.26-.44-.77-.92-.71-1.32s.67-.73,1.05-1.09c.37.39.75.79,1.24,1.31Z" transform="translate(-13030.13 -1006.124)" fill="rgba(20,21,46,0.32)"/>
    <path id="Path_55966" data-name="Path 55966" d="M1575.5,730.56c-.25-.24-.7-.46-.71-.71-.02-.33.3-.69.47-1.03.25.24.68.47.7.72.02.33-.29.68-.46,1.02Z" transform="translate(-13030.13 -1006.124)" fill="rgba(20,21,46,0.32)"/>
    <path id="Path_55967" data-name="Path 55967" d="M1491.73,751.14c-.36-.39-.8-.69-.75-.86a1.345,1.345,0,0,1,.72-.81c.23-.09.6.2.91.33-.28.43-.57.87-.88,1.34Z" transform="translate(-13030.13 -1006.124)" fill="rgba(20,21,46,0.32)"/>
    <path id="Path_55968" data-name="Path 55968" d="M174.78,770.13c-.8-.28-1.59-.57-2.39-.85.06-.3.13-.6.19-.9l2.55.32c-.12.48-.24.96-.35,1.44Z" transform="translate(-13030.13 -1006.124)" fill="rgba(20,21,46,0.32)"/>
    <path id="Path_55972" data-name="Path 55972" d="M1300.95,785c-.24.49-.4.81-.55,1.13a8.534,8.534,0,0,1-1.32-.95c-.09-.09.27-.61.43-.92.48.25.97.5,1.45.75Z" transform="translate(-13030.13 -1006.124)" fill="rgba(20,21,46,0.32)"/>
    <path id="Path_55973" data-name="Path 55973" d="M1839.56,790.24l-1.02-.42c.22-.31.45-.89.65-.88a4.057,4.057,0,0,1,1.33.54C1840.2,789.73,1839.88,789.98,1839.56,790.24Z" transform="translate(-13030.13 -1006.124)" fill="rgba(20,21,46,0.32)"/>
    <path id="Path_55974" data-name="Path 55974" d="M1446.39,793.18c.6.45,1.2.91,1.8,1.36-.13.24-.26.49-.39.73-.69-.33-1.39-.66-2.08-.98.23-.37.45-.74.68-1.11Z" transform="translate(-13030.13 -1006.124)" fill="rgba(20,21,46,0.32)"/>
    <path id="Path_55977" data-name="Path 55977" d="M1349.24,821.56c-.71.36-1.32.86-1.55.73a2.327,2.327,0,0,1-.75-1.34c-.03-.12.6-.63.74-.56a10.742,10.742,0,0,1,1.56,1.17Z" transform="translate(-13030.13 -1006.124)" fill="rgba(20,21,46,0.32)"/>
    <path id="Path_55978" data-name="Path 55978" d="M1696.71,828.26c.69-.21,1.39-.41,2.08-.62.03.36.21.98.07,1.05a9.019,9.019,0,0,1-1.66.57c-.16-.33-.33-.67-.49-1Z" transform="translate(-13030.13 -1006.124)" fill="rgba(20,21,46,0.32)"/>
    <path id="Path_55979" data-name="Path 55979" d="M1561,830.39c.84.21,1.69.4,2.52.66a5.223,5.223,0,0,1-.14.83c-.88-.18-1.76-.35-2.64-.53.09-.32.18-.64.26-.96Z" transform="translate(-13030.13 -1006.124)" fill="rgba(20,21,46,0.32)"/>
    <path id="Path_55980" data-name="Path 55980" d="M1307.7,838.33c-.17.35-.34.7-.52,1.06-.29-.2-.84-.46-.81-.6a5.748,5.748,0,0,1,.61-1.37c.24.3.48.61.72.91Z" transform="translate(-13030.13 -1006.124)" fill="rgba(20,21,46,0.32)"/>
    <path id="Path_55981" data-name="Path 55981" d="M1245.46,843.9a6.3,6.3,0,0,1-1.62.35c-.17,0-.31-.66-.46-1.02a7.1,7.1,0,0,1,1.5-.49c.13-.01.32.63.58,1.16Z" transform="translate(-13030.13 -1006.124)" fill="rgba(20,21,46,0.32)"/>
    <path id="Path_55982" data-name="Path 55982" d="M626.72,858.07c-.54-.46-1.08-.91-1.62-1.37l.42-.48,1.57,1.42Z" transform="translate(-13030.13 -1058.339)" fill="rgba(20,21,46,0.32)"/>
    <path id="Path_55985" data-name="Path 55985" d="M237.25,1529.69c1.53-.36,3.07-.71,5.17-1.2-1.91-.62-3.33-1.09-4.98-1.63-.08,1.28-.13,2.06-.19,2.83l-7.63-1.26c-.02.42-.05.84-.07,1.26h7.7Z" transform="translate(-13030.13 -1256.253)" fill="rgba(20,21,46,0.32)"/>
    <path id="Path_55986" data-name="Path 55986" d="M404.12,973.17c-.71-1.65.24-4.42-3.87-4.61,2.06,1.55-.33,5.55,4.06,4.42a20.3,20.3,0,0,1-1.4,2.11c-.26.3-.79.37-1.82.81,1.76.95,2.89,1.56,4.03,2.17,1.52-2.42,1.22-3.93-.99-4.91Z" transform="translate(-13030.13 -1092.046)" fill="rgba(20,21,46,0.32)"/>
    <path id="Path_55990" data-name="Path 55990" d="M1805.5,1435.99c1.91-4.56-1.79-6.67-3.37-10.39C1801.09,1430.14,1798.99,1434.16,1805.5,1435.99Z" transform="translate(-13030.13 -1256.253)" fill="rgba(20,21,46,0.32)"/>
    <path id="Path_55993" data-name="Path 55993" d="M1540.41,1156.26c-.44-.87-.68-2.24-1.36-2.51-2.73-1.11-5.53-.58-8.68-.04,2.42,4.38,6.25,2.42,10.04,2.56Z" transform="translate(-13030.13 -1145.646)" fill="rgba(20,21,46,0.32)"/>
    <path id="Path_55995" data-name="Path 55995" d="M420.57,1296.59a7.321,7.321,0,0,0,9.02-1.39C423.7,1292.83,422.69,1292.98,420.57,1296.59Z" transform="translate(-13030.13 -1187.018)" fill="rgba(20,21,46,0.32)"/>
    <path id="Path_56000" data-name="Path 56000" d="M68.94,1240.22c5.67,3.83,5.39-2.96,8.43-3.37A8.312,8.312,0,0,0,68.94,1240.22Z" transform="translate(-13030.13 -1170.439)" fill="rgba(20,21,46,0.32)"/>
    <path id="Path_56001" data-name="Path 56001" d="M844.58,1021.77c4.23-1.31,6.46,4.78,10.29.43C849.65,1019.13,847.9,1018.88,844.58,1021.77Z" transform="translate(-13030.13 -1106.54)" fill="rgba(20,21,46,0.32)"/>
    <path id="Path_56003" data-name="Path 56003" d="M725.49,1040.29c-3.68-.31-6.21-.52-8.74-.73-.05.44-.09.88-.14,1.31,2.63-.24,4.31,5.28,8.88-.58Z" transform="translate(-13030.13 -1112.288)" fill="rgba(20,21,46,0.32)"/>
    <path id="Path_56004" data-name="Path 56004" d="M716.76,999.45c-.13,2.9-.22,4.82-.32,7.03C721.83,1004.04,721.92,1003.41,716.76,999.45Z" transform="translate(-13030.13 -1100.907)" fill="rgba(20,21,46,0.32)"/>
    <path id="Path_56005" data-name="Path 56005" d="M79.36,1221.85c-2.34-.36-4.24-.65-6.15-.94-.12.32-.23.65-.35.97,1.61,1.35,3.21,2.69,5.28,4.42.43-1.58.74-2.69,1.22-4.45Z" transform="translate(-13030.13 -1165.923)" fill="rgba(20,21,46,0.32)"/>
    <path id="Path_56006" data-name="Path 56006" d="M26.78,1425.92c-4.68,4.19-4.67,4.26,0,6.93Z" transform="translate(-13030.13 -1256.253)" fill="rgba(20,21,46,0.32)"/>
    <path id="Path_56008" data-name="Path 56008" d="M1090.87,962.19c1.97,2.05,3.16,3.29,4.77,4.96,1.06-2.32,1.76-3.85,2.65-5.79-2.45.28-4.3.48-7.41.84Z" transform="translate(-13030.13 -1089.549)" fill="rgba(20,21,46,0.32)"/>
    <path id="Path_56015" data-name="Path 56015" d="M23.76,1169.88c.11-1.98.2-3.66.37-6.79-2.08,1.42-3.74,1.93-4.01,2.85-.64,2.17.72,3.41,3.64,3.94Z" transform="translate(-13030.13 -1149.136)" fill="rgba(20,21,46,0.32)"/>
    <path id="Path_56016" data-name="Path 56016" d="M382.66,1416.28c-3.55.54-6.06.93-9.15,1.4Q376.89,1419.72,382.66,1416.28Z" transform="translate(-13030.13 -1256.253)" fill="rgba(20,21,46,0.32)"/>
    <path id="Path_56017" data-name="Path 56017" d="M1476.86,1158.83c2.85-1.42,3.5-3.14,2.64-5.98C1476.69,1154.04,1475.98,1155.74,1476.86,1158.83Z" transform="translate(-13030.13 -1145.983)" fill="rgba(20,21,46,0.32)"/>
    <path id="Path_56029" data-name="Path 56029" d="M1027.28,1018.01c.79-1.84,1.57-2.81,1.46-3.66-.09-.64-1.27-1.39-2.08-1.56-.5-.11-1.78.87-1.72,1.2.13.82.83,1.55,2.35,4.03Z" transform="translate(-13030.13 -1104.631)" fill="rgba(20,21,46,0.32)"/>
    <path id="Path_56032" data-name="Path 56032" d="M729.3,1071.87c-2.15-3.67-3.66-1.35-5.15-.84-.19.06-.25.49-.41.84Z" transform="translate(-13030.13 -1120.992)" fill="rgba(20,21,46,0.32)"/>
    <path id="Path_56034" data-name="Path 56034" d="M36.78,1131.27c1.83.84,3.72,2.68,5.42.01C40.34,1128.86,38.5,1130.92,36.78,1131.27Z" transform="translate(-13030.13 -1138.751)" fill="rgba(20,21,46,0.32)"/>
    <path id="Path_56035" data-name="Path 56035" d="M834.67,1131.55q.66,3.53,4.64,3.02C837.54,1133.42,836.36,1132.65,834.67,1131.55Z" transform="translate(-13030.13 -1139.253)" fill="rgba(20,21,46,0.32)"/>
    <path id="Path_56041" data-name="Path 56041" d="M945.43,1050.81c-.41-.49-.82-.98-1.23-1.46-.92.84-1.86,1.68-2.74,2.57a3.338,3.338,0,0,0,.71.84c1.11-.6,2.18-1.28,3.26-1.95Z" transform="translate(-13030.13 -1115.161)" fill="rgba(20,21,46,0.32)"/>
    <path id="Path_56042" data-name="Path 56042" d="M382.01,1442.17c.03.66.07,1.33.1,1.99l6.51-1.05-6.61-.94Z" transform="translate(-13030.13 -1256.253)" fill="rgba(20,21,46,0.32)"/>
    <path id="Path_56044" data-name="Path 56044" d="M32.65,1070.86a9.212,9.212,0,0,0-1.61,2.22c-.08.26.81,1.18,1.12,1.12a6.743,6.743,0,0,0,1.91-1.1c-.37-.58-.73-1.16-1.41-2.23Z" transform="translate(-13030.13 -1121.469)" fill="rgba(20,21,46,0.32)"/>
    <path id="Path_56047" data-name="Path 56047" d="M1554.22,1116.92c0,.7.02,1.4.02,2.1,1.18-.16,2.36-.3,3.52-.52a2.684,2.684,0,0,0-.07-1.09c-1.15-.22-2.32-.34-3.48-.48Z" transform="translate(-13030.13 -1134.809)" fill="rgba(20,21,46,0.32)"/>
    <path id="Path_56048" data-name="Path 56048" d="M291.68,1503.74c-1.36-2.34-2.92-3.41-5.55-.9C288.33,1503.2,290,1503.47,291.68,1503.74Z" transform="translate(-13030.13 -1256.253)" fill="rgba(20,21,46,0.32)"/>
    <path id="Path_56049" data-name="Path 56049" d="M947.18,1112.56c-.03-.54-.06-1.07-.09-1.61-1.52.17-3.03.34-4.55.5l.09,1.11Z" transform="translate(-13030.13 -1132.985)" fill="rgba(20,21,46,0.32)"/>
    <path id="Path_56050" data-name="Path 56050" d="M1626.69,1109.99c0-.29.01-.58.02-.86h-4.74c0,.13,0,.25.01.38l4.7.48Z" transform="translate(-13030.13 -1132.341)" fill="rgba(20,21,46,0.32)"/>
    <path id="Path_56053" data-name="Path 56053" d="M405.34,1297.36c-1.87-1.18-3.74-2.26-6.63,0Z" transform="translate(-13030.13 -1187.174)" fill="rgba(20,21,46,0.32)"/>
    <path id="Path_56059" data-name="Path 56059" d="M1431.05,1163.09c.49-.31.98-.63,1.47-.94.22-.67.82-1.61.58-1.96a2.9,2.9,0,0,0-2.02-.74c-.22-.02-.74.86-.7,1.3a10.644,10.644,0,0,0,.68,2.35Z" transform="translate(-13030.13 -1147.539)" fill="rgba(20,21,46,0.32)"/>
    <path id="Path_56060" data-name="Path 56060" d="M948.56,964.54c-.52-.14-1.04-.27-1.56-.41-.18,1.15-.35,2.3-.53,3.44.39.07.78.14,1.17.2.31-1.08.61-2.16.92-3.24Z" transform="translate(-13030.13 -1090.152)" fill="rgba(20,21,46,0.32)"/>
    <path id="Path_56061" data-name="Path 56061" d="M1024.16,1003.46c.15-.61.3-1.22.44-1.83-1.18-.23-2.36-.45-3.53-.68-.12.47-.25.94-.37,1.41,1.15.37,2.31.73,3.46,1.1Z" transform="translate(-13030.13 -1100.844)" fill="rgba(20,21,46,0.32)"/>
    <path id="Path_56062" data-name="Path 56062" d="M1706.63,1069.94l-.18,1.14,4.55.81c.07-.42.13-.84.2-1.26l-4.56-.69Z" transform="translate(-13030.13 -1121.011)" fill="rgba(20,21,46,0.32)"/>
    <path id="Path_56063" data-name="Path 56063" d="M409,1393.52c.11.37.23.73.34,1.1,1.27-.39,2.54-.79,3.82-1.18-.11-.35-.22-.7-.32-1.06-1.28.38-2.55.76-3.83,1.13Z" transform="translate(-13030.13 -1256.253)" fill="rgba(20,21,46,0.32)"/>
    <path id="Path_56065" data-name="Path 56065" d="M956.92,1106.31c1.96.47,3.18.76,5.14,1.24C960.68,1104.1,959.29,1104.71,956.92,1106.31Z" transform="translate(-13030.13 -1131.384)" fill="rgba(20,21,46,0.32)"/>
    <path id="Path_56066" data-name="Path 56066" d="M457.76,1456.65c-.29.26-.58.53-.88.79a20.028,20.028,0,0,0,1.99,2.12c.1.08.87-.63,1.33-.98l-2.44-1.93Z" transform="translate(-13030.13 -1256.253)" fill="rgba(20,21,46,0.32)"/>
    <path id="Path_56069" data-name="Path 56069" d="M37.67,1154.66l1.41,1.44c.81-.77,1.61-1.55,2.42-2.32-.3-.23-.72-.72-.89-.64-1.01.43-1.96,1-2.94,1.52Z" transform="translate(-13030.13 -1145.571)" fill="rgba(20,21,46,0.32)"/>
    <path id="Path_56072" data-name="Path 56072" d="M949.12,972.3c-.42-.07-.84-.15-1.27-.22l-.42,2.88.65.18c.35-.94.69-1.89,1.04-2.83Z" transform="translate(-13030.13 -1092.429)" fill="rgba(20,21,46,0.32)"/>
    <path id="Path_56073" data-name="Path 56073" d="M1787.96,979.51c-.14-.52-.28-1.05-.43-1.57-.96.32-1.93.65-2.89.97.09.34.19.68.28,1.02Z" transform="translate(-13030.13 -1094.039)" fill="rgba(20,21,46,0.32)"/>
    <path id="Path_56074" data-name="Path 56074" d="M34.84,1457.09c.03-.29.07-.58.1-.87l-4.23-.54c-.04.3-.07.6-.11.89,1.41.17,2.83.34,4.24.52Z" transform="translate(-13030.13 -1256.253)" fill="rgba(20,21,46,0.32)"/>
    <path id="Path_56075" data-name="Path 56075" d="M17.47,1127.38c-.17.46-.35.92-.52,1.38.9.28,1.81.56,2.71.84.12-.31.25-.63.37-.94-.85-.43-1.71-.85-2.56-1.28Z" transform="translate(-13030.13 -1137.895)" fill="rgba(20,21,46,0.32)"/>
    <path id="Path_56078" data-name="Path 56078" d="M1676.08,1121.25c.04.52.09,1.04.13,1.56,1.17-.38,2.34-.75,3.51-1.13-.05-.23-.1-.47-.16-.7l-3.49.27Z" transform="translate(-13030.13 -1135.959)" fill="rgba(20,21,46,0.32)"/>
    <path id="Path_56080" data-name="Path 56080" d="M533.85,1022.77c-.18.3-.37.61-.55.91.88.54,1.75,1.09,2.63,1.63.2-.34.4-.68.61-1.02-.89-.51-1.79-1.01-2.68-1.52Z" transform="translate(-13030.13 -1107.25)" fill="rgba(20,21,46,0.32)"/>
    <path id="Path_56083" data-name="Path 56083" d="M384.92,1410.24c-.07.45-.14.91-.2,1.36,1.15.11,2.29.23,3.44.34.05-.35.1-.71.16-1.06-1.13-.21-2.26-.43-3.39-.64Z" transform="translate(-13030.13 -1256.253)" fill="rgba(20,21,46,0.32)"/>
    <path id="Path_56085" data-name="Path 56085" d="M952.92,1051.52c.18-.48.37-.96.55-1.44-1.01-.23-2.02-.46-3.04-.69-.07.25-.14.5-.2.75.89.46,1.79.92,2.69,1.38Z" transform="translate(-13030.13 -1115.009)" fill="rgba(20,21,46,0.32)"/>
    <path id="Path_56088" data-name="Path 56088" d="M21.51,1232.96c0,.46-.02.92-.03,1.38h2.98c.02-.32.05-.65.07-.97-1.01-.14-2.02-.28-3.02-.41Z" transform="translate(-13030.13 -1168.703)" fill="rgba(20,21,46,0.32)"/>
    <path id="Path_56092" data-name="Path 56092" d="M1827.24,1448.77c-.15.48-.3.95-.45,1.43.9.2,1.81.39,2.71.59.08-.27.16-.55.25-.82-.84-.4-1.67-.8-2.51-1.19Z" transform="translate(-13030.13 -1256.253)" fill="rgba(20,21,46,0.32)"/>
    <path id="Path_56097" data-name="Path 56097" d="M1785.14,952.24l.33.66c1.01-.49,2.02-.99,3.03-1.48-.12-.24-.24-.48-.35-.72C1787.15,951.21,1786.15,951.73,1785.14,952.24Z" transform="translate(-13030.13 -1086.071)" fill="rgba(20,21,46,0.32)"/>
    <path id="Path_56098" data-name="Path 56098" d="M426.74,990.98c-.14.33-.27.66-.41.98.91.36,1.83.73,2.74,1.09.12-.3.24-.59.37-.89-.9-.39-1.8-.79-2.7-1.18Z" transform="translate(-13030.13 -1097.872)" fill="rgba(20,21,46,0.32)"/>
    <path id="Path_56099" data-name="Path 56099" d="M1860.71,992.57l-.51.93c.85.49,1.7.97,2.56,1.46l.54-.99c-.86-.47-1.73-.93-2.59-1.4Z" transform="translate(-13030.13 -1098.373)" fill="rgba(20,21,46,0.32)"/>
    <path id="Path_56101" data-name="Path 56101" d="M119.4,1024.65c-.61-.69-.99-1.39-1.24-1.35a1.911,1.911,0,0,0-1.29.94c-.16.38.2.98.33,1.48C117.82,1025.41,118.45,1025.11,119.4,1024.65Z" transform="translate(-13030.13 -1107.391)" fill="rgba(20,21,46,0.32)"/>
    <path id="Path_56102" data-name="Path 56102" d="M1031.77,1027.29c.26.02.53.05.79.07l.3-3.03c-.28-.03-.55-.05-.83-.08-.09,1.01-.18,2.02-.26,3.04Z" transform="translate(-13030.13 -1107.752)" fill="rgba(20,21,46,0.32)"/>
    <path id="Path_56103" data-name="Path 56103" d="M1017.59,1048.15c.52-.76,1.13-1.26,1.13-1.75,0-.38-.77-1.04-1.21-1.05a1.647,1.647,0,0,0-1.15,1.1c-.06.36.58.85,1.23,1.7Z" transform="translate(-13030.13 -1113.908)" fill="rgba(20,21,46,0.32)"/>
    <path id="Path_56105" data-name="Path 56105" d="M12.59,1096.2a10.448,10.448,0,0,0-.65,2.19c0,.3.39.83.64.85a4.008,4.008,0,0,0,1.37-.37c-.24-.47-.47-.93-1.36-2.67Z" transform="translate(-13030.13 -1128.868)" fill="rgba(20,21,46,0.32)"/>
    <path id="Path_56106" data-name="Path 56106" d="M1748.04,1113.17c.04.25.08.49.11.74l3.09-.27c-.06-.38-.11-.75-.17-1.13l-3.03.66Z" transform="translate(-13030.13 -1133.411)" fill="rgba(20,21,46,0.32)"/>
    <path id="Path_56108" data-name="Path 56108" d="M1264.56,1130.52c-.35.1-.71.19-1.06.29l.93,2.88c.28-.08.56-.17.84-.25-.24-.97-.47-1.94-.71-2.91Z" transform="translate(-13030.13 -1138.964)" fill="rgba(20,21,46,0.32)"/>
    <path id="Path_56110" data-name="Path 56110" d="M1331.72,1169.07c1.33.52,1.88.89,2.03.76a6.666,6.666,0,0,0,1.08-1.37c-.76.15-1.53.3-3.12.61Z" transform="translate(-13030.13 -1149.806)" fill="rgba(20,21,46,0.32)"/>
    <path id="Path_56111" data-name="Path 56111" d="M455.54,1190.29a8.118,8.118,0,0,0-1.56-1.29c-.21-.1-.97.38-.94.48.1.46.31,1.16.62,1.24.46.12,1.04-.21,1.88-.43Z" transform="translate(-13030.13 -1155.884)" fill="rgba(20,21,46,0.32)"/>
    <path id="Path_56118" data-name="Path 56118" d="M410.42,1297.93v.56h4.17c0-.19,0-.37-.01-.56h-4.17Z" transform="translate(-13030.13 -1187.566)" fill="rgba(20,21,46,0.32)"/>
    <path id="Path_56122" data-name="Path 56122" d="M23.35,1379.59c-.57.68-1.24,1.23-1.15,1.41a2.189,2.189,0,0,0,1.23,1.09c.39.1.91-.33,1.37-.53-.42-.57-.84-1.14-1.46-1.97Z" transform="translate(-13030.13 -1256.253)" fill="rgba(20,21,46,0.32)"/>
    <path id="Path_56124" data-name="Path 56124" d="M1298.98,1097.66c-.32-.19-.75-.6-.92-.51-.3.16-.45.63-.66.97.41.22.82.45,1.23.67.12-.37.23-.75.35-1.12Z" transform="translate(-13030.13 -1128.943)" fill="rgba(20,21,46,0.32)"/>
    <path id="Path_56126" data-name="Path 56126" d="M174.93,1082.23a6.014,6.014,0,0,0-1.59-.15c-.18.03-.27.64-.4.99a8.526,8.526,0,0,0,1.53.43,5.578,5.578,0,0,0,.45-1.27Z" transform="translate(-13030.13 -1124.494)" fill="rgba(20,21,46,0.32)"/>
    <path id="Path_56127" data-name="Path 56127" d="M1350.47,1049.8a5.787,5.787,0,0,0-1.43-.98c-.19-.06-.79.42-.78.63a4.612,4.612,0,0,0,.51,1.36c.47-.28.93-.55,1.7-1.01Z" transform="translate(-13030.13 -1114.823)" fill="rgba(20,21,46,0.32)"/>
    <path id="Path_56128" data-name="Path 56128" d="M20.03,1051.03c.25-.27.7-.54.7-.8s-.45-.54-.7-.81c-.25.27-.69.53-.69.8s.44.54.68.82Z" transform="translate(-13030.13 -1114.952)" fill="rgba(20,21,46,0.32)"/>
    <path id="Path_56130" data-name="Path 56130" d="M1504.17,1032.97c-.26-.48-.4-1.02-.57-1.03a1.3,1.3,0,0,0-.99.45c-.16.22,0,.67.03,1.02.5-.14.99-.29,1.53-.44Z" transform="translate(-13030.13 -1109.811)" fill="rgba(20,21,46,0.32)"/>
    <path id="Path_56133" data-name="Path 56133" d="M1309.22,1032.93c-.4-.45-.74-.84-1.08-1.23-.22.29-.64.62-.6.87a4.644,4.644,0,0,0,.66,1.29c.29-.26.57-.52,1.02-.92Z" transform="translate(-13030.13 -1109.824)" fill="rgba(20,21,46,0.32)"/>
    <path id="Path_56134" data-name="Path 56134" d="M409.82,975.68c-.29.01-.58.03-.87.04.07.9.15,1.8.22,2.7.22-.02.43-.03.65-.05Z" transform="translate(-13030.13 -1093.453)" fill="rgba(20,21,46,0.32)"/>
    <path id="Path_56136" data-name="Path 56136" d="M1809.49,1436.45l.84-.1c-.09-.93-.17-1.85-.26-2.78-.33.05-.66.09-.99.14.13.91.27,1.83.4,2.74Z" transform="translate(-13030.13 -1256.253)" fill="rgba(20,21,46,0.32)"/>
    <path id="Path_56139" data-name="Path 56139" d="M171.33,1241.09c0-.13,0-.25-.01-.38l-2.35.11a2.439,2.439,0,0,0,.01.27Z" transform="translate(-13030.13 -1170.781)" fill="rgba(20,21,46,0.32)"/>
    <path id="Path_56141" data-name="Path 56141" d="M89.58,1238.64c.27-.42.55-.85.84-1.28-.34-.19-.81-.63-.99-.53a5.039,5.039,0,0,0-1.1,1.11c.34.19.68.38,1.26.71Z" transform="translate(-13030.13 -1169.92)" fill="rgba(20,21,46,0.32)"/>
    <path id="Path_56145" data-name="Path 56145" d="M93.77,1233.53c.3-.25.6-.5.9-.76a3.907,3.907,0,0,0-1.31-.59c-.2-.01-.45.59-.67.92.36.14.72.28,1.08.43Z" transform="translate(-13030.13 -1168.469)" fill="rgba(20,21,46,0.32)"/>
    <path id="Path_56147" data-name="Path 56147" d="M64.81,1223.07c-.23.19-.46.37-.69.56.18.11.36.32.53.31a5.616,5.616,0,0,0,1.05-.22c-.3-.22-.59-.44-.89-.65Z" transform="translate(-13030.13 -1165.71)" fill="rgba(20,21,46,0.32)"/>
    <path id="Path_56152" data-name="Path 56152" d="M1323.01,1168.26c.23.24.45.48.68.72.12-.15.36-.39.33-.45a6.5,6.5,0,0,0-.65-.74c-.12.15-.24.31-.36.46Z" transform="translate(-13030.13 -1149.575)" fill="rgba(20,21,46,0.32)"/>
    <path id="Path_56154" data-name="Path 56154" d="M609.65,1166.73c-.04.25-.08.49-.11.74l2.56.45c.04-.27.09-.54.13-.81-.86-.12-1.72-.25-2.58-.37Z" transform="translate(-13030.13 -1149.264)" fill="rgba(20,21,46,0.32)"/>
    <path id="Path_56159" data-name="Path 56159" d="M616.92,1160.31a7.549,7.549,0,0,0-1.6-.58c-.13-.02-.36.6-.55.93a11.744,11.744,0,0,0,1.56.75,8.316,8.316,0,0,0,.6-1.1Z" transform="translate(-13030.13 -1147.295)" fill="rgba(20,21,46,0.32)"/>
    <path id="Path_56164" data-name="Path 56164" d="M316.17,1158.04c-.39-.36-.77-.84-.88-.79a9.615,9.615,0,0,0-1.42,1c.39.32.85.96,1.17.9C315.47,1159.06,315.8,1158.44,316.17,1158.04Z" transform="translate(-13030.13 -1146.604)" fill="rgba(20,21,46,0.32)"/>
    <path id="Path_56165" data-name="Path 56165" d="M1629.3,1120.38l-.64.61a3.583,3.583,0,0,0,.91.58c.13.04.38-.32.58-.49Z" transform="translate(-13030.13 -1135.686)" fill="rgba(20,21,46,0.32)"/>
    <path id="Path_56167" data-name="Path 56167" d="M1805.63,1118.1a5.235,5.235,0,0,0-1.36-.83c-.25-.06-.61.34-.93.54a5.915,5.915,0,0,0,1.2,1.05c.14.08.57-.38,1.09-.76Z" transform="translate(-13030.13 -1134.835)" fill="rgba(20,21,46,0.32)"/>
    <path id="Path_56168" data-name="Path 56168" d="M1870.57,1117.14a5.176,5.176,0,0,0,1.53.69c.18.02.45-.72.68-1.12a7.8,7.8,0,0,0-1.57-.57c-.13-.02-.36.55-.64.99Z" transform="translate(-13030.13 -1134.519)" fill="rgba(20,21,46,0.32)"/>
    <path id="Path_56170" data-name="Path 56170" d="M958.47,1111.04c-.4-.25-.82-.53-1.25-.8-.16.3-.52.78-.44.88a8.444,8.444,0,0,0,1.26,1.03c.12-.31.24-.62.43-1.1Z" transform="translate(-13030.13 -1132.822)" fill="rgba(20,21,46,0.32)"/>
    <path id="Path_56172" data-name="Path 56172" d="M2.13,1052.05c1.32-.7,2.64-1.41,4.22-2.25,1.02,3.83-.87,5.43-4.22,6.07Z" transform="translate(-13030.13 -1115.635)" fill="rgba(20,21,46,0.32)"/>
    <path id="Path_56176" data-name="Path 56176" d="M1805.5,1435.99c-6.51-1.83-4.41-5.85-3.37-10.39C1803.71,1429.32,1807.41,1431.43,1805.5,1435.99Z" transform="translate(-13030.13 -1256.253)" fill="rgba(20,21,46,0.32)"/>
    <path id="Path_56179" data-name="Path 56179" d="M1540.41,1156.26c-3.79-.13-7.62,1.82-10.04-2.56,3.15-.54,5.94-1.07,8.68.04.68.28.92,1.65,1.36,2.51Z" transform="translate(-13030.13 -1145.644)" fill="rgba(20,21,46,0.32)"/>
    <path id="Path_56181" data-name="Path 56181" d="M420.57,1296.59c2.12-3.61,3.13-3.77,9.02-1.39A7.321,7.321,0,0,1,420.57,1296.59Z" transform="translate(-13030.13 -1187.018)" fill="rgba(20,21,46,0.32)"/>
    <path id="Path_56187" data-name="Path 56187" d="M68.94,1240.22a8.348,8.348,0,0,1,8.43-3.37C74.33,1237.26,74.6,1244.05,68.94,1240.22Z" transform="translate(-13030.13 -1170.439)" fill="rgba(20,21,46,0.32)"/>
    <path id="Path_56188" data-name="Path 56188" d="M844.58,1021.77c3.32-2.89,5.07-2.64,10.29.43C851.04,1026.55,848.81,1020.46,844.58,1021.77Z" transform="translate(-13030.13 -1106.54)" fill="rgba(20,21,46,0.32)"/>
    <path id="Path_56190" data-name="Path 56190" d="M725.49,1040.29c-4.57,5.86-6.25.34-8.88.58.05-.44.09-.88.14-1.31,2.53.21,5.06.42,8.74.73Z" transform="translate(-13030.13 -1112.288)" fill="rgba(20,21,46,0.32)"/>
    <path id="Path_56191" data-name="Path 56191" d="M716.76,999.45c5.16,3.97,5.08,4.6-.32,7.03C716.54,1004.26,716.63,1002.35,716.76,999.45Z" transform="translate(-13030.13 -1100.907)" fill="rgba(20,21,46,0.32)"/>
    <path id="Path_56192" data-name="Path 56192" d="M79.36,1221.85c-.48,1.76-.79,2.87-1.22,4.45-2.06-1.73-3.67-3.08-5.28-4.42.12-.32.23-.65.35-.97,1.91.29,3.81.58,6.15.94Z" transform="translate(-13030.13 -1165.923)" fill="rgba(20,21,46,0.32)"/>
    <path id="Path_56193" data-name="Path 56193" d="M26.78,1425.92v6.93C22.11,1430.18,22.1,1430.11,26.78,1425.92Z" transform="translate(-13030.13 -1256.253)" fill="rgba(20,21,46,0.32)"/>
    <path id="Path_56195" data-name="Path 56195" d="M1090.87,962.19c3.11-.35,4.97-.56,7.41-.84-.89,1.94-1.59,3.47-2.65,5.79-1.6-1.67-2.8-2.91-4.77-4.96Z" transform="translate(-13030.13 -1089.546)" fill="rgba(20,21,46,0.32)"/>
    <path id="Path_56202" data-name="Path 56202" d="M23.76,1169.88c-2.91-.54-4.27-1.77-3.64-3.94.27-.92,1.92-1.43,4.01-2.85-.17,3.13-.26,4.81-.37,6.79Z" transform="translate(-13030.13 -1149.136)" fill="rgba(20,21,46,0.32)"/>
    <path id="Path_56203" data-name="Path 56203" d="M382.66,1416.28q-5.77,3.44-9.15,1.4C376.6,1417.21,379.1,1416.82,382.66,1416.28Z" transform="translate(-13030.13 -1256.253)" fill="rgba(20,21,46,0.32)"/>
    <path id="Path_56204" data-name="Path 56204" d="M1476.86,1158.83c-.87-3.1-.17-4.79,2.64-5.98C1480.35,1155.7,1479.7,1157.42,1476.86,1158.83Z" transform="translate(-13030.13 -1145.983)" fill="rgba(20,21,46,0.32)"/>
    <path id="Path_56217" data-name="Path 56217" d="M1027.28,1018.01c-1.52-2.48-2.22-3.21-2.35-4.03-.05-.33,1.22-1.3,1.72-1.2.81.17,1.99.93,2.08,1.56.12.85-.66,1.82-1.46,3.66Z" transform="translate(-13030.13 -1104.628)" fill="rgba(20,21,46,0.32)"/>
    <path id="Path_56220" data-name="Path 56220" d="M729.3,1071.87h-5.56c.16-.35.22-.78.41-.84C725.64,1070.52,727.15,1068.2,729.3,1071.87Z" transform="translate(-13030.13 -1120.992)" fill="rgba(20,21,46,0.32)"/>
    <path id="Path_56222" data-name="Path 56222" d="M36.78,1131.27c1.72-.35,3.56-2.4,5.42.01C40.5,1133.95,38.61,1132.11,36.78,1131.27Z" transform="translate(-13030.13 -1138.751)" fill="rgba(20,21,46,0.32)"/>
    <path id="Path_56223" data-name="Path 56223" d="M834.67,1131.55c1.69,1.1,2.87,1.87,4.64,3.02Q835.33,1135.08,834.67,1131.55Z" transform="translate(-13030.13 -1139.253)" fill="rgba(20,21,46,0.32)"/>
    <path id="Path_56224" data-name="Path 56224" d="M404.13,973.16c2.2.99,2.5,2.51.98,4.92-1.13-.61-2.27-1.22-4.03-2.17,1.03-.44,1.56-.51,1.82-.81a20.308,20.308,0,0,0,1.4-2.11l-.18.18Z" transform="translate(-13030.13 -1092.903)" fill="rgba(20,21,46,0.32)"/>
    <path id="Path_56230" data-name="Path 56230" d="M945.43,1050.81c-1.08.66-2.15,1.35-3.26,1.95-.07.04-.73-.82-.71-.84.88-.89,1.81-1.73,2.74-2.57.41.49.82.98,1.23,1.46Z" transform="translate(-13030.13 -1115.161)" fill="rgba(20,21,46,0.32)"/>
    <path id="Path_56231" data-name="Path 56231" d="M382.01,1442.17l6.61.94c-2.92.47-4.72.76-6.51,1.05-.03-.66-.07-1.33-.1-1.99Z" transform="translate(-13030.13 -1256.253)" fill="rgba(20,21,46,0.32)"/>
    <path id="Path_56233" data-name="Path 56233" d="M32.65,1070.86c.68,1.08,1.05,1.66,1.41,2.23a6.387,6.387,0,0,1-1.91,1.1c-.31.06-1.2-.85-1.12-1.12a9.209,9.209,0,0,1,1.61-2.22Z" transform="translate(-13030.13 -1121.466)" fill="rgba(20,21,46,0.32)"/>
    <path id="Path_56236" data-name="Path 56236" d="M1554.22,1116.92c1.16.14,2.33.26,3.48.48a2.885,2.885,0,0,1,.07,1.09c-1.16.22-2.34.37-3.52.52,0-.7-.02-1.4-.02-2.1Z" transform="translate(-13030.13 -1134.806)" fill="rgba(20,21,46,0.32)"/>
    <path id="Path_56237" data-name="Path 56237" d="M291.68,1503.74c-1.67-.27-3.35-.54-5.55-.9C288.76,1500.33,290.31,1501.4,291.68,1503.74Z" transform="translate(-13030.13 -1256.253)" fill="rgba(20,21,46,0.32)"/>
    <path id="Path_56238" data-name="Path 56238" d="M947.18,1112.56h-4.55l-.09-1.11c1.52-.17,3.03-.34,4.55-.5C947.12,1111.49,947.15,1112.02,947.18,1112.56Z" transform="translate(-13030.13 -1132.985)" fill="rgba(20,21,46,0.32)"/>
    <path id="Path_56239" data-name="Path 56239" d="M404.3,972.99c-4.39,1.12-1.99-2.87-4.06-4.42,4.11.18,3.17,2.96,3.88,4.6Z" transform="translate(-13030.13 -1091.555)" fill="rgba(20,21,46,0.32)"/>
    <path id="Path_56240" data-name="Path 56240" d="M1626.69,1109.99l-4.7-.48c0-.13,0-.25-.01-.38h4.74c0,.29-.01.58-.02.86Z" transform="translate(-13030.13 -1132.341)" fill="rgba(20,21,46,0.32)"/>
    <path id="Path_56244" data-name="Path 56244" d="M405.34,1297.36h-6.63C401.61,1295.1,403.48,1296.18,405.34,1297.36Z" transform="translate(-13030.13 -1187.174)" fill="rgba(20,21,46,0.32)"/>
    <path id="Path_56245" data-name="Path 56245" d="M237.26,1529.69c.05-.77.1-1.55.18-2.83,1.65.54,3.07,1,4.98,1.63-2.11.49-3.64.84-5.17,1.2h.01Z" transform="translate(-13030.13 -1256.253)" fill="rgba(20,21,46,0.32)"/>
    <path id="Path_56251" data-name="Path 56251" d="M1431.05,1163.09a11.217,11.217,0,0,1-.68-2.35c-.03-.44.49-1.31.7-1.3a2.944,2.944,0,0,1,2.02.74c.24.35-.35,1.29-.58,1.96-.49.31-.98.63-1.47.94Z" transform="translate(-13030.13 -1147.536)" fill="rgba(20,21,46,0.32)"/>
    <path id="Path_56252" data-name="Path 56252" d="M948.56,964.54c-.31,1.08-.61,2.16-.92,3.24-.39-.07-.78-.14-1.17-.2.18-1.15.35-2.3.53-3.44.52.14,1.04.27,1.56.41Z" transform="translate(-13030.13 -1090.155)" fill="rgba(20,21,46,0.32)"/>
    <path id="Path_56253" data-name="Path 56253" d="M1024.16,1003.46c-1.15-.37-2.31-.73-3.46-1.1.12-.47.25-.94.37-1.41,1.18.23,2.36.45,3.53.68-.15.61-.3,1.22-.44,1.83Z" transform="translate(-13030.13 -1100.844)" fill="rgba(20,21,46,0.32)"/>
    <path id="Path_56254" data-name="Path 56254" d="M1706.63,1069.94l4.56.69c-.07.42-.13.84-.2,1.26l-4.55-.81.18-1.14Z" transform="translate(-13030.13 -1121.011)" fill="rgba(20,21,46,0.32)"/>
    <path id="Path_56255" data-name="Path 56255" d="M409,1393.52c1.28-.38,2.55-.76,3.83-1.13.11.35.22.7.32,1.06-1.27.39-2.54.79-3.82,1.18-.11-.37-.23-.73-.34-1.1Z" transform="translate(-13030.13 -1256.253)" fill="rgba(20,21,46,0.32)"/>
    <path id="Path_56258" data-name="Path 56258" d="M956.92,1106.31c2.37-1.61,3.76-2.21,5.14,1.24C960.1,1107.08,958.88,1106.78,956.92,1106.31Z" transform="translate(-13030.13 -1131.383)" fill="rgba(20,21,46,0.32)"/>
    <path id="Path_56259" data-name="Path 56259" d="M457.76,1456.65l2.44,1.93c-.46.35-1.23,1.06-1.33.98a20.028,20.028,0,0,1-1.99-2.12c.29-.26.58-.53.88-.79Z" transform="translate(-13030.13 -1256.253)" fill="rgba(20,21,46,0.32)"/>
    <path id="Path_56262" data-name="Path 56262" d="M37.67,1154.66c.97-.52,1.93-1.09,2.94-1.52.17-.07.59.41.89.64-.81.77-1.61,1.55-2.42,2.32l-1.41-1.44Z" transform="translate(-13030.13 -1145.571)" fill="rgba(20,21,46,0.32)"/>
    <path id="Path_56265" data-name="Path 56265" d="M949.12,972.3c-.35.94-.69,1.89-1.04,2.83l-.65-.18.42-2.88c.42.07.84.15,1.27.22Z" transform="translate(-13030.13 -1092.426)" fill="rgba(20,21,46,0.32)"/>
    <path id="Path_56266" data-name="Path 56266" d="M1787.96,979.51l-3.04.42c-.09-.34-.19-.68-.28-1.02.96-.32,1.93-.65,2.89-.97C1787.67,978.46,1787.81,978.99,1787.96,979.51Z" transform="translate(-13030.13 -1094.039)" fill="rgba(20,21,46,0.32)"/>
    <path id="Path_56267" data-name="Path 56267" d="M34.84,1457.09c-1.41-.17-2.83-.34-4.24-.52.04-.3.07-.6.11-.89l4.23.54c-.03.29-.07.58-.1.87Z" transform="translate(-13030.13 -1256.253)" fill="rgba(20,21,46,0.32)"/>
    <path id="Path_56268" data-name="Path 56268" d="M17.47,1127.38c.85.43,1.71.85,2.56,1.28-.12.31-.25.63-.37.94-.9-.28-1.81-.56-2.71-.84.17-.46.35-.92.52-1.38Z" transform="translate(-13030.13 -1137.895)" fill="rgba(20,21,46,0.32)"/>
    <path id="Path_56271" data-name="Path 56271" d="M1676.08,1121.25l3.49-.27c.05.23.1.47.16.7-1.17.38-2.34.75-3.51,1.13-.04-.52-.09-1.04-.13-1.56Z" transform="translate(-13030.13 -1135.959)" fill="rgba(20,21,46,0.32)"/>
    <path id="Path_56274" data-name="Path 56274" d="M533.85,1022.77c.89.51,1.79,1.01,2.68,1.52-.2.34-.4.68-.61,1.02-.88-.54-1.75-1.09-2.63-1.63.18-.3.37-.61.55-.91Z" transform="translate(-13030.13 -1107.25)" fill="rgba(20,21,46,0.32)"/>
    <path id="Path_56277" data-name="Path 56277" d="M384.92,1410.24c1.13.21,2.26.43,3.39.64-.05.35-.1.71-.16,1.06-1.15-.11-2.29-.23-3.44-.34.07-.45.14-.91.2-1.36Z" transform="translate(-13030.13 -1256.253)" fill="rgba(20,21,46,0.32)"/>
    <path id="Path_56278" data-name="Path 56278" d="M237.25,1529.69h-7.7c.02-.42.05-.84.07-1.26l7.63,1.26h0Z" transform="translate(-13030.13 -1256.253)" fill="rgba(20,21,46,0.32)"/>
    <path id="Path_56280" data-name="Path 56280" d="M952.92,1051.52c-.9-.46-1.79-.92-2.69-1.38.07-.25.14-.5.2-.75,1.01.23,2.02.46,3.04.69-.18.48-.37.96-.55,1.44Z" transform="translate(-13030.13 -1115.009)" fill="rgba(20,21,46,0.32)"/>
    <path id="Path_56283" data-name="Path 56283" d="M21.51,1232.96c1.01.14,2.02.28,3.02.41-.02.32-.05.65-.07.97H21.48c0-.46.02-.92.03-1.38Z" transform="translate(-13030.13 -1168.703)" fill="rgba(20,21,46,0.32)"/>
    <path id="Path_56287" data-name="Path 56287" d="M1827.24,1448.77c.84.4,1.67.8,2.51,1.19-.08.27-.16.55-.25.82-.9-.2-1.81-.39-2.71-.59.15-.48.3-.95.45-1.43Z" transform="translate(-13030.13 -1256.253)" fill="rgba(20,21,46,0.32)"/>
    <path id="Path_56292" data-name="Path 56292" d="M1785.14,952.24c1-.51,2-1.03,3.01-1.54.12.24.24.48.35.72-1.01.49-2.02.99-3.03,1.48Z" transform="translate(-13030.13 -1086.071)" fill="rgba(20,21,46,0.32)"/>
    <path id="Path_56293" data-name="Path 56293" d="M426.74,990.98c.9.39,1.8.79,2.7,1.18-.12.3-.24.59-.37.89-.91-.36-1.83-.73-2.74-1.09.14-.33.27-.66.41-.98Z" transform="translate(-13030.13 -1097.872)" fill="rgba(20,21,46,0.32)"/>
    <path id="Path_56294" data-name="Path 56294" d="M1860.71,992.57c.86.47,1.73.93,2.59,1.4l-.54.99c-.85-.49-1.7-.97-2.56-1.46l.51-.93Z" transform="translate(-13030.13 -1098.373)" fill="rgba(20,21,46,0.32)"/>
    <path id="Path_56296" data-name="Path 56296" d="M119.4,1024.65c-.95.46-1.57.77-2.2,1.07-.13-.5-.5-1.1-.33-1.48a1.934,1.934,0,0,1,1.29-.94C118.41,1023.26,118.79,1023.96,119.4,1024.65Z" transform="translate(-13030.13 -1107.391)" fill="rgba(20,21,46,0.32)"/>
    <path id="Path_56297" data-name="Path 56297" d="M1031.77,1027.29c.09-1.01.18-2.02.26-3.04.28.03.55.05.83.08l-.3,3.03c-.26-.02-.53-.05-.79-.07Z" transform="translate(-13030.13 -1107.752)" fill="rgba(20,21,46,0.32)"/>
    <path id="Path_56298" data-name="Path 56298" d="M1017.59,1048.15c-.65-.85-1.29-1.33-1.23-1.7a1.628,1.628,0,0,1,1.15-1.1c.43,0,1.2.67,1.21,1.05,0,.5-.6,1-1.13,1.75Z" transform="translate(-13030.13 -1113.908)" fill="rgba(20,21,46,0.32)"/>
    <path id="Path_56300" data-name="Path 56300" d="M12.59,1096.2c.88,1.74,1.12,2.21,1.36,2.67a4.008,4.008,0,0,1-1.37.37c-.25-.02-.64-.56-.64-.85a10.444,10.444,0,0,1,.65-2.19Z" transform="translate(-13030.13 -1128.869)" fill="rgba(20,21,46,0.32)"/>
    <path id="Path_56301" data-name="Path 56301" d="M1748.04,1113.17l3.03-.66c.06.38.11.75.17,1.13l-3.09.27c-.04-.25-.08-.49-.11-.74Z" transform="translate(-13030.13 -1133.411)" fill="rgba(20,21,46,0.32)"/>
    <path id="Path_56303" data-name="Path 56303" d="M1264.56,1130.52c.24.97.47,1.94.71,2.91-.28.08-.56.17-.84.25l-.93-2.88c.35-.1.71-.19,1.06-.29Z" transform="translate(-13030.13 -1138.961)" fill="rgba(20,21,46,0.32)"/>
    <path id="Path_56306" data-name="Path 56306" d="M1331.72,1169.07l3.12-.61a7.024,7.024,0,0,1-1.08,1.37c-.16.12-.7-.24-2.03-.76Z" transform="translate(-13030.13 -1149.805)" fill="rgba(20,21,46,0.32)"/>
    <path id="Path_56307" data-name="Path 56307" d="M455.54,1190.29c-.84.22-1.42.55-1.88.43-.31-.08-.52-.79-.62-1.24-.02-.1.73-.57.94-.48a8.593,8.593,0,0,1,1.56,1.29Z" transform="translate(-13030.13 -1155.884)" fill="rgba(20,21,46,0.32)"/>
    <path id="Path_56314" data-name="Path 56314" d="M410.42,1297.93h4.17c0,.19,0,.37.01.56h-4.17v-.56Z" transform="translate(-13030.13 -1187.566)" fill="rgba(20,21,46,0.32)"/>
    <path id="Path_56318" data-name="Path 56318" d="M23.35,1379.59c.61.83,1.03,1.4,1.46,1.97-.46.2-.99.63-1.37.53a2.158,2.158,0,0,1-1.23-1.09c-.09-.18.58-.73,1.15-1.41Z" transform="translate(-13030.13 -1256.253)" fill="rgba(20,21,46,0.32)"/>
    <path id="Path_56320" data-name="Path 56320" d="M1298.98,1097.66c-.12.38-.23.75-.35,1.12-.41-.22-.82-.45-1.23-.67.21-.34.35-.8.66-.97.17-.09.61.32.92.51Z" transform="translate(-13030.13 -1128.94)" fill="rgba(20,21,46,0.32)"/>
    <path id="Path_56322" data-name="Path 56322" d="M174.93,1082.23a6.59,6.59,0,0,1-.45,1.27,7.773,7.773,0,0,1-1.53-.43c.13-.35.21-.96.4-.99a5.618,5.618,0,0,1,1.59.15Z" transform="translate(-13030.13 -1124.493)" fill="rgba(20,21,46,0.32)"/>
    <path id="Path_56323" data-name="Path 56323" d="M1350.47,1049.8c-.76.45-1.23.73-1.7,1.01a4.352,4.352,0,0,1-.51-1.36c-.01-.21.59-.69.78-.63a6.3,6.3,0,0,1,1.43.98Z" transform="translate(-13030.13 -1114.823)" fill="rgba(20,21,46,0.32)"/>
    <path id="Path_56324" data-name="Path 56324" d="M20.03,1051.03c-.25-.27-.68-.54-.68-.82,0-.26.44-.53.69-.8.25.27.7.54.7.81s-.45.53-.7.8Z" transform="translate(-13030.13 -1114.949)" fill="rgba(20,21,46,0.32)"/>
    <path id="Path_56326" data-name="Path 56326" d="M1504.17,1032.97c-.54.16-1.04.3-1.53.44-.02-.35-.18-.8-.03-1.02a1.3,1.3,0,0,1,.99-.45c.17,0,.31.54.57,1.03Z" transform="translate(-13030.13 -1109.811)" fill="rgba(20,21,46,0.32)"/>
    <path id="Path_56329" data-name="Path 56329" d="M1309.22,1032.93c-.45.41-.74.66-1.02.92a4.271,4.271,0,0,1-.66-1.29c-.04-.25.39-.57.6-.87.34.39.68.78,1.08,1.23Z" transform="translate(-13030.13 -1109.821)" fill="rgba(20,21,46,0.32)"/>
    <path id="Path_56330" data-name="Path 56330" d="M409.82,975.68v2.69c-.22.02-.43.03-.65.05-.07-.9-.15-1.8-.22-2.7C409.24,975.71,409.53,975.69,409.82,975.68Z" transform="translate(-13030.13 -1093.453)" fill="rgba(20,21,46,0.32)"/>
    <path id="Path_56332" data-name="Path 56332" d="M1809.49,1436.45c-.13-.91-.27-1.83-.4-2.74.33-.05.66-.09.99-.14.09.93.17,1.85.26,2.78l-.84.1Z" transform="translate(-13030.13 -1256.253)" fill="rgba(20,21,46,0.32)"/>
    <path id="Path_56335" data-name="Path 56335" d="M171.33,1241.09h-2.35a2.439,2.439,0,0,0-.01-.27l2.35-.11C171.32,1240.84,171.32,1240.96,171.33,1241.09Z" transform="translate(-13030.13 -1170.781)" fill="rgba(20,21,46,0.32)"/>
    <path id="Path_56337" data-name="Path 56337" d="M89.58,1238.64c-.58-.33-.92-.52-1.26-.71a5.039,5.039,0,0,1,1.1-1.11c.18-.1.65.34.99.53-.28.43-.56.86-.84,1.28Z" transform="translate(-13030.13 -1169.917)" fill="rgba(20,21,46,0.32)"/>
    <path id="Path_56341" data-name="Path 56341" d="M93.76,1233.53c-.36-.14-.72-.28-1.08-.43.23-.33.47-.94.67-.92a4.118,4.118,0,0,1,1.31.59c-.3.25-.6.5-.9.76Z" transform="translate(-13030.13 -1168.469)" fill="rgba(20,21,46,0.32)"/>
    <path id="Path_56343" data-name="Path 56343" d="M64.81,1223.07c.3.22.6.44.89.65a5.616,5.616,0,0,1-1.05.22c-.17,0-.35-.2-.53-.31.23-.19.46-.37.69-.56Z" transform="translate(-13030.13 -1165.709)" fill="rgba(20,21,46,0.32)"/>
    <path id="Path_56348" data-name="Path 56348" d="M1323.01,1168.26c.12-.15.24-.31.35-.46a5,5,0,0,1,.65.74c.04.05-.21.29-.33.45-.23-.24-.45-.48-.68-.72Z" transform="translate(-13030.13 -1149.578)" fill="rgba(20,21,46,0.32)"/>
    <path id="Path_56350" data-name="Path 56350" d="M609.65,1166.73c.86.12,1.72.25,2.58.37-.04.27-.09.54-.13.81l-2.56-.45c.04-.25.08-.49.11-.74Z" transform="translate(-13030.13 -1149.261)" fill="rgba(20,21,46,0.32)"/>
    <path id="Path_56355" data-name="Path 56355" d="M616.92,1160.31a7.212,7.212,0,0,1-.6,1.1,13.923,13.923,0,0,1-1.56-.75c.19-.33.42-.95.55-.93a7.356,7.356,0,0,1,1.6.58Z" transform="translate(-13030.13 -1147.295)" fill="rgba(20,21,46,0.32)"/>
    <path id="Path_56360" data-name="Path 56360" d="M316.17,1158.04c-.37.4-.69,1.02-1.13,1.11-.31.07-.77-.57-1.17-.9a9.615,9.615,0,0,1,1.42-1C315.4,1157.2,315.77,1157.68,316.17,1158.04Z" transform="translate(-13030.13 -1146.604)" fill="rgba(20,21,46,0.32)"/>
    <path id="Path_56361" data-name="Path 56361" d="M1629.3,1120.38c.28.24.57.47.85.7-.2.18-.45.53-.58.49a3.884,3.884,0,0,1-.91-.58Z" transform="translate(-13030.13 -1135.686)" fill="rgba(20,21,46,0.32)"/>
    <path id="Path_56363" data-name="Path 56363" d="M1805.63,1118.1c-.52.38-.95.83-1.09.76a6.232,6.232,0,0,1-1.2-1.05c.31-.19.68-.6.93-.54a5.235,5.235,0,0,1,1.36.83Z" transform="translate(-13030.13 -1134.835)" fill="rgba(20,21,46,0.32)"/>
    <path id="Path_56364" data-name="Path 56364" d="M1870.57,1117.14c.28-.45.51-1.02.64-.99a7.792,7.792,0,0,1,1.57.57c-.23.39-.5,1.14-.68,1.12a5.325,5.325,0,0,1-1.53-.69Z" transform="translate(-13030.13 -1134.521)" fill="rgba(20,21,46,0.32)"/>
    <path id="Path_56366" data-name="Path 56366" d="M958.47,1111.04c-.19.49-.31.79-.43,1.1a7.861,7.861,0,0,1-1.26-1.03c-.08-.1.28-.57.44-.88.43.27.85.55,1.25.8Z" transform="translate(-13030.13 -1132.819)" fill="rgba(20,21,46,0.32)"/>
    <path id="Path_56377" data-name="Path 56377" d="M1102.19,681.81c-.14-.48-.29-.96-.43-1.43l-2.73,1.35c.14.32.27.63.41.95l2.76-.87Z" transform="translate(-13030.13 -1006.124)" fill="rgba(20,21,46,0.32)"/>
    <path id="Path_56378" data-name="Path 56378" d="M1180.08,683.19c-.51-.31-.99-.8-1.47-.81-.3,0-.62.71-.93,1.11a9.147,9.147,0,0,0,1.63.6c.17.03.43-.48.77-.9Z" transform="translate(-13030.13 -1006.124)" fill="rgba(20,21,46,0.32)"/>
    <path id="Path_56391" data-name="Path 56391" d="M1102.19,681.81l-2.76.87c-.14-.32-.27-.63-.41-.95l2.73-1.35c.14.48.29.96.43,1.43Z" transform="translate(-13030.13 -1006.124)" fill="rgba(20,21,46,0.32)"/>
    <path id="Path_56392" data-name="Path 56392" d="M1180.08,683.19c-.34.41-.6.92-.77.9a7.827,7.827,0,0,1-1.63-.6c.31-.39.63-1.11.93-1.11.48,0,.96.5,1.47.81Z" transform="translate(-13030.13 -1006.124)" fill="rgba(20,21,46,0.32)"/>
    <path id="Path_56433" data-name="Path 56433" d="M1293.83,1488.14q5,3.34,7.17,0Z" transform="translate(-13030.13 -1256.253)" fill="rgba(20,21,46,0.32)"/>
    <path id="Path_56436" data-name="Path 56436" d="M1292.8,1469.97c-.01-.3-.02-.59-.03-.89h-5.47c.02.44.04.89.07,1.33,1.81-.15,3.62-.29,5.44-.44Z" transform="translate(-13030.13 -1256.253)" fill="rgba(20,21,46,0.32)"/>
    <path id="Path_56440" data-name="Path 56440" d="M1305.5,1384.01c-.72,2.29-1.12,2.88-.99,3.32.12.42.79.67,1.22,1a4.93,4.93,0,0,0,.66-1.57A11.5,11.5,0,0,0,1305.5,1384.01Z" transform="translate(-13030.13 -1256.253)" fill="rgba(20,21,46,0.32)"/>
    <path id="Path_56441" data-name="Path 56441" d="M1280.74,1478.83a6.744,6.744,0,0,0-.89-1.49c-.16-.16-.69.06-1.06.11a7.215,7.215,0,0,0,.65,1.56C1279.53,1479.14,1280.13,1478.93,1280.74,1478.83Z" transform="translate(-13030.13 -1256.253)" fill="rgba(20,21,46,0.32)"/>
    <path id="Path_56442" data-name="Path 56442" d="M1293.83,1488.14H1301Q1298.83,1491.48,1293.83,1488.14Z" transform="translate(-13030.13 -1256.253)" fill="rgba(20,21,46,0.32)"/>
    <path id="Path_56445" data-name="Path 56445" d="M1292.8,1469.97c-1.81.15-3.62.29-5.44.44-.02-.44-.04-.89-.07-1.33h5.47c.01.3.02.59.03.89Z" transform="translate(-13030.13 -1256.253)" fill="rgba(20,21,46,0.32)"/>
    <path id="Path_56449" data-name="Path 56449" d="M1305.5,1384.01a12.026,12.026,0,0,1,.89,2.75,4.711,4.711,0,0,1-.66,1.57c-.43-.33-1.1-.58-1.22-1C1304.38,1386.89,1304.78,1386.29,1305.5,1384.01Z" transform="translate(-13030.13 -1256.253)" fill="rgba(20,21,46,0.32)"/>
    <path id="Path_56450" data-name="Path 56450" d="M1280.74,1478.83c-.61.09-1.21.31-1.3.18a7.219,7.219,0,0,1-.65-1.56c.36-.05.9-.27,1.06-.11A6.6,6.6,0,0,1,1280.74,1478.83Z" transform="translate(-13030.13 -1256.253)" fill="rgba(20,21,46,0.32)"/>
    <path id="Path_56457" data-name="Path 56457" d="M1006.66,1512.7c.11.37.23.73.34,1.1,1.27-.39,2.54-.79,3.82-1.18-.11-.35-.22-.7-.32-1.06-1.28.38-2.55.76-3.83,1.13Z" transform="translate(-13030.13 -1256.253)" fill="rgba(20,21,46,0.32)"/>
    <path id="Path_56460" data-name="Path 56460" d="M982.58,1529.42c-.07.45-.14.91-.2,1.36,1.15.11,2.29.23,3.44.34.05-.35.1-.71.16-1.06-1.13-.21-2.26-.43-3.39-.64Z" transform="translate(-13030.13 -1256.253)" fill="rgba(20,21,46,0.32)"/>
    <path id="Path_56463" data-name="Path 56463" d="M1162.5,1514.79c-1.04-.71-1.47-1.25-1.91-1.25-.54,0-1.07.46-1.61.72.29.46.56,1.29.87,1.3a9.957,9.957,0,0,0,2.64-.76Z" transform="translate(-13030.13 -1256.253)" fill="rgba(20,21,46,0.32)"/>
    <path id="Path_56471" data-name="Path 56471" d="M1006.66,1512.7c1.28-.38,2.55-.76,3.83-1.13.11.35.22.7.32,1.06-1.27.39-2.54.79-3.82,1.18-.11-.37-.23-.73-.34-1.1Z" transform="translate(-13030.13 -1256.253)" fill="rgba(20,21,46,0.32)"/>
    <path id="Path_56474" data-name="Path 56474" d="M982.58,1529.42c1.13.21,2.26.43,3.39.64-.05.35-.1.71-.16,1.06-1.15-.11-2.29-.23-3.44-.34.07-.45.14-.91.2-1.36Z" transform="translate(-13030.13 -1256.253)" fill="rgba(20,21,46,0.32)"/>
    <path id="Path_56477" data-name="Path 56477" d="M1162.5,1514.79a9.581,9.581,0,0,1-2.64.76c-.31-.01-.58-.84-.87-1.3a4.5,4.5,0,0,1,1.61-.72c.43,0,.87.54,1.91,1.25Z" transform="translate(-13030.13 -1256.253)" fill="rgba(20,21,46,0.32)"/>
    <path id="Path_56479" data-name="Path 56479" d="M983.49,1330.47c0,.7.02,1.4.02,2.1,1.18-.16,2.36-.3,3.52-.52a2.684,2.684,0,0,0-.07-1.09c-1.15-.22-2.32-.34-3.48-.48Z" transform="translate(-13030.13 -1197.437)" fill="rgba(20,21,46,0.32)"/>
    <path id="Path_56480" data-name="Path 56480" d="M1055.95,1323.53c0-.29.01-.58.02-.86h-4.74c0,.13,0,.25.01.38l4.7.48Z" transform="translate(-13030.13 -1194.875)" fill="rgba(20,21,46,0.32)"/>
    <path id="Path_56481" data-name="Path 56481" d="M1135.89,1283.48l-.18,1.14,4.55.81c.07-.42.13-.84.2-1.26l-4.56-.69Z" transform="translate(-13030.13 -1183.625)" fill="rgba(20,21,46,0.32)"/>
    <path id="Path_56482" data-name="Path 56482" d="M1105.35,1334.79c.04.52.09,1.04.13,1.56,1.17-.38,2.34-.75,3.51-1.13-.05-.23-.1-.47-.16-.7l-3.49.27Z" transform="translate(-13030.13 -1198.564)" fill="rgba(20,21,46,0.32)"/>
    <path id="Path_56483" data-name="Path 56483" d="M1289.98,1206.11l-.51.93c.85.49,1.7.97,2.56,1.46l.54-.99c-.86-.47-1.73-.93-2.59-1.4Z" transform="translate(-13030.13 -1161.018)" fill="rgba(20,21,46,0.32)"/>
    <path id="Path_56484" data-name="Path 56484" d="M1177.31,1326.71c.04.25.08.49.11.74l3.09-.27c-.06-.38-.11-.75-.17-1.13l-3.03.66Z" transform="translate(-13030.13 -1195.985)" fill="rgba(20,21,46,0.32)"/>
    <path id="Path_56485" data-name="Path 56485" d="M933.44,1246.51c-.26-.48-.4-1.02-.57-1.03a1.3,1.3,0,0,0-.99.45c-.16.22,0,.67.03,1.02.5-.14.99-.29,1.53-.44Z" transform="translate(-13030.13 -1172.389)" fill="rgba(20,21,46,0.32)"/>
    <path id="Path_56486" data-name="Path 56486" d="M1058.56,1333.92l-.64.61a3.583,3.583,0,0,0,.91.58c.13.04.38-.32.58-.49Z" transform="translate(-13030.13 -1198.244)" fill="rgba(20,21,46,0.32)"/>
    <path id="Path_56487" data-name="Path 56487" d="M1234.9,1331.64a5.235,5.235,0,0,0-1.36-.83c-.25-.06-.61.34-.93.54a5.915,5.915,0,0,0,1.2,1.05c.14.08.57-.38,1.09-.76Z" transform="translate(-13030.13 -1197.424)" fill="rgba(20,21,46,0.32)"/>
    <path id="Path_56488" data-name="Path 56488" d="M1299.84,1330.68a5.176,5.176,0,0,0,1.53.69c.18.02.45-.72.68-1.12a7.8,7.8,0,0,0-1.57-.57c-.13-.02-.36.55-.64.99Z" transform="translate(-13030.13 -1197.113)" fill="rgba(20,21,46,0.32)"/>
    <path id="Path_56489" data-name="Path 56489" d="M983.49,1330.47c1.16.14,2.33.26,3.48.48a2.885,2.885,0,0,1,.07,1.09c-1.16.22-2.34.37-3.52.52,0-.7-.02-1.4-.02-2.1Z" transform="translate(-13030.13 -1197.434)" fill="rgba(20,21,46,0.32)"/>
    <path id="Path_56490" data-name="Path 56490" d="M1055.95,1323.53l-4.7-.48c0-.13,0-.25-.01-.38h4.74c0,.29-.01.58-.02.86Z" transform="translate(-13030.13 -1194.875)" fill="rgba(20,21,46,0.32)"/>
    <path id="Path_56491" data-name="Path 56491" d="M1135.89,1283.48l4.56.69c-.07.42-.13.84-.2,1.26l-4.55-.81.18-1.14Z" transform="translate(-13030.13 -1183.625)" fill="rgba(20,21,46,0.32)"/>
    <path id="Path_56492" data-name="Path 56492" d="M1105.35,1334.79l3.49-.27c.05.23.1.47.16.7-1.17.38-2.34.75-3.51,1.13-.04-.52-.09-1.04-.13-1.56Z" transform="translate(-13030.13 -1198.563)" fill="rgba(20,21,46,0.32)"/>
    <path id="Path_56493" data-name="Path 56493" d="M1289.98,1206.11c.86.47,1.73.93,2.59,1.4l-.54.99c-.85-.49-1.7-.97-2.56-1.46l.51-.93Z" transform="translate(-13030.13 -1161.018)" fill="rgba(20,21,46,0.32)"/>
    <path id="Path_56494" data-name="Path 56494" d="M1177.31,1326.71l3.03-.66c.06.38.11.75.17,1.13l-3.09.27c-.04-.25-.08-.49-.11-.74Z" transform="translate(-13030.13 -1195.985)" fill="rgba(20,21,46,0.32)"/>
    <path id="Path_56495" data-name="Path 56495" d="M933.44,1246.51c-.54.16-1.04.3-1.53.44-.02-.35-.18-.8-.03-1.02a1.3,1.3,0,0,1,.99-.45c.17,0,.31.54.57,1.03Z" transform="translate(-13030.13 -1172.389)" fill="rgba(20,21,46,0.32)"/>
    <path id="Path_56496" data-name="Path 56496" d="M1058.56,1333.92c.28.24.57.47.85.7-.2.18-.45.53-.58.49a3.884,3.884,0,0,1-.91-.58Z" transform="translate(-13030.13 -1198.244)" fill="rgba(20,21,46,0.32)"/>
    <path id="Path_56497" data-name="Path 56497" d="M1234.9,1331.64c-.52.38-.95.83-1.09.76a6.232,6.232,0,0,1-1.2-1.05c.31-.19.68-.6.93-.54a5.235,5.235,0,0,1,1.36.83Z" transform="translate(-13030.13 -1197.423)" fill="rgba(20,21,46,0.32)"/>
    <path id="Path_56498" data-name="Path 56498" d="M1299.84,1330.68c.28-.45.51-1.02.64-.99a7.792,7.792,0,0,1,1.57.57c-.23.39-.5,1.14-.68,1.12a5.325,5.325,0,0,1-1.53-.69Z" transform="translate(-13030.13 -1197.116)" fill="rgba(20,21,46,0.32)"/>
  </g>
</svg>
