<svg id="byron-art" xmlns="http://www.w3.org/2000/svg" width="281.291" height="425.8" viewBox="0 0 281.291 425.8">
  <path id="Path_35651" data-name="Path 35651" d="M3760.1,2489.038a6,6,0,0,0-6.676-2.059c-30.877,9.877-37.231,9.138-38.53,8.361-7.551-4.513-24.257-18.431-24.425-18.571a1.623,1.623,0,0,0-2.334.263c-.037.048-.886,1.164-2.221,2.909-25.246-22.186-39.067-41.821-46.365-54.93-7.608-13.665-9.741-22.962-10.195-25.339a221.505,221.505,0,0,0,49.561-18.883,1.222,1.222,0,0,0-.322-2.277c-.032-.006-3.228-.707-8.1-4.728-4.525-3.734-11.452-11.162-18.749-25.35-18.767-36.492-30-49.525-36.62-53.115a1.39,1.39,0,0,0,.179-1.044l-1.238-5.442a32.064,32.064,0,0,0,3.068-4.653c2.515.855,12.528,4.042,21.816,4.042,4.958,0,9.709-.91,13-3.57,9.18-7.432,14.257-35.044,15.2-40.608a12.994,12.994,0,0,0,8.783-5.11c.594-.8,1.139-1.574,1.658-2.307,2.488-3.518,4.131-5.841,7.356-6.532a5.291,5.291,0,0,0,4.2-6.043c-.394-2.472-2.608-4.778-6.671-4.347a12.263,12.263,0,0,0-6.136,2.691c.61-4.662,1.195-12.812-1.045-18.467-1.774-4.48-4.114-5.217-5.481-5.209a5.984,5.984,0,0,0-5.878-4.307,3.937,3.937,0,0,0-3.445,3.485,4.931,4.931,0,0,0-2.875,1.179c-1.289,1.1-2.741,3.424-2.341,8.219a74.618,74.618,0,0,1-.959,19.508c-1.048,5.667.776,12.863,1.188,14.369-1.408,8.1-6.4,28.583-13.32,30.313-7.121,1.784-23.482-7.971-29.441-12.044a70.442,70.442,0,0,0-11.692-9.96,5.329,5.329,0,0,0-2.951-6.829l-1.1-6.737a15.493,15.493,0,0,0,12.305-8.237c1.7-3.086,2.452-8.1,2.6-11.891a7.7,7.7,0,0,0,2.175-5.459,3.121,3.121,0,0,0-1.074-2.614,2.963,2.963,0,0,0-1.914-.5,1.229,1.229,0,0,0-.014-.219,17.872,17.872,0,0,0-2.055-5.887c1.449-.759,3.145-1.623,5.013-2.577,18.961-9.665,35.9-18.934,34.981-26.087a1.777,1.777,0,0,0-1.084-1.4c-4.11-1.84-27.912,8.417-35.108,11.6-4.448,1.97-8.819,3.988-13.045,6.016-.878-1.138-3.125-3.452-7.828-5.132-5.936-2.12-13.7-1.115-19.308,2.5a16.412,16.412,0,0,0-7.271,9.715c-4.214-1.605-9.724-2.423-16.921-2.588a89.12,89.12,0,0,1-18.524-2.175.992.992,0,0,0-1.191,1.283,10.631,10.631,0,0,0,1.712,2.882,37.2,37.2,0,0,0-11.919.538l-1.211.223c-14.872,2.738-26.619,4.9-36.045,2.058a.993.993,0,0,0-1.238,1.237c.049.162,5.067,16.191,21.018,18.967,8.062,1.4,15.942.941,20.732-.974a15.026,15.026,0,0,1-1.443,1.665.993.993,0,0,0,.7,1.7l.059,0c.19-.011,19.165-1.194,32.923-6.215a37.821,37.821,0,0,0,4.01-1.723c-2.359,1.587-4.6,3.083-6.691,4.477-14.758,9.843-22.165,14.783-21.99,18.9a3.939,3.939,0,0,0,2.383,3.25,5,5,0,0,0,2.393.486c6.527,0,20.359-6.829,29.154-11.557a4.512,4.512,0,0,0,.827,3.524l2.682,3.6a3.865,3.865,0,0,0-1.9.426c-.7.369-2.878,1.886-1.644,5.936,1.621,5.315,4.871,17.637,5.746,20.967-2.448,2.183-8.644,11.279-7.013,46.874a1.189,1.189,0,0,0,.077.359,14.459,14.459,0,0,0,2.088,10.428,11.967,11.967,0,0,0,1.909,2.175c-4.793,32.758-13.242,45.184-14.19,46.492a1.117,1.117,0,0,0-.14.12c-.456.479-11.16,11.814-9.634,19.516a3.98,3.98,0,0,0,1.509,2.654c-2.624,3.429-7.8,11.061-7.013,16.981.307,2.3,1.445,2.979,2.347,3.141a2.864,2.864,0,0,0,.548.056c1.045,0,3.222-.637,7.327-5.389a15.052,15.052,0,0,0-.5,7.946c.593,2.151,1.772,2.615,2.656,2.625h.023c2.2,0,4.851-3.239,7.3-7.52-.375,3.7-.148,7.219,1.26,9.749.975,1.752,2.08,2.2,2.96,2.2a2.619,2.619,0,0,0,.488-.046c2.236-.415,4.182-3.885,5.693-8.068a15.646,15.646,0,0,0,2.094,6.7c1.054,1.627,2.138,2.073,3.011,2.073a2.71,2.71,0,0,0,.7-.094c1.766-.478,3.317-2.832,4.614-6.994a13.2,13.2,0,0,0,2.371,6.063,3.8,3.8,0,0,0,2.945,1.762,2.831,2.831,0,0,0,.985-.181c3.284-1.214,5.151-8.716,5.687-15.686,2.267-.348,4.8-.688,7.472-1.045,3.083-.411,6.434-.859,10.029-1.4,8.916,32.579,9.609,55.99,10.066,71.531.094,3.2.181,6.078.333,8.581-.46-.006-.875-.015-1.231-.03a1.625,1.625,0,0,0-1.689,1.652c0,.192.317,19.4-1.419,32.791-1.444,11.142-3.113,26.029-3.669,31.047a.39.39,0,0,0-.039,0,.84.84,0,0,0-.146,1.668l-.008.077a1.612,1.612,0,0,0,1.08,1.705c0,.007,0,.015,0,.022a.84.84,0,0,0,1.651.2l1.94.209a.833.833,0,0,0,1.333.143l4.524.488a1.615,1.615,0,0,0,1.263-.417.83.83,0,0,0,.547.2.839.839,0,0,0,.031-1.678l1.53-13.61c1,1.6,2.254,3.5,3.67,5.406a41.108,41.108,0,0,0,6.112,6.793.845.845,0,0,0,.543.442,18.162,18.162,0,0,0,1.523,1.1.839.839,0,1,0,1.293.746,8.254,8.254,0,0,0,3.675.964h.09c3.033-.041,6.942.043,11.081.135,3.951.087,8.307.184,12.671.184a146.148,146.148,0,0,0,16.152-.725.834.834,0,0,0,1.322-.194,5.5,5.5,0,0,0,2.031-.863.824.824,0,0,0-.137.475.842.842,0,1,0,.844-.857.823.823,0,0,0-.289.054,5.356,5.356,0,0,0,1.213-1.5.84.84,0,1,0,.444-1.1c.044-.148.1-.29.132-.443a6.006,6.006,0,0,0-2.742-6.427c-13.541-8.468-29.562-23.642-30.205-27.538-1.433-8.68-1.6-30.423-1.6-30.641a1.621,1.621,0,0,0-.51-1.171,1.588,1.588,0,0,0-1.2-.439c-.065,0-1.723.09-4.281.214a.8.8,0,0,0-.473-.445c-.81-4.319-1.651-8.582-2.525-12.738a196.682,196.682,0,0,0,28.1,30.554c-.781.934-1.457,1.72-1.977,2.288a1.624,1.624,0,0,0,.17,2.356c.149.122,15.012,12.289,24.115,22.265,7.156,7.843,16.739,18,20.7,22.192a.838.838,0,1,0,1.1,1.166l.731.77a1.624,1.624,0,0,0,1.137.505h.041a1.623,1.623,0,0,0,1.121-.449l6.617-6.3a1.626,1.626,0,0,0,.06-2.292l-9.7-10.276c6.872,1.013,18.695,1.919,22.695-2.947,6.184-7.522,16.432-22.931,23.94-34.533A5.428,5.428,0,0,0,3760.1,2489.038Zm-118.328-22.7a45.487,45.487,0,0,0,16.31-10.949q3.8,4.441,8.257,9.154a40.257,40.257,0,0,1-16.2,12.632C3647.09,2473.51,3644.306,2469.886,3641.768,2466.338Zm-30.9-55.419c.166-.027.325-.056.487-.084a.791.791,0,0,0,.75.59.8.8,0,0,0,.807-.785c0-.029-.013-.054-.015-.082l.032-.006c.125.532.257,1.084.4,1.668a.772.772,0,0,0,.279,1.1c.577,2.222,1.306,4.771,2.22,7.6-.811.146-1.68.293-2.59.437Q3612.2,2416.313,3610.87,2410.919Zm5.742,12.331c1.209,3.538,2.7,7.455,4.517,11.675-1.38.314-2.813.539-4.8.848l-.465.072q-.877-5.766-2.13-12.1C3614.75,2423.579,3615.715,2423.414,3616.613,2423.25Zm31.339,19.336c-9.075,7.224-15.4,8.645-15.854,8.739-2.407-4.179-4.459-8.136-6.2-11.793,2.122-.455,7.655-2.018,15.307-6.932C3643.135,2435.693,3645.37,2439.032,3647.951,2442.585Zm-20.04,6.261a40.522,40.522,0,0,1-10.3.96c-.359-3.635-.814-7.483-1.4-11.549l.482-.075c2.255-.351,3.819-.594,5.429-.987.1.228.2.453.306.683C3623.972,2441.264,3625.787,2444.944,3627.912,2448.846Zm-8.927,3.427a40.857,40.857,0,0,0,10.139-1.235c2.09,3.71,4.465,7.605,7.142,11.624a62.634,62.634,0,0,1-17.615,1.234c-.18-3.592-.431-7.469-.8-11.641Q3618.407,2452.272,3618.985,2452.273Zm19.111,13.416c.653,2.964,1.29,6,1.912,9.075a.8.8,0,0,0,.044,1.591.774.774,0,0,0,.269-.052q.485,2.431.957,4.894a.76.76,0,0,0,.193,1.029c.076.406.151.814.227,1.22l-.865.04a.789.789,0,0,0-1.569.072l-2.124.094c0-.014.009-.026.009-.039a.8.8,0,0,0-1.6-.02.814.814,0,0,0,.011.127c-.713.03-1.435.061-2.162.09a.774.774,0,0,0,.041-.194.8.8,0,0,0-1.6-.026.774.774,0,0,0,.047.28c-.75.03-1.5.058-2.246.085a.771.771,0,0,0,.089-.352.8.8,0,0,0-1.6,0,.785.785,0,0,0,.111.4c-.812.028-1.613.055-2.4.079a.772.772,0,0,0,.175-.48.8.8,0,1,0-1.4.517c-.889.026-1.748.048-2.567.066a.8.8,0,1,0-1.344-.581.783.783,0,0,0,.289.6c-.552.01-1.083.018-1.586.023-.039-.625-.073-1.278-.1-1.954a.772.772,0,0,0,.38.115.8.8,0,0,0,.025-1.6.791.791,0,0,0-.463.136q-.048-1.237-.091-2.569a.787.787,0,0,0,.494.179.8.8,0,1,0-.531-1.4q-.023-.77-.046-1.566c-.083-2.82-.174-5.9-.319-9.245,1.428.091,2.829.143,4.171.143a56.14,56.14,0,0,0,14.758-1.707l.384.559A1.219,1.219,0,0,0,3638.1,2465.689Zm-4.714-12.168c2.151-.59,8.065-2.655,16.016-8.97q3.209,4.3,7.1,8.972c-.007.006-.014.01-.021.017a43.232,43.232,0,0,1-15.8,10.6,1.2,1.2,0,0,0-.338.18C3637.762,2460.609,3635.451,2457,3633.382,2453.52Zm6.541-23c-8.292,5.331-14.006,6.541-15.092,6.731-.043-.094-.089-.19-.131-.283-1.92-4.218-3.507-8.181-4.819-11.806a34.393,34.393,0,0,0,14.411-4.908q1.349,2.736,3.03,5.778Q3638.506,2428.166,3639.923,2430.522Zm-12.6-28.64a.771.771,0,0,0-.366-.107.8.8,0,1,0-.008,1.6.788.788,0,0,0,.655-.37c.129.494.279,1.038.45,1.628a.774.774,0,0,0,.1.329q.388,1.31.929,2.9a.787.787,0,0,0-.217-.05.8.8,0,1,0-.025,1.6.787.787,0,0,0,.657-.362c.913,2.55,2.126,5.562,3.732,8.987a32.239,32.239,0,0,1-14.132,4.744c-.018,0-.033.006-.051.008-1.524-4.441-2.615-8.3-3.384-11.4a.782.782,0,0,0,.17.032.8.8,0,1,0-.505-1.418c-.458-1.952-.775-3.535-.986-4.7a.788.788,0,0,0-.256-1.506c-.074-.482-.108-.749-.11-.767,0-.04-.018-.077-.026-.116l1.1-.2a.791.791,0,0,0,.779.649.8.8,0,0,0,.79-.8.749.749,0,0,0-.027-.131q1.2-.224,2.427-.468a.789.789,0,0,0-.291.6.8.8,0,1,0,1.6,0,.79.79,0,0,0-.569-.747q2.267-.457,4.629-.983a.8.8,0,0,0,1.546-.274.729.729,0,0,0-.014-.073l1.05-.245C3627.051,2400.653,3627.165,2401.2,3627.326,2401.882Zm-42.113-12.779a58.123,58.123,0,0,1-.386-7.684q1.138.13,2.119.222l3.1,19.1a4.757,4.757,0,0,1-.656-.478C3587.33,2398.486,3585.885,2394.625,3585.213,2389.1Zm-5.586,9.2.976-17.334c0-.04,0-.078-.006-.117.588.091,1.158.172,1.713.248a1.122,1.122,0,0,0-.02.225C3582.406,2388.829,3581.05,2395.273,3579.626,2398.305Zm-31.439,13.338c-.247-5.654,4.416-13.5,5.848-15.772a2.691,2.691,0,0,0,1.443,1.021Zm-1.762-22.435a1.106,1.106,0,0,0-.2-.089l10.3-15.538c.563.3,1.136.589,1.727.873C3554.958,2381.367,3549.472,2387.736,3546.425,2389.208Zm8.863,4.215c-2.051-6.4,4.806-17.352,4.876-17.463a1.1,1.1,0,0,0,.167-.566c.415.178.833.355,1.261.526Zm2.2.458,6.186-17.17q.9.324,1.829.631C3563.2,2384.9,3559.725,2391.564,3557.488,2393.881Zm5.431-4.24.048-.093c0,.035,0,.071-.007.107Zm4.547-10.507a1.1,1.1,0,0,0,.022-.689c.048-.15.094-.3.138-.438.645.192,1.3.378,1.964.558l-3.331,18.446C3563.136,2391.112,3567.421,2379.256,3567.466,2379.135Zm.874,18.877,3.411-18.89q.959.233,1.945.45a1.1,1.1,0,0,0-.2.537C3572.8,2388.992,3570.18,2396.194,3568.34,2398.011Zm6.863-3.161c-1.068-5.989.962-13.828.989-13.929a1.111,1.111,0,0,0,0-.545,1.129,1.129,0,0,0,.152.014,1.177,1.177,0,0,0,.208-.018,1.225,1.225,0,0,0,.388-.142c.161.03.319.063.482.093.351.064.694.123,1.038.182a1.137,1.137,0,0,0-.079.34l-1.06,18.833a4.973,4.973,0,0,1-.437-.516,9.964,9.964,0,0,1-1.618-3.991A1.1,1.1,0,0,0,3575.2,2394.85Zm15.619-12.918c1.646,6.978,1.769,13.276,1.121,16.6l-2.712-16.7C3589.885,2381.881,3590.418,2381.912,3590.822,2381.932Zm-.041-2.446a109.037,109.037,0,0,1-13.422-1.671,143.731,143.731,0,0,1,1.326-54.711c.126-.1.253-.194.377-.3a15.171,15.171,0,0,0,4.028-5.881.792.792,0,0,0,.745.561.8.8,0,0,0,.025-1.6.786.786,0,0,0-.422.112,22.576,22.576,0,0,0,.753-2.733.8.8,0,0,0,.45-.7.787.787,0,0,0-.216-.554,29.611,29.611,0,0,0,.355-5.382l.028-1.971a1.364,1.364,0,0,0,.223.019,1.405,1.405,0,0,0,.4-.059l1.357-.408a.763.763,0,0,0-.039.183.8.8,0,1,0,1.34-.575l4.218-1.27q.268,1.548.52,3.142a.791.791,0,0,0,.23,1.51q.191,1.285.369,2.6a.784.784,0,0,0-.261-.056.8.8,0,1,0-.008,1.6.775.775,0,0,0,.453-.16C3596.293,2332.016,3596.391,2357.546,3590.781,2379.486Zm-3.709-84.922-1.931.554a1.389,1.389,0,0,0-.2.093l.258-18.115a85.271,85.271,0,0,1,5.267,16.339Q3588.783,2293.979,3587.072,2294.565Zm36.049-26.15c7.263,3.781,13,5.686,17.125,5.686a10.341,10.341,0,0,0,2.509-.283c4.289-1.072,8.148-6.941,11.471-17.447a128.189,128.189,0,0,0,3.681-15.06,1.214,1.214,0,0,0-.031-.537c-.022-.078-2.255-7.871-1.208-13.533a77.034,77.034,0,0,0,.99-20.145c-.245-2.949.291-5.149,1.51-6.192a2.478,2.478,0,0,1,1.169-.57c-.088,5.017-.279,8.336-.449,11.286-.118,2.044-.229,3.976-.284,6.147a1.2,1.2,0,0,0,1.171,1.232h.031a1.2,1.2,0,0,0,1.2-1.17c.053-2.133.164-4.045.28-6.07.185-3.2.394-6.827.472-12.567.011-.838.21-2.261,1.417-2.388s2.783.965,3.352,2.741c-1.72,1.343-2.627,4.135-2.179,7.2.837,5.726-.587,12.68-.6,12.75a1.2,1.2,0,0,0,2.353.49,45.247,45.247,0,0,0,.626-13.587c-.4-2.738.621-4.922,1.825-5.244,1.124-.3,2.5,1.137,3.5,3.66,2.971,7.5.37,20.6.343,20.729a1.2,1.2,0,0,0,2.128.975c.031-.04,3.149-4,7.2-4.423,2.663-.274,3.837,1.023,4.047,2.335a2.878,2.878,0,0,1-2.332,3.315c-4.141.887-6.2,3.8-8.814,7.495-.51.719-1.045,1.477-1.628,2.265a10.544,10.544,0,0,1-7.883,4.217h0a1.2,1.2,0,0,0-1.187,1.015c-.013.082-1.307,8.263-3.771,17.3-3.217,11.807-6.924,19.672-10.719,22.743-8.164,6.611-27.98.611-32.235-.786,1.5-3.443,2.472-7.685,1.2-11.889a21.928,21.928,0,0,0-2.391-5.128C3618.8,2266.058,3620.893,2267.255,3623.121,2268.414Zm-12.159-7.322c.02.023.04.045.061.066a26.541,26.541,0,0,1,6.034,9.658c2.116,6.983-3.383,14.575-4.963,16.563l-2.974.854c-3.529.841-9.589,2.374-16.325,4.465-2.116-9.018-4.719-16.271-7.45-20.367a1.139,1.139,0,0,0-.077-.094l.036-2.529c4.292-2.207,15.212-8.1,16.142-11.395a6.6,6.6,0,0,0-1.054-5.906,4.572,4.572,0,0,0-.87-.817l.137-.1A68.129,68.129,0,0,1,3610.961,2261.093Zm-15.315-18.826a.9.9,0,0,0-.158-.326l-2.8-3.58a.916.916,0,0,0-.3-.24c.213-.779.4-1.55.563-2.29a16.073,16.073,0,0,0,1.759.156l1.023,6.275Zm15.9-32.6a1.459,1.459,0,0,1,.09.663,5.363,5.363,0,0,1-4.447,5.38,1.219,1.219,0,0,0,.284,2.4,1.2,1.2,0,0,0,.285-.034,9.2,9.2,0,0,0,1.588-.541,24.889,24.889,0,0,1-2.186,8.965,13.3,13.3,0,0,1-13.848,6.909,5.313,5.313,0,0,0-3.1-5.357,4.831,4.831,0,0,0-4.993,1.119.9.9,0,0,0-.169-.546l-2.809-3.844c3.117-4.3,5.988-11.076,5.793-21.36a44.516,44.516,0,0,1,15.122-5.4,14.2,14.2,0,0,1,5.208,7.987c-.206.281-.875.665-2.405.2a1.219,1.219,0,0,0-.71,2.333c.076.022.146.038.219.058-.33.108-.668.22-1.027.339a1.219,1.219,0,0,0,.771,2.313C3607.207,2210.587,3610.922,2209.352,3611.543,2209.665Zm-38.181,5.265a62.876,62.876,0,0,1,12.236-10.056c-.083,8.377-2.349,14.075-4.877,17.833l-1.774-2.426h0a4.527,4.527,0,0,0-5.646-1.394A15.878,15.878,0,0,1,3573.362,2214.93Zm.458,7.842a1.72,1.72,0,1,1-.049.079C3573.787,2222.825,3573.8,2222.8,3573.82,2222.772Zm-3.545-18.287a.979.979,0,0,0-.38-.215c-4.447-1.213-8.984-1.88-16.676-1.2-5.007.443-10.361,1.255-15.538,2.039-9.535,1.445-19.3,2.923-27.782,2.3a283.965,283.965,0,0,0,34.593-4.8c10.276-1.961,19.494-1.74,27.422.644-.186.2-.337.368-.459.51Q3570.856,2204.125,3570.275,2204.485Zm3.68-16.4a20.57,20.57,0,0,1,17.168-2.254,16.7,16.7,0,0,1,5.651,3.2c-12.888,4.557-19.907,9.646-23.225,12.633a16.75,16.75,0,0,0-5.924-4.906A13.9,13.9,0,0,1,3573.955,2188.085Zm-41.054,49.03c-1.094-.6-1.115-1.066-1.121-1.217-.118-2.744,9.16-8.932,20.905-16.765,3.951-2.635,8.428-5.621,13.257-8.933,1.93-1.325,4.024-2.675,6.245-4.039a1.214,1.214,0,0,0,.84-.471s.027-.034.063-.079c25.926-15.719,68.083-32.943,73.517-32.406-.345,6.163-22.771,17.6-33.686,23.159-1.947.993-3.714,1.893-5.2,2.677-.018.009-.032.022-.05.032a14.108,14.108,0,0,0-3.608-3.374,1.218,1.218,0,0,0-.78-.156c-18.366,2.5-31.431,17.4-31.979,18.035a1.215,1.215,0,0,0-.27.542,17.632,17.632,0,0,0,.053,6.4l-2.192,1.752C3556.066,2229.655,3536.514,2239.094,3532.9,2237.115Zm35.949,29.867c-.792,6.292-2.573,19.8-4.7,31.867C3564.113,2279.563,3566.839,2270.81,3568.849,2266.982Zm-4.158,41.917c3.722-17.36,6.989-44.946,7.021-45.223a1.2,1.2,0,0,0-.045-.5l-.113-.368c-.041-.157-4.1-15.679-5.981-21.86-.466-1.526-.3-2.673.45-3.069a1.806,1.806,0,0,1,2.157.573c1.791,2.233,6.344,8.37,6.39,8.433a1.214,1.214,0,0,0,.2.206c-.566,1.131-1.045,2.126-1.4,2.91a1.22,1.22,0,0,0,2.224,1,213.159,213.159,0,0,1,10.214-18.792c1.021-1.605,2.371-2.325,3.525-1.882.986.379,1.817,1.729,1.45,3.893-.777,4.586-3.46,11.4-4.056,12.873l-1.011.627A1.219,1.219,0,0,0,3587,2249.8l7.245-4.49c.028-.018.056-.037.083-.057a2.9,2.9,0,0,1,3.828,4.316l-8.778,6.395a1.22,1.22,0,0,0,1.436,1.971l6.34-4.62a1.262,1.262,0,0,0,.3.019,1.426,1.426,0,0,1,1.044.621,4.1,4.1,0,0,1,.595,3.7c-.423,1.5-7.4,6.083-15.556,10.219a1.219,1.219,0,0,0-.667,1.07l-.535,37.708c.142,6.2-1.68,11.551-4.875,14.313a6.806,6.806,0,0,1-5.7,1.749,8.794,8.794,0,0,1-5.609-3.788C3564.9,2317.072,3563.633,2313.835,3564.691,2308.9Zm3.582,15.147a10.169,10.169,0,0,0,3.085,1.066,8.786,8.786,0,0,0,1.478.125,8.913,8.913,0,0,0,3-.533,147.179,147.179,0,0,0-1.03,52.6c-6.776-1.457-14.377-3.85-20.377-7.776C3556.759,2365.955,3563.876,2353.11,3568.273,2324.046Zm-15.577,47.248c.608.409,1.233.81,1.885,1.2l-10.327,15.577C3543.333,2382.969,3549.53,2374.812,3552.7,2371.294Zm-6.587,20.354a10.557,10.557,0,0,0,4.224-2.52l-11.606,17.832C3538.7,2401.374,3544.234,2393.987,3546.108,2391.647Zm-6.1,17.42,12.737-19.57a12.875,12.875,0,0,0,.172,3.634C3548.706,2401.015,3542.612,2408.065,3540.01,2409.067Zm9.355,5.215,8.785-17.775a1.139,1.139,0,0,0,.109-.4,10.2,10.2,0,0,0,1.656-1.673c-.645,1.783-1.382,4-2.037,6.415C3554.8,2408.041,3551.116,2413.518,3549.365,2414.282Zm10.567-12.489c.044-.166.091-.329.136-.492a75.976,75.976,0,0,0,2.737-7.5,1.1,1.1,0,0,0-.015-.675l.159-.4a15.986,15.986,0,0,0,.493,3.131l-3.923,21.97c-.014-.024-.03-.05-.041-.072C3557.794,2414.727,3557.951,2409.209,3559.931,2401.794Zm1.843,16.056,3.315-18.567a3.326,3.326,0,0,0,2.205,1.378c-.171.958-.39,2.353-.558,3.993C3565.409,2410.7,3563.39,2415.8,3561.775,2417.85Zm7.2-13.091c.367-1.689.648-3.255.83-4.535a1.1,1.1,0,0,0-.052-.51,14.114,14.114,0,0,0,3.119-5.531q.07.549.167,1.087l-2.426,23.1C3568.416,2414.933,3568.525,2409,3568.971,2404.76Zm3.84,13.94,1.962-18.685c.1.161.208.321.322.474a4.76,4.76,0,0,0,1.985,1.687C3576.538,2410.088,3574.474,2416.533,3572.811,2418.7Zm8.4.6c-3.647-4.647-1.844-15.035-1.322-17.623a9.252,9.252,0,0,0,2.455-4.165l-.7,21.946a1.074,1.074,0,0,0,.056.372A4.2,4.2,0,0,1,3581.214,2419.3Zm2.676-.465.714-22.254a14.394,14.394,0,0,0,2.388,4.4C3587.255,2408.248,3585.675,2415.8,3583.89,2418.836Zm12.34-15.728c-2.492.332-4.856.65-7.014.975.013-.422.023-.841.026-1.25a3.32,3.32,0,0,0,1.448.369,2.591,2.591,0,0,0,1.363-.387c1.642-1,2.477-3.92,2.482-8.678a57.819,57.819,0,0,0-1.608-12.976c-.009-.035-.023-.066-.035-.1,4.884-18.459,6.226-41.486,3.781-64.839-.032-.3-.067-.607-.1-.911a.8.8,0,1,0,.31-1.536.78.78,0,0,0-.466.139q-.308-2.664-.674-5.259a.782.782,0,0,0,.024-.118.769.769,0,0,0-.093-.356q-.219-1.529-.456-3.027a.791.791,0,0,0,.549-.743.8.8,0,0,0-.789-.8l-.011,0q-.149-.888-.3-1.763l3.371-1.016a.788.788,0,0,0,.635.347.8.8,0,0,0,.805-.781l7.781-2.343a.809.809,0,0,0-.065.312.8.8,0,0,0,1.6.014.783.783,0,0,0-.378-.673l3.467-1.044a5.541,5.541,0,0,1,.905.23.8.8,0,0,0,.736.472.783.783,0,0,0,.249-.054q.479.238.987.555a.792.792,0,0,0,.608,1.3.787.787,0,0,0,.685-.4c.336.258.68.542,1.033.845a.79.79,0,0,0-.662.764.794.794,0,0,0,1.586.067c.389.364.787.757,1.193,1.17a.677.677,0,0,0-.069-.016.8.8,0,1,0,.786.806.451.451,0,0,0-.011-.06c.386.411.78.846,1.179,1.3a.855.855,0,0,0-.141-.031.8.8,0,1,0,.786.806c0-.015-.008-.028-.008-.043.347.4.7.827,1.055,1.261a.793.793,0,1,0,.806,1c.295.37.59.746.89,1.135a.791.791,0,0,0-.633.749.793.793,0,0,0,1.5.383c6.834,9.105,15.147,22.978,24.235,40.65,10.833,21.063,21.019,28.075,25.768,30.333C3641.348,2397.09,3614.283,2400.7,3596.229,2403.108Zm15.327.225c.018.151.126,1.014.391,2.489a.8.8,0,0,0,.161,1.577.766.766,0,0,0,.133-.026c.051.255.1.521.163.8-.427.081-.879.161-1.341.242a.771.771,0,0,0-.969-.565q-.523-2.023-1.089-4.1Q3610.262,2403.549,3611.556,2403.333Zm59.392,95.276a.758.758,0,0,0,.031-.154.8.8,0,0,0-.788-.8.771.771,0,0,0-.257.048c-.32-.287-.645-.572-.961-.859a.782.782,0,0,0,.2-.5.8.8,0,0,0-1.357-.573c-.293-.271-.587-.541-.876-.811a.785.785,0,0,0,.336-.626.8.8,0,0,0-.786-.805.784.784,0,0,0-.673.374c-.3-.281-.589-.563-.882-.845a.793.793,0,1,0-1.02-.978c-.344-.335-.678-.671-1.017-1.007a.791.791,0,0,0,.668-.777.8.8,0,0,0-.8-.793.79.79,0,0,0-.774.674c-.365-.365-.724-.73-1.083-1.1.019,0,.036.005.055,0a.8.8,0,1,0-.811-.8c0,.01,0,.019,0,.03-.409-.422-.817-.842-1.219-1.263a.683.683,0,0,0,.111.023.8.8,0,1,0-.792-.8.626.626,0,0,0,.014.071c-.419-.444-.842-.887-1.253-1.331a.79.79,0,1,0-.573-.753.785.785,0,0,0,.032.162q-2.438-2.65-4.687-5.286a42.448,42.448,0,0,0,16.257-12.8c4.317,4.457,9.1,9.07,14.394,13.8a.788.788,0,0,0-.053.276.8.8,0,0,0,.792.8.786.786,0,0,0,.368-.1l.8.705a.785.785,0,0,0-.119.321l-1.02,1.326a.8.8,0,0,0-.8.8.736.736,0,0,0,.04.2l-.837,1.084a.778.778,0,0,0-.291-.063.8.8,0,0,0-.808.782.772.772,0,0,0,.162.491q-.35.452-.707.91a.779.779,0,0,0-.458-.17.8.8,0,0,0-.81.782.793.793,0,0,0,.3.634l-.747.958a.789.789,0,0,0-.641-.362.8.8,0,0,0-.283,1.544l-.792,1.01a.795.795,0,1,0-.823,1.048q-.525.666-1.04,1.318c0-.029.017-.053.018-.082a.8.8,0,1,0-.806.785.775.775,0,0,0,.271-.052c-1.056,1.33-2.069,2.595-2.993,3.73C3671.09,2498.736,3671.021,2498.672,3670.949,2498.608Z" transform="translate(-3479.985 -2133.324)" fill="#0e1123"/>
  <path id="Path_35652" data-name="Path 35652" d="M3724.73,2140.657a1.2,1.2,0,0,0,.561-.14l8.2-4.335a11.319,11.319,0,0,0,5.884,1.745l13.228.2a11.391,11.391,0,0,0,11.565-11.214l.09-5.843a11.4,11.4,0,0,0-11.214-11.565l-13.228-.2-.18,0a11.391,11.391,0,0,0-11.385,11.215l-.09,5.842a11.31,11.31,0,0,0,.752,4.254l-5.2,8.2a1.2,1.2,0,0,0,1.016,1.846Zm6.549-9.284a1.2,1.2,0,0,0,.08-1.138,8.923,8.923,0,0,1-.793-3.837l.089-5.842a8.99,8.99,0,0,1,8.983-8.849h.143l13.227.2a9,9,0,0,1,8.849,9.126l-.09,5.843a8.99,8.99,0,0,1-9.126,8.849l-13.227-.2a8.935,8.935,0,0,1-5.139-1.713,1.2,1.2,0,0,0-1.268-.091l-4.84,2.558Z" transform="translate(-3575.073 -2109.304)" fill="#0e1123"/>
  <path id="Path_35653" data-name="Path 35653" d="M3771.769,2134.488h.056a3.578,3.578,0,1,0-.056,0Zm-.759-4.414a1.161,1.161,0,0,1,.814-.33h.019a1.171,1.171,0,1,1-.833.33Z" transform="translate(-3592.534 -2116.347)" fill="#0e1123"/>
  <path id="Path_35654" data-name="Path 35654" d="M3758.151,2134.278h.056a3.574,3.574,0,0,0,.053-7.147h-.054a3.574,3.574,0,0,0-.055,7.147Zm.073-4.744a1.171,1.171,0,0,1,.8,2.011,1.127,1.127,0,0,1-.833.33,1.172,1.172,0,0,1-1.152-1.189A1.185,1.185,0,0,1,3758.224,2129.534Z" transform="translate(-3587.217 -2116.264)" fill="#0e1123"/>
  <path id="Path_35655" data-name="Path 35655" d="M3745.02,2134.075h.057a3.574,3.574,0,0,0,.054-7.147,3.459,3.459,0,0,0-2.543,1.008,3.574,3.574,0,0,0,2.433,6.139Zm-.76-4.414a1.165,1.165,0,0,1,.814-.33h.019a1.171,1.171,0,0,1-.017,2.341h-.019a1.171,1.171,0,0,1-.8-2.011Z" transform="translate(-3582.09 -2116.184)" fill="#0e1123"/>
  <path id="Path_35656" data-name="Path 35656" d="M3670.009,2230.891a1.218,1.218,0,0,0-1.724-.015,6.616,6.616,0,0,1-5.576,1.719,1.219,1.219,0,0,0-.319,2.418,10.416,10.416,0,0,0,1.368.091,8.741,8.741,0,0,0,6.235-2.489A1.219,1.219,0,0,0,3670.009,2230.891Z" transform="translate(-3550.789 -2156.634)" fill="#0e1123"/>
  <path id="Path_35657" data-name="Path 35657" d="M3677.3,2253.313a1.173,1.173,0,0,0-1.111-.134,11.717,11.717,0,0,1-7.294.1,1.164,1.164,0,0,0-1.458.953,6.405,6.405,0,0,0,1.106,4.663,4.332,4.332,0,0,0,3.348,1.49l.188,0c4.256,0,5.6-3.946,5.707-6.065A1.166,1.166,0,0,0,3677.3,2253.313Z" transform="translate(-3553.148 -2165.446)" fill="#0e1123"/>
  <path id="Path_35658" data-name="Path 35658" d="M3662.033,2388.657a.8.8,0,1,0,.786.806A.8.8,0,0,0,3662.033,2388.657Z" transform="translate(-3550.747 -2218.374)" fill="#0e1123"/>
  <path id="Path_35659" data-name="Path 35659" d="M3665.141,2405.335a.8.8,0,1,0,.79.8A.8.8,0,0,0,3665.141,2405.335Z" transform="translate(-3551.96 -2224.886)" fill="#0e1123"/>
  <path id="Path_35660" data-name="Path 35660" d="M3652.963,2405.336a.8.8,0,1,0,.8.793A.8.8,0,0,0,3652.963,2405.336Z" transform="translate(-3547.21 -2224.886)" fill="#0e1123"/>
  <path id="Path_35661" data-name="Path 35661" d="M3662.033,2395.428a.8.8,0,1,0,.786.805A.8.8,0,0,0,3662.033,2395.428Z" transform="translate(-3550.747 -2221.017)" fill="#0e1123"/>
  <path id="Path_35662" data-name="Path 35662" d="M3707.733,2398.731a.8.8,0,1,0,.786.805A.8.8,0,0,0,3707.733,2398.731Z" transform="translate(-3568.589 -2222.307)" fill="#0e1123"/>
  <path id="Path_35663" data-name="Path 35663" d="M3707.733,2391.96a.8.8,0,1,0,.786.806A.8.8,0,0,0,3707.733,2391.96Z" transform="translate(-3568.589 -2219.664)" fill="#0e1123"/>
  <path id="Path_35664" data-name="Path 35664" d="M3710.706,2395.428a.8.8,0,1,0,.787.805A.8.8,0,0,0,3710.706,2395.428Z" transform="translate(-3569.75 -2221.017)" fill="#0e1123"/>
  <path id="Path_35665" data-name="Path 35665" d="M3704.609,2388.657a.8.8,0,1,0,.8.793A.8.8,0,0,0,3704.609,2388.657Z" transform="translate(-3567.375 -2218.375)" fill="#0e1123"/>
  <path id="Path_35666" data-name="Path 35666" d="M3662.033,2402.033a.8.8,0,1,0,.786.806A.8.8,0,0,0,3662.033,2402.033Z" transform="translate(-3550.747 -2223.597)" fill="#0e1123"/>
  <path id="Path_35667" data-name="Path 35667" d="M3655.936,2408.8a.8.8,0,1,0,.8.794A.8.8,0,0,0,3655.936,2408.8Z" transform="translate(-3548.37 -2226.24)" fill="#0e1123"/>
  <path id="Path_35668" data-name="Path 35668" d="M3652.963,2398.731a.8.8,0,1,0,.8.792A.8.8,0,0,0,3652.963,2398.731Z" transform="translate(-3547.21 -2222.308)" fill="#0e1123"/>
  <path id="Path_35669" data-name="Path 35669" d="M3655.936,2402.033a.8.8,0,1,0,.8.793A.8.8,0,0,0,3655.936,2402.033Z" transform="translate(-3548.37 -2223.597)" fill="#0e1123"/>
  <path id="Path_35670" data-name="Path 35670" d="M3652.963,2391.96a.8.8,0,1,0,.8.793A.8.8,0,0,0,3652.963,2391.96Z" transform="translate(-3547.21 -2219.664)" fill="#0e1123"/>
  <path id="Path_35671" data-name="Path 35671" d="M3655.936,2395.428a.8.8,0,1,0,.8.793A.8.8,0,0,0,3655.936,2395.428Z" transform="translate(-3548.37 -2221.017)" fill="#0e1123"/>
  <path id="Path_35672" data-name="Path 35672" d="M3659.06,2405.336a.8.8,0,1,0,.786.806A.8.8,0,0,0,3659.06,2405.336Z" transform="translate(-3549.585 -2224.886)" fill="#0e1123"/>
  <path id="Path_35673" data-name="Path 35673" d="M3701.637,2385.354a.8.8,0,1,0,.8.793A.8.8,0,0,0,3701.637,2385.354Z" transform="translate(-3566.214 -2217.085)" fill="#0e1123"/>
  <path id="Path_35674" data-name="Path 35674" d="M3662.033,2408.8a.8.8,0,1,0,.786.806A.8.8,0,0,0,3662.033,2408.8Z" transform="translate(-3550.747 -2226.24)" fill="#0e1123"/>
  <path id="Path_35675" data-name="Path 35675" d="M3659.06,2398.731a.8.8,0,1,0,.786.805A.8.8,0,0,0,3659.06,2398.731Z" transform="translate(-3549.585 -2222.307)" fill="#0e1123"/>
  <path id="Path_35676" data-name="Path 35676" d="M3659.06,2391.96a.8.8,0,1,0,.786.806A.8.8,0,0,0,3659.06,2391.96Z" transform="translate(-3549.585 -2219.664)" fill="#0e1123"/>
  <path id="Path_35677" data-name="Path 35677" d="M3680.285,2388.657a.8.8,0,1,0,.786.806A.8.8,0,0,0,3680.285,2388.657Z" transform="translate(-3557.872 -2218.374)" fill="#0e1123"/>
  <path id="Path_35678" data-name="Path 35678" d="M3680.285,2402.033a.8.8,0,1,0,.786.806A.8.8,0,0,0,3680.285,2402.033Z" transform="translate(-3557.872 -2223.597)" fill="#0e1123"/>
  <path id="Path_35679" data-name="Path 35679" d="M3683.394,2391.96a.8.8,0,1,0,.79.8A.8.8,0,0,0,3683.394,2391.96Z" transform="translate(-3559.087 -2219.664)" fill="#0e1123"/>
  <path id="Path_35680" data-name="Path 35680" d="M3683.394,2398.731a.8.8,0,1,0,.79.8A.8.8,0,0,0,3683.394,2398.731Z" transform="translate(-3559.087 -2222.307)" fill="#0e1123"/>
  <path id="Path_35681" data-name="Path 35681" d="M3680.285,2382.052a.8.8,0,1,0,.786.8A.8.8,0,0,0,3680.285,2382.052Z" transform="translate(-3557.872 -2215.795)" fill="#0e1123"/>
  <path id="Path_35682" data-name="Path 35682" d="M3680.285,2395.428a.8.8,0,1,0,.786.805A.8.8,0,0,0,3680.285,2395.428Z" transform="translate(-3557.872 -2221.017)" fill="#0e1123"/>
  <path id="Path_35683" data-name="Path 35683" d="M3677.313,2405.336a.8.8,0,1,0,.786.806A.8.8,0,0,0,3677.313,2405.336Z" transform="translate(-3556.712 -2224.886)" fill="#0e1123"/>
  <path id="Path_35684" data-name="Path 35684" d="M3677.313,2385.354a.8.8,0,1,0,.786.806A.8.8,0,0,0,3677.313,2385.354Z" transform="translate(-3556.712 -2217.084)" fill="#0e1123"/>
  <path id="Path_35685" data-name="Path 35685" d="M3695.293,2380.345a.8.8,0,1,0-.792-.8A.8.8,0,0,0,3695.293,2380.345Z" transform="translate(-3563.74 -2214.505)" fill="#0e1123"/>
  <path id="Path_35686" data-name="Path 35686" d="M3677.313,2398.731a.8.8,0,1,0,.786.805A.8.8,0,0,0,3677.313,2398.731Z" transform="translate(-3556.712 -2222.307)" fill="#0e1123"/>
  <path id="Path_35687" data-name="Path 35687" d="M3677.313,2391.96a.8.8,0,1,0,.786.806A.8.8,0,0,0,3677.313,2391.96Z" transform="translate(-3556.712 -2219.664)" fill="#0e1123"/>
  <path id="Path_35688" data-name="Path 35688" d="M3686.366,2395.428a.8.8,0,1,0,.789.8A.8.8,0,0,0,3686.366,2395.428Z" transform="translate(-3560.248 -2221.018)" fill="#0e1123"/>
  <path id="Path_35689" data-name="Path 35689" d="M3683.394,2385.354a.8.8,0,1,0,.79.8A.8.8,0,0,0,3683.394,2385.354Z" transform="translate(-3559.087 -2217.084)" fill="#0e1123"/>
  <path id="Path_35690" data-name="Path 35690" d="M3689.486,2398.73a.8.8,0,1,0,.78.81A.8.8,0,0,0,3689.486,2398.73Z" transform="translate(-3561.462 -2222.307)" fill="#0e1123"/>
  <path id="Path_35691" data-name="Path 35691" d="M3689.486,2391.959a.8.8,0,1,0,.78.811A.8.8,0,0,0,3689.486,2391.959Z" transform="translate(-3561.462 -2219.663)" fill="#0e1123"/>
  <path id="Path_35692" data-name="Path 35692" d="M3692.458,2395.428a.8.8,0,1,0,.781.811A.8.8,0,0,0,3692.458,2395.428Z" transform="translate(-3562.623 -2221.018)" fill="#0e1123"/>
  <path id="Path_35693" data-name="Path 35693" d="M3692.458,2382.052a.8.8,0,1,0,.781.811A.8.8,0,0,0,3692.458,2382.052Z" transform="translate(-3562.623 -2215.795)" fill="#0e1123"/>
  <path id="Path_35694" data-name="Path 35694" d="M3689.486,2385.354a.8.8,0,1,0,.78.811A.8.8,0,0,0,3689.486,2385.354Z" transform="translate(-3561.462 -2217.084)" fill="#0e1123"/>
  <path id="Path_35695" data-name="Path 35695" d="M3695.554,2398.731a.8.8,0,1,0,.8.794A.8.8,0,0,0,3695.554,2398.731Z" transform="translate(-3563.838 -2222.308)" fill="#0e1123"/>
  <path id="Path_35696" data-name="Path 35696" d="M3686.366,2402.033a.8.8,0,1,0,.789.8A.8.8,0,0,0,3686.366,2402.033Z" transform="translate(-3560.248 -2223.597)" fill="#0e1123"/>
  <path id="Path_35697" data-name="Path 35697" d="M3686.366,2388.657a.8.8,0,1,0,.789.8A.8.8,0,0,0,3686.366,2388.657Z" transform="translate(-3560.248 -2218.375)" fill="#0e1123"/>
  <path id="Path_35698" data-name="Path 35698" d="M3686.366,2382.052a.8.8,0,1,0,.789.8A.8.8,0,0,0,3686.366,2382.052Z" transform="translate(-3560.248 -2215.795)" fill="#0e1123"/>
  <path id="Path_35699" data-name="Path 35699" d="M3692.458,2388.657a.8.8,0,1,0,.781.811A.8.8,0,0,0,3692.458,2388.657Z" transform="translate(-3562.623 -2218.374)" fill="#0e1123"/>
  <path id="Path_35700" data-name="Path 35700" d="M3701.637,2391.96a.8.8,0,1,0,.8.793A.8.8,0,0,0,3701.637,2391.96Z" transform="translate(-3566.214 -2219.664)" fill="#0e1123"/>
  <path id="Path_35701" data-name="Path 35701" d="M3701.637,2398.731a.8.8,0,1,0,.8.792A.8.8,0,0,0,3701.637,2398.731Z" transform="translate(-3566.214 -2222.308)" fill="#0e1123"/>
  <path id="Path_35702" data-name="Path 35702" d="M3698.528,2382.052a.8.8,0,1,0,.8.795A.8.8,0,0,0,3698.528,2382.052Z" transform="translate(-3565 -2215.795)" fill="#0e1123"/>
  <path id="Path_35703" data-name="Path 35703" d="M3695.554,2391.96a.8.8,0,1,0,.8.795A.8.8,0,0,0,3695.554,2391.96Z" transform="translate(-3563.838 -2219.664)" fill="#0e1123"/>
  <path id="Path_35704" data-name="Path 35704" d="M3698.528,2388.657a.8.8,0,1,0,.8.795A.8.8,0,0,0,3698.528,2388.657Z" transform="translate(-3565 -2218.375)" fill="#0e1123"/>
  <path id="Path_35705" data-name="Path 35705" d="M3671.233,2398.73a.8.8,0,1,0,.781.81A.8.8,0,0,0,3671.233,2398.73Z" transform="translate(-3554.336 -2222.307)" fill="#0e1123"/>
  <path id="Path_35706" data-name="Path 35706" d="M3671.233,2385.354a.8.8,0,1,0,.781.811A.8.8,0,0,0,3671.233,2385.354Z" transform="translate(-3554.336 -2217.084)" fill="#0e1123"/>
  <path id="Path_35707" data-name="Path 35707" d="M3671.233,2391.959a.8.8,0,1,0,.781.811A.8.8,0,0,0,3671.233,2391.959Z" transform="translate(-3554.336 -2219.663)" fill="#0e1123"/>
  <path id="Path_35708" data-name="Path 35708" d="M3674.206,2402.033a.8.8,0,1,0,.781.811A.8.8,0,0,0,3674.206,2402.033Z" transform="translate(-3555.497 -2223.597)" fill="#0e1123"/>
  <path id="Path_35709" data-name="Path 35709" d="M3674.206,2388.657a.8.8,0,1,0,.781.811A.8.8,0,0,0,3674.206,2388.657Z" transform="translate(-3555.497 -2218.374)" fill="#0e1123"/>
  <path id="Path_35710" data-name="Path 35710" d="M3704.609,2395.428a.8.8,0,1,0,.8.793A.8.8,0,0,0,3704.609,2395.428Z" transform="translate(-3567.375 -2221.017)" fill="#0e1123"/>
  <path id="Path_35711" data-name="Path 35711" d="M3698.528,2395.428a.8.8,0,1,0,.8.8A.8.8,0,0,0,3698.528,2395.428Z" transform="translate(-3565 -2221.017)" fill="#0e1123"/>
  <path id="Path_35712" data-name="Path 35712" d="M3674.206,2395.428a.8.8,0,1,0,.781.811A.8.8,0,0,0,3674.206,2395.428Z" transform="translate(-3555.497 -2221.018)" fill="#0e1123"/>
  <path id="Path_35713" data-name="Path 35713" d="M3695.554,2385.354a.8.8,0,1,0,.8.795A.8.8,0,0,0,3695.554,2385.354Z" transform="translate(-3563.838 -2217.085)" fill="#0e1123"/>
  <path id="Path_35714" data-name="Path 35714" d="M3705.432,2566.218a.8.8,0,1,0,.8.793A.8.8,0,0,0,3705.432,2566.218Z" transform="translate(-3567.695 -2287.7)" fill="#0e1123"/>
  <path id="Path_35715" data-name="Path 35715" d="M3702.323,2556.309a.8.8,0,1,0,.8.795A.8.8,0,0,0,3702.323,2556.309Z" transform="translate(-3566.481 -2283.832)" fill="#0e1123"/>
  <path id="Path_35716" data-name="Path 35716" d="M3742.071,2677.635a.8.8,0,1,0-.792-.8A.8.8,0,0,0,3742.071,2677.635Z" transform="translate(-3582.003 -2330.579)" fill="#0e1123"/>
  <path id="Path_35717" data-name="Path 35717" d="M3738.223,2673.8a.8.8,0,1,0,.812-.779A.8.8,0,0,0,3738.223,2673.8Z" transform="translate(-3580.81 -2329.402)" fill="#0e1123"/>
  <path id="Path_35718" data-name="Path 35718" d="M3736,2669.433a.8.8,0,1,0,.789.8A.8.8,0,0,0,3736,2669.433Z" transform="translate(-3579.629 -2327.999)" fill="#0e1123"/>
  <path id="Path_35719" data-name="Path 35719" d="M3736,2676.039a.8.8,0,1,0,.789.8A.8.8,0,0,0,3736,2676.039Z" transform="translate(-3579.629 -2330.579)" fill="#0e1123"/>
  <path id="Path_35720" data-name="Path 35720" d="M3739.125,2679.341a.8.8,0,1,0,.781.811A.8.8,0,0,0,3739.125,2679.341Z" transform="translate(-3580.844 -2331.867)" fill="#0e1123"/>
  <path id="Path_35721" data-name="Path 35721" d="M3717.744,2669.433a.8.8,0,1,0,.8.795A.8.8,0,0,0,3717.744,2669.433Z" transform="translate(-3572.502 -2328)" fill="#0e1123"/>
  <path id="Path_35722" data-name="Path 35722" d="M3729.924,2676.039a.8.8,0,1,0,.785.805A.8.8,0,0,0,3729.924,2676.039Z" transform="translate(-3577.253 -2330.579)" fill="#0e1123"/>
  <path id="Path_35723" data-name="Path 35723" d="M3723.827,2676.039a.8.8,0,1,0,.8.793A.8.8,0,0,0,3723.827,2676.039Z" transform="translate(-3574.877 -2330.579)" fill="#0e1123"/>
  <path id="Path_35724" data-name="Path 35724" d="M3726.951,2679.341a.8.8,0,1,0,.785.806A.8.8,0,0,0,3726.951,2679.341Z" transform="translate(-3576.092 -2331.867)" fill="#0e1123"/>
  <path id="Path_35725" data-name="Path 35725" d="M3723.827,2669.433a.8.8,0,1,0,.8.793A.8.8,0,0,0,3723.827,2669.433Z" transform="translate(-3574.877 -2328)" fill="#0e1123"/>
  <path id="Path_35726" data-name="Path 35726" d="M3726.855,2674.622a.8.8,0,1,0-.8-.814A.8.8,0,0,0,3726.855,2674.622Z" transform="translate(-3576.059 -2329.402)" fill="#0e1123"/>
  <path id="Path_35727" data-name="Path 35727" d="M3733.032,2679.341a.8.8,0,1,0,.789.8A.8.8,0,0,0,3733.032,2679.341Z" transform="translate(-3578.468 -2331.868)" fill="#0e1123"/>
  <path id="Path_35728" data-name="Path 35728" d="M3732.93,2674.621a.8.8,0,1,0-.792-.8A.8.8,0,0,0,3732.93,2674.621Z" transform="translate(-3578.435 -2329.402)" fill="#0e1123"/>
  <path id="Path_35729" data-name="Path 35729" d="M3729.924,2669.433a.8.8,0,1,0,.785.806A.8.8,0,0,0,3729.924,2669.433Z" transform="translate(-3577.253 -2327.999)" fill="#0e1123"/>
  <path id="Path_35730" data-name="Path 35730" d="M3720.854,2679.341a.8.8,0,1,0,.8.793A.8.8,0,0,0,3720.854,2679.341Z" transform="translate(-3573.716 -2331.868)" fill="#0e1123"/>
  <path id="Path_35731" data-name="Path 35731" d="M3714.7,2674.622a.8.8,0,1,0-.811-.8A.8.8,0,0,0,3714.7,2674.622Z" transform="translate(-3571.308 -2329.402)" fill="#0e1123"/>
  <path id="Path_35732" data-name="Path 35732" d="M3711.677,2669.433a.8.8,0,1,0,.781.811A.8.8,0,0,0,3711.677,2669.433Z" transform="translate(-3570.127 -2327.999)" fill="#0e1123"/>
  <path id="Path_35733" data-name="Path 35733" d="M3705.432,2559.612a.8.8,0,1,0,.8.793A.8.8,0,0,0,3705.432,2559.612Z" transform="translate(-3567.695 -2285.121)" fill="#0e1123"/>
  <path id="Path_35734" data-name="Path 35734" d="M3711.677,2676.039a.8.8,0,1,0,.781.811A.8.8,0,0,0,3711.677,2676.039Z" transform="translate(-3570.127 -2330.579)" fill="#0e1123"/>
  <path id="Path_35735" data-name="Path 35735" d="M3714.772,2679.341a.8.8,0,1,0,.8.8A.8.8,0,0,0,3714.772,2679.341Z" transform="translate(-3571.341 -2331.868)" fill="#0e1123"/>
  <path id="Path_35736" data-name="Path 35736" d="M3720.768,2674.622a.8.8,0,1,0-.8-.817A.8.8,0,0,0,3720.768,2674.622Z" transform="translate(-3573.684 -2329.402)" fill="#0e1123"/>
  <path id="Path_35737" data-name="Path 35737" d="M3717.744,2676.039a.8.8,0,1,0,.8.794A.8.8,0,0,0,3717.744,2676.039Z" transform="translate(-3572.502 -2330.579)" fill="#0e1123"/>
  <path id="Path_35738" data-name="Path 35738" d="M3714.5,2562.915a.8.8,0,1,0,.786.8A.8.8,0,0,0,3714.5,2562.915Z" transform="translate(-3571.231 -2286.411)" fill="#0e1123"/>
  <path id="Path_35739" data-name="Path 35739" d="M3788.532,2683.707a.8.8,0,1,0,.789.8A.8.8,0,0,0,3788.532,2683.707Z" transform="translate(-3600.137 -2333.573)" fill="#0e1123"/>
  <path id="Path_35740" data-name="Path 35740" d="M3782.45,2683.707a.8.8,0,1,0,.787.806A.8.8,0,0,0,3782.45,2683.707Z" transform="translate(-3597.761 -2333.573)" fill="#0e1123"/>
  <path id="Path_35741" data-name="Path 35741" d="M3785.424,2680.4a.8.8,0,1,0,.785.806A.8.8,0,0,0,3785.424,2680.4Z" transform="translate(-3598.922 -2332.283)" fill="#0e1123"/>
  <path id="Path_35742" data-name="Path 35742" d="M3788.532,2696.918a.8.8,0,1,0,.789.8A.8.8,0,0,0,3788.532,2696.918Z" transform="translate(-3600.137 -2338.731)" fill="#0e1123"/>
  <path id="Path_35743" data-name="Path 35743" d="M3788.532,2690.313a.8.8,0,1,0,.789.8A.8.8,0,0,0,3788.532,2690.313Z" transform="translate(-3600.137 -2336.151)" fill="#0e1123"/>
  <path id="Path_35744" data-name="Path 35744" d="M3785.424,2693.615a.8.8,0,1,0,.785.806A.8.8,0,0,0,3785.424,2693.615Z" transform="translate(-3598.922 -2337.441)" fill="#0e1123"/>
  <path id="Path_35745" data-name="Path 35745" d="M3797.572,2695.211a.8.8,0,1,0-.792-.8A.8.8,0,0,0,3797.572,2695.211Z" transform="translate(-3603.673 -2337.441)" fill="#0e1123"/>
  <path id="Path_35746" data-name="Path 35746" d="M3776.354,2683.707a.8.8,0,1,0,.8.793A.8.8,0,0,0,3776.354,2683.707Z" transform="translate(-3595.386 -2333.573)" fill="#0e1123"/>
  <path id="Path_35747" data-name="Path 35747" d="M3779.326,2687.01a.8.8,0,1,0,.8.793A.8.8,0,0,0,3779.326,2687.01Z" transform="translate(-3596.547 -2334.862)" fill="#0e1123"/>
  <path id="Path_35748" data-name="Path 35748" d="M3782.45,2690.312a.8.8,0,1,0,.787.806A.8.8,0,0,0,3782.45,2690.312Z" transform="translate(-3597.761 -2336.151)" fill="#0e1123"/>
  <path id="Path_35749" data-name="Path 35749" d="M3791.5,2680.4a.8.8,0,1,0,.789.8A.8.8,0,0,0,3791.5,2680.4Z" transform="translate(-3601.297 -2332.283)" fill="#0e1123"/>
  <path id="Path_35750" data-name="Path 35750" d="M3791.5,2693.615a.8.8,0,1,0,.789.8A.8.8,0,0,0,3791.5,2693.615Z" transform="translate(-3601.297 -2337.441)" fill="#0e1123"/>
  <path id="Path_35751" data-name="Path 35751" d="M3791.5,2687.01a.8.8,0,1,0,.789.8A.8.8,0,0,0,3791.5,2687.01Z" transform="translate(-3601.297 -2334.863)" fill="#0e1123"/>
  <path id="Path_35752" data-name="Path 35752" d="M3791.5,2700.221a.8.8,0,1,0,.789.8A.8.8,0,0,0,3791.5,2700.221Z" transform="translate(-3601.297 -2340.02)" fill="#0e1123"/>
  <path id="Path_35753" data-name="Path 35753" d="M3705.432,2553.007a.8.8,0,1,0,.8.792A.8.8,0,0,0,3705.432,2553.007Z" transform="translate(-3567.695 -2282.543)" fill="#0e1123"/>
  <path id="Path_35754" data-name="Path 35754" d="M3794.624,2683.707a.8.8,0,1,0,.781.811A.8.8,0,0,0,3794.624,2683.707Z" transform="translate(-3602.513 -2333.573)" fill="#0e1123"/>
  <path id="Path_35755" data-name="Path 35755" d="M3794.624,2696.918a.8.8,0,1,0,.781.811A.8.8,0,0,0,3794.624,2696.918Z" transform="translate(-3602.513 -2338.731)" fill="#0e1123"/>
  <path id="Path_35756" data-name="Path 35756" d="M3794.624,2690.312a.8.8,0,1,0,.781.81A.8.8,0,0,0,3794.624,2690.312Z" transform="translate(-3602.513 -2336.151)" fill="#0e1123"/>
  <path id="Path_35757" data-name="Path 35757" d="M3794.624,2703.523a.8.8,0,1,0,.781.811A.8.8,0,0,0,3794.624,2703.523Z" transform="translate(-3602.513 -2341.31)" fill="#0e1123"/>
  <path id="Path_35758" data-name="Path 35758" d="M3797.572,2688.606a.8.8,0,1,0-.792-.8A.8.8,0,0,0,3797.572,2688.606Z" transform="translate(-3603.673 -2334.863)" fill="#0e1123"/>
  <path id="Path_35759" data-name="Path 35759" d="M3785.424,2687.01a.8.8,0,1,0,.785.805A.8.8,0,0,0,3785.424,2687.01Z" transform="translate(-3598.922 -2334.862)" fill="#0e1123"/>
  <path id="Path_35760" data-name="Path 35760" d="M3714.5,2556.309a.8.8,0,1,0,.786.806A.8.8,0,0,0,3714.5,2556.309Z" transform="translate(-3571.231 -2283.832)" fill="#0e1123"/>
  <path id="Path_35761" data-name="Path 35761" d="M3797.572,2682a.8.8,0,1,0-.792-.8A.8.8,0,0,0,3797.572,2682Z" transform="translate(-3603.673 -2332.283)" fill="#0e1123"/>
  <path id="Path_35762" data-name="Path 35762" d="M3714.5,2549.7a.8.8,0,1,0,.786.8A.8.8,0,0,0,3714.5,2549.7Z" transform="translate(-3571.231 -2281.253)" fill="#0e1123"/>
  <path id="Path_35763" data-name="Path 35763" d="M3717.609,2553.007a.8.8,0,1,0,.79.8A.8.8,0,0,0,3717.609,2553.007Z" transform="translate(-3572.446 -2282.543)" fill="#0e1123"/>
  <path id="Path_35764" data-name="Path 35764" d="M3720.573,2557.905a.8.8,0,1,0-.8-.813A.8.8,0,0,0,3720.573,2557.905Z" transform="translate(-3573.607 -2283.832)" fill="#0e1123"/>
  <path id="Path_35765" data-name="Path 35765" d="M3708.4,2556.309a.8.8,0,1,0,.8.793A.8.8,0,0,0,3708.4,2556.309Z" transform="translate(-3568.856 -2283.832)" fill="#0e1123"/>
  <path id="Path_35766" data-name="Path 35766" d="M3711.529,2553.007a.8.8,0,1,0,.786.805A.8.8,0,0,0,3711.529,2553.007Z" transform="translate(-3570.071 -2282.542)" fill="#0e1123"/>
  <path id="Path_35767" data-name="Path 35767" d="M3708.4,2562.915a.8.8,0,1,0,.8.793A.8.8,0,0,0,3708.4,2562.915Z" transform="translate(-3568.856 -2286.411)" fill="#0e1123"/>
  <path id="Path_35768" data-name="Path 35768" d="M3693.256,2554.6a.8.8,0,1,0-.792-.8A.8.8,0,0,0,3693.256,2554.6Z" transform="translate(-3562.944 -2282.542)" fill="#0e1123"/>
  <path id="Path_35769" data-name="Path 35769" d="M3711.529,2559.612a.8.8,0,1,0,.786.806A.8.8,0,0,0,3711.529,2559.612Z" transform="translate(-3570.071 -2285.121)" fill="#0e1123"/>
  <path id="Path_35770" data-name="Path 35770" d="M3717.609,2559.612a.8.8,0,1,0,.79.8A.8.8,0,0,0,3717.609,2559.612Z" transform="translate(-3572.446 -2285.121)" fill="#0e1123"/>
  <path id="Path_35771" data-name="Path 35771" d="M3800.94,2678.987a.8.8,0,1,0-.8-.814A.8.8,0,0,0,3800.94,2678.987Z" transform="translate(-3604.985 -2331.107)" fill="#0e1123"/>
  <path id="Path_35772" data-name="Path 35772" d="M3809.748,2682a.8.8,0,1,0-.8-.813A.8.8,0,0,0,3809.748,2682Z" transform="translate(-3608.425 -2332.283)" fill="#0e1123"/>
  <path id="Path_35773" data-name="Path 35773" d="M3800.691,2685.3a.8.8,0,1,0-.8-.814A.8.8,0,0,0,3800.691,2685.3Z" transform="translate(-3604.888 -2333.573)" fill="#0e1123"/>
  <path id="Path_35774" data-name="Path 35774" d="M3800.691,2691.909a.8.8,0,1,0-.8-.814A.8.8,0,0,0,3800.691,2691.909Z" transform="translate(-3604.888 -2336.151)" fill="#0e1123"/>
  <path id="Path_35775" data-name="Path 35775" d="M3803.664,2688.606a.8.8,0,1,0-.8-.814A.8.8,0,0,0,3803.664,2688.606Z" transform="translate(-3606.048 -2334.863)" fill="#0e1123"/>
  <path id="Path_35776" data-name="Path 35776" d="M3806.785,2683.707a.8.8,0,1,0,.789.8A.8.8,0,0,0,3806.785,2683.707Z" transform="translate(-3607.263 -2333.573)" fill="#0e1123"/>
  <path id="Path_35777" data-name="Path 35777" d="M3806.747,2678.987a.8.8,0,1,0-.8-.814A.8.8,0,0,0,3806.747,2678.987Z" transform="translate(-3607.252 -2331.107)" fill="#0e1123"/>
  <path id="Path_35778" data-name="Path 35778" d="M3803.664,2682a.8.8,0,1,0-.8-.813A.8.8,0,0,0,3803.664,2682Z" transform="translate(-3606.048 -2332.283)" fill="#0e1123"/>
  <path id="Path_35779" data-name="Path 35779" d="M3762.174,2805.079a.841.841,0,1,0,.84.837A.844.844,0,0,0,3762.174,2805.079Z" transform="translate(-3589.832 -2380.961)" fill="#0e1123"/>
  <path id="Path_35780" data-name="Path 35780" d="M3756.483,2805.079a.841.841,0,1,0,.84.837A.843.843,0,0,0,3756.483,2805.079Z" transform="translate(-3587.611 -2380.961)" fill="#0e1123"/>
  <path id="Path_35781" data-name="Path 35781" d="M3770.655,2800.789a.841.841,0,1,0,.839.837A.844.844,0,0,0,3770.655,2800.789Z" transform="translate(-3593.143 -2379.285)" fill="#0e1123"/>
  <path id="Path_35782" data-name="Path 35782" d="M3733.72,2805.079a.841.841,0,1,0,.839.837A.844.844,0,0,0,3733.72,2805.079Z" transform="translate(-3578.723 -2380.961)" fill="#0e1123"/>
  <path id="Path_35783" data-name="Path 35783" d="M3767.865,2805.079a.841.841,0,1,0,.84.837A.844.844,0,0,0,3767.865,2805.079Z" transform="translate(-3592.054 -2380.961)" fill="#0e1123"/>
  <path id="Path_35784" data-name="Path 35784" d="M3764.964,2800.789a.841.841,0,1,0,.84.837A.844.844,0,0,0,3764.964,2800.789Z" transform="translate(-3590.921 -2379.285)" fill="#0e1123"/>
  <path id="Path_35785" data-name="Path 35785" d="M3759.273,2800.789a.841.841,0,1,0,.84.837A.845.845,0,0,0,3759.273,2800.789Z" transform="translate(-3588.699 -2379.285)" fill="#0e1123"/>
  <path id="Path_35786" data-name="Path 35786" d="M3742.2,2800.789a.841.841,0,1,0,.84.837A.844.844,0,0,0,3742.2,2800.789Z" transform="translate(-3582.034 -2379.285)" fill="#0e1123"/>
  <path id="Path_35787" data-name="Path 35787" d="M3753.583,2800.789a.841.841,0,1,0,.84.837A.843.843,0,0,0,3753.583,2800.789Z" transform="translate(-3586.478 -2379.285)" fill="#0e1123"/>
  <path id="Path_35788" data-name="Path 35788" d="M3736.51,2800.789a.841.841,0,1,0,.84.837A.844.844,0,0,0,3736.51,2800.789Z" transform="translate(-3579.812 -2379.285)" fill="#0e1123"/>
  <path id="Path_35789" data-name="Path 35789" d="M3739.411,2805.079a.841.841,0,1,0,.84.837A.844.844,0,0,0,3739.411,2805.079Z" transform="translate(-3580.945 -2380.961)" fill="#0e1123"/>
  <path id="Path_35790" data-name="Path 35790" d="M3750.793,2805.079a.841.841,0,1,0,.84.837A.843.843,0,0,0,3750.793,2805.079Z" transform="translate(-3585.389 -2380.961)" fill="#0e1123"/>
  <path id="Path_35791" data-name="Path 35791" d="M3745.1,2805.079a.841.841,0,1,0,.841.837A.843.843,0,0,0,3745.1,2805.079Z" transform="translate(-3583.166 -2380.961)" fill="#0e1123"/>
  <path id="Path_35792" data-name="Path 35792" d="M3747.891,2800.789a.841.841,0,1,0,.84.837A.843.843,0,0,0,3747.891,2800.789Z" transform="translate(-3584.256 -2379.285)" fill="#0e1123"/>
  <path id="Path_35793" data-name="Path 35793" d="M3773.556,2805.079a.841.841,0,1,0,.84.837A.843.843,0,0,0,3773.556,2805.079Z" transform="translate(-3594.276 -2380.961)" fill="#0e1123"/>
  <path id="Path_35794" data-name="Path 35794" d="M3810.49,2800.789a.841.841,0,1,0,.84.837A.843.843,0,0,0,3810.49,2800.789Z" transform="translate(-3608.697 -2379.285)" fill="#0e1123"/>
  <path id="Path_35795" data-name="Path 35795" d="M3799.108,2800.789a.841.841,0,1,0,.84.837A.844.844,0,0,0,3799.108,2800.789Z" transform="translate(-3604.253 -2379.285)" fill="#0e1123"/>
  <path id="Path_35796" data-name="Path 35796" d="M3802.009,2805.079a.841.841,0,1,0,.84.837A.843.843,0,0,0,3802.009,2805.079Z" transform="translate(-3605.385 -2380.961)" fill="#0e1123"/>
  <path id="Path_35797" data-name="Path 35797" d="M3804.8,2800.789a.841.841,0,1,0,.841.837A.844.844,0,0,0,3804.8,2800.789Z" transform="translate(-3606.475 -2379.285)" fill="#0e1123"/>
  <path id="Path_35798" data-name="Path 35798" d="M3813.391,2805.079a.841.841,0,1,0,.84.837A.843.843,0,0,0,3813.391,2805.079Z" transform="translate(-3609.83 -2380.961)" fill="#0e1123"/>
  <path id="Path_35799" data-name="Path 35799" d="M3819.082,2805.079a.841.841,0,1,0,.84.837A.843.843,0,0,0,3819.082,2805.079Z" transform="translate(-3612.052 -2380.961)" fill="#0e1123"/>
  <path id="Path_35800" data-name="Path 35800" d="M3776.345,2800.789a.841.841,0,1,0,.84.837A.844.844,0,0,0,3776.345,2800.789Z" transform="translate(-3595.365 -2379.285)" fill="#0e1123"/>
  <path id="Path_35801" data-name="Path 35801" d="M3816.181,2800.789a.841.841,0,1,0,.84.837A.843.843,0,0,0,3816.181,2800.789Z" transform="translate(-3610.919 -2379.285)" fill="#0e1123"/>
  <path id="Path_35802" data-name="Path 35802" d="M3784.937,2805.079a.841.841,0,1,0,.84.837A.844.844,0,0,0,3784.937,2805.079Z" transform="translate(-3598.719 -2380.961)" fill="#0e1123"/>
  <path id="Path_35803" data-name="Path 35803" d="M3782.036,2800.789a.841.841,0,1,0,.84.837A.845.845,0,0,0,3782.036,2800.789Z" transform="translate(-3597.587 -2379.285)" fill="#0e1123"/>
  <path id="Path_35804" data-name="Path 35804" d="M3779.246,2805.079a.841.841,0,1,0,.84.837A.844.844,0,0,0,3779.246,2805.079Z" transform="translate(-3596.497 -2380.961)" fill="#0e1123"/>
  <path id="Path_35805" data-name="Path 35805" d="M3796.319,2805.079a.841.841,0,1,0,.84.837A.844.844,0,0,0,3796.319,2805.079Z" transform="translate(-3603.164 -2380.961)" fill="#0e1123"/>
  <path id="Path_35806" data-name="Path 35806" d="M3793.418,2800.789a.841.841,0,1,0,.84.837A.845.845,0,0,0,3793.418,2800.789Z" transform="translate(-3602.031 -2379.285)" fill="#0e1123"/>
  <path id="Path_35807" data-name="Path 35807" d="M3790.628,2805.079a.841.841,0,1,0,.84.837A.843.843,0,0,0,3790.628,2805.079Z" transform="translate(-3600.941 -2380.961)" fill="#0e1123"/>
  <path id="Path_35808" data-name="Path 35808" d="M3787.727,2800.789a.841.841,0,1,0,.84.837A.845.845,0,0,0,3787.727,2800.789Z" transform="translate(-3599.809 -2379.285)" fill="#0e1123"/>
  <path id="Path_35809" data-name="Path 35809" d="M3807.7,2805.079a.841.841,0,1,0,.841.837A.843.843,0,0,0,3807.7,2805.079Z" transform="translate(-3607.607 -2380.961)" fill="#0e1123"/>
  <path id="Path_35810" data-name="Path 35810" d="M3688.194,2796.653a.841.841,0,1,0,.84.837A.845.845,0,0,0,3688.194,2796.653Z" transform="translate(-3560.948 -2377.671)" fill="#0e1123"/>
  <path id="Path_35811" data-name="Path 35811" d="M3685.293,2792.363a.841.841,0,1,0,.839.837A.845.845,0,0,0,3685.293,2792.363Z" transform="translate(-3559.815 -2375.996)" fill="#0e1123"/>
  <path id="Path_35812" data-name="Path 35812" d="M3702.366,2800.789a.841.841,0,1,0,.84.837A.843.843,0,0,0,3702.366,2800.789Z" transform="translate(-3566.481 -2379.285)" fill="#0e1123"/>
  <path id="Path_35813" data-name="Path 35813" d="M3690.984,2800.789a.841.841,0,1,0,.84.837A.844.844,0,0,0,3690.984,2800.789Z" transform="translate(-3562.037 -2379.285)" fill="#0e1123"/>
  <path id="Path_35814" data-name="Path 35814" d="M3693.885,2805.079a.841.841,0,1,0,.84.837A.843.843,0,0,0,3693.885,2805.079Z" transform="translate(-3563.169 -2380.961)" fill="#0e1123"/>
  <path id="Path_35815" data-name="Path 35815" d="M3699.575,2805.079a.841.841,0,1,0,.84.837A.843.843,0,0,0,3699.575,2805.079Z" transform="translate(-3565.392 -2380.961)" fill="#0e1123"/>
  <path id="Path_35816" data-name="Path 35816" d="M3696.675,2800.789a.841.841,0,1,0,.84.837A.844.844,0,0,0,3696.675,2800.789Z" transform="translate(-3564.259 -2379.285)" fill="#0e1123"/>
  <path id="Path_35817" data-name="Path 35817" d="M3688.194,2805.079a.841.841,0,1,0,.84.837A.844.844,0,0,0,3688.194,2805.079Z" transform="translate(-3560.948 -2380.961)" fill="#0e1123"/>
  <path id="Path_35818" data-name="Path 35818" d="M3671.122,2796.653a.841.841,0,1,0,.84.837A.843.843,0,0,0,3671.122,2796.653Z" transform="translate(-3554.283 -2377.671)" fill="#0e1123"/>
  <path id="Path_35819" data-name="Path 35819" d="M3673.912,2800.789a.841.841,0,1,0,.84.837A.843.843,0,0,0,3673.912,2800.789Z" transform="translate(-3555.372 -2379.285)" fill="#0e1123"/>
  <path id="Path_35820" data-name="Path 35820" d="M3819.082,2796.653a.841.841,0,1,0,.84.837A.843.843,0,0,0,3819.082,2796.653Z" transform="translate(-3612.052 -2377.671)" fill="#0e1123"/>
  <path id="Path_35821" data-name="Path 35821" d="M3682.5,2796.653a.841.841,0,1,0,.84.837A.844.844,0,0,0,3682.5,2796.653Z" transform="translate(-3558.726 -2377.671)" fill="#0e1123"/>
  <path id="Path_35822" data-name="Path 35822" d="M3685.293,2800.789a.841.841,0,1,0,.839.837A.845.845,0,0,0,3685.293,2800.789Z" transform="translate(-3559.815 -2379.285)" fill="#0e1123"/>
  <path id="Path_35823" data-name="Path 35823" d="M3676.813,2796.653a.841.841,0,1,0,.839.837A.844.844,0,0,0,3676.813,2796.653Z" transform="translate(-3556.504 -2377.671)" fill="#0e1123"/>
  <path id="Path_35824" data-name="Path 35824" d="M3679.6,2800.789a.841.841,0,1,0,.841.837A.843.843,0,0,0,3679.6,2800.789Z" transform="translate(-3557.593 -2379.285)" fill="#0e1123"/>
  <path id="Path_35825" data-name="Path 35825" d="M3722.338,2796.653a.841.841,0,1,0,.841.837A.844.844,0,0,0,3722.338,2796.653Z" transform="translate(-3574.279 -2377.671)" fill="#0e1123"/>
  <path id="Path_35826" data-name="Path 35826" d="M3730.82,2800.789a.841.841,0,1,0,.84.837A.845.845,0,0,0,3730.82,2800.789Z" transform="translate(-3577.589 -2379.285)" fill="#0e1123"/>
  <path id="Path_35827" data-name="Path 35827" d="M3725.128,2800.789a.841.841,0,1,0,.84.837A.844.844,0,0,0,3725.128,2800.789Z" transform="translate(-3575.368 -2379.285)" fill="#0e1123"/>
  <path id="Path_35828" data-name="Path 35828" d="M3722.338,2805.079a.841.841,0,1,0,.841.837A.843.843,0,0,0,3722.338,2805.079Z" transform="translate(-3574.279 -2380.961)" fill="#0e1123"/>
  <path id="Path_35829" data-name="Path 35829" d="M3728.029,2796.653a.841.841,0,1,0,.84.837A.844.844,0,0,0,3728.029,2796.653Z" transform="translate(-3576.501 -2377.671)" fill="#0e1123"/>
  <path id="Path_35830" data-name="Path 35830" d="M3705.266,2805.079a.841.841,0,1,0,.84.837A.845.845,0,0,0,3705.266,2805.079Z" transform="translate(-3567.613 -2380.961)" fill="#0e1123"/>
  <path id="Path_35831" data-name="Path 35831" d="M3725.128,2792.363a.841.841,0,1,0,.84.837A.843.843,0,0,0,3725.128,2792.363Z" transform="translate(-3575.368 -2375.996)" fill="#0e1123"/>
  <path id="Path_35832" data-name="Path 35832" d="M3728.029,2805.079a.841.841,0,1,0,.84.837A.843.843,0,0,0,3728.029,2805.079Z" transform="translate(-3576.501 -2380.961)" fill="#0e1123"/>
  <path id="Path_35833" data-name="Path 35833" d="M3719.438,2792.363a.841.841,0,1,0,.839.837A.843.843,0,0,0,3719.438,2792.363Z" transform="translate(-3573.147 -2375.996)" fill="#0e1123"/>
  <path id="Path_35834" data-name="Path 35834" d="M3710.957,2805.079a.841.841,0,1,0,.84.837A.844.844,0,0,0,3710.957,2805.079Z" transform="translate(-3569.835 -2380.961)" fill="#0e1123"/>
  <path id="Path_35835" data-name="Path 35835" d="M3713.747,2800.789a.841.841,0,1,0,.84.837A.845.845,0,0,0,3713.747,2800.789Z" transform="translate(-3570.924 -2379.285)" fill="#0e1123"/>
  <path id="Path_35836" data-name="Path 35836" d="M3708.056,2800.789a.841.841,0,1,0,.84.837A.845.845,0,0,0,3708.056,2800.789Z" transform="translate(-3568.702 -2379.285)" fill="#0e1123"/>
  <path id="Path_35837" data-name="Path 35837" d="M3716.648,2805.079a.841.841,0,1,0,.84.837A.844.844,0,0,0,3716.648,2805.079Z" transform="translate(-3572.057 -2380.961)" fill="#0e1123"/>
  <path id="Path_35838" data-name="Path 35838" d="M3716.648,2796.653a.841.841,0,1,0,.84.837A.845.845,0,0,0,3716.648,2796.653Z" transform="translate(-3572.057 -2377.671)" fill="#0e1123"/>
  <path id="Path_35839" data-name="Path 35839" d="M3719.438,2800.789a.841.841,0,1,0,.839.837A.843.843,0,0,0,3719.438,2800.789Z" transform="translate(-3573.147 -2379.285)" fill="#0e1123"/>
  <path id="Path_35840" data-name="Path 35840" d="M3713.747,2792.363a.841.841,0,1,0,.84.837A.845.845,0,0,0,3713.747,2792.363Z" transform="translate(-3570.924 -2375.996)" fill="#0e1123"/>
  <path id="Path_35841" data-name="Path 35841" d="M3847.536,2796.653a.841.841,0,1,0,.84.837A.845.845,0,0,0,3847.536,2796.653Z" transform="translate(-3623.16 -2377.671)" fill="#0e1123"/>
  <path id="Path_35842" data-name="Path 35842" d="M3890.161,2792.363a.841.841,0,1,0,.84.837A.843.843,0,0,0,3890.161,2792.363Z" transform="translate(-3639.803 -2375.996)" fill="#0e1123"/>
  <path id="Path_35843" data-name="Path 35843" d="M3893.062,2805.079a.841.841,0,1,0,.839.837A.843.843,0,0,0,3893.062,2805.079Z" transform="translate(-3640.936 -2380.961)" fill="#0e1123"/>
  <path id="Path_35844" data-name="Path 35844" d="M3893.062,2796.653a.841.841,0,1,0,.839.837A.844.844,0,0,0,3893.062,2796.653Z" transform="translate(-3640.936 -2377.671)" fill="#0e1123"/>
  <path id="Path_35845" data-name="Path 35845" d="M3890.161,2800.789a.841.841,0,1,0,.84.837A.843.843,0,0,0,3890.161,2800.789Z" transform="translate(-3639.803 -2379.285)" fill="#0e1123"/>
  <path id="Path_35846" data-name="Path 35846" d="M3895.851,2792.363a.841.841,0,1,0,.84.837A.843.843,0,0,0,3895.851,2792.363Z" transform="translate(-3642.025 -2375.996)" fill="#0e1123"/>
  <path id="Path_35847" data-name="Path 35847" d="M3895.851,2800.789a.841.841,0,1,0,.84.837A.843.843,0,0,0,3895.851,2800.789Z" transform="translate(-3642.025 -2379.285)" fill="#0e1123"/>
  <path id="Path_35848" data-name="Path 35848" d="M3898.752,2805.079a.841.841,0,1,0,.84.837A.842.842,0,0,0,3898.752,2805.079Z" transform="translate(-3643.158 -2380.961)" fill="#0e1123"/>
  <path id="Path_35849" data-name="Path 35849" d="M3887.371,2796.653a.841.841,0,1,0,.84.837A.845.845,0,0,0,3887.371,2796.653Z" transform="translate(-3638.713 -2377.671)" fill="#0e1123"/>
  <path id="Path_35850" data-name="Path 35850" d="M3884.47,2800.789a.841.841,0,1,0,.841.837A.845.845,0,0,0,3884.47,2800.789Z" transform="translate(-3637.581 -2379.285)" fill="#0e1123"/>
  <path id="Path_35851" data-name="Path 35851" d="M3878.779,2792.363a.841.841,0,1,0,.84.837A.844.844,0,0,0,3878.779,2792.363Z" transform="translate(-3635.359 -2375.996)" fill="#0e1123"/>
  <path id="Path_35852" data-name="Path 35852" d="M3875.99,2805.079a.841.841,0,1,0,.84.837A.843.843,0,0,0,3875.99,2805.079Z" transform="translate(-3634.271 -2380.961)" fill="#0e1123"/>
  <path id="Path_35853" data-name="Path 35853" d="M3875.99,2796.653a.841.841,0,1,0,.84.837A.844.844,0,0,0,3875.99,2796.653Z" transform="translate(-3634.271 -2377.671)" fill="#0e1123"/>
  <path id="Path_35854" data-name="Path 35854" d="M3881.68,2805.079a.841.841,0,1,0,.84.837A.843.843,0,0,0,3881.68,2805.079Z" transform="translate(-3636.492 -2380.961)" fill="#0e1123"/>
  <path id="Path_35855" data-name="Path 35855" d="M3881.68,2796.653a.841.841,0,1,0,.84.837A.844.844,0,0,0,3881.68,2796.653Z" transform="translate(-3636.492 -2377.671)" fill="#0e1123"/>
  <path id="Path_35856" data-name="Path 35856" d="M3884.47,2792.363a.841.841,0,1,0,.841.837A.844.844,0,0,0,3884.47,2792.363Z" transform="translate(-3637.581 -2375.996)" fill="#0e1123"/>
  <path id="Path_35857" data-name="Path 35857" d="M3898.752,2796.653a.841.841,0,1,0,.84.837A.843.843,0,0,0,3898.752,2796.653Z" transform="translate(-3643.158 -2377.671)" fill="#0e1123"/>
  <path id="Path_35858" data-name="Path 35858" d="M3887.371,2805.079a.841.841,0,1,0,.84.837A.844.844,0,0,0,3887.371,2805.079Z" transform="translate(-3638.713 -2380.961)" fill="#0e1123"/>
  <path id="Path_35859" data-name="Path 35859" d="M3878.779,2800.789a.841.841,0,1,0,.84.837A.844.844,0,0,0,3878.779,2800.789Z" transform="translate(-3635.359 -2379.285)" fill="#0e1123"/>
  <path id="Path_35860" data-name="Path 35860" d="M3921.516,2796.653a.841.841,0,1,0,.84.837A.844.844,0,0,0,3921.516,2796.653Z" transform="translate(-3652.046 -2377.671)" fill="#0e1123"/>
  <path id="Path_35861" data-name="Path 35861" d="M3918.615,2792.363a.841.841,0,1,0,.84.837A.845.845,0,0,0,3918.615,2792.363Z" transform="translate(-3650.912 -2375.996)" fill="#0e1123"/>
  <path id="Path_35862" data-name="Path 35862" d="M3918.615,2800.789a.841.841,0,1,0,.84.837A.845.845,0,0,0,3918.615,2800.789Z" transform="translate(-3650.912 -2379.285)" fill="#0e1123"/>
  <path id="Path_35863" data-name="Path 35863" d="M3915.825,2796.653a.841.841,0,1,0,.841.837A.844.844,0,0,0,3915.825,2796.653Z" transform="translate(-3649.823 -2377.671)" fill="#0e1123"/>
  <path id="Path_35864" data-name="Path 35864" d="M3927.207,2796.653a.841.841,0,1,0,.84.837A.846.846,0,0,0,3927.207,2796.653Z" transform="translate(-3654.267 -2377.671)" fill="#0e1123"/>
  <path id="Path_35865" data-name="Path 35865" d="M3924.306,2800.789a.841.841,0,1,0,.84.837A.844.844,0,0,0,3924.306,2800.789Z" transform="translate(-3653.135 -2379.285)" fill="#0e1123"/>
  <path id="Path_35866" data-name="Path 35866" d="M3932.9,2796.653a.841.841,0,1,0,.84.837A.845.845,0,0,0,3932.9,2796.653Z" transform="translate(-3656.489 -2377.671)" fill="#0e1123"/>
  <path id="Path_35867" data-name="Path 35867" d="M3912.924,2792.363a.841.841,0,1,0,.841.837A.843.843,0,0,0,3912.924,2792.363Z" transform="translate(-3648.691 -2375.996)" fill="#0e1123"/>
  <path id="Path_35868" data-name="Path 35868" d="M3910.134,2805.079a.841.841,0,1,0,.84.837A.843.843,0,0,0,3910.134,2805.079Z" transform="translate(-3647.601 -2380.961)" fill="#0e1123"/>
  <path id="Path_35869" data-name="Path 35869" d="M3904.443,2805.079a.841.841,0,1,0,.84.837A.843.843,0,0,0,3904.443,2805.079Z" transform="translate(-3645.38 -2380.961)" fill="#0e1123"/>
  <path id="Path_35870" data-name="Path 35870" d="M3904.443,2796.653a.841.841,0,1,0,.84.837A.843.843,0,0,0,3904.443,2796.653Z" transform="translate(-3645.38 -2377.671)" fill="#0e1123"/>
  <path id="Path_35871" data-name="Path 35871" d="M3901.543,2792.363a.841.841,0,1,0,.839.837A.844.844,0,0,0,3901.543,2792.363Z" transform="translate(-3644.247 -2375.996)" fill="#0e1123"/>
  <path id="Path_35872" data-name="Path 35872" d="M3907.233,2800.789a.841.841,0,1,0,.84.837A.843.843,0,0,0,3907.233,2800.789Z" transform="translate(-3646.469 -2379.285)" fill="#0e1123"/>
  <path id="Path_35873" data-name="Path 35873" d="M3910.134,2796.653a.841.841,0,1,0,.84.837A.844.844,0,0,0,3910.134,2796.653Z" transform="translate(-3647.601 -2377.671)" fill="#0e1123"/>
  <path id="Path_35874" data-name="Path 35874" d="M3912.924,2800.789a.841.841,0,1,0,.841.837A.844.844,0,0,0,3912.924,2800.789Z" transform="translate(-3648.691 -2379.285)" fill="#0e1123"/>
  <path id="Path_35875" data-name="Path 35875" d="M3907.233,2792.363a.841.841,0,1,0,.84.837A.843.843,0,0,0,3907.233,2792.363Z" transform="translate(-3646.469 -2375.996)" fill="#0e1123"/>
  <path id="Path_35876" data-name="Path 35876" d="M3901.543,2800.789a.841.841,0,1,0,.839.837A.844.844,0,0,0,3901.543,2800.789Z" transform="translate(-3644.247 -2379.285)" fill="#0e1123"/>
  <path id="Path_35877" data-name="Path 35877" d="M3821.872,2800.789a.841.841,0,1,0,.84.837A.844.844,0,0,0,3821.872,2800.789Z" transform="translate(-3613.14 -2379.285)" fill="#0e1123"/>
  <path id="Path_35878" data-name="Path 35878" d="M3838.944,2792.363a.841.841,0,1,0,.839.837A.844.844,0,0,0,3838.944,2792.363Z" transform="translate(-3619.806 -2375.996)" fill="#0e1123"/>
  <path id="Path_35879" data-name="Path 35879" d="M3838.944,2800.789a.841.841,0,1,0,.839.837A.844.844,0,0,0,3838.944,2800.789Z" transform="translate(-3619.806 -2379.285)" fill="#0e1123"/>
  <path id="Path_35880" data-name="Path 35880" d="M3844.635,2792.363a.841.841,0,1,0,.84.837A.843.843,0,0,0,3844.635,2792.363Z" transform="translate(-3622.029 -2375.996)" fill="#0e1123"/>
  <path id="Path_35881" data-name="Path 35881" d="M3836.154,2805.079a.841.841,0,1,0,.839.837A.844.844,0,0,0,3836.154,2805.079Z" transform="translate(-3618.717 -2380.961)" fill="#0e1123"/>
  <path id="Path_35882" data-name="Path 35882" d="M3841.845,2796.653a.841.841,0,1,0,.84.837A.844.844,0,0,0,3841.845,2796.653Z" transform="translate(-3620.939 -2377.671)" fill="#0e1123"/>
  <path id="Path_35883" data-name="Path 35883" d="M3841.845,2805.079a.841.841,0,1,0,.84.837A.843.843,0,0,0,3841.845,2805.079Z" transform="translate(-3620.939 -2380.961)" fill="#0e1123"/>
  <path id="Path_35884" data-name="Path 35884" d="M3844.635,2800.789a.841.841,0,1,0,.84.837A.843.843,0,0,0,3844.635,2800.789Z" transform="translate(-3622.029 -2379.285)" fill="#0e1123"/>
  <path id="Path_35885" data-name="Path 35885" d="M3833.253,2792.363a.841.841,0,1,0,.84.837A.844.844,0,0,0,3833.253,2792.363Z" transform="translate(-3617.584 -2375.996)" fill="#0e1123"/>
  <path id="Path_35886" data-name="Path 35886" d="M3836.154,2796.653a.841.841,0,1,0,.839.837A.845.845,0,0,0,3836.154,2796.653Z" transform="translate(-3618.717 -2377.671)" fill="#0e1123"/>
  <path id="Path_35887" data-name="Path 35887" d="M3824.772,2805.079a.841.841,0,1,0,.84.837A.843.843,0,0,0,3824.772,2805.079Z" transform="translate(-3614.273 -2380.961)" fill="#0e1123"/>
  <path id="Path_35888" data-name="Path 35888" d="M3824.772,2796.653a.841.841,0,1,0,.84.837A.844.844,0,0,0,3824.772,2796.653Z" transform="translate(-3614.273 -2377.671)" fill="#0e1123"/>
  <path id="Path_35889" data-name="Path 35889" d="M3821.872,2792.363a.841.841,0,1,0,.84.837A.843.843,0,0,0,3821.872,2792.363Z" transform="translate(-3613.14 -2375.996)" fill="#0e1123"/>
  <path id="Path_35890" data-name="Path 35890" d="M3833.253,2800.789a.841.841,0,1,0,.84.837A.844.844,0,0,0,3833.253,2800.789Z" transform="translate(-3617.584 -2379.285)" fill="#0e1123"/>
  <path id="Path_35891" data-name="Path 35891" d="M3827.564,2800.789a.841.841,0,1,0,.838.837A.844.844,0,0,0,3827.564,2800.789Z" transform="translate(-3615.363 -2379.285)" fill="#0e1123"/>
  <path id="Path_35892" data-name="Path 35892" d="M3873.089,2792.363a.841.841,0,1,0,.839.837A.844.844,0,0,0,3873.089,2792.363Z" transform="translate(-3633.137 -2375.996)" fill="#0e1123"/>
  <path id="Path_35893" data-name="Path 35893" d="M3830.463,2796.653a.841.841,0,1,0,.84.837A.844.844,0,0,0,3830.463,2796.653Z" transform="translate(-3616.495 -2377.671)" fill="#0e1123"/>
  <path id="Path_35894" data-name="Path 35894" d="M3830.463,2805.079a.841.841,0,1,0,.84.837A.843.843,0,0,0,3830.463,2805.079Z" transform="translate(-3616.495 -2380.961)" fill="#0e1123"/>
  <path id="Path_35895" data-name="Path 35895" d="M3827.564,2792.363a.841.841,0,1,0,.838.837A.844.844,0,0,0,3827.564,2792.363Z" transform="translate(-3615.363 -2375.996)" fill="#0e1123"/>
  <path id="Path_35896" data-name="Path 35896" d="M3858.917,2796.653a.841.841,0,1,0,.84.837A.845.845,0,0,0,3858.917,2796.653Z" transform="translate(-3627.604 -2377.671)" fill="#0e1123"/>
  <path id="Path_35897" data-name="Path 35897" d="M3867.4,2800.789a.841.841,0,1,0,.84.837A.843.843,0,0,0,3867.4,2800.789Z" transform="translate(-3630.916 -2379.285)" fill="#0e1123"/>
  <path id="Path_35898" data-name="Path 35898" d="M3864.608,2805.079a.841.841,0,1,0,.84.837A.844.844,0,0,0,3864.608,2805.079Z" transform="translate(-3629.826 -2380.961)" fill="#0e1123"/>
  <path id="Path_35899" data-name="Path 35899" d="M3861.707,2800.789a.841.841,0,1,0,.84.837A.845.845,0,0,0,3861.707,2800.789Z" transform="translate(-3628.694 -2379.285)" fill="#0e1123"/>
  <path id="Path_35900" data-name="Path 35900" d="M3864.608,2796.653a.841.841,0,1,0,.84.837A.844.844,0,0,0,3864.608,2796.653Z" transform="translate(-3629.826 -2377.671)" fill="#0e1123"/>
  <path id="Path_35901" data-name="Path 35901" d="M3870.3,2805.079a.841.841,0,1,0,.84.837A.844.844,0,0,0,3870.3,2805.079Z" transform="translate(-3632.048 -2380.961)" fill="#0e1123"/>
  <path id="Path_35902" data-name="Path 35902" d="M3873.089,2800.789a.841.841,0,1,0,.839.837A.844.844,0,0,0,3873.089,2800.789Z" transform="translate(-3633.137 -2379.285)" fill="#0e1123"/>
  <path id="Path_35903" data-name="Path 35903" d="M3847.536,2805.079a.841.841,0,1,0,.84.837A.844.844,0,0,0,3847.536,2805.079Z" transform="translate(-3623.16 -2380.961)" fill="#0e1123"/>
  <path id="Path_35904" data-name="Path 35904" d="M3870.3,2796.653a.841.841,0,1,0,.84.837A.845.845,0,0,0,3870.3,2796.653Z" transform="translate(-3632.048 -2377.671)" fill="#0e1123"/>
  <path id="Path_35905" data-name="Path 35905" d="M3850.325,2792.363a.841.841,0,1,0,.841.837A.843.843,0,0,0,3850.325,2792.363Z" transform="translate(-3624.25 -2375.996)" fill="#0e1123"/>
  <path id="Path_35906" data-name="Path 35906" d="M3850.325,2800.789a.841.841,0,1,0,.841.837A.844.844,0,0,0,3850.325,2800.789Z" transform="translate(-3624.25 -2379.285)" fill="#0e1123"/>
  <path id="Path_35907" data-name="Path 35907" d="M3853.227,2805.079a.841.841,0,1,0,.839.837A.844.844,0,0,0,3853.227,2805.079Z" transform="translate(-3625.382 -2380.961)" fill="#0e1123"/>
  <path id="Path_35908" data-name="Path 35908" d="M3856.016,2800.789a.841.841,0,1,0,.84.837A.845.845,0,0,0,3856.016,2800.789Z" transform="translate(-3626.471 -2379.285)" fill="#0e1123"/>
  <path id="Path_35909" data-name="Path 35909" d="M3856.016,2792.363a.841.841,0,1,0,.84.837A.845.845,0,0,0,3856.016,2792.363Z" transform="translate(-3626.471 -2375.996)" fill="#0e1123"/>
  <path id="Path_35910" data-name="Path 35910" d="M3858.917,2805.079a.841.841,0,1,0,.84.837A.844.844,0,0,0,3858.917,2805.079Z" transform="translate(-3627.604 -2380.961)" fill="#0e1123"/>
  <path id="Path_35911" data-name="Path 35911" d="M3853.227,2796.653a.841.841,0,1,0,.839.837A.845.845,0,0,0,3853.227,2796.653Z" transform="translate(-3625.382 -2377.671)" fill="#0e1123"/>
</svg>
