<svg xmlns="http://www.w3.org/2000/svg" width="75.059" height="153.38" viewBox="0 0 75.059 153.38">
  <g id="char4" transform="translate(0 0)">
    <path id="Path_54090" data-name="Path 54090" d="M5215.89,2319.082l-.011-.018a1,1,0,0,0,.167.029l.071,0a1.218,1.218,0,0,0,1.083-.769,6.586,6.586,0,0,0-.555-3.822,1.472,1.472,0,0,0-1.175-.776.992.992,0,0,0-.736.254,1.3,1.3,0,0,0-.275.366c-1.027-4.5-2.742-11.214-3.3-12.663-1.123-2.928-6.455-10.851-7.973-12.823a19.142,19.142,0,0,0-5.709-5.234.528.528,0,0,0-.313-.206.521.521,0,0,0-.1-.011,7.821,7.821,0,0,0-1.414-.559l.388-2.743a6.856,6.856,0,0,0,2.73-1.756,2.1,2.1,0,0,0,1.162.537,2.037,2.037,0,0,0,1.561-.562,2.98,2.98,0,0,0,.876-2.991,2.521,2.521,0,0,0-.183-.465.5.5,0,0,0,.01-.174,11.725,11.725,0,0,0,1.267-3.521,1.345,1.345,0,0,0,.231-.39c.237-.574.429-.343.694-1.54.46-.11.729-.883.605-1.3a2.931,2.931,0,0,0,1.2-2.156,1.38,1.38,0,0,0,.4-1.247,1.09,1.09,0,0,0,.1-.145c.242.052.475-.113.646-.531.237-.575.43-.344.7-1.54.458-.11.728-.884.6-1.3a2.933,2.933,0,0,0,1.2-2.156,1.382,1.382,0,0,0,.4-1.247,1.107,1.107,0,0,0,.248-.725c.609-.008.853-.785.59-1.274a.783.783,0,0,0-.4-.888,1.67,1.67,0,0,0-.575-1.207,1.188,1.188,0,0,0-1.24-.512c-.68-.59-1.551-2.812-2.562-2.084-.556-.655-1.044-1.628-1.9-1.28a.914.914,0,0,0-.939-.344,4.2,4.2,0,0,0-.746-.218c-.1-1.038-1.626-1.28-2.449-1.247a.807.807,0,0,0-1.062-.4c-1.819-.831-1.907,3.053-3.119,3.885-.72.639-.429,1.631-.932,2.046a28.708,28.708,0,0,0-1.6,2.727,4.065,4.065,0,0,1-1.116,2.147c-.72.64-.429,1.632-.933,2.046a3.1,3.1,0,0,0-.631,1.228.855.855,0,0,0-.434.913c-.092.176-.258.829-.4,1.19a15.026,15.026,0,0,0-1.075,1.815.538.538,0,0,0-.058.205,3.434,3.434,0,0,0-1.009,2.4.292.292,0,0,0-.019.049c-.044.158-.113.4-.193.694-.273.969-.646,2.3-.746,2.832a8.873,8.873,0,0,0,1.8,6.865,6.534,6.534,0,0,0,1.382,1.308.65.65,0,0,0-.03.075c-.01.034-.125.418-.264.916a8.547,8.547,0,0,0-4.51-1.161c-3.463-.11-10.605-11.552-11.764-27.6,1-.945,5.468-5.362,5.369-8.685a3.089,3.089,0,0,0-2.679-3.351c.689-1.81.775-3.251.252-4.286a2.934,2.934,0,0,0-2.018-1.5,3.71,3.71,0,0,0-3.456.482c-.041.035-.08.074-.12.112a4.83,4.83,0,0,0-3.54-.14,3.191,3.191,0,0,0-1.752,1.925,3.684,3.684,0,0,0-.121.4,2.779,2.779,0,0,0-2.858.562,3.64,3.64,0,0,0-.7,3.974,5.639,5.639,0,0,0,1.149,1.949.548.548,0,0,0-.073.177c-.059.287-1.351,6.9,2.493,9.3a54.317,54.317,0,0,0,2.293,12.361c1.929,6.226,5.89,14.618,13.834,19.528-.295.731-.931,2.368-1.671,4.616-1.276.689-2.565,5.3-2.867,6.475a9.029,9.029,0,0,0-2.006-1.153,6.978,6.978,0,0,0-6.031.4,1.209,1.209,0,0,0-.556,1.173l0,.005a.435.435,0,0,0-.027.069c-.55,1.922.039,2.5,1.658,3.152.2.081.441.167.7.255-.648.747-1.308,2.57-3.016,7.3q-.464,1.289-1.045,2.893a1.6,1.6,0,0,0-.336-.322,2.823,2.823,0,0,0-2.592-.427,6.758,6.758,0,0,0-2.227,1.217,3,3,0,0,0-2.294-.369,6.044,6.044,0,0,0-2.945,2.215c-4,4.758-7.735,11.905-10.238,19.608-2.45,7.541-3.42,14.567-2.657,19.276.212,1.312.835,2.126,1.667,2.176.028,0,.055,0,.081,0a1.321,1.321,0,0,0,.681-.191,19.237,19.237,0,0,0,.4,1.941.49.49,0,0,0,.043.108,2.187,2.187,0,0,0,1.845,1.4c.045,0,.09,0,.135-.006.9-.072,1.8-.933,2.607-2.091-.229.7-.38,1.153-.426,1.293a2.287,2.287,0,0,0,.175,2.3,1.687,1.687,0,0,0,.594.479c.008.036.018.073.026.109l-.043.133c-.658,2.046-1.093,3.4-.576,4.4a2.25,2.25,0,0,0,1.429,1.067,1.16,1.16,0,0,0,.35.054,1.255,1.255,0,0,0,.607-.163,3.8,3.8,0,0,0,1.309-1.684,14.424,14.424,0,0,0,7.754,2.519c.382.022.745.034,1.093.034,2.06,0,3.514-.4,4.33-1.194a2.471,2.471,0,0,0,.752-1.928.479.479,0,0,0-.119-.3,6.95,6.95,0,0,0,1.282-2.151c.105-.236.218-.487.343-.753.006-.012.009-.025.014-.038.1-.118.188-.242.275-.368v.029c0,.009-.007.016-.01.025-.069.286-.14.552-.207.8a5.848,5.848,0,0,0-.287,2.857,2.861,2.861,0,0,0-.287,2.386c.579,1.885,2.9,3.521,6.889,4.862a17.669,17.669,0,0,0,5.551,1.063,6.7,6.7,0,0,0,6.344-3.687c.42-.672.568-.636.688-.608.739.18,1-.354,1.173-.957.121-.425.274-.908.438-1.419a29.247,29.247,0,0,0,1.113-4.228.487.487,0,0,0-.383-.55l-.11-.022,3.744-12.738,1.2.45c-2.458,8.145-4.69,16.323-5.16,19.966-.356,2.754.525,3.612,1.328,3.846a1.776,1.776,0,0,0,.5.069,3.434,3.434,0,0,0,2.772-1.878,61.77,61.77,0,0,0,1.977-5.969l1.617.689c-.659,2.179-1.105,3.7-1.2,4.143a1.519,1.519,0,0,0,.941,1.935,1.37,1.37,0,0,0,.379.052,2.009,2.009,0,0,0,1.8-1.523c.526-1.5,6.627-21.311,9.78-31.566a2.384,2.384,0,0,0,1.171.306,2.359,2.359,0,0,0,.356-.026c1.629-.232,3.28-1.979,4.91-5.191C5219.833,2326.182,5217.163,2321.045,5215.89,2319.082Zm-7.377.11a2.33,2.33,0,0,1-.48,1.449,3.833,3.833,0,0,0-.687,2.475,1.643,1.643,0,0,0-1.133-.724c-.992-.108-2,.861-3.083,2.958-.719,1.39-2.77,7.306-5,14.333l-1.3-.487,3.209-10.915.234.075a.543.543,0,0,0,.161.025.529.529,0,0,0,.5-.347l.7-1.9a.528.528,0,0,0-.321-.679l-.945-.332,3.916-14.557c.4.09.69.151.771.168a2.183,2.183,0,0,0,.558.07,2.061,2.061,0,0,0,.874-.19c.256,1.233.611,2.559.96,3.85.18.667.355,1.321.514,1.943a.594.594,0,0,0-.308.715q.133.477.265.954a1.627,1.627,0,0,0,.449.921l.146.118C5208.5,2319.14,5208.51,2319.167,5208.513,2319.192Zm-8.646,41.367-1.666-.632c.652-2.252,1.389-4.866,2.188-7.776.378-1.38.841-2.97,1.346-4.665l1.843.784a.516.516,0,0,0,.091.029C5202.316,2352.625,5200.944,2357.042,5199.866,2360.559Zm8.292-26.587-1.945-.828a.51.51,0,0,0-.131-.035c.067-.23.134-.454.2-.674l2.111.8C5208.318,2333.461,5208.241,2333.709,5208.158,2333.972Zm-4.174,13.313-1.943-.827q.1-.33.2-.662l1.967.776Q5204.095,2346.928,5203.984,2347.285Zm.54-1.733-1.975-.779c.4-1.312.806-2.65,1.211-3.974.779-2.551,1.454-4.771,2.023-6.683l.012.006,2.041.87C5207.008,2337.632,5205.809,2341.45,5204.524,2345.553Zm4.187-13.336-2.134-.809c.3-1.057.561-1.983.772-2.787a2.837,2.837,0,0,0,.036,2.031,2.465,2.465,0,0,0,1.444,1.188Zm-38.681,9.255c1.126.389,2.18.776,3.05,1.127l-.5,1.824a2.2,2.2,0,0,0-.225-.081c-.048-.015-.22-.091-.358-.152-.354-.156-.617-.267-.824-.34A4.461,4.461,0,0,0,5170.03,2341.471Zm-18.515,14.75.012-.031c.018-.055.465-1.411,1.149-3.473-.012.092-.023.185-.027.275a8.757,8.757,0,0,0,.024,1.307.526.526,0,0,0-.406.353,4.711,4.711,0,0,0-.211,2.24,1.673,1.673,0,0,0-.23.144,1.4,1.4,0,0,0-.344.371A1.357,1.357,0,0,1,5151.516,2356.221Zm14.871,5.437a1.732,1.732,0,0,1-.172.07,21.116,21.116,0,0,1-6.985-.273,10.183,10.183,0,0,1-1.435-.484,13.618,13.618,0,0,1-2.882-1.614,6.383,6.383,0,0,1-1.516-1.8c-.034-.058-.068-.114-.1-.168a3.186,3.186,0,0,1-.217-1.477c.752,1.733,2.611,3.153,6.643,4.355a14.283,14.283,0,0,0,4.49.795,8.152,8.152,0,0,0,3.76-.83A3.236,3.236,0,0,1,5166.387,2361.658Zm-1.159-1.717a12.22,12.22,0,0,1-5.186-.689c-3.129-.933-4.789-1.92-5.615-3.107a.554.554,0,0,0,.027-.146,6.665,6.665,0,0,1,2.776-4.953,4.978,4.978,0,0,1,4.471-.787,6.675,6.675,0,0,1,4.375,3.6c.648,1.626.378,3.533-.806,5.669A.531.531,0,0,0,5165.228,2359.942Zm-11.854-9.319c2.323-6.985,6.109-18.265,6.9-20.031,1.03-2.3,2.093-2.705,2.09-2.705h0c.162-.043.571-.087.725.073.045.047.148.208.1.644l-.205.654-.87.934a8.646,8.646,0,0,0-1.821,2.978l-4.88,14.143a.507.507,0,0,0-.025.123A23.867,23.867,0,0,0,5153.373,2350.623Zm4.752-21.465q-.111.185-.222.379l-1.159-3.714c.077-.158.152-.314.229-.468Zm-.637-4.828c.659-1.283,1.281-2.391,1.867-3.351l-.617,7.275-.042.058Zm-.1,6.22c-.08.173-.157.35-.233.531l-2.376-.9c.5-1.19.99-2.288,1.462-3.3Zm-.522,1.268c-.1.279-.194.55-.279.815l-2.459-.878c.115-.287.231-.57.346-.847Zm-.5,1.576c-.022.084-.043.165-.062.247l-3.617,2.18c.324-1.088.7-2.2,1.149-3.33Zm-.292,1.308c-.025.156-.054.311-.073.461l-3.773,2.311c.045-.179.094-.359.143-.539Zm-1.215,2.088-3.415,4.382c.146-.852.315-1.721.519-2.609Zm1.059-.071c0,.115.014.224.023.332l-4.835,6.391q.042-.328.089-.662Zm1.6-4.712c.993-2.69,2.3-4.229,3.094-4.521a.8.8,0,0,1,.271-.054.471.471,0,0,1,.224.055,7.856,7.856,0,0,0-1.8,2.674c-.381.85-1.406,3.754-2.629,7.322A11.537,11.537,0,0,1,5157.519,2332.008Zm2.094-4.685.659-7.771c.115-.169.228-.332.338-.489l-.781,8.094C5159.757,2327.208,5159.685,2327.263,5159.612,2327.323Zm15.057-26.318a.5.5,0,0,0,.26-.038l.453.112a1.8,1.8,0,0,0,.433.049h.01c-.483,1.343-3.153,8.752-3.792,10.679a3.713,3.713,0,0,0-2.682.652C5173.148,2302.048,5173.624,2300.893,5174.669,2301.005Zm13.342,12.419.744-1.883c.2-.354,2.66-4.527,6.659-3.8a2.556,2.556,0,0,1,1.827,1.364c1.476,2.594,1.049,8.627-1.231,17.446-.793,3.067-1.687,5.981-2.429,8.255a.364.364,0,1,0-.272.6.338.338,0,0,0,.079-.01c-.354,1.072-.665,1.975-.9,2.648a.361.361,0,0,0-.2.576c-.048.137-.092.257-.128.358-.267-.093-.559-.189-.872-.288a.357.357,0,0,0,.149-.295.364.364,0,1,0-.729.009.385.385,0,0,0,.023.117c-.261-.078-.534-.156-.814-.235a.361.361,0,0,0-.586-.16c-.628-.169-1.293-.338-1.976-.5a.363.363,0,0,0-.051-.722.362.362,0,0,0-.208.661c-.311-.074-.624-.146-.938-.217a.377.377,0,0,0,.01-.082.364.364,0,0,0-.721-.074q-.45-.1-.9-.188a.362.362,0,0,0-.248-.1.345.345,0,0,0-.126.023c-.728-.145-1.437-.276-2.112-.388h0a.37.37,0,1,0-.115-.019q-.56-.091-1.076-.163a.355.355,0,0,0,.05-.183.364.364,0,1,0-.729.009.339.339,0,0,0,.015.089q-.417-.05-.789-.08a.108.108,0,0,0,0-.018.363.363,0,0,0-.271-.348l.285-.721a.364.364,0,1,0,.359-.425.36.36,0,0,0-.221.076l1.056-2.67a.364.364,0,0,0,.293-.358.37.37,0,0,0-.068-.209l6.686-16.9A10.483,10.483,0,0,0,5188.011,2313.425Zm25.115-.156a6.742,6.742,0,0,0-4.693.834c-.056-.21-.113-.422-.169-.633a7.462,7.462,0,0,1,4.593-1.338C5212.949,2312.518,5213.039,2312.9,5213.126,2313.269Zm-6.979-3.675a1.108,1.108,0,0,1-.821.121l-.047-.012a41.193,41.193,0,0,1-4.795-1.281c-.892-.357-1.179-.544-1.131-1.106a1.114,1.114,0,0,1,.143-.213,5.554,5.554,0,0,0,1.052.474,20.438,20.438,0,0,0,5.8,1.357c.093,0,.181,0,.265-.008A1.289,1.289,0,0,1,5206.147,2309.594Zm-10.37,29.445a.515.515,0,0,0-.155.161,1.391,1.391,0,0,0-.243-.108,1.571,1.571,0,0,0-.439-.078l3.15-11.353.944.3Zm-12.271,26.212a.506.506,0,0,0-.06.157,15.1,15.1,0,0,1-5.736-1,11.923,11.923,0,0,1-4.725-2.449.529.529,0,0,0,.04-.125c.463-2.646,1.58-4.579,3.23-5.588a6.264,6.264,0,0,1,5.168-.474,4.383,4.383,0,0,1,2.607,2.794A9.584,9.584,0,0,1,5183.507,2365.251Zm1.533-7.034a5.409,5.409,0,0,0-3.246-3.447l-.035-.013a7.32,7.32,0,0,0-6.058.577,8.488,8.488,0,0,0-3.591,5.65,5.232,5.232,0,0,1-.506-.846,4.69,4.69,0,0,1,.078-4.012,73.047,73.047,0,0,1,5.1-9.443.466.466,0,0,0,.035-.071c.06-.139.486-.229.993-.229a3.923,3.923,0,0,1,1.039.133.529.529,0,0,0,.583-.209,4.546,4.546,0,0,1,3.9-1.348c1.587.228,2.776,1.4,3.44,3.392a.533.533,0,0,0,.336.336c1.588.53,2.1,1.046,2.043,1.354-.205,1.188-.4,2.419-.578,3.61-.418,2.718-.852,5.527-1.539,8.308a4.339,4.339,0,0,1-1.938,2.978,3.332,3.332,0,0,1-.342.162A10.689,10.689,0,0,0,5185.04,2358.218Zm-3.275-14.275a5.515,5.515,0,0,0-2.971,1.47,6.061,6.061,0,0,0-.684-.083l.741-2.021C5179.763,2343.479,5180.753,2343.7,5181.765,2343.943Zm5.928,3.819a6.435,6.435,0,0,0-1.77-2.739l1.267.346c.7.192,1.326.365,1.879.511l-.661,2.162C5188.145,2347.926,5187.9,2347.832,5187.692,2347.762Zm2.513,2.048a1.886,1.886,0,0,0-.855-1.24l.741-2.426a9.333,9.333,0,0,0,1.2.239C5190.929,2347.513,5190.559,2348.687,5190.205,2349.81Zm1.395-4.41a.514.514,0,0,0-.215-.066c-.487-.04-2.076-.477-3.916-.982a81.753,81.753,0,0,0-10.212-2.358c-.646-.075-.737-.946-.732-1.458.013-1.575.881-3.261,1.5-3.323,2.564-.256,13.453,2.265,15.008,3.279a.482.482,0,0,0,.14.062C5192.852,2341.485,5192.263,2343.314,5191.6,2345.4Zm-30.23-7.476c-.376-.051-.763-.213-.777-1.027-.029-1.7,1.515-4,2-4.085a28.667,28.667,0,0,1,7.131,1.407c3.557,1.034,6.206,2.189,6.751,2.945l0,0a6.486,6.486,0,0,0-1.013,3.361,3.44,3.44,0,0,0,.28,1.477c-.125.34-.256.431-.3.451a.167.167,0,0,1-.077.018h-.013A71.5,71.5,0,0,0,5161.369,2337.923Zm1.8-11.411,2.567-9.284.982.349a.521.521,0,0,0-.133.215l-2.918,9.281a1.524,1.524,0,0,0-.707-.266A.537.537,0,0,0,5163.166,2326.512Zm1.809,1.556a.363.363,0,1,0-.324.646c-.105.209-.205.409-.3.6a.361.361,0,0,0-.2-.154c.024-.108.045-.212.061-.313l3.376-10.739a.52.52,0,0,0,.021-.214l2.338.829C5167.96,2322.25,5166.205,2325.629,5164.975,2328.068Zm-.929,1.8c.01,0,.021,0,.03,0-.2.4-.371.754-.51,1.04l.335-1.065A.35.35,0,0,0,5164.046,2329.869Zm17.2-2.218-3.349,8.466a.526.526,0,0,0-.016.052,1.511,1.511,0,0,0-.455.135C5178.1,2334.477,5179.6,2331.156,5181.247,2327.651Zm12.354,11.954a3.605,3.605,0,0,0-.464-.242c.521-1.426,2.293-6.413,3.78-12.076l.167.053-3.28,11.82a.506.506,0,0,0-.006.247A1.511,1.511,0,0,0,5193.6,2339.605Zm5.543-25.575a12.458,12.458,0,0,1,1.249-4.514c.2.073.424.145.657.217l-2.272,8.646A35.4,35.4,0,0,0,5199.144,2314.03Zm.969,13.168-2.932-.935q.132-.522.259-1.05l3.013,1.059Zm-1.834-2.808c.007-.02.021-.037.026-.058l3.76-14.308c.4.107.807.21,1.183.3l-3.886,14.446Zm3.185-20.625.925-4.419c.705,1.439,1.35,2.841,1.861,3.953.122.267.239.522.35.763A6.423,6.423,0,0,0,5201.463,2303.765Zm-3.17-9.674c.08-.4.178-.8.295-1.2a15.893,15.893,0,0,1,1.288,1.812Zm-11.261,18.937-.461,1.165c-.428.864-6.46,13.054-9.2,19.446a.361.361,0,0,0-.183.32.434.434,0,0,0,.012.08q-.146.347-.278.667a.364.364,0,0,0-.271.675c-.059.148-.113.291-.164.426a9.368,9.368,0,0,0-.92-.533.361.361,0,0,0-.279-.593.367.367,0,0,0-.356.287c-.518-.238-1.089-.473-1.7-.7a.363.363,0,1,0-.548-.305.387.387,0,0,0,.021.112c-.275-.1-.555-.2-.84-.292a.359.359,0,0,0-.474-.155c-.606-.2-1.227-.383-1.845-.558a.364.364,0,1,0-.632-.239.477.477,0,0,0,.008.066q-.407-.11-.809-.212a.363.363,0,0,0-.336-.225.359.359,0,0,0-.229.084c-.728-.177-1.425-.33-2.063-.453a.371.371,0,1,0-.028-.006c-.39-.075-.756-.137-1.095-.189a.351.351,0,0,0,.041-.166.334.334,0,0,0-.016-.1c.09-.187.2-.411.328-.672a.345.345,0,0,0,.064.005.361.361,0,0,0,.241-.629c.088-.175.179-.361.276-.556a.36.36,0,0,0,.247.094.364.364,0,0,0,.065-.721q.157-.312.326-.649a.363.363,0,1,0,.342-.49.394.394,0,0,0-.1.016,178.062,178.062,0,0,1,9.815-17.207l.715-.925a.481.481,0,0,0,.065-.117,1.348,1.348,0,0,0,.055-.179c.247-.354.494-.7.74-1.037,2.429-3.325,5.191-4.531,7.392-3.226C5186.916,2306.494,5188.113,2309.644,5187.032,2313.028Zm-15.945,3.7q-.308.53-.61,1.059l-5.309-1.883.364-1.094Zm-6.654.035.271.1-1.749,6.332-.953,1.948Zm-4.674,21.169a1.8,1.8,0,0,0,1.47,1.033q.132.018.284.044l-.618,1.665a.6.6,0,0,0-.028.154,2.252,2.252,0,0,0-1.644,1.111c-.012.018-.025.037-.036.056a27.352,27.352,0,0,1-1.736,2.628Zm2.809,1.3c.425.1.9.22,1.4.356a6.029,6.029,0,0,0-1.931,1.065Zm11.221,6.971a1.6,1.6,0,0,0-.325-1.077.492.492,0,0,0,.035-.075l.563-2.039c.326.146.6.281.814.4l.025.014a1.139,1.139,0,0,0,.484.1,1.211,1.211,0,0,0,.479-.1,1.458,1.458,0,0,0,.645-.583,1.715,1.715,0,0,0,.627.2c.21.025.431.055.657.089l-.831,2.264a1.485,1.485,0,0,0-1.105.763c-1.444,2.374-2.5,4.158-3.422,5.933A31.989,31.989,0,0,0,5173.788,2346.2Zm3.608,19.221a18.163,18.163,0,0,0,5.43,1.082,5.772,5.772,0,0,0,2.585-.535c-1.6,1.9-4.658,1.572-6.961,1.106-2.851-.577-6.738-3-7.451-4.328a2.949,2.949,0,0,1-.345-2.131C5171.66,2362.745,5174.06,2364.452,5177.4,2365.423Zm16.9-21.348-4.346,14.559c-.345-.106-.661-.226-1.05-.38.107-.6.207-1.188.3-1.779a.55.55,0,0,0,.056-.119c.047-.147,4.581-14.689,5.088-15.971a.6.6,0,0,1,.7-.292c.267.089.26.439.217.693Zm14.656-28.008q-.111-.437-.232-.891a5.725,5.725,0,0,1,4.669-.778c.036.158.071.313.106.466-.645.1-1.285.233-1.921.38A11.321,11.321,0,0,0,5208.952,2316.067Zm6.311-.642a1.264,1.264,0,0,1,.161-.641.4.4,0,0,1,.261.184,5.791,5.791,0,0,1,.527,2.979.237.237,0,0,1-.089.093s-.077-.016-.234-.244A3.521,3.521,0,0,1,5215.263,2315.425Zm-23.853-51.846c2.342-.417,6.907-.722,9.1,3.9h-.01a.322.322,0,0,0,.043.642.317.317,0,0,0,.2-.094l.03.072c.011.322.088,1.709.509,1.655a1.246,1.246,0,0,1,.181.283.32.32,0,1,0,.352.328,2.248,2.248,0,0,1,.594.446.313.313,0,0,0-.124-.017.321.321,0,0,0,.04.642.307.307,0,0,0,.088-.023,11.771,11.771,0,0,1-.682,2.048.2.2,0,0,0-.021,0,.319.319,0,0,0-.277.207q-.187-.216-.373-.432a.318.318,0,0,0,.2-.321.323.323,0,0,0-.347-.292.314.314,0,0,0-.244.158q-.543-.628-1.084-1.257l-.354-.41a.348.348,0,0,0-.062-.055,2.857,2.857,0,0,0-1.4-3.468,2.562,2.562,0,0,0-2.166.055,3.216,3.216,0,0,0-1.286,1.119,5.692,5.692,0,0,0-.934-.431,3.21,3.21,0,0,0-.026-1.707,2.563,2.563,0,0,0-1.406-1.647,2.47,2.47,0,0,0-1.41-.176A12.211,12.211,0,0,1,5191.41,2263.579Zm2.317,7.1a.523.523,0,0,0-.2-.235c-.116-.076-.263-.184-.428-.306-.135-.1-.283-.208-.438-.317a2.293,2.293,0,0,0,.335-.507,4.672,4.672,0,0,1,.872.407A3.338,3.338,0,0,0,5193.728,2270.678Zm-3.853-1.27a2.085,2.085,0,0,0-.118.176,1.547,1.547,0,0,1-.708-.926,2.235,2.235,0,0,1,.124-1.547,1.88,1.88,0,0,1,2.354-1.171,1.525,1.525,0,0,1,.824.986,2.243,2.243,0,0,1-.126,1.551c-.206.461-.281.617-.5.774C5191.047,2268.918,5190.346,2268.8,5189.875,2269.409Zm5.115.314a2.237,2.237,0,0,1,1.067-1.125,1.529,1.529,0,0,1,1.286-.046,2.066,2.066,0,0,1-1.652,3.7,1.523,1.523,0,0,1-.825-.986A2.236,2.236,0,0,1,5194.99,2269.722Zm-5.408,8.113a7.77,7.77,0,0,1-1.592-6.011c.068-.362.293-1.194.507-1.966a2.45,2.45,0,0,0,.913.733,3.328,3.328,0,0,0,.039,1.072,3.758,3.758,0,0,0,1.773,2.509.528.528,0,0,0,.524-.916,2.687,2.687,0,0,1-1.263-1.8,1.775,1.775,0,0,1,.226-1.4c.03-.039.26-.179,1.766.932.184.136.344.253.479.341a.529.529,0,0,0,.73-.155.489.489,0,0,0,.061-.14,3.055,3.055,0,0,0,.109.538,2.562,2.562,0,0,0,1.405,1.648,2.442,2.442,0,0,0,1,.211,3.022,3.022,0,0,0,2.438-1.366l1.7,1.973a.516.516,0,0,0-.119.247.528.528,0,0,0,.427.612c.426.076.592.529.646.719a1.932,1.932,0,0,1-.548,1.914,1.011,1.011,0,0,1-.764.312,1.4,1.4,0,0,1-.882-.612.546.546,0,0,0-.444-.206.526.526,0,0,0-.421.248c-.017.024-1.579,2.45-5.806,2.292A4.077,4.077,0,0,1,5189.582,2277.835Zm2.866,2.784c.146.006.29.008.433.008a9.907,9.907,0,0,0,2.049-.207l-.379,2.684a3.8,3.8,0,0,1-1.185,2.331,1.8,1.8,0,0,1-1.521.2,2.139,2.139,0,0,1-1.439-2.713c.135-.75.546-2.171.674-2.609A4.016,4.016,0,0,0,5192.448,2280.619Zm-2.895,1.279c-.076.308-.143.6-.186.841-.279,1.563.157,3.414,2.225,3.924a3.564,3.564,0,0,0,.85.109,2.623,2.623,0,0,0,1.526-.47,4.234,4.234,0,0,0,1.494-2.4,6.868,6.868,0,0,1,.968.384,7.027,7.027,0,0,1-1.3,2.771,3.842,3.842,0,0,1-2.862,1.5h-.006a4.239,4.239,0,0,1-3.564-2.759,6.244,6.244,0,0,1-.088-4.47,3.193,3.193,0,0,1,.873.513A.554.554,0,0,0,5189.554,2281.9Zm-22.083-22.235c.717.069,1.435.106,2.152.106a22.337,22.337,0,0,0,3.859-.337q.13.682.274,1.349a17.178,17.178,0,0,1-6.091-.184C5167.6,2260.279,5167.531,2259.967,5167.471,2259.662Zm6.766-24.432a1.9,1.9,0,0,1,1.337.954c.388.767.267,1.99-.339,3.539a5.576,5.576,0,0,1-1.584-.671,4.193,4.193,0,0,0-2.761-.71,4.128,4.128,0,0,1,.526-2.492.532.532,0,0,0,.155-.2v0a1.688,1.688,0,0,1,.152-.157A2.743,2.743,0,0,1,5174.236,2235.23Zm-7.615,1.716a2.132,2.132,0,0,1,1.173-1.314,3.617,3.617,0,0,1,2.494.062,5.948,5.948,0,0,0-.44,2.954,2.915,2.915,0,0,0-.33.19,3.155,3.155,0,0,0-1.149,3.416c.013.062.029.117.043.177a.924.924,0,0,1-.725-.046C5167.05,2242.1,5165.895,2238.946,5166.621,2236.946Zm-3.256,1.378a1.746,1.746,0,0,1,1.91-.3.477.477,0,0,0,.078.025,7.439,7.439,0,0,0,1.487,5,1.117,1.117,0,0,1-1.024.738,3.538,3.538,0,0,1-2.872-2.611A2.628,2.628,0,0,1,5163.365,2238.324Zm2.914,13.845c-2.976-1.608-2.5-6.5-2.287-7.919a3.263,3.263,0,0,0,1.785.6h.068a2.153,2.153,0,0,0,1.946-1.334,1.943,1.943,0,0,0,.324.031,1.889,1.889,0,0,0,.634-.11,4.551,4.551,0,0,0,.538.894,6.444,6.444,0,0,0-1.884,2.66.528.528,0,1,0,.986.375,5.359,5.359,0,0,1,1.651-2.286,4.066,4.066,0,0,0,2.088.848.528.528,0,0,0,.076-1.052,3.216,3.216,0,0,1-2.629-2.205.527.527,0,0,0-.106-.348c-.023-.088-.049-.174-.067-.269a2.133,2.133,0,0,1,.7-2.335,2.755,2.755,0,0,1,2.966.222,7.8,7.8,0,0,0,2.462.958c1.433.366,2.3.587,2.353,2.483.095,3.178-5.16,8-5.213,8.049a.525.525,0,0,0-.171.426,62.536,62.536,0,0,0,.789,6.542,21.267,21.267,0,0,1-5.993.192.267.267,0,0,0-.031,0,45.888,45.888,0,0,1-.712-5.968A.528.528,0,0,0,5166.279,2252.169Zm16.292,31.993c-7.909-4.7-11.84-13-13.745-19.142-.354-1.139-.652-2.246-.9-3.3a17.875,17.875,0,0,0,6.067.094c2.637,11.234,7.878,18.765,11.313,18.874a10.755,10.755,0,0,1,2.306.3,7.327,7.327,0,0,0,.112,5.211,5.238,5.238,0,0,0,4.54,3.409h.008a4.9,4.9,0,0,0,3.677-1.886,7.889,7.889,0,0,0,1.438-2.92,18.879,18.879,0,0,1,4.969,4.7c1.449,1.882,6.753,9.767,7.824,12.558.413,1.075,1.487,5.156,2.425,9.01a8.582,8.582,0,0,0-4.624,1.3c-.233-.907-.441-1.8-.589-2.619a3.516,3.516,0,0,0,.413-1.313.252.252,0,0,0,0-.039,1.706,1.706,0,0,0,.247-1.382,3.762,3.762,0,0,0-1.926-2.206c-.24-.488-.555-1.173-.917-1.962-2.53-5.505-5.183-10.962-7.375-11.947a.527.527,0,0,0-.432.963,2.05,2.05,0,0,1,.364.219,15.944,15.944,0,0,0-.708,3.26c-.177,1.345-.264,2.7-.311,4.057-.08,2.387-.032,4.779.092,7.164.011.208.021.417.034.625a3.537,3.537,0,0,0-1.269-.494,6.639,6.639,0,0,0-5.789,1.862,10.647,10.647,0,0,0-1.33,1.475,8.507,8.507,0,0,0-.188-1.44,6.387,6.387,0,0,0-2.8-4.176c-2.541-1.507-5.577-.456-8.236,2.805a81.7,81.7,0,0,1,5.525-22.407A.526.526,0,0,0,5182.571,2284.163Zm-13.229,13.21a5.55,5.55,0,0,0,1.1.5h0a23.7,23.7,0,0,0,6.077,1.453c.081,0,.157,0,.233-.006a1.3,1.3,0,0,1-.433.6.913.913,0,0,1-.683.138c-.037-.009-3.646-.883-5.1-1.468C5169.522,2298.18,5169.25,2298,5169.342,2297.373Zm-.517,10.108c2.554-7.076,2.6-7.081,3.42-7.177a.538.538,0,0,0,.1-.023c.281.081.563.159.838.233a6.053,6.053,0,0,0-.963,1.536c-.815,1.689-1.963,4.835-4.046,10.547l-.593,1.627a.532.532,0,0,0-.03.172l-1.1-.381C5167.423,2311.365,5168.2,2309.218,5168.825,2307.481Zm-4.823,7.936-3.3,11.355-.045.006.862-8.931A11.9,11.9,0,0,1,5164,2315.416Zm-14.158,14.752c-3.232,8.547-4.618,15.951-4.083,21.681-.2.356-.408.495-.53.486-.188-.012-.543-.373-.69-1.291-.736-4.549.218-11.394,2.618-18.781,2.464-7.579,6.124-14.6,10.043-19.255a5.164,5.164,0,0,1,2.4-1.872,1.933,1.933,0,0,1,1.163.084C5157.2,2314.523,5153.129,2321.48,5149.844,2330.168Zm.82,17.845c.072-.971.156-1.981.265-3.023l3.886-5.135-4.13,8.452C5150.676,2348.214,5150.669,2348.118,5150.664,2348.013Zm2.553-.391a8.449,8.449,0,0,1-1.244,1.516l2.527-5.22c-.415,1.235-.824,2.456-1.213,3.621A.528.528,0,0,0,5153.217,2347.623Zm14.329,11.633a5.916,5.916,0,0,1-1.17.465,7.366,7.366,0,0,0,.69-6.254,7.725,7.725,0,0,0-5.043-4.223,6.019,6.019,0,0,0-5.412.936,7.972,7.972,0,0,0-2.885,3.92,7.851,7.851,0,0,1-.014-1.055c.084-1.708,1.895-4.142,3.645-6.5a40.174,40.174,0,0,0,2.744-4c.529-.713.8-.689,1.277-.645a3.557,3.557,0,0,0,.677.014.532.532,0,0,0,.313-.141,4.376,4.376,0,0,1,5.125-.92c1.705.809,2.688,2.386,2.622,3.383a.531.531,0,0,0,.174.43.552.552,0,0,0,.372.138,8.214,8.214,0,0,1,.9.359,4.9,4.9,0,0,0,.481.2.935.935,0,0,1,.687.7,33.135,33.135,0,0,1-1.744,6.994c-.313.919-.637,1.87-.934,2.943A5.035,5.035,0,0,1,5167.546,2359.255Zm27.533-14.1.243-.826.915-3.064c.021-.08.04-.157.055-.233l.24-.818,1.278.479c-.5,1.6-1.017,3.254-1.521,4.914Zm2.625,16.471q.1-.329.2-.67l1.651.626c-.076.251-.152.5-.225.737Zm2.232,5.977c-.246.7-.679.865-.892.8s-.282-.329-.2-.691c.49-2.207,10.147-32.874,11.056-35.76l.042,0a3.137,3.137,0,0,0,1.139-.355C5208.975,2338.446,5200.543,2365.867,5199.937,2367.6Zm16.271-36.607c-1.905,3.756-3.382,4.508-4.093,4.621a1.271,1.271,0,0,1-1.063-.279.1.1,0,0,0-.014-.012c.85-2.763,1.428-4.642,1.524-4.959a.516.516,0,0,0,.009-.264,4.781,4.781,0,0,0,.406-.971,15.839,15.839,0,0,0,.62-5.5.528.528,0,0,0-1.051.1,14.982,14.982,0,0,1-.581,5.1,2.643,2.643,0,0,1-2.133,2.074,1.486,1.486,0,0,1-1.52-.752,2.842,2.842,0,0,1,.146-1.638,8.678,8.678,0,0,0,.05-4.956,2.61,2.61,0,0,1,.436-2.385,3.465,3.465,0,0,0,.625-1.921,36.948,36.948,0,0,1,4.347-1.1,1.592,1.592,0,0,1,.338-.023,4.666,4.666,0,0,0,.664,1.4l.085.129C5216.179,2321.466,5218.644,2326.193,5216.208,2330.994Z" transform="translate(-5143.244 -2234.011)" fill="#d9cbb4"/>
    <path id="Path_54091" data-name="Path 54091" d="M5317.848,2756.814a37.139,37.139,0,0,0,5.791-2.285c.586-.323.063-1.221-.525-.9a35.535,35.535,0,0,1-5.542,2.18C5316.942,2756.03,5317.212,2757.034,5317.848,2756.814Z" transform="translate(-5271.314 -2616.485)" fill="#d9cbb4"/>
    <path id="Path_54092" data-name="Path 54092" d="M5323.288,2774.371a10.129,10.129,0,0,1-3.86.513.526.526,0,0,0-.45.782q.846,1.765,1.8,3.472l-5.072-.151a.523.523,0,0,0-.5.658,34.744,34.744,0,0,0,2.454,5.083.52.52,0,0,0,.9-.524,33.471,33.471,0,0,1-2.068-4.153l5.2.156a.524.524,0,0,0,.448-.783q-.99-1.712-1.87-3.484a10.934,10.934,0,0,0,3.3-.565C5324.195,2775.162,5323.924,2774.157,5323.288,2774.371Z" transform="translate(-5269.818 -2631.783)" fill="#d9cbb4"/>
    <path id="Path_54093" data-name="Path 54093" d="M5365.4,2753.431c-.217-.629-1.222-.358-1,.276q1.134,3.29,2.462,6.506a.537.537,0,0,0,.64.363.523.523,0,0,0,.362-.64Q5366.531,2756.721,5365.4,2753.431Z" transform="translate(-5306.025 -2616.126)" fill="#d9cbb4"/>
    <path id="Path_54094" data-name="Path 54094" d="M5359.444,2774.952q.015,4.894-.093,9.789a.52.52,0,0,0,1.039,0q.11-4.894.093-9.789A.52.52,0,0,0,5359.444,2774.952Z" transform="translate(-5302.334 -2631.862)" fill="#d9cbb4"/>
    <path id="Path_54095" data-name="Path 54095" d="M5207.889,2661.648a.528.528,0,0,0,0,1.056,9.161,9.161,0,0,1,5.768,2.565.527.527,0,1,0,.749-.743A10.176,10.176,0,0,0,5207.889,2661.648Z" transform="translate(-5190.445 -2548.822)" fill="#d9cbb4"/>
    <path id="Path_54096" data-name="Path 54096" d="M5212.521,2654.494a.528.528,0,0,0-.152,1.044,10.5,10.5,0,0,1,5.739,2.615.528.528,0,0,0,.73-.763A11.566,11.566,0,0,0,5212.521,2654.494Z" transform="translate(-5193.799 -2543.552)" fill="#d9cbb4"/>
    <path id="Path_54097" data-name="Path 54097" d="M5220.029,2648.559l-.269-.08a.528.528,0,0,0-.3,1.012l.271.08a9.664,9.664,0,0,1,3.817,1.741.53.53,0,0,0,.354.135.528.528,0,0,0,.353-.92A10.438,10.438,0,0,0,5220.029,2648.559Z" transform="translate(-5199.073 -2539.112)" fill="#d9cbb4"/>
    <path id="Path_54098" data-name="Path 54098" d="M5275.153,2682.93a.528.528,0,1,0,.152,1.044,6.88,6.88,0,0,1,5.546,1.726.527.527,0,0,0,.745-.028.528.528,0,0,0-.028-.746A7.846,7.846,0,0,0,5275.153,2682.93Z" transform="translate(-5240.019 -2564.43)" fill="#d9cbb4"/>
    <path id="Path_54099" data-name="Path 54099" d="M5278.253,2674.552a.527.527,0,1,0-.112,1.049c1.94.208,4.468.887,5.33,1.734a.528.528,0,0,0,.74-.752C5282.954,2675.348,5279.764,2674.715,5278.253,2674.552Z" transform="translate(-5242.203 -2558.319)" fill="#d9cbb4"/>
    <path id="Path_54100" data-name="Path 54100" d="M5287.472,2668.749a8.675,8.675,0,0,0-4.731-1.244.528.528,0,1,0,0,1.055,7.676,7.676,0,0,1,4.188,1.092.528.528,0,0,0,.544-.9Z" transform="translate(-5245.548 -2553.133)" fill="#d9cbb4"/>
    <path id="Path_54101" data-name="Path 54101" d="M5363.607,2377.587a.321.321,0,1,0-.338-.3A.322.322,0,0,0,5363.607,2377.587Z" transform="translate(-5305.218 -2339.234)" fill="#d9cbb4"/>
    <path id="Path_54102" data-name="Path 54102" d="M5356.44,2357.979a.322.322,0,1,0-.346-.294A.322.322,0,0,0,5356.44,2357.979Z" transform="translate(-5299.936 -2324.799)" fill="#d9cbb4"/>
    <path id="Path_54103" data-name="Path 54103" d="M5359.9,2367.922a.322.322,0,1,0-.339-.3A.322.322,0,0,0,5359.9,2367.922Z" transform="translate(-5302.49 -2332.118)" fill="#d9cbb4"/>
    <path id="Path_54104" data-name="Path 54104" d="M5354.444,2391.426a.488.488,0,0,0,.679-.108.532.532,0,0,1,.674-.152.486.486,0,0,0,.424-.875,1.5,1.5,0,0,0-1.885.456A.486.486,0,0,0,5354.444,2391.426Z" transform="translate(-5298.574 -2348.944)" fill="#d9cbb4"/>
    <path id="Path_54105" data-name="Path 54105" d="M5341.906,2369.218a.516.516,0,0,0,.224.05.529.529,0,0,0,.478-.3l.474-1.007a.528.528,0,0,0-.956-.449l-.474,1.007A.529.529,0,0,0,5341.906,2369.218Z" transform="translate(-5289.268 -2332.064)" fill="#d9cbb4"/>
    <path id="Path_54106" data-name="Path 54106" d="M5320.374,2358.152a.528.528,0,0,0-.693.278l-.425.992a.528.528,0,0,0,.971.416l.424-.992A.528.528,0,0,0,5320.374,2358.152Z" transform="translate(-5272.786 -2325.367)" fill="#d9cbb4"/>
    <path id="Path_54107" data-name="Path 54107" d="M5325.6,2391.679c.055.005.109.008.164.008a3.187,3.187,0,0,0,2.248-1.477l.1-.006a.528.528,0,0,0-.071-1.053c-2.144.146-3.071-.226-3.95-.915a.528.528,0,1,0-.652.831,5.94,5.94,0,0,0,.7.481C5324.165,2390.374,5324.484,2391.571,5325.6,2391.679Z" transform="translate(-5275.748 -2347.463)" fill="#d9cbb4"/>
    <path id="Path_54108" data-name="Path 54108" d="M5326.284,2616.293a.364.364,0,1,0-.369-.357A.366.366,0,0,0,5326.284,2616.293Z" transform="translate(-5277.72 -2514.897)" fill="#d9cbb4"/>
    <path id="Path_54109" data-name="Path 54109" d="M5320.593,2616.293a.364.364,0,1,0-.368-.357A.366.366,0,0,0,5320.593,2616.293Z" transform="translate(-5273.531 -2514.897)" fill="#d9cbb4"/>
    <path id="Path_54110" data-name="Path 54110" d="M5314.9,2616.293a.364.364,0,1,0-.369-.357A.365.365,0,0,0,5314.9,2616.293Z" transform="translate(-5269.341 -2514.897)" fill="#d9cbb4"/>
    <path id="Path_54111" data-name="Path 54111" d="M5309.211,2616.293a.364.364,0,1,0-.368-.357A.366.366,0,0,0,5309.211,2616.293Z" transform="translate(-5265.152 -2514.897)" fill="#d9cbb4"/>
    <path id="Path_54112" data-name="Path 54112" d="M5303.52,2616.293a.364.364,0,1,0-.369-.357A.366.366,0,0,0,5303.52,2616.293Z" transform="translate(-5260.962 -2514.897)" fill="#d9cbb4"/>
    <path id="Path_54113" data-name="Path 54113" d="M5297.829,2616.293a.364.364,0,1,0-.368-.357A.366.366,0,0,0,5297.829,2616.293Z" transform="translate(-5256.773 -2514.897)" fill="#d9cbb4"/>
    <path id="Path_54114" data-name="Path 54114" d="M5292.139,2616.293a.364.364,0,1,0-.369-.357A.367.367,0,0,0,5292.139,2616.293Z" transform="translate(-5252.583 -2514.897)" fill="#d9cbb4"/>
    <path id="Path_54115" data-name="Path 54115" d="M5286.448,2616.293a.364.364,0,1,0-.369-.357A.366.366,0,0,0,5286.448,2616.293Z" transform="translate(-5248.394 -2514.897)" fill="#d9cbb4"/>
    <path id="Path_54116" data-name="Path 54116" d="M5329.184,2620.583a.364.364,0,1,0-.368-.357A.365.365,0,0,0,5329.184,2620.583Z" transform="translate(-5279.855 -2518.055)" fill="#d9cbb4"/>
    <path id="Path_54117" data-name="Path 54117" d="M5323.494,2620.583a.364.364,0,1,0-.369-.357A.365.365,0,0,0,5323.494,2620.583Z" transform="translate(-5275.666 -2518.055)" fill="#d9cbb4"/>
    <path id="Path_54118" data-name="Path 54118" d="M5317.8,2620.583a.364.364,0,1,0-.369-.357A.364.364,0,0,0,5317.8,2620.583Z" transform="translate(-5271.476 -2518.055)" fill="#d9cbb4"/>
    <path id="Path_54119" data-name="Path 54119" d="M5312.112,2620.583a.364.364,0,1,0-.369-.357A.366.366,0,0,0,5312.112,2620.583Z" transform="translate(-5267.286 -2518.055)" fill="#d9cbb4"/>
    <path id="Path_54120" data-name="Path 54120" d="M5306.422,2620.583a.364.364,0,1,0-.369-.357A.365.365,0,0,0,5306.422,2620.583Z" transform="translate(-5263.098 -2518.055)" fill="#d9cbb4"/>
    <path id="Path_54121" data-name="Path 54121" d="M5300.73,2620.583a.364.364,0,1,0-.369-.357A.365.365,0,0,0,5300.73,2620.583Z" transform="translate(-5258.909 -2518.055)" fill="#d9cbb4"/>
    <path id="Path_54122" data-name="Path 54122" d="M5295.039,2620.583a.364.364,0,1,0-.369-.357A.364.364,0,0,0,5295.039,2620.583Z" transform="translate(-5254.719 -2518.055)" fill="#d9cbb4"/>
    <path id="Path_54123" data-name="Path 54123" d="M5326.284,2624.719a.364.364,0,1,0-.369-.357A.366.366,0,0,0,5326.284,2624.719Z" transform="translate(-5277.72 -2521.101)" fill="#d9cbb4"/>
    <path id="Path_54124" data-name="Path 54124" d="M5320.593,2624.719a.364.364,0,1,0-.368-.357A.365.365,0,0,0,5320.593,2624.719Z" transform="translate(-5273.531 -2521.101)" fill="#d9cbb4"/>
    <path id="Path_54125" data-name="Path 54125" d="M5314.9,2624.719a.364.364,0,1,0-.369-.357A.364.364,0,0,0,5314.9,2624.719Z" transform="translate(-5269.341 -2521.101)" fill="#d9cbb4"/>
    <path id="Path_54126" data-name="Path 54126" d="M5309.211,2607.867a.364.364,0,1,0-.368-.357A.366.366,0,0,0,5309.211,2607.867Z" transform="translate(-5265.152 -2508.694)" fill="#d9cbb4"/>
    <path id="Path_54127" data-name="Path 54127" d="M5303.52,2607.867a.364.364,0,1,0-.369-.357A.365.365,0,0,0,5303.52,2607.867Z" transform="translate(-5260.962 -2508.694)" fill="#d9cbb4"/>
    <path id="Path_54128" data-name="Path 54128" d="M5297.829,2607.867a.364.364,0,1,0-.368-.357A.365.365,0,0,0,5297.829,2607.867Z" transform="translate(-5256.773 -2508.694)" fill="#d9cbb4"/>
    <path id="Path_54129" data-name="Path 54129" d="M5292.139,2607.867a.364.364,0,1,0-.369-.357A.366.366,0,0,0,5292.139,2607.867Z" transform="translate(-5252.583 -2508.694)" fill="#d9cbb4"/>
    <path id="Path_54130" data-name="Path 54130" d="M5286.448,2607.867a.364.364,0,1,0-.369-.357A.365.365,0,0,0,5286.448,2607.867Z" transform="translate(-5248.394 -2508.694)" fill="#d9cbb4"/>
    <path id="Path_54131" data-name="Path 54131" d="M5269.372,2607.139a.364.364,0,1,0,.363.362A.366.366,0,0,0,5269.372,2607.139Z" transform="translate(-5235.826 -2508.694)" fill="#d9cbb4"/>
    <path id="Path_54132" data-name="Path 54132" d="M5263.682,2607.139a.364.364,0,1,0,.363.362A.366.366,0,0,0,5263.682,2607.139Z" transform="translate(-5231.636 -2508.694)" fill="#d9cbb4"/>
    <path id="Path_54133" data-name="Path 54133" d="M5257.99,2607.139a.364.364,0,1,0,.364.362A.365.365,0,0,0,5257.99,2607.139Z" transform="translate(-5227.448 -2508.694)" fill="#d9cbb4"/>
    <path id="Path_54134" data-name="Path 54134" d="M5252.3,2607.139a.364.364,0,1,0,.364.362A.365.365,0,0,0,5252.3,2607.139Z" transform="translate(-5223.258 -2508.694)" fill="#d9cbb4"/>
    <path id="Path_54135" data-name="Path 54135" d="M5246.609,2607.139a.364.364,0,1,0,.363.362A.365.365,0,0,0,5246.609,2607.139Z" transform="translate(-5219.069 -2508.694)" fill="#d9cbb4"/>
    <path id="Path_54136" data-name="Path 54136" d="M5323.494,2612.156a.364.364,0,1,0-.369-.357A.365.365,0,0,0,5323.494,2612.156Z" transform="translate(-5275.666 -2511.852)" fill="#d9cbb4"/>
    <path id="Path_54137" data-name="Path 54137" d="M5317.8,2612.156a.364.364,0,1,0-.369-.357A.364.364,0,0,0,5317.8,2612.156Z" transform="translate(-5271.476 -2511.852)" fill="#d9cbb4"/>
    <path id="Path_54138" data-name="Path 54138" d="M5312.112,2612.156a.364.364,0,1,0-.369-.357A.366.366,0,0,0,5312.112,2612.156Z" transform="translate(-5267.286 -2511.852)" fill="#d9cbb4"/>
    <path id="Path_54139" data-name="Path 54139" d="M5306.422,2612.156a.364.364,0,1,0-.369-.357A.365.365,0,0,0,5306.422,2612.156Z" transform="translate(-5263.098 -2511.852)" fill="#d9cbb4"/>
    <path id="Path_54140" data-name="Path 54140" d="M5300.73,2612.156a.364.364,0,1,0-.369-.357A.365.365,0,0,0,5300.73,2612.156Z" transform="translate(-5258.909 -2511.852)" fill="#d9cbb4"/>
    <path id="Path_54141" data-name="Path 54141" d="M5295.039,2612.156a.364.364,0,1,0-.369-.357A.364.364,0,0,0,5295.039,2612.156Z" transform="translate(-5254.719 -2511.852)" fill="#d9cbb4"/>
    <path id="Path_54142" data-name="Path 54142" d="M5289.348,2612.156a.364.364,0,1,0-.369-.357A.366.366,0,0,0,5289.348,2612.156Z" transform="translate(-5250.529 -2511.852)" fill="#d9cbb4"/>
    <path id="Path_54143" data-name="Path 54143" d="M5283.655,2611.429a.364.364,0,1,0,.364.362A.366.366,0,0,0,5283.655,2611.429Z" transform="translate(-5246.341 -2511.852)" fill="#d9cbb4"/>
    <path id="Path_54144" data-name="Path 54144" d="M5266.582,2611.429a.364.364,0,1,0,.363.362A.366.366,0,0,0,5266.582,2611.429Z" transform="translate(-5233.772 -2511.852)" fill="#d9cbb4"/>
    <path id="Path_54145" data-name="Path 54145" d="M5260.893,2611.429a.364.364,0,1,0,.363.362A.366.366,0,0,0,5260.893,2611.429Z" transform="translate(-5229.583 -2511.852)" fill="#d9cbb4"/>
    <path id="Path_54146" data-name="Path 54146" d="M5235.228,2590.286a.364.364,0,1,0,.364.362A.365.365,0,0,0,5235.228,2590.286Z" transform="translate(-5210.689 -2496.287)" fill="#d9cbb4"/>
    <path id="Path_54147" data-name="Path 54147" d="M5255.2,2594.576a.364.364,0,1,0,.363.362A.365.365,0,0,0,5255.2,2594.576Z" transform="translate(-5225.393 -2499.446)" fill="#d9cbb4"/>
    <path id="Path_54148" data-name="Path 54148" d="M5249.51,2594.576a.364.364,0,1,0,.363.362A.364.364,0,0,0,5249.51,2594.576Z" transform="translate(-5221.204 -2499.446)" fill="#d9cbb4"/>
    <path id="Path_54149" data-name="Path 54149" d="M5243.819,2594.576a.364.364,0,1,0,.363.362A.365.365,0,0,0,5243.819,2594.576Z" transform="translate(-5217.015 -2499.446)" fill="#d9cbb4"/>
    <path id="Path_54150" data-name="Path 54150" d="M5238.127,2594.576a.364.364,0,1,0,.364.362A.365.365,0,0,0,5238.127,2594.576Z" transform="translate(-5212.825 -2499.446)" fill="#d9cbb4"/>
    <path id="Path_54151" data-name="Path 54151" d="M5232.438,2594.576a.364.364,0,1,0,.363.362A.365.365,0,0,0,5232.438,2594.576Z" transform="translate(-5208.637 -2499.446)" fill="#d9cbb4"/>
    <path id="Path_54152" data-name="Path 54152" d="M5269.372,2598.713a.364.364,0,1,0,.363.362A.366.366,0,0,0,5269.372,2598.713Z" transform="translate(-5235.826 -2502.491)" fill="#d9cbb4"/>
    <path id="Path_54153" data-name="Path 54153" d="M5263.682,2598.713a.364.364,0,1,0,.363.362A.366.366,0,0,0,5263.682,2598.713Z" transform="translate(-5231.636 -2502.491)" fill="#d9cbb4"/>
    <path id="Path_54154" data-name="Path 54154" d="M5257.99,2598.713a.364.364,0,1,0,.364.362A.365.365,0,0,0,5257.99,2598.713Z" transform="translate(-5227.448 -2502.491)" fill="#d9cbb4"/>
    <path id="Path_54155" data-name="Path 54155" d="M5252.3,2598.713a.364.364,0,1,0,.364.362A.365.365,0,0,0,5252.3,2598.713Z" transform="translate(-5223.258 -2502.491)" fill="#d9cbb4"/>
    <path id="Path_54156" data-name="Path 54156" d="M5246.609,2598.713a.364.364,0,1,0,.363.362A.365.365,0,0,0,5246.609,2598.713Z" transform="translate(-5219.069 -2502.491)" fill="#d9cbb4"/>
    <path id="Path_54157" data-name="Path 54157" d="M5240.918,2598.713a.364.364,0,1,0,.363.362A.365.365,0,0,0,5240.918,2598.713Z" transform="translate(-5214.879 -2502.491)" fill="#d9cbb4"/>
    <path id="Path_54158" data-name="Path 54158" d="M5235.228,2598.713a.364.364,0,1,0,.364.362A.365.365,0,0,0,5235.228,2598.713Z" transform="translate(-5210.689 -2502.491)" fill="#d9cbb4"/>
    <path id="Path_54159" data-name="Path 54159" d="M5229.537,2598.713a.364.364,0,1,0,.364.362A.365.365,0,0,0,5229.537,2598.713Z" transform="translate(-5206.501 -2502.491)" fill="#d9cbb4"/>
    <path id="Path_54160" data-name="Path 54160" d="M5300.73,2603.731a.364.364,0,1,0-.369-.357A.365.365,0,0,0,5300.73,2603.731Z" transform="translate(-5258.909 -2505.65)" fill="#d9cbb4"/>
    <path id="Path_54161" data-name="Path 54161" d="M5295.039,2603.731a.364.364,0,1,0-.369-.357A.364.364,0,0,0,5295.039,2603.731Z" transform="translate(-5254.719 -2505.65)" fill="#d9cbb4"/>
    <path id="Path_54162" data-name="Path 54162" d="M5289.348,2603.731a.364.364,0,1,0-.369-.357A.366.366,0,0,0,5289.348,2603.731Z" transform="translate(-5250.529 -2505.65)" fill="#d9cbb4"/>
    <path id="Path_54163" data-name="Path 54163" d="M5272.273,2603a.364.364,0,1,0,.363.362A.366.366,0,0,0,5272.273,2603Z" transform="translate(-5237.961 -2505.65)" fill="#d9cbb4"/>
    <path id="Path_54164" data-name="Path 54164" d="M5266.582,2603a.364.364,0,1,0,.363.362A.366.366,0,0,0,5266.582,2603Z" transform="translate(-5233.772 -2505.65)" fill="#d9cbb4"/>
    <path id="Path_54165" data-name="Path 54165" d="M5260.893,2603a.364.364,0,1,0,.363.362A.365.365,0,0,0,5260.893,2603Z" transform="translate(-5229.583 -2505.65)" fill="#d9cbb4"/>
    <path id="Path_54166" data-name="Path 54166" d="M5255.2,2603a.364.364,0,1,0,.363.362A.365.365,0,0,0,5255.2,2603Z" transform="translate(-5225.393 -2505.65)" fill="#d9cbb4"/>
    <path id="Path_54167" data-name="Path 54167" d="M5249.51,2603a.364.364,0,1,0,.363.362A.365.365,0,0,0,5249.51,2603Z" transform="translate(-5221.204 -2505.65)" fill="#d9cbb4"/>
    <path id="Path_54168" data-name="Path 54168" d="M5243.819,2603a.364.364,0,1,0,.363.362A.365.365,0,0,0,5243.819,2603Z" transform="translate(-5217.015 -2505.65)" fill="#d9cbb4"/>
    <path id="Path_54169" data-name="Path 54169" d="M5238.127,2603a.364.364,0,1,0,.364.362A.365.365,0,0,0,5238.127,2603Z" transform="translate(-5212.825 -2505.65)" fill="#d9cbb4"/>
    <path id="Path_54170" data-name="Path 54170" d="M5232.438,2603a.364.364,0,1,0,.363.362A.365.365,0,0,0,5232.438,2603Z" transform="translate(-5208.637 -2505.65)" fill="#d9cbb4"/>
  </g>
</svg>
