<svg xmlns="http://www.w3.org/2000/svg" width="106.508" height="141.438" viewBox="0 0 106.508 141.438">
  <g id="char6" transform="translate(-557.043 -1363.961)">
    <path id="Path_53912" data-name="Path 53912" d="M675.544,1600.238a.688.688,0,0,0-.236.944.629.629,0,0,1-.2.631,1.276,1.276,0,0,1-1.6.046,1.874,1.874,0,0,1-.785-2.4.687.687,0,0,0-.175-.776c-1.692-1.524-4-6.457-4.018-6.506a.689.689,0,0,0-1.037-.261,2.077,2.077,0,0,1-1.419.424c-.095-.026-.383-.1-.624-.683a1.378,1.378,0,0,1-.078-1.138,1.515,1.515,0,0,1,.886-.658.688.688,0,0,0-.338-1.335,2.878,2.878,0,0,0-1.776,1.37,2.664,2.664,0,0,0,.034,2.291,2.334,2.334,0,0,0,1.532,1.482,2.831,2.831,0,0,0,1.894-.236,28.943,28.943,0,0,0,3.7,5.955,3.142,3.142,0,0,0,1.546,3.684,3.175,3.175,0,0,0,1.524.423,2.391,2.391,0,0,0,1.733-.724,1.929,1.929,0,0,0,.391-2.294A.688.688,0,0,0,675.544,1600.238Z" transform="translate(-70.076 -147.259)" fill="#d9cbb4"/>
    <path id="Path_53913" data-name="Path 53913" d="M662.354,1533.64a.7.7,0,0,0,.2-.031.689.689,0,0,0,.453-.862,57.05,57.05,0,0,1-1.972-8.774.694.694,0,0,0-.623-.617,1.383,1.383,0,0,1-1.375-1.451c.037-.561.178-.947.384-1.058a1.251,1.251,0,0,1,.946.153.688.688,0,1,0,.694-1.189,3.152,3.152,0,0,0-.572-.249.689.689,0,0,0,0-.12,60.676,60.676,0,0,1-.182-6.8.688.688,0,1,0-1.373-.106,59.627,59.627,0,0,0,.178,6.962,1.72,1.72,0,0,0-.337.135,2.447,2.447,0,0,0-1.114,2.184,2.649,2.649,0,0,0,2.06,2.809,60.114,60.114,0,0,0,1.97,8.532A.688.688,0,0,0,662.354,1533.64Z" transform="translate(-65.986 -97.02)" fill="#d9cbb4"/>
    <path id="Path_53914" data-name="Path 53914" d="M682.408,1518.079a.689.689,0,0,0-1.065-.272.976.976,0,0,1-1,.139,1.745,1.745,0,0,1-1.044-1.291c-.136-.815,1.028-1.149,1.074-1.161a.689.689,0,0,0,.465-.912c-.58-1.508-1.656-6.514-1.667-6.564a.694.694,0,0,0-.823-.528c-.166.036-1.006.177-1.264-.533a.921.921,0,0,1-.008-.747,1.621,1.621,0,0,1,.886-.659.689.689,0,0,0,.486-.785c-.471-2.59-.714-8.094-.717-8.15a.689.689,0,0,0-.57-.649c-.584-.1-.961-.351-1.06-.7a.84.84,0,0,1,.243-.82.48.48,0,0,1,.549-.075.689.689,0,0,0,.945-.491s.486-2.308.729-3.522a.688.688,0,0,0-1.35-.27c-.16.8-.427,2.083-.589,2.855a1.846,1.846,0,0,0-1.191.468,2.217,2.217,0,0,0-.661,2.227,2.33,2.33,0,0,0,1.6,1.551c.067,1.341.272,4.974.624,7.281a2.686,2.686,0,0,0-1.153,1.113,2.254,2.254,0,0,0-.061,1.845,2.23,2.23,0,0,0,2.164,1.47c.268,1.212.893,3.971,1.38,5.537a2.312,2.312,0,0,0-1.394,2.447,3.1,3.1,0,0,0,1.909,2.35,2.382,2.382,0,0,0,1.583.064c.921,2.091,3.841,8.4,7.083,12.156a.688.688,0,1,0,1.042-.9C685.858,1526.267,682.442,1518.161,682.408,1518.079Z" transform="translate(-77.162 -82.353)" fill="#d9cbb4"/>
    <path id="Path_53915" data-name="Path 53915" d="M731.147,1452.86a.682.682,0,0,0,.124.011.689.689,0,0,0,.677-.565,52.955,52.955,0,0,0,.862-8.571,2.2,2.2,0,0,0,1.95-1.123,2.434,2.434,0,0,0-.081-2.808,2.255,2.255,0,0,0-2.52-.765.688.688,0,1,0,.4,1.316.887.887,0,0,1,1.021.285,1.068,1.068,0,0,1,.015,1.234c-.414.65-.889.518-1.126.386a.689.689,0,0,0-1.042.611,49.3,49.3,0,0,1-.838,9.19A.688.688,0,0,0,731.147,1452.86Z" transform="translate(-113.81 -49.163)" fill="#d9cbb4"/>
    <path id="Path_53916" data-name="Path 53916" d="M683.082,1431.888h.02a.692.692,0,0,0,.688-.665,5.606,5.606,0,0,1,.538-1.792.688.688,0,0,0-1.258-.559,6.514,6.514,0,0,0-.656,2.321A.685.685,0,0,0,683.082,1431.888Z" transform="translate(-82.22 -42.302)" fill="#d9cbb4"/>
    <path id="Path_53917" data-name="Path 53917" d="M711.858,1436.009a.669.669,0,0,0,.136.014.688.688,0,0,0,.674-.553c.295-1.475.4-2.488.407-2.53a.688.688,0,0,0-1.369-.144c0,.01-.107,1-.388,2.4A.688.688,0,0,0,711.858,1436.009Z" transform="translate(-101.168 -44.739)" fill="#d9cbb4"/>
    <path id="Path_53918" data-name="Path 53918" d="M685.185,1446.867a.673.673,0,0,0,.092.006.688.688,0,0,0,.09-1.371,3.281,3.281,0,0,1-2.821-2.048,1.838,1.838,0,0,1-.081-1.47c.286-.344,1.578.059,2.272.276.294.092.572.179.83.243a.688.688,0,0,0,.334-1.336c-.219-.055-.478-.136-.753-.222-1.276-.4-2.864-.894-3.74.157a2.978,2.978,0,0,0-.144,2.852A4.693,4.693,0,0,0,685.185,1446.867Z" transform="translate(-81.281 -50.179)" fill="#d9cbb4"/>
    <path id="Path_53919" data-name="Path 53919" d="M691.569,1462.41a.689.689,0,0,0-.14.787c.1.207,2.219,4.594,5.076,4.594a2.873,2.873,0,0,0,.988-.178c3.2-1.163,3.368-6.133,3.374-6.344a.688.688,0,0,0-1.243-.426c-1.151,1.568-6.5,1.827-7.266,1.443A.689.689,0,0,0,691.569,1462.41Z" transform="translate(-88.09 -63.353)" fill="#d9cbb4"/>
    <path id="Path_53920" data-name="Path 53920" d="M710,1499.606a2.9,2.9,0,0,0-.982-2.988,1.73,1.73,0,0,0-2.053-.213.688.688,0,1,0,.721,1.173c.051-.031.187-.115.466.111a1.558,1.558,0,0,1,.55,1.458c-.125.354-.62.429-1.013.429a.689.689,0,0,0-.684.766,58.8,58.8,0,0,0,1.361,7.766.688.688,0,0,0,1.313-.414,51.346,51.346,0,0,1-1.222-6.818A1.967,1.967,0,0,0,710,1499.606Z" transform="translate(-98.104 -86.699)" fill="#d9cbb4"/>
    <path id="Path_53921" data-name="Path 53921" d="M719.541,1558.386a2.042,2.042,0,0,0,1.127-1.421,2.3,2.3,0,0,0-1.008-2.336,2.849,2.849,0,0,0-2.393-.31.688.688,0,1,0,.4,1.317,1.487,1.487,0,0,1,1.228.136.956.956,0,0,1,.425.916.638.638,0,0,1-.611.5.688.688,0,0,0-.729.905,37.428,37.428,0,0,0,3.6,7.652.689.689,0,0,0,1.172-.724A36.04,36.04,0,0,1,719.541,1558.386Z" transform="translate(-104.757 -124.755)" fill="#d9cbb4"/>
    <path id="Path_53922" data-name="Path 53922" d="M745.959,1595.256h.021a2.071,2.071,0,0,0,1.654-.78,2.2,2.2,0,0,0,.362-.734,2.328,2.328,0,0,0-3.15-2.773.688.688,0,0,0,.538,1.267.951.951,0,0,1,1.287,1.133.826.826,0,0,1-.133.274.748.748,0,0,1-.566.237.7.7,0,0,1-.561-.247.688.688,0,1,0-1.111.813A2.071,2.071,0,0,0,745.959,1595.256Z" transform="translate(-122.719 -148.759)" fill="#d9cbb4"/>
    <path id="Path_53923" data-name="Path 53923" d="M646.476,1484.569a13.706,13.706,0,0,0,7.628,6.563,10.688,10.688,0,0,0,3.143.544,6.423,6.423,0,0,0,.808-.053.682.682,0,0,0,.254.082,5.291,5.291,0,0,0,4.324-1.481c1.079-1.047,2.3-3.088,1.965-6.867-.513-5.871-4.879-15.02-6.134-16.99-1.162-1.825-2.05-2.005-3.819-2.365l-.362-.074a.672.672,0,0,0-.327.015,14.49,14.49,0,0,0-5.554-.917.668.668,0,0,0-.13.011,4.361,4.361,0,0,0-1.42-.977,2.859,2.859,0,0,0-2.046-.1,4.26,4.26,0,0,0-2.884-1.333h-.015a4.1,4.1,0,0,0-3.1,1.738c-.005.009-.009.017-.014.026-3.076-.653-6.127-1.435-6.689-1.928a.69.69,0,0,0-.114-.081c-.7-1.212-1.416-2.567-2.068-3.876a9.041,9.041,0,0,0,1.838-1.791,2.181,2.181,0,0,0,.341.031c.06,0,.12,0,.179-.007a2.576,2.576,0,0,0,2.21-1.906,3.106,3.106,0,0,0-.58-2.65.7.7,0,0,0,.035-.105c.041-.172.078-.347.114-.523.4.026,1.141.066,2.1.065a31.92,31.92,0,0,0,5.245-.415c5.326-.905,8.486-3.25,9.138-6.781.77-4.172.695-12.649-.2-22.677-.234-2.625-1.488-15.8-3.14-17.453-1.53-1.53-6.578-6.282-9.6-7.992-2.308-1.3-6.249-1.335-7.946-1.279.012-.122.021-.244.033-.365a2.033,2.033,0,0,0,1.956-1.816,3.207,3.207,0,0,0-1.556-2.765,17.143,17.143,0,0,0-.118-2.6,2.439,2.439,0,0,0,1.1-2.971,2.575,2.575,0,0,0-2.526-1.66,17.478,17.478,0,0,0-1.077-1.846,8.868,8.868,0,0,0-1.528-1.719.681.681,0,0,0,.35-.212c4.562-5.213,12.29-5.287,12.367-5.287a.688.688,0,0,0,.674-.823c-1.485-7.426-6.9-7-6.953-6.993a.783.783,0,0,0-.1.016c-6.576,1.588-9.544,5.818-12.163,9.551l-.433.615a.685.685,0,0,0-.06.106,16.315,16.315,0,0,0-3.958-.372,15.286,15.286,0,0,0-13.008,8.063c-.442.761-.9,1.624-1.361,2.575a2.305,2.305,0,0,0-1.537-.01,2,2,0,0,0-1.16,1.321,2.957,2.957,0,0,0,.751,3.133,95.114,95.114,0,0,0-3.086,9.182,2.69,2.69,0,0,0-2.958,2.422,2.392,2.392,0,0,0,1.691,2.524q-.223.968-.431,1.953c-.868.239-7.059,2.159-8.484,8.539h-.021a3.108,3.108,0,0,0-1.929.833,2.027,2.027,0,0,0-.537,1.961,2.676,2.676,0,0,0-.812.854,4.031,4.031,0,0,0,.014,3.619,3.812,3.812,0,0,0-.469,1.123,3.558,3.558,0,0,0,2.446,4.239.694.694,0,0,0,.177.037,19.245,19.245,0,0,0,1.1,3.35,11.886,11.886,0,0,0,8.043,7.247q.471,1.867,1.1,3.65a2.8,2.8,0,0,0,.978,5.171,1.853,1.853,0,0,0,.312.026,1.939,1.939,0,0,0,.773-.166,41.283,41.283,0,0,0,2.745,5c-.335.105-.642.2-.925.284a7.744,7.744,0,0,0-4.88,3.129l-.309.384a.475.475,0,0,0-.218.272c-1.96,2.462-5.686,7.311-7.168,9.508a.683.683,0,0,0-.1.234,3.859,3.859,0,0,0-3.693,2.723v.007a6.935,6.935,0,0,0-.66.234,16.15,16.15,0,0,0-7.655-1.061,8.614,8.614,0,0,0-7.418,5.17.678.678,0,0,0-.011.453,2.89,2.89,0,0,0-.664.819l-.074.148c-1.132,2.247-1.63,5.18,6.837,11.58,2.537,1.918,4.41,3.5,5.915,4.77a20.857,20.857,0,0,0,4.685,3.394,7.093,7.093,0,0,0,2.739.611,4.448,4.448,0,0,0,2.309-.607,4.027,4.027,0,0,0,1.861-2.562.686.686,0,0,0,.445-.347c1.472-2.816,2.167-8.667,2.353-10.489a1.736,1.736,0,0,0,1.164-.986,3.659,3.659,0,0,0,.253-2.254,2.076,2.076,0,0,0,1.166-1.316,3.479,3.479,0,0,0,.014-1.741,7.461,7.461,0,0,0-.2-.731c1.571-3.714,5.473-12.827,6.187-13.986a7.114,7.114,0,0,1,2.842-2.048,18.728,18.728,0,0,0,2.749,1.951l.1.053a.681.681,0,0,0-.042.384,3.662,3.662,0,0,0,2.09,2.829,2.469,2.469,0,0,0,.907.169,2.663,2.663,0,0,0,1.278-.328,2.17,2.17,0,0,0,1-1.113,22.108,22.108,0,0,0,4.348.41,34.567,34.567,0,0,0,3.739-.224.686.686,0,0,0,.388-.177c.4,1.743.847,3.444,1.273,4.668,1.465,4.212,4.161,6.9,16.383,11.834a.682.682,0,0,0,.07.319,5.041,5.041,0,0,0,3.019,2.727,5.176,5.176,0,0,0,1.546.226,6.27,6.27,0,0,0,.823-.058A20.04,20.04,0,0,0,646.476,1484.569Zm7.388-19.089a15.112,15.112,0,0,1,.927,1.58,5.61,5.61,0,0,1-3.511-2.406A5.237,5.237,0,0,1,653.864,1465.48Zm-1.335,7.17a6.123,6.123,0,0,1,3.752-1.7.679.679,0,0,1,.673.673.692.692,0,0,1-.673.673l-.146.015q.087-.014-.038.005c-.1.015-.191.032-.285.052l-.007,0a16.212,16.212,0,0,1,.776,2.041.594.594,0,0,1,.016.087,6.115,6.115,0,0,0,.627-.036.677.677,0,0,1,.673.673.693.693,0,0,1-.673.673,6.815,6.815,0,0,1-2.4-.182,8.043,8.043,0,0,1-2.124-.863,1.3,1.3,0,0,1-.714-1.053A1.457,1.457,0,0,1,652.528,1472.65Zm1.985,17.168a10.07,10.07,0,0,1-2.417-1.129,6.206,6.206,0,0,1,2.24-3.79,7.947,7.947,0,0,1,6.43-2.118c.343,2.5.335,5.429-1.187,6.763C658.545,1490.451,656.841,1490.543,654.513,1489.818Zm2.789-22.712c.883,1.387,5.4,10.408,5.924,16.37.283,3.241-.687,4.921-1.552,5.76-.1.092-.195.177-.3.258,1.008-1.692,1.215-4.309.611-7.814-.858-4.974-4.7-13.073-6.413-16.053A2.772,2.772,0,0,1,657.3,1467.106ZM636.917,1395.5c2.581,1.458,7.079,5.538,9.307,7.766.579.611,1.815,6.183,2.748,16.656.68,7.633,1.094,17.486.214,22.25-1.2,6.477-12.618,6.147-14.919,6.013a18.924,18.924,0,0,0,.039-3.579,19.251,19.251,0,0,0-2.159-7.069,27.223,27.223,0,0,0,7.794,4.589c.015.63.02,1.012.021,1.03a.688.688,0,0,0,.688.678h.01a.688.688,0,0,0,.679-.7c0-.338-.125-8.2-.706-12.714a4.187,4.187,0,0,0,.673-.662c2-2.465.576-7.269-1.817-11.993a.686.686,0,0,0,.024-.294c-.019-.139-1.95-14-2.672-17.851a.688.688,0,1,0-1.353.254c.5,2.687,1.606,10.326,2.222,14.67a55.7,55.7,0,0,0-6.385-8.851.677.677,0,0,0-.3-.178,8.419,8.419,0,0,1,3.428-1.441l.053,0a.688.688,0,0,0-.039-1.376l-.038,0v0l-4.364.242a.732.732,0,0,0-.1.014c-.012,0-.232.051-.588.167-.031-1.706-.061-5.382.16-8.716C631,1394.349,634.853,1394.331,636.917,1395.5ZM624.4,1419.336a.688.688,0,1,0-.227-1.358,7.183,7.183,0,0,0-3.274,1.523,1.817,1.817,0,0,1-.2-1.718c.481-1.441,2.65-2.56,4.2-2.56a.688.688,0,1,0,0-1.377,6.806,6.806,0,0,0-3.818,1.352.867.867,0,0,1-.19-.568c0-.65.552-1.663,2.113-2.378a3.953,3.953,0,0,1,3.422-.247c1.275.619,2.276,2.3,2.9,4.874a.691.691,0,0,0,.1.225c.516.761,5.139,7.443,8.422,7.575h.028a.688.688,0,0,0,.027-1.376c-1.006-.04-2.444-1.186-3.849-2.649a.686.686,0,0,0,.117-.619,39.048,39.048,0,0,0-3.823-8.454.473.473,0,1,0-.492-.808c-.145-.232-.283-.45-.412-.65a.473.473,0,0,0-.279-.856.468.468,0,0,0-.243.068c-.2-.294-.354-.51-.449-.643.018-.042.037-.084.056-.125a.47.47,0,0,0,.1-.227,7.627,7.627,0,0,1,.614-1.034.475.475,0,0,0,.392-.468.336.336,0,0,0,0-.034,7.534,7.534,0,0,1,.528-.565.683.683,0,0,0,.188.409c.1.107.213.225.325.347a.477.477,0,0,0,.242.271c.227.257.465.536.716.842a.466.466,0,0,0-.028.164.476.476,0,0,0,.481.466.418.418,0,0,0,.046-.005c.2.255.407.524.616.8a.466.466,0,0,0-.048.213.476.476,0,0,0,.481.466.519.519,0,0,0,.063-.007q.246.338.5.693a.466.466,0,0,0-.081.272.478.478,0,0,0,.481.466.486.486,0,0,0,.1-.014,61.3,61.3,0,0,1,3.775,6.256c2.767,5.329,3.579,9.342,2.228,11.008a2.482,2.482,0,0,1-1.93.962c-1.526.059-3.643-.915-6.117-2.818a33.51,33.51,0,0,1-3.319-2.944,4.4,4.4,0,0,0,1.055-2,.688.688,0,1,0-1.34-.315,3.1,3.1,0,0,1-1.672,2.094c-.132-.3-.237-.552-.317-.754a.687.687,0,0,0-.453-1.26,10.892,10.892,0,0,0-3.917,1.309.683.683,0,0,0-.267.3,1.554,1.554,0,0,1-.261-.164,1.757,1.757,0,0,1-.607-1.312C620.966,1420.544,623.22,1419.533,624.4,1419.336Zm4.434-14.551a.678.678,0,0,0,.288-.123,7.643,7.643,0,0,1,1.079-.353l.139-.008a9.027,9.027,0,0,0-3.845,6.253,4.643,4.643,0,0,0-2.3-.125A7.733,7.733,0,0,1,628.832,1404.786Zm3.366,13.761c-.593-.738-1.135-1.469-1.576-2.113-.615-2.478-1.568-4.215-2.836-5.187.038-.309.086-.607.146-.89A42.621,42.621,0,0,1,632.2,1418.547Zm7.539,17.933a21.854,21.854,0,0,1-9.258-6.805.678.678,0,0,0,0-.247l-.5-2.425c2.132,1.835,5.443,4.23,8.209,4.23.06,0,.121,0,.181,0a4.22,4.22,0,0,0,.967-.151C639.508,1432.663,639.641,1434.611,639.736,1436.479Zm-11.946-11.525c.041.044.195.2.438.445l.326,1.563c-.413-.668-.762-1.3-1.049-1.855C627.59,1425.066,627.685,1425.016,627.791,1424.955Zm-3.64-1.192a10.235,10.235,0,0,1,1.087-.333c.785,2.119,4.64,11.1,14.567,14.535.041.973.073,1.885.1,2.665C630.133,1436.645,625.031,1427.122,624.151,1423.762Zm6.115-33.048a.588.588,0,0,1-.43.5c.05-.459.1-.919.139-1.384A1.288,1.288,0,0,1,630.266,1390.714Zm-.488-7.725a.957.957,0,0,1-.106.906,13.908,13.908,0,0,0-.476-1.549A1.213,1.213,0,0,1,629.778,1382.99Zm-8.534-8.666c2.591-3.694,5.271-7.513,11.3-8.989.452-.023,3.908-.008,5.252,5.108-2.262.164-8.452,1.041-12.547,5.72a.683.683,0,0,0-.167.445,14.2,14.2,0,0,0-4.049-1.986Zm-21.338,11.943c.128-.384.295-.451.35-.472a.8.8,0,0,1,.446-.01q-.373.818-.748,1.706A1.587,1.587,0,0,1,599.906,1386.267Zm-16.048,33.471a2.381,2.381,0,0,1,.105-1.8,2.041,2.041,0,0,1,1.895-.774c1.8,0,3.721,1.024,4.11,2.193a1.242,1.242,0,0,1-.472,1.412,5.974,5.974,0,0,0-3.317-1.583A3.375,3.375,0,0,0,583.858,1419.737Zm6.99,3.35a3.551,3.551,0,0,0-.481-1.251,2.849,2.849,0,0,0,1.034-1.907,4.2,4.2,0,0,1,.187,2.691.69.69,0,0,0,.664.872.679.679,0,0,0,.288-.073q0,1.568.078,3.124l-.69-.465a2.81,2.81,0,0,0,.25-.552.688.688,0,1,0-1.31-.423,1.713,1.713,0,0,1-1.766,1.111.669.669,0,0,0-.109,0l-.014-.042A2.858,2.858,0,0,0,590.848,1423.088Zm.116,4,1.294.872a.683.683,0,0,0,.384.118.663.663,0,0,0,.069-.008q.152,2.069.448,4.089a11.165,11.165,0,0,1-3.632-4.565A3.09,3.09,0,0,0,590.964,1427.089Zm1.679-7.736a5.523,5.523,0,0,0-1.439-2.009,1.987,1.987,0,0,0,.018-.9,2.951,2.951,0,0,0-1.057-1.606c-.084-.071-.175-.135-.264-.2a.74.74,0,0,0,.026-.089,9.614,9.614,0,0,1,3.86-5.4A89.935,89.935,0,0,0,592.643,1419.352Zm2.036-18.684a1.23,1.23,0,0,1,1.2-1.113q-.29,1.083-.563,2.2A1.022,1.022,0,0,1,594.679,1400.668Zm-.43,5.934q-.074.383-.146.768a11.348,11.348,0,0,0-5.442,6.579,5.59,5.59,0,0,0-1.177-.32C588.617,1409.163,592.584,1407.229,594.249,1406.6Zm-9.141,8.784a1.882,1.882,0,0,1,1.1-.433,4.116,4.116,0,0,1,3.063.937,1.641,1.641,0,0,1,.6.843.615.615,0,0,1-.039.36,6.843,6.843,0,0,0-3.978-1.305,5.247,5.247,0,0,0-.956.083A.74.74,0,0,1,585.109,1415.386Zm.31,7.816a.689.689,0,0,0-.854.716c0,.033.022.292.081.71a2.094,2.094,0,0,1-.979-2.335,2.185,2.185,0,0,1,2.355-1.74,4.1,4.1,0,0,1,3.467,2.754,1.423,1.423,0,0,1-.874,1.5c-.035-.164-.061-.3-.081-.418.027-.014.056-.024.083-.039a.688.688,0,0,0-.668-1.2A4.457,4.457,0,0,1,585.419,1423.2Zm.634,1.5a6.566,6.566,0,0,0,1.139.024,13.336,13.336,0,0,0,5.951,9.069.678.678,0,0,0,.3.09q.131.718.284,1.427C587.989,1433.433,586.435,1427.057,586.053,1424.7ZM596.4,1444.31a1.427,1.427,0,0,1-.709-2.479q.489,1.268,1,2.448A.58.58,0,0,1,596.4,1444.31Zm-6.66,45.213c0,.005,0,.012,0,.017a2.743,2.743,0,0,1-.134.6c-2.122-5.36-9.807-14.123-13.648-16.172-3.414-1.82-7.172-1.612-9.142-.285.07-.159.143-.306.211-.44l.077-.154a2.458,2.458,0,0,1,.744-.779.685.685,0,0,0,.281-.188,5.7,5.7,0,0,1,1.809-.71c1.546-.332,4.74-.4,8.763,2.911,6.035,4.959,10.724,12.858,11.025,14.945A.677.677,0,0,0,589.74,1489.523Zm-2.828-8.948a.679.679,0,0,1-.242-.921c.12-.175.223-.345.316-.515a.571.571,0,0,1-.083-.066,15.868,15.868,0,0,1-1.41-1.641,4.533,4.533,0,0,0-.314.414.673.673,0,1,1-1.163-.68,6.274,6.274,0,0,1,1.691-1.729,5.4,5.4,0,0,1,1.852-.834,1.171,1.171,0,0,1,1.274.453,1.922,1.922,0,0,1,.225,1.122,7.518,7.518,0,0,1-1.226,4.156A.686.686,0,0,1,586.912,1480.576Zm-12.384-12.96a15.405,15.405,0,0,1,3.862.095c1.634,1,2.262,4.044,1.794,6.7-.3-.27-.607-.534-.913-.785-4.315-3.546-7.818-3.461-9.523-3.1a7.18,7.18,0,0,0-.912.266A7.6,7.6,0,0,1,574.529,1467.616Zm13.72,24.2c-.772.459-2.135.821-4.24-.061a20.5,20.5,0,0,1-4.452-3.251c-1.514-1.278-3.4-2.868-5.954-4.8-5.541-4.189-6.957-6.749-7.078-8.412a.451.451,0,0,0,.044-.05c.918-1.614,5.081-2.514,8.952-.449,3.771,2.01,11.766,11.235,13.424,16.244a.471.471,0,0,0,.07.133A3.093,3.093,0,0,1,588.249,1491.812Zm2.018-3.87a21.474,21.474,0,0,0-1.607-3.185.444.444,0,0,0,.045-.064,2.85,2.85,0,0,1,1.646-1.453,1.662,1.662,0,0,1,1.065.021A28.986,28.986,0,0,1,590.267,1487.942Zm3.032-10.354a.572.572,0,0,1-.2.246,24.41,24.41,0,0,0-9.143-9.623,5.914,5.914,0,0,1,3.379.506.688.688,0,1,0,.6-1.24,7.286,7.286,0,0,0-3.628-.69,2.9,2.9,0,0,1,2.649-1.056,7.574,7.574,0,0,1,3.717,1.982c1.579,1.316,3.453,3.125,3.942,5.458a2.116,2.116,0,0,1,.018,1.052.789.789,0,0,1-.26.383,5.878,5.878,0,0,0-1.454-2.014.688.688,0,1,0-.917,1.027,4.51,4.51,0,0,1,1.4,2.43A2.46,2.46,0,0,1,593.3,1477.588Zm7.483-20.138c-.757,1.23-4.343,9.608-5.785,13a15.185,15.185,0,0,0-3.44-3.794,10.035,10.035,0,0,0-3.667-2.139c1.717-2.475,5.707-7.647,7.375-9.706a9.539,9.539,0,0,1,1.327-1.4.474.474,0,1,0,.757-.506,12.076,12.076,0,0,1,2.125-.77l.126-.038a.474.474,0,0,0,.872-.26s0-.005,0-.008l.339-.108a25.563,25.563,0,0,0,2.907,3.413A7.637,7.637,0,0,0,600.782,1457.45Zm10.43,2.524a1.251,1.251,0,0,1-1.018.085,2.019,2.019,0,0,1-1.059-1.177,17.308,17.308,0,0,0,2.36.853A.983.983,0,0,1,611.212,1459.974Zm12.715,4.318a113.444,113.444,0,0,1-2.746-11.945.688.688,0,1,0-1.355.242c.036.2.567,3.173,1.264,6.322a.677.677,0,0,0-.273-.026c-8.678.943-17.615-.641-24.191-18.464-2.12-5.747-4.08-15.9-1.377-31.625,2.044-11.887,5.782-21.307,8.6-26.159a13.908,13.908,0,0,1,11.861-7.379c4.319-.126,8.78,1.761,10.609,4.505,2.913,4.368,2.523,7.91,2.111,11.659-.081.737-.165,1.5-.224,2.271-.3,3.935-.229,8.537-.2,9.981a9.073,9.073,0,0,0-5.255,7.006.686.686,0,0,0,0,.182c-.111.046-.221.086-.334.138-2.153.986-2.918,2.523-2.916,3.632a2.192,2.192,0,0,0,.568,1.509,3.866,3.866,0,0,0-.685,1.206,3.2,3.2,0,0,0,.63,3.247,2.744,2.744,0,0,0-.3,1.515,3.088,3.088,0,0,0,1.141,2.284,3.653,3.653,0,0,0,2.221.678h.055a31.472,31.472,0,0,0,6.557,10.171,15.373,15.373,0,0,0,1.089,2.631,18.63,18.63,0,0,1,2.151,6.839,16.453,16.453,0,0,1-.234,4.586,2.235,2.235,0,0,0-.627-.129,1.665,1.665,0,0,0-1.28.475.688.688,0,1,0,.974.973.291.291,0,0,1,.241-.073,1.19,1.19,0,0,1,.772.421,1.724,1.724,0,0,1,.377,1.5,1.213,1.213,0,0,1-.993.892.859.859,0,0,1-.908-.656.689.689,0,0,0-1.362.208,2.082,2.082,0,0,0,.609,1.158,7.834,7.834,0,0,1-1.2,1.173c-1.224-2.534-2.118-4.616-2.136-4.657a.688.688,0,0,0-1.266.542c.144.337,3.565,8.3,6.312,12.177a.688.688,0,0,0,1.123-.8l-.058-.084c2.588.829,8.466,2.037,8.547,2.074,2.144,1,3.116,3.356,2.89,7.017-.078,1.254-.533,4.189-3.04,4.654a.7.7,0,0,0-.119-.061C625.907,1469.988,624.945,1467.221,623.927,1464.292Zm18.582,14.019a3.3,3.3,0,0,1-1.43-.911.682.682,0,0,0,.226.04h.005a.685.685,0,0,0,.384.121.656.656,0,0,0,.108-.009c2.478-.392,4.08-2.616,4.286-5.949.3-4.9-2.624-8.152-3.739-8.517a18.233,18.233,0,0,0-2.012-.38,2.4,2.4,0,0,1,1.587-.7c1.015.01,2.13.884,3.227,2.529a.688.688,0,1,0,1.146-.764c-.129-.193-.258-.375-.389-.55a1.9,1.9,0,0,1,.469.139c.7.308,1.75,1.2,2.729,3.723,2.038,5.243-.107,9.281-2.281,10.473A5.688,5.688,0,0,1,642.508,1478.311Z" transform="translate(-5.613 0)" fill="#d9cbb4"/>
    <path id="Path_53924" data-name="Path 53924" d="M661.177,1478.789a13.284,13.284,0,0,0-.455,4.312.688.688,0,0,0,.687.648h.041a.688.688,0,0,0,.647-.727,11.907,11.907,0,0,1,.469-4.082,1.029,1.029,0,0,0-.915-1.461,1.5,1.5,0,0,1-.952-.45.659.659,0,0,1-.126-.69.771.771,0,0,1,.636-.3,2.952,2.952,0,0,1,1.118.261.688.688,0,1,0,.5-1.284,4.163,4.163,0,0,0-1.667-.353,2.118,2.118,0,0,0-1.783,1,2.024,2.024,0,0,0,.273,2.256A2.761,2.761,0,0,0,661.177,1478.789Z" transform="translate(-66.962 -72.596)" fill="#d9cbb4"/>
    <path id="Path_53925" data-name="Path 53925" d="M821.551,1681.424a7.325,7.325,0,0,0,.976.325c-.087-.257-.177-.513-.278-.765q-.029-.075-.061-.15c-.008-.019-.025-.07-.033-.1l.021.064a3.05,3.05,0,0,0-.13-.3c-.037-.082-.078-.162-.117-.244-.013.007-.026.012-.039.019a4.6,4.6,0,0,0-.749.51c-.1.089-.2.184-.3.281.06.034.12.066.18.1C821.2,1681.262,821.371,1681.348,821.551,1681.424Z" transform="translate(-173.005 -207.437)" fill="#d9cbb4"/>
    <path id="Path_53926" data-name="Path 53926" d="M627.165,1689.491a3.486,3.486,0,0,0-.433.2q-.223.115-.434.252c-.008.005-.016.012-.024.017.041.055.081.112.123.167.285.366.592.715.909,1.053a6.175,6.175,0,0,0,.173-1.047c.015-.191.023-.383.024-.575,0-.057,0-.115,0-.172C627.389,1689.419,627.275,1689.45,627.165,1689.491Z" transform="translate(-45.403 -213.419)" fill="#d9cbb4"/>
    <path id="Path_53927" data-name="Path 53927" d="M637.664,1755.29a.475.475,0,1,0,.474.472A.476.476,0,0,0,637.664,1755.29Z" transform="translate(-52.561 -256.642)" fill="#d9cbb4"/>
    <path id="Path_53928" data-name="Path 53928" d="M646.256,1759.58a.475.475,0,1,0,.474.472A.476.476,0,0,0,646.256,1759.58Z" transform="translate(-58.195 -259.455)" fill="#d9cbb4"/>
    <path id="Path_53929" data-name="Path 53929" d="M631.974,1755.29a.475.475,0,1,0,.474.472A.476.476,0,0,0,631.974,1755.29Z" transform="translate(-48.828 -256.642)" fill="#d9cbb4"/>
    <path id="Path_53930" data-name="Path 53930" d="M646.256,1768.007a.475.475,0,1,0,.474.472A.476.476,0,0,0,646.256,1768.007Z" transform="translate(-58.195 -264.981)" fill="#d9cbb4"/>
    <path id="Path_53931" data-name="Path 53931" d="M634.874,1768.007a.475.475,0,1,0,.474.472A.476.476,0,0,0,634.874,1768.007Z" transform="translate(-50.731 -264.981)" fill="#d9cbb4"/>
    <path id="Path_53932" data-name="Path 53932" d="M651.947,1759.58a.475.475,0,1,0,.474.472A.477.477,0,0,0,651.947,1759.58Z" transform="translate(-61.927 -259.455)" fill="#d9cbb4"/>
    <path id="Path_53933" data-name="Path 53933" d="M651.947,1768.007a.475.475,0,1,0,.474.472A.477.477,0,0,0,651.947,1768.007Z" transform="translate(-61.927 -264.981)" fill="#d9cbb4"/>
    <path id="Path_53934" data-name="Path 53934" d="M649.046,1763.717a.475.475,0,1,0,.474.472A.477.477,0,0,0,649.046,1763.717Z" transform="translate(-60.025 -262.168)" fill="#d9cbb4"/>
    <path id="Path_53935" data-name="Path 53935" d="M643.355,1763.717a.475.475,0,1,0,.474.472A.476.476,0,0,0,643.355,1763.717Z" transform="translate(-56.293 -262.168)" fill="#d9cbb4"/>
    <path id="Path_53936" data-name="Path 53936" d="M640.565,1768.007a.475.475,0,1,0,.474.472A.476.476,0,0,0,640.565,1768.007Z" transform="translate(-54.463 -264.981)" fill="#d9cbb4"/>
    <path id="Path_53937" data-name="Path 53937" d="M640.565,1759.58a.475.475,0,1,0,.474.472A.476.476,0,0,0,640.565,1759.58Z" transform="translate(-54.463 -259.455)" fill="#d9cbb4"/>
    <path id="Path_53938" data-name="Path 53938" d="M631.974,1772.143a.475.475,0,1,0,.474.472A.477.477,0,0,0,631.974,1772.143Z" transform="translate(-48.828 -267.694)" fill="#d9cbb4"/>
    <path id="Path_53939" data-name="Path 53939" d="M631.974,1763.717a.475.475,0,1,0,.474.472A.476.476,0,0,0,631.974,1763.717Z" transform="translate(-48.828 -262.168)" fill="#d9cbb4"/>
    <path id="Path_53940" data-name="Path 53940" d="M637.664,1763.717a.475.475,0,1,0,.474.472A.476.476,0,0,0,637.664,1763.717Z" transform="translate(-52.561 -262.168)" fill="#d9cbb4"/>
    <path id="Path_53941" data-name="Path 53941" d="M634.874,1759.58a.475.475,0,1,0,.474.472A.476.476,0,0,0,634.874,1759.58Z" transform="translate(-50.731 -259.455)" fill="#d9cbb4"/>
    <path id="Path_53942" data-name="Path 53942" d="M637.664,1772.143a.475.475,0,1,0,.474.472A.476.476,0,0,0,637.664,1772.143Z" transform="translate(-52.561 -267.694)" fill="#d9cbb4"/>
    <path id="Path_53943" data-name="Path 53943" d="M612.234,1759.58a.475.475,0,1,0,.474.472A.477.477,0,0,0,612.234,1759.58Z" transform="translate(-35.883 -259.455)" fill="#d9cbb4"/>
    <path id="Path_53944" data-name="Path 53944" d="M586.258,1772.143a.475.475,0,1,0,.474.472A.476.476,0,0,0,586.258,1772.143Z" transform="translate(-18.847 -267.694)" fill="#d9cbb4"/>
    <path id="Path_53945" data-name="Path 53945" d="M586.258,1763.717a.475.475,0,1,0,.474.472A.476.476,0,0,0,586.258,1763.717Z" transform="translate(-18.847 -262.168)" fill="#d9cbb4"/>
    <path id="Path_53946" data-name="Path 53946" d="M589.158,1768.007a.475.475,0,1,0,.474.472A.476.476,0,0,0,589.158,1768.007Z" transform="translate(-20.75 -264.981)" fill="#d9cbb4"/>
    <path id="Path_53947" data-name="Path 53947" d="M586.258,1755.29a.475.475,0,1,0,.474.472A.476.476,0,0,0,586.258,1755.29Z" transform="translate(-18.847 -256.642)" fill="#d9cbb4"/>
    <path id="Path_53948" data-name="Path 53948" d="M580.283,1755.29a.475.475,0,1,0,.474.472A.476.476,0,0,0,580.283,1755.29Z" transform="translate(-14.929 -256.642)" fill="#d9cbb4"/>
    <path id="Path_53949" data-name="Path 53949" d="M583.44,1760.53a.475.475,0,1,0-.481-.466A.477.477,0,0,0,583.44,1760.53Z" transform="translate(-16.996 -259.455)" fill="#d9cbb4"/>
    <path id="Path_53950" data-name="Path 53950" d="M583.468,1768.007a.475.475,0,1,0,.474.472A.476.476,0,0,0,583.468,1768.007Z" transform="translate(-17.017 -264.981)" fill="#d9cbb4"/>
    <path id="Path_53951" data-name="Path 53951" d="M580.283,1763.717a.475.475,0,1,0,.474.472A.476.476,0,0,0,580.283,1763.717Z" transform="translate(-14.929 -262.168)" fill="#d9cbb4"/>
    <path id="Path_53952" data-name="Path 53952" d="M595.385,1768.007a.475.475,0,1,0,.474.472A.476.476,0,0,0,595.385,1768.007Z" transform="translate(-24.833 -264.981)" fill="#d9cbb4"/>
    <path id="Path_53953" data-name="Path 53953" d="M595.385,1759.58a.475.475,0,1,0,.474.472A.476.476,0,0,0,595.385,1759.58Z" transform="translate(-24.833 -259.455)" fill="#d9cbb4"/>
    <path id="Path_53954" data-name="Path 53954" d="M590.168,1760.053a.476.476,0,1,0-.47.477A.476.476,0,0,0,590.168,1760.053Z" transform="translate(-21.1 -259.455)" fill="#d9cbb4"/>
    <path id="Path_53955" data-name="Path 53955" d="M591.948,1755.29a.475.475,0,1,0,.474.472A.476.476,0,0,0,591.948,1755.29Z" transform="translate(-22.579 -256.642)" fill="#d9cbb4"/>
    <path id="Path_53956" data-name="Path 53956" d="M591.948,1772.143a.475.475,0,1,0,.474.472A.477.477,0,0,0,591.948,1772.143Z" transform="translate(-22.579 -267.694)" fill="#d9cbb4"/>
    <path id="Path_53957" data-name="Path 53957" d="M591.948,1763.717a.475.475,0,1,0,.474.472A.476.476,0,0,0,591.948,1763.717Z" transform="translate(-22.579 -262.168)" fill="#d9cbb4"/>
    <path id="Path_53958" data-name="Path 53958" d="M574.593,1763.717a.475.475,0,1,0,.474.472A.476.476,0,0,0,574.593,1763.717Z" transform="translate(-11.197 -262.168)" fill="#d9cbb4"/>
    <path id="Path_53959" data-name="Path 53959" d="M580.283,1772.143a.475.475,0,1,0,.474.472A.476.476,0,0,0,580.283,1772.143Z" transform="translate(-14.929 -267.694)" fill="#d9cbb4"/>
    <path id="Path_53960" data-name="Path 53960" d="M571.8,1768.007a.475.475,0,1,0,.474.472A.476.476,0,0,0,571.8,1768.007Z" transform="translate(-9.367 -264.981)" fill="#d9cbb4"/>
    <path id="Path_53961" data-name="Path 53961" d="M563.211,1763.717a.475.475,0,1,0,.474.472A.476.476,0,0,0,563.211,1763.717Z" transform="translate(-3.732 -262.168)" fill="#d9cbb4"/>
    <path id="Path_53962" data-name="Path 53962" d="M568.9,1763.717a.475.475,0,1,0,.474.472A.476.476,0,0,0,568.9,1763.717Z" transform="translate(-7.465 -262.168)" fill="#d9cbb4"/>
    <path id="Path_53963" data-name="Path 53963" d="M557.52,1763.717a.475.475,0,1,0,.474.472A.477.477,0,0,0,557.52,1763.717Z" transform="translate(0 -262.168)" fill="#d9cbb4"/>
    <path id="Path_53964" data-name="Path 53964" d="M560.42,1759.58a.475.475,0,1,0,.474.472A.477.477,0,0,0,560.42,1759.58Z" transform="translate(-1.902 -259.455)" fill="#d9cbb4"/>
    <path id="Path_53965" data-name="Path 53965" d="M560.42,1768.007a.475.475,0,1,0,.474.472A.477.477,0,0,0,560.42,1768.007Z" transform="translate(-1.902 -264.981)" fill="#d9cbb4"/>
    <path id="Path_53966" data-name="Path 53966" d="M566.112,1768.007a.475.475,0,1,0,.474.472A.477.477,0,0,0,566.112,1768.007Z" transform="translate(-5.635 -264.981)" fill="#d9cbb4"/>
    <path id="Path_53967" data-name="Path 53967" d="M574.593,1755.29a.475.475,0,1,0,.474.472A.476.476,0,0,0,574.593,1755.29Z" transform="translate(-11.197 -256.642)" fill="#d9cbb4"/>
    <path id="Path_53968" data-name="Path 53968" d="M577.493,1768.007a.475.475,0,1,0,.474.472A.476.476,0,0,0,577.493,1768.007Z" transform="translate(-13.099 -264.981)" fill="#d9cbb4"/>
    <path id="Path_53969" data-name="Path 53969" d="M577.493,1759.58a.475.475,0,1,0,.474.472A.476.476,0,0,0,577.493,1759.58Z" transform="translate(-13.099 -259.455)" fill="#d9cbb4"/>
    <path id="Path_53970" data-name="Path 53970" d="M574.593,1772.143a.475.475,0,1,0,.474.472A.476.476,0,0,0,574.593,1772.143Z" transform="translate(-11.197 -267.694)" fill="#d9cbb4"/>
    <path id="Path_53971" data-name="Path 53971" d="M598.174,1772.143a.475.475,0,1,0,.474.472A.476.476,0,0,0,598.174,1772.143Z" transform="translate(-26.662 -267.694)" fill="#d9cbb4"/>
    <path id="Path_53972" data-name="Path 53972" d="M571.8,1759.58a.475.475,0,1,0,.474.472A.476.476,0,0,0,571.8,1759.58Z" transform="translate(-9.367 -259.455)" fill="#d9cbb4"/>
    <path id="Path_53973" data-name="Path 53973" d="M620.592,1755.29a.475.475,0,1,0,.474.472A.476.476,0,0,0,620.592,1755.29Z" transform="translate(-41.365 -256.642)" fill="#d9cbb4"/>
    <path id="Path_53974" data-name="Path 53974" d="M617.8,1759.58a.475.475,0,1,0,.474.472A.476.476,0,0,0,617.8,1759.58Z" transform="translate(-39.535 -259.455)" fill="#d9cbb4"/>
    <path id="Path_53975" data-name="Path 53975" d="M629.183,1759.58a.475.475,0,1,0,.474.472A.476.476,0,0,0,629.183,1759.58Z" transform="translate(-46.999 -259.455)" fill="#d9cbb4"/>
    <path id="Path_53976" data-name="Path 53976" d="M620.592,1763.717a.475.475,0,1,0,.474.472A.476.476,0,0,0,620.592,1763.717Z" transform="translate(-41.365 -262.168)" fill="#d9cbb4"/>
    <path id="Path_53977" data-name="Path 53977" d="M620.592,1772.143a.475.475,0,1,0,.474.472A.476.476,0,0,0,620.592,1772.143Z" transform="translate(-41.365 -267.694)" fill="#d9cbb4"/>
    <path id="Path_53978" data-name="Path 53978" d="M615.025,1772.143a.475.475,0,1,0,.474.472A.476.476,0,0,0,615.025,1772.143Z" transform="translate(-37.713 -267.694)" fill="#d9cbb4"/>
    <path id="Path_53979" data-name="Path 53979" d="M615.025,1763.717a.475.475,0,1,0,.474.472A.476.476,0,0,0,615.025,1763.717Z" transform="translate(-37.713 -262.168)" fill="#d9cbb4"/>
    <path id="Path_53980" data-name="Path 53980" d="M615.025,1755.29a.475.475,0,1,0,.474.472A.476.476,0,0,0,615.025,1755.29Z" transform="translate(-37.713 -256.642)" fill="#d9cbb4"/>
    <path id="Path_53981" data-name="Path 53981" d="M617.8,1768.007a.475.475,0,1,0,.474.472A.476.476,0,0,0,617.8,1768.007Z" transform="translate(-39.535 -264.981)" fill="#d9cbb4"/>
    <path id="Path_53982" data-name="Path 53982" d="M626.283,1763.717a.475.475,0,1,0,.474.472A.476.476,0,0,0,626.283,1763.717Z" transform="translate(-45.097 -262.168)" fill="#d9cbb4"/>
    <path id="Path_53983" data-name="Path 53983" d="M623.493,1768.007a.475.475,0,1,0,.474.472A.476.476,0,0,0,623.493,1768.007Z" transform="translate(-43.267 -264.981)" fill="#d9cbb4"/>
    <path id="Path_53984" data-name="Path 53984" d="M629.183,1768.007a.475.475,0,1,0,.474.472A.476.476,0,0,0,629.183,1768.007Z" transform="translate(-46.999 -264.981)" fill="#d9cbb4"/>
    <path id="Path_53985" data-name="Path 53985" d="M626.283,1755.29a.475.475,0,1,0,.474.472A.476.476,0,0,0,626.283,1755.29Z" transform="translate(-45.097 -256.642)" fill="#d9cbb4"/>
    <path id="Path_53986" data-name="Path 53986" d="M623.493,1759.58a.475.475,0,1,0,.474.472A.476.476,0,0,0,623.493,1759.58Z" transform="translate(-43.267 -259.455)" fill="#d9cbb4"/>
    <path id="Path_53987" data-name="Path 53987" d="M626.283,1772.143a.475.475,0,1,0,.474.472A.476.476,0,0,0,626.283,1772.143Z" transform="translate(-45.097 -267.694)" fill="#d9cbb4"/>
    <path id="Path_53988" data-name="Path 53988" d="M609.432,1763.717a.475.475,0,1,0,.474.472A.476.476,0,0,0,609.432,1763.717Z" transform="translate(-34.045 -262.168)" fill="#d9cbb4"/>
    <path id="Path_53989" data-name="Path 53989" d="M603.865,1755.29a.475.475,0,1,0,.474.472A.476.476,0,0,0,603.865,1755.29Z" transform="translate(-30.395 -256.642)" fill="#d9cbb4"/>
    <path id="Path_53990" data-name="Path 53990" d="M603.865,1763.717a.475.475,0,1,0,.474.472A.476.476,0,0,0,603.865,1763.717Z" transform="translate(-30.395 -262.168)" fill="#d9cbb4"/>
    <path id="Path_53991" data-name="Path 53991" d="M601.075,1759.58a.475.475,0,1,0,.474.472A.476.476,0,0,0,601.075,1759.58Z" transform="translate(-28.565 -259.455)" fill="#d9cbb4"/>
    <path id="Path_53992" data-name="Path 53992" d="M603.865,1772.143a.475.475,0,1,0,.474.472A.476.476,0,0,0,603.865,1772.143Z" transform="translate(-30.395 -267.694)" fill="#d9cbb4"/>
    <path id="Path_53993" data-name="Path 53993" d="M601.075,1768.007a.475.475,0,1,0,.474.472A.476.476,0,0,0,601.075,1768.007Z" transform="translate(-28.565 -264.981)" fill="#d9cbb4"/>
    <path id="Path_53994" data-name="Path 53994" d="M654.737,1763.717a.475.475,0,1,0,.474.472A.477.477,0,0,0,654.737,1763.717Z" transform="translate(-63.757 -262.168)" fill="#d9cbb4"/>
    <path id="Path_53995" data-name="Path 53995" d="M598.174,1755.29a.475.475,0,1,0,.474.472A.476.476,0,0,0,598.174,1755.29Z" transform="translate(-26.662 -256.642)" fill="#d9cbb4"/>
    <path id="Path_53996" data-name="Path 53996" d="M606.643,1768.007a.475.475,0,1,0,.474.472A.476.476,0,0,0,606.643,1768.007Z" transform="translate(-32.216 -264.981)" fill="#d9cbb4"/>
    <path id="Path_53997" data-name="Path 53997" d="M612.234,1768.007a.475.475,0,1,0,.474.472A.477.477,0,0,0,612.234,1768.007Z" transform="translate(-35.883 -264.981)" fill="#d9cbb4"/>
    <path id="Path_53998" data-name="Path 53998" d="M598.174,1763.717a.475.475,0,1,0,.474.472A.476.476,0,0,0,598.174,1763.717Z" transform="translate(-26.662 -262.168)" fill="#d9cbb4"/>
    <path id="Path_53999" data-name="Path 53999" d="M609.432,1755.29a.475.475,0,1,0,.474.472A.476.476,0,0,0,609.432,1755.29Z" transform="translate(-34.045 -256.642)" fill="#d9cbb4"/>
    <path id="Path_54000" data-name="Path 54000" d="M606.643,1759.58a.475.475,0,1,0,.474.472A.476.476,0,0,0,606.643,1759.58Z" transform="translate(-32.216 -259.455)" fill="#d9cbb4"/>
    <path id="Path_54001" data-name="Path 54001" d="M609.432,1772.143a.475.475,0,1,0,.474.472A.476.476,0,0,0,609.432,1772.143Z" transform="translate(-34.045 -267.694)" fill="#d9cbb4"/>
    <path id="Path_54002" data-name="Path 54002" d="M566.112,1759.58a.475.475,0,1,0,.474.472A.477.477,0,0,0,566.112,1759.58Z" transform="translate(-5.635 -259.455)" fill="#d9cbb4"/>
    <path id="Path_54003" data-name="Path 54003" d="M827.275,1768.007a.475.475,0,1,0,.474.472A.477.477,0,0,0,827.275,1768.007Z" transform="translate(-176.911 -264.981)" fill="#d9cbb4"/>
    <path id="Path_54004" data-name="Path 54004" d="M827.275,1759.58a.475.475,0,1,0,.474.472A.477.477,0,0,0,827.275,1759.58Z" transform="translate(-176.911 -259.455)" fill="#d9cbb4"/>
    <path id="Path_54005" data-name="Path 54005" d="M824.5,1755.29a.475.475,0,1,0,.474.472A.476.476,0,0,0,824.5,1755.29Z" transform="translate(-175.09 -256.642)" fill="#d9cbb4"/>
    <path id="Path_54006" data-name="Path 54006" d="M830.066,1772.143a.475.475,0,1,0,.474.472A.477.477,0,0,0,830.066,1772.143Z" transform="translate(-178.741 -267.694)" fill="#d9cbb4"/>
    <path id="Path_54007" data-name="Path 54007" d="M824.5,1763.717a.475.475,0,1,0,.474.472A.476.476,0,0,0,824.5,1763.717Z" transform="translate(-175.09 -262.168)" fill="#d9cbb4"/>
    <path id="Path_54008" data-name="Path 54008" d="M824.5,1772.143a.475.475,0,1,0,.474.472A.476.476,0,0,0,824.5,1772.143Z" transform="translate(-175.09 -267.694)" fill="#d9cbb4"/>
    <path id="Path_54009" data-name="Path 54009" d="M832.966,1759.58a.475.475,0,1,0,.474.472A.476.476,0,0,0,832.966,1759.58Z" transform="translate(-180.643 -259.455)" fill="#d9cbb4"/>
    <path id="Path_54010" data-name="Path 54010" d="M835.756,1772.143a.475.475,0,1,0,.474.472A.477.477,0,0,0,835.756,1772.143Z" transform="translate(-182.473 -267.694)" fill="#d9cbb4"/>
    <path id="Path_54011" data-name="Path 54011" d="M832.966,1768.007a.475.475,0,1,0,.474.472A.477.477,0,0,0,832.966,1768.007Z" transform="translate(-180.643 -264.981)" fill="#d9cbb4"/>
    <path id="Path_54012" data-name="Path 54012" d="M830.066,1755.29a.475.475,0,1,0,.474.472A.477.477,0,0,0,830.066,1755.29Z" transform="translate(-178.741 -256.642)" fill="#d9cbb4"/>
    <path id="Path_54013" data-name="Path 54013" d="M830.066,1763.717a.475.475,0,1,0,.474.472A.476.476,0,0,0,830.066,1763.717Z" transform="translate(-178.741 -262.168)" fill="#d9cbb4"/>
    <path id="Path_54014" data-name="Path 54014" d="M816.116,1759.58a.475.475,0,1,0,.474.472A.476.476,0,0,0,816.116,1759.58Z" transform="translate(-169.593 -259.455)" fill="#d9cbb4"/>
    <path id="Path_54015" data-name="Path 54015" d="M816.116,1768.007a.475.475,0,1,0,.474.472A.476.476,0,0,0,816.116,1768.007Z" transform="translate(-169.593 -264.981)" fill="#d9cbb4"/>
    <path id="Path_54016" data-name="Path 54016" d="M813.339,1755.29a.475.475,0,1,0,.474.472A.477.477,0,0,0,813.339,1755.29Z" transform="translate(-167.771 -256.642)" fill="#d9cbb4"/>
    <path id="Path_54017" data-name="Path 54017" d="M821.708,1759.58a.475.475,0,1,0,.474.472A.476.476,0,0,0,821.708,1759.58Z" transform="translate(-173.26 -259.455)" fill="#d9cbb4"/>
    <path id="Path_54018" data-name="Path 54018" d="M813.339,1763.717a.475.475,0,1,0,.474.472A.476.476,0,0,0,813.339,1763.717Z" transform="translate(-167.771 -262.168)" fill="#d9cbb4"/>
    <path id="Path_54019" data-name="Path 54019" d="M813.339,1772.143a.475.475,0,1,0,.474.472A.477.477,0,0,0,813.339,1772.143Z" transform="translate(-167.771 -267.694)" fill="#d9cbb4"/>
    <path id="Path_54020" data-name="Path 54020" d="M821.708,1768.007a.475.475,0,1,0,.474.472A.476.476,0,0,0,821.708,1768.007Z" transform="translate(-173.26 -264.981)" fill="#d9cbb4"/>
    <path id="Path_54021" data-name="Path 54021" d="M818.906,1755.29a.475.475,0,1,0,.474.472A.476.476,0,0,0,818.906,1755.29Z" transform="translate(-171.423 -256.642)" fill="#d9cbb4"/>
    <path id="Path_54022" data-name="Path 54022" d="M818.906,1763.717a.475.475,0,1,0,.474.472A.476.476,0,0,0,818.906,1763.717Z" transform="translate(-171.423 -262.168)" fill="#d9cbb4"/>
    <path id="Path_54023" data-name="Path 54023" d="M818.906,1772.143a.475.475,0,1,0,.474.472A.476.476,0,0,0,818.906,1772.143Z" transform="translate(-171.423 -267.694)" fill="#d9cbb4"/>
    <path id="Path_54024" data-name="Path 54024" d="M838.657,1768.007a.475.475,0,1,0,.474.472A.476.476,0,0,0,838.657,1768.007Z" transform="translate(-184.376 -264.981)" fill="#d9cbb4"/>
    <path id="Path_54025" data-name="Path 54025" d="M855.73,1759.58a.475.475,0,1,0,.474.472A.476.476,0,0,0,855.73,1759.58Z" transform="translate(-195.572 -259.455)" fill="#d9cbb4"/>
    <path id="Path_54026" data-name="Path 54026" d="M855.73,1768.007a.475.475,0,1,0,.474.472A.477.477,0,0,0,855.73,1768.007Z" transform="translate(-195.572 -264.981)" fill="#d9cbb4"/>
    <path id="Path_54027" data-name="Path 54027" d="M852.829,1763.717a.475.475,0,1,0,.474.472A.476.476,0,0,0,852.829,1763.717Z" transform="translate(-193.67 -262.168)" fill="#d9cbb4"/>
    <path id="Path_54028" data-name="Path 54028" d="M847.138,1755.29a.475.475,0,1,0,.474.472A.476.476,0,0,0,847.138,1755.29Z" transform="translate(-189.938 -256.642)" fill="#d9cbb4"/>
    <path id="Path_54029" data-name="Path 54029" d="M850.039,1759.58a.475.475,0,1,0,.474.472A.476.476,0,0,0,850.039,1759.58Z" transform="translate(-191.84 -259.455)" fill="#d9cbb4"/>
    <path id="Path_54030" data-name="Path 54030" d="M850.039,1768.007a.475.475,0,1,0,.474.472A.476.476,0,0,0,850.039,1768.007Z" transform="translate(-191.84 -264.981)" fill="#d9cbb4"/>
    <path id="Path_54031" data-name="Path 54031" d="M864.211,1763.717a.475.475,0,1,0,.474.472A.476.476,0,0,0,864.211,1763.717Z" transform="translate(-201.134 -262.168)" fill="#d9cbb4"/>
    <path id="Path_54032" data-name="Path 54032" d="M861.42,1759.58a.475.475,0,1,0,.474.472A.476.476,0,0,0,861.42,1759.58Z" transform="translate(-199.304 -259.455)" fill="#d9cbb4"/>
    <path id="Path_54033" data-name="Path 54033" d="M861.42,1768.007a.475.475,0,1,0,.474.472A.476.476,0,0,0,861.42,1768.007Z" transform="translate(-199.304 -264.981)" fill="#d9cbb4"/>
    <path id="Path_54034" data-name="Path 54034" d="M858.52,1763.717a.475.475,0,1,0,.474.472A.476.476,0,0,0,858.52,1763.717Z" transform="translate(-197.402 -262.168)" fill="#d9cbb4"/>
    <path id="Path_54035" data-name="Path 54035" d="M810.548,1759.58a.475.475,0,1,0,.474.472A.476.476,0,0,0,810.548,1759.58Z" transform="translate(-165.941 -259.455)" fill="#d9cbb4"/>
    <path id="Path_54036" data-name="Path 54036" d="M841.447,1772.143a.475.475,0,1,0,.474.472A.476.476,0,0,0,841.447,1772.143Z" transform="translate(-186.206 -267.694)" fill="#d9cbb4"/>
    <path id="Path_54037" data-name="Path 54037" d="M841.447,1763.717a.475.475,0,1,0,.474.472A.476.476,0,0,0,841.447,1763.717Z" transform="translate(-186.206 -262.168)" fill="#d9cbb4"/>
    <path id="Path_54038" data-name="Path 54038" d="M838.657,1759.58a.475.475,0,1,0,.474.472A.476.476,0,0,0,838.657,1759.58Z" transform="translate(-184.376 -259.455)" fill="#d9cbb4"/>
    <path id="Path_54039" data-name="Path 54039" d="M835.756,1755.29a.475.475,0,1,0,.474.472A.476.476,0,0,0,835.756,1755.29Z" transform="translate(-182.473 -256.642)" fill="#d9cbb4"/>
    <path id="Path_54040" data-name="Path 54040" d="M835.756,1763.717a.475.475,0,1,0,.474.472A.476.476,0,0,0,835.756,1763.717Z" transform="translate(-182.473 -262.168)" fill="#d9cbb4"/>
    <path id="Path_54041" data-name="Path 54041" d="M841.447,1755.29a.475.475,0,1,0,.474.472A.476.476,0,0,0,841.447,1755.29Z" transform="translate(-186.206 -256.642)" fill="#d9cbb4"/>
    <path id="Path_54042" data-name="Path 54042" d="M847.138,1772.143a.475.475,0,1,0,.474.472A.476.476,0,0,0,847.138,1772.143Z" transform="translate(-189.938 -267.694)" fill="#d9cbb4"/>
    <path id="Path_54043" data-name="Path 54043" d="M847.138,1763.717a.475.475,0,1,0,.474.472A.476.476,0,0,0,847.138,1763.717Z" transform="translate(-189.938 -262.168)" fill="#d9cbb4"/>
    <path id="Path_54044" data-name="Path 54044" d="M784.066,1763.717a.475.475,0,1,0,.474.472A.476.476,0,0,0,784.066,1763.717Z" transform="translate(-148.573 -262.168)" fill="#d9cbb4"/>
    <path id="Path_54045" data-name="Path 54045" d="M844.348,1768.007a.475.475,0,1,0,.474.472A.476.476,0,0,0,844.348,1768.007Z" transform="translate(-188.108 -264.981)" fill="#d9cbb4"/>
    <path id="Path_54046" data-name="Path 54046" d="M844.348,1759.58a.475.475,0,1,0,.474.472A.476.476,0,0,0,844.348,1759.58Z" transform="translate(-188.108 -259.455)" fill="#d9cbb4"/>
    <path id="Path_54047" data-name="Path 54047" d="M810.548,1768.007a.475.475,0,1,0,.474.472A.477.477,0,0,0,810.548,1768.007Z" transform="translate(-165.941 -264.981)" fill="#d9cbb4"/>
    <path id="Path_54048" data-name="Path 54048" d="M766.993,1763.717a.475.475,0,1,0,.474.472A.476.476,0,0,0,766.993,1763.717Z" transform="translate(-137.377 -262.168)" fill="#d9cbb4"/>
    <path id="Path_54049" data-name="Path 54049" d="M784.066,1755.29a.475.475,0,1,0,.474.472A.476.476,0,0,0,784.066,1755.29Z" transform="translate(-148.573 -256.642)" fill="#d9cbb4"/>
    <path id="Path_54050" data-name="Path 54050" d="M769.895,1768.007a.475.475,0,1,0,.474.472A.476.476,0,0,0,769.895,1768.007Z" transform="translate(-139.28 -264.981)" fill="#d9cbb4"/>
    <path id="Path_54051" data-name="Path 54051" d="M769.895,1759.58a.475.475,0,1,0,.474.472A.476.476,0,0,0,769.895,1759.58Z" transform="translate(-139.28 -259.455)" fill="#d9cbb4"/>
    <path id="Path_54052" data-name="Path 54052" d="M789.757,1763.717a.475.475,0,1,0,.474.472A.476.476,0,0,0,789.757,1763.717Z" transform="translate(-152.306 -262.168)" fill="#d9cbb4"/>
    <path id="Path_54053" data-name="Path 54053" d="M789.757,1772.143a.475.475,0,1,0,.474.472A.477.477,0,0,0,789.757,1772.143Z" transform="translate(-152.306 -267.694)" fill="#d9cbb4"/>
    <path id="Path_54054" data-name="Path 54054" d="M789.757,1755.29a.475.475,0,1,0,.474.472A.477.477,0,0,0,789.757,1755.29Z" transform="translate(-152.306 -256.642)" fill="#d9cbb4"/>
    <path id="Path_54055" data-name="Path 54055" d="M786.966,1759.58a.475.475,0,1,0,.474.472A.477.477,0,0,0,786.966,1759.58Z" transform="translate(-150.476 -259.455)" fill="#d9cbb4"/>
    <path id="Path_54056" data-name="Path 54056" d="M781.275,1759.58a.475.475,0,1,0,.474.472A.477.477,0,0,0,781.275,1759.58Z" transform="translate(-146.743 -259.455)" fill="#d9cbb4"/>
    <path id="Path_54057" data-name="Path 54057" d="M772.684,1763.717a.475.475,0,1,0,.474.472A.476.476,0,0,0,772.684,1763.717Z" transform="translate(-141.109 -262.168)" fill="#d9cbb4"/>
    <path id="Path_54058" data-name="Path 54058" d="M781.275,1768.007a.475.475,0,1,0,.474.472A.477.477,0,0,0,781.275,1768.007Z" transform="translate(-146.743 -264.981)" fill="#d9cbb4"/>
    <path id="Path_54059" data-name="Path 54059" d="M784.066,1772.143a.475.475,0,1,0,.474.472A.477.477,0,0,0,784.066,1772.143Z" transform="translate(-148.573 -267.694)" fill="#d9cbb4"/>
    <path id="Path_54060" data-name="Path 54060" d="M778.375,1763.717a.475.475,0,1,0,.474.472A.476.476,0,0,0,778.375,1763.717Z" transform="translate(-144.841 -262.168)" fill="#d9cbb4"/>
    <path id="Path_54061" data-name="Path 54061" d="M775.586,1768.007a.475.475,0,1,0,.474.472A.476.476,0,0,0,775.586,1768.007Z" transform="translate(-143.012 -264.981)" fill="#d9cbb4"/>
    <path id="Path_54062" data-name="Path 54062" d="M775.586,1759.58a.475.475,0,1,0,.474.472A.476.476,0,0,0,775.586,1759.58Z" transform="translate(-143.012 -259.455)" fill="#d9cbb4"/>
    <path id="Path_54063" data-name="Path 54063" d="M786.966,1768.007a.475.475,0,1,0,.474.472A.477.477,0,0,0,786.966,1768.007Z" transform="translate(-150.476 -264.981)" fill="#d9cbb4"/>
    <path id="Path_54064" data-name="Path 54064" d="M795.731,1763.717a.475.475,0,1,0,.474.472A.476.476,0,0,0,795.731,1763.717Z" transform="translate(-156.223 -262.168)" fill="#d9cbb4"/>
    <path id="Path_54065" data-name="Path 54065" d="M795.731,1755.29a.475.475,0,1,0,.474.472A.477.477,0,0,0,795.731,1755.29Z" transform="translate(-156.223 -256.642)" fill="#d9cbb4"/>
    <path id="Path_54066" data-name="Path 54066" d="M798.631,1768.007a.475.475,0,1,0,.474.472A.476.476,0,0,0,798.631,1768.007Z" transform="translate(-158.126 -264.981)" fill="#d9cbb4"/>
    <path id="Path_54067" data-name="Path 54067" d="M801.422,1772.143a.475.475,0,1,0,.474.472A.476.476,0,0,0,801.422,1772.143Z" transform="translate(-159.956 -267.694)" fill="#d9cbb4"/>
    <path id="Path_54068" data-name="Path 54068" d="M795.731,1772.143a.475.475,0,1,0,.474.472A.477.477,0,0,0,795.731,1772.143Z" transform="translate(-156.223 -267.694)" fill="#d9cbb4"/>
    <path id="Path_54069" data-name="Path 54069" d="M792.914,1760.53a.475.475,0,1,0-.481-.466A.476.476,0,0,0,792.914,1760.53Z" transform="translate(-154.373 -259.455)" fill="#d9cbb4"/>
    <path id="Path_54070" data-name="Path 54070" d="M792.94,1768.007a.475.475,0,1,0,.474.472A.477.477,0,0,0,792.94,1768.007Z" transform="translate(-154.394 -264.981)" fill="#d9cbb4"/>
    <path id="Path_54071" data-name="Path 54071" d="M798.69,1760.064a.476.476,0,1,0,.477-.484A.477.477,0,0,0,798.69,1760.064Z" transform="translate(-158.477 -259.455)" fill="#d9cbb4"/>
    <path id="Path_54072" data-name="Path 54072" d="M807.648,1763.717a.475.475,0,1,0,.474.472A.476.476,0,0,0,807.648,1763.717Z" transform="translate(-164.039 -262.168)" fill="#d9cbb4"/>
    <path id="Path_54073" data-name="Path 54073" d="M807.648,1755.29a.475.475,0,1,0,.474.472A.477.477,0,0,0,807.648,1755.29Z" transform="translate(-164.039 -256.642)" fill="#d9cbb4"/>
    <path id="Path_54074" data-name="Path 54074" d="M807.648,1772.143a.475.475,0,1,0,.474.472A.477.477,0,0,0,807.648,1772.143Z" transform="translate(-164.039 -267.694)" fill="#d9cbb4"/>
    <path id="Path_54075" data-name="Path 54075" d="M801.422,1763.717a.475.475,0,1,0,.474.472A.476.476,0,0,0,801.422,1763.717Z" transform="translate(-159.956 -262.168)" fill="#d9cbb4"/>
    <path id="Path_54076" data-name="Path 54076" d="M801.422,1755.29a.475.475,0,1,0,.474.472A.476.476,0,0,0,801.422,1755.29Z" transform="translate(-159.956 -256.642)" fill="#d9cbb4"/>
    <path id="Path_54077" data-name="Path 54077" d="M804.858,1759.58a.475.475,0,1,0,.474.472A.477.477,0,0,0,804.858,1759.58Z" transform="translate(-162.209 -259.455)" fill="#d9cbb4"/>
    <path id="Path_54078" data-name="Path 54078" d="M804.858,1768.007a.475.475,0,1,0,.474.472A.477.477,0,0,0,804.858,1768.007Z" transform="translate(-162.209 -264.981)" fill="#d9cbb4"/>
    <path id="Path_54079" data-name="Path 54079" d="M658.941,1626.33a.475.475,0,1,0,.474.472A.476.476,0,0,0,658.941,1626.33Z" transform="translate(-66.514 -172.067)" fill="#d9cbb4"/>
    <path id="Path_54080" data-name="Path 54080" d="M661.732,1630.466a.475.475,0,1,0,.474.473A.476.476,0,0,0,661.732,1630.466Z" transform="translate(-68.344 -174.779)" fill="#d9cbb4"/>
    <path id="Path_54081" data-name="Path 54081" d="M667.422,1622.04a.474.474,0,1,0,.474.472A.476.476,0,0,0,667.422,1622.04Z" transform="translate(-72.076 -169.254)" fill="#d9cbb4"/>
    <path id="Path_54082" data-name="Path 54082" d="M661.732,1622.04a.474.474,0,1,0,.474.472A.476.476,0,0,0,661.732,1622.04Z" transform="translate(-68.344 -169.254)" fill="#d9cbb4"/>
    <path id="Path_54083" data-name="Path 54083" d="M667.422,1630.466a.475.475,0,1,0,.474.473A.476.476,0,0,0,667.422,1630.466Z" transform="translate(-72.076 -174.779)" fill="#d9cbb4"/>
    <path id="Path_54084" data-name="Path 54084" d="M670.607,1626.33a.475.475,0,1,0,.474.472A.476.476,0,0,0,670.607,1626.33Z" transform="translate(-74.165 -172.067)" fill="#d9cbb4"/>
    <path id="Path_54085" data-name="Path 54085" d="M664.633,1626.33a.475.475,0,1,0,.474.472A.476.476,0,0,0,664.633,1626.33Z" transform="translate(-70.247 -172.067)" fill="#d9cbb4"/>
    <path id="Path_54086" data-name="Path 54086" d="M653.25,1626.33a.475.475,0,1,0,.474.472A.477.477,0,0,0,653.25,1626.33Z" transform="translate(-62.782 -172.067)" fill="#d9cbb4"/>
    <path id="Path_54087" data-name="Path 54087" d="M752.124,1491.309a.475.475,0,1,0,.474.472A.476.476,0,0,0,752.124,1491.309Z" transform="translate(-127.625 -83.518)" fill="#d9cbb4"/>
    <path id="Path_54088" data-name="Path 54088" d="M755.025,1495.6a.475.475,0,1,0,.474.472A.476.476,0,0,0,755.025,1495.6Z" transform="translate(-129.528 -86.331)" fill="#d9cbb4"/>
    <path id="Path_54089" data-name="Path 54089" d="M757.815,1499.735a.475.475,0,1,0,.474.472A.476.476,0,0,0,757.815,1499.735Z" transform="translate(-131.357 -89.044)" fill="#d9cbb4"/>
  </g>
</svg>
