<svg id="char5" xmlns="http://www.w3.org/2000/svg" width="134.909" height="120.933" viewBox="0 0 134.909 120.933">
  <path id="Path_54422" data-name="Path 54422" d="M12184.119,1940.395a.646.646,0,0,0,.892-.209,1.988,1.988,0,0,1,1.913-.688.649.649,0,1,0,.193-1.283,3.222,3.222,0,0,0-3.207,1.287A.648.648,0,0,0,12184.119,1940.395Z" transform="translate(-12132.364 -1922.818)" fill="#d9cbb4"/>
  <path id="Path_54423" data-name="Path 54423" d="M12188.331,1964.715a.633.633,0,0,0-.2-.023,2.756,2.756,0,0,1-.446-.027,4.191,4.191,0,0,1-2.6-1.556.694.694,0,1,0-1.141.791,5.471,5.471,0,0,0,3.561,2.047,4.645,4.645,0,0,0,.713.063c.062,0,.1,0,.111,0a.647.647,0,0,0,0-1.292Z" transform="translate(-12132.359 -1939.489)" fill="#d9cbb4"/>
  <path id="Path_54424" data-name="Path 54424" d="M12187.69,1959.769a3.431,3.431,0,0,1-1.43-.8,1.121,1.121,0,0,0-.984-.37.854.854,0,0,0-.1.025,1.586,1.586,0,0,1-.086-.158,1.1,1.1,0,0,0-.583-.576,1.129,1.129,0,0,0-.5-.055,3.979,3.979,0,0,1-1.983-.382.649.649,0,0,0-.562,1.169,5.248,5.248,0,0,0,2.512.513c.468.871,1.017.921,1.4.805l.018-.006a4.738,4.738,0,0,0,1.955,1.08.637.637,0,0,0,.171.023.649.649,0,0,0,.169-1.275Z" transform="translate(-12130.53 -1935.804)" fill="#d9cbb4"/>
  <path id="Path_54425" data-name="Path 54425" d="M12189.635,1945.559a.646.646,0,0,0-.627.667l.025.951a.649.649,0,0,0,.648.63h.02a.648.648,0,0,0,.629-.667l-.027-.951A.638.638,0,0,0,12189.635,1945.559Z" transform="translate(-12135.876 -1927.806)" fill="#d9cbb4"/>
  <path id="Path_54426" data-name="Path 54426" d="M12397.768,2178.8a24.321,24.321,0,0,1,12.744,15.862.556.556,0,0,0,.537.411.574.574,0,0,0,.144-.019.555.555,0,0,0,.392-.68c-3.312-12.378-12.989-16.437-13.4-16.6a.555.555,0,1,0-.418,1.028Z" transform="translate(-12276.694 -2084.678)" fill="#d9cbb4"/>
  <path id="Path_54427" data-name="Path 54427" d="M12410.2,2201.451a.554.554,0,0,0-.127.774,36.369,36.369,0,0,1,6.177,17.137.553.553,0,0,0,.553.525h.031a.555.555,0,0,0,.524-.584,36.784,36.784,0,0,0-6.384-17.726A.555.555,0,0,0,12410.2,2201.451Z" transform="translate(-12285.17 -2100.635)" fill="#d9cbb4"/>
  <path id="Path_54428" data-name="Path 54428" d="M12389.241,2212.941a.554.554,0,0,0,.745-.246c.06-.122,6.061-12.369-2.614-23.809a.555.555,0,1,0-.885.671c8.248,10.876,2.566,22.523,2.508,22.64A.554.554,0,0,0,12389.241,2212.941Z" transform="translate(-12269.23 -2092.068)" fill="#d9cbb4"/>
  <path id="Path_54429" data-name="Path 54429" d="M12250.092,2133.1c-.017.019-.025.032,0,0Z" transform="translate(-12177.137 -2054.524)" fill="#d9cbb4"/>
  <path id="Path_54430" data-name="Path 54430" d="M12147.23,2104.172c.019.022.034.044.035.044C12147.205,2104.123,12147.21,2104.132,12147.23,2104.172Z" transform="translate(-12107.638 -2034.958)" fill="#d9cbb4"/>
  <path id="Path_54431" data-name="Path 54431" d="M12149.933,1986.533a.521.521,0,0,0,.135.213,1.143,1.143,0,0,0,.265.558,1.244,1.244,0,0,0,.979.4c1.381,0,3.438-1.466,4.657-2.55,1.974-1.757,3.631-4.171,2.607-5.322a1.2,1.2,0,0,0-.339-.257.376.376,0,0,0-.032-.022c-1.4-.793-4.2-.625-5.144-.542l-7.5-8.013,9.744-4.219a.472.472,0,0,0,.068-.035l.615-.373a1.789,1.789,0,0,0,.722-.353c2.245-1.837-.047-7.488-1.137-9.833-2.354-5.066-4.469-7.875-6.284-8.351a1.571,1.571,0,0,0-1.192.1l-.3.139-2.577,1.129c-.063-.07-.148-.17-.257-.3a10.475,10.475,0,0,0-.953-1.621c.014-.012.029-.023.041-.036a2.655,2.655,0,0,0,.457-3.391c-.594-.946-1.169-1.789-1.677-2.532a17.423,17.423,0,0,1-1.923-3.215,5.223,5.223,0,0,0-3.054-2.719,12.063,12.063,0,0,0-7.612-.384.884.884,0,0,0-.09-.054c-5.479-2.625-15.226-7.168-18.952-8.106-.7-.176-1.709-.44-2.9-.753-4.8-1.258-12.034-3.151-14.941-3.506a19.123,19.123,0,0,1-1.229-1.975l.808-.179a.586.586,0,0,0,.5.125c.067-.012.128-.027.193-.04a5.9,5.9,0,0,0,.676.044,4.9,4.9,0,0,0,1.543-.241,5.536,5.536,0,0,0,3.31-3.557,10.854,10.854,0,0,0,.514-3.519,2.807,2.807,0,0,0,.451-.75,2.289,2.289,0,0,0-.205-2.212,1.154,1.154,0,0,0-.681-.429,28.051,28.051,0,0,0-1.113-3.564c-.041-.1-.087-.21-.14-.316a1.5,1.5,0,0,0,.421-.562,2.044,2.044,0,0,0-.138-1.847c-.066-.1-.127-.2-.183-.292a3.9,3.9,0,0,0-1.093-1.281,3.554,3.554,0,0,1-.6-1.123c-.352-.844-.714-1.716-1.518-1.945a3.083,3.083,0,0,0-.983-.1c-1.251-1.345-4.763-3.944-6.831-3.026l-.052.023c-.412-.321-1.891-1.353-3.458-2.446-1.512-1.055-3.075-2.146-3.429-2.425a.515.515,0,0,0-.637,0,.558.558,0,0,0-.205.433.457.457,0,0,0,.038.212c-.627-.226-1.282-.433-1.985-.617a.515.515,0,1,0-.26,1,21.905,21.905,0,0,1,4.561,1.76.308.308,0,0,0,.019.059c-1.373-.4-2.953-.845-4.6-1.228a.515.515,0,1,0-.233,1c1.061.246,2.095.519,3.063.79a.58.58,0,0,0-.154.25,9.384,9.384,0,0,0-3.869-.153.515.515,0,0,0,.011,1.017.506.506,0,0,0,.166,0,8.325,8.325,0,0,1,2.646-.024,9.426,9.426,0,0,0-4.112,1.811.514.514,0,0,0-.09.723.5.5,0,0,0,.21.159c-.1.085-.191.178-.287.27a10.587,10.587,0,0,0-2.384.972.515.515,0,0,0,.5.9c.2-.111.4-.213.607-.309-.048.073-.1.141-.142.216a.515.515,0,0,0,.171.708.507.507,0,0,0,.191.07.513.513,0,0,0,.517-.241,8.531,8.531,0,0,1,.8-1.11,10.124,10.124,0,0,1,3.243.193,12.592,12.592,0,0,0-5.322,1.781.515.515,0,0,0,.508.9,13,13,0,0,1,3.752-1.492,1.388,1.388,0,0,0,.179.119c-.137.219-.3.483-.477.759a16.114,16.114,0,0,0-3.648,1.638.515.515,0,1,0,.556.868,13.542,13.542,0,0,1,2.211-1.1c-.452.72-.719,1.147-.832,1.335-.326.194-.648.4-.961.619a.515.515,0,1,0,.592.843q.508-.357,1.044-.665a1.244,1.244,0,0,0,.229-.126c.085-.047.172-.1.259-.142a.375.375,0,0,0,.04.081.99.99,0,0,0,.074.095,14.866,14.866,0,0,0-1.511,1.487.521.521,0,0,0-.091.15,14.878,14.878,0,0,0-2.075,1.375.515.515,0,0,0,.24.915.511.511,0,0,0,.395-.1,13.792,13.792,0,0,1,2.637-1.642.536.536,0,0,0,.106-.012c.046-.01.093-.018.14-.027a.513.513,0,0,0,.236.118l-.22.282a14.91,14.91,0,0,0-4.154,3.81.515.515,0,0,0,.106.721.522.522,0,0,0,.229.1.517.517,0,0,0,.492-.2,13.8,13.8,0,0,1,2.414-2.507c-.038.076-.079.151-.115.227a.49.49,0,0,0-.045.143c-.227.428-.438.864-.643,1.3q-.309.294-.619.622a15.393,15.393,0,0,1-1.472.633.515.515,0,0,0,.1.993h.007c-.161.211-.321.427-.48.652a.515.515,0,1,0,.839.6q.675-.949,1.342-1.716a24.07,24.07,0,0,1,2.295-.979c.265-.1.518-.2.767-.3a15.006,15.006,0,0,0-3.622,3.207.516.516,0,0,0,.058.726.506.506,0,0,0,.256.117.513.513,0,0,0,.47-.175,13.822,13.822,0,0,1,4.11-3.432,14.017,14.017,0,0,0-3.835,5.036.513.513,0,0,0,.255.683.529.529,0,0,0,.137.041.513.513,0,0,0,.545-.3,12.818,12.818,0,0,1,2.737-3.933.5.5,0,0,0,.094-.021,5.684,5.684,0,0,0,1.047-.455,1.2,1.2,0,0,1,.148.01,1.588,1.588,0,0,0-.067.267,1.635,1.635,0,0,0,.145.933,4.826,4.826,0,0,0-3.57,4.374,8.1,8.1,0,0,0,.539,3.922c-4.137,3.464-8.722,7.481-11.768,11.255l-.319.4c-1.677,2.068-3.409,4.207-3.917,6.869a55.294,55.294,0,0,0-.7,9.348c-3.057.164-5.464.392-8.028.765-.088.011-.175.025-.263.038l-.518.078a.638.638,0,0,0-.2.069,5.2,5.2,0,0,0-3.729,3c-.848,2.14-.065,5.24,3.372,7.568a.431.431,0,0,0-.031.174.446.446,0,0,0,.775.293q.454.264.96.511c.36.175.7.335,1.02.487a.217.217,0,0,0,0,.05.448.448,0,0,0,.768.3c.441.2.856.388,1.251.562l-.384.143a.447.447,0,0,0-.676.25c-.368.137-.726.272-1.069.4a.436.436,0,0,0,.1-.282.448.448,0,1,0-.521.443c-.877.339-1.651.655-2.271.941a.447.447,0,0,0-.89.067.452.452,0,0,0,.136.312l-.109.061a9.861,9.861,0,0,0-4.623,6.653,7.175,7.175,0,0,0,1.2,5.813.659.659,0,0,0,.209.171l1.343.7a.442.442,0,0,0,.656.339l.147.076a.765.765,0,0,0,.08.03,6.613,6.613,0,0,0,.492.448.447.447,0,1,0,.455.445.39.39,0,0,0-.017-.113,8.71,8.71,0,0,0,2.119,1.059.446.446,0,1,0,.648.4.433.433,0,0,0-.054-.206c.327.094.664.173,1.006.244a.447.447,0,0,0,.851.152c.372.056.749.1,1.132.135a.445.445,0,0,0,.564.043q.713.046,1.44.054a.453.453,0,0,0,.155.027.432.432,0,0,0,.139-.026c.5,0,.992-.01,1.488-.03a.439.439,0,0,0,.463-.021q.633-.032,1.259-.08a.443.443,0,0,0,.719-.059q.524-.046,1.039-.1a.445.445,0,0,0,.869-.092c.324-.035.645-.072.959-.108a.47.47,0,0,0,0,.075.448.448,0,0,0,.9-.01.476.476,0,0,0-.034-.164q.565-.066,1.094-.125a.439.439,0,0,0-.11.3.448.448,0,1,0,.715-.365l.306-.031a24.084,24.084,0,0,0,3.684-.712.446.446,0,0,0,.822-.225q.538-.155,1.073-.321a.447.447,0,1,0,.422-.132c.761-.24,1.518-.487,2.271-.729a.446.446,0,0,0,.832-.228.39.39,0,0,0-.014-.1,2.825,2.825,0,0,0,.709-.558q.706-.161,1.407-.3a.442.442,0,0,0,.242.068.449.449,0,0,0,.356-.187l.9-.173.137-.026a.447.447,0,0,0,.89-.063.457.457,0,0,0-.015-.1q.554-.107,1.114-.224a.446.446,0,0,0-.15.339.448.448,0,1,0,.583-.433c.658-.144,1.322-.3,1.988-.486a.644.644,0,0,0,.3-.182.442.442,0,0,0,.335.149.448.448,0,0,0,.438-.4.583.583,0,0,0,.062.006.641.641,0,0,0,.254-.053c.292.126.6.26.923.406.234.251.479.5.739.729a.446.446,0,0,0,.372.7.452.452,0,0,0,.31-.131c.971.771,2.042,1.457,3.034,2.129a.458.458,0,0,0-.107.3.448.448,0,0,0,.845.2q1.658,1.122,3.406,2.1a.442.442,0,0,0-.11-.016.447.447,0,1,0,.447.445.443.443,0,0,0-.131-.313c.412.227.831.446,1.249.662a.465.465,0,0,0,.156.082c.106.054.21.111.316.165.2.1.407.2.617.312a.445.445,0,1,0,.506.259c.735.378,1.52.778,2.328,1.15a.447.447,0,1,0,.6.417.479.479,0,0,0-.032-.164c.354.154.712.3,1.073.434a.439.439,0,0,0,.463.165,12.461,12.461,0,0,0,2.256.564.449.449,0,1,0,.633.067c.19.013.381.021.57.021a.564.564,0,0,0,.263.067h.008l.291,0a.448.448,0,1,0,.8-.011l1.059-.014a.444.444,0,0,0-.06.226.449.449,0,1,0,.832-.236l1.086-.014a.432.432,0,0,0-.071.25.448.448,0,1,0,.659-.4,5.5,5.5,0,0,0,.891-.551.406.406,0,0,0,.129-.1,8.771,8.771,0,0,0,2.73-4.21,10.984,10.984,0,0,0-.485-7.984.461.461,0,0,0,.124.018.447.447,0,1,0-.424-.609c-.086-.159-.175-.317-.271-.472-.051-.083-.108-.173-.168-.265a.446.446,0,1,0-.447-.641c-.168-.233-.356-.483-.56-.748l.022,0a.447.447,0,1,0-.441-.54c-.221-.278-.454-.567-.7-.867a.439.439,0,0,0,.234.065.452.452,0,0,0,.4-.267c.323-.1.663-.209,1.016-.327a.434.434,0,0,0-.027.155.448.448,0,0,0,.9-.01.443.443,0,0,0-.205-.373c.68-.242,1.391-.516,2.106-.821a.448.448,0,0,0,.851-.2.512.512,0,0,0-.033-.165,15.69,15.69,0,0,0,5.581-3.921,8.7,8.7,0,0,0,.861-1.288c1.018,7.567,7.758,12.1,7.841,12.15a.555.555,0,0,0,.488.06l6.782-2.377,11.384,8.052A10.508,10.508,0,0,0,12149.933,1986.533Zm3.794-3.9h0a10.6,10.6,0,0,1,2.778-1.852,2.734,2.734,0,0,1,1.01-.261.7.7,0,0,1,.163.017h0a.155.155,0,0,1,.068.031c.04.045.1.4-.354,1.209a10.664,10.664,0,0,1-2.162,2.545c-2.151,1.913-3.83,2.44-4.071,2.244C12150.968,1986.327,12151.572,1984.548,12153.727,1982.632Zm2.423-17.658-.02.012.022-.014Zm-7.475-16.077.041-.018a.885.885,0,0,1,.415.067c.833.3,2.647,1.706,5.438,7.706,2.218,4.77,2.283,7.382,1.623,8.3a.322.322,0,0,0-.037.017.75.75,0,0,1-.533-.067c-.929-.376-2.905-2.1-5.709-9.4C12147.845,1950.118,12148.568,1949.019,12148.675,1948.9Zm-70.45-51.145a1.259,1.259,0,0,0-.355.25,11.359,11.359,0,0,0-1.153.007,5.629,5.629,0,0,1,1.522-.469A.969.969,0,0,0,12078.225,1897.753Zm.587-1.3h0Zm51.144,49.2a.551.551,0,0,1,.72-.036.62.62,0,0,0,.194.115,5.72,5.72,0,0,0,1.071,5.015,1.707,1.707,0,0,1-1.134.231c-.5-.115-.933-.6-1.279-1.458C12128.7,1947.5,12129.331,1946.1,12129.955,1945.656Zm3.405,4.728a4.38,4.38,0,0,1-1.127-4.578,1.571,1.571,0,0,1,1.933-.717h0a3.313,3.313,0,0,0-.184,1.012,5.065,5.065,0,0,0,2.874,4.445A2.754,2.754,0,0,1,12133.36,1950.383Zm4.427-.826a3.888,3.888,0,0,1-2.507-3.414,1.929,1.929,0,0,1,1.353-1.811,10.786,10.786,0,0,0,2.68,2.758,5.788,5.788,0,0,0,.7.441c.068.1.139.19.207.276s.151.191.235.317a.646.646,0,0,0-.081.256,1.913,1.913,0,0,1-.725,1.346A2.089,2.089,0,0,1,12137.787,1949.557Zm-9.594-13.087a.649.649,0,0,0,.857.325,10.918,10.918,0,0,1,8.3-.218,4.04,4.04,0,0,1,2.338,1.975,18.211,18.211,0,0,0,2.069,3.493c.5.734,1.068,1.565,1.647,2.49a1.343,1.343,0,0,1-.239,1.751c-.562.522-1.706.77-3.087-.243a7.532,7.532,0,0,1-3.109-4.02.648.648,0,0,0-1.275.234,3.186,3.186,0,0,0,.12.44.66.66,0,0,0-.233.078,3.564,3.564,0,0,1-5.016-1.365.649.649,0,1,0-1.126.644,4.865,4.865,0,0,0,2.393,2.229,2.621,2.621,0,0,0-.348.326,1.831,1.831,0,0,0-2.284-.014,3.07,3.07,0,0,0-.95,1.168,3.1,3.1,0,0,1-1.663-2.654.645.645,0,0,0-.254-.689c-.653-.462-1.443-.989-2.3-1.547a8.309,8.309,0,0,1,3.007-5.976c.517.244,1.017.481,1.493.708l-.015.006A.649.649,0,0,0,12128.193,1936.471Zm-42.292-20.282,0-.034.01.006C12085.905,1916.17,12085.9,1916.179,12085.9,1916.189Zm-.991,5.438a9.248,9.248,0,0,1-1.17-1.755,6.373,6.373,0,0,1,1.072.019Zm4.431-1.773a.634.634,0,0,0,.392.2.61.61,0,0,0,.6.309,1.531,1.531,0,0,0,.221-.029,2.118,2.118,0,0,0,.347.1v0a.645.645,0,0,0-.016.6c.007.012.014.025.02.037l.01,2.061a13.391,13.391,0,0,1-4.719-1.264.549.549,0,0,0,.015-.166l-.292-5.176a.7.7,0,0,0,.455.348.652.652,0,0,0,.255.5.7.7,0,0,0,.321.56.612.612,0,0,0,.421.454,1.1,1.1,0,0,0,.348.314.572.572,0,0,0,.494.52,1.166,1.166,0,0,0,.313,0l.158.045C12088.673,1919.616,12088.977,1919.833,12089.341,1919.854Zm-4.327-7.849-.076.092a.867.867,0,0,0-.058.082,2.618,2.618,0,0,0-1.238.1.515.515,0,1,0,.4.949,2.08,2.08,0,0,1,1,.029.645.645,0,0,0,.251.41.68.68,0,0,0,.221.339c-.021.021-.04.041-.062.061a.616.616,0,0,0,.355,1.049,1.961,1.961,0,0,0-.16.23c-.01.018-.016.036-.024.053a.66.66,0,0,0-.459-.133,2.9,2.9,0,0,1-2.191-.792,1.764,1.764,0,0,1-.067-2.1A1.62,1.62,0,0,1,12085.014,1912.005Zm-3.293,2.947a.649.649,0,0,0-.469-.077,1.659,1.659,0,0,1-.512-.295.85.85,0,0,1-.349-.721.743.743,0,0,1,.2-.386,3,3,0,0,0,.961,1.152A2.564,2.564,0,0,0,12081.721,1914.952Zm.764,1.212c.179.021.355.042.526.068a.543.543,0,0,0,.077.006.512.512,0,0,0,.167-.03,4.427,4.427,0,0,0,1.368.343l.114,2.028a7.689,7.689,0,0,0-1.946.115,5.633,5.633,0,0,0-.342-2.533Zm-.031,4.029a10.617,10.617,0,0,0,2.421,3.266,8.625,8.625,0,0,0-2.42,3.243c-.487-1.52-1.073-3-1.574-4.267h0c.06-.05.123-.1.185-.154A5.273,5.273,0,0,0,12082.453,1920.193Zm9.546,5.039-.029-2.384c.291.434.625.908,1,1.417A3.423,3.423,0,0,0,12092,1925.232Zm3.442-6.152a3.252,3.252,0,0,1-.315.086,5.329,5.329,0,0,1-1.46-.376.851.851,0,0,0-.7-.326.693.693,0,0,0-.625-.252.963.963,0,0,0-.565-.119.693.693,0,0,0-.666-.29.673.673,0,0,0-.841-.619,2.351,2.351,0,0,1-.941-.773c.085-.417-.39-.721-.842-.645a.493.493,0,0,0-.228-.565.592.592,0,0,0-.2-.684.572.572,0,0,0-.152-.23.52.52,0,0,0-.066-.373.626.626,0,0,0-.152-.466c.028-.048.061-.093.09-.142a.616.616,0,0,0-.452-.907.6.6,0,0,0-.174-.2q.088-.137.173-.273a.539.539,0,0,0-.163-.761.583.583,0,0,0-.388-.436l.119-.195a.5.5,0,0,0-.071-.688.561.561,0,0,0-.123-.455.512.512,0,0,0-.009-.364,9.4,9.4,0,0,1,9.189-2.9c.026.006.05.009.076.014a.648.648,0,0,0,.365,1.184h.009c.01,0,.654.016.856.393a.615.615,0,0,0,.148.178c.22.663.435,1.4.6,2.058-.218.023-.446.046-.669.067l-.018-.653a.638.638,0,0,0-.668-.629.648.648,0,0,0-.629.667l.021.73-.141.011a.649.649,0,0,0,.1,1.293c.088-.007,2.043-.162,3.014-.3a1.1,1.1,0,0,1,.01.778c-.141.432-.634,1.193-2.355,1.427a.649.649,0,0,0,.086,1.292.706.706,0,0,0,.09-.006,5.851,5.851,0,0,0,1.568-.424,8.091,8.091,0,0,1-.406,2.121A4.268,4.268,0,0,1,12095.441,1919.079Zm-3.058-19.93c-.168.064-.329.131-.471.2-.21.095-.422.187-.633.28a10.84,10.84,0,0,0-3.685,2.251.648.648,0,1,0,.938.9,9.718,9.718,0,0,1,3.269-1.958c.214-.094.43-.189.645-.286a3.09,3.09,0,0,1,2.073-.365c.2.057.52.825.674,1.194a3.9,3.9,0,0,0,1.027,1.668,2.688,2.688,0,0,1,.758.915c.06.1.124.2.194.311a.737.737,0,0,1,.046.626c-.04.092-.08.1-.092.1a.668.668,0,0,0-.122.034,2.569,2.569,0,0,0-.579-.113,2.127,2.127,0,0,1-.257-.035,10.727,10.727,0,0,0-11.6,4.8l-.056.05a.593.593,0,0,0-.211.387c-.073.13-.147.262-.218.4a2.594,2.594,0,0,0-2.243,1.131,3.093,3.093,0,0,0-.331.624,6.14,6.14,0,0,1-.143-1.423,26.575,26.575,0,0,1,1.7-8.884c1.344-3.343,2.839-4.229,4.514-4.973C12088.571,1896.532,12090.927,1897.853,12092.384,1899.149Zm-15.146,19.965a3.531,3.531,0,0,1,2.573-3.209,7.437,7.437,0,0,0-.749,1.859,3.4,3.4,0,0,0-1.664,1.42.515.515,0,0,0,.885.528,2.352,2.352,0,0,1,.568-.647,7.082,7.082,0,0,0,.009,1.2.515.515,0,0,0,.513.466l.05,0a.517.517,0,0,0,.464-.562,6.3,6.3,0,0,1,.188-2.222l.186.45a.514.514,0,1,0,.952-.39l-.509-1.25a.54.54,0,0,0-.1-.153,5.845,5.845,0,0,1,.345-.577,4.38,4.38,0,0,1-.755,5.288,5.213,5.213,0,0,1-.867.6,6.048,6.048,0,0,0-1.4,1.042A6.474,6.474,0,0,1,12077.237,1919.114Zm-15.483,22.585c.446-2.342,2.074-4.351,3.649-6.294l.322-.4a88.121,88.121,0,0,1,11.391-10.907c.081.119.155.24.244.358a.648.648,0,0,0,.52.261h.026a.647.647,0,0,0,.522-.3,3.644,3.644,0,0,1,1.341-1.258,44.5,44.5,0,0,1,2.014,5.945.649.649,0,0,0,1.28-.136c.018-.935,1.675-4.206,2.791-4.572.082-.027.136-.045.232.065,2.328,4.937,1.829,10.8,1.347,16.477q-.078.927-.154,1.845a.65.65,0,0,0,.552.693.611.611,0,0,0,.1.008.648.648,0,0,0,.633-.508l.227-1.019c1.15-5.178,2.236-10.07,3.809-15.014a2.713,2.713,0,0,1,1.18-1.647c.476.5.111,2.577-.157,4.113a.648.648,0,1,0,1.277.224c.414-2.356.773-4.41-.286-5.334-.06-.081-.118-.158-.178-.237,3.372.617,9.6,2.249,13.538,3.279,1.2.314,2.212.579,2.912.756,2.71.682,8.806,3.379,13.979,5.784a7.782,7.782,0,0,0-2.886,5.688c-4.021-2.517-8.624-5.187-9.432-5.568a29.518,29.518,0,0,0-5.632-1.782c-1.91-.372-8.4-1.614-11.719-1.965a.661.661,0,0,0-.537.2.651.651,0,0,0-.173.545c.312,2.076,1.034,5.844,1.731,9.489s1.415,7.385,1.723,9.435a5.268,5.268,0,0,1,.066,1.827c-.38,1.764-2.7,2.487-3.679,2.716a32.243,32.243,0,0,1-15.719-.737c-3.05-.883-4.936-2.247-5.6-4.056-.374-1.008.2-2.386,1.148-4.669a63.887,63.887,0,0,0,4.253-14.068.659.659,0,0,0,0-.219c.376-.37.763-.749,1.164-1.142a.567.567,0,1,0-.793-.811,47.377,47.377,0,0,0-7.918,9.233,9.577,9.577,0,0,0-1.787,4.443,102.8,102.8,0,0,0,1.49,11.5,9.1,9.1,0,0,0-4.922.005,13.527,13.527,0,0,0-4.5,1.91A73.418,73.418,0,0,1,12061.754,1941.7Zm37.708,13.41a.448.448,0,0,0,.441-.437,167.893,167.893,0,0,1,17.489,1.423q.505.084.967.2a56.363,56.363,0,0,0-10.444,1l-.9.139-.015,0c-.021,0-.039.01-.057.014s-.046.012-.067.02l-.028.012c-9.042,1.008-22.408,2.535-22.554,2.551a.583.583,0,0,0-.167.048c-3.379-.874-7.579-1.958-11.8-3.043-.143-.626-.279-1.284-.409-1.96a.446.446,0,0,0-.146-.868h-.018c-.124-.672-.242-1.356-.355-2.039a.447.447,0,0,0,.819-.25v0c.233.008.447.019.676.036a7.464,7.464,0,0,0,1.229,1.111.434.434,0,0,0-.051.209.447.447,0,0,0,.789.279,12.812,12.812,0,0,0,2.023.959.425.425,0,0,0-.025.154.447.447,0,0,0,.869.139c.17.054.34.108.515.159,1.085.314,2.187.572,3.29.784a.434.434,0,0,0-.077.259.448.448,0,0,0,.9-.01.442.442,0,0,0-.014-.1c.323.055.646.108.969.154a.445.445,0,0,0,.86.108c.356.042.715.078,1.07.109a.443.443,0,0,0,.666.056c.44.03.88.051,1.316.065a.429.429,0,0,0,.426.008c.205,0,.409.011.612.011.275,0,.551,0,.824-.01a.442.442,0,0,0,.209.052.455.455,0,0,0,.23-.069c.431-.017.861-.041,1.284-.076a.443.443,0,0,0,.332.144.45.45,0,0,0,.373-.21c.348-.037.692-.082,1.032-.132a.447.447,0,0,0,.882-.108c0-.012,0-.024,0-.035q.521-.094,1.027-.208a.446.446,0,0,0-.074.253.448.448,0,0,0,.9-.01.445.445,0,0,0-.232-.388,8.231,8.231,0,0,0,2.175-.925c0,.015,0,.029,0,.044a.449.449,0,0,0,.9-.011.424.424,0,0,0-.021-.127l.927.039c0,.012,0,.024,0,.036A.451.451,0,0,0,12099.462,1955.109Zm-28.309,1.854c.272,1.246.556,2.375.847,3.282a.565.565,0,0,0,.348.357.641.641,0,0,0,.294.248,6.3,6.3,0,0,1,3.333,3.271,11.9,11.9,0,0,1,.622,2.32,11.473,11.473,0,0,0,.863,2.93c.157.319.341.62.517.911a5.835,5.835,0,0,1,.688,1.383c.157.557-.007,1.282-.493,1.43a2.187,2.187,0,0,1-1.073-.1,3.971,3.971,0,0,1-2.691-1.74.61.61,0,0,0-.152-.159l-.589-2.83a.649.649,0,0,0-1.271.264l1.17,5.622c.33,1.592.581,3.233-.244,4.342a2.044,2.044,0,0,1-1.847-.382,6.592,6.592,0,0,1-1.551-1.972l-2.854-4.746a.648.648,0,1,0-1.11.668l2.854,4.746a7.667,7.667,0,0,0,1.885,2.343c.044.033.092.063.137.094a.078.078,0,0,1-.006.013,1.506,1.506,0,0,1-.819,1,2.557,2.557,0,0,1-1.954-.208,5.537,5.537,0,0,1-2.111-2.346,36.784,36.784,0,0,1-2.479-5.142.649.649,0,1,0-1.209.47,38.053,38.053,0,0,0,2.565,5.324,9.087,9.087,0,0,0,1.521,2.048,1.975,1.975,0,0,1-1.546-.252,5.415,5.415,0,0,1-1.623-2c-.829-1.455-1.611-2.959-2.323-4.471a7.41,7.41,0,0,1-.7-1.945,7.636,7.636,0,0,1,.121-2.245l.428-2.792c.02-.126.039-.253.06-.381.007-.026.01-.051.015-.077.295-1.765.792-3.594,2.3-4.33a.649.649,0,0,0-.568-1.166,4.267,4.267,0,0,0-1.13.805c-.036-.643-.07-1.34-.106-2.081A20.6,20.6,0,0,1,12071.153,1956.964Zm.631-6.847a5.555,5.555,0,0,0,.352.765l-.234-.008c-.21-.006-.443-.013-.713-.024-.63-4.086-1.019-7.819-.986-8.349a8.627,8.627,0,0,1,1.609-3.9,38.125,38.125,0,0,1,4.992-6.281,62.537,62.537,0,0,1-3.853,12.179C12071.881,1947.076,12071.234,1948.631,12071.784,1950.117Zm6.89,9.729a.615.615,0,0,0,.071.157,8.928,8.928,0,0,1,.9,3.244,25.371,25.371,0,0,1-2.747-.4.642.642,0,0,0-.129-.019,7.158,7.158,0,0,0-.832-1.16.446.446,0,0,0,.277.008.476.476,0,0,0,.291-.223,3.061,3.061,0,0,0,.148-.4c.4.388.79.78,1.174,1.18.436.45,1.122-.236.688-.687-.25-.259-.5-.514-.758-.768l.011,0a.357.357,0,0,0,.033-.017l.009-.006c.017-.011.086-.062.1-.077l0,0c.008-.007.071-.091.075-.1s.049-.114.05-.117a.361.361,0,0,0,.018-.129l-.018-.13a1.6,1.6,0,0,0-.083-.161c-.021-.026-.041-.053-.041-.054a.372.372,0,0,0-.1-.077l-.117-.049a.864.864,0,0,0-.135-.018,1.053,1.053,0,0,0-.182.025c-.148.032-.293.077-.437.121q-.425-.409-.857-.808Zm-3.5-.2q.315.29.629.584a2.274,2.274,0,0,1-.009.282,2.173,2.173,0,0,1-.132.469.527.527,0,0,0-.044.334,7.635,7.635,0,0,0-.965-.815.428.428,0,0,0,.1-.113Zm1.993.343.006,0h0Zm-3.11-1.336c.126.109.25.221.375.331l-.516.915a.6.6,0,0,0-.037.11,7.452,7.452,0,0,0-.731-.357.64.64,0,0,0-.149-.041q-.186-.615-.368-1.326Zm-14.271-5.72c-.264-.077-.6-.175-.941-.273-.556-.161-1.126-.325-1.39-.408l-.008,0c.74-.055,1.512-.1,2.332-.149C12059.775,1952.381,12059.776,1952.659,12059.78,1952.935Zm.383,10.059.023.42s0,.005,0,.008a10.653,10.653,0,0,0-.535,1.814c-.507-.223-.973-.425-1.422-.616a13.32,13.32,0,0,1,1.717-5.84C12060.018,1960.394,12060.1,1961.84,12060.163,1962.995Zm19.751,8.32a6.961,6.961,0,0,0-.827-1.705c-.172-.28-.331-.543-.463-.812a10.283,10.283,0,0,1-.755-2.607,17.524,17.524,0,0,0-.461-1.924c.432.071.91.137,1.3.184a13.267,13.267,0,0,0,1.433.125c.375,0,.458-.069.578-.169.2-.167.428-.356.072-2.306a11.2,11.2,0,0,0-.483-1.834c2.337.6,4.464,1.153,6.2,1.6a11.038,11.038,0,0,0-4.456,6.247.692.692,0,0,0,.552.647,19.132,19.132,0,0,0,3.279.3,13.731,13.731,0,0,0,2.322-.195c-.131.16-.26.327-.379.5a13.214,13.214,0,0,0-1.233,2.306,9.1,9.1,0,0,0-3.118-.029.648.648,0,0,0-.53.652,8.978,8.978,0,0,0,.726,3.043c-.794-.311-1.577-.6-2.531-.959-.508-.189-1.063-.4-1.694-.634A2.717,2.717,0,0,0,12079.914,1971.315Zm25.31-12.5a.312.312,0,0,0,.013.042,11.527,11.527,0,0,1,.109,5.242l-.748-.846-.542-.612a.505.505,0,0,0,.243-.55,8.038,8.038,0,0,0-.347-1.322l.452.188a.483.483,0,0,0,.373-.049.49.49,0,0,0,.224-.291.5.5,0,0,0-.048-.375l-.077-.1a.48.48,0,0,0-.214-.125l-1.213-.506a.255.255,0,0,0-.077-.016c-.086-.151-.174-.3-.27-.445Zm-3.218.361a7.3,7.3,0,0,1,1.211,2.515c-.681-.772-1.187-1.357-1.42-1.651a2.827,2.827,0,0,0-.88-.742Zm-13.44,3.231.8.207a1.157,1.157,0,0,0,.136.1l-.626.093a.518.518,0,0,0,.075,1.03.471.471,0,0,0,.076-.006l.067-.01-.157.084a3.776,3.776,0,0,1-1.641.137.518.518,0,0,0-.256,1l-1.729,1.1a.518.518,0,0,0,.558.873l1.9-1.208a3.38,3.38,0,0,0-.084.592.517.517,0,0,0,.49.543h.027a.518.518,0,0,0,.517-.491,2.5,2.5,0,0,1,.673-1.573c.009-.01.016-.021.024-.032l.036-.011a.5.5,0,0,0,.21-.145c.2-.114.405-.242.618-.376a9.261,9.261,0,0,0-.185,1.176.518.518,0,0,0,.47.563l.047,0a.517.517,0,0,0,.516-.471,8.192,8.192,0,0,1,.387-1.832c.938.691.77,1.283-.08,2.12-.378.372-.771.708-1.163,1.039a12.806,12.806,0,0,1-6.744.691c.557-1.371,2.313-4.513,4.857-5.114A.642.642,0,0,0,12088.565,1962.4Zm-2.57,11.066a.517.517,0,0,0-.555.815c.106.136.222.267.338.394a6.753,6.753,0,0,0-.035.968l-.465-.024h-.026l-.019,0a8.642,8.642,0,0,1-.944-2.773,8.4,8.4,0,0,1,1.854.077C12086.089,1973.108,12086.04,1973.288,12086,1973.469Zm3.689-12.537a.927.927,0,0,0-.575.441l-1.99-.515,4.814-.547C12091.178,1960.505,12090.426,1960.716,12089.685,1960.932Zm18.77,9.673q-.5-.571-1.008-1.134c-1.964-2.195-3.967-4.356-5.942-6.54a16.225,16.225,0,0,0-2.835-2.892,2.429,2.429,0,0,1,2.238.7c.39.5,1.473,1.718,2.842,3.264,1.256,1.416,2.771,3.128,4.215,4.8a6.948,6.948,0,0,0,1.324,1.548.509.509,0,0,0,.033.041c-.451.112-.725.171-.74.174A.639.639,0,0,0,12108.454,1970.6Zm2.229-.579a2.623,2.623,0,0,1-.34-.181c-.581-.69-1.194-1.407-1.817-2.126-.108-.2-.207-.4-.3-.6a6.482,6.482,0,0,1,6.024-.37,6.59,6.59,0,0,1,.024,1.347q-.125-.147-.246-.3a2.681,2.681,0,0,1-.294-.482,1.482,1.482,0,0,1-.074-.228.49.49,0,0,0-.6-.34.5.5,0,0,0-.34.6,2.229,2.229,0,0,0,.28.663c-.12-.037-.241-.071-.363-.106a.4.4,0,0,0-.075-.094c-.026-.025-.049-.053-.073-.081a3.711,3.711,0,0,1-.361-.668,3.138,3.138,0,0,1-.123-.332.515.515,0,0,0-.225-.291.487.487,0,0,0-.715.549,4.55,4.55,0,0,0,.231.583c-.41-.087-.821-.165-1.232-.24a.5.5,0,0,0-.6.34.49.49,0,0,0,.34.6c.385.07.767.143,1.149.223a1.178,1.178,0,0,0-.424.342.484.484,0,0,0-.048.375.5.5,0,0,0,.222.291.456.456,0,0,0,.574-.075l0,0c.011-.006.019-.012.027-.018h0l0,0a1.641,1.641,0,0,1,.152-.076l.02-.008c.04-.016.081-.031.124-.045.078-.027.159-.053.239-.076a6.03,6.03,0,0,1,.854-.2.57.57,0,0,0,.109-.023c.193.06.385.123.576.188C12112.4,1969.516,12111.458,1969.805,12110.683,1970.026Zm.768-.693c-.069.032-.039.017,0,0Zm-.12.053-.036.026a.759.759,0,0,0,.083-.09Zm-3.926-2.955c-.43-.491-.856-.975-1.271-1.445a.236.236,0,0,0,.021-.032,12.03,12.03,0,0,0,.123-6.261l.516-.057.01.005.043.024a.623.623,0,0,0,.08.029l.038.012a.755.755,0,0,0,.082.012c.016,0,.031,0,.046.005l.016,0c2.434.031,4.2,1.882,5.038,2.981a11.077,11.077,0,0,1,1.873,3.822A7.451,7.451,0,0,0,12107.4,1966.431Zm-59.162-11.193c1.1-2.764,5.22-2.867,8.82-1.745.271.084.849.251,1.418.416.527.153,1.046.3,1.287.377a.322.322,0,0,0,.032.007c.016.809.039,1.6.063,2.375a13.67,13.67,0,0,0-2.895,7.416c-1.254-.534-2.516-1.083-4.289-1.945C12049.691,1960.688,12047.209,1957.852,12048.242,1955.238Zm-2.127,18.7a8.54,8.54,0,0,1,4-5.769,51.673,51.673,0,0,1,5.926-2.406l.257-.1a.484.484,0,0,0,.068.006.45.45,0,0,0,.328-.152l.181-.067.106.045q.516.219,1.062.453c-3.35,1.182-6.848,2.509-9.123,5.329a8.425,8.425,0,0,0-1.57,7.513l-.375-.2A5.952,5.952,0,0,1,12046.115,1973.938Zm33.421,3.863c-.615.117-1.24.237-1.869.366a9.977,9.977,0,0,0,.2-3.627c1.122.428,2.029.766,2.819,1.06,1.233.46,2.182.814,3.238,1.242C12082.452,1977.249,12080.97,1977.531,12079.536,1977.8Zm34.176,5.133a6.825,6.825,0,0,1-3.236,4.22l-.787.01c3.426-2.464,4.016-7.628,2.427-11.263a17.888,17.888,0,0,0-2.714-4.2c.225-.054.51-.124.845-.212a35.039,35.039,0,0,1,2.523,3.327A9.815,9.815,0,0,1,12113.712,1982.935Zm7.545-18.439a15.248,15.248,0,0,1-5.7,3.813,11.04,11.04,0,0,0-2.381-7.387,9.589,9.589,0,0,0-3-2.659c5.081-.753,10.938-1.367,12.172.86.032.071.065.143.093.217A5.324,5.324,0,0,1,12121.257,1964.5Zm5.634-7.4-3.285,1.607c-.006,0-.011.008-.018.01a.555.555,0,0,0-.048-.131c-.008-.015-.019-.029-.025-.044-.9-1.922-2.977-3.239-5.909-3.725a181.138,181.138,0,0,0-18.91-1.493,3.673,3.673,0,0,0,.575-1.306,6.337,6.337,0,0,0-.052-2.292c-.311-2.075-1.033-5.843-1.73-9.486-.609-3.18-1.237-6.455-1.589-8.6,3.427.439,9.018,1.509,10.764,1.849a28.458,28.458,0,0,1,5.326,1.682c1.093.514,9.289,5.32,13.313,8.112.387,2.583,1.821,3.447,2.579,3.727-.006.031-.007.065-.01.1a.546.546,0,0,0-.247.149C12124.249,1950.83,12126.113,1955.527,12126.891,1957.1Zm3.587-1.957a3.394,3.394,0,0,1-1.4-3.833,2.617,2.617,0,0,0,1.453.94,2.4,2.4,0,0,0,.526.058,3.492,3.492,0,0,0,1.856-.623,3.667,3.667,0,0,0,2.178.723,4.993,4.993,0,0,0,3.193-1.3s.008-.011.013-.016a3.551,3.551,0,0,0,.745.089,2.455,2.455,0,0,0,1.275-.336,2.49,2.49,0,0,0,.849-.855c.074.3.149.65.225,1.054Z" transform="translate(-12038.362 -1890.825)" fill="#d9cbb4"/>
  <path id="Path_54642" data-name="Path 54642" d="M12202.048,2182.271a.447.447,0,1,0,.444.445A.449.449,0,0,0,12202.048,2182.271Z" transform="translate(-12144.38 -2087.747)" fill="#d9cbb4"/>
  <path id="Path_54643" data-name="Path 54643" d="M12196.355,2182.271a.447.447,0,1,0,.447.445A.447.447,0,0,0,12196.355,2182.271Z" transform="translate(-12140.537 -2087.747)" fill="#d9cbb4"/>
  <path id="Path_54644" data-name="Path 54644" d="M12190.663,2182.271a.447.447,0,1,0,.447.445A.448.448,0,0,0,12190.663,2182.271Z" transform="translate(-12136.691 -2087.747)" fill="#d9cbb4"/>
  <path id="Path_54645" data-name="Path 54645" d="M12184.975,2182.271a.447.447,0,1,0,.446.445A.448.448,0,0,0,12184.975,2182.271Z" transform="translate(-12132.847 -2087.747)" fill="#d9cbb4"/>
  <path id="Path_54646" data-name="Path 54646" d="M12179.282,2182.271a.447.447,0,1,0,.446.445A.449.449,0,0,0,12179.282,2182.271Z" transform="translate(-12129 -2087.747)" fill="#d9cbb4"/>
  <path id="Path_54647" data-name="Path 54647" d="M12173.592,2182.271a.447.447,0,1,0,.447.445A.449.449,0,0,0,12173.592,2182.271Z" transform="translate(-12125.154 -2087.747)" fill="#d9cbb4"/>
  <path id="Path_54648" data-name="Path 54648" d="M12167.9,2182.271a.447.447,0,1,0,.447.445A.449.449,0,0,0,12167.9,2182.271Z" transform="translate(-12121.311 -2087.747)" fill="#d9cbb4"/>
  <path id="Path_54649" data-name="Path 54649" d="M12162.211,2182.271a.447.447,0,1,0,.446.445A.449.449,0,0,0,12162.211,2182.271Z" transform="translate(-12117.466 -2087.747)" fill="#d9cbb4"/>
  <path id="Path_54650" data-name="Path 54650" d="M12156.52,2182.271a.447.447,0,1,0,.446.445A.447.447,0,0,0,12156.52,2182.271Z" transform="translate(-12113.618 -2087.747)" fill="#d9cbb4"/>
  <path id="Path_54651" data-name="Path 54651" d="M12150.828,2182.271a.447.447,0,1,0,.447.445A.448.448,0,0,0,12150.828,2182.271Z" transform="translate(-12109.775 -2087.747)" fill="#d9cbb4"/>
  <path id="Path_54652" data-name="Path 54652" d="M12145.14,2182.271a.447.447,0,1,0,.447.445A.448.448,0,0,0,12145.14,2182.271Z" transform="translate(-12105.931 -2087.747)" fill="#d9cbb4"/>
  <path id="Path_54653" data-name="Path 54653" d="M12139.447,2182.271a.447.447,0,1,0,.447.445A.449.449,0,0,0,12139.447,2182.271Z" transform="translate(-12102.085 -2087.747)" fill="#d9cbb4"/>
  <path id="Path_54654" data-name="Path 54654" d="M12133.756,2182.271a.447.447,0,1,0,.448.445A.449.449,0,0,0,12133.756,2182.271Z" transform="translate(-12098.239 -2087.747)" fill="#d9cbb4"/>
  <path id="Path_54655" data-name="Path 54655" d="M12128.065,2182.271a.447.447,0,1,0,.447.445A.449.449,0,0,0,12128.065,2182.271Z" transform="translate(-12094.395 -2087.747)" fill="#d9cbb4"/>
  <path id="Path_54656" data-name="Path 54656" d="M12122.376,2182.271a.447.447,0,1,0,.447.445A.449.449,0,0,0,12122.376,2182.271Z" transform="translate(-12090.55 -2087.747)" fill="#d9cbb4"/>
  <path id="Path_54657" data-name="Path 54657" d="M12116.683,2182.271a.447.447,0,1,0,.447.445A.448.448,0,0,0,12116.683,2182.271Z" transform="translate(-12086.705 -2087.747)" fill="#d9cbb4"/>
  <path id="Path_54658" data-name="Path 54658" d="M12110.994,2182.271a.447.447,0,1,0,.446.445A.449.449,0,0,0,12110.994,2182.271Z" transform="translate(-12082.86 -2087.747)" fill="#d9cbb4"/>
  <path id="Path_54659" data-name="Path 54659" d="M12105.3,2182.271a.447.447,0,1,0,.445.445A.449.449,0,0,0,12105.3,2182.271Z" transform="translate(-12079.015 -2087.747)" fill="#d9cbb4"/>
  <path id="Path_54660" data-name="Path 54660" d="M12099.612,2182.271a.447.447,0,1,0,.447.445A.449.449,0,0,0,12099.612,2182.271Z" transform="translate(-12075.17 -2087.747)" fill="#d9cbb4"/>
  <path id="Path_54661" data-name="Path 54661" d="M12093.92,2182.271a.447.447,0,1,0,.447.445A.449.449,0,0,0,12093.92,2182.271Z" transform="translate(-12071.323 -2087.747)" fill="#d9cbb4"/>
  <path id="Path_54662" data-name="Path 54662" d="M12088.23,2182.271a.447.447,0,1,0,.447.445A.449.449,0,0,0,12088.23,2182.271Z" transform="translate(-12067.479 -2087.747)" fill="#d9cbb4"/>
  <path id="Path_54663" data-name="Path 54663" d="M12082.538,2182.271a.447.447,0,1,0,.007.894.447.447,0,0,0-.007-.894Z" transform="translate(-12063.633 -2087.747)" fill="#d9cbb4"/>
  <path id="Path_54664" data-name="Path 54664" d="M12076.85,2182.271a.447.447,0,1,0,.447.445A.449.449,0,0,0,12076.85,2182.271Z" transform="translate(-12059.789 -2087.747)" fill="#d9cbb4"/>
  <path id="Path_54665" data-name="Path 54665" d="M12071.159,2182.271a.447.447,0,1,0,.447.445A.447.447,0,0,0,12071.159,2182.271Z" transform="translate(-12055.945 -2087.747)" fill="#d9cbb4"/>
  <path id="Path_54666" data-name="Path 54666" d="M12065.468,2182.271a.447.447,0,1,0,.446.445A.448.448,0,0,0,12065.468,2182.271Z" transform="translate(-12052.098 -2087.747)" fill="#d9cbb4"/>
  <path id="Path_54667" data-name="Path 54667" d="M12059.777,2182.271a.447.447,0,1,0,.447.445A.449.449,0,0,0,12059.777,2182.271Z" transform="translate(-12048.255 -2087.747)" fill="#d9cbb4"/>
  <path id="Path_54668" data-name="Path 54668" d="M12054.085,2182.271a.447.447,0,1,0,.449.445A.448.448,0,0,0,12054.085,2182.271Z" transform="translate(-12044.409 -2087.747)" fill="#d9cbb4"/>
  <path id="Path_54669" data-name="Path 54669" d="M12256.163,2186.561a.447.447,0,1,0,.446.445A.447.447,0,0,0,12256.163,2186.561Z" transform="translate(-12180.946 -2090.645)" fill="#d9cbb4"/>
  <path id="Path_54670" data-name="Path 54670" d="M12210.638,2186.561a.447.447,0,1,0,.446.445A.449.449,0,0,0,12210.638,2186.561Z" transform="translate(-12150.186 -2090.645)" fill="#d9cbb4"/>
  <path id="Path_54671" data-name="Path 54671" d="M12204.947,2186.561a.447.447,0,1,0,.447.445A.447.447,0,0,0,12204.947,2186.561Z" transform="translate(-12146.342 -2090.645)" fill="#d9cbb4"/>
  <path id="Path_54672" data-name="Path 54672" d="M12199.256,2186.561a.447.447,0,1,0,.447.445A.449.449,0,0,0,12199.256,2186.561Z" transform="translate(-12142.494 -2090.645)" fill="#d9cbb4"/>
  <path id="Path_54673" data-name="Path 54673" d="M12193.565,2186.561a.447.447,0,1,0,.447.445A.447.447,0,0,0,12193.565,2186.561Z" transform="translate(-12138.651 -2090.645)" fill="#d9cbb4"/>
  <path id="Path_54674" data-name="Path 54674" d="M12187.874,2186.561a.447.447,0,1,0,.446.445A.449.449,0,0,0,12187.874,2186.561Z" transform="translate(-12134.806 -2090.645)" fill="#d9cbb4"/>
  <path id="Path_54675" data-name="Path 54675" d="M12182.184,2186.561a.447.447,0,1,0,.447.445A.451.451,0,0,0,12182.184,2186.561Z" transform="translate(-12130.96 -2090.645)" fill="#d9cbb4"/>
  <path id="Path_54676" data-name="Path 54676" d="M12176.492,2186.561a.447.447,0,1,0,.447.445A.449.449,0,0,0,12176.492,2186.561Z" transform="translate(-12127.114 -2090.645)" fill="#d9cbb4"/>
  <path id="Path_54677" data-name="Path 54677" d="M12170.8,2186.561a.447.447,0,1,0,.446.445A.448.448,0,0,0,12170.8,2186.561Z" transform="translate(-12123.271 -2090.645)" fill="#d9cbb4"/>
  <path id="Path_54678" data-name="Path 54678" d="M12165.112,2186.561a.447.447,0,1,0,.447.445A.449.449,0,0,0,12165.112,2186.561Z" transform="translate(-12119.426 -2090.645)" fill="#d9cbb4"/>
  <path id="Path_54679" data-name="Path 54679" d="M12159.42,2186.561a.447.447,0,1,0,.447.445A.446.446,0,0,0,12159.42,2186.561Z" transform="translate(-12115.581 -2090.645)" fill="#d9cbb4"/>
  <path id="Path_54680" data-name="Path 54680" d="M12153.731,2186.561a.447.447,0,1,0,.446.445A.45.45,0,0,0,12153.731,2186.561Z" transform="translate(-12111.734 -2090.645)" fill="#d9cbb4"/>
  <path id="Path_54681" data-name="Path 54681" d="M12148.039,2186.561a.447.447,0,1,0,.447.445A.448.448,0,0,0,12148.039,2186.561Z" transform="translate(-12107.892 -2090.645)" fill="#d9cbb4"/>
  <path id="Path_54682" data-name="Path 54682" d="M12142.35,2186.561a.447.447,0,1,0,.447.445A.449.449,0,0,0,12142.35,2186.561Z" transform="translate(-12104.046 -2090.645)" fill="#d9cbb4"/>
  <path id="Path_54683" data-name="Path 54683" d="M12136.657,2186.561a.447.447,0,1,0,.447.445A.449.449,0,0,0,12136.657,2186.561Z" transform="translate(-12100.199 -2090.645)" fill="#d9cbb4"/>
  <path id="Path_54684" data-name="Path 54684" d="M12130.968,2186.561a.447.447,0,1,0,.448.445A.449.449,0,0,0,12130.968,2186.561Z" transform="translate(-12096.356 -2090.645)" fill="#d9cbb4"/>
  <path id="Path_54685" data-name="Path 54685" d="M12125.274,2186.561a.447.447,0,1,0,.447.445A.448.448,0,0,0,12125.274,2186.561Z" transform="translate(-12092.51 -2090.645)" fill="#d9cbb4"/>
  <path id="Path_54686" data-name="Path 54686" d="M12119.586,2186.561a.447.447,0,1,0,.447.445A.448.448,0,0,0,12119.586,2186.561Z" transform="translate(-12088.666 -2090.645)" fill="#d9cbb4"/>
  <path id="Path_54687" data-name="Path 54687" d="M12113.895,2186.561a.447.447,0,1,0,.446.445A.449.449,0,0,0,12113.895,2186.561Z" transform="translate(-12084.82 -2090.645)" fill="#d9cbb4"/>
  <path id="Path_54688" data-name="Path 54688" d="M12108.2,2186.561a.447.447,0,1,0,.447.445A.449.449,0,0,0,12108.2,2186.561Z" transform="translate(-12080.976 -2090.645)" fill="#d9cbb4"/>
  <path id="Path_54689" data-name="Path 54689" d="M12102.514,2186.561a.447.447,0,1,0,.446.445A.449.449,0,0,0,12102.514,2186.561Z" transform="translate(-12077.128 -2090.645)" fill="#d9cbb4"/>
  <path id="Path_54690" data-name="Path 54690" d="M12096.822,2186.561a.447.447,0,1,0,.447.445A.447.447,0,0,0,12096.822,2186.561Z" transform="translate(-12073.286 -2090.645)" fill="#d9cbb4"/>
  <path id="Path_54691" data-name="Path 54691" d="M12091.133,2186.561a.447.447,0,1,0,.446.445A.449.449,0,0,0,12091.133,2186.561Z" transform="translate(-12069.439 -2090.645)" fill="#d9cbb4"/>
  <path id="Path_54692" data-name="Path 54692" d="M12085.441,2186.561a.447.447,0,1,0,.447.445A.449.449,0,0,0,12085.441,2186.561Z" transform="translate(-12065.595 -2090.645)" fill="#d9cbb4"/>
  <path id="Path_54693" data-name="Path 54693" d="M12079.75,2186.561a.447.447,0,1,0,.447.445A.45.45,0,0,0,12079.75,2186.561Z" transform="translate(-12061.748 -2090.645)" fill="#d9cbb4"/>
  <path id="Path_54694" data-name="Path 54694" d="M12258.954,2190.7a.448.448,0,1,0,.447.445A.448.448,0,0,0,12258.954,2190.7Z" transform="translate(-12182.833 -2093.44)" fill="#d9cbb4"/>
  <path id="Path_54695" data-name="Path 54695" d="M12258.954,2182.351a.447.447,0,1,0,.447.445A.448.448,0,0,0,12258.954,2182.351Z" transform="translate(-12182.833 -2087.801)" fill="#d9cbb4"/>
  <path id="Path_54696" data-name="Path 54696" d="M12253.264,2190.7a.448.448,0,1,0,.445.445A.451.451,0,0,0,12253.264,2190.7Z" transform="translate(-12178.984 -2093.44)" fill="#d9cbb4"/>
  <path id="Path_54697" data-name="Path 54697" d="M12224.81,2190.7a.448.448,0,1,0,.447.445A.449.449,0,0,0,12224.81,2190.7Z" transform="translate(-12159.761 -2093.44)" fill="#d9cbb4"/>
  <path id="Path_54698" data-name="Path 54698" d="M12219.12,2190.7a.448.448,0,1,0,.446.445A.449.449,0,0,0,12219.12,2190.7Z" transform="translate(-12155.917 -2093.44)" fill="#d9cbb4"/>
  <path id="Path_54699" data-name="Path 54699" d="M12213.428,2190.7a.448.448,0,1,0,.447.445A.449.449,0,0,0,12213.428,2190.7Z" transform="translate(-12152.071 -2093.44)" fill="#d9cbb4"/>
  <path id="Path_54700" data-name="Path 54700" d="M12207.736,2190.7a.448.448,0,1,0,.447.445A.448.448,0,0,0,12207.736,2190.7Z" transform="translate(-12148.228 -2093.44)" fill="#d9cbb4"/>
  <path id="Path_54701" data-name="Path 54701" d="M12202.048,2190.7a.448.448,0,1,0,.444.445A.45.45,0,0,0,12202.048,2190.7Z" transform="translate(-12144.38 -2093.44)" fill="#d9cbb4"/>
  <path id="Path_54702" data-name="Path 54702" d="M12196.355,2190.7a.448.448,0,1,0,.447.445A.448.448,0,0,0,12196.355,2190.7Z" transform="translate(-12140.537 -2093.44)" fill="#d9cbb4"/>
  <path id="Path_54703" data-name="Path 54703" d="M12190.663,2190.7a.448.448,0,1,0,.447.445A.448.448,0,0,0,12190.663,2190.7Z" transform="translate(-12136.691 -2093.44)" fill="#d9cbb4"/>
  <path id="Path_54704" data-name="Path 54704" d="M12184.975,2190.7a.448.448,0,1,0,.446.445A.448.448,0,0,0,12184.975,2190.7Z" transform="translate(-12132.847 -2093.44)" fill="#d9cbb4"/>
  <path id="Path_54705" data-name="Path 54705" d="M12179.282,2190.7a.448.448,0,1,0,.446.445A.45.45,0,0,0,12179.282,2190.7Z" transform="translate(-12129 -2093.44)" fill="#d9cbb4"/>
  <path id="Path_54706" data-name="Path 54706" d="M12173.592,2190.7a.448.448,0,1,0,.447.445A.45.45,0,0,0,12173.592,2190.7Z" transform="translate(-12125.154 -2093.44)" fill="#d9cbb4"/>
  <path id="Path_54707" data-name="Path 54707" d="M12167.9,2190.7a.448.448,0,1,0,.447.445A.449.449,0,0,0,12167.9,2190.7Z" transform="translate(-12121.311 -2093.44)" fill="#d9cbb4"/>
  <path id="Path_54708" data-name="Path 54708" d="M12162.211,2190.7a.448.448,0,1,0,.446.445A.449.449,0,0,0,12162.211,2190.7Z" transform="translate(-12117.466 -2093.44)" fill="#d9cbb4"/>
  <path id="Path_54709" data-name="Path 54709" d="M12156.52,2190.7a.448.448,0,1,0,.446.445A.452.452,0,0,0,12156.52,2190.7Z" transform="translate(-12113.618 -2093.44)" fill="#d9cbb4"/>
  <path id="Path_54710" data-name="Path 54710" d="M12150.828,2190.7a.448.448,0,1,0,.447.445A.448.448,0,0,0,12150.828,2190.7Z" transform="translate(-12109.775 -2093.44)" fill="#d9cbb4"/>
  <path id="Path_54711" data-name="Path 54711" d="M12145.14,2190.7a.448.448,0,1,0,.447.445A.448.448,0,0,0,12145.14,2190.7Z" transform="translate(-12105.931 -2093.44)" fill="#d9cbb4"/>
  <path id="Path_54712" data-name="Path 54712" d="M12139.447,2190.7a.448.448,0,1,0,.447.445A.45.45,0,0,0,12139.447,2190.7Z" transform="translate(-12102.085 -2093.44)" fill="#d9cbb4"/>
  <path id="Path_54713" data-name="Path 54713" d="M12133.756,2190.7a.448.448,0,1,0,.448.445A.45.45,0,0,0,12133.756,2190.7Z" transform="translate(-12098.239 -2093.44)" fill="#d9cbb4"/>
  <path id="Path_54714" data-name="Path 54714" d="M12128.065,2190.7a.448.448,0,1,0,.447.445A.449.449,0,0,0,12128.065,2190.7Z" transform="translate(-12094.395 -2093.44)" fill="#d9cbb4"/>
  <path id="Path_54715" data-name="Path 54715" d="M12256.163,2194.987a.447.447,0,1,0,.446.445A.447.447,0,0,0,12256.163,2194.987Z" transform="translate(-12180.946 -2096.339)" fill="#d9cbb4"/>
  <path id="Path_54716" data-name="Path 54716" d="M12250.474,2194.987a.447.447,0,1,0,.446.445A.45.45,0,0,0,12250.474,2194.987Z" transform="translate(-12177.102 -2096.339)" fill="#d9cbb4"/>
  <path id="Path_54717" data-name="Path 54717" d="M12262.1,2186.561a.447.447,0,1,0,.447.445A.45.45,0,0,0,12262.1,2186.561Z" transform="translate(-12184.956 -2090.645)" fill="#d9cbb4"/>
  <path id="Path_54718" data-name="Path 54718" d="M12264.889,2190.7a.448.448,0,1,0,.447.445A.449.449,0,0,0,12264.889,2190.7Z" transform="translate(-12186.842 -2093.44)" fill="#d9cbb4"/>
  <path id="Path_54719" data-name="Path 54719" d="M12244.782,2194.987a.447.447,0,1,0,.446.445A.449.449,0,0,0,12244.782,2194.987Z" transform="translate(-12173.258 -2096.339)" fill="#d9cbb4"/>
  <path id="Path_54720" data-name="Path 54720" d="M12239.092,2194.987a.447.447,0,1,0,.446.445A.45.45,0,0,0,12239.092,2194.987Z" transform="translate(-12169.411 -2096.339)" fill="#d9cbb4"/>
  <path id="Path_54721" data-name="Path 54721" d="M12233.4,2194.987a.447.447,0,1,0,.447.445A.449.449,0,0,0,12233.4,2194.987Z" transform="translate(-12165.565 -2096.339)" fill="#d9cbb4"/>
  <path id="Path_54722" data-name="Path 54722" d="M12227.712,2194.987a.447.447,0,1,0,.445.445A.45.45,0,0,0,12227.712,2194.987Z" transform="translate(-12161.721 -2096.339)" fill="#d9cbb4"/>
  <path id="Path_54723" data-name="Path 54723" d="M12222.02,2194.987a.447.447,0,1,0,.446.445A.449.449,0,0,0,12222.02,2194.987Z" transform="translate(-12157.877 -2096.339)" fill="#d9cbb4"/>
  <path id="Path_54724" data-name="Path 54724" d="M12216.328,2194.987a.447.447,0,1,0,.447.445A.45.45,0,0,0,12216.328,2194.987Z" transform="translate(-12154.03 -2096.339)" fill="#d9cbb4"/>
  <path id="Path_54725" data-name="Path 54725" d="M12210.638,2194.987a.447.447,0,1,0,.446.445A.449.449,0,0,0,12210.638,2194.987Z" transform="translate(-12150.186 -2096.339)" fill="#d9cbb4"/>
  <path id="Path_54726" data-name="Path 54726" d="M12204.947,2194.987a.447.447,0,1,0,.447.445A.447.447,0,0,0,12204.947,2194.987Z" transform="translate(-12146.342 -2096.339)" fill="#d9cbb4"/>
  <path id="Path_54727" data-name="Path 54727" d="M12199.256,2194.987a.447.447,0,1,0,.447.445A.449.449,0,0,0,12199.256,2194.987Z" transform="translate(-12142.494 -2096.339)" fill="#d9cbb4"/>
  <path id="Path_54728" data-name="Path 54728" d="M12193.565,2194.987a.447.447,0,1,0,.447.445A.447.447,0,0,0,12193.565,2194.987Z" transform="translate(-12138.651 -2096.339)" fill="#d9cbb4"/>
  <path id="Path_54729" data-name="Path 54729" d="M12187.874,2194.987a.447.447,0,1,0,.446.445A.45.45,0,0,0,12187.874,2194.987Z" transform="translate(-12134.806 -2096.339)" fill="#d9cbb4"/>
  <path id="Path_54730" data-name="Path 54730" d="M12190.663,2173.844a.448.448,0,1,0,.447.445A.448.448,0,0,0,12190.663,2173.844Z" transform="translate(-12136.691 -2082.053)" fill="#d9cbb4"/>
  <path id="Path_54731" data-name="Path 54731" d="M12184.975,2173.844a.448.448,0,1,0,.446.445A.448.448,0,0,0,12184.975,2173.844Z" transform="translate(-12132.847 -2082.053)" fill="#d9cbb4"/>
  <path id="Path_54732" data-name="Path 54732" d="M12179.282,2173.844a.448.448,0,1,0,.446.445A.45.45,0,0,0,12179.282,2173.844Z" transform="translate(-12129 -2082.053)" fill="#d9cbb4"/>
  <path id="Path_54733" data-name="Path 54733" d="M12173.592,2173.844a.448.448,0,1,0,.447.445A.45.45,0,0,0,12173.592,2173.844Z" transform="translate(-12125.154 -2082.053)" fill="#d9cbb4"/>
  <path id="Path_54734" data-name="Path 54734" d="M12167.9,2173.844a.448.448,0,1,0,.447.445A.449.449,0,0,0,12167.9,2173.844Z" transform="translate(-12121.311 -2082.053)" fill="#d9cbb4"/>
  <path id="Path_54735" data-name="Path 54735" d="M12162.211,2173.844a.448.448,0,1,0,.446.445A.449.449,0,0,0,12162.211,2173.844Z" transform="translate(-12117.466 -2082.053)" fill="#d9cbb4"/>
  <path id="Path_54736" data-name="Path 54736" d="M12156.52,2173.844a.448.448,0,1,0,.446.445A.452.452,0,0,0,12156.52,2173.844Z" transform="translate(-12113.618 -2082.053)" fill="#d9cbb4"/>
  <path id="Path_54737" data-name="Path 54737" d="M12150.828,2173.844a.448.448,0,1,0,.447.445A.448.448,0,0,0,12150.828,2173.844Z" transform="translate(-12109.775 -2082.053)" fill="#d9cbb4"/>
  <path id="Path_54738" data-name="Path 54738" d="M12145.14,2173.844a.448.448,0,1,0,.447.445A.448.448,0,0,0,12145.14,2173.844Z" transform="translate(-12105.931 -2082.053)" fill="#d9cbb4"/>
  <path id="Path_54739" data-name="Path 54739" d="M12139.447,2173.844a.448.448,0,1,0,.447.445A.45.45,0,0,0,12139.447,2173.844Z" transform="translate(-12102.085 -2082.053)" fill="#d9cbb4"/>
  <path id="Path_54740" data-name="Path 54740" d="M12133.756,2173.844a.448.448,0,1,0,.448.445A.45.45,0,0,0,12133.756,2173.844Z" transform="translate(-12098.239 -2082.053)" fill="#d9cbb4"/>
  <path id="Path_54741" data-name="Path 54741" d="M12128.065,2173.844a.448.448,0,1,0,.447.445A.449.449,0,0,0,12128.065,2173.844Z" transform="translate(-12094.395 -2082.053)" fill="#d9cbb4"/>
  <path id="Path_54742" data-name="Path 54742" d="M12122.376,2173.844a.448.448,0,1,0,.447.445A.45.45,0,0,0,12122.376,2173.844Z" transform="translate(-12090.55 -2082.053)" fill="#d9cbb4"/>
  <path id="Path_54743" data-name="Path 54743" d="M12116.683,2173.844a.448.448,0,1,0,.447.445A.448.448,0,0,0,12116.683,2173.844Z" transform="translate(-12086.705 -2082.053)" fill="#d9cbb4"/>
  <path id="Path_54744" data-name="Path 54744" d="M12059.777,2173.844a.448.448,0,1,0,.447.445A.449.449,0,0,0,12059.777,2173.844Z" transform="translate(-12048.255 -2082.053)" fill="#d9cbb4"/>
  <path id="Path_54745" data-name="Path 54745" d="M12054.085,2173.844a.448.448,0,1,0,.449.445A.448.448,0,0,0,12054.085,2173.844Z" transform="translate(-12044.409 -2082.053)" fill="#d9cbb4"/>
  <path id="Path_54746" data-name="Path 54746" d="M12048.4,2173.844a.448.448,0,1,0,.446.445A.449.449,0,0,0,12048.4,2173.844Z" transform="translate(-12040.564 -2082.053)" fill="#d9cbb4"/>
  <path id="Path_54747" data-name="Path 54747" d="M12042.7,2173.844a.448.448,0,1,0,.446.445A.449.449,0,0,0,12042.7,2173.844Z" transform="translate(-12036.718 -2082.053)" fill="#d9cbb4"/>
  <path id="Path_54748" data-name="Path 54748" d="M12037.014,2173.844a.448.448,0,1,0,.447.445A.447.447,0,0,0,12037.014,2173.844Z" transform="translate(-12032.874 -2082.053)" fill="#d9cbb4"/>
  <path id="Path_54749" data-name="Path 54749" d="M12193.565,2178.134a.448.448,0,1,0,.447.445A.448.448,0,0,0,12193.565,2178.134Z" transform="translate(-12138.651 -2084.951)" fill="#d9cbb4"/>
  <path id="Path_54750" data-name="Path 54750" d="M12187.874,2178.134a.448.448,0,1,0,.446.445A.45.45,0,0,0,12187.874,2178.134Z" transform="translate(-12134.806 -2084.951)" fill="#d9cbb4"/>
  <path id="Path_54751" data-name="Path 54751" d="M12182.184,2178.134a.448.448,0,1,0,.447.445A.451.451,0,0,0,12182.184,2178.134Z" transform="translate(-12130.96 -2084.951)" fill="#d9cbb4"/>
  <path id="Path_54752" data-name="Path 54752" d="M12176.492,2178.134a.448.448,0,1,0,.447.445A.45.45,0,0,0,12176.492,2178.134Z" transform="translate(-12127.114 -2084.951)" fill="#d9cbb4"/>
  <path id="Path_54753" data-name="Path 54753" d="M12170.8,2178.134a.448.448,0,1,0,.446.445A.449.449,0,0,0,12170.8,2178.134Z" transform="translate(-12123.271 -2084.951)" fill="#d9cbb4"/>
  <path id="Path_54754" data-name="Path 54754" d="M12165.112,2178.134a.448.448,0,1,0,.447.445A.45.45,0,0,0,12165.112,2178.134Z" transform="translate(-12119.426 -2084.951)" fill="#d9cbb4"/>
  <path id="Path_54755" data-name="Path 54755" d="M12159.42,2178.134a.448.448,0,1,0,.447.445A.447.447,0,0,0,12159.42,2178.134Z" transform="translate(-12115.581 -2084.951)" fill="#d9cbb4"/>
  <path id="Path_54756" data-name="Path 54756" d="M12153.731,2178.134a.448.448,0,1,0,.446.445A.451.451,0,0,0,12153.731,2178.134Z" transform="translate(-12111.734 -2084.951)" fill="#d9cbb4"/>
  <path id="Path_54757" data-name="Path 54757" d="M12148.039,2178.134a.448.448,0,1,0,.447.445A.449.449,0,0,0,12148.039,2178.134Z" transform="translate(-12107.892 -2084.951)" fill="#d9cbb4"/>
  <path id="Path_54758" data-name="Path 54758" d="M12142.35,2178.134a.448.448,0,1,0,.447.445A.45.45,0,0,0,12142.35,2178.134Z" transform="translate(-12104.046 -2084.951)" fill="#d9cbb4"/>
  <path id="Path_54759" data-name="Path 54759" d="M12136.657,2178.134a.448.448,0,1,0,.447.445A.45.45,0,0,0,12136.657,2178.134Z" transform="translate(-12100.199 -2084.951)" fill="#d9cbb4"/>
  <path id="Path_54760" data-name="Path 54760" d="M12130.968,2178.134a.448.448,0,1,0,.448.445A.449.449,0,0,0,12130.968,2178.134Z" transform="translate(-12096.356 -2084.951)" fill="#d9cbb4"/>
  <path id="Path_54761" data-name="Path 54761" d="M12125.274,2178.134a.448.448,0,1,0,.447.445A.449.449,0,0,0,12125.274,2178.134Z" transform="translate(-12092.51 -2084.951)" fill="#d9cbb4"/>
  <path id="Path_54762" data-name="Path 54762" d="M12119.586,2178.134a.448.448,0,1,0,.447.445A.449.449,0,0,0,12119.586,2178.134Z" transform="translate(-12088.666 -2084.951)" fill="#d9cbb4"/>
  <path id="Path_54763" data-name="Path 54763" d="M12113.895,2178.134a.448.448,0,1,0,.446.445A.449.449,0,0,0,12113.895,2178.134Z" transform="translate(-12084.82 -2084.951)" fill="#d9cbb4"/>
  <path id="Path_54764" data-name="Path 54764" d="M12108.2,2178.134a.448.448,0,1,0,.447.445A.449.449,0,0,0,12108.2,2178.134Z" transform="translate(-12080.976 -2084.951)" fill="#d9cbb4"/>
  <path id="Path_54765" data-name="Path 54765" d="M12102.514,2178.134a.448.448,0,1,0,.446.445A.45.45,0,0,0,12102.514,2178.134Z" transform="translate(-12077.128 -2084.951)" fill="#d9cbb4"/>
  <path id="Path_54766" data-name="Path 54766" d="M12096.822,2178.134a.448.448,0,1,0,.447.445A.448.448,0,0,0,12096.822,2178.134Z" transform="translate(-12073.286 -2084.951)" fill="#d9cbb4"/>
  <path id="Path_54767" data-name="Path 54767" d="M12091.133,2178.134a.448.448,0,1,0,.446.445A.45.45,0,0,0,12091.133,2178.134Z" transform="translate(-12069.439 -2084.951)" fill="#d9cbb4"/>
  <path id="Path_54768" data-name="Path 54768" d="M12085.441,2178.134a.448.448,0,1,0,.447.445A.45.45,0,0,0,12085.441,2178.134Z" transform="translate(-12065.595 -2084.951)" fill="#d9cbb4"/>
  <path id="Path_54769" data-name="Path 54769" d="M12079.75,2178.134a.448.448,0,1,0,.447.445A.45.45,0,0,0,12079.75,2178.134Z" transform="translate(-12061.748 -2084.951)" fill="#d9cbb4"/>
  <path id="Path_54770" data-name="Path 54770" d="M12074.06,2178.134a.448.448,0,1,0,.447.445A.449.449,0,0,0,12074.06,2178.134Z" transform="translate(-12057.903 -2084.951)" fill="#d9cbb4"/>
  <path id="Path_54771" data-name="Path 54771" d="M12068.369,2178.134a.448.448,0,1,0,.447.445A.451.451,0,0,0,12068.369,2178.134Z" transform="translate(-12054.059 -2084.951)" fill="#d9cbb4"/>
  <path id="Path_54772" data-name="Path 54772" d="M12062.678,2178.134a.448.448,0,1,0,.445.445A.447.447,0,0,0,12062.678,2178.134Z" transform="translate(-12050.214 -2084.951)" fill="#d9cbb4"/>
  <path id="Path_54773" data-name="Path 54773" d="M12056.988,2178.134a.448.448,0,1,0,.446.445A.449.449,0,0,0,12056.988,2178.134Z" transform="translate(-12046.37 -2084.951)" fill="#d9cbb4"/>
  <path id="Path_54774" data-name="Path 54774" d="M12051.3,2178.134a.448.448,0,1,0,.446.445A.45.45,0,0,0,12051.3,2178.134Z" transform="translate(-12042.522 -2084.951)" fill="#d9cbb4"/>
  <path id="Path_54775" data-name="Path 54775" d="M12045.605,2178.134a.448.448,0,1,0,.447.445A.447.447,0,0,0,12045.605,2178.134Z" transform="translate(-12038.68 -2084.951)" fill="#d9cbb4"/>
  <path id="Path_54776" data-name="Path 54776" d="M12039.914,2178.134a.448.448,0,1,0,.447.445A.448.448,0,0,0,12039.914,2178.134Z" transform="translate(-12034.834 -2084.951)" fill="#d9cbb4"/>
  <path id="Path_54777" data-name="Path 54777" d="M12170.8,2161.282a.447.447,0,1,0,.446.445A.449.449,0,0,0,12170.8,2161.282Z" transform="translate(-12123.271 -2073.565)" fill="#d9cbb4"/>
  <path id="Path_54778" data-name="Path 54778" d="M12165.112,2161.282a.447.447,0,1,0,.447.445A.45.45,0,0,0,12165.112,2161.282Z" transform="translate(-12119.426 -2073.565)" fill="#d9cbb4"/>
  <path id="Path_54779" data-name="Path 54779" d="M12179.282,2165.418a.447.447,0,1,0,.446.446A.45.45,0,0,0,12179.282,2165.418Z" transform="translate(-12129 -2076.36)" fill="#d9cbb4"/>
  <path id="Path_54780" data-name="Path 54780" d="M12173.592,2165.418a.447.447,0,1,0,.447.446A.45.45,0,0,0,12173.592,2165.418Z" transform="translate(-12125.154 -2076.36)" fill="#d9cbb4"/>
  <path id="Path_54781" data-name="Path 54781" d="M12167.9,2165.418a.447.447,0,1,0,.447.446A.449.449,0,0,0,12167.9,2165.418Z" transform="translate(-12121.311 -2076.36)" fill="#d9cbb4"/>
  <path id="Path_54782" data-name="Path 54782" d="M12162.211,2165.418a.447.447,0,1,0,.446.446A.449.449,0,0,0,12162.211,2165.418Z" transform="translate(-12117.466 -2076.36)" fill="#d9cbb4"/>
  <path id="Path_54783" data-name="Path 54783" d="M12156.52,2165.418a.447.447,0,1,0,.446.446A.447.447,0,0,0,12156.52,2165.418Z" transform="translate(-12113.618 -2076.36)" fill="#d9cbb4"/>
  <path id="Path_54784" data-name="Path 54784" d="M12150.828,2165.418a.447.447,0,1,0,.447.446A.448.448,0,0,0,12150.828,2165.418Z" transform="translate(-12109.775 -2076.36)" fill="#d9cbb4"/>
  <path id="Path_54785" data-name="Path 54785" d="M12145.14,2165.418a.447.447,0,1,0,.447.446A.448.448,0,0,0,12145.14,2165.418Z" transform="translate(-12105.931 -2076.36)" fill="#d9cbb4"/>
  <path id="Path_54786" data-name="Path 54786" d="M12048.4,2165.418a.447.447,0,1,0,.446.446A.449.449,0,0,0,12048.4,2165.418Z" transform="translate(-12040.564 -2076.36)" fill="#d9cbb4"/>
  <path id="Path_54787" data-name="Path 54787" d="M12182.184,2169.708a.447.447,0,1,0,.447.446A.451.451,0,0,0,12182.184,2169.708Z" transform="translate(-12130.96 -2079.259)" fill="#d9cbb4"/>
  <path id="Path_54788" data-name="Path 54788" d="M12176.492,2169.708a.447.447,0,1,0,.447.446A.449.449,0,0,0,12176.492,2169.708Z" transform="translate(-12127.114 -2079.259)" fill="#d9cbb4"/>
  <path id="Path_54789" data-name="Path 54789" d="M12170.8,2169.708a.447.447,0,1,0,.446.446A.448.448,0,0,0,12170.8,2169.708Z" transform="translate(-12123.271 -2079.259)" fill="#d9cbb4"/>
  <path id="Path_54790" data-name="Path 54790" d="M12165.112,2169.708a.447.447,0,1,0,.447.446A.45.45,0,0,0,12165.112,2169.708Z" transform="translate(-12119.426 -2079.259)" fill="#d9cbb4"/>
  <path id="Path_54791" data-name="Path 54791" d="M12159.42,2169.708a.447.447,0,1,0,.447.446A.446.446,0,0,0,12159.42,2169.708Z" transform="translate(-12115.581 -2079.259)" fill="#d9cbb4"/>
  <path id="Path_54792" data-name="Path 54792" d="M12153.731,2169.708a.447.447,0,1,0,.446.446A.45.45,0,0,0,12153.731,2169.708Z" transform="translate(-12111.734 -2079.259)" fill="#d9cbb4"/>
  <path id="Path_54793" data-name="Path 54793" d="M12148.039,2169.708a.447.447,0,1,0,.447.446A.448.448,0,0,0,12148.039,2169.708Z" transform="translate(-12107.892 -2079.259)" fill="#d9cbb4"/>
  <path id="Path_54794" data-name="Path 54794" d="M12142.35,2169.708a.447.447,0,1,0,.447.446A.449.449,0,0,0,12142.35,2169.708Z" transform="translate(-12104.046 -2079.259)" fill="#d9cbb4"/>
  <path id="Path_54795" data-name="Path 54795" d="M12136.657,2169.708a.447.447,0,1,0,.447.446A.449.449,0,0,0,12136.657,2169.708Z" transform="translate(-12100.199 -2079.259)" fill="#d9cbb4"/>
  <path id="Path_54796" data-name="Path 54796" d="M12051.3,2169.708a.447.447,0,1,0,.446.446A.449.449,0,0,0,12051.3,2169.708Z" transform="translate(-12042.522 -2079.259)" fill="#d9cbb4"/>
  <path id="Path_54797" data-name="Path 54797" d="M12045.605,2169.708a.447.447,0,1,0,.447.446A.446.446,0,0,0,12045.605,2169.708Z" transform="translate(-12038.68 -2079.259)" fill="#d9cbb4"/>
  <path id="Path_54798" data-name="Path 54798" d="M12039.914,2169.708a.447.447,0,1,0,.447.446A.447.447,0,0,0,12039.914,2169.708Z" transform="translate(-12034.834 -2079.259)" fill="#d9cbb4"/>
  <path id="Path_54799" data-name="Path 54799" d="M12270.154,2148.565a.447.447,0,1,0,.447.445A.447.447,0,0,0,12270.154,2148.565Z" transform="translate(-12190.4 -2064.972)" fill="#d9cbb4"/>
  <path id="Path_54800" data-name="Path 54800" d="M12264.909,2149.01a.448.448,0,1,0-.442.449A.447.447,0,0,0,12264.909,2149.01Z" transform="translate(-12186.554 -2064.972)" fill="#d9cbb4"/>
  <path id="Path_54801" data-name="Path 54801" d="M12270.154,2131.713a.447.447,0,1,0,.447.445A.447.447,0,0,0,12270.154,2131.713Z" transform="translate(-12190.4 -2053.586)" fill="#d9cbb4"/>
  <path id="Path_54802" data-name="Path 54802" d="M12048.4,2132.607a.447.447,0,1,0-.452-.439A.449.449,0,0,0,12048.4,2132.607Z" transform="translate(-12040.564 -2053.586)" fill="#d9cbb4"/>
  <path id="Path_54803" data-name="Path 54803" d="M12042.708,2132.607a.447.447,0,1,0-.453-.439A.448.448,0,0,0,12042.708,2132.607Z" transform="translate(-12036.718 -2053.586)" fill="#d9cbb4"/>
  <path id="Path_54804" data-name="Path 54804" d="M12037.014,2131.713a.447.447,0,1,0,.447.445A.447.447,0,0,0,12037.014,2131.713Z" transform="translate(-12032.874 -2053.586)" fill="#d9cbb4"/>
  <path id="Path_54805" data-name="Path 54805" d="M12278.746,2136a.447.447,0,1,0,.447.446A.448.448,0,0,0,12278.746,2136Z" transform="translate(-12196.205 -2056.485)" fill="#d9cbb4"/>
  <path id="Path_54806" data-name="Path 54806" d="M12273.055,2136a.447.447,0,1,0,.447.446A.448.448,0,0,0,12273.055,2136Z" transform="translate(-12192.36 -2056.485)" fill="#d9cbb4"/>
  <path id="Path_54807" data-name="Path 54807" d="M12267.365,2136a.447.447,0,1,0,.446.446A.449.449,0,0,0,12267.365,2136Z" transform="translate(-12188.516 -2056.485)" fill="#d9cbb4"/>
  <path id="Path_54808" data-name="Path 54808" d="M12261.677,2136.9a.447.447,0,1,0-.453-.439A.449.449,0,0,0,12261.677,2136.9Z" transform="translate(-12184.669 -2056.485)" fill="#d9cbb4"/>
  <path id="Path_54809" data-name="Path 54809" d="M12045.609,2136.9a.447.447,0,1,0-.451-.439A.449.449,0,0,0,12045.609,2136.9Z" transform="translate(-12038.68 -2056.485)" fill="#d9cbb4"/>
  <path id="Path_54810" data-name="Path 54810" d="M12281.535,2140.139a.447.447,0,1,0,.447.445A.448.448,0,0,0,12281.535,2140.139Z" transform="translate(-12198.089 -2059.279)" fill="#d9cbb4"/>
  <path id="Path_54811" data-name="Path 54811" d="M12275.846,2140.139a.447.447,0,1,0,.444.445A.448.448,0,0,0,12275.846,2140.139Z" transform="translate(-12194.244 -2059.279)" fill="#d9cbb4"/>
  <path id="Path_54812" data-name="Path 54812" d="M12270.154,2140.139a.447.447,0,1,0,.447.445A.447.447,0,0,0,12270.154,2140.139Z" transform="translate(-12190.4 -2059.279)" fill="#d9cbb4"/>
  <path id="Path_54813" data-name="Path 54813" d="M12264.467,2141.033a.447.447,0,1,0-.454-.439A.447.447,0,0,0,12264.467,2141.033Z" transform="translate(-12186.554 -2059.279)" fill="#d9cbb4"/>
  <path id="Path_54814" data-name="Path 54814" d="M12258.324,2140.595a.447.447,0,1,0,.449-.456A.449.449,0,0,0,12258.324,2140.595Z" transform="translate(-12182.71 -2059.279)" fill="#d9cbb4"/>
  <path id="Path_54815" data-name="Path 54815" d="M12278.746,2144.429a.447.447,0,1,0,.447.445A.448.448,0,0,0,12278.746,2144.429Z" transform="translate(-12196.205 -2062.178)" fill="#d9cbb4"/>
  <path id="Path_54816" data-name="Path 54816" d="M12273.055,2144.429a.447.447,0,1,0,.447.445A.448.448,0,0,0,12273.055,2144.429Z" transform="translate(-12192.36 -2062.178)" fill="#d9cbb4"/>
  <path id="Path_54817" data-name="Path 54817" d="M12267.365,2144.429a.447.447,0,1,0,.446.445A.449.449,0,0,0,12267.365,2144.429Z" transform="translate(-12188.516 -2062.178)" fill="#d9cbb4"/>
  <path id="Path_54818" data-name="Path 54818" d="M12261.677,2145.324a.447.447,0,1,0-.453-.439A.449.449,0,0,0,12261.677,2145.324Z" transform="translate(-12184.669 -2062.178)" fill="#d9cbb4"/>
  <path id="Path_54819" data-name="Path 54819" d="M12054.092,2124.182a.447.447,0,1,0-.454-.439A.45.45,0,0,0,12054.092,2124.182Z" transform="translate(-12044.409 -2047.893)" fill="#d9cbb4"/>
  <path id="Path_54820" data-name="Path 54820" d="M12048.4,2124.182a.447.447,0,1,0-.452-.439A.449.449,0,0,0,12048.4,2124.182Z" transform="translate(-12040.564 -2047.893)" fill="#d9cbb4"/>
  <path id="Path_54821" data-name="Path 54821" d="M12042.708,2124.182a.447.447,0,1,0-.453-.439A.448.448,0,0,0,12042.708,2124.182Z" transform="translate(-12036.718 -2047.893)" fill="#d9cbb4"/>
  <path id="Path_54822" data-name="Path 54822" d="M12037.014,2123.287a.447.447,0,1,0,.447.445A.447.447,0,0,0,12037.014,2123.287Z" transform="translate(-12032.874 -2047.893)" fill="#d9cbb4"/>
  <path id="Path_54823" data-name="Path 54823" d="M12031.324,2123.287a.447.447,0,1,0,.445.445A.449.449,0,0,0,12031.324,2123.287Z" transform="translate(-12029.028 -2047.893)" fill="#d9cbb4"/>
  <path id="Path_54824" data-name="Path 54824" d="M12025.633,2123.287a.447.447,0,1,0,.446.445A.448.448,0,0,0,12025.633,2123.287Z" transform="translate(-12025.184 -2047.893)" fill="#d9cbb4"/>
  <path id="Path_54825" data-name="Path 54825" d="M12051.3,2128.471a.447.447,0,1,0-.453-.439A.448.448,0,0,0,12051.3,2128.471Z" transform="translate(-12042.522 -2050.792)" fill="#d9cbb4"/>
  <path id="Path_54826" data-name="Path 54826" d="M12045.609,2128.471a.447.447,0,1,0-.451-.439A.449.449,0,0,0,12045.609,2128.471Z" transform="translate(-12038.68 -2050.792)" fill="#d9cbb4"/>
  <path id="Path_54827" data-name="Path 54827" d="M12039.914,2127.577a.447.447,0,1,0,.447.445A.448.448,0,0,0,12039.914,2127.577Z" transform="translate(-12034.834 -2050.792)" fill="#d9cbb4"/>
  <path id="Path_54828" data-name="Path 54828" d="M12034.224,2127.577a.447.447,0,1,0,.446.445A.449.449,0,0,0,12034.224,2127.577Z" transform="translate(-12030.989 -2050.792)" fill="#d9cbb4"/>
  <path id="Path_54829" data-name="Path 54829" d="M12028.531,2127.577a.447.447,0,1,0,.446.445A.448.448,0,0,0,12028.531,2127.577Z" transform="translate(-12027.143 -2050.792)" fill="#d9cbb4"/>
  <path id="Path_54830" data-name="Path 54830" d="M12056.991,2111.314a.447.447,0,1,0-.452-.439A.449.449,0,0,0,12056.991,2111.314Z" transform="translate(-12046.37 -2039.198)" fill="#d9cbb4"/>
  <path id="Path_54831" data-name="Path 54831" d="M12051.3,2111.314a.447.447,0,1,0-.453-.439A.448.448,0,0,0,12051.3,2111.314Z" transform="translate(-12042.522 -2039.198)" fill="#d9cbb4"/>
  <path id="Path_54832" data-name="Path 54832" d="M12065.914,2115a.448.448,0,1,0-.441.45A.448.448,0,0,0,12065.914,2115Z" transform="translate(-12052.098 -2041.993)" fill="#d9cbb4"/>
  <path id="Path_54833" data-name="Path 54833" d="M12059.779,2115.45a.448.448,0,1,0-.451-.439A.451.451,0,0,0,12059.779,2115.45Z" transform="translate(-12048.255 -2041.993)" fill="#d9cbb4"/>
  <path id="Path_54834" data-name="Path 54834" d="M12054.092,2115.45a.448.448,0,1,0-.454-.439A.45.45,0,0,0,12054.092,2115.45Z" transform="translate(-12044.409 -2041.993)" fill="#d9cbb4"/>
  <path id="Path_54835" data-name="Path 54835" d="M12048.4,2115.45a.448.448,0,1,0-.452-.439A.449.449,0,0,0,12048.4,2115.45Z" transform="translate(-12040.564 -2041.993)" fill="#d9cbb4"/>
  <path id="Path_54836" data-name="Path 54836" d="M12042.708,2115.45a.448.448,0,1,0-.453-.439A.448.448,0,0,0,12042.708,2115.45Z" transform="translate(-12036.718 -2041.993)" fill="#d9cbb4"/>
  <path id="Path_54837" data-name="Path 54837" d="M12063.123,2119.29a.447.447,0,1,0-.441.449A.447.447,0,0,0,12063.123,2119.29Z" transform="translate(-12050.214 -2044.892)" fill="#d9cbb4"/>
  <path id="Path_54838" data-name="Path 54838" d="M12056.991,2119.74a.447.447,0,1,0-.452-.438A.449.449,0,0,0,12056.991,2119.74Z" transform="translate(-12046.37 -2044.892)" fill="#d9cbb4"/>
  <path id="Path_54839" data-name="Path 54839" d="M12051.3,2119.74a.447.447,0,1,0-.453-.438A.448.448,0,0,0,12051.3,2119.74Z" transform="translate(-12042.522 -2044.892)" fill="#d9cbb4"/>
  <path id="Path_54840" data-name="Path 54840" d="M12045.609,2119.74a.447.447,0,1,0-.451-.438A.449.449,0,0,0,12045.609,2119.74Z" transform="translate(-12038.68 -2044.892)" fill="#d9cbb4"/>
  <path id="Path_54841" data-name="Path 54841" d="M12039.914,2118.845a.447.447,0,1,0,.447.445A.448.448,0,0,0,12039.914,2118.845Z" transform="translate(-12034.834 -2044.892)" fill="#d9cbb4"/>
  <path id="Path_54842" data-name="Path 54842" d="M12034.224,2118.845a.447.447,0,1,0,.446.445A.449.449,0,0,0,12034.224,2118.845Z" transform="translate(-12030.989 -2044.892)" fill="#d9cbb4"/>
  <path id="Path_54843" data-name="Path 54843" d="M12028.531,2118.845a.447.447,0,1,0,.446.445A.448.448,0,0,0,12028.531,2118.845Z" transform="translate(-12027.143 -2044.892)" fill="#d9cbb4"/>
  <path id="Path_54844" data-name="Path 54844" d="M12181.269,2098.836a.447.447,0,1,0,.445.445A.449.449,0,0,0,12181.269,2098.836Z" transform="translate(-12130.342 -2031.372)" fill="#d9cbb4"/>
  <path id="Path_54845" data-name="Path 54845" d="M12175.577,2098.836a.447.447,0,1,0,.446.445A.449.449,0,0,0,12175.577,2098.836Z" transform="translate(-12126.497 -2031.372)" fill="#d9cbb4"/>
  <path id="Path_54846" data-name="Path 54846" d="M12169.886,2098.836a.447.447,0,1,0,.447.445A.448.448,0,0,0,12169.886,2098.836Z" transform="translate(-12122.652 -2031.372)" fill="#d9cbb4"/>
  <path id="Path_54847" data-name="Path 54847" d="M12164.2,2098.836a.447.447,0,1,0,.445.445A.45.45,0,0,0,12164.2,2098.836Z" transform="translate(-12118.805 -2031.372)" fill="#d9cbb4"/>
  <path id="Path_54848" data-name="Path 54848" d="M12130.051,2081.984a.447.447,0,1,0,.446.445A.448.448,0,0,0,12130.051,2081.984Z" transform="translate(-12095.736 -2019.986)" fill="#d9cbb4"/>
  <path id="Path_54849" data-name="Path 54849" d="M12138.643,2086.274a.447.447,0,1,0,.446.445A.45.45,0,0,0,12138.643,2086.274Z" transform="translate(-12101.541 -2022.884)" fill="#d9cbb4"/>
  <path id="Path_54850" data-name="Path 54850" d="M12132.951,2086.274a.447.447,0,1,0,.447.445A.448.448,0,0,0,12132.951,2086.274Z" transform="translate(-12097.696 -2022.884)" fill="#d9cbb4"/>
  <path id="Path_54851" data-name="Path 54851" d="M12209.72,2090.41a.447.447,0,1,0,.449.445A.448.448,0,0,0,12209.72,2090.41Z" transform="translate(-12149.567 -2025.679)" fill="#d9cbb4"/>
  <path id="Path_54852" data-name="Path 54852" d="M12204.032,2090.41a.447.447,0,1,0,.446.445A.449.449,0,0,0,12204.032,2090.41Z" transform="translate(-12145.723 -2025.679)" fill="#d9cbb4"/>
  <path id="Path_54853" data-name="Path 54853" d="M12152.813,2090.41a.447.447,0,1,0,.447.445A.449.449,0,0,0,12152.813,2090.41Z" transform="translate(-12111.115 -2025.679)" fill="#d9cbb4"/>
  <path id="Path_54854" data-name="Path 54854" d="M12147.123,2090.41a.447.447,0,1,0,.445.445A.449.449,0,0,0,12147.123,2090.41Z" transform="translate(-12107.271 -2025.679)" fill="#d9cbb4"/>
  <path id="Path_54855" data-name="Path 54855" d="M12141.432,2090.41a.447.447,0,1,0,.447.445A.452.452,0,0,0,12141.432,2090.41Z" transform="translate(-12103.424 -2025.679)" fill="#d9cbb4"/>
  <path id="Path_54856" data-name="Path 54856" d="M12135.74,2090.41a.447.447,0,1,0,.447.445A.449.449,0,0,0,12135.74,2090.41Z" transform="translate(-12099.579 -2025.679)" fill="#d9cbb4"/>
  <path id="Path_54857" data-name="Path 54857" d="M12201.24,2094.7a.447.447,0,1,0,.447.445A.447.447,0,0,0,12201.24,2094.7Z" transform="translate(-12143.837 -2028.578)" fill="#d9cbb4"/>
  <path id="Path_54858" data-name="Path 54858" d="M12195.549,2094.7a.447.447,0,1,0,.447.445A.449.449,0,0,0,12195.549,2094.7Z" transform="translate(-12139.99 -2028.578)" fill="#d9cbb4"/>
  <path id="Path_54859" data-name="Path 54859" d="M12189.859,2094.7a.447.447,0,1,0,.446.445A.448.448,0,0,0,12189.859,2094.7Z" transform="translate(-12136.146 -2028.578)" fill="#d9cbb4"/>
  <path id="Path_54860" data-name="Path 54860" d="M12184.166,2094.7a.447.447,0,1,0,.448.445A.449.449,0,0,0,12184.166,2094.7Z" transform="translate(-12132.3 -2028.578)" fill="#d9cbb4"/>
  <path id="Path_54861" data-name="Path 54861" d="M12178.478,2094.7a.447.447,0,1,0,.446.445A.45.45,0,0,0,12178.478,2094.7Z" transform="translate(-12128.455 -2028.578)" fill="#d9cbb4"/>
  <path id="Path_54862" data-name="Path 54862" d="M12172.786,2094.7a.447.447,0,1,0,.446.445A.449.449,0,0,0,12172.786,2094.7Z" transform="translate(-12124.61 -2028.578)" fill="#d9cbb4"/>
  <path id="Path_54863" data-name="Path 54863" d="M12167.1,2094.7a.447.447,0,1,0,.447.445A.451.451,0,0,0,12167.1,2094.7Z" transform="translate(-12120.766 -2028.578)" fill="#d9cbb4"/>
  <path id="Path_54864" data-name="Path 54864" d="M12161.405,2094.7a.447.447,0,1,0,.446.445A.45.45,0,0,0,12161.405,2094.7Z" transform="translate(-12116.92 -2028.578)" fill="#d9cbb4"/>
  <path id="Path_54865" data-name="Path 54865" d="M12155.715,2094.7a.447.447,0,1,0,.446.445A.449.449,0,0,0,12155.715,2094.7Z" transform="translate(-12113.076 -2028.578)" fill="#d9cbb4"/>
  <path id="Path_54866" data-name="Path 54866" d="M12150.024,2094.7a.447.447,0,1,0,.447.445A.45.45,0,0,0,12150.024,2094.7Z" transform="translate(-12109.23 -2028.578)" fill="#d9cbb4"/>
</svg>
