<svg xmlns="http://www.w3.org/2000/svg" width="129.926" height="137.001" viewBox="0 0 129.926 137.001">
  <g id="char1" transform="translate(0)">
    <path id="Path_55206" data-name="Path 55206" d="M8053.726,2469.34a.462.462,0,0,1,.839-.389,3.3,3.3,0,0,1-.611,3.676.462.462,0,0,1-.637-.67A2.378,2.378,0,0,0,8053.726,2469.34Z" transform="translate(-8035.92 -2391.62)" fill="#d9cbb4"/>
    <path id="Path_55207" data-name="Path 55207" d="M8066.418,2463.815a.329.329,0,0,0-.09.044,2.336,2.336,0,0,0,.306.779,4.33,4.33,0,0,1,.415,1,.462.462,0,0,1-.349.553.472.472,0,0,1-.1.011.462.462,0,0,1-.45-.36,3.741,3.741,0,0,0-.335-.78l-.04-.08a2.987,2.987,0,0,1-.184.462.369.369,0,1,1-.662-.327,1.044,1.044,0,0,0,.142-.859.584.584,0,0,0-.394-.251.369.369,0,0,1,.1-.732,1.423,1.423,0,0,1,.678.3c.006-.017.007-.034.014-.051a1.008,1.008,0,0,1,.625-.576,2.645,2.645,0,0,1,3.145.834.462.462,0,0,1-.756.531A1.7,1.7,0,0,0,8066.418,2463.815Z" transform="translate(-8052.944 -2387.055)" fill="#d9cbb4"/>
    <path id="Path_55208" data-name="Path 55208" d="M8072.328,2480.237a2.2,2.2,0,0,1,1.074,2.939.462.462,0,1,1-.875-.3c.435-1.291-.377-1.715-.546-1.787a.462.462,0,0,1,.348-.856Z" transform="translate(-8058.9 -2400.479)" fill="#d9cbb4"/>
    <path id="Path_55209" data-name="Path 55209" d="M7573.607,2222.48a2.424,2.424,0,0,1,0-3.289c-.4-1.215.831-2.153,1.588-2.9-.063-.921.562-2.086,1.622-1.87a.692.692,0,0,1,.443-.146c.5-.714,1.338-1.813,2.3-1.268a.832.832,0,0,1,1.13-.438c.105-.111.217-.219.333-.326a4.826,4.826,0,0,1,2.091-1.472q.27-.1.552-.2a1.653,1.653,0,0,1,.055-.839,1.4,1.4,0,0,1,.7-.828,3.393,3.393,0,0,1,2.84-.305,1.418,1.418,0,0,1,.657.594c1.936-.405,3.865-.321,5.25,1.18a.429.429,0,0,1,.062-.031l.369-.141a1.044,1.044,0,0,1-.017-.589c.183-.687,1-1.137,2.806-2a1.853,1.853,0,0,1,.6-.173,3.631,3.631,0,0,1,.4-1.119c-1.124-5.6-2.079-9.756-2.853-13.12-.8-3.468-1.427-6.206-1.85-8.849-1.352-8.458,1.035-10.739,1.95-11.289-.012-.206-.037-.469-.065-.742-.151-1.513-.34-3.4.9-3.6l.093-.014-.159-6.389a6.392,6.392,0,0,1,4.346-7.232l.012,0-.7-3.738h-.021a1.149,1.149,0,0,1-1.146-1.081l-.032-.534a1.15,1.15,0,0,1,1.08-1.215l4.889-.288a65.713,65.713,0,0,0,.537-7.161c-.133-.714-.346-.838-1.458-1.372-1.084-.521-5.973-2.263-6.021-2.281a.467.467,0,0,1-.275-.263.46.46,0,0,1,.018-.38l.661-1.314a.462.462,0,0,1,.583-.222c.037.015,3.734,1.482,6.173,2.411a4.2,4.2,0,0,1,2.78,3.767c0,.015,0,.031,0,.046-.206,2.175-.516,5.544-.592,6.628l4.253-.25a1.149,1.149,0,0,1,1.214,1.079l.031.534a1.141,1.141,0,0,1-1.037,1.208l-1.426,16.585a.46.46,0,0,1-.249.372,10.117,10.117,0,0,1-4.152,1.015,5.7,5.7,0,0,1-2.5-.536.462.462,0,0,1-.253-.331l-.176-.949a4.606,4.606,0,0,1-.583.052,8.662,8.662,0,0,0-.182.988c-.035.233-.071.468-.112.688.029,0,.063.006.089.01a1.039,1.039,0,0,1,.7.434c.6.815.458,2.734.333,3.734.022.019.138.117.313.291,2.345,1.2,4.1,5.37,3.269,11.114a89.794,89.794,0,0,0-.906,16.224c3.874-2.857,11.342-7.624,14.368-4.454.1.11.208.225.31.343a10.929,10.929,0,0,1,3.646.031c.461-2.587,2.679-14.715,4.576-19.755l.1-.274c1.358-3.615,2.643-7.029,7.9-8.445,5.536-1.491,15.343-.656,30.864,2.625a.461.461,0,0,1,.358.372,22.466,22.466,0,0,1,.242,2.679l1.672.271a1.5,1.5,0,0,1,1.462-1.165,1.782,1.782,0,0,1,1.49,1.413c.793.151,1.645.293,4.6.656a.453.453,0,0,1,.21.084,5.91,5.91,0,0,1,1.49-1.9q.283-.276.569-.538c.813-.741,1.649-1.463,2.5-2.172l.208-.191c1.084-1,2.309-2.121,3.637-3.214a1.27,1.27,0,0,1,.49-.4c3.857-3.084,8.528-5.742,13.2-4.246l2.259.438a.362.362,0,0,1,.044.011,2.263,2.263,0,0,1,1.355,1.305c1.4,3.064-.493,10.424-2.842,15.966a120.38,120.38,0,0,1-10.551,19.028.373.373,0,0,1-.306.159.381.381,0,0,1-.07-.007l-2.267-.439a36.6,36.6,0,0,1-10.126-3.488.579.579,0,0,1-.511-.3c-.764-.485-1.242-.936-1.285-1.3a.583.583,0,0,1,.118-.425c-3.066-.778-6.627-1.47-6.666-1.477h0a2.82,2.82,0,0,1-1.177.946,1.476,1.476,0,0,1-.5.088,1.536,1.536,0,0,1-.9-.307,1.341,1.341,0,0,1-.431-1.858.409.409,0,0,1-.053-.008l-2.743-.869q-.475.5-1.008.961a.462.462,0,0,1-.537.05,76.579,76.579,0,0,0-8.988-4.365,30.27,30.27,0,0,0-10.455-2.585.339.339,0,0,1-.051.054,25.094,25.094,0,0,0-3.675,4.309,48.382,48.382,0,0,0-6.559,13.887.537.537,0,0,1-.038.08c9.247,1.656,20.6,4.6,24.968,7.169,5.346,3.144,8.494,11.686,13.935,29.087a.472.472,0,0,1-.193.535,13.226,13.226,0,0,1-2.217,1.082c.148.756.45,2.174.692,2.926a1.383,1.383,0,0,1,1.421.933,1.806,1.806,0,0,1-.855,1.916c.1.728.239,1.724.616,3.679a3.427,3.427,0,0,1,.441.108,8.967,8.967,0,0,1,2.659.731c.33.128.669.26,1.017.378a37.509,37.509,0,0,1,9.449,5.038c2.405,1.776,5.361,4.469,5.786,7.222a4.247,4.247,0,0,1,.048.5.473.473,0,0,1,.171.224c.313.868.547,3-.124,3.977-1.062,1.546-3.342,3.7-10.867,4.549a49.014,49.014,0,0,1-5.228.228c-7.62,0-18.133-.986-20.464-1.806a.473.473,0,0,1-.31-.369l-.347-2.135a.468.468,0,0,1,.046-.286,70.658,70.658,0,0,1-1.027-7.671c-.065-.861-.1-1.566-.106-2.144-.011-.023-.023-.045-.033-.068a.7.7,0,0,1,.036-.7c.044-1.7.354-1.869.529-1.964a.558.558,0,0,1,.633.084c-.211-3.172-.706-6.987-.726-7.138a2.679,2.679,0,0,1-1.253-.76,1.447,1.447,0,0,1-.242-1.394,1.351,1.351,0,0,1,1.522-1.039l-.567-3.582c-1.2-.169-2.452-.389-3.764-.675a.47.47,0,0,1-.371-.466c0-.134.1-13.485-2.583-20.036-.931-2.273-8.293-8.54-14.729-9.406a3.981,3.981,0,0,1-2.285,1.812,6.4,6.4,0,0,1-4.435-.542,4,4,0,0,1-.271.429c-1.137,1.535-3.046,1.345-5.466,1.1a24.471,24.471,0,0,0-6.751.027c-.787.131-1.737.34-2.714.576a104.662,104.662,0,0,1,5.041,13.221c4.355,13.17-.263,18.011-3.576,19.749-.037.238-.066.57-.1.915-.134,1.485-.316,3.475-1.5,3.649a.468.468,0,0,1-.048.126,1.764,1.764,0,0,0-.046,1.623,3.978,3.978,0,0,0,.312.493c.1.146.208.3.3.464a5.984,5.984,0,0,1,.6,2.665,7,7,0,0,0,.29,1.869,6.017,6.017,0,0,0,.672,1.168c.6.888,1.337,1.993.521,2.915a2.32,2.32,0,0,1-1.774.871,2.271,2.271,0,0,1-.393-.035,4.024,4.024,0,0,1-2.046-1.2,9.909,9.909,0,0,1-1.4,3.531,7.248,7.248,0,0,1-3.536,3.5,3.114,3.114,0,0,1-1.021.176,2.192,2.192,0,0,1-1.254-.36,2.381,2.381,0,0,1-1.292.375,2.31,2.31,0,0,1-1.239-.35,2.393,2.393,0,0,1-1.073-2.04,1.064,1.064,0,0,1-.209.022l-.063,0a2.094,2.094,0,0,1-1.518-1.139,2.5,2.5,0,0,1,.328-2.635,6.968,6.968,0,0,1,1.362-1.309c.128-.1.257-.205.382-.31,3.482-2.9,4.909-7.709,6.044-11.61-.06-.021-.12-.042-.175-.063a1.189,1.189,0,0,1-.667-.654c-.508-1.152.276-3.564.614-4.493-.093-.134-.2-.3-.324-.5-2.817-3.571-1.869-6.6-.866-9.8.139-.442.279-.893.413-1.353l0,0,.525-2.106c.966-5.086.688-14.1.071-16.394l-.466-.355a16.533,16.533,0,0,1-1.85.921,2.406,2.406,0,0,1-.919.231,1.09,1.09,0,0,1-.886-.424.469.469,0,0,1-.163.1l-.887.318a7.332,7.332,0,0,1-.239,1.574,6.125,6.125,0,0,1-.464,1.219,1.636,1.636,0,0,1,1.6,1.472c1.531.652.727,2.479.288,3.588a1.392,1.392,0,0,1-.268,2.413,5.458,5.458,0,0,1-.983,2.729,1.918,1.918,0,0,1-1.211,1.467,1.864,1.864,0,0,1-1.905,1.129c-.405.761-1.336,1.492-2.216.984a4.734,4.734,0,0,1-3.127,1.054,2.01,2.01,0,0,1-3.181.314,1.418,1.418,0,0,1-2.031-.686,1.881,1.881,0,0,1-.978-.957,2.011,2.011,0,0,1-2.14-2.045,2.45,2.45,0,0,1-.507-.472,2.174,2.174,0,0,1-2.109-1.654,2.371,2.371,0,0,1-1.864-2.616C7573.066,2224.441,7573.433,2223.411,7573.607,2222.48Zm24.322-86.23-.235.47c1.288.463,4.691,1.7,5.619,2.142l.051.024.188-.44C7601.59,2137.7,7598.923,2136.643,7597.93,2136.25Zm101.531,27.444a1.533,1.533,0,0,0-.907-.905,8.209,8.209,0,0,0-2.552-.4c-2.785,0-5.551,1.336-8.072,3.085a6.031,6.031,0,0,0,.783,4.582c.091.16.189.319.292.476.022.035.046.07.069.106a14.883,14.883,0,0,0,8.645,5.589C7699.878,2170.2,7700.28,2165.489,7699.461,2163.694Zm-10.915,34.5a119.641,119.641,0,0,0,10.339-18.693c3.118-7.356,3.794-13.3,2.851-15.366a1.542,1.542,0,0,0-.889-.9l-.874-.169.018.034c.052.09.1.184.149.285,1.4,3.063-.493,10.424-2.843,15.966q-.157.368-.317.735c-.015.036-.03.073-.046.109-.1.233-.206.465-.31.7-.019.043-.039.086-.058.13-.105.232-.21.464-.317.695-.014.031-.029.062-.043.094-.11.238-.22.474-.332.71l-.008.019q-.17.356-.341.709l-.052.108q-.164.338-.33.673l-.061.121q-.167.338-.336.672l-.038.074c-.115.227-.231.454-.347.678l-.015.028c-.117.227-.233.452-.351.675-.018.032-.034.065-.051.1l-.342.644c-.018.032-.034.065-.053.1q-.173.325-.347.645l-.027.05q-.174.322-.349.638l-.021.036-.346.624-.05.087c-.113.2-.225.4-.337.6l-.043.074-.344.6-.009.014q-.176.306-.349.6l-.017.027q-.168.29-.335.572c-.011.02-.022.039-.034.058-.11.185-.218.368-.325.547l-.028.046c-.224.376-.443.739-.656,1.087l0,.005-.312.507-.019.032c-.1.165-.2.327-.3.484l0,0c-1.014,1.627-1.813,2.833-2.233,3.453Zm-2.277-.436.036-.052.011-.017c.028-.043.063-.092.1-.144l.037-.055.1-.154.055-.08.111-.167.072-.109.122-.183c.027-.043.056-.084.085-.129l.135-.205c.032-.048.062-.094.1-.145l.154-.237.1-.152c.085-.13.172-.266.263-.407l.129-.2c.053-.084.105-.167.162-.254l.139-.219.17-.27.151-.241c.058-.091.115-.182.173-.276s.107-.174.162-.262l.18-.291c.017-.025.032-.052.048-.078a6.2,6.2,0,0,0-1.539-.134l-2.817.607a6.7,6.7,0,0,0-3.223,2.57A32.722,32.722,0,0,0,7686.269,2197.757Zm-10.424-3.815a.835.835,0,0,1,.435-.182,12.094,12.094,0,0,0,5.29-2.066c.619-.428,1.458-1,1.243-1.862a4.494,4.494,0,0,0-1.1-1.749c-.012.07-.022.139-.041.21-.448,1.761-2.728,3.587-6.424,5.145A2.42,2.42,0,0,0,7675.845,2193.942Zm4.138-4.283-10.094-1.955a.545.545,0,0,1-.065-.02c-.146.415-.322.882-.524,1.358a.423.423,0,0,1,.064.006l9.038,1.75a.48.48,0,0,1,.139.053A9.308,9.308,0,0,0,7679.982,2189.659Zm-4.437,2.653a.463.463,0,0,1,.183.1q.916-.42,1.689-.86l-8.231-1.594a.459.459,0,0,1-.243-.133c-.148.3-.308.6-.474.882C7669.581,2190.928,7672.887,2191.6,7675.546,2192.312Zm-9.678-.8a.559.559,0,0,0,.551.1c1.142-.4,2.438-3.685,2.986-5.659a.462.462,0,0,1,.891.247c-.026.094-.088.311-.181.607l10.352,2.005a.448.448,0,0,1,.143.055,2.788,2.788,0,0,0,.337-.757,1.75,1.75,0,0,0,0-.926.461.461,0,0,1-.075-.007l-10.42-2.151a.462.462,0,1,1,.187-.905l9.551,1.971c-.3-.4-.6-.8-.93-1.181a.746.746,0,0,1-.17-.354q-.22-.3-.434-.622a.452.452,0,0,1-.163.03.486.486,0,0,1-.083-.008l-7.52-1.368a.462.462,0,1,1,.165-.909l6.979,1.27a14.141,14.141,0,0,1-.852-1.7l-5.887-.925a.462.462,0,1,1,.144-.913l5.373.844a11.889,11.889,0,0,1-.326-1.238l-5.086-.869a.462.462,0,0,1,.156-.911l4.773.816c-.021-.168-.042-.335-.057-.509-.011-.117-.014-.227-.019-.338l-4.95-.846a.462.462,0,0,1,.156-.911l4.814.822a5.207,5.207,0,0,1,.111-.7c-.014,0-.027,0-.041,0-3.358-.414-4.032-.544-4.964-.724l-.326-.063-.045-.33c-.073-.569-.413-.928-.7-.946-.235-.018-.458.246-.578.7a7.918,7.918,0,0,0-.235,1.847,40.507,40.507,0,0,1-1.043,7.2,25.871,25.871,0,0,1-2.306,6.661C7665.488,2191.24,7665.547,2191.282,7665.868,2191.511Zm-.743-2a.469.469,0,0,1,.145.078l.046-.094a24.692,24.692,0,0,0,2.23-6.443,39.7,39.7,0,0,0,1.024-7.056,11.468,11.468,0,0,1,.12-1.356l-1.436-.233c.031,3.788-.628,9.8-4.473,14.362Zm-25.459-5.843a6.638,6.638,0,0,0-1.967.538.462.462,0,1,1-.394-.836c6.626-3.119,21.115,4.877,23.428,6.2a15.191,15.191,0,0,0,3.109-3.99c-1.344-.521-2.639-1.045-3.891-1.553-7-2.842-12.526-5.087-19.327-3.583-6.311,1.4-7.5,5.589-9.648,13.2-.558,1.975-1.19,4.214-1.99,6.672a.454.454,0,0,1-.193.244,9.123,9.123,0,0,1,1.148.957C7633.074,2191.146,7637.8,2185.57,7639.666,2183.673Zm48.109,79.165c-.3-1.908-2.17-4.238-5.281-6.576a.383.383,0,0,1-.125.023h-.006a8.542,8.542,0,0,0-6.306,2.72c-1.56,1.644-3.336,4.717-2.988,10.03,6.169-.025,10-.55,13.093-2.82A3.367,3.367,0,0,0,7687.775,2262.838Zm-35.153,6.751c3.208.891,18.358,2.2,25.011,1.45,7.141-.806,9.238-2.752,10.194-4.146a3.143,3.143,0,0,0,.258-1.683,5.149,5.149,0,0,1-1.481,1.6c-3.322,2.443-7.378,2.967-13.968,2.967-.356,0-.723,0-1.095,0a142.1,142.1,0,0,1-19.131-1.5Zm-1.466-13.723a4.565,4.565,0,0,0-.106.936.528.528,0,0,1,.328.274,11.835,11.835,0,0,0,3.048,4.248,2.909,2.909,0,0,0,2.009.72,1.891,1.891,0,0,0,1.546-1.19c.272-.52.518-1.057.757-1.6a2.858,2.858,0,0,1-.687.187C7656.267,2259.693,7653.821,2258.424,7651.156,2255.865Zm1.519-7.488c-.329-.032-.655-.076-.97-.133.136,1.093.54,4.43.707,7.17a.462.462,0,0,1-.205.411,19.584,19.584,0,0,0,1.535,1.263l-1.108-8.452A.468.468,0,0,1,7652.675,2248.378Zm.876.138,1.185,9.029a.5.5,0,0,1-.018.2,8.058,8.058,0,0,0,1.573.755l-1.311-10a.4.4,0,0,1,0-.048c-.438.009-.934.008-1.446-.016A.419.419,0,0,1,7653.551,2248.516Zm-3.42-2.394a.528.528,0,0,0,.077.542c.738.912,4.23.969,6.259.79a.462.462,0,1,1,.081.921c-.1.009-.329.028-.646.045l1.351,10.294a2.892,2.892,0,0,0,.7-.006,1.991,1.991,0,0,0,.949-.393l-1.214-10.23a.462.462,0,1,1,.918-.109l1.1,9.282c.455-.779.938-1.553,1.463-2.3l-1.045-7.316a.462.462,0,1,1,.915-.131l.913,6.4a16.562,16.562,0,0,1,1.313-1.463l-.875-5.219a.462.462,0,1,1,.911-.153l.775,4.619q.51-.451,1.056-.861l-.656-4.269a.462.462,0,0,1,.913-.141l.588,3.818c.139-.091.277-.182.419-.268.108-.067.224-.134.342-.2l-.6-3.925a.462.462,0,1,1,.913-.141l.565,3.671a3.487,3.487,0,0,1,.607-.144c-.4-2.07-.523-3.038-.62-3.78l-.051-.385.286-.15c.524-.274.763-.734.682-1-.06-.2-.339-.3-.749-.271a.482.482,0,0,1-.116.016c-.008,0-.016,0-.023,0a8.255,8.255,0,0,0-1.748.417,41.207,41.207,0,0,1-7.121,1.546,25.785,25.785,0,0,1-7.009.182C7650.328,2245.663,7650.258,2245.711,7650.131,2246.121Zm16.888-3.309c-.246-.831-.5-2.06-.631-2.687a30.827,30.827,0,0,1-10.1,1.55,42.977,42.977,0,0,1-5.112-.32l.543,3.425a.506.506,0,0,1,0,.094l.112.011a24.562,24.562,0,0,0,6.778-.176,40.388,40.388,0,0,0,6.981-1.513A10.984,10.984,0,0,1,7667.019,2242.813Zm-45.926-44.2h.017a.317.317,0,0,1,.233.526c.212.467.4.957.58,1.466a.3.3,0,0,1,.143-.032.319.319,0,0,1,.051.633,20.173,20.173,0,0,1,.642,2.861.321.321,0,1,1,.046.326c.01.068.021.135.029.2.025.213.049.423.068.632a.312.312,0,0,1,.154-.039.319.319,0,1,1-.106.62c.016.238.026.471.033.7a.356.356,0,0,1,.073-.008.319.319,0,0,1-.007.639.359.359,0,0,1-.058-.006c0,.235-.007.466-.016.693a.328.328,0,0,1,.08-.01.319.319,0,0,1-.007.639.312.312,0,0,1-.111-.022c-.021.262-.049.52-.083.768a.314.314,0,0,1,.2-.07.319.319,0,1,1-.269.5,8.975,8.975,0,0,1-.367,1.427,8.993,8.993,0,0,0,1.285.454.307.307,0,0,1-.019-.1.319.319,0,1,1,.638,0,.317.317,0,0,1-.087.214,4.2,4.2,0,0,0,1.938-.061,2.99,2.99,0,0,0,1.869-1.6.474.474,0,0,1,.489-.3c6.583.7,14.648,7.155,15.823,10.026,2.524,6.17,2.653,17.718,2.653,20.017a47.861,47.861,0,0,0,4.965.778c-.1-.811-.2-1.873-.319-3.091-.585-6.038-1.674-17.277-4.723-20.561-3.846-4.141-16.478-8.685-16.605-8.73a.472.472,0,0,1,.317-.888c.529.188,12.977,4.668,16.979,8.977,3.267,3.518,4.333,14.531,4.971,21.112.128,1.314.237,2.448.342,3.267v0c9.121.73,14.459-1.781,15.744-2.481-5.3-16.923-8.372-25.239-13.4-28.2-4.383-2.579-16.074-5.563-25.358-7.178a.469.469,0,0,1-.27-.149,6.85,6.85,0,0,0-2.036-1.583.472.472,0,0,1,.32-.887c.05.018.1.039.149.06a.434.434,0,0,1,.021-.131c.793-2.441,1.424-4.67,1.979-6.637,2.175-7.693,3.486-12.337,10.338-13.853,7.08-1.565,13.01.841,19.875,3.629,1.276.518,2.595,1.053,3.965,1.583,2.7-5.644,2.056-12.039,1.859-13.5-32.8-6.9-34.729-1.777-37.392,5.307l-.1.274c-2.056,5.456-4.59,19.913-4.614,20.059a.464.464,0,0,1-.2.307.456.456,0,0,1-.254.076.435.435,0,0,1-.106-.013,8.793,8.793,0,0,0-1.11-.187.316.316,0,0,1-.587-.043,10.552,10.552,0,0,0-1.562.045A12.928,12.928,0,0,1,7621.093,2198.608Zm-4.7,13.9.142.014c.571-.655,4.211-5.2,3.223-13.583l-.116-.988a9.281,9.281,0,0,0-1.089-1.407c-.89-.933-2.391-.946-4.137-.436.18,1.624,1.124,11.338-1.288,16.174C7614.33,2212.305,7615.422,2212.414,7616.392,2212.51Zm-29.525-3.074a2.4,2.4,0,0,0-2.039.3.491.491,0,0,0-.228.292.783.783,0,0,0-.035.21c.732-.273,1.521-.558,2.325-.787Zm8.565-16.444q.209.9.435,1.892c1.281-.283,5.558-1.088,8.049.118.04-1.562.116-3.134.239-4.713a11.444,11.444,0,0,0-9.44-.451C7594.935,2190.827,7595.175,2191.871,7595.432,2192.992Zm8.957-54.152-.2.471a2.035,2.035,0,0,1,1.057,1.417c.161,0,.313-.01.414-.022a.463.463,0,0,1,.1-.082A3.217,3.217,0,0,0,7604.389,2138.84Zm.921,2.813c-.027,1.668-.4,5.211-.54,6.52l.541-.032c.072-1.162.429-4.97.577-6.537A3.516,3.516,0,0,1,7605.31,2141.654Zm5.448,8.013a.226.226,0,0,0,.057-.163l-.031-.534a.225.225,0,0,0-.224-.212h-.015l-11.546.68a.225.225,0,0,0-.211.238l.031.535a.232.232,0,0,0,.237.211h0l11.546-.68A.222.222,0,0,0,7610.758,2149.667Zm-7.775,17.689c2.078.864,4.628-.12,5.394-.458l1.381-16.074-9.743.574,1.648,8.863a12.339,12.339,0,0,0,2.129.581c.185.033.372.062.559.09a9.936,9.936,0,0,1,1.582.335,3.323,3.323,0,0,1,1.923,1.45,2.06,2.06,0,0,1-.34,2.518,2.919,2.919,0,0,1-1.976.53,5.325,5.325,0,0,0-.845.059,4.727,4.727,0,0,0-1.143.433c-.229.109-.467.219-.715.314Zm-.564-1.611a7.73,7.73,0,0,0,.735-.322,5.5,5.5,0,0,1,1.373-.508,6.068,6.068,0,0,1,.994-.074,2.165,2.165,0,0,0,1.388-.3,1.158,1.158,0,0,0,.137-1.373,2.4,2.4,0,0,0-1.4-1.019,9.134,9.134,0,0,0-1.437-.3c-.193-.03-.387-.06-.579-.094a13.226,13.226,0,0,1-4.088-1.447.462.462,0,0,1,.447-.809c.215.119.434.228.653.334l-.7-3.789a7.058,7.058,0,0,0-3.133,2.684,7.611,7.611,0,0,0-.479,3.574l.157,6.3a29.906,29.906,0,0,1,3.653-.122c.047-.224.087-.493.127-.757.047-.317.095-.64.159-.917a4.538,4.538,0,0,1-1.694-.648.462.462,0,1,1,.5-.777A3.7,3.7,0,0,0,7602.418,2165.746Zm-1.3,3.789c-.046-.062-.072-.065-.084-.067a24.916,24.916,0,0,0-5.414.169c-.254.041-.3.912-.129,2.591.031.308.058.583.068.817a21.36,21.36,0,0,0,5.7-.3C7601.408,2171.58,7601.457,2170,7601.113,2169.535Zm3.725,14.594c.006-.045.011-.091.019-.136a17.314,17.314,0,0,0,.091-4.547l-.062-.045c-1.559-1.129-9.615-2.347-11.675-.318a25.82,25.82,0,0,0,.3,4.563C7595.044,2183.148,7600.444,2181.692,7604.838,2184.128Zm3.975,22a25.613,25.613,0,0,0-.1-7.266c-1.59.988-3.09,2.064-4.28,2.983a41.571,41.571,0,0,1-.475,4.883,19.509,19.509,0,0,1-2.649,7.835c.979-.288,3.138-.909,5.227-1.416A24.033,24.033,0,0,0,7608.813,2206.132Zm-2.921,8.153c-2.037.519-3.99,1.091-4.625,1.279.1.586.188,1.309.257,2.13a12.285,12.285,0,0,0,5.864-.053C7606.582,2215.666,7606.082,2214.651,7605.892,2214.285Zm5.087,13.283c-.5-1.52-.968-2.879-1.4-4.1a17.775,17.775,0,0,1-5.1.926,5.863,5.863,0,0,1-2.771-.581c-.021,1.325-.076,2.667-.174,3.943l.04.025a15.422,15.422,0,0,0,9.944,1.538C7611.341,2228.7,7611.158,2228.113,7610.979,2227.568Zm-15.812,35.163c-.131.109-.265.216-.4.323a6.223,6.223,0,0,0-1.188,1.127,1.614,1.614,0,0,0-.264,1.625,1.261,1.261,0,0,0,.745.653c.029,0,.053,0,.1-.061a.47.47,0,0,1,.465-.19,6.866,6.866,0,0,1,.6-.859l.1-.129a15.621,15.621,0,0,0,2.826-5.079.472.472,0,1,1,.905.265,16.483,16.483,0,0,1-2.987,5.394l-.1.132a3.383,3.383,0,0,0-.713,1.2,1.381,1.381,0,0,0,2.025,1.529,2.267,2.267,0,0,1-.052-1.533,5.686,5.686,0,0,1,.617-1.285l.1-.177a28.354,28.354,0,0,0,1.947-5.044.472.472,0,0,1,.91.251,29.1,29.1,0,0,1-2.043,5.267l-.106.183a4.941,4.941,0,0,0-.525,1.072,1.229,1.229,0,0,0,.1,1.05,1.467,1.467,0,0,0,1.614.25,6.436,6.436,0,0,0,3.033-3.084,8.407,8.407,0,0,0,1.324-3.523.47.47,0,0,1,.187-.341,10.356,10.356,0,0,1-1.353-2.379.472.472,0,1,1,.876-.35c.68,1.7,2.134,3.587,3.391,3.8a1.352,1.352,0,0,0,1.3-.531c.311-.351-.019-.9-.6-1.765a6.638,6.638,0,0,1-.777-1.377,7.783,7.783,0,0,1-.343-2.123,5.181,5.181,0,0,0-.479-2.259c-.074-.13-.163-.257-.258-.392a4.748,4.748,0,0,1-.384-.614,2.7,2.7,0,0,1-.064-2.234,30.558,30.558,0,0,1-4.194-.842C7600.338,2254.7,7598.863,2259.649,7595.167,2262.731Zm5.462-13.433c.053.122.112.144.137.153a26.1,26.1,0,0,0,5.738,1.205h.016c.487,0,.671-2.036.741-2.807a9.447,9.447,0,0,1,.162-1.263.5.5,0,0,1,.063-.137l-.039-.012a20.817,20.817,0,0,0-6.251-.737C7600.77,2246.921,7600.338,2248.641,7600.629,2249.3Zm-.229-15.137c-.1.34-.208.676-.311,1.006a22.007,22.007,0,0,0-.88,3.4c1.523,1.41,10.37,3.739,12.729,2.092l.338-.236a21.871,21.871,0,0,0,.268-4.978l-.28.074a20.537,20.537,0,0,1-4.5.555l-.271,0A12.227,12.227,0,0,1,7600.4,2234.161Zm2.789-32.527c.225-.179.5-.392.8-.629a.454.454,0,0,1-.036-.171c0-.068,0-.184-.012-.346,0-.055,0-.112,0-.167-.9-.108-4.322-.414-6.684.83.273,1.281.56,2.653.86,4.127a8.228,8.228,0,0,1,1.425-1.27C7600.525,2203.305,7602.254,2202.216,7603.188,2201.634Zm-6.835,12.156c.179.526.349,1.023.516,1.1.047.021.205.049.647-.141a14.712,14.712,0,0,0,1.889-.955,9.329,9.329,0,0,0-1.259-4.738,1.927,1.927,0,0,0-.647-.616.76.76,0,0,0-.716.01c-.885.422-2.219,1.058-2.312,1.405-.019.073.062.2.11.275A13.578,13.578,0,0,1,7596.354,2213.789Zm-1.349,1.058.6-.214a.477.477,0,0,1,.064-.016c-.062-.164-.123-.34-.187-.53a13.05,13.05,0,0,0-1.417-3.074l-.318.122A8.27,8.27,0,0,1,7595,2214.847Zm-3.691,7.858a2.514,2.514,0,0,0,1.1-.649.462.462,0,0,1-.011-.063,2.519,2.519,0,0,0-1.346.141,2.332,2.332,0,0,0-1.137.7A2.373,2.373,0,0,0,7591.313,2222.7Zm-1.953-.635a3.591,3.591,0,0,1,1.4-.812,3.854,3.854,0,0,1,1.609-.209,1.7,1.7,0,0,0-.126-.2c-.587-.8-1.777-.393-2.389-.023a1.088,1.088,0,0,0-.579.631A1.1,1.1,0,0,0,7589.36,2222.069Zm.018-2.039a3.173,3.173,0,0,1,2.786-.4.44.44,0,0,1,.043-.027,3.754,3.754,0,0,0,1.687-2.448,7.122,7.122,0,0,0-.979-5.6c-1.8-2.784-5.443-1.42-8.369-.323-.39.146-.766.287-1.123.413a3.98,3.98,0,0,0-1.639,1.136,2.992,2.992,0,0,1,.619-.329.462.462,0,0,1,.331.863,3.167,3.167,0,0,0-1.5,1.468,3.667,3.667,0,0,1,1.516-.848.462.462,0,1,1,.257.887,2.7,2.7,0,0,0-1.9,1.891,3.5,3.5,0,0,1,1.956-1.271.462.462,0,0,1,.236.894,2.446,2.446,0,0,0-1.8,1.59c.016.038.032.073.05.11a3.527,3.527,0,0,1,1.746-1.089.462.462,0,1,1,.279.881c-1.1.35-1.432.886-1.531,1.165.06.094.119.184.181.271a2.489,2.489,0,0,1,1.624-.917.462.462,0,0,1,.111.917,1.465,1.465,0,0,0-1.108.742c.095.093.19.182.287.264a1.883,1.883,0,0,1,1.1-.559.462.462,0,0,1,.186.905,1.178,1.178,0,0,0-.508.186,6.219,6.219,0,0,0,4.444.359c.014,0,.027,0,.041-.006A2.043,2.043,0,0,1,7589.378,2220.03Zm-9.433-3.143a7.252,7.252,0,0,0,2.95,5.116,7.887,7.887,0,0,0,5.675.569,2.722,2.722,0,0,1-.169-.471,8.38,8.38,0,0,1-1.947.246,5.893,5.893,0,0,1-5.124-2.774.461.461,0,0,1-.253-.41v-.006a8.637,8.637,0,0,1-.6-1.322,8.226,8.226,0,0,1-.456-1.96c-.035.159-.065.318-.089.476C7579.927,2216.527,7579.931,2216.706,7579.945,2216.887Z" transform="translate(-7572.963 -2135.202)" fill="#d9cbb4"/>
    <path id="Path_55210" data-name="Path 55210" d="M7913.271,2440.819a.319.319,0,1,1-.325.32A.32.32,0,0,1,7913.271,2440.819Z" transform="translate(-7862.223 -2370.195)" fill="#d9cbb4"/>
    <path id="Path_55211" data-name="Path 55211" d="M7913.271,2446.51a.319.319,0,1,1-.325.32A.32.32,0,0,1,7913.271,2446.51Z" transform="translate(-7862.223 -2374.571)" fill="#d9cbb4"/>
    <path id="Path_55212" data-name="Path 55212" d="M7913.271,2435.129a.319.319,0,1,1-.325.32A.32.32,0,0,1,7913.271,2435.129Z" transform="translate(-7862.223 -2365.82)" fill="#d9cbb4"/>
    <path id="Path_55213" data-name="Path 55213" d="M7913.271,2452.2a.319.319,0,1,1-.325.32A.32.32,0,0,1,7913.271,2452.2Z" transform="translate(-7862.223 -2378.946)" fill="#d9cbb4"/>
    <path id="Path_55214" data-name="Path 55214" d="M7913.271,2457.892a.319.319,0,1,1-.325.32A.32.32,0,0,1,7913.271,2457.892Z" transform="translate(-7862.223 -2383.322)" fill="#d9cbb4"/>
    <path id="Path_55215" data-name="Path 55215" d="M7913.271,2429.438a.319.319,0,1,1-.325.32A.32.32,0,0,1,7913.271,2429.438Z" transform="translate(-7862.223 -2361.443)" fill="#d9cbb4"/>
    <path id="Path_55216" data-name="Path 55216" d="M7917.4,2461.431a.319.319,0,1,1,.32-.315A.318.318,0,0,1,7917.4,2461.431Z" transform="translate(-7867.315 -2385.553)" fill="#d9cbb4"/>
    <path id="Path_55217" data-name="Path 55217" d="M7926.146,2404.208a.319.319,0,1,1-.313-.323A.32.32,0,0,1,7926.146,2404.208Z" transform="translate(-7877.688 -2341.796)" fill="#d9cbb4"/>
    <path id="Path_55218" data-name="Path 55218" d="M7909.041,2426.672a.319.319,0,1,1-.325.32A.32.32,0,0,1,7909.041,2426.672Z" transform="translate(-7857.015 -2359.317)" fill="#d9cbb4"/>
    <path id="Path_55219" data-name="Path 55219" d="M7913.271,2423.747a.319.319,0,1,1-.325.32A.32.32,0,0,1,7913.271,2423.747Z" transform="translate(-7862.223 -2357.068)" fill="#d9cbb4"/>
    <path id="Path_55220" data-name="Path 55220" d="M7913.271,2418.056a.319.319,0,1,1-.325.32A.32.32,0,0,1,7913.271,2418.056Z" transform="translate(-7862.223 -2352.692)" fill="#d9cbb4"/>
    <path id="Path_55221" data-name="Path 55221" d="M7913.271,2412.366a.319.319,0,1,1-.325.32A.32.32,0,0,1,7913.271,2412.366Z" transform="translate(-7862.223 -2348.317)" fill="#d9cbb4"/>
    <path id="Path_55222" data-name="Path 55222" d="M7909.041,2432.363a.319.319,0,1,1-.325.32A.32.32,0,0,1,7909.041,2432.363Z" transform="translate(-7857.015 -2363.693)" fill="#d9cbb4"/>
    <path id="Path_55223" data-name="Path 55223" d="M7917.408,2415.266a.319.319,0,1,1-.325.32A.319.319,0,0,1,7917.408,2415.266Z" transform="translate(-7867.315 -2350.547)" fill="#d9cbb4"/>
    <path id="Path_55224" data-name="Path 55224" d="M7917.408,2403.885a.319.319,0,1,1-.325.32A.32.32,0,0,1,7917.408,2403.885Z" transform="translate(-7867.315 -2341.796)" fill="#d9cbb4"/>
    <path id="Path_55225" data-name="Path 55225" d="M7921.7,2412.366a.319.319,0,1,1-.324.32A.319.319,0,0,1,7921.7,2412.366Z" transform="translate(-7872.596 -2348.317)" fill="#d9cbb4"/>
    <path id="Path_55226" data-name="Path 55226" d="M7921.7,2406.675a.319.319,0,1,1-.324.32A.319.319,0,0,1,7921.7,2406.675Z" transform="translate(-7872.596 -2343.941)" fill="#d9cbb4"/>
    <path id="Path_55227" data-name="Path 55227" d="M7917.408,2420.957a.319.319,0,1,1-.325.32A.319.319,0,0,1,7917.408,2420.957Z" transform="translate(-7867.315 -2354.923)" fill="#d9cbb4"/>
    <path id="Path_55228" data-name="Path 55228" d="M7917.408,2409.575a.319.319,0,1,1-.325.32A.319.319,0,0,1,7917.408,2409.575Z" transform="translate(-7867.315 -2346.171)" fill="#d9cbb4"/>
    <path id="Path_55229" data-name="Path 55229" d="M7909.041,2443.745a.319.319,0,1,1-.325.32A.32.32,0,0,1,7909.041,2443.745Z" transform="translate(-7857.015 -2372.444)" fill="#d9cbb4"/>
    <path id="Path_55230" data-name="Path 55230" d="M7909.041,2438.053a.319.319,0,1,1-.325.32A.32.32,0,0,1,7909.041,2438.053Z" transform="translate(-7857.015 -2368.068)" fill="#d9cbb4"/>
    <path id="Path_55231" data-name="Path 55231" d="M7917.408,2426.648a.319.319,0,1,1-.325.32A.319.319,0,0,1,7917.408,2426.648Z" transform="translate(-7867.315 -2359.299)" fill="#d9cbb4"/>
    <path id="Path_55232" data-name="Path 55232" d="M7909.041,2449.436a.319.319,0,1,1-.325.32A.32.32,0,0,1,7909.041,2449.436Z" transform="translate(-7857.015 -2376.82)" fill="#d9cbb4"/>
    <path id="Path_55233" data-name="Path 55233" d="M7909.041,2455.126a.319.319,0,1,1-.325.32A.32.32,0,0,1,7909.041,2455.126Z" transform="translate(-7857.015 -2381.196)" fill="#d9cbb4"/>
  </g>
</svg>
