<svg xmlns="http://www.w3.org/2000/svg" width="98.784" height="149.533" viewBox="0 0 98.784 149.533">
  <g id="char3" transform="translate(0 0)">
    <path id="Path_53050" data-name="Path 53050" d="M3578.355,2282.577a2.107,2.107,0,0,0-2.345-.723c-10.844,3.469-13.074,3.209-13.531,2.936a106.724,106.724,0,0,1-8.577-6.521.574.574,0,0,0-.43-.129.567.567,0,0,0-.389.222c-.013.016-.311.409-.781,1.021-8.865-7.791-13.719-14.687-16.282-19.29a31.544,31.544,0,0,1-3.58-8.9,77.8,77.8,0,0,0,17.4-6.632.429.429,0,0,0-.113-.8,7.672,7.672,0,0,1-2.845-1.66c-1.589-1.311-4.021-3.92-6.584-8.9-6.59-12.815-10.534-17.392-12.86-18.653a.49.49,0,0,0,.063-.367l-.435-1.911a11.275,11.275,0,0,0,1.078-1.634,26.589,26.589,0,0,0,7.661,1.42,7.251,7.251,0,0,0,4.564-1.254c3.224-2.61,5.006-12.306,5.337-14.26a4.562,4.562,0,0,0,3.084-1.795c.209-.282.4-.553.583-.81.874-1.235,1.451-2.052,2.583-2.294a1.859,1.859,0,0,0,1.476-2.123,1.943,1.943,0,0,0-2.343-1.527,4.308,4.308,0,0,0-2.155.945c.214-1.637.42-4.5-.367-6.485-.623-1.573-1.445-1.832-1.925-1.829a2.1,2.1,0,0,0-2.064-1.512,1.383,1.383,0,0,0-1.21,1.224,1.731,1.731,0,0,0-1.009.414,3.205,3.205,0,0,0-.823,2.886,26.215,26.215,0,0,1-.337,6.851,13.063,13.063,0,0,0,.417,5.045c-.495,2.846-2.247,10.038-4.678,10.646-2.5.627-8.246-2.8-10.339-4.23a24.773,24.773,0,0,0-4.106-3.5,1.871,1.871,0,0,0-1.037-2.4l-.386-2.366a5.443,5.443,0,0,0,4.322-2.893,10.542,10.542,0,0,0,.914-4.176,2.7,2.7,0,0,0,.764-1.917,1.1,1.1,0,0,0-.377-.917,1.038,1.038,0,0,0-.672-.174.411.411,0,0,0,0-.077,6.265,6.265,0,0,0-.722-2.067c.509-.267,1.1-.57,1.761-.905,6.659-3.395,12.609-6.65,12.285-9.161a.624.624,0,0,0-.381-.493c-1.443-.646-9.8,2.956-12.329,4.075-1.562.692-3.1,1.4-4.581,2.113a5.876,5.876,0,0,0-2.749-1.8,8.118,8.118,0,0,0-6.781.879,5.765,5.765,0,0,0-2.554,3.411,18.152,18.152,0,0,0-5.942-.909,31.293,31.293,0,0,1-6.5-.764.349.349,0,0,0-.418.45,3.73,3.73,0,0,0,.6,1.012,13.055,13.055,0,0,0-4.186.189l-.425.078c-5.223.961-9.348,1.721-12.659.722a.349.349,0,0,0-.434.435c.017.057,1.779,5.686,7.381,6.661a14.589,14.589,0,0,0,7.281-.342,5.3,5.3,0,0,1-.507.585.349.349,0,0,0,.245.6h.021a49.233,49.233,0,0,0,11.562-2.183,13.136,13.136,0,0,0,1.408-.6c-.829.557-1.616,1.083-2.35,1.573-5.182,3.456-7.784,5.191-7.722,6.636a1.382,1.382,0,0,0,.836,1.142,1.755,1.755,0,0,0,.84.17c2.292,0,7.15-2.4,10.239-4.058a1.583,1.583,0,0,0,.29,1.238l.942,1.263a1.356,1.356,0,0,0-.666.15c-.245.129-1.01.662-.577,2.084.57,1.867,1.711,6.194,2.018,7.363-.859.767-3.036,3.961-2.463,16.461a.416.416,0,0,0,.027.126,5.081,5.081,0,0,0,.733,3.662,4.242,4.242,0,0,0,.67.764c-1.683,11.5-4.65,15.868-4.983,16.327a.4.4,0,0,0-.05.042c-.16.168-3.918,4.149-3.383,6.854a1.4,1.4,0,0,0,.53.932c-.922,1.2-2.741,3.884-2.463,5.963.108.809.508,1.046.824,1.1a1.037,1.037,0,0,0,.193.02c.367,0,1.132-.224,2.573-1.893a5.283,5.283,0,0,0-.176,2.79c.208.755.622.918.932.921h.009c.773,0,1.7-1.137,2.562-2.641a5.992,5.992,0,0,0,.443,3.424c.343.615.73.774,1.04.774a.912.912,0,0,0,.171-.016c.786-.146,1.469-1.365,2-2.833a5.487,5.487,0,0,0,.735,2.354,1.293,1.293,0,0,0,1.057.728.957.957,0,0,0,.246-.033c.62-.167,1.165-.994,1.62-2.456a4.632,4.632,0,0,0,.833,2.13,1.334,1.334,0,0,0,1.034.618,1,1,0,0,0,.346-.063c1.153-.427,1.809-3.061,2-5.509.8-.122,1.684-.242,2.624-.367,1.083-.145,2.259-.3,3.522-.492a98.62,98.62,0,0,1,3.535,25.121c.033,1.123.063,2.134.116,3.013-.162,0-.307-.005-.432-.011a.57.57,0,0,0-.593.58,98.424,98.424,0,0,1-.5,11.516c-.507,3.913-1.094,9.141-1.289,10.9h-.013a.3.3,0,0,0-.051.586l0,.027a.565.565,0,0,0,.379.6s0,.005,0,.008a.295.295,0,0,0,.58.072l.681.073a.292.292,0,0,0,.468.051l1.589.171a.567.567,0,0,0,.443-.146.295.295,0,1,0,.2-.52l.537-4.779c.351.563.792,1.229,1.289,1.9a14.451,14.451,0,0,0,2.146,2.385.3.3,0,0,0,.191.156,6.421,6.421,0,0,0,.535.386.295.295,0,1,0,.454.262,2.9,2.9,0,0,0,1.291.338h.031c1.065-.014,2.438.015,3.891.048,1.388.031,2.917.064,4.45.064a51.409,51.409,0,0,0,5.672-.255.293.293,0,0,0,.464-.068,1.935,1.935,0,0,0,.713-.3.286.286,0,0,0-.047.167.3.3,0,1,0,.3-.3.287.287,0,0,0-.1.019,1.876,1.876,0,0,0,.426-.528.3.3,0,1,0,.273-.409.287.287,0,0,0-.117.024c.016-.052.034-.1.046-.156a2.109,2.109,0,0,0-.963-2.258c-4.755-2.973-10.381-8.3-10.608-9.671a107.025,107.025,0,0,1-.562-10.76.572.572,0,0,0-.179-.412.558.558,0,0,0-.421-.154c-.023,0-.605.031-1.5.075a.278.278,0,0,0-.166-.156c-.284-1.517-.58-3.014-.887-4.474a69.08,69.08,0,0,0,9.868,10.73c-.274.328-.511.6-.695.8a.571.571,0,0,0,.06.827,98.267,98.267,0,0,1,8.469,7.819c2.513,2.754,5.878,6.322,7.269,7.793a.295.295,0,1,0,.387.409l.257.271a.569.569,0,0,0,.4.177h.014a.569.569,0,0,0,.394-.158l2.323-2.213a.57.57,0,0,0,.021-.8l-3.406-3.609c2.413.356,6.565.674,7.969-1.035,2.172-2.642,5.771-8.053,8.407-12.127A1.907,1.907,0,0,0,3578.355,2282.577ZM3536.8,2274.6a15.957,15.957,0,0,0,5.728-3.845q1.334,1.56,2.9,3.215a14.138,14.138,0,0,1-5.688,4.436C3538.669,2277.124,3537.691,2275.851,3536.8,2274.6Zm-10.85-19.462.171-.029a.278.278,0,0,0,.264.207.281.281,0,0,0,.283-.276.253.253,0,0,0,0-.028l.011,0c.044.187.09.381.142.585a.272.272,0,0,0,.1.385c.2.78.459,1.675.78,2.669-.285.051-.59.1-.909.153Q3526.415,2257.037,3525.95,2255.143Zm2.016,4.331c.424,1.242.947,2.618,1.586,4.1-.485.11-.988.189-1.687.3l-.163.025q-.308-2.024-.748-4.25C3527.312,2259.588,3527.651,2259.531,3527.966,2259.473Zm11.006,6.79a14.792,14.792,0,0,1-5.568,3.069c-.845-1.467-1.566-2.857-2.178-4.142a16.953,16.953,0,0,0,5.375-2.434C3537.28,2263.843,3538.065,2265.016,3538.972,2266.263Zm-7.037,2.2a14.253,14.253,0,0,1-3.616.337c-.126-1.277-.286-2.628-.49-4.056l.169-.026c.792-.123,1.341-.209,1.906-.347.036.08.071.159.107.24C3530.551,2265.8,3531.188,2267.092,3531.934,2268.462Zm-3.135,1.2a14.375,14.375,0,0,0,3.561-.433c.733,1.3,1.568,2.671,2.508,4.082a22,22,0,0,1-6.187.433c-.063-1.261-.151-2.623-.283-4.088Q3528.6,2269.666,3528.8,2269.666Zm6.712,4.711c.229,1.041.453,2.107.671,3.187a.279.279,0,0,0,.015.558.259.259,0,0,0,.094-.018q.171.854.336,1.718a.281.281,0,0,0-.043.134.278.278,0,0,0,.111.228c.027.142.053.285.08.428l-.3.014a.277.277,0,0,0-.551.025l-.746.033s0-.009,0-.014a.281.281,0,0,0-.562-.007.306.306,0,0,0,0,.045l-.759.031a.292.292,0,0,0,.014-.068.281.281,0,0,0-.562-.009.259.259,0,0,0,.017.1l-.789.03a.277.277,0,0,0,.031-.124.281.281,0,0,0-.562,0,.278.278,0,0,0,.039.142l-.842.028a.271.271,0,0,0,.061-.169.28.28,0,1,0-.561.007.277.277,0,0,0,.071.175c-.312.009-.614.017-.9.023a.28.28,0,1,0-.472-.2.277.277,0,0,0,.1.211q-.292.005-.557.008c-.014-.219-.026-.448-.037-.686a.269.269,0,0,0,.134.04.28.28,0,0,0,.009-.56.276.276,0,0,0-.163.048q-.017-.435-.032-.9a.276.276,0,0,0,.173.063.28.28,0,0,0,0-.561.277.277,0,0,0-.185.07c-.005-.18-.011-.363-.016-.55-.029-.99-.062-2.073-.112-3.247.5.032.994.05,1.465.05a19.715,19.715,0,0,0,5.182-.6l.135.2A.415.415,0,0,0,3535.511,2274.377Zm-1.656-4.274a16.547,16.547,0,0,0,5.625-3.15c.751,1.008,1.579,2.059,2.492,3.151l-.007.006a15.187,15.187,0,0,1-5.548,3.721.423.423,0,0,0-.119.064C3535.393,2272.593,3534.582,2271.324,3533.855,2270.1Zm2.3-8.076a15.516,15.516,0,0,1-5.3,2.364l-.046-.1c-.675-1.481-1.232-2.873-1.692-4.146a12.081,12.081,0,0,0,5.061-1.724q.473.961,1.064,2.03Q3535.654,2261.2,3536.152,2262.027Zm-4.423-10.058a.279.279,0,1,0-.132.524.276.276,0,0,0,.229-.13c.045.174.1.365.158.572a.272.272,0,0,0,.034.115c.091.307.2.647.327,1.02a.27.27,0,0,0-.076-.017.28.28,0,1,0-.009.561.277.277,0,0,0,.231-.127c.32.9.747,1.953,1.31,3.156a11.307,11.307,0,0,1-4.963,1.666l-.018,0c-.535-1.559-.918-2.915-1.188-4a.278.278,0,1,0,.058-.549.277.277,0,0,0-.175.062c-.161-.685-.272-1.241-.346-1.649a.277.277,0,0,0-.09-.529c-.026-.17-.038-.263-.039-.27a.416.416,0,0,0-.009-.041l.388-.069a.278.278,0,0,0,.273.228.281.281,0,0,0,.278-.282.222.222,0,0,0-.01-.046q.421-.079.852-.165a.278.278,0,0,0-.1.209.281.281,0,1,0,.561,0,.277.277,0,0,0-.2-.262q.8-.161,1.625-.345a.28.28,0,0,0,.543-.1.222.222,0,0,0,0-.025l.369-.086C3531.632,2251.537,3531.672,2251.729,3531.729,2251.969Zm-14.79-4.488a20.365,20.365,0,0,1-.135-2.7q.4.045.744.078l1.089,6.708a1.635,1.635,0,0,1-.23-.168C3517.682,2250.776,3517.175,2249.421,3516.939,2247.481Zm-1.962,3.232.343-6.087c0-.014,0-.028,0-.041.206.032.406.06.6.087a.367.367,0,0,0-.007.079A15.259,15.259,0,0,1,3514.977,2250.713Zm-11.041,4.684c-.086-1.986,1.551-4.743,2.054-5.539a.944.944,0,0,0,.507.358Zm-.619-7.879a.376.376,0,0,0-.07-.031l3.619-5.457q.3.157.606.307C3506.314,2244.764,3504.387,2247,3503.317,2247.518Zm3.113,1.48c-.721-2.246,1.688-6.094,1.712-6.132a.387.387,0,0,0,.059-.2c.146.063.292.125.443.185Zm.773.161,2.172-6.03q.316.114.643.221A17.292,17.292,0,0,1,3507.2,2249.159Zm1.906-1.49.017-.032c0,.012,0,.025,0,.037Zm1.6-3.689a.389.389,0,0,0,.008-.242c.017-.053.033-.1.048-.154.227.067.456.133.69.2l-1.17,6.478C3509.186,2248.187,3510.691,2244.023,3510.706,2243.981Zm.307,6.629,1.2-6.634c.225.054.452.107.683.158a.377.377,0,0,0-.069.188C3512.581,2247.442,3511.66,2249.972,3511.014,2250.61Zm2.41-1.11a13.781,13.781,0,0,1,.347-4.891.1.1,0,1,1,.053-.187.413.413,0,0,0,.073-.006.428.428,0,0,0,.136-.05l.169.032.365.064a.408.408,0,0,0-.028.119l-.372,6.614a1.674,1.674,0,0,1-.154-.181,3.494,3.494,0,0,1-.568-1.4A.384.384,0,0,0,3513.423,2249.5Zm5.485-4.536a15.547,15.547,0,0,1,.394,5.829l-.952-5.863C3518.58,2244.945,3518.767,2244.956,3518.908,2244.963Zm-.014-.859a38.278,38.278,0,0,1-4.714-.587,50.461,50.461,0,0,1,.466-19.213c.044-.035.089-.068.132-.105a5.323,5.323,0,0,0,1.414-2.065.279.279,0,1,0,.271-.364.271.271,0,0,0-.148.04,8.077,8.077,0,0,0,.264-.96.275.275,0,0,0,.082-.439,10.4,10.4,0,0,0,.125-1.89l.01-.692a.495.495,0,0,0,.22-.014l.476-.143a.276.276,0,0,0-.014.064.281.281,0,1,0,.562,0,.277.277,0,0,0-.091-.2l1.481-.446q.1.543.182,1.1a.278.278,0,0,0,.081.53q.067.451.13.912a.26.26,0,0,0-.091-.02.28.28,0,1,0,0,.56.269.269,0,0,0,.159-.056C3520.83,2227.433,3520.865,2236.4,3518.895,2244.1Zm-1.3-29.823-.678.195a.517.517,0,0,0-.07.032l.091-6.361a29.911,29.911,0,0,1,1.849,5.738C3518.39,2214.012,3517.991,2214.144,3517.592,2214.281Zm12.66-9.184a14.407,14.407,0,0,0,6.014,2,3.641,3.641,0,0,0,.881-.1c1.506-.376,2.861-2.438,4.029-6.127a44.923,44.923,0,0,0,1.292-5.289.426.426,0,0,0-.01-.189,12.693,12.693,0,0,1-.424-4.752,27.089,27.089,0,0,0,.348-7.074,2.585,2.585,0,0,1,.53-2.174.864.864,0,0,1,.41-.2c-.031,1.762-.1,2.927-.158,3.964-.041.718-.081,1.4-.1,2.158a.422.422,0,0,0,.412.433h.011a.421.421,0,0,0,.421-.411c.019-.749.058-1.42.1-2.132.064-1.124.138-2.4.165-4.413,0-.294.074-.794.5-.838a1.278,1.278,0,0,1,1.177.962,2.721,2.721,0,0,0-.765,2.529,15.291,15.291,0,0,1-.211,4.477.422.422,0,0,0,.826.172,15.875,15.875,0,0,0,.22-4.771c-.14-.962.218-1.729.641-1.842.395-.1.877.4,1.229,1.286,1.043,2.633.13,7.233.12,7.28a.422.422,0,0,0,.748.342,4.361,4.361,0,0,1,2.527-1.553c.935-.1,1.347.359,1.421.82a1.011,1.011,0,0,1-.819,1.164c-1.454.312-2.178,1.336-3.1,2.632-.179.253-.367.519-.572.8a3.7,3.7,0,0,1-2.769,1.481h0a.421.421,0,0,0-.417.356c0,.029-.459,2.9-1.325,6.077-1.13,4.146-2.431,6.908-3.764,7.987-2.867,2.322-9.827.215-11.321-.276a6.082,6.082,0,0,0,.421-4.175,7.672,7.672,0,0,0-.84-1.8C3528.734,2204.27,3529.469,2204.69,3530.251,2205.1Zm-4.27-2.571.021.023a9.315,9.315,0,0,1,2.119,3.392c.744,2.452-1.187,5.118-1.742,5.816l-1.045.3c-1.239.3-3.368.833-5.732,1.568a23.88,23.88,0,0,0-2.617-7.153.4.4,0,0,0-.027-.033l.013-.888c1.507-.775,5.342-2.845,5.669-4a2.316,2.316,0,0,0-.37-2.074,1.586,1.586,0,0,0-.305-.287l.048-.035A23.933,23.933,0,0,1,3525.981,2202.526Zm-5.378-6.611a.315.315,0,0,0-.056-.115l-.982-1.257a.319.319,0,0,0-.1-.084c.075-.274.142-.544.2-.8a5.633,5.633,0,0,0,.618.055l.36,2.2Zm5.583-11.449a.5.5,0,0,1,.031.233,1.884,1.884,0,0,1-1.562,1.89.428.428,0,0,0,.1.844.434.434,0,0,0,.1-.012,3.25,3.25,0,0,0,.558-.19,8.751,8.751,0,0,1-.768,3.148,4.671,4.671,0,0,1-4.863,2.427,1.866,1.866,0,0,0-1.088-1.882,1.7,1.7,0,0,0-1.753.393.316.316,0,0,0-.059-.192l-.987-1.35a12.041,12.041,0,0,0,2.034-7.5,15.649,15.649,0,0,1,5.311-1.9,4.989,4.989,0,0,1,1.829,2.8c-.073.1-.307.234-.844.07a.428.428,0,1,0-.249.819c.026.008.051.013.076.02l-.36.119a.428.428,0,0,0,.271.813A7.889,7.889,0,0,1,3526.186,2184.466Zm-13.408,1.849a22.1,22.1,0,0,1,4.3-3.531,11.166,11.166,0,0,1-1.713,6.263l-.623-.852h0a1.59,1.59,0,0,0-1.983-.49A5.553,5.553,0,0,1,3512.778,2186.314Zm.16,2.755a.593.593,0,1,1-.017.027Zm-1.245-6.422a.339.339,0,0,0-.134-.076,15.268,15.268,0,0,0-5.856-.421c-1.758.156-3.639.441-5.457.716a46.115,46.115,0,0,1-9.756.807,99.637,99.637,0,0,0,12.148-1.686,20.241,20.241,0,0,1,9.63.226c-.065.07-.118.129-.161.179Q3511.9,2182.52,3511.693,2182.647Zm1.292-5.76a7.224,7.224,0,0,1,6.029-.792,5.864,5.864,0,0,1,1.984,1.123,24.125,24.125,0,0,0-8.156,4.437,5.888,5.888,0,0,0-2.081-1.723A4.883,4.883,0,0,1,3512.986,2176.887Zm-14.418,17.218c-.384-.211-.392-.374-.393-.427-.042-.964,3.216-3.137,7.341-5.888,1.387-.925,2.959-1.974,4.656-3.137.678-.465,1.413-.939,2.193-1.418a.428.428,0,0,0,.3-.166l.022-.027c9.1-5.521,23.909-11.569,25.818-11.38-.121,2.164-8,6.179-11.83,8.133-.684.349-1.3.665-1.828.94l-.017.011a4.971,4.971,0,0,0-1.267-1.185.428.428,0,0,0-.274-.054c-6.45.879-11.038,6.112-11.23,6.333a.423.423,0,0,0-.094.19,6.188,6.188,0,0,0,.018,2.247l-.77.615C3506.7,2191.486,3499.837,2194.8,3498.568,2194.106Zm12.625,10.489c-.278,2.21-.9,6.952-1.651,11.191C3509.529,2209.013,3510.486,2205.939,3511.192,2204.594Zm-1.46,14.72c1.307-6.1,2.455-15.784,2.466-15.881a.424.424,0,0,0-.016-.175l-.04-.129c-.014-.055-1.438-5.506-2.1-7.677-.164-.536-.1-.939.158-1.078a.634.634,0,0,1,.757.2c.629.784,2.228,2.94,2.244,2.962a.436.436,0,0,0,.07.072c-.2.4-.367.746-.491,1.022a.428.428,0,0,0,.781.352,74.8,74.8,0,0,1,3.587-6.6c.358-.564.833-.817,1.238-.661.346.133.638.608.51,1.367a27.256,27.256,0,0,1-1.424,4.521l-.355.22a.428.428,0,1,0,.451.728l2.544-1.577.03-.02a1.017,1.017,0,0,1,1.344,1.516l-3.082,2.246a.428.428,0,0,0,.5.692l2.227-1.623a.425.425,0,0,0,.106.007.5.5,0,0,1,.367.218,1.443,1.443,0,0,1,.209,1.3c-.149.526-2.6,2.136-5.463,3.589a.429.429,0,0,0-.235.376l-.187,13.242a6.486,6.486,0,0,1-1.712,5.026,2.39,2.39,0,0,1-2,.614,3.086,3.086,0,0,1-1.97-1.331A4.4,4.4,0,0,1,3509.732,2219.315Zm1.258,5.32a3.567,3.567,0,0,0,1.083.375,3.077,3.077,0,0,0,1.573-.143,51.689,51.689,0,0,0-.362,18.47,21.726,21.726,0,0,1-7.156-2.731C3506.947,2239.352,3509.446,2234.841,3510.99,2224.635Zm-5.471,16.593c.214.144.433.285.662.42l-3.627,5.471C3502.231,2245.327,3504.408,2242.462,3505.52,2241.227Zm-2.314,7.148a3.711,3.711,0,0,0,1.484-.885l-4.077,6.262C3500.606,2251.791,3502.548,2249.2,3503.206,2248.375Zm-2.142,6.117,4.473-6.873a4.519,4.519,0,0,0,.06,1.276C3504.119,2251.665,3501.978,2254.14,3501.064,2254.492Zm3.285,1.832,3.085-6.242a.4.4,0,0,0,.039-.141,3.612,3.612,0,0,0,.582-.587c-.226.626-.486,1.406-.716,2.252C3506.258,2254.132,3504.965,2256.055,3504.35,2256.324Zm3.711-4.386c.016-.058.032-.115.048-.173a26.948,26.948,0,0,0,.961-2.634.393.393,0,0,0-.005-.237c.019-.051.038-.1.056-.142a5.523,5.523,0,0,0,.173,1.1l-1.377,7.716-.015-.025C3507.31,2256.48,3507.365,2254.542,3508.061,2251.938Zm.647,5.639,1.164-6.521a1.168,1.168,0,0,0,.774.484c-.06.336-.137.827-.2,1.4A13.489,13.489,0,0,1,3508.708,2257.577Zm2.527-4.6c.129-.593.227-1.143.292-1.593a.38.38,0,0,0-.018-.179,4.956,4.956,0,0,0,1.1-1.942c.017.128.036.256.059.381l-.852,8.112C3511.04,2256.552,3511.078,2254.469,3511.235,2252.979Zm1.349,4.9.689-6.561c.037.056.073.113.113.167a1.666,1.666,0,0,0,.7.592A12.966,12.966,0,0,1,3512.584,2257.875Zm2.951.212c-1.281-1.632-.647-5.281-.464-6.189a3.25,3.25,0,0,0,.863-1.463l-.248,7.707a.374.374,0,0,0,.02.13A1.507,1.507,0,0,1,3515.535,2258.086Zm.939-.163.251-7.815a5.066,5.066,0,0,0,.839,1.544A13.855,13.855,0,0,1,3516.474,2257.923Zm4.334-5.524c-.875.117-1.705.229-2.463.343q.007-.223.009-.439a1.167,1.167,0,0,0,.509.13.9.9,0,0,0,.478-.137c.576-.351.87-1.376.872-3.047a20.276,20.276,0,0,0-.565-4.557.352.352,0,0,0-.012-.035,65.281,65.281,0,0,0,1.328-22.77c-.011-.107-.023-.213-.035-.32a.275.275,0,0,0,.1.021.28.28,0,0,0,.009-.561.274.274,0,0,0-.163.049q-.108-.935-.237-1.847a.252.252,0,0,0,.009-.041.265.265,0,0,0-.032-.125q-.077-.537-.16-1.063a.278.278,0,0,0,.193-.261.281.281,0,0,0-.277-.282h0q-.052-.312-.106-.62l1.184-.357a.277.277,0,0,0,.506-.153l2.733-.823a.28.28,0,1,0,.539.115.276.276,0,0,0-.133-.237l1.218-.367a1.907,1.907,0,0,1,.318.081.281.281,0,0,0,.259.166.273.273,0,0,0,.088-.019q.168.083.346.195a.278.278,0,0,0,.214.457.275.275,0,0,0,.24-.14q.177.136.363.3a.278.278,0,0,0-.232.268.279.279,0,0,0,.557.023c.137.128.277.266.419.411a.163.163,0,0,0-.024-.006.28.28,0,1,0,.276.283c0-.007,0-.013,0-.021.135.144.274.3.414.456a.265.265,0,0,0-.049-.011.28.28,0,1,0,.276.283c0-.005,0-.01,0-.015.122.142.246.29.371.443a.278.278,0,0,0,.019.556.276.276,0,0,0,.264-.2c.1.13.207.262.313.4a.278.278,0,0,0-.223.263.281.281,0,0,0,.281.285.278.278,0,0,0,.245-.151,105.194,105.194,0,0,1,8.51,14.275c3.8,7.4,7.381,9.859,9.05,10.652A80.051,80.051,0,0,1,3520.808,2252.4Zm5.383.079c.006.053.044.356.137.874a.28.28,0,0,0,.056.554.341.341,0,0,0,.047-.009c.018.089.036.183.057.28-.15.029-.309.057-.471.085a.279.279,0,0,0-.261-.21.288.288,0,0,0-.079.011q-.183-.711-.382-1.439C3525.589,2252.577,3525.887,2252.529,3526.19,2252.478Zm20.858,33.459a.264.264,0,0,0,.011-.054.273.273,0,0,0-.368-.265c-.112-.1-.226-.2-.337-.3a.276.276,0,0,0,.068-.176.28.28,0,0,0-.277-.282.277.277,0,0,0-.2.081l-.307-.285a.274.274,0,0,0,.118-.22.281.281,0,0,0-.275-.283.276.276,0,0,0-.237.131c-.1-.1-.207-.2-.31-.3a.277.277,0,0,0,.186-.258.281.281,0,0,0-.276-.283.277.277,0,0,0-.268.2c-.121-.118-.238-.236-.357-.354a.277.277,0,0,0,.235-.273.281.281,0,0,0-.28-.278.278.278,0,0,0-.272.237c-.128-.128-.254-.257-.38-.385l.02,0a.28.28,0,1,0-.285-.282s0,.007,0,.01c-.144-.148-.287-.3-.428-.443a.288.288,0,0,0,.039.008.28.28,0,1,0-.278-.281c0,.009,0,.016,0,.025-.147-.156-.3-.312-.44-.468a.262.262,0,0,0,.077.016.28.28,0,1,0-.278-.281.263.263,0,0,0,.011.057q-.857-.931-1.646-1.856a14.912,14.912,0,0,0,5.709-4.5c1.516,1.565,3.195,3.185,5.055,4.847a.277.277,0,0,0,.26.378.273.273,0,0,0,.129-.034l.28.248a.278.278,0,0,0-.041.113l-.359.466a.28.28,0,0,0-.282.279.267.267,0,0,0,.013.069c-.1.125-.194.252-.293.381a.268.268,0,0,0-.1-.022.281.281,0,0,0-.284.275.269.269,0,0,0,.057.172l-.248.319a.276.276,0,0,0-.161-.06.281.281,0,0,0-.284.275.278.278,0,0,0,.106.222l-.262.337a.278.278,0,1,0-.325.415l-.278.354a.279.279,0,1,0-.289.368l-.365.463a.232.232,0,0,0,.006-.029.28.28,0,1,0-.283.276.273.273,0,0,0,.1-.018c-.37.467-.726.911-1.051,1.31Z" transform="translate(-3479.985 -2157.657)" fill="#d9cbb4"/>
    <path id="Path_53051" data-name="Path 53051" d="M3723.95,2120.315a.424.424,0,0,0,.2-.049l2.88-1.522a3.974,3.974,0,0,0,2.067.613l4.645.071a4,4,0,0,0,4.062-3.937l.031-2.052a4,4,0,0,0-3.938-4.061l-4.645-.072h-.063a4,4,0,0,0-4,3.938l-.031,2.052a3.967,3.967,0,0,0,.264,1.494l-1.826,2.878a.423.423,0,0,0,.357.648Zm2.3-3.261a.421.421,0,0,0,.029-.4,3.131,3.131,0,0,1-.279-1.348l.031-2.051a3.157,3.157,0,0,1,3.155-3.108h.05l4.645.071a3.161,3.161,0,0,1,3.108,3.205l-.032,2.052a3.157,3.157,0,0,1-3.2,3.107l-4.645-.071a3.143,3.143,0,0,1-1.8-.6.421.421,0,0,0-.445-.032l-1.7.9Z" transform="translate(-3671.393 -2109.304)" fill="#d9cbb4"/>
    <path id="Path_53052" data-name="Path 53052" d="M3769.487,2129.851h.02a1.246,1.246,0,1,0-.02,0Zm-.267-1.55a.409.409,0,0,1,.286-.116h.006a.411.411,0,0,1,.4.418.411.411,0,0,1-.417.4.411.411,0,0,1-.28-.706Z" transform="translate(-3706.542 -2123.48)" fill="#d9cbb4"/>
    <path id="Path_53053" data-name="Path 53053" d="M3755.869,2129.641h.02a1.255,1.255,0,0,0,.019-2.51h-.019a1.255,1.255,0,0,0-.02,2.51Zm.025-1.666a.412.412,0,0,1,.405.417.413.413,0,0,1-.125.289.4.4,0,0,1-.293.116.411.411,0,0,1-.4-.417A.416.416,0,0,1,3755.895,2127.975Z" transform="translate(-3695.84 -2123.315)" fill="#d9cbb4"/>
    <path id="Path_53054" data-name="Path 53054" d="M3742.738,2129.436h.019a1.255,1.255,0,0,0,.019-2.51,1.214,1.214,0,0,0-.893.354,1.255,1.255,0,0,0,.855,2.156Zm-.267-1.55a.408.408,0,0,1,.285-.116h.007a.411.411,0,0,1-.006.822h-.007a.411.411,0,0,1-.28-.706Z" transform="translate(-3685.519 -2123.153)" fill="#d9cbb4"/>
    <path id="Path_53055" data-name="Path 53055" d="M3664.379,2230.654a.427.427,0,0,0-.605-.005,2.325,2.325,0,0,1-1.959.6.428.428,0,0,0-.112.849,3.705,3.705,0,0,0,.48.032,3.069,3.069,0,0,0,2.19-.874A.428.428,0,0,0,3664.379,2230.654Z" transform="translate(-3622.511 -2204.576)" fill="#d9cbb4"/>
    <path id="Path_53056" data-name="Path 53056" d="M3670.857,2253.172a.413.413,0,0,0-.391-.047,4.113,4.113,0,0,1-2.562.035.409.409,0,0,0-.512.334,2.247,2.247,0,0,0,.388,1.637,1.522,1.522,0,0,0,1.176.523h.066a2.092,2.092,0,0,0,2-2.13A.409.409,0,0,0,3670.857,2253.172Z" transform="translate(-3627.257 -2222.315)" fill="#d9cbb4"/>
    <path id="Path_53057" data-name="Path 53057" d="M3661.506,2388.657a.28.28,0,1,0,.276.283A.282.282,0,0,0,3661.506,2388.657Z" transform="translate(-3622.424 -2328.857)" fill="#d9cbb4"/>
    <path id="Path_53058" data-name="Path 53058" d="M3664.616,2405.336a.28.28,0,1,0,.277.282A.281.281,0,0,0,3664.616,2405.336Z" transform="translate(-3624.869 -2341.966)" fill="#d9cbb4"/>
    <path id="Path_53059" data-name="Path 53059" d="M3652.445,2405.336a.28.28,0,1,0,.28.279A.281.281,0,0,0,3652.445,2405.336Z" transform="translate(-3615.306 -2341.966)" fill="#d9cbb4"/>
    <path id="Path_53060" data-name="Path 53060" d="M3661.506,2395.428a.28.28,0,1,0,.276.283A.282.282,0,0,0,3661.506,2395.428Z" transform="translate(-3622.424 -2334.178)" fill="#d9cbb4"/>
    <path id="Path_53061" data-name="Path 53061" d="M3707.206,2398.731a.28.28,0,1,0,.276.283A.281.281,0,0,0,3707.206,2398.731Z" transform="translate(-3658.341 -2336.775)" fill="#d9cbb4"/>
    <path id="Path_53062" data-name="Path 53062" d="M3707.206,2391.96a.28.28,0,1,0,.276.283A.281.281,0,0,0,3707.206,2391.96Z" transform="translate(-3658.341 -2331.453)" fill="#d9cbb4"/>
    <path id="Path_53063" data-name="Path 53063" d="M3710.179,2395.428a.28.28,0,1,0,.276.283A.281.281,0,0,0,3710.179,2395.428Z" transform="translate(-3660.677 -2334.178)" fill="#d9cbb4"/>
    <path id="Path_53064" data-name="Path 53064" d="M3704.09,2388.657a.28.28,0,1,0,.281.278A.281.281,0,0,0,3704.09,2388.657Z" transform="translate(-3655.896 -2328.857)" fill="#d9cbb4"/>
    <path id="Path_53065" data-name="Path 53065" d="M3661.506,2402.033a.28.28,0,1,0,.276.283A.282.282,0,0,0,3661.506,2402.033Z" transform="translate(-3622.424 -2339.369)" fill="#d9cbb4"/>
    <path id="Path_53066" data-name="Path 53066" d="M3655.417,2408.8a.28.28,0,1,0,.281.279A.281.281,0,0,0,3655.417,2408.8Z" transform="translate(-3617.642 -2344.691)" fill="#d9cbb4"/>
    <path id="Path_53067" data-name="Path 53067" d="M3652.445,2398.731a.28.28,0,1,0,.28.278A.282.282,0,0,0,3652.445,2398.731Z" transform="translate(-3615.306 -2336.775)" fill="#d9cbb4"/>
    <path id="Path_53068" data-name="Path 53068" d="M3655.417,2402.033a.28.28,0,1,0,.281.278A.282.282,0,0,0,3655.417,2402.033Z" transform="translate(-3617.642 -2339.37)" fill="#d9cbb4"/>
    <path id="Path_53069" data-name="Path 53069" d="M3652.445,2391.96a.28.28,0,1,0,.28.279A.281.281,0,0,0,3652.445,2391.96Z" transform="translate(-3615.306 -2331.453)" fill="#d9cbb4"/>
    <path id="Path_53070" data-name="Path 53070" d="M3655.417,2395.428a.28.28,0,1,0,.281.279A.282.282,0,0,0,3655.417,2395.428Z" transform="translate(-3617.642 -2334.178)" fill="#d9cbb4"/>
    <path id="Path_53071" data-name="Path 53071" d="M3658.533,2405.336a.28.28,0,1,0,.276.283A.281.281,0,0,0,3658.533,2405.336Z" transform="translate(-3620.087 -2341.966)" fill="#d9cbb4"/>
    <path id="Path_53072" data-name="Path 53072" d="M3701.118,2385.354a.28.28,0,1,0,.281.279A.281.281,0,0,0,3701.118,2385.354Z" transform="translate(-3653.559 -2326.261)" fill="#d9cbb4"/>
    <path id="Path_53073" data-name="Path 53073" d="M3661.506,2408.8a.28.28,0,1,0,.276.283A.282.282,0,0,0,3661.506,2408.8Z" transform="translate(-3622.424 -2344.691)" fill="#d9cbb4"/>
    <path id="Path_53074" data-name="Path 53074" d="M3658.533,2398.731a.28.28,0,1,0,.276.283A.281.281,0,0,0,3658.533,2398.731Z" transform="translate(-3620.087 -2336.775)" fill="#d9cbb4"/>
    <path id="Path_53075" data-name="Path 53075" d="M3658.533,2391.96a.28.28,0,1,0,.276.283A.281.281,0,0,0,3658.533,2391.96Z" transform="translate(-3620.087 -2331.453)" fill="#d9cbb4"/>
    <path id="Path_53076" data-name="Path 53076" d="M3679.758,2388.657a.28.28,0,1,0,.276.283A.281.281,0,0,0,3679.758,2388.657Z" transform="translate(-3636.769 -2328.857)" fill="#d9cbb4"/>
    <path id="Path_53077" data-name="Path 53077" d="M3679.758,2402.033a.28.28,0,1,0,.276.283A.281.281,0,0,0,3679.758,2402.033Z" transform="translate(-3636.769 -2339.369)" fill="#d9cbb4"/>
    <path id="Path_53078" data-name="Path 53078" d="M3682.869,2391.96a.28.28,0,1,0,.277.282A.28.28,0,0,0,3682.869,2391.96Z" transform="translate(-3639.215 -2331.453)" fill="#d9cbb4"/>
    <path id="Path_53079" data-name="Path 53079" d="M3682.869,2398.731a.28.28,0,1,0,.277.282A.281.281,0,0,0,3682.869,2398.731Z" transform="translate(-3639.215 -2336.775)" fill="#d9cbb4"/>
    <path id="Path_53080" data-name="Path 53080" d="M3679.758,2382.052a.28.28,0,1,0,.276.283A.281.281,0,0,0,3679.758,2382.052Z" transform="translate(-3636.769 -2323.666)" fill="#d9cbb4"/>
    <path id="Path_53081" data-name="Path 53081" d="M3679.758,2395.428a.28.28,0,1,0,.276.283A.281.281,0,0,0,3679.758,2395.428Z" transform="translate(-3636.769 -2334.178)" fill="#d9cbb4"/>
    <path id="Path_53082" data-name="Path 53082" d="M3676.786,2405.336a.28.28,0,1,0,.276.283A.281.281,0,0,0,3676.786,2405.336Z" transform="translate(-3634.433 -2341.966)" fill="#d9cbb4"/>
    <path id="Path_53083" data-name="Path 53083" d="M3676.786,2385.354a.28.28,0,1,0,.276.283A.281.281,0,0,0,3676.786,2385.354Z" transform="translate(-3634.433 -2326.261)" fill="#d9cbb4"/>
    <path id="Path_53084" data-name="Path 53084" d="M3694.779,2379.309a.28.28,0,1,0-.278-.28A.281.281,0,0,0,3694.779,2379.309Z" transform="translate(-3648.58 -2321.07)" fill="#d9cbb4"/>
    <path id="Path_53085" data-name="Path 53085" d="M3676.786,2398.731a.28.28,0,1,0,.276.283A.281.281,0,0,0,3676.786,2398.731Z" transform="translate(-3634.433 -2336.775)" fill="#d9cbb4"/>
    <path id="Path_53086" data-name="Path 53086" d="M3676.786,2391.96a.28.28,0,1,0,.276.283A.281.281,0,0,0,3676.786,2391.96Z" transform="translate(-3634.433 -2331.453)" fill="#d9cbb4"/>
    <path id="Path_53087" data-name="Path 53087" d="M3685.841,2395.428a.28.28,0,1,0,.277.282A.282.282,0,0,0,3685.841,2395.428Z" transform="translate(-3641.551 -2334.178)" fill="#d9cbb4"/>
    <path id="Path_53088" data-name="Path 53088" d="M3682.869,2385.354a.28.28,0,1,0,.277.282A.281.281,0,0,0,3682.869,2385.354Z" transform="translate(-3639.215 -2326.261)" fill="#d9cbb4"/>
    <path id="Path_53089" data-name="Path 53089" d="M3688.955,2398.731a.28.28,0,1,0,.274.284A.281.281,0,0,0,3688.955,2398.731Z" transform="translate(-3643.995 -2336.774)" fill="#d9cbb4"/>
    <path id="Path_53090" data-name="Path 53090" d="M3688.955,2391.96a.28.28,0,1,0,.274.284A.281.281,0,0,0,3688.955,2391.96Z" transform="translate(-3643.995 -2331.453)" fill="#d9cbb4"/>
    <path id="Path_53091" data-name="Path 53091" d="M3691.928,2395.428a.28.28,0,1,0,.275.285A.281.281,0,0,0,3691.928,2395.428Z" transform="translate(-3646.332 -2334.178)" fill="#d9cbb4"/>
    <path id="Path_53092" data-name="Path 53092" d="M3691.928,2382.052a.28.28,0,1,0,.275.285A.281.281,0,0,0,3691.928,2382.052Z" transform="translate(-3646.332 -2323.666)" fill="#d9cbb4"/>
    <path id="Path_53093" data-name="Path 53093" d="M3688.955,2385.354a.28.28,0,1,0,.274.285A.282.282,0,0,0,3688.955,2385.354Z" transform="translate(-3643.995 -2326.261)" fill="#d9cbb4"/>
    <path id="Path_53094" data-name="Path 53094" d="M3695.034,2398.731a.28.28,0,1,0,.28.279A.281.281,0,0,0,3695.034,2398.731Z" transform="translate(-3648.777 -2336.775)" fill="#d9cbb4"/>
    <path id="Path_53095" data-name="Path 53095" d="M3685.841,2402.033a.28.28,0,1,0,.277.282A.282.282,0,0,0,3685.841,2402.033Z" transform="translate(-3641.551 -2339.369)" fill="#d9cbb4"/>
    <path id="Path_53096" data-name="Path 53096" d="M3685.841,2388.657a.28.28,0,1,0,.277.282A.282.282,0,0,0,3685.841,2388.657Z" transform="translate(-3641.551 -2328.857)" fill="#d9cbb4"/>
    <path id="Path_53097" data-name="Path 53097" d="M3685.841,2382.052a.28.28,0,1,0,.277.282A.282.282,0,0,0,3685.841,2382.052Z" transform="translate(-3641.551 -2323.666)" fill="#d9cbb4"/>
    <path id="Path_53098" data-name="Path 53098" d="M3691.928,2388.657a.28.28,0,1,0,.275.285A.281.281,0,0,0,3691.928,2388.657Z" transform="translate(-3646.332 -2328.857)" fill="#d9cbb4"/>
    <path id="Path_53099" data-name="Path 53099" d="M3701.118,2391.96a.28.28,0,1,0,.281.279A.281.281,0,0,0,3701.118,2391.96Z" transform="translate(-3653.559 -2331.453)" fill="#d9cbb4"/>
    <path id="Path_53100" data-name="Path 53100" d="M3701.118,2398.731a.28.28,0,1,0,.281.278A.281.281,0,0,0,3701.118,2398.731Z" transform="translate(-3653.559 -2336.775)" fill="#d9cbb4"/>
    <path id="Path_53101" data-name="Path 53101" d="M3698.006,2382.052a.28.28,0,1,0,.28.279A.281.281,0,0,0,3698.006,2382.052Z" transform="translate(-3651.114 -2323.667)" fill="#d9cbb4"/>
    <path id="Path_53102" data-name="Path 53102" d="M3695.034,2391.96a.28.28,0,1,0,.28.279A.281.281,0,0,0,3695.034,2391.96Z" transform="translate(-3648.777 -2331.453)" fill="#d9cbb4"/>
    <path id="Path_53103" data-name="Path 53103" d="M3698.006,2388.657a.28.28,0,1,0,.28.279A.281.281,0,0,0,3698.006,2388.657Z" transform="translate(-3651.114 -2328.857)" fill="#d9cbb4"/>
    <path id="Path_53104" data-name="Path 53104" d="M3670.7,2398.731a.28.28,0,1,0,.274.284A.281.281,0,0,0,3670.7,2398.731Z" transform="translate(-3629.651 -2336.774)" fill="#d9cbb4"/>
    <path id="Path_53105" data-name="Path 53105" d="M3670.7,2385.354a.28.28,0,1,0,.274.285A.282.282,0,0,0,3670.7,2385.354Z" transform="translate(-3629.651 -2326.261)" fill="#d9cbb4"/>
    <path id="Path_53106" data-name="Path 53106" d="M3670.7,2391.96a.28.28,0,1,0,.274.284A.281.281,0,0,0,3670.7,2391.96Z" transform="translate(-3629.651 -2331.453)" fill="#d9cbb4"/>
    <path id="Path_53107" data-name="Path 53107" d="M3673.676,2402.033a.28.28,0,1,0,.274.284A.281.281,0,0,0,3673.676,2402.033Z" transform="translate(-3631.988 -2339.369)" fill="#d9cbb4"/>
    <path id="Path_53108" data-name="Path 53108" d="M3673.676,2388.657a.28.28,0,1,0,.274.285A.281.281,0,0,0,3673.676,2388.657Z" transform="translate(-3631.988 -2328.857)" fill="#d9cbb4"/>
    <path id="Path_53109" data-name="Path 53109" d="M3704.09,2395.428a.28.28,0,1,0,.281.279A.281.281,0,0,0,3704.09,2395.428Z" transform="translate(-3655.896 -2334.178)" fill="#d9cbb4"/>
    <path id="Path_53110" data-name="Path 53110" d="M3698.006,2395.428a.28.28,0,1,0,.28.279A.281.281,0,0,0,3698.006,2395.428Z" transform="translate(-3651.114 -2334.178)" fill="#d9cbb4"/>
    <path id="Path_53111" data-name="Path 53111" d="M3673.676,2395.428a.28.28,0,1,0,.274.285A.281.281,0,0,0,3673.676,2395.428Z" transform="translate(-3631.988 -2334.178)" fill="#d9cbb4"/>
    <path id="Path_53112" data-name="Path 53112" d="M3695.034,2385.354a.28.28,0,1,0,.28.279A.282.282,0,0,0,3695.034,2385.354Z" transform="translate(-3648.777 -2326.261)" fill="#d9cbb4"/>
    <path id="Path_53113" data-name="Path 53113" d="M3704.913,2566.218a.28.28,0,1,0,.281.278A.281.281,0,0,0,3704.913,2566.218Z" transform="translate(-3656.542 -2468.408)" fill="#d9cbb4"/>
    <path id="Path_53114" data-name="Path 53114" d="M3701.8,2556.309a.28.28,0,1,0,.28.279A.281.281,0,0,0,3701.8,2556.309Z" transform="translate(-3654.098 -2460.62)" fill="#d9cbb4"/>
    <path id="Path_53115" data-name="Path 53115" d="M3741.558,2676.6a.28.28,0,1,0-.279-.28A.281.281,0,0,0,3741.558,2676.6Z" transform="translate(-3685.344 -2554.72)" fill="#d9cbb4"/>
    <path id="Path_53116" data-name="Path 53116" d="M3738.222,2673.3a.281.281,0,1,0,.285-.274A.282.282,0,0,0,3738.222,2673.3Z" transform="translate(-3682.942 -2552.351)" fill="#d9cbb4"/>
    <path id="Path_53117" data-name="Path 53117" d="M3735.479,2669.433a.28.28,0,1,0,.278.282A.281.281,0,0,0,3735.479,2669.433Z" transform="translate(-3680.563 -2549.528)" fill="#d9cbb4"/>
    <path id="Path_53118" data-name="Path 53118" d="M3735.479,2676.039a.28.28,0,1,0,.278.281A.281.281,0,0,0,3735.479,2676.039Z" transform="translate(-3680.563 -2554.72)" fill="#d9cbb4"/>
    <path id="Path_53119" data-name="Path 53119" d="M3738.594,2679.341a.28.28,0,1,0,.274.285A.281.281,0,0,0,3738.594,2679.341Z" transform="translate(-3683.008 -2557.315)" fill="#d9cbb4"/>
    <path id="Path_53120" data-name="Path 53120" d="M3717.225,2669.433a.28.28,0,1,0,.28.279A.281.281,0,0,0,3717.225,2669.433Z" transform="translate(-3666.218 -2549.528)" fill="#d9cbb4"/>
    <path id="Path_53121" data-name="Path 53121" d="M3729.4,2676.039a.28.28,0,1,0,.275.283A.281.281,0,0,0,3729.4,2676.039Z" transform="translate(-3675.781 -2554.72)" fill="#d9cbb4"/>
    <path id="Path_53122" data-name="Path 53122" d="M3723.309,2676.039a.28.28,0,1,0,.28.279A.281.281,0,0,0,3723.309,2676.039Z" transform="translate(-3671 -2554.72)" fill="#d9cbb4"/>
    <path id="Path_53123" data-name="Path 53123" d="M3726.424,2679.341a.28.28,0,1,0,.276.283A.281.281,0,0,0,3726.424,2679.341Z" transform="translate(-3673.445 -2557.315)" fill="#d9cbb4"/>
    <path id="Path_53124" data-name="Path 53124" d="M3723.309,2669.433a.28.28,0,1,0,.28.278A.281.281,0,0,0,3723.309,2669.433Z" transform="translate(-3671 -2549.528)" fill="#d9cbb4"/>
    <path id="Path_53125" data-name="Path 53125" d="M3726.335,2673.586a.281.281,0,1,0-.281-.286A.282.282,0,0,0,3726.335,2673.586Z" transform="translate(-3673.379 -2552.351)" fill="#d9cbb4"/>
    <path id="Path_53126" data-name="Path 53126" d="M3732.507,2679.341a.28.28,0,1,0,.277.282A.282.282,0,0,0,3732.507,2679.341Z" transform="translate(-3678.227 -2557.315)" fill="#d9cbb4"/>
    <path id="Path_53127" data-name="Path 53127" d="M3732.416,2673.585a.28.28,0,1,0-.278-.281A.281.281,0,0,0,3732.416,2673.585Z" transform="translate(-3678.16 -2552.351)" fill="#d9cbb4"/>
    <path id="Path_53128" data-name="Path 53128" d="M3729.4,2669.433a.28.28,0,1,0,.275.283A.282.282,0,0,0,3729.4,2669.433Z" transform="translate(-3675.781 -2549.528)" fill="#d9cbb4"/>
    <path id="Path_53129" data-name="Path 53129" d="M3720.334,2679.341a.28.28,0,1,0,.281.279A.282.282,0,0,0,3720.334,2679.341Z" transform="translate(-3668.663 -2557.315)" fill="#d9cbb4"/>
    <path id="Path_53130" data-name="Path 53130" d="M3714.171,2673.586a.281.281,0,1,0-.284-.282A.282.282,0,0,0,3714.171,2673.586Z" transform="translate(-3663.816 -2552.351)" fill="#d9cbb4"/>
    <path id="Path_53131" data-name="Path 53131" d="M3711.146,2669.433a.28.28,0,1,0,.274.285A.281.281,0,0,0,3711.146,2669.433Z" transform="translate(-3661.436 -2549.528)" fill="#d9cbb4"/>
    <path id="Path_53132" data-name="Path 53132" d="M3704.913,2559.612a.28.28,0,1,0,.281.278A.281.281,0,0,0,3704.913,2559.612Z" transform="translate(-3656.542 -2463.216)" fill="#d9cbb4"/>
    <path id="Path_53133" data-name="Path 53133" d="M3711.146,2676.039a.28.28,0,1,0,.274.285A.281.281,0,0,0,3711.146,2676.039Z" transform="translate(-3661.436 -2554.72)" fill="#d9cbb4"/>
    <path id="Path_53134" data-name="Path 53134" d="M3714.252,2679.341a.28.28,0,1,0,.28.279A.281.281,0,0,0,3714.252,2679.341Z" transform="translate(-3663.882 -2557.315)" fill="#d9cbb4"/>
    <path id="Path_53135" data-name="Path 53135" d="M3720.25,2673.586a.281.281,0,1,0-.28-.287A.282.282,0,0,0,3720.25,2673.586Z" transform="translate(-3668.596 -2552.351)" fill="#d9cbb4"/>
    <path id="Path_53136" data-name="Path 53136" d="M3717.225,2676.039a.28.28,0,1,0,.28.279A.281.281,0,0,0,3717.225,2676.039Z" transform="translate(-3666.218 -2554.72)" fill="#d9cbb4"/>
    <path id="Path_53137" data-name="Path 53137" d="M3713.974,2562.915a.28.28,0,1,0,.276.282A.281.281,0,0,0,3713.974,2562.915Z" transform="translate(-3663.66 -2465.812)" fill="#d9cbb4"/>
    <path id="Path_53138" data-name="Path 53138" d="M3788.007,2683.707a.28.28,0,1,0,.277.282A.281.281,0,0,0,3788.007,2683.707Z" transform="translate(-3721.846 -2560.746)" fill="#d9cbb4"/>
    <path id="Path_53139" data-name="Path 53139" d="M3781.924,2683.707a.28.28,0,1,0,.276.283A.28.28,0,0,0,3781.924,2683.707Z" transform="translate(-3717.064 -2560.746)" fill="#d9cbb4"/>
    <path id="Path_53140" data-name="Path 53140" d="M3784.9,2680.4a.28.28,0,1,0,.276.283A.282.282,0,0,0,3784.9,2680.4Z" transform="translate(-3719.4 -2558.151)" fill="#d9cbb4"/>
    <path id="Path_53141" data-name="Path 53141" d="M3788.007,2696.918a.28.28,0,1,0,.277.281A.28.28,0,0,0,3788.007,2696.918Z" transform="translate(-3721.846 -2571.13)" fill="#d9cbb4"/>
    <path id="Path_53142" data-name="Path 53142" d="M3788.007,2690.313a.28.28,0,1,0,.277.282A.281.281,0,0,0,3788.007,2690.313Z" transform="translate(-3721.846 -2565.938)" fill="#d9cbb4"/>
    <path id="Path_53143" data-name="Path 53143" d="M3784.9,2693.615a.28.28,0,1,0,.276.283A.282.282,0,0,0,3784.9,2693.615Z" transform="translate(-3719.4 -2568.533)" fill="#d9cbb4"/>
    <path id="Path_53144" data-name="Path 53144" d="M3797.057,2694.175a.28.28,0,1,0-.278-.281A.281.281,0,0,0,3797.057,2694.175Z" transform="translate(-3728.964 -2568.533)" fill="#d9cbb4"/>
    <path id="Path_53145" data-name="Path 53145" d="M3775.835,2683.707a.28.28,0,1,0,.28.278A.281.281,0,0,0,3775.835,2683.707Z" transform="translate(-3712.282 -2560.746)" fill="#d9cbb4"/>
    <path id="Path_53146" data-name="Path 53146" d="M3778.808,2687.01a.28.28,0,1,0,.28.279A.281.281,0,0,0,3778.808,2687.01Z" transform="translate(-3714.619 -2563.342)" fill="#d9cbb4"/>
    <path id="Path_53147" data-name="Path 53147" d="M3781.924,2690.313a.28.28,0,1,0,.276.283A.281.281,0,0,0,3781.924,2690.313Z" transform="translate(-3717.064 -2565.938)" fill="#d9cbb4"/>
    <path id="Path_53148" data-name="Path 53148" d="M3790.979,2680.4a.28.28,0,1,0,.277.282A.282.282,0,0,0,3790.979,2680.4Z" transform="translate(-3724.182 -2558.151)" fill="#d9cbb4"/>
    <path id="Path_53149" data-name="Path 53149" d="M3790.979,2693.615a.28.28,0,1,0,.277.282A.282.282,0,0,0,3790.979,2693.615Z" transform="translate(-3724.182 -2568.533)" fill="#d9cbb4"/>
    <path id="Path_53150" data-name="Path 53150" d="M3790.979,2687.01a.28.28,0,1,0,.277.282A.282.282,0,0,0,3790.979,2687.01Z" transform="translate(-3724.182 -2563.342)" fill="#d9cbb4"/>
    <path id="Path_53151" data-name="Path 53151" d="M3790.979,2700.221a.28.28,0,1,0,.277.281A.281.281,0,0,0,3790.979,2700.221Z" transform="translate(-3724.182 -2573.726)" fill="#d9cbb4"/>
    <path id="Path_53152" data-name="Path 53152" d="M3704.913,2553.007a.28.28,0,1,0,.281.278A.282.282,0,0,0,3704.913,2553.007Z" transform="translate(-3656.542 -2458.025)" fill="#d9cbb4"/>
    <path id="Path_53153" data-name="Path 53153" d="M3794.095,2683.707a.28.28,0,1,0,.274.285A.281.281,0,0,0,3794.095,2683.707Z" transform="translate(-3726.628 -2560.746)" fill="#d9cbb4"/>
    <path id="Path_53154" data-name="Path 53154" d="M3794.095,2696.918a.28.28,0,1,0,.274.284A.281.281,0,0,0,3794.095,2696.918Z" transform="translate(-3726.628 -2571.129)" fill="#d9cbb4"/>
    <path id="Path_53155" data-name="Path 53155" d="M3794.095,2690.313a.28.28,0,1,0,.274.284A.281.281,0,0,0,3794.095,2690.313Z" transform="translate(-3726.628 -2565.938)" fill="#d9cbb4"/>
    <path id="Path_53156" data-name="Path 53156" d="M3794.095,2703.523a.28.28,0,1,0,.274.285A.281.281,0,0,0,3794.095,2703.523Z" transform="translate(-3726.628 -2576.32)" fill="#d9cbb4"/>
    <path id="Path_53157" data-name="Path 53157" d="M3797.057,2687.57a.28.28,0,1,0-.278-.281A.282.282,0,0,0,3797.057,2687.57Z" transform="translate(-3728.964 -2563.342)" fill="#d9cbb4"/>
    <path id="Path_53158" data-name="Path 53158" d="M3784.9,2687.01a.28.28,0,1,0,.276.283A.282.282,0,0,0,3784.9,2687.01Z" transform="translate(-3719.4 -2563.342)" fill="#d9cbb4"/>
    <path id="Path_53159" data-name="Path 53159" d="M3713.974,2556.309a.28.28,0,1,0,.276.283A.281.281,0,0,0,3713.974,2556.309Z" transform="translate(-3663.66 -2460.62)" fill="#d9cbb4"/>
    <path id="Path_53160" data-name="Path 53160" d="M3797.057,2680.965a.28.28,0,1,0-.278-.281A.282.282,0,0,0,3797.057,2680.965Z" transform="translate(-3728.964 -2558.151)" fill="#d9cbb4"/>
    <path id="Path_53161" data-name="Path 53161" d="M3713.974,2549.7a.28.28,0,1,0,.276.283A.281.281,0,0,0,3713.974,2549.7Z" transform="translate(-3663.66 -2455.429)" fill="#d9cbb4"/>
    <path id="Path_53162" data-name="Path 53162" d="M3717.085,2553.007a.28.28,0,1,0,.278.282A.282.282,0,0,0,3717.085,2553.007Z" transform="translate(-3666.106 -2458.025)" fill="#d9cbb4"/>
    <path id="Path_53163" data-name="Path 53163" d="M3720.054,2556.87a.28.28,0,1,0-.281-.286A.281.281,0,0,0,3720.054,2556.87Z" transform="translate(-3668.442 -2460.62)" fill="#d9cbb4"/>
    <path id="Path_53164" data-name="Path 53164" d="M3707.886,2556.309a.28.28,0,1,0,.28.279A.281.281,0,0,0,3707.886,2556.309Z" transform="translate(-3658.879 -2460.62)" fill="#d9cbb4"/>
    <path id="Path_53165" data-name="Path 53165" d="M3711,2553.007a.28.28,0,1,0,.276.283A.281.281,0,0,0,3711,2553.007Z" transform="translate(-3661.325 -2458.025)" fill="#d9cbb4"/>
    <path id="Path_53166" data-name="Path 53166" d="M3707.886,2562.915a.28.28,0,1,0,.28.278A.281.281,0,0,0,3707.886,2562.915Z" transform="translate(-3658.879 -2465.812)" fill="#d9cbb4"/>
    <path id="Path_53167" data-name="Path 53167" d="M3692.742,2553.567a.28.28,0,1,0-.278-.281A.281.281,0,0,0,3692.742,2553.567Z" transform="translate(-3646.979 -2458.025)" fill="#d9cbb4"/>
    <path id="Path_53168" data-name="Path 53168" d="M3711,2559.612a.281.281,0,1,0,.276.283A.281.281,0,0,0,3711,2559.612Z" transform="translate(-3661.325 -2463.216)" fill="#d9cbb4"/>
    <path id="Path_53169" data-name="Path 53169" d="M3717.085,2559.612a.281.281,0,1,0,.278.282A.281.281,0,0,0,3717.085,2559.612Z" transform="translate(-3666.106 -2463.216)" fill="#d9cbb4"/>
    <path id="Path_53170" data-name="Path 53170" d="M3800.421,2677.952a.28.28,0,1,0-.282-.286A.281.281,0,0,0,3800.421,2677.952Z" transform="translate(-3731.605 -2555.782)" fill="#d9cbb4"/>
    <path id="Path_53171" data-name="Path 53171" d="M3809.229,2680.965a.28.28,0,1,0-.281-.286A.28.28,0,0,0,3809.229,2680.965Z" transform="translate(-3738.527 -2558.151)" fill="#d9cbb4"/>
    <path id="Path_53172" data-name="Path 53172" d="M3800.172,2684.268a.28.28,0,1,0-.281-.286A.281.281,0,0,0,3800.172,2684.268Z" transform="translate(-3731.409 -2560.746)" fill="#d9cbb4"/>
    <path id="Path_53173" data-name="Path 53173" d="M3800.172,2690.873a.28.28,0,1,0-.281-.286A.281.281,0,0,0,3800.172,2690.873Z" transform="translate(-3731.409 -2565.938)" fill="#d9cbb4"/>
    <path id="Path_53174" data-name="Path 53174" d="M3803.145,2687.57a.28.28,0,1,0-.281-.286A.281.281,0,0,0,3803.145,2687.57Z" transform="translate(-3733.746 -2563.342)" fill="#d9cbb4"/>
    <path id="Path_53175" data-name="Path 53175" d="M3806.26,2683.707a.28.28,0,1,0,.277.282A.281.281,0,0,0,3806.26,2683.707Z" transform="translate(-3736.191 -2560.746)" fill="#d9cbb4"/>
    <path id="Path_53176" data-name="Path 53176" d="M3806.228,2677.952a.28.28,0,1,0-.281-.286A.281.281,0,0,0,3806.228,2677.952Z" transform="translate(-3736.169 -2555.782)" fill="#d9cbb4"/>
    <path id="Path_53177" data-name="Path 53177" d="M3803.145,2680.965a.28.28,0,1,0-.281-.286A.281.281,0,0,0,3803.145,2680.965Z" transform="translate(-3733.746 -2558.151)" fill="#d9cbb4"/>
    <path id="Path_53178" data-name="Path 53178" d="M3761.626,2805.079a.3.3,0,1,0,.295.294A.3.3,0,0,0,3761.626,2805.079Z" transform="translate(-3701.103 -2656.137)" fill="#d9cbb4"/>
    <path id="Path_53179" data-name="Path 53179" d="M3755.936,2805.079a.3.3,0,1,0,.295.294A.3.3,0,0,0,3755.936,2805.079Z" transform="translate(-3696.631 -2656.137)" fill="#d9cbb4"/>
    <path id="Path_53180" data-name="Path 53180" d="M3770.107,2800.789a.3.3,0,1,0,.295.294A.3.3,0,0,0,3770.107,2800.789Z" transform="translate(-3707.769 -2652.765)" fill="#d9cbb4"/>
    <path id="Path_53181" data-name="Path 53181" d="M3733.173,2805.079a.3.3,0,1,0,.294.294A.3.3,0,0,0,3733.173,2805.079Z" transform="translate(-3678.74 -2656.137)" fill="#d9cbb4"/>
    <path id="Path_53182" data-name="Path 53182" d="M3767.318,2805.079a.3.3,0,1,0,.295.294A.3.3,0,0,0,3767.318,2805.079Z" transform="translate(-3705.576 -2656.137)" fill="#d9cbb4"/>
    <path id="Path_53183" data-name="Path 53183" d="M3764.417,2800.789a.3.3,0,1,0,.295.294A.3.3,0,0,0,3764.417,2800.789Z" transform="translate(-3703.296 -2652.765)" fill="#d9cbb4"/>
    <path id="Path_53184" data-name="Path 53184" d="M3758.725,2800.789a.3.3,0,1,0,.295.294A.3.3,0,0,0,3758.725,2800.789Z" transform="translate(-3698.823 -2652.765)" fill="#d9cbb4"/>
    <path id="Path_53185" data-name="Path 53185" d="M3741.653,2800.789a.3.3,0,1,0,.3.294A.3.3,0,0,0,3741.653,2800.789Z" transform="translate(-3685.406 -2652.765)" fill="#d9cbb4"/>
    <path id="Path_53186" data-name="Path 53186" d="M3753.036,2800.789a.3.3,0,1,0,.294.294A.3.3,0,0,0,3753.036,2800.789Z" transform="translate(-3694.351 -2652.765)" fill="#d9cbb4"/>
    <path id="Path_53187" data-name="Path 53187" d="M3735.962,2800.789a.3.3,0,1,0,.3.294A.3.3,0,0,0,3735.962,2800.789Z" transform="translate(-3680.933 -2652.765)" fill="#d9cbb4"/>
    <path id="Path_53188" data-name="Path 53188" d="M3738.863,2805.079a.3.3,0,1,0,.3.294A.3.3,0,0,0,3738.863,2805.079Z" transform="translate(-3683.213 -2656.137)" fill="#d9cbb4"/>
    <path id="Path_53189" data-name="Path 53189" d="M3750.246,2805.079a.3.3,0,1,0,.295.294A.3.3,0,0,0,3750.246,2805.079Z" transform="translate(-3692.158 -2656.137)" fill="#d9cbb4"/>
    <path id="Path_53190" data-name="Path 53190" d="M3744.554,2805.079a.3.3,0,1,0,.3.294A.3.3,0,0,0,3744.554,2805.079Z" transform="translate(-3687.686 -2656.137)" fill="#d9cbb4"/>
    <path id="Path_53191" data-name="Path 53191" d="M3747.344,2800.789a.3.3,0,1,0,.295.294A.3.3,0,0,0,3747.344,2800.789Z" transform="translate(-3689.878 -2652.765)" fill="#d9cbb4"/>
    <path id="Path_53192" data-name="Path 53192" d="M3773.008,2805.079a.3.3,0,1,0,.295.294A.3.3,0,0,0,3773.008,2805.079Z" transform="translate(-3710.048 -2656.137)" fill="#d9cbb4"/>
    <path id="Path_53193" data-name="Path 53193" d="M3809.944,2800.789a.3.3,0,1,0,.295.294A.3.3,0,0,0,3809.944,2800.789Z" transform="translate(-3739.077 -2652.765)" fill="#d9cbb4"/>
    <path id="Path_53194" data-name="Path 53194" d="M3798.561,2800.789a.3.3,0,1,0,.295.294A.3.3,0,0,0,3798.561,2800.789Z" transform="translate(-3730.131 -2652.765)" fill="#d9cbb4"/>
    <path id="Path_53195" data-name="Path 53195" d="M3801.462,2805.079a.3.3,0,1,0,.3.294A.3.3,0,0,0,3801.462,2805.079Z" transform="translate(-3732.411 -2656.137)" fill="#d9cbb4"/>
    <path id="Path_53196" data-name="Path 53196" d="M3804.252,2800.789a.3.3,0,1,0,.295.294A.3.3,0,0,0,3804.252,2800.789Z" transform="translate(-3734.604 -2652.765)" fill="#d9cbb4"/>
    <path id="Path_53197" data-name="Path 53197" d="M3812.844,2805.079a.3.3,0,1,0,.295.294A.3.3,0,0,0,3812.844,2805.079Z" transform="translate(-3741.356 -2656.137)" fill="#d9cbb4"/>
    <path id="Path_53198" data-name="Path 53198" d="M3818.534,2805.079a.3.3,0,1,0,.295.294A.3.3,0,0,0,3818.534,2805.079Z" transform="translate(-3745.829 -2656.137)" fill="#d9cbb4"/>
    <path id="Path_53199" data-name="Path 53199" d="M3775.8,2800.789a.3.3,0,1,0,.294.294A.3.3,0,0,0,3775.8,2800.789Z" transform="translate(-3712.241 -2652.765)" fill="#d9cbb4"/>
    <path id="Path_53200" data-name="Path 53200" d="M3815.633,2800.789a.3.3,0,1,0,.295.294A.3.3,0,0,0,3815.633,2800.789Z" transform="translate(-3743.549 -2652.765)" fill="#d9cbb4"/>
    <path id="Path_53201" data-name="Path 53201" d="M3784.389,2805.079a.3.3,0,1,0,.3.294A.3.3,0,0,0,3784.389,2805.079Z" transform="translate(-3718.993 -2656.137)" fill="#d9cbb4"/>
    <path id="Path_53202" data-name="Path 53202" d="M3781.489,2800.789a.3.3,0,1,0,.295.294A.3.3,0,0,0,3781.489,2800.789Z" transform="translate(-3716.713 -2652.765)" fill="#d9cbb4"/>
    <path id="Path_53203" data-name="Path 53203" d="M3778.7,2805.079a.3.3,0,1,0,.295.294A.3.3,0,0,0,3778.7,2805.079Z" transform="translate(-3714.52 -2656.137)" fill="#d9cbb4"/>
    <path id="Path_53204" data-name="Path 53204" d="M3795.771,2805.079a.3.3,0,1,0,.295.294A.3.3,0,0,0,3795.771,2805.079Z" transform="translate(-3727.938 -2656.137)" fill="#d9cbb4"/>
    <path id="Path_53205" data-name="Path 53205" d="M3792.871,2800.789a.3.3,0,1,0,.295.294A.3.3,0,0,0,3792.871,2800.789Z" transform="translate(-3725.659 -2652.765)" fill="#d9cbb4"/>
    <path id="Path_53206" data-name="Path 53206" d="M3790.08,2805.079a.3.3,0,1,0,.295.294A.3.3,0,0,0,3790.08,2805.079Z" transform="translate(-3723.466 -2656.137)" fill="#d9cbb4"/>
    <path id="Path_53207" data-name="Path 53207" d="M3787.18,2800.789a.3.3,0,1,0,.295.294A.3.3,0,0,0,3787.18,2800.789Z" transform="translate(-3721.186 -2652.765)" fill="#d9cbb4"/>
    <path id="Path_53208" data-name="Path 53208" d="M3807.152,2805.079a.3.3,0,1,0,.295.294A.3.3,0,0,0,3807.152,2805.079Z" transform="translate(-3736.884 -2656.137)" fill="#d9cbb4"/>
    <path id="Path_53209" data-name="Path 53209" d="M3687.646,2796.654a.3.3,0,1,0,.3.293A.3.3,0,0,0,3687.646,2796.654Z" transform="translate(-3642.96 -2649.515)" fill="#d9cbb4"/>
    <path id="Path_53210" data-name="Path 53210" d="M3684.746,2792.364a.3.3,0,1,0,.295.293A.3.3,0,0,0,3684.746,2792.364Z" transform="translate(-3640.68 -2646.143)" fill="#d9cbb4"/>
    <path id="Path_53211" data-name="Path 53211" d="M3701.818,2800.789a.3.3,0,1,0,.295.294A.3.3,0,0,0,3701.818,2800.789Z" transform="translate(-3654.098 -2652.765)" fill="#d9cbb4"/>
    <path id="Path_53212" data-name="Path 53212" d="M3690.436,2800.789a.3.3,0,1,0,.3.294A.3.3,0,0,0,3690.436,2800.789Z" transform="translate(-3645.152 -2652.765)" fill="#d9cbb4"/>
    <path id="Path_53213" data-name="Path 53213" d="M3693.337,2805.079a.3.3,0,1,0,.295.294A.3.3,0,0,0,3693.337,2805.079Z" transform="translate(-3647.432 -2656.137)" fill="#d9cbb4"/>
    <path id="Path_53214" data-name="Path 53214" d="M3699.028,2805.079a.3.3,0,1,0,.3.294A.3.3,0,0,0,3699.028,2805.079Z" transform="translate(-3651.905 -2656.137)" fill="#d9cbb4"/>
    <path id="Path_53215" data-name="Path 53215" d="M3696.127,2800.789a.3.3,0,1,0,.295.294A.3.3,0,0,0,3696.127,2800.789Z" transform="translate(-3649.625 -2652.765)" fill="#d9cbb4"/>
    <path id="Path_53216" data-name="Path 53216" d="M3687.646,2805.079a.3.3,0,1,0,.3.294A.3.3,0,0,0,3687.646,2805.079Z" transform="translate(-3642.96 -2656.137)" fill="#d9cbb4"/>
    <path id="Path_53217" data-name="Path 53217" d="M3670.574,2796.654a.3.3,0,1,0,.295.293A.3.3,0,0,0,3670.574,2796.654Z" transform="translate(-3629.542 -2649.515)" fill="#d9cbb4"/>
    <path id="Path_53218" data-name="Path 53218" d="M3673.365,2800.789a.3.3,0,1,0,.295.294A.3.3,0,0,0,3673.365,2800.789Z" transform="translate(-3631.735 -2652.765)" fill="#d9cbb4"/>
    <path id="Path_53219" data-name="Path 53219" d="M3818.534,2796.654a.3.3,0,1,0,.295.293A.3.3,0,0,0,3818.534,2796.654Z" transform="translate(-3745.829 -2649.515)" fill="#d9cbb4"/>
    <path id="Path_53220" data-name="Path 53220" d="M3681.956,2796.654a.3.3,0,1,0,.3.293A.3.3,0,0,0,3681.956,2796.654Z" transform="translate(-3638.487 -2649.515)" fill="#d9cbb4"/>
    <path id="Path_53221" data-name="Path 53221" d="M3684.746,2800.789a.3.3,0,1,0,.295.294A.3.3,0,0,0,3684.746,2800.789Z" transform="translate(-3640.68 -2652.765)" fill="#d9cbb4"/>
    <path id="Path_53222" data-name="Path 53222" d="M3676.265,2796.654a.3.3,0,1,0,.295.293A.3.3,0,0,0,3676.265,2796.654Z" transform="translate(-3634.015 -2649.515)" fill="#d9cbb4"/>
    <path id="Path_53223" data-name="Path 53223" d="M3679.055,2800.789a.3.3,0,1,0,.295.294A.3.3,0,0,0,3679.055,2800.789Z" transform="translate(-3636.207 -2652.765)" fill="#d9cbb4"/>
    <path id="Path_53224" data-name="Path 53224" d="M3721.791,2796.654a.3.3,0,1,0,.3.293A.3.3,0,0,0,3721.791,2796.654Z" transform="translate(-3669.795 -2649.515)" fill="#d9cbb4"/>
    <path id="Path_53225" data-name="Path 53225" d="M3730.272,2800.789a.3.3,0,1,0,.295.294A.3.3,0,0,0,3730.272,2800.789Z" transform="translate(-3676.461 -2652.765)" fill="#d9cbb4"/>
    <path id="Path_53226" data-name="Path 53226" d="M3724.581,2800.789a.3.3,0,1,0,.3.294A.3.3,0,0,0,3724.581,2800.789Z" transform="translate(-3671.988 -2652.765)" fill="#d9cbb4"/>
    <path id="Path_53227" data-name="Path 53227" d="M3721.791,2805.079a.3.3,0,1,0,.3.294A.3.3,0,0,0,3721.791,2805.079Z" transform="translate(-3669.795 -2656.137)" fill="#d9cbb4"/>
    <path id="Path_53228" data-name="Path 53228" d="M3727.482,2796.654a.3.3,0,1,0,.295.293A.3.3,0,0,0,3727.482,2796.654Z" transform="translate(-3674.267 -2649.515)" fill="#d9cbb4"/>
    <path id="Path_53229" data-name="Path 53229" d="M3704.719,2805.079a.3.3,0,1,0,.3.294A.3.3,0,0,0,3704.719,2805.079Z" transform="translate(-3656.377 -2656.137)" fill="#d9cbb4"/>
    <path id="Path_53230" data-name="Path 53230" d="M3724.581,2792.364a.3.3,0,1,0,.3.293A.3.3,0,0,0,3724.581,2792.364Z" transform="translate(-3671.988 -2646.143)" fill="#d9cbb4"/>
    <path id="Path_53231" data-name="Path 53231" d="M3727.482,2805.079a.3.3,0,1,0,.295.294A.3.3,0,0,0,3727.482,2805.079Z" transform="translate(-3674.267 -2656.137)" fill="#d9cbb4"/>
    <path id="Path_53232" data-name="Path 53232" d="M3718.89,2792.364a.3.3,0,1,0,.3.293A.3.3,0,0,0,3718.89,2792.364Z" transform="translate(-3667.515 -2646.143)" fill="#d9cbb4"/>
    <path id="Path_53233" data-name="Path 53233" d="M3710.409,2805.079a.3.3,0,1,0,.3.294A.3.3,0,0,0,3710.409,2805.079Z" transform="translate(-3660.85 -2656.137)" fill="#d9cbb4"/>
    <path id="Path_53234" data-name="Path 53234" d="M3713.2,2800.789a.3.3,0,1,0,.295.294A.3.3,0,0,0,3713.2,2800.789Z" transform="translate(-3663.043 -2652.765)" fill="#d9cbb4"/>
    <path id="Path_53235" data-name="Path 53235" d="M3707.509,2800.789a.3.3,0,1,0,.3.294A.3.3,0,0,0,3707.509,2800.789Z" transform="translate(-3658.57 -2652.765)" fill="#d9cbb4"/>
    <path id="Path_53236" data-name="Path 53236" d="M3716.1,2805.079a.3.3,0,1,0,.295.294A.3.3,0,0,0,3716.1,2805.079Z" transform="translate(-3665.323 -2656.137)" fill="#d9cbb4"/>
    <path id="Path_53237" data-name="Path 53237" d="M3716.1,2796.654a.3.3,0,1,0,.295.293A.3.3,0,0,0,3716.1,2796.654Z" transform="translate(-3665.323 -2649.515)" fill="#d9cbb4"/>
    <path id="Path_53238" data-name="Path 53238" d="M3718.89,2800.789a.3.3,0,1,0,.3.294A.3.3,0,0,0,3718.89,2800.789Z" transform="translate(-3667.515 -2652.765)" fill="#d9cbb4"/>
    <path id="Path_53239" data-name="Path 53239" d="M3713.2,2792.364a.3.3,0,1,0,.295.293A.3.3,0,0,0,3713.2,2792.364Z" transform="translate(-3663.043 -2646.143)" fill="#d9cbb4"/>
    <path id="Path_53240" data-name="Path 53240" d="M3846.988,2796.654a.3.3,0,1,0,.294.293A.3.3,0,0,0,3846.988,2796.654Z" transform="translate(-3768.191 -2649.515)" fill="#d9cbb4"/>
    <path id="Path_53241" data-name="Path 53241" d="M3889.613,2792.364a.3.3,0,1,0,.295.293A.3.3,0,0,0,3889.613,2792.364Z" transform="translate(-3801.692 -2646.143)" fill="#d9cbb4"/>
    <path id="Path_53242" data-name="Path 53242" d="M3892.515,2805.079a.3.3,0,1,0,.294.294A.3.3,0,0,0,3892.515,2805.079Z" transform="translate(-3803.972 -2656.137)" fill="#d9cbb4"/>
    <path id="Path_53243" data-name="Path 53243" d="M3892.515,2796.654a.3.3,0,1,0,.294.293A.3.3,0,0,0,3892.515,2796.654Z" transform="translate(-3803.972 -2649.515)" fill="#d9cbb4"/>
    <path id="Path_53244" data-name="Path 53244" d="M3889.613,2800.789a.3.3,0,1,0,.295.294A.3.3,0,0,0,3889.613,2800.789Z" transform="translate(-3801.692 -2652.765)" fill="#d9cbb4"/>
    <path id="Path_53245" data-name="Path 53245" d="M3895.3,2792.364a.3.3,0,1,0,.3.293A.3.3,0,0,0,3895.3,2792.364Z" transform="translate(-3806.165 -2646.143)" fill="#d9cbb4"/>
    <path id="Path_53246" data-name="Path 53246" d="M3895.3,2800.789a.3.3,0,1,0,.3.294A.3.3,0,0,0,3895.3,2800.789Z" transform="translate(-3806.165 -2652.765)" fill="#d9cbb4"/>
    <path id="Path_53247" data-name="Path 53247" d="M3898.2,2805.079a.3.3,0,1,0,.3.294A.3.3,0,0,0,3898.2,2805.079Z" transform="translate(-3808.445 -2656.137)" fill="#d9cbb4"/>
    <path id="Path_53248" data-name="Path 53248" d="M3886.823,2796.654a.3.3,0,1,0,.295.293A.3.3,0,0,0,3886.823,2796.654Z" transform="translate(-3799.5 -2649.515)" fill="#d9cbb4"/>
    <path id="Path_53249" data-name="Path 53249" d="M3883.922,2800.789a.3.3,0,1,0,.3.294A.3.3,0,0,0,3883.922,2800.789Z" transform="translate(-3797.22 -2652.765)" fill="#d9cbb4"/>
    <path id="Path_53250" data-name="Path 53250" d="M3878.232,2792.364a.3.3,0,1,0,.294.293A.3.3,0,0,0,3878.232,2792.364Z" transform="translate(-3792.747 -2646.143)" fill="#d9cbb4"/>
    <path id="Path_53251" data-name="Path 53251" d="M3875.443,2805.079a.3.3,0,1,0,.294.294A.3.3,0,0,0,3875.443,2805.079Z" transform="translate(-3790.555 -2656.137)" fill="#d9cbb4"/>
    <path id="Path_53252" data-name="Path 53252" d="M3875.443,2796.654a.3.3,0,1,0,.294.293A.3.3,0,0,0,3875.443,2796.654Z" transform="translate(-3790.555 -2649.515)" fill="#d9cbb4"/>
    <path id="Path_53253" data-name="Path 53253" d="M3881.132,2805.079a.3.3,0,1,0,.295.294A.3.3,0,0,0,3881.132,2805.079Z" transform="translate(-3795.027 -2656.137)" fill="#d9cbb4"/>
    <path id="Path_53254" data-name="Path 53254" d="M3881.132,2796.654a.3.3,0,1,0,.295.293A.3.3,0,0,0,3881.132,2796.654Z" transform="translate(-3795.027 -2649.515)" fill="#d9cbb4"/>
    <path id="Path_53255" data-name="Path 53255" d="M3883.922,2792.364a.3.3,0,1,0,.3.293A.3.3,0,0,0,3883.922,2792.364Z" transform="translate(-3797.22 -2646.143)" fill="#d9cbb4"/>
    <path id="Path_53256" data-name="Path 53256" d="M3898.2,2796.654a.3.3,0,1,0,.3.293A.3.3,0,0,0,3898.2,2796.654Z" transform="translate(-3808.445 -2649.515)" fill="#d9cbb4"/>
    <path id="Path_53257" data-name="Path 53257" d="M3886.823,2805.079a.3.3,0,1,0,.295.294A.3.3,0,0,0,3886.823,2805.079Z" transform="translate(-3799.5 -2656.137)" fill="#d9cbb4"/>
    <path id="Path_53258" data-name="Path 53258" d="M3878.232,2800.789a.3.3,0,1,0,.294.294A.3.3,0,0,0,3878.232,2800.789Z" transform="translate(-3792.747 -2652.765)" fill="#d9cbb4"/>
    <path id="Path_53259" data-name="Path 53259" d="M3920.969,2796.654a.3.3,0,1,0,.3.293A.3.3,0,0,0,3920.969,2796.654Z" transform="translate(-3826.335 -2649.515)" fill="#d9cbb4"/>
    <path id="Path_53260" data-name="Path 53260" d="M3918.067,2792.364a.3.3,0,1,0,.295.293A.3.3,0,0,0,3918.067,2792.364Z" transform="translate(-3824.055 -2646.143)" fill="#d9cbb4"/>
    <path id="Path_53261" data-name="Path 53261" d="M3918.067,2800.789a.3.3,0,1,0,.295.294A.3.3,0,0,0,3918.067,2800.789Z" transform="translate(-3824.055 -2652.765)" fill="#d9cbb4"/>
    <path id="Path_53262" data-name="Path 53262" d="M3915.277,2796.654a.3.3,0,1,0,.3.293A.3.3,0,0,0,3915.277,2796.654Z" transform="translate(-3821.862 -2649.515)" fill="#d9cbb4"/>
    <path id="Path_53263" data-name="Path 53263" d="M3926.658,2796.654a.3.3,0,1,0,.295.293A.3.3,0,0,0,3926.658,2796.654Z" transform="translate(-3830.807 -2649.515)" fill="#d9cbb4"/>
    <path id="Path_53264" data-name="Path 53264" d="M3923.758,2800.789a.3.3,0,1,0,.295.294A.3.3,0,0,0,3923.758,2800.789Z" transform="translate(-3828.528 -2652.765)" fill="#d9cbb4"/>
    <path id="Path_53265" data-name="Path 53265" d="M3932.35,2796.654a.3.3,0,1,0,.295.293A.3.3,0,0,0,3932.35,2796.654Z" transform="translate(-3835.28 -2649.515)" fill="#d9cbb4"/>
    <path id="Path_53266" data-name="Path 53266" d="M3912.376,2792.364a.3.3,0,1,0,.295.293A.3.3,0,0,0,3912.376,2792.364Z" transform="translate(-3819.582 -2646.143)" fill="#d9cbb4"/>
    <path id="Path_53267" data-name="Path 53267" d="M3909.586,2805.079a.3.3,0,1,0,.295.294A.3.3,0,0,0,3909.586,2805.079Z" transform="translate(-3817.389 -2656.137)" fill="#d9cbb4"/>
    <path id="Path_53268" data-name="Path 53268" d="M3903.9,2805.079a.3.3,0,1,0,.295.294A.3.3,0,0,0,3903.9,2805.079Z" transform="translate(-3812.918 -2656.137)" fill="#d9cbb4"/>
    <path id="Path_53269" data-name="Path 53269" d="M3903.9,2796.654a.3.3,0,1,0,.295.293A.3.3,0,0,0,3903.9,2796.654Z" transform="translate(-3812.918 -2649.515)" fill="#d9cbb4"/>
    <path id="Path_53270" data-name="Path 53270" d="M3901,2792.364a.3.3,0,1,0,.294.293A.3.3,0,0,0,3901,2792.364Z" transform="translate(-3810.637 -2646.143)" fill="#d9cbb4"/>
    <path id="Path_53271" data-name="Path 53271" d="M3906.686,2800.789a.3.3,0,1,0,.295.294A.3.3,0,0,0,3906.686,2800.789Z" transform="translate(-3815.11 -2652.765)" fill="#d9cbb4"/>
    <path id="Path_53272" data-name="Path 53272" d="M3909.586,2796.654a.3.3,0,1,0,.295.293A.3.3,0,0,0,3909.586,2796.654Z" transform="translate(-3817.389 -2649.515)" fill="#d9cbb4"/>
    <path id="Path_53273" data-name="Path 53273" d="M3912.376,2800.789a.3.3,0,1,0,.295.294A.3.3,0,0,0,3912.376,2800.789Z" transform="translate(-3819.582 -2652.765)" fill="#d9cbb4"/>
    <path id="Path_53274" data-name="Path 53274" d="M3906.686,2792.364a.3.3,0,1,0,.295.293A.3.3,0,0,0,3906.686,2792.364Z" transform="translate(-3815.11 -2646.143)" fill="#d9cbb4"/>
    <path id="Path_53275" data-name="Path 53275" d="M3901,2800.789a.3.3,0,1,0,.294.294A.3.3,0,0,0,3901,2800.789Z" transform="translate(-3810.637 -2652.765)" fill="#d9cbb4"/>
    <path id="Path_53276" data-name="Path 53276" d="M3821.324,2800.789a.3.3,0,1,0,.295.294A.3.3,0,0,0,3821.324,2800.789Z" transform="translate(-3748.021 -2652.765)" fill="#d9cbb4"/>
    <path id="Path_53277" data-name="Path 53277" d="M3838.4,2792.364a.3.3,0,1,0,.295.293A.3.3,0,0,0,3838.4,2792.364Z" transform="translate(-3761.439 -2646.143)" fill="#d9cbb4"/>
    <path id="Path_53278" data-name="Path 53278" d="M3838.4,2800.789a.3.3,0,1,0,.295.294A.3.3,0,0,0,3838.4,2800.789Z" transform="translate(-3761.439 -2652.765)" fill="#d9cbb4"/>
    <path id="Path_53279" data-name="Path 53279" d="M3844.087,2792.364a.3.3,0,1,0,.295.293A.3.3,0,0,0,3844.087,2792.364Z" transform="translate(-3765.912 -2646.143)" fill="#d9cbb4"/>
    <path id="Path_53280" data-name="Path 53280" d="M3835.606,2805.079a.3.3,0,1,0,.295.294A.3.3,0,0,0,3835.606,2805.079Z" transform="translate(-3759.246 -2656.137)" fill="#d9cbb4"/>
    <path id="Path_53281" data-name="Path 53281" d="M3841.3,2796.654a.3.3,0,1,0,.295.293A.3.3,0,0,0,3841.3,2796.654Z" transform="translate(-3763.719 -2649.515)" fill="#d9cbb4"/>
    <path id="Path_53282" data-name="Path 53282" d="M3841.3,2805.079a.3.3,0,1,0,.295.294A.3.3,0,0,0,3841.3,2805.079Z" transform="translate(-3763.719 -2656.137)" fill="#d9cbb4"/>
    <path id="Path_53283" data-name="Path 53283" d="M3844.087,2800.789a.3.3,0,1,0,.295.294A.3.3,0,0,0,3844.087,2800.789Z" transform="translate(-3765.912 -2652.765)" fill="#d9cbb4"/>
    <path id="Path_53284" data-name="Path 53284" d="M3832.705,2792.364a.3.3,0,1,0,.3.293A.3.3,0,0,0,3832.705,2792.364Z" transform="translate(-3756.966 -2646.143)" fill="#d9cbb4"/>
    <path id="Path_53285" data-name="Path 53285" d="M3835.606,2796.654a.3.3,0,1,0,.295.293A.3.3,0,0,0,3835.606,2796.654Z" transform="translate(-3759.246 -2649.515)" fill="#d9cbb4"/>
    <path id="Path_53286" data-name="Path 53286" d="M3824.225,2805.079a.3.3,0,1,0,.295.294A.3.3,0,0,0,3824.225,2805.079Z" transform="translate(-3750.302 -2656.137)" fill="#d9cbb4"/>
    <path id="Path_53287" data-name="Path 53287" d="M3824.225,2796.654a.3.3,0,1,0,.295.293A.3.3,0,0,0,3824.225,2796.654Z" transform="translate(-3750.302 -2649.515)" fill="#d9cbb4"/>
    <path id="Path_53288" data-name="Path 53288" d="M3821.324,2792.364a.3.3,0,1,0,.295.293A.3.3,0,0,0,3821.324,2792.364Z" transform="translate(-3748.021 -2646.143)" fill="#d9cbb4"/>
    <path id="Path_53289" data-name="Path 53289" d="M3832.705,2800.789a.3.3,0,1,0,.3.294A.3.3,0,0,0,3832.705,2800.789Z" transform="translate(-3756.966 -2652.765)" fill="#d9cbb4"/>
    <path id="Path_53290" data-name="Path 53290" d="M3827.016,2800.789a.3.3,0,1,0,.294.294A.3.3,0,0,0,3827.016,2800.789Z" transform="translate(-3752.494 -2652.765)" fill="#d9cbb4"/>
    <path id="Path_53291" data-name="Path 53291" d="M3872.542,2792.364a.3.3,0,1,0,.294.293A.3.3,0,0,0,3872.542,2792.364Z" transform="translate(-3788.275 -2646.143)" fill="#d9cbb4"/>
    <path id="Path_53292" data-name="Path 53292" d="M3829.917,2796.654a.3.3,0,1,0,.295.293A.3.3,0,0,0,3829.917,2796.654Z" transform="translate(-3754.775 -2649.515)" fill="#d9cbb4"/>
    <path id="Path_53293" data-name="Path 53293" d="M3829.917,2805.079a.3.3,0,1,0,.295.294A.3.3,0,0,0,3829.917,2805.079Z" transform="translate(-3754.775 -2656.137)" fill="#d9cbb4"/>
    <path id="Path_53294" data-name="Path 53294" d="M3827.016,2792.364a.3.3,0,1,0,.294.293A.3.3,0,0,0,3827.016,2792.364Z" transform="translate(-3752.494 -2646.143)" fill="#d9cbb4"/>
    <path id="Path_53295" data-name="Path 53295" d="M3858.369,2796.654a.3.3,0,1,0,.295.293A.3.3,0,0,0,3858.369,2796.654Z" transform="translate(-3777.136 -2649.515)" fill="#d9cbb4"/>
    <path id="Path_53296" data-name="Path 53296" d="M3866.85,2800.789a.3.3,0,1,0,.295.294A.3.3,0,0,0,3866.85,2800.789Z" transform="translate(-3783.802 -2652.765)" fill="#d9cbb4"/>
    <path id="Path_53297" data-name="Path 53297" d="M3864.06,2805.079a.3.3,0,1,0,.295.294A.3.3,0,0,0,3864.06,2805.079Z" transform="translate(-3781.609 -2656.137)" fill="#d9cbb4"/>
    <path id="Path_53298" data-name="Path 53298" d="M3861.159,2800.789a.3.3,0,1,0,.3.294A.3.3,0,0,0,3861.159,2800.789Z" transform="translate(-3779.329 -2652.765)" fill="#d9cbb4"/>
    <path id="Path_53299" data-name="Path 53299" d="M3864.06,2796.654a.3.3,0,1,0,.295.293A.3.3,0,0,0,3864.06,2796.654Z" transform="translate(-3781.609 -2649.515)" fill="#d9cbb4"/>
    <path id="Path_53300" data-name="Path 53300" d="M3869.751,2805.079a.3.3,0,1,0,.294.294A.3.3,0,0,0,3869.751,2805.079Z" transform="translate(-3786.082 -2656.137)" fill="#d9cbb4"/>
    <path id="Path_53301" data-name="Path 53301" d="M3872.542,2800.789a.3.3,0,1,0,.294.294A.3.3,0,0,0,3872.542,2800.789Z" transform="translate(-3788.275 -2652.765)" fill="#d9cbb4"/>
    <path id="Path_53302" data-name="Path 53302" d="M3846.988,2805.079a.3.3,0,1,0,.294.294A.3.3,0,0,0,3846.988,2805.079Z" transform="translate(-3768.191 -2656.137)" fill="#d9cbb4"/>
    <path id="Path_53303" data-name="Path 53303" d="M3869.751,2796.654a.3.3,0,1,0,.294.293A.3.3,0,0,0,3869.751,2796.654Z" transform="translate(-3786.082 -2649.515)" fill="#d9cbb4"/>
    <path id="Path_53304" data-name="Path 53304" d="M3849.778,2792.364a.3.3,0,1,0,.295.293A.3.3,0,0,0,3849.778,2792.364Z" transform="translate(-3770.385 -2646.143)" fill="#d9cbb4"/>
    <path id="Path_53305" data-name="Path 53305" d="M3849.778,2800.789a.3.3,0,1,0,.295.294A.3.3,0,0,0,3849.778,2800.789Z" transform="translate(-3770.385 -2652.765)" fill="#d9cbb4"/>
    <path id="Path_53306" data-name="Path 53306" d="M3852.678,2805.079a.3.3,0,1,0,.295.294A.3.3,0,0,0,3852.678,2805.079Z" transform="translate(-3772.664 -2656.137)" fill="#d9cbb4"/>
    <path id="Path_53307" data-name="Path 53307" d="M3855.469,2800.789a.3.3,0,1,0,.3.294A.3.3,0,0,0,3855.469,2800.789Z" transform="translate(-3774.857 -2652.765)" fill="#d9cbb4"/>
    <path id="Path_53308" data-name="Path 53308" d="M3855.469,2792.364a.3.3,0,1,0,.3.293A.3.3,0,0,0,3855.469,2792.364Z" transform="translate(-3774.857 -2646.143)" fill="#d9cbb4"/>
    <path id="Path_53309" data-name="Path 53309" d="M3858.369,2805.079a.3.3,0,1,0,.295.294A.3.3,0,0,0,3858.369,2805.079Z" transform="translate(-3777.136 -2656.137)" fill="#d9cbb4"/>
    <path id="Path_53310" data-name="Path 53310" d="M3852.678,2796.654a.3.3,0,1,0,.295.293A.3.3,0,0,0,3852.678,2796.654Z" transform="translate(-3772.664 -2649.515)" fill="#d9cbb4"/>
  </g>
</svg>
