<svg xmlns="http://www.w3.org/2000/svg" width="83.899" height="150.928" viewBox="0 0 83.899 150.928">
  <g id="char2" transform="translate(0 0)">
    <path id="Path_54867" data-name="Path 54867" d="M7262.037,2297.554a.469.469,0,0,1,.646.147,2.212,2.212,0,0,0,2.408,1.084.467.467,0,0,1,.254.9,2.636,2.636,0,0,1-.707.09,3.19,3.19,0,0,1-2.746-1.575A.468.468,0,0,1,7262.037,2297.554Z" transform="translate(-7229.755 -2264.914)" fill="#d9cbb4"/>
    <path id="Path_54868" data-name="Path 54868" d="M7246.964,2285.722a.468.468,0,0,1,.4-.528c.014,0,1.449-.221,1.449-1.182a.251.251,0,0,0-.079-.212c-.322-.3-1.387-.208-1.786-.175a.467.467,0,1,1-.078-.93,7.448,7.448,0,0,1,1.34-.016c-.016-.018-.033-.034-.05-.053a.467.467,0,1,1,.7-.621c.261.292.5.452.67.434a.428.428,0,0,0,.266-.2.466.466,0,0,1,.813.457,1.346,1.346,0,0,1-.971.667l-.064,0a1.232,1.232,0,0,1,.176.642c0,1.419-1.474,2-2.253,2.107a.435.435,0,0,1-.064,0A.468.468,0,0,1,7246.964,2285.722Z" transform="translate(-7211.143 -2252.93)" fill="#d9cbb4"/>
    <path id="Path_54869" data-name="Path 54869" d="M7267.071,2281.412a2.6,2.6,0,0,1-1.709-.724.467.467,0,1,1,.612-.705c1.026.89,1.687.339,1.811.218a.467.467,0,0,1,.669.651A1.961,1.961,0,0,1,7267.071,2281.412Z" transform="translate(-7233.446 -2251.411)" fill="#d9cbb4"/>
    <path id="Path_54870" data-name="Path 54870" d="M7277.558,2161.574l-1.609,1.43a3.049,3.049,0,0,0-.567.6.459.459,0,0,1,.155.02l.6.18a.51.51,0,0,1,.323.3.857.857,0,0,1-.243.987,1.044,1.044,0,0,1-.769.254,1.017,1.017,0,0,1-.416-.125,1.5,1.5,0,0,1-.62-1.76,2.844,2.844,0,0,1,.9-1.168l1.39-1.235c-.7-.695-1.433-1.363-2.189-1.989a.9.9,0,0,0-.279-.183c-.115-.024-.324.208-.393.281l-1.6,1.681a1.463,1.463,0,0,1,.575.694.685.685,0,0,1-.112.713,1.016,1.016,0,0,1-1.07.143.966.966,0,0,1-.679-.77,1.534,1.534,0,0,1,.133-.943.508.508,0,0,1,.16-.249,1.015,1.015,0,0,1,.262-.23.469.469,0,0,1,.049-.026l1.589-1.675a1.357,1.357,0,0,1,1.129-.532,1.585,1.585,0,0,1,.781.4,33.271,33.271,0,0,1,2.494,2.288.677.677,0,0,1,.215.439A.575.575,0,0,1,7277.558,2161.574Z" transform="translate(-7243.971 -2157.968)" fill="#d9cbb4"/>
    <path id="Path_54871" data-name="Path 54871" d="M7223.457,2279.03c.052.016.159.089,0,0Z" transform="translate(-7178.657 -2250.769)" fill="#d9cbb4"/>
    <path id="Path_54872" data-name="Path 54872" d="M7309.558,2189.318a.489.489,0,0,1,.472.169,1.361,1.361,0,0,1,.282,1.145,1.163,1.163,0,0,1-.7.866.994.994,0,0,1-.434.066.89.89,0,0,1-.313-.084,1.15,1.15,0,0,1-.465-1.446l.93-3.515a4.69,4.69,0,0,1-1.042.223.5.5,0,0,1-.532-.414.42.42,0,0,1,.372-.5,3.733,3.733,0,0,0,1.645-.562.459.459,0,0,1,.526.036.489.489,0,0,1,.185.507Z" transform="translate(-7285.294 -2178.84)" fill="#d9cbb4"/>
    <path id="Path_54873" data-name="Path 54873" d="M7338.157,2407.044c1.229-.325,3.21-1.192,3.3-2.138.035-.405-.28-1.261-2.812-2.45-.172-.081-.628-.295-.524-.732.112-.477.543-.466,1.827-.436a9.527,9.527,0,0,0,3.27-.254,2.186,2.186,0,0,0,1.164-1.1,2.78,2.78,0,0,0-.3-1.85,5.277,5.277,0,0,1-.452-1.795.467.467,0,0,1,.754-.375,8.314,8.314,0,0,0,2.934,1.7,2.493,2.493,0,0,0,2.694-.854c.478-.79.321-1.892-.493-3.468a.467.467,0,1,1,.83-.428c.615,1.191,1.333,2.941.462,4.379a3.4,3.4,0,0,1-3.716,1.278,6.829,6.829,0,0,1-2.268-1.107c.04.11.083.221.125.333a3.534,3.534,0,0,1,.312,2.49,3.052,3.052,0,0,1-1.622,1.627,8.464,8.464,0,0,1-3.414.364c1.536.9,2.244,1.811,2.158,2.761a2.761,2.761,0,0,1-1.5,1.914c.54.007,1.079.032,1.616.078a4.055,4.055,0,0,1,2.141.649,3.114,3.114,0,0,1,1.076,2.86,5.8,5.8,0,0,1-.4,1.5l2.661-1.3a2.879,2.879,0,0,1,2.414-.354,2.546,2.546,0,0,1,1.1,1.088,6.812,6.812,0,0,1,.9,4.375.467.467,0,0,1-.462.4.54.54,0,0,1-.063,0,.468.468,0,0,1-.4-.525,5.871,5.871,0,0,0-.773-3.772,1.618,1.618,0,0,0-.673-.709,2.167,2.167,0,0,0-1.633.336l-3.833,1.875a.468.468,0,0,1-.625-.625,7.493,7.493,0,0,0,.856-2.391,2.216,2.216,0,0,0-.707-2.011,3.246,3.246,0,0,0-1.661-.466,21.338,21.338,0,0,0-4.1.046.467.467,0,0,1-.169-.916Z" transform="translate(-7334.268 -2337.837)" fill="#d9cbb4"/>
    <path id="Path_54874" data-name="Path 54874" d="M7389.668,2399.889a.466.466,0,0,1,.627-.207,23.263,23.263,0,0,1,5.266,3.641.467.467,0,1,1-.631.688,22.318,22.318,0,0,0-5.055-3.495A.466.466,0,0,1,7389.668,2399.889Z" transform="translate(-7389.618 -2343.217)" fill="#d9cbb4"/>
    <path id="Path_54875" data-name="Path 54875" d="M7367.312,2390.489l.911,1.732a.467.467,0,0,1-.827.434l-.91-1.732a.467.467,0,1,1,.826-.434Z" transform="translate(-7356.77 -2336.017)" fill="#d9cbb4"/>
    <path id="Path_54876" data-name="Path 54876" d="M7360.836,2504.5a.474.474,0,0,1-.116-.015.467.467,0,0,1-.336-.569c.543-2.108,1.015-4.263,1.4-6.406a.467.467,0,1,1,.918.167c-.392,2.164-.869,4.342-1.417,6.472A.466.466,0,0,1,7360.836,2504.5Z" transform="translate(-7349.79 -2417.953)" fill="#d9cbb4"/>
    <path id="Path_54877" data-name="Path 54877" d="M7327.829,2433.007a.305.305,0,1,1,.3-.306A.307.307,0,0,1,7327.829,2433.007Z" transform="translate(-7307.541 -2368.333)" fill="#d9cbb4"/>
    <path id="Path_54878" data-name="Path 54878" d="M7324.856,2429.539a.306.306,0,1,1,.3-.306A.305.305,0,0,1,7324.856,2429.539Z" transform="translate(-7303.876 -2365.674)" fill="#d9cbb4"/>
    <path id="Path_54879" data-name="Path 54879" d="M7330.934,2436.309a.306.306,0,1,1,.31-.308A.307.307,0,0,1,7330.934,2436.309Z" transform="translate(-7311.38 -2370.864)" fill="#d9cbb4"/>
    <path id="Path_54880" data-name="Path 54880" d="M7327.829,2439.612a.306.306,0,1,1,.3-.306A.308.308,0,0,1,7327.829,2439.612Z" transform="translate(-7307.541 -2373.396)" fill="#d9cbb4"/>
    <path id="Path_54881" data-name="Path 54881" d="M7297.329,2439.612a.306.306,0,1,1,.306-.312A.306.306,0,0,1,7297.329,2439.612Z" transform="translate(-7269.925 -2373.396)" fill="#d9cbb4"/>
    <path id="Path_54882" data-name="Path 54882" d="M7291.245,2446.383a.305.305,0,1,1,.305-.313A.306.306,0,0,1,7291.245,2446.383Z" transform="translate(-7262.42 -2378.586)" fill="#d9cbb4"/>
    <path id="Path_54883" data-name="Path 54883" d="M7294.356,2442.915a.306.306,0,1,1,.307-.312A.306.306,0,0,1,7294.356,2442.915Z" transform="translate(-7266.259 -2375.928)" fill="#d9cbb4"/>
    <path id="Path_54884" data-name="Path 54884" d="M7297.329,2446.383a.305.305,0,1,1,.306-.311A.306.306,0,0,1,7297.329,2446.383Z" transform="translate(-7269.925 -2378.586)" fill="#d9cbb4"/>
    <path id="Path_54885" data-name="Path 54885" d="M7300.443,2442.915a.306.306,0,1,1,.3-.306A.307.307,0,0,1,7300.443,2442.915Z" transform="translate(-7273.764 -2375.927)" fill="#d9cbb4"/>
    <path id="Path_54886" data-name="Path 54886" d="M7303.416,2439.612a.306.306,0,1,1,.3-.306A.308.308,0,0,1,7303.416,2439.612Z" transform="translate(-7277.429 -2373.396)" fill="#d9cbb4"/>
    <path id="Path_54887" data-name="Path 54887" d="M7270.022,2442.915a.306.306,0,1,1,.3-.306A.307.307,0,0,1,7270.022,2442.915Z" transform="translate(-7236.241 -2375.927)" fill="#d9cbb4"/>
    <path id="Path_54888" data-name="Path 54888" d="M7279.073,2446.383a.306.306,0,1,1,.31-.3A.3.3,0,0,1,7279.073,2446.383Z" transform="translate(-7247.413 -2378.586)" fill="#d9cbb4"/>
    <path id="Path_54889" data-name="Path 54889" d="M7272.995,2446.383a.306.306,0,1,1,.3-.306A.306.306,0,0,1,7272.995,2446.383Z" transform="translate(-7239.907 -2378.586)" fill="#d9cbb4"/>
    <path id="Path_54890" data-name="Path 54890" d="M7306.525,2442.915a.306.306,0,1,1,.3-.313A.306.306,0,0,1,7306.525,2442.915Z" transform="translate(-7281.268 -2375.928)" fill="#d9cbb4"/>
    <path id="Path_54891" data-name="Path 54891" d="M7282.185,2442.915a.306.306,0,1,1,.311-.308A.307.307,0,0,1,7282.185,2442.915Z" transform="translate(-7251.25 -2375.928)" fill="#d9cbb4"/>
    <path id="Path_54892" data-name="Path 54892" d="M7288.273,2442.915a.306.306,0,1,1,.306-.313A.306.306,0,0,1,7288.273,2442.915Z" transform="translate(-7258.755 -2375.928)" fill="#d9cbb4"/>
    <path id="Path_54893" data-name="Path 54893" d="M7285.156,2446.383a.306.306,0,1,1,.311-.308A.306.306,0,0,1,7285.156,2446.383Z" transform="translate(-7254.917 -2378.586)" fill="#d9cbb4"/>
    <path id="Path_54894" data-name="Path 54894" d="M7321.745,2439.612a.306.306,0,1,1,.3-.306A.308.308,0,0,1,7321.745,2439.612Z" transform="translate(-7300.038 -2373.396)" fill="#d9cbb4"/>
    <path id="Path_54895" data-name="Path 54895" d="M7318.772,2429.539a.306.306,0,1,1,.3-.306A.306.306,0,0,1,7318.772,2429.539Z" transform="translate(-7296.371 -2365.674)" fill="#d9cbb4"/>
    <path id="Path_54896" data-name="Path 54896" d="M7318.772,2436.31a.306.306,0,1,1,.3-.306A.307.307,0,0,1,7318.772,2436.31Z" transform="translate(-7296.371 -2370.865)" fill="#d9cbb4"/>
    <path id="Path_54897" data-name="Path 54897" d="M7318.772,2442.915a.306.306,0,1,1,.3-.306A.307.307,0,0,1,7318.772,2442.915Z" transform="translate(-7296.371 -2375.927)" fill="#d9cbb4"/>
    <path id="Path_54898" data-name="Path 54898" d="M7321.745,2433.007a.305.305,0,1,1,.3-.306A.307.307,0,0,1,7321.745,2433.007Z" transform="translate(-7300.038 -2368.333)" fill="#d9cbb4"/>
    <path id="Path_54899" data-name="Path 54899" d="M7306.525,2436.309a.306.306,0,1,1,.3-.313A.305.305,0,0,1,7306.525,2436.309Z" transform="translate(-7281.268 -2370.864)" fill="#d9cbb4"/>
    <path id="Path_54900" data-name="Path 54900" d="M7324.856,2436.31a.306.306,0,1,1,.3-.306A.306.306,0,0,1,7324.856,2436.31Z" transform="translate(-7303.876 -2370.865)" fill="#d9cbb4"/>
    <path id="Path_54901" data-name="Path 54901" d="M7309.5,2439.612a.306.306,0,1,1,.305-.313A.307.307,0,0,1,7309.5,2439.612Z" transform="translate(-7284.935 -2373.396)" fill="#d9cbb4"/>
    <path id="Path_54902" data-name="Path 54902" d="M7315.581,2433.007a.305.305,0,1,1,.307-.312A.306.306,0,0,1,7315.581,2433.007Z" transform="translate(-7292.439 -2368.333)" fill="#d9cbb4"/>
    <path id="Path_54903" data-name="Path 54903" d="M7312.608,2442.915a.306.306,0,1,1,.307-.312A.306.306,0,0,1,7312.608,2442.915Z" transform="translate(-7288.772 -2375.928)" fill="#d9cbb4"/>
    <path id="Path_54904" data-name="Path 54904" d="M7315.581,2439.612a.306.306,0,1,1,.307-.312A.306.306,0,0,1,7315.581,2439.612Z" transform="translate(-7292.439 -2373.396)" fill="#d9cbb4"/>
    <path id="Path_54905" data-name="Path 54905" d="M7312.608,2436.309a.306.306,0,1,1,.307-.311A.306.306,0,0,1,7312.608,2436.309Z" transform="translate(-7288.772 -2370.864)" fill="#d9cbb4"/>
    <path id="Path_54906" data-name="Path 54906" d="M7201.7,2793.316a.322.322,0,1,1-.322.32A.323.323,0,0,1,7201.7,2793.316Z" transform="translate(-7151.985 -2644.999)" fill="#d9cbb4"/>
    <path id="Path_54907" data-name="Path 54907" d="M7164.764,2797.606a.322.322,0,1,1-.322.32A.325.325,0,0,1,7164.764,2797.606Z" transform="translate(-7106.427 -2648.287)" fill="#d9cbb4"/>
    <path id="Path_54908" data-name="Path 54908" d="M7201.7,2801.742a.322.322,0,1,1-.322.321A.323.323,0,0,1,7201.7,2801.742Z" transform="translate(-7151.985 -2651.458)" fill="#d9cbb4"/>
    <path id="Path_54909" data-name="Path 54909" d="M7161.865,2793.316a.322.322,0,1,1-.322.32A.323.323,0,0,1,7161.865,2793.316Z" transform="translate(-7102.851 -2644.999)" fill="#d9cbb4"/>
    <path id="Path_54910" data-name="Path 54910" d="M7176.146,2797.606a.322.322,0,1,1-.322.32A.323.323,0,0,1,7176.146,2797.606Z" transform="translate(-7120.467 -2648.287)" fill="#d9cbb4"/>
    <path id="Path_54911" data-name="Path 54911" d="M7173.246,2801.742a.322.322,0,1,1-.322.321A.323.323,0,0,1,7173.246,2801.742Z" transform="translate(-7116.889 -2651.458)" fill="#d9cbb4"/>
    <path id="Path_54912" data-name="Path 54912" d="M7170.456,2797.606a.322.322,0,1,1-.322.32A.322.322,0,0,1,7170.456,2797.606Z" transform="translate(-7113.447 -2648.287)" fill="#d9cbb4"/>
    <path id="Path_54913" data-name="Path 54913" d="M7153.383,2797.606a.322.322,0,1,1-.322.32A.323.323,0,0,1,7153.383,2797.606Z" transform="translate(-7092.389 -2648.287)" fill="#d9cbb4"/>
    <path id="Path_54914" data-name="Path 54914" d="M7144.792,2793.316a.322.322,0,1,1-.321.32A.324.324,0,0,1,7144.792,2793.316Z" transform="translate(-7081.793 -2644.999)" fill="#d9cbb4"/>
    <path id="Path_54915" data-name="Path 54915" d="M7176.146,2789.179a.322.322,0,1,1-.322.32A.323.323,0,0,1,7176.146,2789.179Z" transform="translate(-7120.467 -2641.828)" fill="#d9cbb4"/>
    <path id="Path_54916" data-name="Path 54916" d="M7142,2797.606a.322.322,0,1,1-.321.32A.323.323,0,0,1,7142,2797.606Z" transform="translate(-7078.352 -2648.287)" fill="#d9cbb4"/>
    <path id="Path_54917" data-name="Path 54917" d="M7150.482,2793.316a.322.322,0,1,1-.321.32A.323.323,0,0,1,7150.482,2793.316Z" transform="translate(-7088.813 -2644.999)" fill="#d9cbb4"/>
    <path id="Path_54918" data-name="Path 54918" d="M7156.172,2793.316a.322.322,0,1,1-.321.32A.323.323,0,0,1,7156.172,2793.316Z" transform="translate(-7095.832 -2644.999)" fill="#d9cbb4"/>
    <path id="Path_54919" data-name="Path 54919" d="M7147.693,2797.606a.322.322,0,1,1-.321.32A.324.324,0,0,1,7147.693,2797.606Z" transform="translate(-7085.372 -2648.287)" fill="#d9cbb4"/>
    <path id="Path_54920" data-name="Path 54920" d="M7159.075,2797.606a.322.322,0,1,1-.322.32A.322.322,0,0,1,7159.075,2797.606Z" transform="translate(-7099.41 -2648.287)" fill="#d9cbb4"/>
    <path id="Path_54921" data-name="Path 54921" d="M7173.246,2793.316a.322.322,0,1,1-.322.32A.323.323,0,0,1,7173.246,2793.316Z" transform="translate(-7116.889 -2644.999)" fill="#d9cbb4"/>
    <path id="Path_54922" data-name="Path 54922" d="M7187.528,2797.606a.322.322,0,1,1-.322.32A.323.323,0,0,1,7187.528,2797.606Z" transform="translate(-7134.506 -2648.287)" fill="#d9cbb4"/>
    <path id="Path_54923" data-name="Path 54923" d="M7178.937,2801.742a.322.322,0,1,1-.321.321A.323.323,0,0,1,7178.937,2801.742Z" transform="translate(-7123.909 -2651.458)" fill="#d9cbb4"/>
    <path id="Path_54924" data-name="Path 54924" d="M7187.528,2789.179a.322.322,0,1,1-.322.32A.323.323,0,0,1,7187.528,2789.179Z" transform="translate(-7134.506 -2641.828)" fill="#d9cbb4"/>
    <path id="Path_54925" data-name="Path 54925" d="M7190.317,2801.742a.322.322,0,1,1-.321.321A.323.323,0,0,1,7190.317,2801.742Z" transform="translate(-7137.946 -2651.458)" fill="#d9cbb4"/>
    <path id="Path_54926" data-name="Path 54926" d="M7190.317,2793.316a.322.322,0,1,1-.321.32A.323.323,0,0,1,7190.317,2793.316Z" transform="translate(-7137.946 -2644.999)" fill="#d9cbb4"/>
    <path id="Path_54927" data-name="Path 54927" d="M7184.627,2801.742a.322.322,0,1,1-.321.321A.323.323,0,0,1,7184.627,2801.742Z" transform="translate(-7130.927 -2651.458)" fill="#d9cbb4"/>
    <path id="Path_54928" data-name="Path 54928" d="M7139.1,2793.316a.322.322,0,1,1-.322.32A.323.323,0,0,1,7139.1,2793.316Z" transform="translate(-7074.773 -2644.999)" fill="#d9cbb4"/>
    <path id="Path_54929" data-name="Path 54929" d="M7181.837,2789.179a.322.322,0,1,1-.321.32A.323.323,0,0,1,7181.837,2789.179Z" transform="translate(-7127.487 -2641.828)" fill="#d9cbb4"/>
    <path id="Path_54930" data-name="Path 54930" d="M7184.627,2793.316a.322.322,0,1,1-.321.32A.323.323,0,0,1,7184.627,2793.316Z" transform="translate(-7130.927 -2644.999)" fill="#d9cbb4"/>
    <path id="Path_54931" data-name="Path 54931" d="M7181.837,2797.606a.322.322,0,1,1-.321.32A.323.323,0,0,1,7181.837,2797.606Z" transform="translate(-7127.487 -2648.287)" fill="#d9cbb4"/>
    <path id="Path_54932" data-name="Path 54932" d="M7193.217,2797.606a.322.322,0,1,1-.321.32A.324.324,0,0,1,7193.217,2797.606Z" transform="translate(-7141.524 -2648.287)" fill="#d9cbb4"/>
    <path id="Path_54933" data-name="Path 54933" d="M7198.91,2797.606a.322.322,0,1,1-.321.32A.324.324,0,0,1,7198.91,2797.606Z" transform="translate(-7148.545 -2648.287)" fill="#d9cbb4"/>
    <path id="Path_54934" data-name="Path 54934" d="M7178.937,2793.316a.322.322,0,1,1-.321.32A.323.323,0,0,1,7178.937,2793.316Z" transform="translate(-7123.909 -2644.999)" fill="#d9cbb4"/>
    <path id="Path_54935" data-name="Path 54935" d="M7196.008,2793.316a.322.322,0,1,1-.321.32A.323.323,0,0,1,7196.008,2793.316Z" transform="translate(-7144.966 -2644.999)" fill="#d9cbb4"/>
    <path id="Path_54936" data-name="Path 54936" d="M7193.217,2789.179a.322.322,0,1,1-.321.32A.324.324,0,0,1,7193.217,2789.179Z" transform="translate(-7141.524 -2641.828)" fill="#d9cbb4"/>
    <path id="Path_54937" data-name="Path 54937" d="M7196.008,2801.742a.322.322,0,1,1-.321.321A.323.323,0,0,1,7196.008,2801.742Z" transform="translate(-7144.966 -2651.458)" fill="#d9cbb4"/>
    <path id="Path_54938" data-name="Path 54938" d="M7167.554,2793.316a.322.322,0,1,1-.322.32A.324.324,0,0,1,7167.554,2793.316Z" transform="translate(-7109.869 -2644.999)" fill="#d9cbb4"/>
    <path id="Path_54939" data-name="Path 54939" d="M7073.711,2789.179a.322.322,0,1,1-.321.32A.323.323,0,0,1,7073.711,2789.179Z" transform="translate(-6994.121 -2641.828)" fill="#d9cbb4"/>
    <path id="Path_54940" data-name="Path 54940" d="M7070.812,2784.889a.322.322,0,1,1-.321.32A.322.322,0,0,1,7070.812,2784.889Z" transform="translate(-6990.543 -2638.54)" fill="#d9cbb4"/>
    <path id="Path_54941" data-name="Path 54941" d="M7087.885,2793.316a.322.322,0,1,1-.322.32A.323.323,0,0,1,7087.885,2793.316Z" transform="translate(-7011.601 -2644.999)" fill="#d9cbb4"/>
    <path id="Path_54942" data-name="Path 54942" d="M7068.021,2780.753a.322.322,0,1,1-.321.321A.322.322,0,0,1,7068.021,2780.753Z" transform="translate(-6987.102 -2635.368)" fill="#d9cbb4"/>
    <path id="Path_54943" data-name="Path 54943" d="M7070.812,2793.316a.322.322,0,1,1-.321.32A.323.323,0,0,1,7070.812,2793.316Z" transform="translate(-6990.543 -2644.999)" fill="#d9cbb4"/>
    <path id="Path_54944" data-name="Path 54944" d="M7085.094,2797.606a.322.322,0,1,1-.321.32A.324.324,0,0,1,7085.094,2797.606Z" transform="translate(-7008.16 -2648.287)" fill="#d9cbb4"/>
    <path id="Path_54945" data-name="Path 54945" d="M7079.4,2789.179a.322.322,0,1,1-.321.32A.324.324,0,0,1,7079.4,2789.179Z" transform="translate(-7001.141 -2641.828)" fill="#d9cbb4"/>
    <path id="Path_54946" data-name="Path 54946" d="M7082.194,2793.316a.322.322,0,1,1-.322.32A.323.323,0,0,1,7082.194,2793.316Z" transform="translate(-7004.582 -2644.999)" fill="#d9cbb4"/>
    <path id="Path_54947" data-name="Path 54947" d="M7076.5,2793.316a.322.322,0,1,1-.321.32A.323.323,0,0,1,7076.5,2793.316Z" transform="translate(-6997.563 -2644.999)" fill="#d9cbb4"/>
    <path id="Path_54948" data-name="Path 54948" d="M7059.431,2784.889a.322.322,0,1,1-.322.32A.323.323,0,0,1,7059.431,2784.889Z" transform="translate(-6976.504 -2638.54)" fill="#d9cbb4"/>
    <path id="Path_54949" data-name="Path 54949" d="M7059.431,2793.316a.322.322,0,1,1-.322.32A.323.323,0,0,1,7059.431,2793.316Z" transform="translate(-6976.504 -2644.999)" fill="#d9cbb4"/>
    <path id="Path_54950" data-name="Path 54950" d="M7056.64,2789.179a.322.322,0,1,1-.322.32A.323.323,0,0,1,7056.64,2789.179Z" transform="translate(-6973.063 -2641.828)" fill="#d9cbb4"/>
    <path id="Path_54951" data-name="Path 54951" d="M7062.332,2789.179a.322.322,0,1,1-.321.32A.323.323,0,0,1,7062.332,2789.179Z" transform="translate(-6980.083 -2641.828)" fill="#d9cbb4"/>
    <path id="Path_54952" data-name="Path 54952" d="M7065.122,2784.889a.322.322,0,1,1-.321.32A.323.323,0,0,1,7065.122,2784.889Z" transform="translate(-6983.524 -2638.54)" fill="#d9cbb4"/>
    <path id="Path_54953" data-name="Path 54953" d="M7068.021,2789.179a.322.322,0,1,1-.321.32A.323.323,0,0,1,7068.021,2789.179Z" transform="translate(-6987.102 -2641.828)" fill="#d9cbb4"/>
    <path id="Path_54954" data-name="Path 54954" d="M7065.122,2793.316a.322.322,0,1,1-.321.32A.324.324,0,0,1,7065.122,2793.316Z" transform="translate(-6983.524 -2644.999)" fill="#d9cbb4"/>
    <path id="Path_54955" data-name="Path 54955" d="M7099.265,2793.316a.322.322,0,1,1-.322.32A.323.323,0,0,1,7099.265,2793.316Z" transform="translate(-7025.639 -2644.999)" fill="#d9cbb4"/>
    <path id="Path_54956" data-name="Path 54956" d="M7124.929,2797.606a.322.322,0,1,1-.321.32A.323.323,0,0,1,7124.929,2797.606Z" transform="translate(-7057.293 -2648.287)" fill="#d9cbb4"/>
    <path id="Path_54957" data-name="Path 54957" d="M7119.239,2797.606a.322.322,0,1,1-.322.32A.324.324,0,0,1,7119.239,2797.606Z" transform="translate(-7050.274 -2648.287)" fill="#d9cbb4"/>
    <path id="Path_54958" data-name="Path 54958" d="M7122.029,2793.316a.322.322,0,1,1-.322.32A.323.323,0,0,1,7122.029,2793.316Z" transform="translate(-7053.716 -2644.999)" fill="#d9cbb4"/>
    <path id="Path_54959" data-name="Path 54959" d="M7113.548,2797.606a.322.322,0,1,1-.321.32A.324.324,0,0,1,7113.548,2797.606Z" transform="translate(-7043.256 -2648.287)" fill="#d9cbb4"/>
    <path id="Path_54960" data-name="Path 54960" d="M7116.337,2793.316a.322.322,0,1,1-.321.32A.324.324,0,0,1,7116.337,2793.316Z" transform="translate(-7046.696 -2644.999)" fill="#d9cbb4"/>
    <path id="Path_54961" data-name="Path 54961" d="M7133.411,2793.316a.322.322,0,1,1-.322.32A.324.324,0,0,1,7133.411,2793.316Z" transform="translate(-7067.754 -2644.999)" fill="#d9cbb4"/>
    <path id="Path_54962" data-name="Path 54962" d="M7090.784,2797.606a.322.322,0,1,1-.321.32A.323.323,0,0,1,7090.784,2797.606Z" transform="translate(-7015.178 -2648.287)" fill="#d9cbb4"/>
    <path id="Path_54963" data-name="Path 54963" d="M7130.621,2797.606a.322.322,0,1,1-.321.32A.324.324,0,0,1,7130.621,2797.606Z" transform="translate(-7064.314 -2648.287)" fill="#d9cbb4"/>
    <path id="Path_54964" data-name="Path 54964" d="M7127.719,2793.316a.322.322,0,1,1-.321.32A.324.324,0,0,1,7127.719,2793.316Z" transform="translate(-7060.736 -2644.999)" fill="#d9cbb4"/>
    <path id="Path_54965" data-name="Path 54965" d="M7136.313,2797.606a.322.322,0,1,1-.322.32A.324.324,0,0,1,7136.313,2797.606Z" transform="translate(-7071.334 -2648.287)" fill="#d9cbb4"/>
    <path id="Path_54966" data-name="Path 54966" d="M7096.475,2797.606a.322.322,0,1,1-.322.32A.324.324,0,0,1,7096.475,2797.606Z" transform="translate(-7022.197 -2648.287)" fill="#d9cbb4"/>
    <path id="Path_54967" data-name="Path 54967" d="M7110.648,2793.316a.322.322,0,1,1-.321.32A.323.323,0,0,1,7110.648,2793.316Z" transform="translate(-7039.678 -2644.999)" fill="#d9cbb4"/>
    <path id="Path_54968" data-name="Path 54968" d="M7093.575,2793.316a.322.322,0,1,1-.322.32A.323.323,0,0,1,7093.575,2793.316Z" transform="translate(-7018.62 -2644.999)" fill="#d9cbb4"/>
    <path id="Path_54969" data-name="Path 54969" d="M7107.858,2797.606a.322.322,0,1,1-.322.32A.323.323,0,0,1,7107.858,2797.606Z" transform="translate(-7036.237 -2648.287)" fill="#d9cbb4"/>
    <path id="Path_54970" data-name="Path 54970" d="M7102.166,2797.606a.322.322,0,1,1-.321.32A.323.323,0,0,1,7102.166,2797.606Z" transform="translate(-7029.218 -2648.287)" fill="#d9cbb4"/>
    <path id="Path_54971" data-name="Path 54971" d="M7104.956,2793.316a.322.322,0,1,1-.321.32A.323.323,0,0,1,7104.956,2793.316Z" transform="translate(-7032.659 -2644.999)" fill="#d9cbb4"/>
    <path id="Path_54972" data-name="Path 54972" d="M7267.2,2797.606a.322.322,0,1,1-.322.32A.323.323,0,0,1,7267.2,2797.606Z" transform="translate(-7232.775 -2648.287)" fill="#d9cbb4"/>
    <path id="Path_54973" data-name="Path 54973" d="M7332.587,2793.316a.322.322,0,1,1-.321.32A.323.323,0,0,1,7332.587,2793.316Z" transform="translate(-7313.427 -2644.999)" fill="#d9cbb4"/>
    <path id="Path_54974" data-name="Path 54974" d="M7335.489,2789.179a.322.322,0,1,1-.322.32A.323.323,0,0,1,7335.489,2789.179Z" transform="translate(-7317.007 -2641.828)" fill="#d9cbb4"/>
    <path id="Path_54975" data-name="Path 54975" d="M7326.9,2793.316a.322.322,0,1,1-.321.32A.322.322,0,0,1,7326.9,2793.316Z" transform="translate(-7306.409 -2644.999)" fill="#d9cbb4"/>
    <path id="Path_54976" data-name="Path 54976" d="M7349.66,2793.316a.322.322,0,1,1-.321.32A.323.323,0,0,1,7349.66,2793.316Z" transform="translate(-7334.486 -2644.999)" fill="#d9cbb4"/>
    <path id="Path_54977" data-name="Path 54977" d="M7338.28,2793.316a.322.322,0,1,1-.322.32A.323.323,0,0,1,7338.28,2793.316Z" transform="translate(-7320.449 -2644.999)" fill="#d9cbb4"/>
    <path id="Path_54978" data-name="Path 54978" d="M7341.179,2789.179a.322.322,0,1,1-.322.32A.322.322,0,0,1,7341.179,2789.179Z" transform="translate(-7324.025 -2641.828)" fill="#d9cbb4"/>
    <path id="Path_54979" data-name="Path 54979" d="M7346.869,2789.179a.322.322,0,1,1-.321.32A.323.323,0,0,1,7346.869,2789.179Z" transform="translate(-7331.044 -2641.828)" fill="#d9cbb4"/>
    <path id="Path_54980" data-name="Path 54980" d="M7343.968,2793.316a.322.322,0,1,1-.322.32A.324.324,0,0,1,7343.968,2793.316Z" transform="translate(-7327.466 -2644.999)" fill="#d9cbb4"/>
    <path id="Path_54981" data-name="Path 54981" d="M7329.8,2789.179a.322.322,0,1,1-.322.32A.322.322,0,0,1,7329.8,2789.179Z" transform="translate(-7309.987 -2641.828)" fill="#d9cbb4"/>
    <path id="Path_54982" data-name="Path 54982" d="M7309.824,2793.316a.322.322,0,1,1-.322.32A.323.323,0,0,1,7309.824,2793.316Z" transform="translate(-7285.351 -2644.999)" fill="#d9cbb4"/>
    <path id="Path_54983" data-name="Path 54983" d="M7312.725,2797.606a.322.322,0,1,1-.322.32A.323.323,0,0,1,7312.725,2797.606Z" transform="translate(-7288.929 -2648.287)" fill="#d9cbb4"/>
    <path id="Path_54984" data-name="Path 54984" d="M7324.107,2797.606a.322.322,0,1,1-.321.32A.323.323,0,0,1,7324.107,2797.606Z" transform="translate(-7302.968 -2648.287)" fill="#d9cbb4"/>
    <path id="Path_54985" data-name="Path 54985" d="M7307.035,2797.606a.322.322,0,1,1-.322.32A.324.324,0,0,1,7307.035,2797.606Z" transform="translate(-7281.91 -2648.287)" fill="#d9cbb4"/>
    <path id="Path_54986" data-name="Path 54986" d="M7304.133,2793.316a.322.322,0,1,1-.321.32A.323.323,0,0,1,7304.133,2793.316Z" transform="translate(-7278.332 -2644.999)" fill="#d9cbb4"/>
    <path id="Path_54987" data-name="Path 54987" d="M7315.514,2793.316a.322.322,0,1,1-.321.32A.324.324,0,0,1,7315.514,2793.316Z" transform="translate(-7292.37 -2644.999)" fill="#d9cbb4"/>
    <path id="Path_54988" data-name="Path 54988" d="M7318.415,2797.606a.322.322,0,1,1-.322.32A.324.324,0,0,1,7318.415,2797.606Z" transform="translate(-7295.948 -2648.287)" fill="#d9cbb4"/>
    <path id="Path_54989" data-name="Path 54989" d="M7321.206,2793.316a.322.322,0,1,1-.322.32A.323.323,0,0,1,7321.206,2793.316Z" transform="translate(-7299.389 -2644.999)" fill="#d9cbb4"/>
    <path id="Path_54990" data-name="Path 54990" d="M7363.942,2780.753a.322.322,0,1,1-.321.321A.322.322,0,0,1,7363.942,2780.753Z" transform="translate(-7352.103 -2635.368)" fill="#d9cbb4"/>
    <path id="Path_54991" data-name="Path 54991" d="M7358.252,2780.753a.322.322,0,1,1-.322.321A.324.324,0,0,1,7358.252,2780.753Z" transform="translate(-7345.083 -2635.368)" fill="#d9cbb4"/>
    <path id="Path_54992" data-name="Path 54992" d="M7363.942,2789.179a.322.322,0,1,1-.321.32A.323.323,0,0,1,7363.942,2789.179Z" transform="translate(-7352.103 -2641.828)" fill="#d9cbb4"/>
    <path id="Path_54993" data-name="Path 54993" d="M7361.042,2784.889a.322.322,0,1,1-.322.32A.322.322,0,0,1,7361.042,2784.889Z" transform="translate(-7348.525 -2638.54)" fill="#d9cbb4"/>
    <path id="Path_54994" data-name="Path 54994" d="M7366.732,2784.889a.322.322,0,1,1-.321.32A.322.322,0,0,1,7366.732,2784.889Z" transform="translate(-7355.543 -2638.54)" fill="#d9cbb4"/>
    <path id="Path_54995" data-name="Path 54995" d="M7369.632,2789.179a.322.322,0,1,1-.321.32A.323.323,0,0,1,7369.632,2789.179Z" transform="translate(-7359.121 -2641.828)" fill="#d9cbb4"/>
    <path id="Path_54996" data-name="Path 54996" d="M7372.423,2784.889a.322.322,0,1,1-.322.32A.323.323,0,0,1,7372.423,2784.889Z" transform="translate(-7362.563 -2638.54)" fill="#d9cbb4"/>
    <path id="Path_54997" data-name="Path 54997" d="M7369.632,2780.753a.322.322,0,1,1-.321.321A.323.323,0,0,1,7369.632,2780.753Z" transform="translate(-7359.121 -2635.368)" fill="#d9cbb4"/>
    <path id="Path_54998" data-name="Path 54998" d="M7349.66,2784.889a.322.322,0,1,1-.321.32A.322.322,0,0,1,7349.66,2784.889Z" transform="translate(-7334.486 -2638.54)" fill="#d9cbb4"/>
    <path id="Path_54999" data-name="Path 54999" d="M7352.56,2789.179a.322.322,0,1,1-.321.32A.323.323,0,0,1,7352.56,2789.179Z" transform="translate(-7338.063 -2641.828)" fill="#d9cbb4"/>
    <path id="Path_55000" data-name="Path 55000" d="M7352.56,2780.753a.322.322,0,1,1-.321.321A.323.323,0,0,1,7352.56,2780.753Z" transform="translate(-7338.063 -2635.368)" fill="#d9cbb4"/>
    <path id="Path_55001" data-name="Path 55001" d="M7204.6,2797.606a.322.322,0,1,1-.321.32A.324.324,0,0,1,7204.6,2797.606Z" transform="translate(-7155.563 -2648.287)" fill="#d9cbb4"/>
    <path id="Path_55002" data-name="Path 55002" d="M7358.252,2789.179a.322.322,0,1,1-.322.32A.324.324,0,0,1,7358.252,2789.179Z" transform="translate(-7345.083 -2641.828)" fill="#d9cbb4"/>
    <path id="Path_55003" data-name="Path 55003" d="M7355.35,2776.463a.322.322,0,1,1-.322.321A.324.324,0,0,1,7355.35,2776.463Z" transform="translate(-7341.504 -2632.08)" fill="#d9cbb4"/>
    <path id="Path_55004" data-name="Path 55004" d="M7355.35,2793.316a.322.322,0,1,1-.322.32A.324.324,0,0,1,7355.35,2793.316Z" transform="translate(-7341.504 -2644.999)" fill="#d9cbb4"/>
    <path id="Path_55005" data-name="Path 55005" d="M7355.35,2784.889a.322.322,0,1,1-.322.32A.323.323,0,0,1,7355.35,2784.889Z" transform="translate(-7341.504 -2638.54)" fill="#d9cbb4"/>
    <path id="Path_55006" data-name="Path 55006" d="M7082.826,2303.8c.023-.264.045-.528.068-.792a38.435,38.435,0,0,1,.727-5.137c.345-1.724.762-3.436,1.271-5.119a15.154,15.154,0,0,1,1.323-3.423c.175-.292.418-.639.784-.685a.637.637,0,0,1,.548.193,1.186,1.186,0,0,1,.082.1c.462-3.532.766-6.826.769-6.861a.3.3,0,0,1,.008-.036,2.569,2.569,0,0,1-1.055-.974,1.322,1.322,0,0,1,.05-1.293c.446-.8,1.026-.8,1.9-.556l.329-1.729a20.01,20.01,0,0,1-4.387-2.615.464.464,0,0,1-.092-.636c.087-.125,8.846-12.6,8.846-21.962,0-8.837-5.456-20.282-6.156-21.711a5.025,5.025,0,0,1-2.958-4.513c0-1.9,2.324-4.592,3.163-5.5a5.022,5.022,0,0,1-.887-1.413c-.662-1.732.5-3.2,1.976-5.054a23.96,23.96,0,0,0,3.539-5.546c0-.01.009-.021.013-.03a38.658,38.658,0,0,1-4.007-.821h-.007l-.083-.022-.176-.05a30.934,30.934,0,0,1-3.566-1.19c-.171-.068-.336-.137-.5-.208a17.155,17.155,0,0,1-6.088-4.146c-3.72-4.191-5.8-10.172-5.189-14.886a8.293,8.293,0,0,1,3.3-5.911c-.006-.232-.035-.549-.063-.879-.138-1.567-.2-2.813.352-3.426a1.012,1.012,0,0,1,.624-.327l-.07-1.114a4.5,4.5,0,0,1-2.5-3.089,12.192,12.192,0,0,1-.277-3.033c0-.313,0-.626-.013-.939a18.372,18.372,0,0,0-.567-3.946l-.039-.151a4.568,4.568,0,0,1-.219-1.527,1.6,1.6,0,0,1,1.1-1.483,1.091,1.091,0,0,0,1.183-1.3,2.075,2.075,0,0,1,2.768,1.037c.08.132.157.271.232.414a1.519,1.519,0,0,1,.894-.443c.919-.128,2.165.489,2.652,2.645a39.773,39.773,0,0,1,.829,5.261l.037-.007a7.678,7.678,0,0,1,1.55-1.366,3.1,3.1,0,0,1,2.243-.453,1.441,1.441,0,0,1,.665.305,1.4,1.4,0,0,1,.328,1.477,4.173,4.173,0,0,1-1.026,1.549c-.165.183-.321.355-.46.536a4.855,4.855,0,0,0-.843,1.982,3.49,3.49,0,0,1-2.586,2.848l-.07,1.26a.4.4,0,0,1-.02.094c.105.024.208.049.3.074,1.585.419,1.152,3.683.9,5.045,3.945,3.5,3.2,6.887,2.409,10.472-.15.682-.305,1.386-.433,2.1a3.517,3.517,0,0,0,.682,2.992,6.481,6.481,0,0,0,4.773,1.823c1.027.007,1.861,0,2.531,0h.078l.046-.014v.013a17.636,17.636,0,0,1,3.3.156,16.216,16.216,0,0,1,.194-1.8,1.63,1.63,0,0,1,.622-1.2,1.038,1.038,0,0,1,.451-.146.41.41,0,0,1,.008-.083l.169-.831a.233.233,0,0,1,.007-.026c-.108-.074-.22-.146-.325-.225a5.1,5.1,0,0,1-2-2.8c-.024.006-.047.015-.071.021a2.355,2.355,0,0,1-.526.062,1.822,1.822,0,0,1-1.018-.3c-.729-.167-1.021-1.271-.981-2.288a4.429,4.429,0,0,1,.086-.708,1.627,1.627,0,0,1-2.369-.476c-1.2.075-1.9-1.31-1.743-2.365a1.37,1.37,0,0,1-.172-.8,1.436,1.436,0,0,1-.874-2.317c-.566-.871-.336-1.917-.383-2.874a1.893,1.893,0,0,1,.419-1.889,1.756,1.756,0,0,1,1.174-1.836c.005-.87.507-1.933,1.528-1.835a1.878,1.878,0,0,1,.684-.9c.178-.829,1.008-1.028,1.623-1.393a1.932,1.932,0,0,1,2.694-1.625,1.444,1.444,0,0,1,2.142-.239,1.986,1.986,0,0,1,1.325.476,2.038,2.038,0,0,1,2.84.961,2.544,2.544,0,0,1,.665.213,2.267,2.267,0,0,1,2.684.63,2.494,2.494,0,0,1,2.856,1.6c.816.373.951,1.224,1.236,1.954a2.514,2.514,0,0,1,1.557,1.791,4.444,4.444,0,0,1,1.06,5.193,2.363,2.363,0,0,1-1.022,3.164c-.277.964-.506,2.165-1.61,2.482a1.521,1.521,0,0,1-.224.4c.016.06.03.119.041.181a7.413,7.413,0,0,1-.259,2.607,1.535,1.535,0,0,1-1.562,1.026c-.049,0-.093,0-.14-.008a4.244,4.244,0,0,1-3.493,3.342c-.2.034-.4.059-.6.078l-.131.653a1.214,1.214,0,0,1,.83.395c.46.538.409,1.434.181,3.349a1.761,1.761,0,0,1-.147.532.459.459,0,0,1,.286.011c1.056.39,2,.837,2.908,1.27,2.075.985,3.712,1.764,5.413,1.256,1.835-.548,1.929-1.945,2.033-7.775.014-.734.027-1.532.048-2.4a13.266,13.266,0,0,1,.989-5.107,4.286,4.286,0,0,1,.523-.937,4.646,4.646,0,0,1,.834-.954,3.118,3.118,0,0,1,1.827-.779c-.073-.828-.091-2.255.546-2.9a1.132,1.132,0,0,1,.681-.337,11.728,11.728,0,0,0,.147-1.337,6.657,6.657,0,0,1-4.024-2.952,6.443,6.443,0,0,0-2.246-2.41l-.091-.048a2.168,2.168,0,0,1-.524-.358,1.465,1.465,0,0,1-.206-1.734,1.888,1.888,0,0,1,1.307-.854,3.033,3.033,0,0,1,2.359.558,5.866,5.866,0,0,1,.6.54,5.547,5.547,0,0,0,.466.424,16.774,16.774,0,0,0-.828-6.527,2.3,2.3,0,0,1-.076-1.454,1.312,1.312,0,0,1,.743-.742,1.847,1.847,0,0,1,1.439.039,2.462,2.462,0,0,1,.461.276,1.818,1.818,0,0,1,.583-.633,1.627,1.627,0,0,1,1.267-.2,3.343,3.343,0,0,1,2.153,1.911c2.274-.038,2.957,2.949,3.608,5.848.083.37.167.739.253,1.1.362,1.526.808,4.41-.288,6.574a3.111,3.111,0,0,1-1.391,1.448l-.049,1.61a.285.285,0,0,1-.007.053,1.436,1.436,0,0,1,.895,1.608,22.2,22.2,0,0,1-.372,2.323,5.942,5.942,0,0,1,1.966,2.453c.019.038.037.076.052.115.026.056.05.113.074.171a7.588,7.588,0,0,1,.286.8,10.924,10.924,0,0,1,.332,1.441,19.315,19.315,0,0,1-4.141,14.373,15.085,15.085,0,0,1-8.979,4.9,17.162,17.162,0,0,1-2.873.243,17.607,17.607,0,0,1-7.6-1.75c.04.793.058,1.634.042,2.515a27.425,27.425,0,0,1-1.135,7.681,7.839,7.839,0,0,1-2.08,3.6,141.151,141.151,0,0,1,12.625,8.874c8.988,7.139,14.033,13.293,15,18.293,1.291,6.712,1.983,11.246,2.594,15.246.466,3.057.869,5.7,1.451,8.748a.467.467,0,0,1-.3.526,33.491,33.491,0,0,1-4.479,1.16.444.444,0,0,1,.046.165l.095,1.125c.119,0,.241.006.374.014.872.058,1.442.48,1.525,1.129a1.659,1.659,0,0,1-1.074,1.618c0,.335.009.442.057,1.064.031.418.08,1.071.157,2.167a6.788,6.788,0,0,1,3.095,1.567c.155.114.313.23.477.348.776.561,1.735,1.161,2.75,1.8,4.561,2.853,10.8,6.757,9.965,13.135l-.027,2.242a.331.331,0,0,1,0,.044,2.436,2.436,0,0,1-.165.6.32.32,0,0,1,.17.288.321.321,0,0,1-.492.266,2.99,2.99,0,0,1-.369.393.321.321,0,1,1-.433.331,6.307,6.307,0,0,1-1.514.7.322.322,0,1,1-.494.27.339.339,0,0,1,.029-.13c-.229.063-.469.121-.717.174a.32.32,0,0,1-.6.116q-.448.078-.926.139a.31.31,0,0,1-.127.025c-.015,0-.027,0-.04,0a40.337,40.337,0,0,1-4.726.238c-2.182,0-4.56-.109-6.983-.261l-.067,0a.3.3,0,0,1-.141.032.328.328,0,0,1-.173-.054c-.3-.02-.6-.04-.906-.063a.319.319,0,0,1-.25.117.322.322,0,0,1-.271-.158c-.25-.02-.5-.039-.749-.061a.321.321,0,0,1-.622-.058c-.23-.021-.458-.041-.691-.063a.181.181,0,0,1,0,.023.323.323,0,0,1-.645-.007.3.3,0,0,1,.012-.081c-.246-.025-.49-.05-.739-.077a.317.317,0,0,1,.044.165.323.323,0,0,1-.646-.007.333.333,0,0,1,.085-.216q-2.046-.23-4.2-.536a.32.32,0,0,1-.205.073.324.324,0,0,1-.262-.14l-.245-.035a3.832,3.832,0,0,1-1.232,1.039.32.32,0,0,1-.259.136,8.418,8.418,0,0,1-1.52.559l-.146.037a.406.406,0,0,1,0,.055.322.322,0,0,1-.628.094q-.415.09-.835.161a.316.316,0,0,1-.192.062.332.332,0,0,1-.089-.015,37.6,37.6,0,0,1-5.85.3c-2.421-.012-4.846-.118-7.263-.3a.309.309,0,0,1-.083.011.317.317,0,0,1-.125-.027q-.483-.036-.965-.076a.32.32,0,0,1-.239.1.324.324,0,0,1-.267-.146l-.756-.067a.321.321,0,0,1-.62-.061c-.2-.021-.41-.039-.614-.061l-.076-.008a.267.267,0,0,1,0,.028.322.322,0,0,1-.644-.007.334.334,0,0,1,.015-.092c-.251-.027-.5-.056-.754-.085a.313.313,0,0,1,.056.184.323.323,0,0,1-.646-.007.318.318,0,0,1,.1-.232q-2.092-.247-4.172-.558a.32.32,0,0,1-.578-.086c-.233-.036-.467-.068-.7-.1,0,.007,0,.015,0,.022a.323.323,0,0,1-.646-.007.293.293,0,0,1,.024-.117c-.279-.045-.559-.092-.838-.139a.318.318,0,0,1,.13.263.323.323,0,1,1-.42-.311c-.283-.047-.564-.091-.844-.14q-1.631-.283-3.251-.6l-.13-.025a.272.272,0,0,1,.009.077.323.323,0,0,1-.645-.008.314.314,0,0,1,.056-.18c-.281-.054-.561-.112-.836-.183l-.07-.015a.468.468,0,0,1-.343-.45c.024-.279.049-.558.073-.837a.321.321,0,0,1,.053-.616Zm29.841-24.691a1.208,1.208,0,0,1,1.559-.714v-.71a.444.444,0,0,1,.009-.077q-.909-.235-1.817-.536a.466.466,0,0,1-.319-.464c.007-.154.7-15.546.534-24.088-.02-.97-.894-2.58-1.877-4.08a14.677,14.677,0,0,1,.565,2.716c.757,7.351-.3,19.4-1.606,27.487a.47.47,0,0,1-.362.382,34.94,34.94,0,0,1-4.454.608v.895c.157.006.321.019.5.038,1.263.138,1.426.922,1.445,1.159a1.684,1.684,0,0,1-1.2,1.582c-.045.581-.1,1.333-.138,2.651a3.7,3.7,0,0,1,.671.188,8.41,8.41,0,0,1,2.1,1.332c.536.421,1.081.826,1.643,1.211.7.479,1.41.944,2.116,1.414.023-.078.046-.154.067-.228a.468.468,0,0,1,.122-.394c.508-1.555.861-1.623,1.053-1.659a.529.529,0,0,1,.391.082c.168-3.041.171-6.468.171-6.505a.253.253,0,0,1,.005-.051,2.71,2.71,0,0,1-1.138-.945A1.353,1.353,0,0,1,7112.667,2279.105Zm5.227-1.739c-.059-2.824-1.077-17.632-2.154-23.95-.9-5.262-6.794-11.76-11.18-15.968a45.5,45.5,0,0,1,4.776,7.451c.886,1.1,4.185,5.34,4.229,7.6.157,7.847-.414,21.429-.518,23.794A28.474,28.474,0,0,0,7117.894,2277.366Zm.437,26.583.046-.028c.051-.032.1-.065.15-.1.032-.023.064-.045.1-.069l.012-.008.022-.018a3.086,3.086,0,0,0,.262-.237c.039-.04.076-.082.113-.123.079-.087.014,0,.076-.1.054-.079.1-.161.146-.245l.027-.053v0a1.794,1.794,0,0,0,.074-.242,7.241,7.241,0,0,0,.165-2.3c-.2-2.527-1.777-4.592-3.6-6.26h-.008c-3.389,0-8.647,3.488-9.909,11.339a47.394,47.394,0,0,0,7.331-.2,17.152,17.152,0,0,0,3.838-.807,6.4,6.4,0,0,0,.919-.4C7118.169,2304.046,7118.252,2304,7118.331,2303.95Zm-3.763-22.291c0,.954-.035,4.34-.221,7.1a19.081,19.081,0,0,0,1.243,1.5v-7.937a.363.363,0,0,1,.161-.3A11.757,11.757,0,0,1,7114.568,2281.659Zm1.718,9.305a7.993,7.993,0,0,0,1.584,1.188v-9.573a.348.348,0,0,1,.027-.138c-.488-.07-1.054-.166-1.632-.295a.361.361,0,0,1,.049.179v8.5A.375.375,0,0,1,7116.286,2290.964Zm-2.923-2.321a4.556,4.556,0,0,0-.4.921.563.563,0,0,1,.053.11,9.839,9.839,0,0,0,.572,1.381c.027.054.059.1.087.159a23.306,23.306,0,0,1,4.34,3.766,1.54,1.54,0,0,0,1.143-.519,9.364,9.364,0,0,0,.944-1.236,2.6,2.6,0,0,1-.818.105C7117.56,2293.272,7115.461,2291.611,7113.363,2288.643Zm-29.5,13.963q2.188.3,4.378.6a.7.7,0,0,1,0-.153,6.073,6.073,0,0,0-2.947-6.227c-.112-.058-.219-.109-.319-.156-.044-.02-.091-.035-.136-.054-.314,1.375-.583,2.76-.782,4.155C7083.973,2301.382,7083.909,2301.993,7083.861,2302.606Zm3.281-13c.036-.041.021-.025,0,0Zm-.1.161c-.023.036-.047.072-.067.109a6.42,6.42,0,0,0-.4.834,28.46,28.46,0,0,0,1.617,2.8,12.47,12.47,0,0,0,1.468,1.911c.476.49,1.032.925,1.68.515a4.194,4.194,0,0,0,.977-.987c.156-.2.305-.4.454-.606a4.154,4.154,0,0,1-2.414-.819,10.139,10.139,0,0,1-2.043-1.979q-.554-.689-1.04-1.429C7087.2,2290,7087.115,2289.889,7087.038,2289.771Zm4.513,3.378.774-9.734a.337.337,0,0,1,.032-.12c-.482-.09-1.039-.21-1.607-.362a.359.359,0,0,1,.039.192l-.7,8.826a.372.372,0,0,1-.032.124c.14.132.283.262.433.385A4.971,4.971,0,0,0,7091.551,2293.15Zm-3.285-3.512a.351.351,0,0,1-.075.167c.075.11.145.223.222.333a14.274,14.274,0,0,0,.992,1.267l.662-8.335a.365.365,0,0,1,.171-.281,11.318,11.318,0,0,1-1.142-.41C7089.012,2283.252,7088.7,2286.417,7088.266,2289.638Zm-.232-9.516a.6.6,0,0,0-.039.612c.532,1.047,3.876,1.822,5.859,2.064a.362.362,0,0,1-.088.719c-.1-.013-.364-.046-.72-.1a.329.329,0,0,1,0,.058l-.788,9.912c.03.006.059.015.089.02a1.954,1.954,0,0,0,1.463-.358,2.481,2.481,0,0,0,.321-.285l.845-9.2a.368.368,0,0,1,.394-.328.361.361,0,0,1,.328.394l-.756,8.236c.2-.222.4-.444.6-.663.458-.49.932-.967,1.423-1.424l.418-6.146a.368.368,0,0,1,.386-.337.363.363,0,0,1,.337.386l-.368,5.407a16.734,16.734,0,0,1,1.7-1.268l.179-4.126a.367.367,0,0,1,.377-.346.361.361,0,0,1,.346.377l-.158,3.642.1-.059c.41-.227.835-.44,1.271-.632l.183-3.189a.363.363,0,0,1,.724.042l-.164,2.848a9.742,9.742,0,0,1,.993-.3l.167-2.93a.369.369,0,0,1,.383-.342.361.361,0,0,1,.339.382l-.156,2.747a5.3,5.3,0,0,1,.755-.048c.043-1.445.1-2.208.153-2.818l.025-.314.243-.068c.605-.169.941-.594.915-.907-.02-.26-.321-.446-.8-.5a7.923,7.923,0,0,0-1.833.037,40.029,40.029,0,0,1-7.071.029,24.979,24.979,0,0,1-6.682-1.241C7088.417,2279.687,7088.273,2279.687,7088.033,2280.122Zm2.144-.634a23.9,23.9,0,0,0,6.281,1.138,39.426,39.426,0,0,0,6.958-.027c.2-.02.385-.037.564-.051v-.855c-.72.041-1.492.065-2.3.065a31.049,31.049,0,0,1-11.187-1.914Zm15.416-65.812c.018-1.008-.01-1.969-.064-2.863l-.408-.267a39.156,39.156,0,0,1-3.97-3.074,18.823,18.823,0,0,1-5.038-6.253c-.278.948-.908,3.046-1.595,5.024a23.159,23.159,0,0,0,4.562,5.516,28.483,28.483,0,0,0,6.419,3.895C7105.549,2215.011,7105.583,2214.351,7105.593,2213.675Zm-19.412-26.84a7.129,7.129,0,0,1-3.405.722,15.928,15.928,0,0,1-2.569-.229,20.57,20.57,0,0,1-5.786-1.866,9.383,9.383,0,0,0-.427,1.842,13.8,13.8,0,0,0,.117,4c1.309.547,8.038,3.171,11.7.9l.043-.027A11.666,11.666,0,0,0,7086.181,2186.834Zm-3.749-11.005c-.059-.009-.116-.016-.175-.028a.362.362,0,0,1,.15-.709c1.677.356,2.466-1.506,2.628-2.253a5.567,5.567,0,0,1,.978-2.272c.156-.2.33-.395.5-.579a3.585,3.585,0,0,0,.869-1.274.714.714,0,0,0-.108-.718.764.764,0,0,0-.341-.144,2.373,2.373,0,0,0-1.714.363,7.285,7.285,0,0,0-1.428,1.272.361.361,0,0,1-.185.1.793.793,0,0,1-.615.291.807.807,0,0,1-.109-.008l-.292-.041-.02-.295a38.027,38.027,0,0,0-.852-5.671c-.378-1.676-1.233-2.17-1.846-2.087-.349.048-.613.287-.6.542,0,.007,0,.013,0,.021a19.056,19.056,0,0,1,1.2,5.461.362.362,0,0,1-.327.395h-.033a.362.362,0,0,1-.361-.329,15.3,15.3,0,0,0-1.722-6.4c-.593-.974-1.343-1.027-1.8-.777-.265.144-.487.43-.348.719a.363.363,0,0,1,.032.2,3.548,3.548,0,0,1,1.131,1.458,20.1,20.1,0,0,1,1.294,5.219.362.362,0,0,1-.716.11,19.537,19.537,0,0,0-1.24-5.035c-.335-.752-.958-1.441-1.506-1.306a.9.9,0,0,0-.554.837,4.007,4.007,0,0,0,.2,1.288l.039.153a18.972,18.972,0,0,1,.589,4.1c.012.318.013.638.016.958a11.384,11.384,0,0,0,.253,2.854,3.643,3.643,0,0,0,2.243,2.654l.25.068.1,1.652a30.155,30.155,0,0,1,4.357.425Zm.7,2.342a25.653,25.653,0,0,0-5.7-.612.091.091,0,0,0-.079.034c-.323.359-.189,1.894-.117,2.719.032.37.063.7.068.97a13.457,13.457,0,0,0,6.038.892C7083.681,2180.354,7083.67,2178.313,7083.131,2178.171Zm3.076,20.309a4.214,4.214,0,0,1-.546-.843,9.879,9.879,0,0,1-5.832,1.874,10.917,10.917,0,0,1-2.591-.321,19.256,19.256,0,0,0,1.718,2.259,15.087,15.087,0,0,0,4.579,3.345,10.116,10.116,0,0,0,5.537-4.542A5.94,5.94,0,0,1,7086.207,2198.48Zm8.064,2.154c-.169,1.222-.919,4.99-3.861,6.495,1.007.22,1.909.374,2.633.479.976-2.527,2.045-6.151,2.286-6.979C7095.015,2200.628,7094.667,2200.63,7094.271,2200.634Zm5.558-3.818c0,.008,0,.015-.007.023.177.049.366.109.568.173a13.652,13.652,0,0,0,2.906.65l.11-.547a8.033,8.033,0,0,1-3.465-.848Zm-1.268-12.918a.354.354,0,0,1,.1-.135.361.361,0,0,1,.12-.06,6.366,6.366,0,0,1,4.594-1.288,8.379,8.379,0,0,1,1.751.3,5.477,5.477,0,0,0-.884-.362,6.827,6.827,0,0,0-5.522.694c-1.831,1.323-2.334,3.82-2.465,4.827a2.845,2.845,0,0,1,.407.027A6.464,6.464,0,0,1,7098.562,2183.9Zm-3.177,7.648a2.452,2.452,0,0,0,.319-1.231,2.338,2.338,0,0,0-.243-1.3,2.363,2.363,0,0,0-.344,1.267,2.489,2.489,0,0,0,.217,1.251A.31.31,0,0,1,7095.384,2191.546Zm1.943-1.8c-.085-.472-.231-.893-.924-.94a3.774,3.774,0,0,1,.234,1.546,3.6,3.6,0,0,1-.374,1.541,1.6,1.6,0,0,0,.238-.034C7097.647,2191.6,7097.341,2189.821,7097.327,2189.746Zm11.929,2.6a6.68,6.68,0,0,0,.221-2.166.555.555,0,0,0-.318-.44c-.083-.031-.17-.058-.253-.085a19.133,19.133,0,0,1-.25,3.08A.6.6,0,0,0,7109.256,2192.346Zm-1.276-3.654c0-.408,0-.8.014-1.173a3.563,3.563,0,0,0-.785-2.443,3.16,3.16,0,0,1,.189.891.467.467,0,0,1-.438.493h-.028a.466.466,0,0,1-.465-.439,3.2,3.2,0,0,0-.958-1.888,3.709,3.709,0,0,1,.354,1.719.466.466,0,0,1-.466.455h-.012a.466.466,0,0,1-.454-.479,2.73,2.73,0,0,0-1.243-2.409,3.536,3.536,0,0,1,.627,2.272.465.465,0,0,1-.466.444h-.023a.467.467,0,0,1-.444-.489,2.463,2.463,0,0,0-.994-2.23.483.483,0,0,1-.088-.071l-.076,0a3.505,3.505,0,0,1,.573,2.1.467.467,0,0,1-.934,0c0-1.435-.624-1.833-.78-1.911-.089.025-.175.053-.262.082a2.487,2.487,0,0,1,.458,1.934.467.467,0,0,1-.458.38.452.452,0,0,1-.087-.008.466.466,0,0,1-.371-.545,1.438,1.438,0,0,0-.436-1.345l0,0c-.107.065-.208.134-.305.2a1.894,1.894,0,0,1,.226,1.279.467.467,0,0,1-.463.419l-.049,0a.465.465,0,0,1-.416-.513,1.246,1.246,0,0,0-.018-.524,6.17,6.17,0,0,0-1.338,3.329.153.153,0,0,1-.007.036,2.1,2.1,0,0,1,.691,1.315,3.068,3.068,0,0,1-.606,2.679c0,.013.006.025.008.038a3.992,3.992,0,0,0,1.7,2.508,7.082,7.082,0,0,0,5.445,1.278C7107.944,2195.546,7107.964,2191.9,7107.98,2188.692Zm-3.644,10.044c-.017-.019-.066-.076-.3-.084a13.728,13.728,0,0,1-3.933-.75,2.846,2.846,0,0,0-1.146-.244c-.011.007-.116.083-.189.548a13.847,13.847,0,0,0-.194,2.072,13.016,13.016,0,0,0,2.148,1.214c1.223.422,2.64.729,3.267.378a.6.6,0,0,0,.308-.5C7104.417,2200.377,7104.578,2199.02,7104.336,2198.736Zm22.855-2.8a17.835,17.835,0,0,1-10.362-3.349,17.934,17.934,0,0,0-.129,1.808c-.02.866-.034,1.663-.047,2.4-.012.655-.023,1.258-.037,1.82a27.316,27.316,0,0,0,11.293,3.988,19,19,0,0,0,1.392-6.81A15.012,15.012,0,0,1,7127.191,2195.935Zm-6.281-9.049c3.119,1.21,3.829,1.312,5.53,1.328a21.758,21.758,0,0,0,.351-2.17c.03-.47.043-.665-.987-.889-.765-.166-3.339-.718-4.416-.869a.242.242,0,0,0-.237.065A4.241,4.241,0,0,0,7120.911,2186.886Zm6.532-5.922c1-1.97.48-4.808.211-5.937-.087-.367-.17-.741-.254-1.113-.624-2.777-1.151-4.711-2.273-5.063a22.742,22.742,0,0,1,.963,5.3.466.466,0,0,1-.421.508l-.044,0a.467.467,0,0,1-.464-.424c-.176-1.885-.643-6.893-2.816-7.377a.7.7,0,0,0-.553.067,1.113,1.113,0,0,0-.4.562c.136.182.257.364.364.536a11.564,11.564,0,0,1,1.707,5.471.466.466,0,1,1-.932.044,10.641,10.641,0,0,0-1.572-5.027,2.875,2.875,0,0,0-1.109-1.161.933.933,0,0,0-.7-.027.387.387,0,0,0-.227.212,1.635,1.635,0,0,0,.1.863,17.471,17.471,0,0,1,.847,6.97.115.115,0,0,0,.029-.045.467.467,0,1,1,.888.288,1.077,1.077,0,0,1-.658.674,1.753,1.753,0,0,1-1.446-.157,4.475,4.475,0,0,1-.851-.7,5.114,5.114,0,0,0-.507-.457,2.085,2.085,0,0,0-1.619-.392.992.992,0,0,0-.683.41.529.529,0,0,0,.058.6,1.349,1.349,0,0,0,.309.2l.1.055a7.554,7.554,0,0,1,2.591,2.739,5.778,5.778,0,0,0,3.8,2.614.466.466,0,0,1,.372.436,10.049,10.049,0,0,1-.158,1.822c1.165.2,2.937.579,3.812.768l.035-1.178a2.1,2.1,0,0,1-.291-.023.467.467,0,0,1,.145-.923A1.7,1.7,0,0,0,7127.443,2180.964Zm-4.956,28.592a14.462,14.462,0,0,1-6.676-5.461,2.937,2.937,0,0,1-1.858,1.347,4.868,4.868,0,0,1-2.085.148,15.737,15.737,0,0,0,2.291,6.387l.277-.038,0,.047a16.193,16.193,0,0,0,2.35-.223A14.984,14.984,0,0,0,7122.487,2209.556Zm-14.479,1.27a16.675,16.675,0,0,0-1.191-7.185c-.567-.26-1.152-.514-1.775-.744a.416.416,0,0,1-.064-.032,7.21,7.21,0,0,1,.733,2.38c0,.012,0,.025,0,.038a36.551,36.551,0,0,1,.686,4.816Q7107.195,2210.506,7108.008,2210.826Zm-3.677,10.726c-.667-.33-2.766-1.395-5.083-2.852-3.755-2.362-6.274-4.587-7.488-6.611-.653.978-1.319,1.818-1.912,2.563-.029.037-.056.073-.085.108a12.061,12.061,0,0,0,1.681,3.345,19.492,19.492,0,0,0,7.77,6.362l.87.417a8.978,8.978,0,0,0,1.733-.158C7102.79,2224.534,7103.667,2223.36,7104.331,2221.552Zm28.256,45.971c-.609-3.992-1.3-8.517-2.587-15.21-1.959-10.18-22.177-23.4-26.8-26.3a.318.318,0,0,1,.017.072.307.307,0,1,1-.362-.289l-.422-.261a.307.307,0,0,1-.217.09.319.319,0,0,1-.117-.024c-.036.008-.07.02-.105.026a10.135,10.135,0,0,1-1.8.183.308.308,0,1,1-.247,0,14.3,14.3,0,0,1-3.124-.384.306.306,0,0,1-.591-.106.209.209,0,0,1,.006-.04c-.55-.148-1.1-.323-1.63-.52a.3.3,0,0,1-.215.091.307.307,0,0,1-.308-.292c-.521-.209-1.03-.439-1.521-.686a.306.306,0,0,1-.6-.1.3.3,0,0,1,.063-.18,17.468,17.468,0,0,1-2.359-1.525.3.3,0,0,1,.027.114.343.343,0,1,1-.245-.286q-.239-.194-.46-.39a.3.3,0,0,1-.59.03c-.119.136-.244.283-.372.438a.3.3,0,0,1-.027.608.3.3,0,0,1-.29-.217c-.1.131-.208.267-.312.406a.3.3,0,0,1-.124.582.3.3,0,0,1-.225-.1q-.125.18-.244.363a.3.3,0,0,1-.227.507.288.288,0,0,1-.077-.015,4.267,4.267,0,0,0-.7,1.933,4.063,4.063,0,0,0,2.532,3.717.461.461,0,0,1,.253.227,77.138,77.138,0,0,1,3.162,7.479c1.445,3.972,3.167,9.765,3.167,14.8,0,4.064-1.52,9.089-4.519,14.936a71.306,71.306,0,0,1-4.246,7.2,20.494,20.494,0,0,0,6.439,3.16,122.938,122.938,0,0,1,3.391-12.426c1.325-4.29,2.577-8.341,2.7-10.331.415-6.43-8.183-24.678-8.27-24.862a.466.466,0,1,1,.843-.4c.36.758,8.789,18.651,8.358,25.321-.136,2.1-1.345,6.014-2.745,10.546a120.739,120.739,0,0,0-3.38,12.4,32.24,32.24,0,0,0,7.32.977,39.846,39.846,0,0,0,8.02-.622c1.271-8.021,2.287-19.751,1.548-26.923a17.9,17.9,0,0,0-1.89-5.9c-.022-.026-.044-.053-.062-.078a.463.463,0,0,1-.106-.265,46.245,46.245,0,0,0-4.955-7.538,74.868,74.868,0,0,0-6.371-7.083.467.467,0,0,1,.015-.69,4.639,4.639,0,0,0,1.164-1.985.467.467,0,1,1,.892.274,5.892,5.892,0,0,1-1.093,2.047c.431.422,1.231,1.224,2.233,2.3a.4.4,0,0,1,.06.04,88.363,88.363,0,0,1,7.591,7.053c5.2,5.448,8.155,10.1,8.791,13.829.7,4.088,1.339,11.692,1.581,14.771.2,2.507.367,4.944.477,6.862.077,1.363.111,2.134.113,2.585a39.32,39.32,0,0,0,15.138-1.575C7133.425,2273,7133.034,2270.455,7132.586,2267.523Zm-10.229,11.069a34.952,34.952,0,0,1-3.965-.223.546.546,0,0,1-.055.006.446.446,0,0,1-.163-.031,30.692,30.692,0,0,1-3.031-.521v.791l.056.016a24.107,24.107,0,0,0,6.584.941,38.64,38.64,0,0,0,6.939-.328c.244-.035.466-.067.684-.091l-.092-1.1a.561.561,0,0,1,0-.081A40.74,40.74,0,0,1,7122.357,2278.592Zm9.147,1.749c-.037-.278-.355-.464-.856-.5a7.732,7.732,0,0,0-1.824.116,39.182,39.182,0,0,1-7.052.335,25.079,25.079,0,0,1-6.762-.966l-.261-.07a.388.388,0,0,1-.063.006.457.457,0,0,1-.276-.094c-.791-.192-.918-.125-1.084.236a.633.633,0,0,0,.01.625c.69,1.175,4.581,1.731,6.023,1.846a.363.363,0,0,1-.059.723c-.1-.009-.359-.031-.711-.071a.218.218,0,0,1,0,.048v9.786a.354.354,0,0,1-.016.1,2.692,2.692,0,0,0,.733.142,1.855,1.855,0,0,0,1.1-.311l.119-9.68a.363.363,0,0,1,.725.009l-.11,8.925q.2-.248.4-.5c.244-.365.492-.728.753-1.081a.543.543,0,0,1,.356-.225q.231-.258.473-.513a.359.359,0,0,1-.11-.255l-.084-6.394a.363.363,0,0,1,.357-.367.359.359,0,0,1,.367.357l.081,6.042a15.553,15.553,0,0,1,1.642-1.385l-.208-4.677a.362.362,0,1,1,.723-.033l.189,4.228a12.79,12.79,0,0,1,1.319-.738.389.389,0,0,1-.023-.11l-.111-3.648a.362.362,0,1,1,.724-.023l.106,3.471c.2-.082.4-.161.606-.234.14-.05.273-.091.406-.131l-.154-3.5a.361.361,0,0,1,.346-.377.367.367,0,0,1,.377.346l.149,3.355a5.186,5.186,0,0,1,.8-.094c-.072-1.043-.12-1.672-.151-2.079a12.2,12.2,0,0,1-.059-1.364v-.261l.247-.083C7131.265,2281.08,7131.543,2280.647,7131.5,2280.341Zm11.276,12.889a.35.35,0,0,1-.082.011h-.089c-3.38,0-8.329,3.486-8.905,11.333a.359.359,0,0,1-.027.11c8.447.379,12.7-.991,13.209-2.62a.063.063,0,0,1,.005-.015,1.433,1.433,0,0,0,.037-.171C7147.417,2298.251,7145.447,2295.492,7142.781,2293.23Zm-12.5,13.421c.756.047,1.525.091,2.295.128a.319.319,0,0,1,.113-.021.314.314,0,0,1,.141.034c.327.015.656.03.983.043a.314.314,0,0,1,.2-.077.321.321,0,0,1,.225.091q.43.015.857.027a.319.319,0,0,1,.5.012q.405.008.8.013a.322.322,0,0,1,.537,0c.266,0,.529,0,.79,0a.322.322,0,0,1,.531-.007c.276,0,.55-.013.821-.021a.318.318,0,0,1,.473-.019c.321-.014.635-.032.942-.054a.326.326,0,0,1,.156-.042.311.311,0,0,1,.116.022,15.508,15.508,0,0,0,4.245-.806.32.32,0,0,1,.3-.218.325.325,0,0,1,.133.029,2.279,2.279,0,0,0,1.442-1.632l.011-.835c-.083.077-.172.15-.267.222l-.039.032-.056.038c-.052.037-.1.074-.16.109-1.618,1.062-5.224,1.865-9.875,1.865a44.364,44.364,0,0,1-5.3-.328c-.23-.016-.409-.031-.524-.04-3.158-.263-6.11-.6-9.393-1.07-.372-.048-.749-.1-1.139-.155q-.055.558-.109,1.116a.134.134,0,0,1,0,.018.544.544,0,0,1-.013.105,2.778,2.778,0,0,1-.095.317C7123.619,2306.081,7127.1,2306.453,7130.282,2306.652Zm-43.223-1.111c3.034.551,6.087,1.015,9.151,1.373q5.427.634,10.9.78c.756.02,1.518.035,2.282.038a.348.348,0,0,1,.064-.006.335.335,0,0,1,.066.006,31.045,31.045,0,0,0,5.718-.429,12.7,12.7,0,0,0,1.42-.341,6.075,6.075,0,0,0,1.1-.437,4.643,4.643,0,0,0,.461-.276l.1-.07.033-.024c.064-.053.129-.107.188-.165s.107-.1.158-.16c.028-.031.056-.064.083-.1a.155.155,0,0,1,.016-.018.066.066,0,0,1,.011-.016,2.939,2.939,0,0,0,.222-.379l.006-.014s0,0,0,0c.013-.033.025-.066.037-.1.021-.064.038-.13.053-.2l.05-.507q-.086.064-.173.125l-.011.007c-.087.06-.176.116-.267.17-.062.037-.123.072-.186.106l-.01.006,0,0c-.214.117-.432.221-.646.313a17.5,17.5,0,0,1-4.922,1.141,39.516,39.516,0,0,1-6.09.184c-.98-.041-1.955-.126-2.925-.234-2.582-.181-5.153-.5-7.717-.846-2.824-.38-5.641-.807-8.453-1.261q-1.5-.242-3.006-.5c-.324-.055-.66-.1-.989-.152q-.053.628-.107,1.256a.317.317,0,0,1,.108.083C7084.869,2305.135,7085.963,2305.342,7087.06,2305.541Z" transform="translate(-7067.712 -2159.408)" fill="#d9cbb4"/>
    <path id="Path_55007" data-name="Path 55007" d="M7235.844,2801.742a.322.322,0,1,1-.322.321A.324.324,0,0,1,7235.844,2801.742Z" transform="translate(-7194.101 -2651.458)" fill="#d9cbb4"/>
    <path id="Path_55008" data-name="Path 55008" d="M7233.054,2797.606a.322.322,0,1,1-.321.32A.323.323,0,0,1,7233.054,2797.606Z" transform="translate(-7190.66 -2648.287)" fill="#d9cbb4"/>
    <path id="Path_55009" data-name="Path 55009" d="M7227.364,2797.606a.322.322,0,1,1-.322.32A.323.323,0,0,1,7227.364,2797.606Z" transform="translate(-7183.64 -2648.287)" fill="#d9cbb4"/>
    <path id="Path_55010" data-name="Path 55010" d="M7250.126,2797.606a.322.322,0,1,1-.321.32A.323.323,0,0,1,7250.126,2797.606Z" transform="translate(-7211.718 -2648.287)" fill="#d9cbb4"/>
    <path id="Path_55011" data-name="Path 55011" d="M7230.153,2801.742a.322.322,0,1,1-.321.321A.322.322,0,0,1,7230.153,2801.742Z" transform="translate(-7187.082 -2651.458)" fill="#d9cbb4"/>
    <path id="Path_55012" data-name="Path 55012" d="M7247.225,2801.742a.322.322,0,1,1-.322.321A.323.323,0,0,1,7247.225,2801.742Z" transform="translate(-7208.138 -2651.458)" fill="#d9cbb4"/>
    <path id="Path_55013" data-name="Path 55013" d="M7244.434,2797.606a.322.322,0,1,1-.321.32A.324.324,0,0,1,7244.434,2797.606Z" transform="translate(-7204.697 -2648.287)" fill="#d9cbb4"/>
    <path id="Path_55014" data-name="Path 55014" d="M7241.534,2801.742a.322.322,0,1,1-.321.321A.324.324,0,0,1,7241.534,2801.742Z" transform="translate(-7201.119 -2651.458)" fill="#d9cbb4"/>
    <path id="Path_55015" data-name="Path 55015" d="M7238.745,2797.606a.322.322,0,1,1-.322.32A.323.323,0,0,1,7238.745,2797.606Z" transform="translate(-7197.678 -2648.287)" fill="#d9cbb4"/>
    <path id="Path_55016" data-name="Path 55016" d="M7210.292,2797.606a.322.322,0,1,1-.322.32A.323.323,0,0,1,7210.292,2797.606Z" transform="translate(-7162.583 -2648.287)" fill="#d9cbb4"/>
    <path id="Path_55017" data-name="Path 55017" d="M7224.461,2801.742a.322.322,0,1,1-.321.321A.323.323,0,0,1,7224.461,2801.742Z" transform="translate(-7180.062 -2651.458)" fill="#d9cbb4"/>
    <path id="Path_55018" data-name="Path 55018" d="M7213.081,2801.742a.322.322,0,1,1-.321.321A.324.324,0,0,1,7213.081,2801.742Z" transform="translate(-7166.023 -2651.458)" fill="#d9cbb4"/>
    <path id="Path_55019" data-name="Path 55019" d="M7301.343,2797.606a.322.322,0,1,1-.321.32A.323.323,0,0,1,7301.343,2797.606Z" transform="translate(-7274.891 -2648.287)" fill="#d9cbb4"/>
    <path id="Path_55020" data-name="Path 55020" d="M7221.673,2797.606a.322.322,0,1,1-.321.32A.323.323,0,0,1,7221.673,2797.606Z" transform="translate(-7176.621 -2648.287)" fill="#d9cbb4"/>
    <path id="Path_55021" data-name="Path 55021" d="M7215.982,2797.606a.322.322,0,1,1-.322.32A.323.323,0,0,1,7215.982,2797.606Z" transform="translate(-7169.602 -2648.287)" fill="#d9cbb4"/>
    <path id="Path_55022" data-name="Path 55022" d="M7218.771,2801.742a.322.322,0,1,1-.321.321A.323.323,0,0,1,7218.771,2801.742Z" transform="translate(-7173.042 -2651.458)" fill="#d9cbb4"/>
    <path id="Path_55023" data-name="Path 55023" d="M7207.391,2801.742a.322.322,0,1,1-.322.321A.322.322,0,0,1,7207.391,2801.742Z" transform="translate(-7159.005 -2651.458)" fill="#d9cbb4"/>
    <path id="Path_55024" data-name="Path 55024" d="M7284.271,2797.606a.322.322,0,1,1-.321.32A.323.323,0,0,1,7284.271,2797.606Z" transform="translate(-7253.833 -2648.287)" fill="#d9cbb4"/>
    <path id="Path_55025" data-name="Path 55025" d="M7278.581,2797.606a.322.322,0,1,1-.322.32A.323.323,0,0,1,7278.581,2797.606Z" transform="translate(-7246.814 -2648.287)" fill="#d9cbb4"/>
    <path id="Path_55026" data-name="Path 55026" d="M7281.37,2801.742a.322.322,0,1,1-.321.321A.323.323,0,0,1,7281.37,2801.742Z" transform="translate(-7250.255 -2651.458)" fill="#d9cbb4"/>
    <path id="Path_55027" data-name="Path 55027" d="M7289.961,2797.606a.322.322,0,1,1-.322.32A.323.323,0,0,1,7289.961,2797.606Z" transform="translate(-7260.852 -2648.287)" fill="#d9cbb4"/>
    <path id="Path_55028" data-name="Path 55028" d="M7287.062,2801.742a.322.322,0,1,1-.321.321A.325.325,0,0,1,7287.062,2801.742Z" transform="translate(-7257.274 -2651.458)" fill="#d9cbb4"/>
    <path id="Path_55029" data-name="Path 55029" d="M7292.75,2801.742a.322.322,0,1,1-.321.321A.323.323,0,0,1,7292.75,2801.742Z" transform="translate(-7264.292 -2651.458)" fill="#d9cbb4"/>
    <path id="Path_55030" data-name="Path 55030" d="M7298.442,2793.316a.322.322,0,1,1,0,.644.322.322,0,0,1,0-.644Z" transform="translate(-7271.312 -2644.999)" fill="#d9cbb4"/>
    <path id="Path_55031" data-name="Path 55031" d="M7252.917,2801.742a.322.322,0,1,1-.322.321A.322.322,0,0,1,7252.917,2801.742Z" transform="translate(-7215.159 -2651.458)" fill="#d9cbb4"/>
    <path id="Path_55032" data-name="Path 55032" d="M7295.653,2797.606a.322.322,0,1,1-.322.32A.323.323,0,0,1,7295.653,2797.606Z" transform="translate(-7267.872 -2648.287)" fill="#d9cbb4"/>
    <path id="Path_55033" data-name="Path 55033" d="M7258.608,2801.742a.322.322,0,1,1-.322.321A.323.323,0,0,1,7258.608,2801.742Z" transform="translate(-7222.178 -2651.458)" fill="#d9cbb4"/>
    <path id="Path_55034" data-name="Path 55034" d="M7261.509,2797.606a.322.322,0,1,1-.322.32A.321.321,0,0,1,7261.509,2797.606Z" transform="translate(-7225.756 -2648.287)" fill="#d9cbb4"/>
    <path id="Path_55035" data-name="Path 55035" d="M7255.817,2797.606a.322.322,0,1,1-.321.32A.324.324,0,0,1,7255.817,2797.606Z" transform="translate(-7218.737 -2648.287)" fill="#d9cbb4"/>
    <path id="Path_55036" data-name="Path 55036" d="M7272.889,2797.606a.322.322,0,1,1-.321.32A.323.323,0,0,1,7272.889,2797.606Z" transform="translate(-7239.794 -2648.287)" fill="#d9cbb4"/>
    <path id="Path_55037" data-name="Path 55037" d="M7264.3,2801.742a.322.322,0,1,1-.322.321A.324.324,0,0,1,7264.3,2801.742Z" transform="translate(-7229.197 -2651.458)" fill="#d9cbb4"/>
    <path id="Path_55038" data-name="Path 55038" d="M7275.678,2801.742a.322.322,0,1,1-.321.321A.323.323,0,0,1,7275.678,2801.742Z" transform="translate(-7243.235 -2651.458)" fill="#d9cbb4"/>
    <path id="Path_55039" data-name="Path 55039" d="M7269.989,2801.742a.322.322,0,1,1-.322.321A.324.324,0,0,1,7269.989,2801.742Z" transform="translate(-7236.216 -2651.458)" fill="#d9cbb4"/>
  </g>
</svg>
