<svg xmlns="http://www.w3.org/2000/svg" width="125.195" height="51.185" viewBox="0 0 125.195 51.185">
  <g id="chicken-tag" transform="translate(-889 -4325.316)">
    <g id="Group_589" data-name="Group 589" transform="translate(889 4325.316)">
      <path id="Path_42209" data-name="Path 42209" d="M5013.817-1862.994a21.324,21.324,0,0,0-10.085,2.521,21.318,21.318,0,0,0-10.085-2.521,21.324,21.324,0,0,0-10.085,2.521,21.318,21.318,0,0,0-10.085-2.521,21.324,21.324,0,0,0-10.086,2.521,21.318,21.318,0,0,0-10.085-2.521,21.321,21.321,0,0,0-10.085,2.521,21.322,21.322,0,0,0-10.085-2.521,21.422,21.422,0,0,0-21.422,21.422,21.422,21.422,0,0,0,21.422,21.422,21.322,21.322,0,0,0,10.085-2.521,21.321,21.321,0,0,0,10.085,2.521,21.318,21.318,0,0,0,10.085-2.521,21.324,21.324,0,0,0,10.086,2.521,21.318,21.318,0,0,0,10.085-2.521,21.324,21.324,0,0,0,10.085,2.521,21.318,21.318,0,0,0,10.085-2.521,21.324,21.324,0,0,0,10.085,2.521,21.423,21.423,0,0,0,21.422-21.422A21.422,21.422,0,0,0,5013.817-1862.994Z" transform="translate(-4910.879 1862.994)" fill="#d0742d"/>
      <path id="Path_42210" data-name="Path 42210" d="M4932.969-1863.994a22.311,22.311,0,0,1,5.488.683,22.191,22.191,0,0,1,4.6,1.731,22.17,22.17,0,0,1,4.6-1.731,22.312,22.312,0,0,1,5.489-.683,22.315,22.315,0,0,1,5.489.683,22.187,22.187,0,0,1,4.6,1.731,22.185,22.185,0,0,1,4.6-1.731,22.312,22.312,0,0,1,5.489-.683,22.315,22.315,0,0,1,5.489.683,22.166,22.166,0,0,1,4.6,1.731,22.185,22.185,0,0,1,4.6-1.731,22.314,22.314,0,0,1,5.488-.683,22.309,22.309,0,0,1,5.489.683,22.16,22.16,0,0,1,4.6,1.731,22.2,22.2,0,0,1,4.6-1.731,22.314,22.314,0,0,1,5.488-.683,22.119,22.119,0,0,1,8.664,1.749,22.182,22.182,0,0,1,7.074,4.769,22.184,22.184,0,0,1,4.769,7.074,22.111,22.111,0,0,1,1.75,8.663,22.111,22.111,0,0,1-1.75,8.663,22.188,22.188,0,0,1-4.769,7.074,22.185,22.185,0,0,1-7.074,4.769,22.119,22.119,0,0,1-8.664,1.749,22.3,22.3,0,0,1-5.488-.684,22.174,22.174,0,0,1-4.6-1.731,22.139,22.139,0,0,1-4.6,1.731,22.3,22.3,0,0,1-5.489.684,22.3,22.3,0,0,1-5.488-.684,22.164,22.164,0,0,1-4.6-1.731,22.145,22.145,0,0,1-4.6,1.731,22.3,22.3,0,0,1-5.489.684,22.3,22.3,0,0,1-5.489-.684,22.164,22.164,0,0,1-4.6-1.731,22.166,22.166,0,0,1-4.6,1.731,22.3,22.3,0,0,1-5.489.684,22.3,22.3,0,0,1-5.489-.684,22.149,22.149,0,0,1-4.6-1.731,22.17,22.17,0,0,1-4.6,1.731,22.3,22.3,0,0,1-5.488.684,22.117,22.117,0,0,1-8.664-1.749,22.183,22.183,0,0,1-7.074-4.769,22.189,22.189,0,0,1-4.77-7.074,22.118,22.118,0,0,1-1.749-8.663,22.119,22.119,0,0,1,1.749-8.663,22.185,22.185,0,0,1,4.77-7.074,22.18,22.18,0,0,1,7.074-4.769A22.117,22.117,0,0,1,4932.969-1863.994Zm10.085,4.3-.394-.21a20.619,20.619,0,0,0-9.691-2.423,20.611,20.611,0,0,0-20.588,20.587,20.611,20.611,0,0,0,20.588,20.588,20.619,20.619,0,0,0,9.691-2.423l.394-.21.393.21a20.621,20.621,0,0,0,9.692,2.423,20.613,20.613,0,0,0,9.691-2.423l.394-.21.394.21a20.623,20.623,0,0,0,9.692,2.423,20.613,20.613,0,0,0,9.691-2.423l.394-.21.394.21a20.621,20.621,0,0,0,9.692,2.423,20.615,20.615,0,0,0,9.692-2.423l.394-.21.394.21a20.621,20.621,0,0,0,9.692,2.423,20.611,20.611,0,0,0,20.588-20.588,20.611,20.611,0,0,0-20.588-20.587,20.62,20.62,0,0,0-9.692,2.423l-.394.21-.394-.21a20.615,20.615,0,0,0-9.692-2.423,20.62,20.62,0,0,0-9.692,2.423l-.394.21-.394-.21a20.614,20.614,0,0,0-9.691-2.423,20.622,20.622,0,0,0-9.692,2.423l-.394.21-.394-.21a20.614,20.614,0,0,0-9.691-2.423,20.621,20.621,0,0,0-9.692,2.423Z" transform="translate(-4910.713 1870.667)" fill="#d0742d"/>
    </g>
    <text id="Chicken" transform="translate(951.202 4355.725)" fill="#d9cbb4" font-size="26" font-family="NimbusSansT-BlackCondensed, NimbuSanTBlaCon" font-weight="800"><tspan x="-43" y="0">CHICKEN</tspan></text>
  </g>
</svg>
