<svg xmlns="http://www.w3.org/2000/svg" width="561.824" height="587.06" viewBox="0 0 561.824 587.06">
  <g id="contact-page-character" transform="translate(-3637.937 -1111.622)">
    <path id="Path_56967" data-name="Path 56967" d="M3719.766,1592.883c1.965,1.39,3.7,1.192,5.085-.247a3.763,3.763,0,0,0,.129-5.411,60.422,60.422,0,0,0-4.9-4.739,1.265,1.265,0,0,0-1.825.129c-1.289,1.531-2.456,2.921-3.69,4.389a1.285,1.285,0,0,0,.15,1.811C3716.545,1590.342,3718.093,1591.7,3719.766,1592.883Z" transform="translate(-11.851 -73.06)" fill="#0e1123"/>
    <path id="Path_56968" data-name="Path 56968" d="M3726.48,1579.915a15.744,15.744,0,0,0,3.085,1.875,3.088,3.088,0,0,0,3.614-4.7,15.493,15.493,0,0,0-5.046-4.569,1.266,1.266,0,0,0-1.608.325l-2.6,3.239a1.286,1.286,0,0,0,.132,1.759C3724.945,1578.641,3725.681,1579.319,3726.48,1579.915Z" transform="translate(-13.307 -71.539)" fill="#0e1123"/>
    <path id="Path_56969" data-name="Path 56969" d="M4040.5,1333.716c.322-.536,7.95-13.35,14.652-35.016a1.7,1.7,0,0,0-1.977-2.149c-.528.111-3.2.537-4.122-2.063a5.375,5.375,0,0,1,1.352-5.258,4.821,4.821,0,0,1,5.343-1,1.688,1.688,0,0,0,2.1-.956c1.957-4.74,6.308-30.858,6.455-33.4a1.689,1.689,0,0,0-3.373-.2c-.1,1.8-3.77,24.088-5.749,30.935a7.985,7.985,0,0,0-7.183,2.242,8.785,8.785,0,0,0-2.134,8.756,6.311,6.311,0,0,0,5.35,4.332,181.064,181.064,0,0,1-12.671,30.357,7.2,7.2,0,0,0-8.138-.106,9.268,9.268,0,0,0-4.179,8.848,8.788,8.788,0,0,0,6.145,7.116,1.664,1.664,0,0,0,.542.09,1.69,1.69,0,0,0,.542-3.29,5.409,5.409,0,0,1-3.882-4.377,5.839,5.839,0,0,1,2.74-5.6c2.655-1.82,5.411.923,5.521,1.035a1.689,1.689,0,0,0,2.663-.3Z" transform="translate(-60.279 -21.811)" fill="#0e1123"/>
    <path id="Path_56970" data-name="Path 56970" d="M4051.564,1366.054a5,5,0,0,1-1.865-7.185c1.169-2.055,3.462-3.535,5.583-2.384a1.693,1.693,0,0,0,2.194-.522,110.412,110.412,0,0,0,13.39-28.924,1.7,1.7,0,0,0-.7-1.9,6.105,6.105,0,0,1-1.69-8.838c2.161-3.43,5.717-1.832,6.106-1.644a1.691,1.691,0,0,0,2.356-.963,178.4,178.4,0,0,0,7.329-32.682,1.689,1.689,0,1,0-3.357-.382,174.124,174.124,0,0,1-6.646,30.357,7.678,7.678,0,0,0-8.647,3.511c-3.661,5.81-.92,10.451,1.672,12.693a111.421,111.421,0,0,1-11.857,25.727c-3.514-.958-6.969,1.289-8.668,4.274a8.342,8.342,0,0,0,1.689,10.78l-7.208,12.1a1.689,1.689,0,1,0,2.9,1.728l8-13.44A1.688,1.688,0,0,0,4051.564,1366.054Z" transform="translate(-62.585 -26.01)" fill="#0e1123"/>
    <path id="Path_56971" data-name="Path 56971" d="M4119.7,1364.578c.112-.932,1.465-4.744,2.774-8.433,2.76-7.777,6.854-19.318,8.344-28.079a6.417,6.417,0,0,0,1.52.2c.2,0,.407-.01.61-.029,3.215-.307,5.649-2.875,6.513-6.868a6.9,6.9,0,0,0-1.175-6.063,9.456,9.456,0,0,0-5.826-3,237.606,237.606,0,0,0,5.157-34.648,1.689,1.689,0,1,0-3.373-.2,231.921,231.921,0,0,1-5.52,35.948,1.693,1.693,0,0,0,1.639,2.092c1.043,0,4.028.358,5.3,1.939a3.655,3.655,0,0,1,.5,3.218c-.545,2.519-1.833,4.057-3.532,4.219a3.586,3.586,0,0,1-3.526-2.331,1.69,1.69,0,0,0-3.108,1.327,7.517,7.517,0,0,0,1.682,2.446c-1.236,8.554-5.534,20.664-8.385,28.7-2.724,7.673-3.186,9.123-2.9,10.187a1.69,1.69,0,0,0,1.631,1.254,1.673,1.673,0,0,0,.438-.058A1.69,1.69,0,0,0,4119.7,1364.578Z" transform="translate(-74.278 -25.503)" fill="#0e1123"/>
    <path id="Path_56972" data-name="Path 56972" d="M4111.257,1308.1a6.755,6.755,0,0,0-3.918-3.014c1.185-3.077,3.235-9.078,3.235-13.741a1.689,1.689,0,1,0-3.379,0c0,5.708-3.727,14.3-3.765,14.389a1.689,1.689,0,0,0,1.518,2.365,3.929,3.929,0,0,1,3.388,1.7c.692,1.19.478,2.935-.6,4.914-.767,1.406-1.7,2.084-2.787,2.026a4.833,4.833,0,0,1-3.7-3.148,1.689,1.689,0,0,0-3.129,1.276,9.062,9.062,0,0,0,2.779,3.71c-.009.019-.023.035-.032.054-4.1,8.943-9.383,28.487-9.6,29.315a1.69,1.69,0,0,0,2.23,2.019,3.649,3.649,0,0,1,3.443,1.086,3.549,3.549,0,0,1,.449,4.091,3.6,3.6,0,0,1-1.99,2.141,6.274,6.274,0,0,1-4.2-.353,1.688,1.688,0,0,0-2.371,1.141c-1.731,7.426-7.5,15.934-7.56,16.02a1.689,1.689,0,0,0,2.79,1.906c.233-.34,5.339-7.865,7.583-15.37a8.46,8.46,0,0,0,4.951-.182,7.581,7.581,0,0,0,2.782-11.742,7.452,7.452,0,0,0-4.212-2.163c1.54-5.506,5.6-19.572,8.783-26.5.006-.014.009-.028.015-.042a6,6,0,0,0,.8.116c.1.006.206.009.316.009,1.46,0,3.864-.562,5.626-3.789C4112.951,1312.214,4112.016,1309.409,4111.257,1308.1Z" transform="translate(-68.79 -27.644)" fill="#0e1123"/>
    <path id="Path_56973" data-name="Path 56973" d="M4102.663,1676.562c-15.745,4.343-41,.594-41.255.556a1.723,1.723,0,0,0-.517,3.407,164.39,164.39,0,0,0,22.238,1.6c6.889,0,14.283-.539,20.451-2.241a1.722,1.722,0,1,0-.917-3.321Z" transform="translate(-65.445 -87.709)" fill="#0e1123"/>
    <path id="Path_56974" data-name="Path 56974" d="M4102.151,1697.36c-5.125,1.646-21.461,4.011-37.757,2.3a1.723,1.723,0,1,0-.359,3.426,118.518,118.518,0,0,0,12.279.615c11.766,0,22.26-1.578,26.89-3.065a1.722,1.722,0,1,0-1.053-3.28Z" transform="translate(-65.921 -90.935)" fill="#0e1123"/>
    <path id="Path_56975" data-name="Path 56975" d="M4149.645,1328.411a85.866,85.866,0,0,0,2.272-20.185,1.689,1.689,0,0,0-1.688-1.678h-.012a1.689,1.689,0,0,0-1.678,1.7,82.435,82.435,0,0,1-2.553,20.9,1.691,1.691,0,0,0,1.335,2.08,5.8,5.8,0,0,1-1.891,11.446,1.69,1.69,0,0,0-1.853,1.142l-8.883,26.923a3.551,3.551,0,0,0,1.865,4.893l.164.095c2.46,1.435,3.724,4.541,2.818,6.922a4.494,4.494,0,0,1-2.911,2.553,3.582,3.582,0,0,1-3.133-.366,1.69,1.69,0,0,0-2.614.944,86.637,86.637,0,0,1-10.942,24.773,1.69,1.69,0,1,0,2.841,1.83,90.074,90.074,0,0,0,10.838-23.827,7.364,7.364,0,0,0,3.99-.121,7.827,7.827,0,0,0,5.09-4.586c1.491-3.922-.386-8.772-4.271-11.041l-.19-.109-.5-.287a4.361,4.361,0,0,1,.166-.616l8.479-25.694a9.162,9.162,0,0,0,3.265-17.691Z" transform="translate(-74.799 -30.266)" fill="#0e1123"/>
    <path id="Path_56976" data-name="Path 56976" d="M4106.987,1226.737a6.236,6.236,0,0,0,2.233-.414c2.626-1,5.322-4.171,5.438-10.089a77.778,77.778,0,0,1,14.725.747,11.091,11.091,0,0,0,1.033,3.136c-2.553-.393-5.457-1.039-6.653-2.081a1.69,1.69,0,1,0-2.219,2.549c1.93,1.681,5.639,2.689,12.4,3.369l.065.008c.218.133.437.254.656.364a1.808,1.808,0,0,1,.248,1c.044,2.569-2.672,6.665-7.7,7.349a1.69,1.69,0,0,0,.227,3.364,1.793,1.793,0,0,0,.23-.015c6.662-.907,10.7-6.291,10.623-10.757,0-.095-.02-.18-.025-.272a5.2,5.2,0,0,0,1.33-.365c2.869-1.228,4.473-4.817,4.4-9.845-.09-6.337-3.321-10.1-6.482-11.023a5.212,5.212,0,0,0-5.992,2.186,16.211,16.211,0,0,0-2.326,7.591,80.541,80.541,0,0,0-14.763-.689c-.665-4.132-2.776-7.211-5.863-8.411a5.9,5.9,0,0,0-6.406,1.146c-3.165,3.15-5.962,12.411-1.07,18.051A7.708,7.708,0,0,0,4106.987,1226.737Z" transform="translate(-71.504 -14.271)" fill="#0e1123"/>
    <path id="Path_56977" data-name="Path 56977" d="M4104.7,1265.064a7.487,7.487,0,0,0,2.233.368,5.219,5.219,0,0,0,2.627-.678c2.8-1.595,3.7-5.452,4.665-9.536.287-1.22.583-2.477.928-3.637a27.87,27.87,0,0,0,5.684-1.275,1.722,1.722,0,0,0-1.1-3.266,24.774,24.774,0,0,1-19.435-1.689,1.723,1.723,0,0,0-2.632,1.409C4097.621,1248.392,4097.385,1262.775,4104.7,1265.064Z" transform="translate(-71.381 -20.724)" fill="#0e1123"/>
    <path id="Path_56978" data-name="Path 56978" d="M4067.562,1222.027a8.747,8.747,0,0,0,5.62,2.095,8.139,8.139,0,0,0,4.322-1.2,1.682,1.682,0,0,0,.477-2.322,1.7,1.7,0,0,0-2.33-.5,5.03,5.03,0,0,1-5.95-.683,4.267,4.267,0,0,1-1.832-4.181,5.884,5.884,0,0,1,3.736-4.23,3,3,0,0,1,3.1.493,1.69,1.69,0,0,0,2.821-1.249c0-.139.111-14.073,5.154-26.6a1.689,1.689,0,1,0-3.134-1.262,83.378,83.378,0,0,0-5.3,25.173,6.79,6.79,0,0,0-3.734.246,9.32,9.32,0,0,0-5.966,6.829A7.61,7.61,0,0,0,4067.562,1222.027Z" transform="translate(-66.221 -10.823)" fill="#0e1123"/>
    <path id="Path_56979" data-name="Path 56979" d="M4088.891,1756.99a17.613,17.613,0,0,0,2.259.04,8.2,8.2,0,0,0,2.522-.525c1-.411,1.5-1.516,1.455-3.01a2.8,2.8,0,0,0-1.69-2.84,8,8,0,0,0-4.821-.28,1.208,1.208,0,0,0-.712,1.263c.035,1.369.067,2.691.1,4.1C4088.024,1756.414,4088.413,1756.965,4088.891,1756.99Z" transform="translate(-69.867 -99.141)" fill="#0e1123"/>
    <path id="Path_56980" data-name="Path 56980" d="M4093.834,1763.442a30.965,30.965,0,0,0-4.823-.5c-.508-.035-.926.534-.919,1.251.018,1.977.035,3.769.052,5.664.007.7.42,1.279.918,1.28a42.118,42.118,0,0,0,4.593-.1c1.7-.188,2.537-1.434,2.614-3.4C4096.351,1765.523,4095.52,1763.827,4093.834,1763.442Z" transform="translate(-69.896 -101.131)" fill="#0e1123"/>
    <path id="Path_56981" data-name="Path 56981" d="M3816.4,1547.326c-.193-.158-19.375-15.853-24.407-28.619a1.689,1.689,0,1,0-3.143,1.239c5.353,13.582,24.6,29.337,25.418,30a1.689,1.689,0,1,0,2.132-2.621Z" transform="translate(-23.414 -63.042)" fill="#0e1123"/>
    <path id="Path_56982" data-name="Path 56982" d="M3773.594,1531.506a1.69,1.69,0,0,0-3.057,1.443c2.782,5.891,12.635,19.588,24.951,30.275a1.69,1.69,0,1,0,2.215-2.552C3785.324,1549.93,3775.892,1536.376,3773.594,1531.506Z" transform="translate(-20.564 -65.045)" fill="#0e1123"/>
    <path id="Path_56983" data-name="Path 56983" d="M4009.481,1383.493a1.69,1.69,0,0,0,.415-2.353,5.406,5.406,0,0,0-2.223-1.827,143.543,143.543,0,0,0,7.462-16.754,1.689,1.689,0,1,0-3.177-1.15,140.657,140.657,0,0,1-7.825,17.353,8.675,8.675,0,0,0-4.11,1.455,8.852,8.852,0,0,0-3.785,5.534,6.713,6.713,0,0,0,2.25,6.4c-6.424,13.256-12.156,28.28-6.309,52.8a1.69,1.69,0,0,0,1.642,1.3,1.708,1.708,0,0,0,.393-.046,1.689,1.689,0,0,0,1.252-2.035c-5.619-23.56-.04-37.983,6.156-50.739.01-.02.014-.041.023-.061.118.007.236.026.354.026a5.252,5.252,0,0,0,4.052-1.816,1.689,1.689,0,0,0-2.593-2.166,2.2,2.2,0,0,1-2.756.2,3.3,3.3,0,0,1-1.145-3.244,5.471,5.471,0,0,1,2.378-3.366c1.636-1.125,4.2-1.33,5.19.078A1.69,1.69,0,0,0,4009.481,1383.493Z" transform="translate(-54.626 -38.611)" fill="#0e1123"/>
    <path id="Path_56984" data-name="Path 56984" d="M4031.335,1424.027a1.689,1.689,0,0,0-2.288.689,76.016,76.016,0,0,0-8.18,24.409,8.3,8.3,0,0,0-7.91,2.149,9.466,9.466,0,0,0-1.8,10.04,7.694,7.694,0,0,0,4.044,4.3,5.93,5.93,0,0,0,2.272.452,5.371,5.371,0,0,0,3.994-1.685,1.689,1.689,0,1,0-2.505-2.266,2.273,2.273,0,0,1-2.463.379,4.42,4.42,0,0,1-2.218-2.468,6,6,0,0,1,1.08-6.376,4.8,4.8,0,0,1,5.889-.68,1.689,1.689,0,0,0,2.655-1.168,72.678,72.678,0,0,1,8.119-25.487A1.69,1.69,0,0,0,4031.335,1424.027Z" transform="translate(-57.841 -48.476)" fill="#0e1123"/>
    <path id="Path_56985" data-name="Path 56985" d="M4107.783,1403.3a1.69,1.69,0,0,0-2.146,1.049,128.349,128.349,0,0,1-15.152,30.328,3.154,3.154,0,0,0-.556,2.99,3.188,3.188,0,0,0,.844,1.128,8.726,8.726,0,0,1,2.954,6.379,5.508,5.508,0,0,1-3.5,5.095,4.077,4.077,0,0,1-3.128-.368,3.232,3.232,0,0,1-1.645-1.955,1.69,1.69,0,1,0-3.267.862,6.227,6.227,0,0,0,1.458,2.625,36.835,36.835,0,0,1-8.028,9.087,1.689,1.689,0,1,0,2.13,2.623,40.173,40.173,0,0,0,8.709-9.832,7.56,7.56,0,0,0,2.678.5,6.975,6.975,0,0,0,2.119-.325,8.853,8.853,0,0,0,5.854-8.217,11.927,11.927,0,0,0-3.8-8.731,131.742,131.742,0,0,0,15.529-31.094A1.69,1.69,0,0,0,4107.783,1403.3Z" transform="translate(-67.862 -45.275)" fill="#0e1123"/>
    <path id="Path_56986" data-name="Path 56986" d="M4070.455,1416.036a1.689,1.689,0,0,0-2.256.787c-3.221,6.674-6.7,13.332-10.351,19.787a1.688,1.688,0,0,0,1.007,2.456,1.913,1.913,0,0,1,1.231,1.145,6.056,6.056,0,0,1-.214,4.634c-.447.957-1.432,2.63-3,3.071a2.365,2.365,0,0,1-1.831-.3,1.272,1.272,0,0,1-.616-.825,1.69,1.69,0,1,0-3.339.521,4.581,4.581,0,0,0,2.127,3.147,5.789,5.789,0,0,0,3.107.907,5.432,5.432,0,0,0,1.462-.2,8.5,8.5,0,0,0,5.153-4.9,9.3,9.3,0,0,0,.227-7.466,5.581,5.581,0,0,0-1.531-2.032c3.378-6.048,6.608-12.259,9.613-18.484A1.689,1.689,0,0,0,4070.455,1416.036Z" transform="translate(-64.146 -47.24)" fill="#0e1123"/>
    <path id="Path_56987" data-name="Path 56987" d="M4059.093,1485.048a1.689,1.689,0,1,0-2.086,2.657,3.2,3.2,0,1,1-4.861,4.027,1.689,1.689,0,1,0-3,1.555,6.527,6.527,0,0,0,4.576,3.314,7.293,7.293,0,0,0,1.449.148,6.318,6.318,0,0,0,4.058-1.414,6.83,6.83,0,0,0-.135-10.287Z" transform="translate(-63.819 -57.926)" fill="#0e1123"/>
    <path id="Path_56988" data-name="Path 56988" d="M4194.787,1159.455c-1.635-3.93-3.584-5.728-5.368-6.464,0-.025.008-.047.009-.073.218-6.976-1.706-12.092-5.279-14.038-2.493-1.356-5.438-1.014-8.3.965a9.551,9.551,0,0,0-2.528,2.63c-2.669-4.5-6.814-5.6-10.058-5.016a10.324,10.324,0,0,0-8.507,9.643,187.855,187.855,0,0,1-2.39,19.006c-.728-1.423-1.538-2.864-2.435-4.278-4.388-6.919-11.152-8.059-15.564-5.609a6.644,6.644,0,0,0-3.007,8.939,63.839,63.839,0,0,1,6.618,24.453c.723,9.35,6.155,13.849,8.539,15.389-2.394,17.568-7.54,45.272-11.729,48.17-5.056,3.5-31.312,10.067-41.394,12.4q1.144-10.22,1.8-19.691c.113.01.233.018.37.018a4.481,4.481,0,0,0,2.184-.59c1.882-1.044,3.306-3.343,4.233-6.832,1.655-6.233-2.8-10.581-5.382-12.009a1.669,1.669,0,0,0-.551-.182c.117-8.217-.118-15.783-.707-22.607a9.258,9.258,0,0,0,2.047-8.762,9.162,9.162,0,0,0-4.269-5.756,84.811,84.811,0,0,0-2.423-8.478,1.691,1.691,0,0,0,.389-.5c2.428-5.065,2.678-9.063.741-11.882-2.3-3.354-6.93-3.789-8.99-3.807-8.015-12.077-19.273-20-31.777-22.738,1.173-8.462-.31-17.12-4.427-25.758a1.678,1.678,0,0,0-.253-.384,12.685,12.685,0,0,0-8.624-3.98c-3.862-.078-7.619,1.754-11.22,5.492a1.692,1.692,0,0,0-.025,2.318c.073.079,7.051,7.843,8.838,21.6-17.475,2.165-32.31,13.981-37.81,30.127-1.046,3.07-2.054,6.983-3.11,11.627a1.691,1.691,0,0,0-.692,0c-.261.057-6.4,1.461-7.007,7.075a7.436,7.436,0,0,0,4.355,7.753,1.606,1.606,0,0,0,.182.054c-.037.182-.073.358-.111.542-.6,2.926-1.238,6.008-1.91,9.212-1.477.348-7.957,2.209-9.8,8.475-2.018,6.842,1.874,11.013,4.213,12.261a1.67,1.67,0,0,0,.79.2c.045,0,.088-.013.133-.018-1.54,6.42-3.262,13.1-5.212,19.926-7-.865-56.245-7.008-63.816-9.456-7.638-2.469-52.409-29.271-52.861-29.542a1.721,1.721,0,0,0-.371-.161,58.1,58.1,0,0,0-1.94-13.248c-.809-3.083-.361-6.7.072-10.2.83-6.7,1.769-14.3-8.076-15.611a11.168,11.168,0,0,0-9.469,3.109c-3.625,3.386-5.759,8.883-6.859,14.224-7.691-6.46-17.241-11.48-41.593-11.252-8.377.083-11.486,4.59-11.6,8.78a9.651,9.651,0,0,0,.146,1.84c-4.462,2.766-7.075,6.444-7.207,10.2-.09,2.532.878,6.261,6,9.652.032.021.068.042.1.063a11.468,11.468,0,0,0-4.175,8.6c0,3.792,2.269,6.865,6.219,8.432a77.527,77.527,0,0,0,9.448,2.765c7.14,1.784,15.232,3.806,18.988,8.761,4.594,6.061,15.439,13.511,24.374,13.509a12.166,12.166,0,0,0,6.668-1.815c6.454,2.656,52.135,21.424,60.582,24.078,8.466,2.661,57.983,4.714,66.23,5.04a256.672,256.672,0,0,1-11.139,25.344,10.477,10.477,0,0,0-9.345,15.7,1.662,1.662,0,0,0,.391.446c-.92,1.583-1.838,3.158-2.744,4.712-6.53,11.183-12.944,22.173-17.714,33.09a6.967,6.967,0,0,0-5.529.969,9.262,9.262,0,0,0-.227,15.482,71.774,71.774,0,0,0-1.554,8.064c-3.052-.492-9.136-.938-21.4-1.585-15.807-.833-32.822-1.311-46.681-1.311-14.457,0-19.735,1.325-32.031,11.256-17.006,13.736-39.853,33.8-48.881,41.782a1.7,1.7,0,0,0-.231-.237c-3.579-2.994-6.68-4.142-9.478-3.5-3.515.8-5.48,4.18-6.938,7.382-.523,1.147-2.522,1.792-4.839,2.541-4.6,1.484-10.889,3.517-12.271,12.02-.742,4.56-2.9,5.814-5.623,7.4-2.419,1.41-5.162,3.006-6.5,7.094a9.528,9.528,0,0,0-.33,1.379c-.959-3.225-4.116-6.328-8.134-3.778-.623.394-1.335.534-1.888.958-.244-.106-.5-.213-.746-.319-.033-.141-.058-.24-.067-.272a5.917,5.917,0,0,0-7.259-4.358,5.715,5.715,0,0,0-1.891.976c-4.009-1.455-4.546-1.264-8.783-2.4-12.434-3.342-29.757-6.039-41.668.09-7.085,3.645-11.127,10.508-12.677,19.338a1.584,1.584,0,0,0-.161.1,18.526,18.526,0,0,0-5.862,8.561c-.321,1.069-.687,2.282,15.888,19.292,10.413,10.688,22.124,21.89,31.325,29.969,41.411,36.358,54.432,38.558,54.966,38.634l.4.057.383-.13c.4-.135,3.912-1.472,7.2-6.884.928-.934,19.8-19.865,32.309-40.236a1.837,1.837,0,0,0,.162-1.548,10.714,10.714,0,0,0,1.936.191,8.189,8.189,0,0,0,2.348-.344c2.759-.758,4.676-2.9,5.7-6.379.61-2.076,2.92-2.993,6.64-4.318,3.827-1.363,8.164-2.908,10.987-6.971a32.279,32.279,0,0,0,3.476-6.44c.976-2.3,1.514-3.567,4.331-5.315,3.241-2.011,5.025-4.472,5.3-7.314.378-3.88-2.233-7.166-3.828-8.785,16.859-20.432,41.62-48.214,47.9-49.261,18.769-3.128,61.259-8.555,65.66-9.114a78.64,78.64,0,0,0,6.8,9.017c10.9,12.551,26.312,19.033,43.514,19.033a73.541,73.541,0,0,0,12.985-1.191c.566,7.258,3.814,49.779,3.068,59.765-.655,8.751-8.727,46.4-12.09,61.441-2.111-.116-6.763.031-9.548,3.193-1.894,2.151-2.476,5.144-1.729,8.9.645,3.241.088,4.5-.923,6.774a32.214,32.214,0,0,0-2.333,6.944c-1.042,4.846.794,9.076,2.413,12.807,1.568,3.611,2.473,5.919,1.381,7.768-1.848,3.129-2.108,6.005-.771,8.549.559,1.064,1.72,3.256,6.724,5.4a1.709,1.709,0,0,0-.268.719c-.024.189-2.37,19.049-3.584,30.956-.9,8.805-1.632,16.121,1.526,19.137a1.658,1.658,0,0,0-.373.753,18.964,18.964,0,0,0-.159,7.623,1.141,1.141,0,0,0-.3-.045,1.165,1.165,0,1,0,.858,1.944,5.911,5.911,0,0,0,.333.706l.388.668.76.143c.051.009,1.379.253,4,.612a1.141,1.141,0,0,0-.255.738,1.167,1.167,0,1,0,2.24-.479q1.174.148,2.581.309a1.162,1.162,0,1,0,2.31.253c.806.085,1.652.172,2.55.258a1.157,1.157,0,0,0,2.117.2c.94.085,1.937.17,2.964.254a1.155,1.155,0,0,0,1.513.122c8.79.686,20.521,1.3,35.288,1.457a1.166,1.166,0,1,0,.767.007q1.937.018,3.946.026a1.167,1.167,0,1,0,.939,0c.583,0,1.154,0,1.745,0l2.024,0h.091a1.166,1.166,0,1,0,.943,0c1.331-.005,2.648-.013,3.941-.025a1.167,1.167,0,1,0,.773-.008q2.193-.021,4.306-.054a1.16,1.16,0,1,0,.221,0c8.74-.139,16.371-.425,22.413-.845,3.418-.237,5.971-.491,7.895-.752a1.156,1.156,0,0,0,.906.423,1.171,1.171,0,0,0,1.068-.732,15.373,15.373,0,0,0,2.578-.652,1.2,1.2,0,0,0-.02.242,1.167,1.167,0,1,0,1.4-1.163,2.781,2.781,0,0,0,.211-.392,15.5,15.5,0,0,0,.757-1.974,1.168,1.168,0,1,0,.234-.822,18.863,18.863,0,0,0,.4-6.953l.226-.684c4.706-14.257-.6-28.155-15.357-40.194-8.108-6.617-10.71-7.947-10.979-8.077l-.015-.006a5.9,5.9,0,0,0-5.064-4.6,6.335,6.335,0,0,0-3.244-6.389c1.248-3.234.3-5.666-.475-7.668-.95-2.444-1.637-4.21,1.051-7.689,5.279-6.832,2.461-12.829.4-17.207-1.032-2.2-1.923-4.092-1.448-5.243,1.347-3.26,2.477-7.015.653-10.139-1.452-2.489-4.415-3.975-9.057-4.546a1.628,1.628,0,0,0-.192,0c.125-5.847.285-11.419.443-16.831.648-22.239,1.159-39.8-1.685-53.24-6.555-30.984-18.6-67.487-18.717-67.852a1.7,1.7,0,0,0-.139-.313q2.781-2.614,5.591-5.69a8.685,8.685,0,0,0,4.612,1.291,8.825,8.825,0,0,0,6.452-15.028,249.419,249.419,0,0,0,34.446-69.962,4.919,4.919,0,0,0,1,.1,5.626,5.626,0,0,0,2.662-.7,7.043,7.043,0,0,0,3.59-5.005c.549-3.545-1.335-6.777-2.8-8.9a1.657,1.657,0,0,0-.551-.5c.14-.658.278-1.315.409-1.969,2.042-10.214,3.823-20.164,5.339-29.781.155,0,.479,0,.968,0,1.862,0,6.013-.028,11.441-.232a1.041,1.041,0,0,0,.6-.023c17.72-.7,48.229-3.257,58.171-12.576,3.882-3.638,8.807-16.107,14.64-37.061,3.675-13.2,6.591-25.8,7.375-29.25,2.194-.92,7.21-4.007,12.722-14.05C4203.406,1185.045,4198.435,1168.229,4194.787,1159.455Zm-98.808,70.679a7.11,7.11,0,0,1,2.745,7.471c-1.129,4.251-2.7,4.989-3.207,4.91a.365.365,0,0,1,.1.026l-.244.8Q4095.807,1236.508,4095.979,1230.133Zm-6.929-59.928c1.073,1.563.749,3.881.008,6.055a70.118,70.118,0,0,0-3.995-8.185A6.022,6.022,0,0,1,4089.051,1170.206Zm-59-51.791c2.548-2.314,5.082-3.48,7.593-3.413a9.32,9.32,0,0,1,6.062,2.684c3.772,8.011,5.094,15.7,4.037,23.461a46.429,46.429,0,0,0-9.01-.4A46.758,46.758,0,0,0,4030.052,1118.414Zm-39.953,71.817c.247-2.309,2.349-3.422,3.548-3.875q-.8,3.709-1.671,7.926A4.012,4.012,0,0,1,3990.1,1190.232Zm-7.408,26.631c.955-3.237,3.853-4.876,5.757-5.628-.954,4.466-1.988,9.148-3.123,14-.02-.013-.037-.029-.057-.04C3985.09,1225.1,3980.962,1222.719,3982.69,1216.863Zm-17.2,55.6a1.162,1.162,0,0,0-.68-.243,1.147,1.147,0,0,0-.648.185c-15.812-.7-52.4-2.5-59.148-4.626-8.762-2.754-60.481-24.05-61-24.265a2.34,2.34,0,0,0-1.932.234c-4.052,3.071-10.32,1.026-13.7-.467a36.14,36.14,0,0,1-13.314-10.092c-4.474-5.9-13.18-8.078-20.861-10a75.476,75.476,0,0,1-9.022-2.628c-2.671-1.059-4.083-2.89-4.085-5.293a7.921,7.921,0,0,1,4.2-6.782c4.353,1.95,9.95,3.388,15.03,4.691,5.1,1.309,9.924,2.545,12.171,3.956a1.69,1.69,0,0,0,1.8-2.862c-2.694-1.691-7.529-2.931-13.129-4.367-6.331-1.623-13.507-3.463-17.512-6.117-3.02-2-4.571-4.323-4.487-6.715.086-2.438,1.865-4.941,4.939-7.016,2.248,4.41,7.43,8.238,14.74,8.715,6.341.415,18.865,4.639,18.99,4.682a1.689,1.689,0,0,0,1.085-3.2c-.531-.18-13.071-4.41-19.855-4.854-8.548-.559-12.947-6.4-12.836-10.394.094-3.391,3.181-5.445,8.258-5.495,26.78-.291,34.8,6.3,40.927,11.788a40.872,40.872,0,0,0-.27,7.261,1.689,1.689,0,1,0,3.371-.219c-.418-6.443,1.384-17.748,6.7-22.713a7.828,7.828,0,0,1,6.716-2.228c6.249.834,6.086,4.434,5.169,11.847-.45,3.639-.96,7.764.013,11.474,2.473,9.428,2.466,18.8-.017,23.324a1.69,1.69,0,1,0,2.962,1.626,21.741,21.741,0,0,0,2.173-8.736c7.553,4.508,44.94,26.721,52.282,29.1,5.609,1.814,31.69,5.389,49.16,7.657a1.155,1.155,0,0,0,2.1.271c1.84.237,3.562.458,5.126.656a1.154,1.154,0,0,0,1.837.232l1.942.244a1.164,1.164,0,1,0,1.885.925,1.151,1.151,0,0,0-.244-.72l2.1.261q-1.269,4.3-2.667,8.658a1.161,1.161,0,0,0-.716,2.208q-.967,2.942-2,5.9a1.164,1.164,0,1,0-1.139,1.424,1.148,1.148,0,0,0,.731-.263q-.49,1.385-.993,2.771a1.163,1.163,0,0,0-.662.435C3970.133,1272.66,3968.193,1272.582,3965.489,1272.464Zm-12.739,35.724a7.3,7.3,0,0,1,4.482-3.229c-.755,1.417-1.521,2.83-2.309,4.23q-1.385,2.461-2.805,4.92A7.311,7.311,0,0,1,3952.751,1308.189Zm-29.495,55.422a5.629,5.629,0,0,1,2.674-4.43,3.938,3.938,0,0,1,2.407-.662c-1.321,3.248-2.484,6.491-3.447,9.732A5.583,5.583,0,0,1,3923.256,1363.611Zm-205.922,118.648c3.642-8.642,1.224-15.35,1.2-15.418a2.957,2.957,0,0,1,5.542-2.062c.135.362,3.251,9-1.292,19.776a2.957,2.957,0,1,1-5.449-2.3Zm-9.806-3.26c3.5-9.1.7-14.894.58-15.136a2.956,2.956,0,0,1,5.249-2.722c.174.332,4.206,8.25-.311,19.982a2.956,2.956,0,0,1-5.518-2.125Zm-11.766,35.066,16.393-19.656a1.268,1.268,0,0,1,1.789-.171c3.207,2.7,6.114,5.152,9.016,7.608a6.76,6.76,0,0,1,.67.733c2.01,2.286,3.278,4.8,1.929,7.918a6.253,6.253,0,0,1-5.79,4.04,1.287,1.287,0,0,0-1.174,1.588l0,.014c.937,3.574-.332,6.318-3.172,8.508a6.847,6.847,0,0,1-8.655.109c-3.076-2.12-5.866-4.659-8.762-7.037-.685-.562-1.339-1.161-2.136-1.884A1.284,1.284,0,0,1,3695.762,1514.065Zm-35.54-57.025c8.937-4.6,19.659-2.832,32.219-.009.407,2.8.83,8.167.646,18.138-.309,16.832-16.464,28.209-18.2,29.885a241.886,241.886,0,0,1-27.7-29.046C3648.427,1467.866,3653.877,1460.305,3660.223,1457.039Zm80.052,110.372c-2.54-.742-16.641-5.97-52.8-37.721-19.89-17.464-43.49-42.118-46.035-46.27a14.9,14.9,0,0,1,3.239-5.133c2.644,3.273,14.461,17.285,40.9,41.011,18.469,16.57,44.486,38.75,58.736,44.341A12.767,12.767,0,0,1,3740.274,1567.412Zm6.183-6.727c-8.223-2.855-14.687-7.264-23.16-14.631a1.77,1.77,0,0,0,.288-.207c6.291-5.6,11.823-8.172,16.918-7.868,5.288.317,10.659,3.726,16.884,10.71C3752.842,1554.2,3747.878,1559.133,3746.457,1560.684Zm71.55-75.777c-.169,1.738-1.42,3.343-3.719,4.77a12.278,12.278,0,0,0-5.66,6.866,28.867,28.867,0,0,1-3.14,5.831c-2.2,3.172-5.835,4.465-9.347,5.716-3.746,1.335-7.621,2.715-8.747,6.55-.677,2.307-1.772,3.638-3.349,4.071-3.276.9-10.6-1.205-26.895-16.357-26.073-24.251-27.762-34.6-26.448-38.6.94-2.866,2.818-3.96,4.992-5.226,2.934-1.709,6.26-3.646,7.257-9.781,1.051-6.463,5.588-7.929,9.975-9.346,2.949-.952,5.734-1.852,6.875-4.355,1.116-2.449,2.536-5.016,4.612-5.488,1.652-.373,3.811.537,6.424,2.693l-.417.371a1.684,1.684,0,0,0-2.594,1.985c4.771,11.177,21.561,31.658,44.42,49.176a1.69,1.69,0,1,0,2.055-2.682c-.116-.089-.228-.178-.344-.267q.7-.863,1.424-1.749C3816.5,1480.281,3818.237,1482.549,3818.007,1484.907Zm107.143-69.476a1.167,1.167,0,1,0-1.089.14c-2.99.387-6.775.879-11.022,1.44a1.158,1.158,0,0,0-1.855.245l-2.688.357a1.16,1.16,0,0,0-2.262.3c-14.227,1.9-31.217,4.252-41.345,5.941-9.926,1.654-46.509,46.169-53.592,54.889-21.2-16.853-34.38-33.9-39.213-43.085,3.539-3.148,32.076-28.482,52.3-44.813,11.808-9.537,16.208-10.506,29.907-10.506,23.09,0,49.34,1.292,61.772,2.28a1.164,1.164,0,0,0,2.229.186c1,.09,1.855.175,2.576.255a1.163,1.163,0,0,0,.966.494,1.132,1.132,0,0,0,.164-.019q-.174,2.4-.15,4.809l-.025,0a1.165,1.165,0,1,0,.011,2.33c.03,0,.057-.007.085-.009q.132,2.48.5,4.965a1.165,1.165,0,1,0,.287,1.749c.146.8.317,1.6.5,2.4a1.138,1.138,0,0,0-.1.493,1.161,1.161,0,0,0,.439.88,54.714,54.714,0,0,0,3.024,8.577,1.163,1.163,0,1,0,.967,2.059q.771,1.56,1.66,3.124C3928.191,1415.039,3926.823,1415.214,3925.15,1415.431Zm55.02,243.062c.121-1.183.253-2.437.392-3.733,8.716,1.633,12.917,8.385,13.849,22.12l-3.3-.425c-3.109-.4-6.176-.8-9.229-1.167C3979.226,1674.966,3978.858,1671.356,3980.17,1658.492Zm108.165,28.575c-2.343.922-15.765,2.305-43.837,2.385-38.194.086-58.812-2.843-63.2-3.551a14.4,14.4,0,0,1-.087-7.2c0-.017,0-.034.005-.051.088.014.163.042.254.053,3.044.368,6.1.764,9.2,1.164,14.485,1.87,30.079,3.885,49.682,3.885a332.078,332.078,0,0,0,48.968-3.841A15.021,15.021,0,0,1,4088.335,1687.068Zm-60.557-26.723.008.008c2.156,2.121,2.745,5.006,2.234,8.462-.519,3.522-2.26,5.257-4.593,5.553a68.383,68.383,0,0,1-7.956.2c-.628.006-1.255-.036-2.018-.08-.482-.029-.871-.592-.879-1.274-.1-8.382-.2-16.688-.3-25.278-.009-.7.387-1.264.881-1.26,2.971.025,5.664.046,8.357.076a3.634,3.634,0,0,1,.7.134,5.607,5.607,0,0,1,4.7,4.79,7.788,7.788,0,0,1-1.237,6.725A1.616,1.616,0,0,0,4027.778,1660.345Zm47.914-19.122c12.912,10.693,17.808,22.809,14.2,35.129a330.683,330.683,0,0,1-48.965,3.951,1.6,1.6,0,0,0-.014-.183c-2.026-11.126,1.178-22.333,8.571-29.977A30.4,30.4,0,0,1,4075.692,1641.223Zm-14.8-12.557a2.956,2.956,0,0,1-.31,5.9c-4.36-.225-10.788.106-16.348,5.639a2.956,2.956,0,1,1-4.17-4.192C4045.489,1630.619,4052.3,1628.209,4060.892,1628.666Zm-2.794-3c-7.942.156-14.445,2.771-19.793,7.942a2.95,2.95,0,0,1-3.137-4.9c5.006-4.524,15.506-8.516,21.033-6.686A2.951,2.951,0,0,1,4058.1,1625.669Zm-7.556-53.586a1.719,1.719,0,0,0-1.493-1.483c0-.165.007-.323.009-.487,3.357.436,5.494,1.389,6.341,2.84,1.066,1.825.163,4.607-.86,7.087-1.056,2.556.191,5.212,1.512,8.023,1.958,4.165,3.981,8.469-.011,13.636-3.879,5.019-2.58,8.36-1.535,11.045.742,1.909,1.28,3.345.329,5.494-7.333-.847-17.36,3.881-22.018,8.236a6.273,6.273,0,0,0-1.434,2.027c-5.575.077-17.461-.106-24.174-.577-22.177-1.551-28.712-5.456-30.29-8.458-.754-1.436-.529-3.135.688-5.2,2.041-3.455.4-7.236-1.188-10.892-1.482-3.415-3.015-6.946-2.206-10.711a28.93,28.93,0,0,1,2.115-6.27,12.3,12.3,0,0,0,1.153-8.843c-.526-2.644-.211-4.645.936-5.947,1.611-1.829,4.583-2.067,6.188-2.049-.22.96-.392,1.7-.509,2.175-.1-.02-.206-.041-.3-.062a1.722,1.722,0,1,0-.724,3.368c5.081,1.093,12.793,1.489,21.208,1.489,18.1,0,39.434-1.834,44.777-2.519A1.723,1.723,0,0,0,4050.542,1572.083Zm-21.256-131.807q.426,1.375.891,2.9a1.133,1.133,0,0,0-.336-.054,1.167,1.167,0,1,0,.9,1.9c4.1,13.5,9.944,33.871,13.838,52.271,2.759,13.041,2.253,30.429,1.613,52.442-.2,6.741-.4,13.711-.53,21.188-11.265,1.143-42.391,3.406-58.241,1.355.351-1.351.883-3.755,1.861-8.176.843-3.812,2.545-11.578,4.473-20.75,2.983-14.2,6.634-32.388,7.084-38.4.509-6.811-.724-27.491-1.8-42.984a1.154,1.154,0,0,0,.44-.92,1.168,1.168,0,0,0-.573-.985q-.1-1.409-.194-2.743a1.163,1.163,0,0,0-.161-2.233c-.059-.823-.117-1.616-.173-2.373a1.165,1.165,0,0,0-.069-2.329c-.035,0-.069.008-.1.012-.071-.95-.137-1.821-.2-2.6a1.164,1.164,0,0,0-.134-2.321c-.015,0-.031,0-.046.005-.038-.494-.07-.9-.094-1.213.895-.2,1.792-.422,2.69-.654a1.163,1.163,0,0,0,.971,1.839,1.164,1.164,0,0,0,.471-2.219q1.117-.31,2.24-.656a1.154,1.154,0,0,0,.912.424,1.167,1.167,0,0,0,1.134-1.077q4.173-1.389,8.371-3.24a35.832,35.832,0,0,0,3.561-1.835,1.211,1.211,0,0,0-.019.176,1.165,1.165,0,1,0,1.53-1.1c.655-.419,1.314-.867,1.977-1.336a1.162,1.162,0,1,0,1.626-1.19c.659-.5,1.321-1.033,1.986-1.581a1.168,1.168,0,0,0,1.187,1.165,1.154,1.154,0,0,0,.561-.164c.479,1.494,1.117,3.5,1.872,5.923a1.141,1.141,0,0,0-.127.515A1.167,1.167,0,0,0,4029.287,1440.276Zm14.331-21.614a5.817,5.817,0,0,1-6.685,1.471c2.238-2.589,4.472-5.373,6.687-8.326A5.815,5.815,0,0,1,4043.617,1418.662Zm40.421-85.743a3.7,3.7,0,0,1-1.85,2.545,2.3,2.3,0,0,1-1.087.283q1.044-3.664,1.919-7.284A7.25,7.25,0,0,1,4084.039,1332.919Zm-2.915-11.514c-9.145,45.723-43.442,103.35-67.961,114.188-28.26,12.491-56.121,8.385-72.711-10.718-13.365-15.389-17.745-31.213-13.787-49.8,3.561-16.72,13.316-33.43,23.645-51.122,2.5-4.276,5.078-8.7,7.559-13.109,21.385-38.017,30.544-82.506,36.6-111.946,2.394-11.627,4.284-20.811,6.272-26.645,5.094-14.956,18.879-25.9,35.115-27.876,17.472-2.131,34.168,6.37,44.67,22.729a71.035,71.035,0,0,1,8.937,21.327,6.807,6.807,0,0,0-4.993,3.263,1.689,1.689,0,1,0,2.843,1.825,3.271,3.271,0,0,1,3.214-1.727c1.6.24,2.983,1.782,3.614,4.026a5.846,5.846,0,0,1-1.231,5.5,1.684,1.684,0,0,0-.829.777,2.95,2.95,0,0,1-3.209.569,1.689,1.689,0,1,0-1.655,2.945,5.46,5.46,0,0,0,2.7.7,6.409,6.409,0,0,0,2.227-.414C4094.27,1234.262,4090.386,1275.1,4081.124,1321.4Zm111.607-123.934c-6.209,11.313-11.515,12.722-11.535,12.728a1.688,1.688,0,0,0-1.313,1.289c-3.564,16.023-14.325,59.026-21.238,65.5-5.314,4.981-18.844,8.626-39.127,10.541-4.3.405-8.479.691-12.287.893a1.163,1.163,0,0,0-2.324.06c0,.02,0,.036.005.055-1.712.079-3.33.141-4.825.19a1.139,1.139,0,0,0,.031-.256,1.166,1.166,0,1,0-2.331.011,1.124,1.124,0,0,0,.053.311c-1.949.052-3.616.079-4.921.094a1.165,1.165,0,1,0-2.162.015h-.46q.343-2.252.667-4.476a1.153,1.153,0,0,0,.877.4,1.167,1.167,0,1,0-.623-2.15c.128-.9.251-1.792.374-2.685a1.108,1.108,0,0,0,.249.027,1.164,1.164,0,0,0,.063-2.326c.114-.855.229-1.71.339-2.559a1.16,1.16,0,0,0,.259-2.042q.266-2.114.512-4.2a1.619,1.619,0,0,0,.848.029c.4-.093,3.311-.765,7.451-1.784a1.162,1.162,0,1,0,2.255-.56c11.2-2.8,28.617-7.5,33.147-10.634,6.761-4.678,12.271-43.82,13.306-51.62a1.7,1.7,0,0,0-.946-1.747c-.284-.138-6.97-3.484-7.724-13.232a66.974,66.974,0,0,0-6.941-25.658,3.3,3.3,0,0,1,1.6-4.519c2.448-1.361,7.418-1.293,11.07,4.465a65.056,65.056,0,0,1,7.314,17.3,1.689,1.689,0,1,0,3.287-.778,66.057,66.057,0,0,0-2.845-8.633,1.777,1.777,0,0,0,.072-.259c.119-.655,2.924-16.128,3.227-24.043a7.013,7.013,0,0,1,5.728-6.447c3.11-.56,5.77,1.222,7.294,4.889a1.691,1.691,0,0,0,.383.563,60.714,60.714,0,0,0-1.989,8.62,52.687,52.687,0,0,1-2.93,11.351,1.689,1.689,0,1,0,3.1,1.351,55.078,55.078,0,0,0,3.157-12.1c1.013-5.561,1.97-10.813,4.9-12.839,1.242-.859,3.075-1.69,4.759-.775,2.355,1.281,3.665,5.32,3.52,10.815-3.389.67-6.062,4.159-7.028,7.519a12.924,12.924,0,0,0,0,7.477,24.731,24.731,0,0,1,.731,7.249,1.689,1.689,0,1,0,3.376.129,27.98,27.98,0,0,0-.813-8.125,9.779,9.779,0,0,1-.045-5.8c.792-2.755,2.942-5.083,4.794-5.188,1.65-.092,3.266,1.621,4.6,4.825C4199.625,1179.888,4195.75,1191.972,4192.731,1197.471Z" fill="#0e1123"/>
    <path id="Path_56989" data-name="Path 56989" d="M3970.994,1451.922a1.165,1.165,0,1,0,1.163,1.16A1.169,1.169,0,0,0,3970.994,1451.922Z" transform="translate(-51.533 -52.839)" fill="#0e1123"/>
    <path id="Path_56990" data-name="Path 56990" d="M3970.994,1443.5a1.165,1.165,0,1,0,1.163,1.159A1.168,1.168,0,0,0,3970.994,1443.5Z" transform="translate(-51.533 -51.53)" fill="#0e1123"/>
    <path id="Path_56991" data-name="Path 56991" d="M3970.994,1460.348a1.165,1.165,0,1,0,1.163,1.16A1.169,1.169,0,0,0,3970.994,1460.348Z" transform="translate(-51.533 -54.147)" fill="#0e1123"/>
    <path id="Path_56992" data-name="Path 56992" d="M3973.784,1456.058a1.165,1.165,0,1,0,1.163,1.16A1.169,1.169,0,0,0,3973.784,1456.058Z" transform="translate(-51.966 -53.481)" fill="#0e1123"/>
    <path id="Path_56993" data-name="Path 56993" d="M3970.994,1435.071a1.165,1.165,0,1,0,1.163,1.16A1.169,1.169,0,0,0,3970.994,1435.071Z" transform="translate(-51.533 -50.222)" fill="#0e1123"/>
    <path id="Path_56994" data-name="Path 56994" d="M3973.784,1464.484a1.165,1.165,0,1,0,1.163,1.159A1.169,1.169,0,0,0,3973.784,1464.484Z" transform="translate(-51.966 -54.789)" fill="#0e1123"/>
    <path id="Path_56995" data-name="Path 56995" d="M3962.4,1464.484a1.165,1.165,0,1,0,1.164,1.159A1.169,1.169,0,0,0,3962.4,1464.484Z" transform="translate(-50.198 -54.789)" fill="#0e1123"/>
    <path id="Path_56996" data-name="Path 56996" d="M3976.684,1460.348a1.165,1.165,0,1,0,1.164,1.16A1.169,1.169,0,0,0,3976.684,1460.348Z" transform="translate(-52.416 -54.147)" fill="#0e1123"/>
    <path id="Path_56997" data-name="Path 56997" d="M3959.612,1443.5a1.165,1.165,0,1,0,1.164,1.159A1.169,1.169,0,0,0,3959.612,1443.5Z" transform="translate(-49.765 -51.53)" fill="#0e1123"/>
    <path id="Path_56998" data-name="Path 56998" d="M3962.4,1447.632a1.165,1.165,0,1,0,1.164,1.16A1.17,1.17,0,0,0,3962.4,1447.632Z" transform="translate(-50.198 -52.172)" fill="#0e1123"/>
    <path id="Path_56999" data-name="Path 56999" d="M3959.612,1451.922a1.165,1.165,0,1,0,1.164,1.16A1.17,1.17,0,0,0,3959.612,1451.922Z" transform="translate(-49.765 -52.839)" fill="#0e1123"/>
    <path id="Path_57000" data-name="Path 57000" d="M3962.4,1456.058a1.165,1.165,0,1,0,1.164,1.16A1.169,1.169,0,0,0,3962.4,1456.058Z" transform="translate(-50.198 -53.481)" fill="#0e1123"/>
    <path id="Path_57001" data-name="Path 57001" d="M3959.612,1460.348a1.165,1.165,0,1,0,1.164,1.16A1.17,1.17,0,0,0,3959.612,1460.348Z" transform="translate(-49.765 -54.147)" fill="#0e1123"/>
    <path id="Path_57002" data-name="Path 57002" d="M3956.757,1456.058a1.165,1.165,0,1,0,1.164,1.16A1.169,1.169,0,0,0,3956.757,1456.058Z" transform="translate(-49.322 -53.481)" fill="#0e1123"/>
    <path id="Path_57003" data-name="Path 57003" d="M3956.711,1464.484a1.165,1.165,0,1,0,1.164,1.159A1.168,1.168,0,0,0,3956.711,1464.484Z" transform="translate(-49.315 -54.789)" fill="#0e1123"/>
    <path id="Path_57004" data-name="Path 57004" d="M3959.612,1468.774a1.165,1.165,0,1,0,1.164,1.159A1.17,1.17,0,0,0,3959.612,1468.774Z" transform="translate(-49.765 -55.455)" fill="#0e1123"/>
    <path id="Path_57005" data-name="Path 57005" d="M3968.093,1447.632a1.165,1.165,0,1,0,1.164,1.16A1.17,1.17,0,0,0,3968.093,1447.632Z" transform="translate(-51.082 -52.172)" fill="#0e1123"/>
    <path id="Path_57006" data-name="Path 57006" d="M3965.3,1435.071a1.165,1.165,0,1,0,1.164,1.16A1.169,1.169,0,0,0,3965.3,1435.071Z" transform="translate(-50.649 -50.222)" fill="#0e1123"/>
    <path id="Path_57007" data-name="Path 57007" d="M3968.093,1456.058a1.165,1.165,0,1,0,1.164,1.16A1.17,1.17,0,0,0,3968.093,1456.058Z" transform="translate(-51.082 -53.481)" fill="#0e1123"/>
    <path id="Path_57008" data-name="Path 57008" d="M3968.093,1464.484a1.165,1.165,0,1,0,1.164,1.159A1.17,1.17,0,0,0,3968.093,1464.484Z" transform="translate(-51.082 -54.789)" fill="#0e1123"/>
    <path id="Path_57009" data-name="Path 57009" d="M3970.994,1468.774a1.165,1.165,0,1,0,1.163,1.159A1.169,1.169,0,0,0,3970.994,1468.774Z" transform="translate(-51.533 -55.455)" fill="#0e1123"/>
    <path id="Path_57010" data-name="Path 57010" d="M3965.3,1468.774a1.165,1.165,0,1,0,1.164,1.159A1.169,1.169,0,0,0,3965.3,1468.774Z" transform="translate(-50.649 -55.455)" fill="#0e1123"/>
    <path id="Path_57011" data-name="Path 57011" d="M3962.4,1439.207a1.165,1.165,0,1,0,1.164,1.159A1.169,1.169,0,0,0,3962.4,1439.207Z" transform="translate(-50.198 -50.864)" fill="#0e1123"/>
    <path id="Path_57012" data-name="Path 57012" d="M3965.3,1460.348a1.165,1.165,0,1,0,1.164,1.16A1.169,1.169,0,0,0,3965.3,1460.348Z" transform="translate(-50.649 -54.147)" fill="#0e1123"/>
    <path id="Path_57013" data-name="Path 57013" d="M3965.3,1451.922a1.165,1.165,0,1,0,1.164,1.16A1.169,1.169,0,0,0,3965.3,1451.922Z" transform="translate(-50.649 -52.839)" fill="#0e1123"/>
    <path id="Path_57014" data-name="Path 57014" d="M3965.3,1443.5a1.165,1.165,0,1,0,1.164,1.159A1.169,1.169,0,0,0,3965.3,1443.5Z" transform="translate(-50.649 -51.53)" fill="#0e1123"/>
    <path id="Path_57015" data-name="Path 57015" d="M3968.093,1439.207a1.165,1.165,0,1,0,1.164,1.159A1.169,1.169,0,0,0,3968.093,1439.207Z" transform="translate(-51.082 -50.864)" fill="#0e1123"/>
    <path id="Path_57016" data-name="Path 57016" d="M4093.24,1515.432a1.167,1.167,0,1,0,1.171,1.152A1.168,1.168,0,0,0,4093.24,1515.432Z" transform="translate(-70.515 -62.7)" fill="#0e1123"/>
    <path id="Path_57017" data-name="Path 57017" d="M4093.24,1504.05a1.167,1.167,0,1,0,1.171,1.152A1.168,1.168,0,0,0,4093.24,1504.05Z" transform="translate(-70.515 -60.933)" fill="#0e1123"/>
    <path id="Path_57018" data-name="Path 57018" d="M4089.1,1506.84a1.167,1.167,0,1,0,1.171,1.152A1.169,1.169,0,0,0,4089.1,1506.84Z" transform="translate(-69.873 -61.366)" fill="#0e1123"/>
    <path id="Path_57019" data-name="Path 57019" d="M4093.24,1509.741a1.167,1.167,0,1,0,1.171,1.152A1.168,1.168,0,0,0,4093.24,1509.741Z" transform="translate(-70.515 -61.816)" fill="#0e1123"/>
    <path id="Path_57020" data-name="Path 57020" d="M4089.1,1501.149a1.167,1.167,0,1,0,1.171,1.153A1.169,1.169,0,0,0,4089.1,1501.149Z" transform="translate(-69.873 -60.482)" fill="#0e1123"/>
    <path id="Path_57021" data-name="Path 57021" d="M4084.814,1504.05a1.167,1.167,0,1,0,1.171,1.152A1.168,1.168,0,0,0,4084.814,1504.05Z" transform="translate(-69.207 -60.933)" fill="#0e1123"/>
    <path id="Path_57022" data-name="Path 57022" d="M4084.814,1498.359a1.167,1.167,0,1,0,1.171,1.153A1.169,1.169,0,0,0,4084.814,1498.359Z" transform="translate(-69.207 -60.049)" fill="#0e1123"/>
    <path id="Path_57023" data-name="Path 57023" d="M4089.1,1512.531a1.167,1.167,0,1,0,1.171,1.152A1.169,1.169,0,0,0,4089.1,1512.531Z" transform="translate(-69.873 -62.249)" fill="#0e1123"/>
    <path id="Path_57024" data-name="Path 57024" d="M4097.53,1512.531a1.167,1.167,0,1,0,1.171,1.152A1.168,1.168,0,0,0,4097.53,1512.531Z" transform="translate(-71.181 -62.249)" fill="#0e1123"/>
    <path id="Path_57025" data-name="Path 57025" d="M4101.5,1512.075a1.167,1.167,0,1,0-1.188-1.17A1.171,1.171,0,0,0,4101.5,1512.075Z" transform="translate(-71.794 -61.816)" fill="#0e1123"/>
    <path id="Path_57026" data-name="Path 57026" d="M4093.24,1498.359a1.167,1.167,0,1,0,1.171,1.153A1.169,1.169,0,0,0,4093.24,1498.359Z" transform="translate(-70.515 -60.049)" fill="#0e1123"/>
    <path id="Path_57027" data-name="Path 57027" d="M4097.53,1495.211a1.167,1.167,0,1,0,1.171,1.153A1.168,1.168,0,0,0,4097.53,1495.211Z" transform="translate(-71.181 -59.56)" fill="#0e1123"/>
    <path id="Path_57028" data-name="Path 57028" d="M4067.963,1521.118a1.167,1.167,0,1,0,1.171,1.152A1.167,1.167,0,0,0,4067.963,1521.118Z" transform="translate(-66.59 -63.583)" fill="#0e1123"/>
    <path id="Path_57029" data-name="Path 57029" d="M4097.53,1501.149a1.167,1.167,0,1,0,1.171,1.153A1.168,1.168,0,0,0,4097.53,1501.149Z" transform="translate(-71.181 -60.482)" fill="#0e1123"/>
    <path id="Path_57030" data-name="Path 57030" d="M4084.814,1509.741a1.167,1.167,0,1,0,1.171,1.152A1.169,1.169,0,0,0,4084.814,1509.741Z" transform="translate(-69.207 -61.816)" fill="#0e1123"/>
    <path id="Path_57031" data-name="Path 57031" d="M4097.53,1506.84a1.167,1.167,0,1,0,1.171,1.152A1.168,1.168,0,0,0,4097.53,1506.84Z" transform="translate(-71.181 -61.366)" fill="#0e1123"/>
    <path id="Path_57032" data-name="Path 57032" d="M4076.388,1509.741a1.167,1.167,0,1,0,1.171,1.152A1.167,1.167,0,0,0,4076.388,1509.741Z" transform="translate(-67.899 -61.816)" fill="#0e1123"/>
    <path id="Path_57033" data-name="Path 57033" d="M4072.253,1512.531a1.167,1.167,0,1,0,1.171,1.152A1.168,1.168,0,0,0,4072.253,1512.531Z" transform="translate(-67.257 -62.249)" fill="#0e1123"/>
    <path id="Path_57034" data-name="Path 57034" d="M4072.253,1506.84a1.167,1.167,0,1,0,1.171,1.152A1.168,1.168,0,0,0,4072.253,1506.84Z" transform="translate(-67.257 -61.366)" fill="#0e1123"/>
    <path id="Path_57035" data-name="Path 57035" d="M4072.253,1518.217a1.167,1.167,0,1,0,1.171,1.152A1.168,1.168,0,0,0,4072.253,1518.217Z" transform="translate(-67.257 -63.132)" fill="#0e1123"/>
    <path id="Path_57036" data-name="Path 57036" d="M4067.963,1515.427a1.167,1.167,0,1,0,1.171,1.152A1.168,1.168,0,0,0,4067.963,1515.427Z" transform="translate(-66.59 -62.699)" fill="#0e1123"/>
    <path id="Path_57037" data-name="Path 57037" d="M4072.253,1523.907a1.167,1.167,0,1,0,1.171,1.153A1.168,1.168,0,0,0,4072.253,1523.907Z" transform="translate(-67.257 -64.016)" fill="#0e1123"/>
    <path id="Path_57038" data-name="Path 57038" d="M4084.814,1515.386a1.167,1.167,0,1,0,1.171,1.152A1.168,1.168,0,0,0,4084.814,1515.386Z" transform="translate(-69.207 -62.693)" fill="#0e1123"/>
    <path id="Path_57039" data-name="Path 57039" d="M4067.963,1509.741a1.167,1.167,0,1,0,1.171,1.152A1.168,1.168,0,0,0,4067.963,1509.741Z" transform="translate(-66.59 -61.816)" fill="#0e1123"/>
    <path id="Path_57040" data-name="Path 57040" d="M4076.388,1521.118a1.167,1.167,0,1,0,1.171,1.152A1.167,1.167,0,0,0,4076.388,1521.118Z" transform="translate(-67.899 -63.583)" fill="#0e1123"/>
    <path id="Path_57041" data-name="Path 57041" d="M4080.678,1512.531a1.167,1.167,0,1,0,1.171,1.152A1.167,1.167,0,0,0,4080.678,1512.531Z" transform="translate(-68.565 -62.249)" fill="#0e1123"/>
    <path id="Path_57042" data-name="Path 57042" d="M4080.678,1506.84a1.167,1.167,0,1,0,1.171,1.152A1.167,1.167,0,0,0,4080.678,1506.84Z" transform="translate(-68.565 -61.366)" fill="#0e1123"/>
    <path id="Path_57043" data-name="Path 57043" d="M4080.678,1501.149a1.167,1.167,0,1,0,1.171,1.153A1.167,1.167,0,0,0,4080.678,1501.149Z" transform="translate(-68.565 -60.482)" fill="#0e1123"/>
    <path id="Path_57044" data-name="Path 57044" d="M4080.678,1518.217a1.167,1.167,0,1,0,1.171,1.152A1.167,1.167,0,0,0,4080.678,1518.217Z" transform="translate(-68.565 -63.132)" fill="#0e1123"/>
    <path id="Path_57045" data-name="Path 57045" d="M4076.388,1504.05a1.167,1.167,0,1,0,1.171,1.152A1.167,1.167,0,0,0,4076.388,1504.05Z" transform="translate(-67.899 -60.933)" fill="#0e1123"/>
    <path id="Path_57046" data-name="Path 57046" d="M4076.388,1515.427a1.167,1.167,0,1,0,1.171,1.152A1.167,1.167,0,0,0,4076.388,1515.427Z" transform="translate(-67.899 -62.699)" fill="#0e1123"/>
    <path id="Path_57047" data-name="Path 57047" d="M4116.907,1803.831a1.165,1.165,0,1,0,1.164,1.16A1.17,1.17,0,0,0,4116.907,1803.831Z" transform="translate(-74.188 -107.48)" fill="#0e1123"/>
    <path id="Path_57048" data-name="Path 57048" d="M4111.216,1803.831a1.165,1.165,0,1,0,1.164,1.16A1.17,1.17,0,0,0,4111.216,1803.831Z" transform="translate(-73.305 -107.48)" fill="#0e1123"/>
    <path id="Path_57049" data-name="Path 57049" d="M4105.525,1803.831a1.165,1.165,0,1,0,1.164,1.16A1.17,1.17,0,0,0,4105.525,1803.831Z" transform="translate(-72.421 -107.48)" fill="#0e1123"/>
    <path id="Path_57050" data-name="Path 57050" d="M4122.6,1803.831a1.165,1.165,0,1,0,1.164,1.16A1.168,1.168,0,0,0,4122.6,1803.831Z" transform="translate(-75.072 -107.48)" fill="#0e1123"/>
    <path id="Path_57051" data-name="Path 57051" d="M4128.288,1803.831a1.165,1.165,0,1,0,1.164,1.16A1.169,1.169,0,0,0,4128.288,1803.831Z" transform="translate(-75.956 -107.48)" fill="#0e1123"/>
    <path id="Path_57052" data-name="Path 57052" d="M4099.433,1803.831a1.165,1.165,0,1,0,1.164,1.16A1.169,1.169,0,0,0,4099.433,1803.831Z" transform="translate(-71.475 -107.48)" fill="#0e1123"/>
    <path id="Path_57053" data-name="Path 57053" d="M4102.223,1799.541a1.165,1.165,0,1,0,1.164,1.16A1.169,1.169,0,0,0,4102.223,1799.541Z" transform="translate(-71.909 -106.814)" fill="#0e1123"/>
    <path id="Path_57054" data-name="Path 57054" d="M4093.743,1803.831a1.165,1.165,0,1,0,1.164,1.16A1.17,1.17,0,0,0,4093.743,1803.831Z" transform="translate(-70.592 -107.48)" fill="#0e1123"/>
    <path id="Path_57055" data-name="Path 57055" d="M4088.052,1803.831a1.165,1.165,0,1,0,1.164,1.16A1.17,1.17,0,0,0,4088.052,1803.831Z" transform="translate(-69.708 -107.48)" fill="#0e1123"/>
    <path id="Path_57056" data-name="Path 57056" d="M4090.842,1799.541a1.165,1.165,0,1,0,1.164,1.16A1.17,1.17,0,0,0,4090.842,1799.541Z" transform="translate(-70.141 -106.814)" fill="#0e1123"/>
    <path id="Path_57057" data-name="Path 57057" d="M4096.533,1799.541a1.165,1.165,0,1,0,1.164,1.16A1.17,1.17,0,0,0,4096.533,1799.541Z" transform="translate(-71.025 -106.814)" fill="#0e1123"/>
    <path id="Path_57058" data-name="Path 57058" d="M4165.223,1799.541a1.165,1.165,0,1,0,1.164,1.16A1.17,1.17,0,0,0,4165.223,1799.541Z" transform="translate(-81.69 -106.814)" fill="#0e1123"/>
    <path id="Path_57059" data-name="Path 57059" d="M4179.5,1795.405a1.165,1.165,0,1,0,1.164,1.159A1.17,1.17,0,0,0,4179.5,1795.405Z" transform="translate(-83.908 -106.171)" fill="#0e1123"/>
    <path id="Path_57060" data-name="Path 57060" d="M4182.295,1791.115a1.165,1.165,0,1,0,1.164,1.159A1.168,1.168,0,0,0,4182.295,1791.115Z" transform="translate(-84.341 -105.505)" fill="#0e1123"/>
    <path id="Path_57061" data-name="Path 57061" d="M4179.5,1803.831a1.165,1.165,0,1,0,1.164,1.16A1.17,1.17,0,0,0,4179.5,1803.831Z" transform="translate(-83.908 -107.48)" fill="#0e1123"/>
    <path id="Path_57062" data-name="Path 57062" d="M4182.295,1799.541a1.165,1.165,0,1,0,1.164,1.16A1.168,1.168,0,0,0,4182.295,1799.541Z" transform="translate(-84.341 -106.814)" fill="#0e1123"/>
    <path id="Path_57063" data-name="Path 57063" d="M4176.6,1799.541a1.165,1.165,0,1,0,1.164,1.16A1.169,1.169,0,0,0,4176.6,1799.541Z" transform="translate(-83.458 -106.814)" fill="#0e1123"/>
    <path id="Path_57064" data-name="Path 57064" d="M4196.578,1795.405a1.165,1.165,0,1,0,1.163,1.159A1.169,1.169,0,0,0,4196.578,1795.405Z" transform="translate(-86.559 -106.171)" fill="#0e1123"/>
    <path id="Path_57065" data-name="Path 57065" d="M4193.677,1799.541a1.165,1.165,0,1,0,1.164,1.16A1.17,1.17,0,0,0,4193.677,1799.541Z" transform="translate(-86.108 -106.814)" fill="#0e1123"/>
    <path id="Path_57066" data-name="Path 57066" d="M4185.2,1795.405a1.165,1.165,0,1,0,1.164,1.159A1.17,1.17,0,0,0,4185.2,1795.405Z" transform="translate(-84.792 -106.171)" fill="#0e1123"/>
    <path id="Path_57067" data-name="Path 57067" d="M4202.268,1795.405a1.165,1.165,0,1,0,1.164,1.159A1.168,1.168,0,0,0,4202.268,1795.405Z" transform="translate(-87.443 -106.171)" fill="#0e1123"/>
    <path id="Path_57068" data-name="Path 57068" d="M4173.814,1803.831a1.165,1.165,0,1,0,1.165,1.16A1.169,1.169,0,0,0,4173.814,1803.831Z" transform="translate(-83.024 -107.48)" fill="#0e1123"/>
    <path id="Path_57069" data-name="Path 57069" d="M4187.986,1799.541a1.165,1.165,0,1,0,1.164,1.16A1.17,1.17,0,0,0,4187.986,1799.541Z" transform="translate(-85.225 -106.814)" fill="#0e1123"/>
    <path id="Path_57070" data-name="Path 57070" d="M4187.986,1791.115a1.165,1.165,0,1,0,1.164,1.159A1.17,1.17,0,0,0,4187.986,1791.115Z" transform="translate(-85.225 -105.505)" fill="#0e1123"/>
    <path id="Path_57071" data-name="Path 57071" d="M4190.887,1795.405a1.165,1.165,0,1,0,1.164,1.159A1.17,1.17,0,0,0,4190.887,1795.405Z" transform="translate(-85.675 -106.171)" fill="#0e1123"/>
    <path id="Path_57072" data-name="Path 57072" d="M4145.361,1803.831a1.165,1.165,0,1,0,1.164,1.16A1.169,1.169,0,0,0,4145.361,1803.831Z" transform="translate(-78.606 -107.48)" fill="#0e1123"/>
    <path id="Path_57073" data-name="Path 57073" d="M4148.151,1799.541a1.165,1.165,0,1,0,1.164,1.16A1.169,1.169,0,0,0,4148.151,1799.541Z" transform="translate(-79.04 -106.814)" fill="#0e1123"/>
    <path id="Path_57074" data-name="Path 57074" d="M4142.459,1799.541a1.165,1.165,0,1,0,1.165,1.16A1.169,1.169,0,0,0,4142.459,1799.541Z" transform="translate(-78.156 -106.814)" fill="#0e1123"/>
    <path id="Path_57075" data-name="Path 57075" d="M4151.052,1803.831a1.165,1.165,0,1,0,1.164,1.16A1.169,1.169,0,0,0,4151.052,1803.831Z" transform="translate(-79.49 -107.48)" fill="#0e1123"/>
    <path id="Path_57076" data-name="Path 57076" d="M4139.67,1803.831a1.165,1.165,0,1,0,1.164,1.16A1.168,1.168,0,0,0,4139.67,1803.831Z" transform="translate(-77.723 -107.48)" fill="#0e1123"/>
    <path id="Path_57077" data-name="Path 57077" d="M4136.769,1799.541a1.165,1.165,0,1,0,1.164,1.16A1.169,1.169,0,0,0,4136.769,1799.541Z" transform="translate(-77.272 -106.814)" fill="#0e1123"/>
    <path id="Path_57078" data-name="Path 57078" d="M4085.151,1799.541a1.165,1.165,0,1,0,1.164,1.16A1.17,1.17,0,0,0,4085.151,1799.541Z" transform="translate(-69.258 -106.814)" fill="#0e1123"/>
    <path id="Path_57079" data-name="Path 57079" d="M4170.914,1799.541a1.165,1.165,0,1,0,1.164,1.16A1.169,1.169,0,0,0,4170.914,1799.541Z" transform="translate(-82.574 -106.814)" fill="#0e1123"/>
    <path id="Path_57080" data-name="Path 57080" d="M4168.124,1803.831a1.165,1.165,0,1,0,1.164,1.16A1.169,1.169,0,0,0,4168.124,1803.831Z" transform="translate(-82.141 -107.48)" fill="#0e1123"/>
    <path id="Path_57081" data-name="Path 57081" d="M4133.979,1803.831a1.165,1.165,0,1,0,1.164,1.16A1.169,1.169,0,0,0,4133.979,1803.831Z" transform="translate(-76.839 -107.48)" fill="#0e1123"/>
    <path id="Path_57082" data-name="Path 57082" d="M4156.743,1803.831a1.165,1.165,0,1,0,1.164,1.16A1.169,1.169,0,0,0,4156.743,1803.831Z" transform="translate(-80.374 -107.48)" fill="#0e1123"/>
    <path id="Path_57083" data-name="Path 57083" d="M4162.433,1803.831a1.165,1.165,0,1,0,1.164,1.16A1.169,1.169,0,0,0,4162.433,1803.831Z" transform="translate(-81.257 -107.48)" fill="#0e1123"/>
    <path id="Path_57084" data-name="Path 57084" d="M4153.842,1799.541a1.165,1.165,0,1,0,1.164,1.16A1.169,1.169,0,0,0,4153.842,1799.541Z" transform="translate(-79.923 -106.814)" fill="#0e1123"/>
    <path id="Path_57085" data-name="Path 57085" d="M4159.532,1799.541a1.165,1.165,0,1,0,1.164,1.16A1.17,1.17,0,0,0,4159.532,1799.541Z" transform="translate(-80.807 -106.814)" fill="#0e1123"/>
    <path id="Path_57086" data-name="Path 57086" d="M4011.171,1791.115a1.165,1.165,0,1,0,1.164,1.159A1.17,1.17,0,0,0,4011.171,1791.115Z" transform="translate(-57.771 -105.505)" fill="#0e1123"/>
    <path id="Path_57087" data-name="Path 57087" d="M4011.171,1799.541a1.165,1.165,0,1,0,1.164,1.16A1.17,1.17,0,0,0,4011.171,1799.541Z" transform="translate(-57.771 -106.814)" fill="#0e1123"/>
    <path id="Path_57088" data-name="Path 57088" d="M4014.072,1795.405a1.165,1.165,0,1,0,1.164,1.159A1.17,1.17,0,0,0,4014.072,1795.405Z" transform="translate(-58.221 -106.171)" fill="#0e1123"/>
    <path id="Path_57089" data-name="Path 57089" d="M4028.244,1799.541a1.165,1.165,0,1,0,1.164,1.16A1.169,1.169,0,0,0,4028.244,1799.541Z" transform="translate(-60.422 -106.814)" fill="#0e1123"/>
    <path id="Path_57090" data-name="Path 57090" d="M4008.381,1795.405a1.165,1.165,0,1,0,1.164,1.159A1.17,1.17,0,0,0,4008.381,1795.405Z" transform="translate(-57.337 -106.171)" fill="#0e1123"/>
    <path id="Path_57091" data-name="Path 57091" d="M4005.48,1799.541a1.165,1.165,0,1,0,1.164,1.16A1.169,1.169,0,0,0,4005.48,1799.541Z" transform="translate(-56.887 -106.814)" fill="#0e1123"/>
    <path id="Path_57092" data-name="Path 57092" d="M4016.862,1799.541a1.165,1.165,0,1,0,1.164,1.16A1.17,1.17,0,0,0,4016.862,1799.541Z" transform="translate(-58.654 -106.814)" fill="#0e1123"/>
    <path id="Path_57093" data-name="Path 57093" d="M4025.453,1803.831a1.165,1.165,0,1,0,1.164,1.16A1.169,1.169,0,0,0,4025.453,1803.831Z" transform="translate(-59.989 -107.48)" fill="#0e1123"/>
    <path id="Path_57094" data-name="Path 57094" d="M4025.453,1795.405a1.165,1.165,0,1,0,1.164,1.159A1.169,1.169,0,0,0,4025.453,1795.405Z" transform="translate(-59.989 -106.171)" fill="#0e1123"/>
    <path id="Path_57095" data-name="Path 57095" d="M4022.553,1791.115a1.165,1.165,0,1,0,1.164,1.159A1.169,1.169,0,0,0,4022.553,1791.115Z" transform="translate(-59.538 -105.505)" fill="#0e1123"/>
    <path id="Path_57096" data-name="Path 57096" d="M4019.763,1795.405a1.165,1.165,0,1,0,1.164,1.159A1.17,1.17,0,0,0,4019.763,1795.405Z" transform="translate(-59.105 -106.171)" fill="#0e1123"/>
    <path id="Path_57097" data-name="Path 57097" d="M4019.763,1803.831a1.165,1.165,0,1,0,1.164,1.16A1.17,1.17,0,0,0,4019.763,1803.831Z" transform="translate(-59.105 -107.48)" fill="#0e1123"/>
    <path id="Path_57098" data-name="Path 57098" d="M4016.862,1791.115a1.165,1.165,0,1,0,1.164,1.159A1.17,1.17,0,0,0,4016.862,1791.115Z" transform="translate(-58.654 -105.505)" fill="#0e1123"/>
    <path id="Path_57099" data-name="Path 57099" d="M4022.553,1799.541a1.165,1.165,0,1,0,1.164,1.16A1.169,1.169,0,0,0,4022.553,1799.541Z" transform="translate(-59.538 -106.814)" fill="#0e1123"/>
    <path id="Path_57100" data-name="Path 57100" d="M4082.361,1803.831a1.165,1.165,0,1,0,1.164,1.16A1.17,1.17,0,0,0,4082.361,1803.831Z" transform="translate(-68.824 -107.48)" fill="#0e1123"/>
    <path id="Path_57101" data-name="Path 57101" d="M4002.69,1795.405a1.165,1.165,0,1,0,1.164,1.159A1.168,1.168,0,0,0,4002.69,1795.405Z" transform="translate(-56.454 -106.171)" fill="#0e1123"/>
    <path id="Path_57102" data-name="Path 57102" d="M4062.388,1799.541a1.165,1.165,0,1,0,1.164,1.16A1.17,1.17,0,0,0,4062.388,1799.541Z" transform="translate(-65.723 -106.814)" fill="#0e1123"/>
    <path id="Path_57103" data-name="Path 57103" d="M4065.289,1803.831a1.165,1.165,0,1,0,1.164,1.16A1.17,1.17,0,0,0,4065.289,1803.831Z" transform="translate(-66.174 -107.48)" fill="#0e1123"/>
    <path id="Path_57104" data-name="Path 57104" d="M4056.7,1799.541a1.165,1.165,0,1,0,1.164,1.16A1.169,1.169,0,0,0,4056.7,1799.541Z" transform="translate(-64.84 -106.814)" fill="#0e1123"/>
    <path id="Path_57105" data-name="Path 57105" d="M4059.6,1803.831a1.165,1.165,0,1,0,1.164,1.16A1.169,1.169,0,0,0,4059.6,1803.831Z" transform="translate(-65.29 -107.48)" fill="#0e1123"/>
    <path id="Path_57106" data-name="Path 57106" d="M4076.671,1803.831a1.165,1.165,0,1,0,1.164,1.16A1.169,1.169,0,0,0,4076.671,1803.831Z" transform="translate(-67.941 -107.48)" fill="#0e1123"/>
    <path id="Path_57107" data-name="Path 57107" d="M4068.079,1799.541a1.165,1.165,0,1,0,1.164,1.16A1.169,1.169,0,0,0,4068.079,1799.541Z" transform="translate(-66.607 -106.814)" fill="#0e1123"/>
    <path id="Path_57108" data-name="Path 57108" d="M4079.46,1799.541a1.165,1.165,0,1,0,1.164,1.16A1.169,1.169,0,0,0,4079.46,1799.541Z" transform="translate(-68.374 -106.814)" fill="#0e1123"/>
    <path id="Path_57109" data-name="Path 57109" d="M4053.908,1803.831a1.165,1.165,0,1,0,1.164,1.16A1.169,1.169,0,0,0,4053.908,1803.831Z" transform="translate(-64.406 -107.48)" fill="#0e1123"/>
    <path id="Path_57110" data-name="Path 57110" d="M4028.244,1791.115a1.165,1.165,0,1,0,1.164,1.159A1.169,1.169,0,0,0,4028.244,1791.115Z" transform="translate(-60.422 -105.505)" fill="#0e1123"/>
    <path id="Path_57111" data-name="Path 57111" d="M4070.98,1803.831a1.165,1.165,0,1,0,1.164,1.16A1.169,1.169,0,0,0,4070.98,1803.831Z" transform="translate(-67.057 -107.48)" fill="#0e1123"/>
    <path id="Path_57112" data-name="Path 57112" d="M4073.77,1799.541a1.165,1.165,0,1,0,1.164,1.16A1.169,1.169,0,0,0,4073.77,1799.541Z" transform="translate(-67.49 -106.814)" fill="#0e1123"/>
    <path id="Path_57113" data-name="Path 57113" d="M4036.835,1803.831a1.165,1.165,0,1,0,1.164,1.16A1.169,1.169,0,0,0,4036.835,1803.831Z" transform="translate(-61.756 -107.48)" fill="#0e1123"/>
    <path id="Path_57114" data-name="Path 57114" d="M4033.934,1791.115a1.165,1.165,0,1,0,1.164,1.159A1.169,1.169,0,0,0,4033.934,1791.115Z" transform="translate(-61.305 -105.505)" fill="#0e1123"/>
    <path id="Path_57115" data-name="Path 57115" d="M4051.007,1799.541a1.165,1.165,0,1,0,1.164,1.16A1.169,1.169,0,0,0,4051.007,1799.541Z" transform="translate(-63.956 -106.814)" fill="#0e1123"/>
    <path id="Path_57116" data-name="Path 57116" d="M4031.144,1795.405a1.165,1.165,0,1,0,1.164,1.159A1.168,1.168,0,0,0,4031.144,1795.405Z" transform="translate(-60.872 -106.171)" fill="#0e1123"/>
    <path id="Path_57117" data-name="Path 57117" d="M4031.144,1803.831a1.165,1.165,0,1,0,1.164,1.16A1.169,1.169,0,0,0,4031.144,1803.831Z" transform="translate(-60.872 -107.48)" fill="#0e1123"/>
    <path id="Path_57118" data-name="Path 57118" d="M4033.934,1799.541a1.165,1.165,0,1,0,1.164,1.16A1.169,1.169,0,0,0,4033.934,1799.541Z" transform="translate(-61.305 -106.814)" fill="#0e1123"/>
    <path id="Path_57119" data-name="Path 57119" d="M4039.625,1799.541a1.165,1.165,0,1,0,1.164,1.16A1.169,1.169,0,0,0,4039.625,1799.541Z" transform="translate(-62.189 -106.814)" fill="#0e1123"/>
    <path id="Path_57120" data-name="Path 57120" d="M4036.835,1795.405a1.165,1.165,0,1,0,1.164,1.159A1.168,1.168,0,0,0,4036.835,1795.405Z" transform="translate(-61.756 -106.171)" fill="#0e1123"/>
    <path id="Path_57121" data-name="Path 57121" d="M4048.217,1803.831a1.165,1.165,0,1,0,1.164,1.16A1.169,1.169,0,0,0,4048.217,1803.831Z" transform="translate(-63.523 -107.48)" fill="#0e1123"/>
    <path id="Path_57122" data-name="Path 57122" d="M4045.316,1799.541a1.165,1.165,0,1,0,1.164,1.16A1.169,1.169,0,0,0,4045.316,1799.541Z" transform="translate(-63.073 -106.814)" fill="#0e1123"/>
    <path id="Path_57123" data-name="Path 57123" d="M4042.526,1803.831a1.165,1.165,0,1,0,1.164,1.16A1.17,1.17,0,0,0,4042.526,1803.831Z" transform="translate(-62.639 -107.48)" fill="#0e1123"/>
    <path id="Path_57124" data-name="Path 57124" d="M4042.526,1795.405a1.165,1.165,0,1,0,1.164,1.159A1.17,1.17,0,0,0,4042.526,1795.405Z" transform="translate(-62.639 -106.171)" fill="#0e1123"/>
    <path id="Path_57125" data-name="Path 57125" d="M4187.594,1305.428a1.167,1.167,0,1,0,1.187,1.169A1.168,1.168,0,0,0,4187.594,1305.428Z" transform="translate(-85.168 -30.092)" fill="#0e1123"/>
    <path id="Path_57126" data-name="Path 57126" d="M4179.167,1311.119a1.167,1.167,0,1,0,1.188,1.169A1.17,1.17,0,0,0,4179.167,1311.119Z" transform="translate(-83.86 -30.976)" fill="#0e1123"/>
    <path id="Path_57127" data-name="Path 57127" d="M4183.458,1308.218a1.167,1.167,0,1,0,1.187,1.169A1.17,1.17,0,0,0,4183.458,1308.218Z" transform="translate(-84.526 -30.526)" fill="#0e1123"/>
    <path id="Path_57128" data-name="Path 57128" d="M4183.458,1313.909a1.167,1.167,0,1,0,1.187,1.169A1.17,1.17,0,0,0,4183.458,1313.909Z" transform="translate(-84.526 -31.409)" fill="#0e1123"/>
    <path id="Path_57129" data-name="Path 57129" d="M4187.594,1311.119a1.167,1.167,0,1,0,1.187,1.169A1.168,1.168,0,0,0,4187.594,1311.119Z" transform="translate(-85.168 -30.976)" fill="#0e1123"/>
    <path id="Path_57130" data-name="Path 57130" d="M4191.884,1313.909a1.167,1.167,0,1,0,1.187,1.169A1.169,1.169,0,0,0,4191.884,1313.909Z" transform="translate(-85.834 -31.409)" fill="#0e1123"/>
    <path id="Path_57131" data-name="Path 57131" d="M4179.167,1299.737a1.167,1.167,0,1,0,1.188,1.169A1.17,1.17,0,0,0,4179.167,1299.737Z" transform="translate(-83.86 -29.209)" fill="#0e1123"/>
    <path id="Path_57132" data-name="Path 57132" d="M4179.167,1305.428a1.167,1.167,0,1,0,1.188,1.169A1.17,1.17,0,0,0,4179.167,1305.428Z" transform="translate(-83.86 -30.092)" fill="#0e1123"/>
    <path id="Path_57133" data-name="Path 57133" d="M4179.167,1316.809a1.167,1.167,0,1,0,1.188,1.17A1.172,1.172,0,0,0,4179.167,1316.809Z" transform="translate(-83.86 -31.859)" fill="#0e1123"/>
    <path id="Path_57134" data-name="Path 57134" d="M4183.458,1296.836a1.167,1.167,0,1,0,1.187,1.17A1.17,1.17,0,0,0,4183.458,1296.836Z" transform="translate(-84.526 -28.758)" fill="#0e1123"/>
    <path id="Path_57135" data-name="Path 57135" d="M4183.458,1302.527a1.167,1.167,0,1,0,1.187,1.17A1.17,1.17,0,0,0,4183.458,1302.527Z" transform="translate(-84.526 -29.642)" fill="#0e1123"/>
    <path id="Path_57136" data-name="Path 57136" d="M4187.594,1299.737a1.167,1.167,0,1,0,1.187,1.169A1.168,1.168,0,0,0,4187.594,1299.737Z" transform="translate(-85.168 -29.209)" fill="#0e1123"/>
    <path id="Path_57137" data-name="Path 57137" d="M4191.884,1308.218a1.167,1.167,0,1,0,1.187,1.169A1.169,1.169,0,0,0,4191.884,1308.218Z" transform="translate(-85.834 -30.526)" fill="#0e1123"/>
    <path id="Path_57138" data-name="Path 57138" d="M4187.594,1316.809a1.167,1.167,0,1,0,1.187,1.17A1.17,1.17,0,0,0,4187.594,1316.809Z" transform="translate(-85.168 -31.859)" fill="#0e1123"/>
    <path id="Path_57139" data-name="Path 57139" d="M4024.674,1284.67a1.167,1.167,0,1,0,1.143,1.181A1.169,1.169,0,0,0,4024.674,1284.67Z" transform="translate(-59.865 -26.869)" fill="#0e1123"/>
    <path id="Path_57140" data-name="Path 57140" d="M4033.072,1292.695a1.167,1.167,0,1,0-1.16-1.164A1.17,1.17,0,0,0,4033.072,1292.695Z" transform="translate(-61.173 -27.753)" fill="#0e1123"/>
    <path id="Path_57141" data-name="Path 57141" d="M4028.81,1287.46a1.167,1.167,0,1,0,1.143,1.181A1.169,1.169,0,0,0,4028.81,1287.46Z" transform="translate(-60.507 -27.302)" fill="#0e1123"/>
    <path id="Path_57142" data-name="Path 57142" d="M4028.81,1293.151a1.167,1.167,0,1,0,1.143,1.181A1.169,1.169,0,0,0,4028.81,1293.151Z" transform="translate(-60.507 -28.186)" fill="#0e1123"/>
    <path id="Path_57143" data-name="Path 57143" d="M4024.674,1290.361a1.167,1.167,0,1,0,1.143,1.181A1.169,1.169,0,0,0,4024.674,1290.361Z" transform="translate(-59.865 -27.753)" fill="#0e1123"/>
    <path id="Path_57144" data-name="Path 57144" d="M4020.384,1293.151a1.167,1.167,0,1,0,1.143,1.181A1.169,1.169,0,0,0,4020.384,1293.151Z" transform="translate(-59.198 -28.186)" fill="#0e1123"/>
    <path id="Path_57145" data-name="Path 57145" d="M4033.072,1281.313a1.167,1.167,0,1,0-1.16-1.164A1.17,1.17,0,0,0,4033.072,1281.313Z" transform="translate(-61.173 -25.986)" fill="#0e1123"/>
    <path id="Path_57146" data-name="Path 57146" d="M4033.072,1287a1.167,1.167,0,1,0-1.16-1.164A1.17,1.17,0,0,0,4033.072,1287Z" transform="translate(-61.173 -26.869)" fill="#0e1123"/>
    <path id="Path_57147" data-name="Path 57147" d="M4028.81,1276.078a1.167,1.167,0,1,0,1.143,1.182A1.17,1.17,0,0,0,4028.81,1276.078Z" transform="translate(-60.507 -25.535)" fill="#0e1123"/>
    <path id="Path_57148" data-name="Path 57148" d="M4028.81,1281.769a1.167,1.167,0,1,0,1.143,1.182A1.17,1.17,0,0,0,4028.81,1281.769Z" transform="translate(-60.507 -26.419)" fill="#0e1123"/>
    <path id="Path_57149" data-name="Path 57149" d="M4024.674,1278.979a1.167,1.167,0,1,0,1.143,1.182A1.169,1.169,0,0,0,4024.674,1278.979Z" transform="translate(-59.865 -25.986)" fill="#0e1123"/>
    <path id="Path_57150" data-name="Path 57150" d="M4037.208,1284.1a1.167,1.167,0,1,0-1.159-1.164A1.17,1.17,0,0,0,4037.208,1284.1Z" transform="translate(-61.815 -26.419)" fill="#0e1123"/>
    <path id="Path_57151" data-name="Path 57151" d="M4020.384,1287.46a1.167,1.167,0,1,0,1.143,1.181A1.169,1.169,0,0,0,4020.384,1287.46Z" transform="translate(-59.198 -27.302)" fill="#0e1123"/>
    <path id="Path_57152" data-name="Path 57152" d="M4024.674,1296.052a1.167,1.167,0,1,0,1.143,1.181A1.169,1.169,0,0,0,4024.674,1296.052Z" transform="translate(-59.865 -28.636)" fill="#0e1123"/>
    <path id="Path_57153" data-name="Path 57153" d="M4020.384,1298.841a1.167,1.167,0,1,0,1.143,1.182A1.17,1.17,0,0,0,4020.384,1298.841Z" transform="translate(-59.198 -29.07)" fill="#0e1123"/>
    <path id="Path_57154" data-name="Path 57154" d="M4028.81,1298.841a1.167,1.167,0,1,0,1.143,1.182A1.17,1.17,0,0,0,4028.81,1298.841Z" transform="translate(-60.507 -29.07)" fill="#0e1123"/>
  </g>
</svg>
