<svg xmlns="http://www.w3.org/2000/svg" width="64.963" height="64.963" viewBox="0 0 64.963 64.963">
  <g id="f-insta-icn" transform="translate(1722 23775)">
    <path id="Path_31915" data-name="Path 31915" d="M564.865,267.91a32.481,32.481,0,1,1,32.482-32.481A32.517,32.517,0,0,1,564.865,267.91Z" transform="translate(-2254.384 -23977.947)" fill="#d9cbb4"/>
    <path id="Path_57370" data-name="Path 57370" d="M40.539,52.317H24.392A12.235,12.235,0,0,1,12.157,40.082V23.934A12.235,12.235,0,0,1,24.392,11.7H40.539A12.234,12.234,0,0,1,52.773,23.934V40.082A12.234,12.234,0,0,1,40.539,52.317ZM24.392,15.531a8.412,8.412,0,0,0-8.4,8.4V40.082a8.412,8.412,0,0,0,8.4,8.4H40.539a8.413,8.413,0,0,0,8.4-8.4V23.934a8.413,8.413,0,0,0-8.4-8.4ZM32.534,42.3A10.031,10.031,0,1,1,42.565,32.27,10.042,10.042,0,0,1,32.534,42.3Zm0-16.457A6.426,6.426,0,1,0,38.96,32.27,6.433,6.433,0,0,0,32.534,25.844ZM43.15,23.953a2.388,2.388,0,1,1,2.389-2.388A2.39,2.39,0,0,1,43.15,23.953Z" transform="translate(-1722.157 -23774.699)" fill="#14152e"/>
  </g>
</svg>
