<svg xmlns="http://www.w3.org/2000/svg" width="64.963" height="64.963" viewBox="0 0 64.963 64.963">
  <g id="f-twiiter-icn" transform="translate(1895 23775)">
    <path id="Path_31915" data-name="Path 31915" d="M564.865,267.91a32.481,32.481,0,1,1,32.482-32.481A32.517,32.517,0,0,1,564.865,267.91Z" transform="translate(-2427.384 -23977.947)" fill="#d9cbb4"/>
    <path id="Path_31917" data-name="Path 31917" d="M581.387,220.876a15.531,15.531,0,0,1-3.824,1.093c.615-.1,1.525-1.219,1.888-1.67a7.047,7.047,0,0,0,1.273-2.318c.033-.067.058-.15-.008-.2a.215.215,0,0,0-.2.017,19.514,19.514,0,0,1-4.543,1.739.3.3,0,0,1-.313-.083,3.671,3.671,0,0,0-.4-.406,8.041,8.041,0,0,0-2.2-1.348,7.665,7.665,0,0,0-3.375-.544,8.067,8.067,0,0,0-3.2.9,8.267,8.267,0,0,0-2.584,2.11,7.955,7.955,0,0,0-1.542,3.09,8.36,8.36,0,0,0-.081,3.262c.024.182.008.207-.157.182-6.24-.928-11.411-3.161-15.61-7.945-.182-.207-.281-.207-.431.017-1.837,2.754-.946,7.178,1.35,9.352.306.289.62.58.959.844a7.929,7.929,0,0,1-3.012-.844c-.182-.115-.274-.049-.289.157a4.72,4.72,0,0,0,.049.895,8,8,0,0,0,4.933,6.38,4.636,4.636,0,0,0,1,.306,8.916,8.916,0,0,1-2.954.092c-.215-.042-.3.067-.215.274,1.3,3.543,4.106,4.6,6.206,5.2.282.049.563.049.845.115-.017.025-.033.025-.05.05-.7,1.063-3.113,1.853-4.238,2.247a15.19,15.19,0,0,1-6.439.824c-.346-.051-.419-.048-.513,0s-.012.142.1.231c.438.29.885.547,1.34.795a21.268,21.268,0,0,0,4.3,1.722c7.735,2.135,16.446.567,22.253-5.2,4.561-4.532,6.159-10.78,6.159-17.035,0-.245.289-.381.462-.509a15,15,0,0,0,3.015-3.15.913.913,0,0,0,.186-.6v-.033C581.529,220.776,581.542,220.807,581.387,220.876Z" transform="translate(-2425.67 -23975.139)" fill="#14152e"/>
  </g>
</svg>
