<svg xmlns="http://www.w3.org/2000/svg" width="233.251" height="95.362" viewBox="0 0 233.251 95.362">
  <g id="find-a-byron" transform="translate(-0.133)">
    <g id="Group_787" data-name="Group 787">
      <g id="Group_592" data-name="Group 592" transform="translate(0.133)">
        <path id="Path_42209" data-name="Path 42209" d="M5101.945-1862.994a39.726,39.726,0,0,0-18.791,4.7,39.723,39.723,0,0,0-18.791-4.7,39.724,39.724,0,0,0-18.79,4.7,39.724,39.724,0,0,0-18.79-4.7,39.73,39.73,0,0,0-18.792,4.7,39.721,39.721,0,0,0-18.79-4.7,39.723,39.723,0,0,0-18.791,4.7,39.722,39.722,0,0,0-18.79-4.7,39.911,39.911,0,0,0-39.911,39.911,39.912,39.912,0,0,0,39.911,39.912,39.721,39.721,0,0,0,18.79-4.7,39.722,39.722,0,0,0,18.791,4.7,39.72,39.72,0,0,0,18.79-4.7,39.729,39.729,0,0,0,18.792,4.7,39.723,39.723,0,0,0,18.79-4.7,39.723,39.723,0,0,0,18.79,4.7,39.722,39.722,0,0,0,18.791-4.7,39.725,39.725,0,0,0,18.791,4.7,39.912,39.912,0,0,0,39.911-39.912A39.911,39.911,0,0,0,5101.945-1862.994Z" transform="translate(-4910.159 1862.994)" fill="#d9cbb4"/>
        <path id="Path_42210" data-name="Path 42210" d="M4952.178-1863.994a41.558,41.558,0,0,1,10.225,1.273,41.279,41.279,0,0,1,8.564,3.225,41.275,41.275,0,0,1,8.564-3.225,41.573,41.573,0,0,1,10.227-1.273,41.565,41.565,0,0,1,10.226,1.273,41.3,41.3,0,0,1,8.564,3.225,41.3,41.3,0,0,1,8.564-3.225,41.573,41.573,0,0,1,10.227-1.273,41.572,41.572,0,0,1,10.226,1.273,41.3,41.3,0,0,1,8.563,3.225,41.3,41.3,0,0,1,8.565-3.225,41.568,41.568,0,0,1,10.226-1.273,41.562,41.562,0,0,1,10.226,1.273,41.294,41.294,0,0,1,8.565,3.225,41.3,41.3,0,0,1,8.564-3.225,41.568,41.568,0,0,1,10.226-1.273,41.211,41.211,0,0,1,16.141,3.259,41.336,41.336,0,0,1,13.18,8.885,41.343,41.343,0,0,1,8.886,13.18,41.205,41.205,0,0,1,3.259,16.14,41.209,41.209,0,0,1-3.259,16.141,41.349,41.349,0,0,1-8.886,13.18,41.334,41.334,0,0,1-13.18,8.886,41.212,41.212,0,0,1-16.141,3.259,41.556,41.556,0,0,1-10.226-1.274,41.3,41.3,0,0,1-8.564-3.225,41.293,41.293,0,0,1-8.565,3.225,41.55,41.55,0,0,1-10.226,1.274,41.556,41.556,0,0,1-10.226-1.274,41.3,41.3,0,0,1-8.565-3.225,41.3,41.3,0,0,1-8.563,3.225,41.56,41.56,0,0,1-10.226,1.274,41.561,41.561,0,0,1-10.227-1.274,41.3,41.3,0,0,1-8.564-3.225,41.3,41.3,0,0,1-8.564,3.225,41.553,41.553,0,0,1-10.226,1.274,41.561,41.561,0,0,1-10.227-1.274,41.274,41.274,0,0,1-8.564-3.225,41.279,41.279,0,0,1-8.564,3.225,41.552,41.552,0,0,1-10.225,1.274,41.2,41.2,0,0,1-16.14-3.259,41.321,41.321,0,0,1-13.18-8.886,41.324,41.324,0,0,1-8.886-13.18,41.2,41.2,0,0,1-3.259-16.141,41.2,41.2,0,0,1,3.259-16.14,41.319,41.319,0,0,1,8.886-13.18,41.324,41.324,0,0,1,13.18-8.885A41.2,41.2,0,0,1,4952.178-1863.994Zm18.79,8.014-.733-.392a38.414,38.414,0,0,0-18.057-4.514,38.4,38.4,0,0,0-38.357,38.357,38.4,38.4,0,0,0,38.357,38.358,38.414,38.414,0,0,0,18.057-4.514l.733-.392.733.392a38.415,38.415,0,0,0,18.058,4.514,38.406,38.406,0,0,0,18.056-4.514l.733-.392.733.392a38.421,38.421,0,0,0,18.058,4.514,38.408,38.408,0,0,0,18.057-4.514l.733-.392.733.392a38.418,38.418,0,0,0,18.058,4.514,38.41,38.41,0,0,0,18.057-4.514l.733-.392.732.392a38.424,38.424,0,0,0,18.058,4.514,38.4,38.4,0,0,0,38.358-38.358,38.4,38.4,0,0,0-38.358-38.357,38.424,38.424,0,0,0-18.058,4.514l-.732.392-.733-.392a38.41,38.41,0,0,0-18.057-4.514,38.418,38.418,0,0,0-18.058,4.514l-.733.392-.733-.392a38.411,38.411,0,0,0-18.057-4.514,38.421,38.421,0,0,0-18.058,4.514l-.733.392-.733-.392a38.409,38.409,0,0,0-18.056-4.514,38.415,38.415,0,0,0-18.058,4.514Z" transform="translate(-4910.714 1876.426)" fill="#d9cbb4"/>
      </g>
      <text id="fIND_A_BYRON" data-name="fIND A BYRON" transform="translate(116.133 52.312)" fill="#14152e" font-size="32" font-family="NimbusSansT-BlackCondensed, NimbuSanTBlaCon" font-weight="800"><tspan x="-82" y="0">FIND A BYRON</tspan></text>
    </g>
  </g>
</svg>
