<svg xmlns="http://www.w3.org/2000/svg" width="430" height="334" viewBox="0 0 430 334">
  <g id="footer-bg" transform="translate(10676 5610)">
    <rect id="Rectangle_1917" data-name="Rectangle 1917" width="430" height="334" transform="translate(-10676 -5610)" fill="#14152e"/>
    <g id="Group_4539" data-name="Group 4539" transform="translate(-10665 -5582)">
      <path id="Path_39322" data-name="Path 39322" d="M789.72,1697.06h5.7c-2.03-1.72-4.1-3.67-5.57.1-2.16.49-4.31.99-6.47,1.48.2.49.39.98.59,1.47,1.92-1.02,3.83-2.04,5.75-3.05Z" transform="translate(-764.119 -1499.946)" fill="rgba(217,203,180,0.32)"/>
      <path id="Path_39392" data-name="Path 39392" d="M793.73,1744.79l.93.93,3-3.84c-.35-.28-.69-.56-1.04-.84q-1.44,1.875-2.89,3.75Z" transform="translate(-764.119 -1492.872)" fill="rgba(217,203,180,0.32)"/>
      <path id="Path_39429" data-name="Path 39429" d="M770.24,1766.03a18.665,18.665,0,0,0,1.01-2.35c.04-.15-.69-.72-.78-.66a17.424,17.424,0,0,0-1.71,1.4c.37.4.73.8,1.49,1.62Z" transform="translate(-764.119 -1489.675)" fill="rgba(217,203,180,0.32)"/>
      <path id="Path_39507" data-name="Path 39507" d="M766.54,1765.54a7.387,7.387,0,0,0-1.59-1.13c-.19-.07-.86.45-.83.63.08.48.36,1.23.66,1.28.43.07.95-.38,1.76-.77Z" transform="translate(-764.119 -1489.597)" fill="rgba(217,203,180,0.32)"/>
      <path id="Path_39584" data-name="Path 39584" d="M793.73,1744.79q1.44-1.875,2.89-3.75c.35.28.69.56,1.04.84l-3,3.84-.93-.93Z" transform="translate(-764.119 -1492.872)" fill="rgba(217,203,180,0.32)"/>
      <path id="Path_39595" data-name="Path 39595" d="M789.88,1697.18c1.45-3.79,3.51-1.84,5.55-.12h-5.7l.16.12Z" transform="translate(-764.119 -1500.294)" fill="rgba(217,203,180,0.32)"/>
      <path id="Path_39610" data-name="Path 39610" d="M789.72,1697.06c-1.92,1.02-3.83,2.04-5.75,3.05-.2-.49-.39-.98-.59-1.47,2.16-.49,4.31-.99,6.48-1.47a1.708,1.708,0,0,0-.14-.11Z" transform="translate(-764.119 -1499.873)" fill="rgba(217,203,180,0.32)"/>
      <path id="Path_39624" data-name="Path 39624" d="M770.24,1766.03c-.76-.82-1.12-1.22-1.49-1.62a17.417,17.417,0,0,1,1.71-1.4c.09-.06.82.51.78.66a16.748,16.748,0,0,1-1.01,2.35Z" transform="translate(-764.119 -1489.677)" fill="rgba(217,203,180,0.32)"/>
      <path id="Path_39703" data-name="Path 39703" d="M766.54,1765.54c-.81.39-1.33.84-1.76.77-.3-.05-.58-.81-.66-1.28-.03-.17.64-.7.83-.63a8.048,8.048,0,0,1,1.59,1.13Z" transform="translate(-764.119 -1489.598)" fill="rgba(217,203,180,0.32)"/>
      <path id="Path_39789" data-name="Path 39789" d="M1092.03,1665.11c-3.56-3.9-6.49-2.16-10.35-1.8C1085.2,1666.45,1088.11,1664.89,1092.03,1665.11Z" transform="translate(-764.119 -1451.344)" fill="rgba(217,203,180,0.32)"/>
      <path id="Path_39790" data-name="Path 39790" d="M980.31,1535.47c-3.55.54-6.06.93-9.15,1.4Q974.54,1538.91,980.31,1535.47Z" transform="translate(-764.119 -1403.096)" fill="rgba(217,203,180,0.32)"/>
      <path id="Path_39791" data-name="Path 39791" d="M1119.67,1577.13c-1.27-1.33-2.17-2.28-3.62-3.81-.41,2.29-.68,3.8-1.08,6.05,1.83-.87,3.01-1.44,4.71-2.24Z" transform="translate(-764.119 -1418.211)" fill="rgba(217,203,180,0.32)"/>
      <path id="Path_39792" data-name="Path 39792" d="M979.66,1561.36c.03.66.07,1.33.1,1.99l6.51-1.05Z" transform="translate(-764.119 -1412.857)" fill="rgba(217,203,180,0.32)"/>
      <path id="Path_39793" data-name="Path 39793" d="M889.33,1622.93c-1.36-2.34-2.92-3.41-5.55-.9C885.98,1622.39,887.65,1622.66,889.33,1622.93Z" transform="translate(-764.119 -1435.338)" fill="rgba(217,203,180,0.32)"/>
      <path id="Path_39794" data-name="Path 39794" d="M1167.91,1584.67c-.02.32-.05.64-.07.96a5.125,5.125,0,0,0,1.87.44,9.313,9.313,0,0,0,2.24-1.01c-.11-.32-.23-.64-.34-.96l-3.7.57Z" transform="translate(-764.119 -1421.453)" fill="rgba(217,203,180,0.32)"/>
      <path id="Path_39795" data-name="Path 39795" d="M1006.66,1512.7c.11.37.23.73.34,1.1,1.27-.39,2.54-.79,3.82-1.18-.11-.35-.22-.7-.32-1.06-1.28.38-2.55.76-3.83,1.13Z" transform="translate(-764.119 -1394.064)" fill="rgba(217,203,180,0.32)"/>
      <path id="Path_39796" data-name="Path 39796" d="M1055.41,1575.84c-.29.26-.58.53-.88.79a20.031,20.031,0,0,0,1.99,2.12c.1.08.87-.63,1.33-.98Z" transform="translate(-764.119 -1418.522)" fill="rgba(217,203,180,0.32)"/>
      <path id="Path_39797" data-name="Path 39797" d="M907.82,1685.51c-.36.09-.71.17-1.07.26.27.98.55,1.96.82,2.94l.85-.24C908.22,1687.48,908.02,1686.5,907.82,1685.51Z" transform="translate(-764.119 -1501.641)" fill="rgba(217,203,180,0.32)"/>
      <path id="Path_39798" data-name="Path 39798" d="M982.58,1529.42c-.07.45-.14.91-.2,1.36,1.15.11,2.29.23,3.44.34.05-.35.1-.71.16-1.06-1.13-.21-2.26-.43-3.39-.64Z" transform="translate(-764.119 -1400.735)" fill="rgba(217,203,180,0.32)"/>
      <path id="Path_39799" data-name="Path 39799" d="M989.9,1698.97c-.14-.48-.29-.96-.43-1.43l-2.73,1.35c.14.32.27.63.41.95l2.76-.87Z" transform="translate(-764.119 -1499.887)" fill="rgba(217,203,180,0.32)"/>
      <path id="Path_39800" data-name="Path 39800" d="M1067.79,1700.35c-.51-.31-.99-.8-1.47-.81-.3,0-.62.71-.93,1.11a9.151,9.151,0,0,0,1.63.6c.17.03.43-.48.77-.9Z" transform="translate(-764.119 -1499.648)" fill="rgba(217,203,180,0.32)"/>
      <path id="Path_39801" data-name="Path 39801" d="M1162.5,1514.79c-1.04-.71-1.47-1.25-1.91-1.25-.54,0-1.07.46-1.61.72.29.46.56,1.29.87,1.3a9.957,9.957,0,0,0,2.64-.76Z" transform="translate(-764.119 -1394.782)" fill="rgba(217,203,180,0.32)"/>
      <path id="Path_39803" data-name="Path 39803" d="M1092.03,1665.11c-3.92-.23-6.83,1.34-10.35-1.8C1085.54,1662.95,1088.47,1661.21,1092.03,1665.11Z" transform="translate(-764.119 -1451.343)" fill="rgba(217,203,180,0.32)"/>
      <path id="Path_39804" data-name="Path 39804" d="M980.31,1535.47q-5.77,3.44-9.15,1.4C974.25,1536.4,976.75,1536.01,980.31,1535.47Z" transform="translate(-764.119 -1403.096)" fill="rgba(217,203,180,0.32)"/>
      <path id="Path_39805" data-name="Path 39805" d="M1119.67,1577.13c-1.69.81-2.88,1.37-4.71,2.24.4-2.25.67-3.76,1.08-6.05,1.46,1.53,2.36,2.48,3.62,3.81Z" transform="translate(-764.119 -1418.211)" fill="rgba(217,203,180,0.32)"/>
      <path id="Path_39806" data-name="Path 39806" d="M979.66,1561.36l6.61.94c-2.92.47-4.72.76-6.51,1.05C979.73,1562.69,979.69,1562.02,979.66,1561.36Z" transform="translate(-764.119 -1412.857)" fill="rgba(217,203,180,0.32)"/>
      <path id="Path_39807" data-name="Path 39807" d="M889.33,1622.93c-1.67-.27-3.35-.54-5.55-.9C886.41,1619.52,887.96,1620.59,889.33,1622.93Z" transform="translate(-764.119 -1435.338)" fill="rgba(217,203,180,0.32)"/>
      <path id="Path_39808" data-name="Path 39808" d="M1167.91,1584.67l3.7-.57c.11.32.23.64.34.96a9.719,9.719,0,0,1-2.24,1.01,5.084,5.084,0,0,1-1.87-.44c.02-.32.05-.64.07-.96Z" transform="translate(-764.119 -1421.453)" fill="rgba(217,203,180,0.32)"/>
      <path id="Path_39809" data-name="Path 39809" d="M1006.66,1512.7c1.28-.38,2.55-.76,3.83-1.13.11.35.22.7.32,1.06-1.27.39-2.54.79-3.82,1.18-.11-.37-.23-.73-.34-1.1Z" transform="translate(-764.119 -1394.068)" fill="rgba(217,203,180,0.32)"/>
      <path id="Path_39810" data-name="Path 39810" d="M1055.41,1575.84l2.44,1.93c-.46.35-1.23,1.06-1.33.98a20.031,20.031,0,0,1-1.99-2.12C1054.82,1576.37,1055.11,1576.1,1055.41,1575.84Z" transform="translate(-764.119 -1418.522)" fill="rgba(217,203,180,0.32)"/>
      <path id="Path_39811" data-name="Path 39811" d="M907.82,1685.51c.2.99.4,1.97.6,2.96l-.85.24c-.27-.98-.55-1.96-.82-2.94C907.11,1685.68,907.46,1685.6,907.82,1685.51Z" transform="translate(-764.119 -1501.641)" fill="rgba(217,203,180,0.32)"/>
      <path id="Path_39812" data-name="Path 39812" d="M982.58,1529.42c1.13.21,2.26.43,3.39.64-.05.35-.1.71-.16,1.06-1.15-.11-2.29-.23-3.44-.34.07-.45.14-.91.2-1.36Z" transform="translate(-764.119 -1400.735)" fill="rgba(217,203,180,0.32)"/>
      <path id="Path_39813" data-name="Path 39813" d="M989.9,1698.97l-2.76.87c-.14-.32-.27-.63-.41-.95l2.73-1.35c.14.48.29.96.43,1.43Z" transform="translate(-764.119 -1499.887)" fill="rgba(217,203,180,0.32)"/>
      <path id="Path_39814" data-name="Path 39814" d="M1067.79,1700.35c-.34.41-.6.92-.77.9a7.824,7.824,0,0,1-1.63-.6c.31-.39.63-1.11.93-1.11.48,0,.96.5,1.47.81Z" transform="translate(-764.119 -1499.648)" fill="rgba(217,203,180,0.32)"/>
      <path id="Path_39815" data-name="Path 39815" d="M1162.5,1514.79a9.581,9.581,0,0,1-2.64.76c-.31-.01-.58-.84-.87-1.3a4.5,4.5,0,0,1,1.61-.72c.43,0,.87.54,1.91,1.25Z" transform="translate(-764.119 -1394.778)" fill="rgba(217,203,180,0.32)"/>
      <path id="Path_39817" data-name="Path 39817" d="M983.49,1330.47c0,.7.02,1.4.02,2.1,1.18-.16,2.36-.3,3.52-.52a2.684,2.684,0,0,0-.07-1.09c-1.15-.22-2.32-.34-3.48-.48Z" transform="translate(-764.119 -1321.349)" fill="rgba(217,203,180,0.32)"/>
      <path id="Path_39818" data-name="Path 39818" d="M1055.95,1323.53c0-.29.01-.58.02-.86h-4.74c0,.13,0,.25.01.38l4.7.48Z" transform="translate(-764.119 -1322.67)" fill="rgba(217,203,180,0.32)"/>
      <path id="Path_39820" data-name="Path 39820" d="M1105.35,1334.79c.04.52.09,1.04.13,1.56,1.17-.38,2.34-.75,3.51-1.13-.05-.23-.1-.47-.16-.7l-3.49.27Z" transform="translate(-764.119 -1320.749)" fill="rgba(217,203,180,0.32)"/>
      <path id="Path_39824" data-name="Path 39824" d="M1058.56,1333.92l-.64.61a3.583,3.583,0,0,0,.91.58c.13.04.38-.32.58-.49Z" transform="translate(-764.119 -1320.9)" fill="rgba(217,203,180,0.32)"/>
      <path id="Path_39827" data-name="Path 39827" d="M983.49,1330.47c1.16.14,2.33.26,3.48.48a2.885,2.885,0,0,1,.07,1.09c-1.16.22-2.34.37-3.52.52,0-.7-.02-1.4-.02-2.1Z" transform="translate(-764.119 -1321.351)" fill="rgba(217,203,180,0.32)"/>
      <path id="Path_39828" data-name="Path 39828" d="M1055.95,1323.53l-4.7-.48c0-.13,0-.25-.01-.38h4.74c0,.29-.01.58-.02.86Z" transform="translate(-764.119 -1322.67)" fill="rgba(217,203,180,0.32)"/>
      <path id="Path_39830" data-name="Path 39830" d="M1105.35,1334.79l3.49-.27c.05.23.1.47.16.7-1.17.38-2.34.75-3.51,1.13-.04-.52-.09-1.04-.13-1.56Z" transform="translate(-764.119 -1320.749)" fill="rgba(217,203,180,0.32)"/>
      <path id="Path_39834" data-name="Path 39834" d="M1058.56,1333.92c.28.24.57.47.85.7-.2.18-.45.53-.58.49a3.884,3.884,0,0,1-.91-.58Z" transform="translate(-764.119 -1320.9)" fill="rgba(217,203,180,0.32)"/>
    </g>
  </g>
</svg>
