<svg xmlns="http://www.w3.org/2000/svg" width="906.002" height="295.607" viewBox="0 0 906.002 295.607">
  <g id="get-social-with-us-bg" transform="matrix(0.999, -0.035, 0.035, 0.999, -554.205, -1426.231)">
    <path id="Path_56930" data-name="Path 56930" d="M12480.43,11949.453l.03-.034h-.664c0,.012.007.023.011.034h-1.8c0-.011-.007-.022-.011-.034h-5.94a.18.18,0,0,1,0,.022l-.044-.022h-50.021a.381.381,0,0,1-.019.034h-.9l0-.034h-14.217c0,.012,0,.023,0,.034h-2.1l-.006-.034h-15.366c0,.012,0,.023,0,.034h-.714c0-.011,0-.022,0-.034h-.92l.02.034H11584V11685h897.319v264.452Zm-92.656,0h0ZM12387.776,11949.453Zm0,0h0Z" transform="translate(-11081 -10209)" fill="#bf423e"/>
    <path id="Path_55986" data-name="Path 55986" d="M2.345,2.793C1.915,1.793,2.49.115,0,0,1.248.939-.2,3.363,2.46,2.678a12.305,12.305,0,0,1-.848,1.278c-.158.182-.479.224-1.1.491,1.066.576,1.751.945,2.442,1.315.921-1.466.739-2.381-.6-2.975Z" transform="matrix(0.999, -0.035, 0.035, 0.999, 607.751, 1536.84)" fill="rgba(20,21,46,0.32)"/>
    <path id="Path_55993" data-name="Path 55993" d="M6.083,1.916C5.817,1.389,5.671.559,5.259.395,3.605-.278,1.909.044,0,.371,1.466,3.024,3.787,1.837,6.083,1.922Z" transform="matrix(0.999, -0.035, 0.035, 0.999, 1295.961, 1624.685)" fill="rgba(20,21,46,0.32)"/>
    <path id="Path_55995" data-name="Path 55995" d="M0,1.8A4.436,4.436,0,0,0,5.465.96C1.9-.476,1.284-.385,0,1.8Z" transform="matrix(0.999, -0.035, 0.035, 0.999, 626.929, 1733.237)" fill="rgba(20,21,46,0.32)"/>
    <path id="Path_56001" data-name="Path 56001" d="M0,1.228c2.563-.794,3.914,2.9,6.235.261C3.072-.371,2.012-.523,0,1.228Z" transform="matrix(0.999, -0.035, 0.035, 0.999, 877.884, 1558.437)" fill="rgba(20,21,46,0.32)"/>
    <path id="Path_56003" data-name="Path 56003" d="M5.38.442C3.151.254,1.618.127.085,0,.055.267.03.533,0,.794,1.594.648,2.611,3.993,5.38.442Z" transform="matrix(0.999, -0.035, 0.035, 0.999, 800.814, 1573.143)" fill="rgba(20,21,46,0.32)"/>
    <path id="Path_56004" data-name="Path 56004" d="M.194,0C.115,1.757.061,2.92,0,4.259,3.266,2.781,3.32,2.4.194,0Z" transform="matrix(0.999, -0.035, 0.035, 0.999, 799.863, 1548.858)" fill="rgba(20,21,46,0.32)"/>
    <path id="Path_56008" data-name="Path 56008" d="M0,.5C1.194,1.745,1.915,2.5,2.89,3.508,3.532,2.1,3.957,1.175,4.5,0,3.011.17,1.89.291.006.509Z" transform="matrix(0.999, -0.035, 0.035, 0.999, 1025.782, 1517.877)" fill="rgba(20,21,46,0.32)"/>
    <path id="Path_56017" data-name="Path 56017" d="M.215,3.623c1.727-.86,2.121-1.9,1.6-3.623C.112.721-.318,1.751.215,3.623Z" transform="matrix(0.999, -0.035, 0.035, 0.999, 1263.34, 1625.674)" fill="rgba(20,21,46,0.32)"/>
    <path id="Path_56029" data-name="Path 56029" d="M1.419,3.168C1.9,2.053,2.37,1.465,2.3.95,2.249.563,1.534.108,1.043.005.74-.061-.035.532,0,.732c.079.5.5.939,1.424,2.442Z" transform="matrix(0.999, -0.035, 0.035, 0.999, 986.946, 1550.408)" fill="rgba(20,21,46,0.32)"/>
    <path id="Path_56032" data-name="Path 56032" d="M3.369,1.231C2.066-.992,1.151.413.248.722.133.759.1,1.019,0,1.231Z" transform="matrix(0.999, -0.035, 0.035, 0.999, 805.771, 1591.325)" fill="rgba(20,21,46,0.32)"/>
    <path id="Path_56035" data-name="Path 56035" d="M0,0Q.4,2.139,2.811,1.83C1.739,1.133,1.024.666,0,0Z" transform="matrix(0.999, -0.035, 0.035, 0.999, 874.247, 1626.348)" fill="rgba(20,21,46,0.32)"/>
    <path id="Path_56041" data-name="Path 56041" d="M2.406.885c-.248-.3-.5-.594-.745-.885C1.1.509.534,1.018,0,1.557a2.023,2.023,0,0,0,.43.509C1.1,1.7,1.752,1.29,2.406.885Z" transform="matrix(0.999, -0.035, 0.035, 0.999, 937.172, 1574.315)" fill="rgba(20,21,46,0.32)"/>
    <path id="Path_56047" data-name="Path 56047" d="M.006,0c0,.424.012.848.012,1.272.715-.1,1.43-.182,2.133-.315A1.627,1.627,0,0,0,2.109.3C1.412.164.7.091,0,.006Z" transform="matrix(0.999, -0.035, 0.035, 0.999, 1309.632, 1602.274)" fill="rgba(20,21,46,0.32)"/>
    <path id="Path_56049" data-name="Path 56049" d="M2.811.976C2.793.648,2.775.327,2.757,0,1.836.1.921.206,0,.3L.055.976Z" transform="matrix(0.999, -0.035, 0.035, 0.999, 939.129, 1611.593)" fill="rgba(20,21,46,0.32)"/>
    <path id="Path_56050" data-name="Path 56050" d="M2.86.521c0-.176.006-.351.012-.521H0C0,.079,0,.151.006.23L2.854.521Z" transform="matrix(0.999, -0.035, 0.035, 0.999, 1350.497, 1596.124)" fill="rgba(20,21,46,0.32)"/>
    <path id="Path_56053" data-name="Path 56053" d="M4.017.8C2.884.085,1.751-.569,0,.8Z" transform="matrix(0.999, -0.035, 0.035, 0.999, 613.743, 1735.167)" fill="rgba(20,21,46,0.32)"/>
    <path id="Path_56059" data-name="Path 56059" d="M.407,2.206c.3-.188.594-.382.891-.569.133-.406.5-.975.351-1.187A1.755,1.755,0,0,0,.425,0C.292-.012-.023.521,0,.788A6.447,6.447,0,0,0,.413,2.212Z" transform="matrix(0.999, -0.035, 0.035, 0.999, 1235.549, 1630.646)" fill="rgba(20,21,46,0.32)"/>
    <path id="Path_56060" data-name="Path 56060" d="M1.266.248C.951.164.636.085.321,0,.212.7.109,1.394,0,2.084c.236.042.473.085.709.121C.9,1.551,1.078.9,1.266.242Z" transform="matrix(0.999, -0.035, 0.035, 0.999, 938.403, 1522.607)" fill="rgba(20,21,46,0.32)"/>
    <path id="Path_56061" data-name="Path 56061" d="M2.1,1.521c.091-.37.182-.739.267-1.109C1.648.273.933.139.224,0,.151.285.073.57,0,.854c.7.224,1.4.442,2.1.667Z" transform="matrix(0.999, -0.035, 0.035, 0.999, 984.13, 1543.334)" fill="rgba(20,21,46,0.32)"/>
    <path id="Path_56065" data-name="Path 56065" d="M0,.776c1.188.285,1.927.46,3.114.751C2.278-.563,1.436-.193,0,.776Z" transform="matrix(0.999, -0.035, 0.035, 0.999, 947.711, 1607.703)" fill="rgba(20,21,46,0.32)"/>
    <path id="Path_56072" data-name="Path 56072" d="M1.024.133C.769.091.515.042.254,0L0,1.745l.394.109c.212-.57.418-1.145.63-1.715Z" transform="matrix(0.999, -0.035, 0.035, 0.999, 939.153, 1527.401)" fill="rgba(20,21,46,0.32)"/>
    <path id="Path_56078" data-name="Path 56078" d="M.006.164c.024.315.055.63.079.945C.794.878,1.5.654,2.212.424,2.181.285,2.151.139,2.115,0L0,.164Z" transform="matrix(0.999, -0.035, 0.035, 0.999, 1383.506, 1602.156)" fill="rgba(20,21,46,0.32)"/>
    <path id="Path_56080" data-name="Path 56080" d="M.333,0C.224.182.109.37,0,.551c.533.327,1.06.66,1.594.988.121-.206.242-.412.37-.618C1.424.612.879.309.339,0Z" transform="matrix(0.999, -0.035, 0.035, 0.999, 689.462, 1566.852)" fill="rgba(20,21,46,0.32)"/>
    <path id="Path_56085" data-name="Path 56085" d="M1.63,1.29C1.739,1,1.854.709,1.963.418L.121,0C.079.151.036.3,0,.454c.539.279,1.085.557,1.63.836Z" transform="matrix(0.999, -0.035, 0.035, 0.999, 942.483, 1574.154)" fill="rgba(20,21,46,0.32)"/>
    <path id="Path_56098" data-name="Path 56098" d="M.248,0C.164.2.085.4,0,.594c.551.218,1.109.442,1.66.66.073-.182.145-.357.224-.539C1.339.479.794.236.248,0Z" transform="matrix(0.999, -0.035, 0.035, 0.999, 624.018, 1549.864)" fill="rgba(20,21,46,0.32)"/>
    <path id="Path_56102" data-name="Path 56102" d="M0,1.842c.158.012.321.03.479.042L.66.048C.491.03.327.018.158,0,.1.612.049,1.224,0,1.842Z" transform="matrix(0.999, -0.035, 0.035, 0.999, 991.326, 1557.208)" fill="rgba(20,21,46,0.32)"/>
    <path id="Path_56103" data-name="Path 56103" d="M.748,1.7c.315-.461.685-.763.685-1.06C1.432.406.966.006.7,0A1,1,0,0,0,0,.667c-.036.218.351.515.745,1.03Z" transform="matrix(0.999, -0.035, 0.035, 0.999, 982.438, 1570.31)" fill="rgba(20,21,46,0.32)"/>
    <path id="Path_56108" data-name="Path 56108" d="M.642,0C.43.061.212.115,0,.176L.564,1.921c.17-.048.339-.1.509-.151C.927,1.182.788.594.642.006Z" transform="matrix(0.999, -0.035, 0.035, 0.999, 1133.89, 1616.656)" fill="rgba(20,21,46,0.32)"/>
    <path id="Path_56110" data-name="Path 56110" d="M.006.37c.806.315,1.139.539,1.23.46A4.036,4.036,0,0,0,1.891,0L0,.37Z" transform="matrix(0.999, -0.035, 0.035, 0.999, 1175.994, 1638.188)" fill="rgba(20,21,46,0.32)"/>
    <path id="Path_56111" data-name="Path 56111" d="M1.515.79A4.919,4.919,0,0,0,.57.008C.443-.052-.018.238,0,.3c.061.279.188.7.376.751.279.073.63-.127,1.139-.261Z" transform="matrix(0.999, -0.035, 0.035, 0.999, 644.377, 1669.196)" fill="rgba(20,21,46,0.32)"/>
    <path id="Path_56118" data-name="Path 56118" d="M.006,0V.339H2.533c0-.115,0-.224-.006-.339H0Z" transform="matrix(0.999, -0.035, 0.035, 0.999, 620.868, 1736.065)" fill="rgba(20,21,46,0.32)"/>
    <path id="Path_56124" data-name="Path 56124" d="M.957.317C.764.2.5-.047.4.008.218.1.127.389,0,.6.249.729.5.868.745,1,.818.777.885.547.957.323Z" transform="matrix(0.999, -0.035, 0.035, 0.999, 1153.711, 1595.726)" fill="rgba(20,21,46,0.32)"/>
    <path id="Path_56127" data-name="Path 56127" d="M1.339.6A3.506,3.506,0,0,0,.473,0C.358-.033-.006.258,0,.385a2.791,2.791,0,0,0,.309.824C.594,1.039.873.876,1.339.6Z" transform="matrix(0.999, -0.035, 0.035, 0.999, 1183.485, 1565.391)" fill="rgba(20,21,46,0.32)"/>
    <path id="Path_56130" data-name="Path 56130" d="M.988.624C.83.334.745.006.642,0a.79.79,0,0,0-.6.273c-.1.133,0,.406.018.618.3-.085.6-.176.927-.267Z" transform="matrix(0.999, -0.035, 0.035, 0.999, 1276.548, 1551.909)" fill="rgba(20,21,46,0.32)"/>
    <path id="Path_56133" data-name="Path 56133" d="M1.019.745C.777.473.571.236.365,0,.232.176-.023.376,0,.527a2.813,2.813,0,0,0,.4.782C.577,1.151.747.994,1.02.751Z" transform="matrix(0.999, -0.035, 0.035, 0.999, 1158.465, 1555.888)" fill="rgba(20,21,46,0.32)"/>
    <path id="Path_56134" data-name="Path 56134" d="M.527,0C.351.006.176.018,0,.024.042.57.091,1.115.133,1.66c.133-.012.261-.018.394-.03Z" transform="matrix(0.999, -0.035, 0.035, 0.999, 613.17, 1540.967)" fill="rgba(20,21,46,0.32)"/>
    <path id="Path_56152" data-name="Path 56152" d="M0,.285C.139.43.273.576.412.721.485.63.63.485.612.448A3.947,3.947,0,0,0,.218,0C.145.091.073.188,0,.279Z" transform="matrix(0.999, -0.035, 0.035, 0.999, 1170.712, 1637.965)" fill="rgba(20,21,46,0.32)"/>
    <path id="Path_56154" data-name="Path 56154" d="M.067,0C.042.152.018.3,0,.448L1.551.721C1.575.557,1.606.394,1.63.23,1.109.158.588.079.067.006Z" transform="matrix(0.999, -0.035, 0.035, 0.999, 738.671, 1652.41)" fill="rgba(20,21,46,0.32)"/>
    <path id="Path_56159" data-name="Path 56159" d="M1.3.352A4.576,4.576,0,0,0,.333,0C.254-.012.115.364,0,.564a7.105,7.105,0,0,0,.945.454A5.031,5.031,0,0,0,1.309.352Z" transform="matrix(0.999, -0.035, 0.035, 0.999, 741.689, 1648.061)" fill="rgba(20,21,46,0.32)"/>
    <path id="Path_56164" data-name="Path 56164" d="M1.394.481C1.157.263.927-.028.86,0A5.827,5.827,0,0,0,0,.608c.236.194.515.582.709.545C.969,1.1,1.169.723,1.394.481Z" transform="matrix(0.999, -0.035, 0.035, 0.999, 559.437, 1652.92)" fill="rgba(20,21,46,0.32)"/>
    <path id="Path_56165" data-name="Path 56165" d="M.388,0,0,.37A2.171,2.171,0,0,0,.552.721C.63.745.782.527.9.424Z" transform="matrix(0.999, -0.035, 0.035, 0.999, 1354.786, 1602.795)" fill="rgba(20,21,46,0.32)"/>
    <path id="Path_56170" data-name="Path 56170" d="M1.031.485C.789.333.534.164.274,0,.177.182-.042.473.007.533a5.11,5.11,0,0,0,.763.624C.843.97.916.782,1.031.491Z" transform="matrix(0.999, -0.035, 0.035, 0.999, 947.729, 1610.862)" fill="rgba(20,21,46,0.32)"/>
    <path id="Path_56179" data-name="Path 56179" d="M6.083,1.922C3.787,1.843,1.466,3.024,0,.371,1.909.044,3.6-.278,5.259.395c.412.17.557,1,.824,1.521Z" transform="matrix(0.999, -0.035, 0.035, 0.999, 1295.961, 1624.679)" fill="rgba(20,21,46,0.32)"/>
    <path id="Path_56181" data-name="Path 56181" d="M0,1.8C1.284-.382,1.9-.479,5.465.963A4.436,4.436,0,0,1,0,1.8Z" transform="matrix(0.999, -0.035, 0.035, 0.999, 626.929, 1733.234)" fill="rgba(20,21,46,0.32)"/>
    <path id="Path_56188" data-name="Path 56188" d="M0,1.228c2.012-1.751,3.072-1.6,6.235.261C3.914,4.124,2.563.435,0,1.228Z" transform="matrix(0.999, -0.035, 0.035, 0.999, 877.884, 1558.437)" fill="rgba(20,21,46,0.32)"/>
    <path id="Path_56190" data-name="Path 56190" d="M5.38.442C2.611,3.993,1.594.648,0,.794.03.527.055.261.085,0c1.533.127,3.066.254,5.3.442Z" transform="matrix(0.999, -0.035, 0.035, 0.999, 800.814, 1573.143)" fill="rgba(20,21,46,0.32)"/>
    <path id="Path_56191" data-name="Path 56191" d="M.194,0C3.32,2.405,3.272,2.787,0,4.259.061,2.914.115,1.757.194,0Z" transform="matrix(0.999, -0.035, 0.035, 0.999, 799.863, 1548.858)" fill="rgba(20,21,46,0.32)"/>
    <path id="Path_56195" data-name="Path 56195" d="M.006.509C1.89.3,3.017.17,4.5,0,3.957,1.175,3.532,2.1,2.89,3.508,1.921,2.5,1.194,1.745,0,.5Z" transform="matrix(0.999, -0.035, 0.035, 0.999, 1025.775, 1517.871)" fill="rgba(20,21,46,0.32)"/>
    <path id="Path_56204" data-name="Path 56204" d="M.213,3.623C-.315,1.745.11.721,1.812,0,2.327,1.727,1.933,2.769.213,3.623Z" transform="matrix(0.999, -0.035, 0.035, 0.999, 1263.342, 1625.673)" fill="rgba(20,21,46,0.32)"/>
    <path id="Path_56217" data-name="Path 56217" d="M1.425,3.173C.5,1.671.08,1.228,0,.731-.029.531.74-.056,1.043,0c.491.1,1.206.563,1.26.945.073.515-.4,1.1-.885,2.218Z" transform="matrix(0.999, -0.035, 0.035, 0.999, 986.94, 1550.403)" fill="rgba(20,21,46,0.32)"/>
    <path id="Path_56220" data-name="Path 56220" d="M3.369,1.231H0C.1,1.019.133.759.248.722,1.151.413,2.066-.992,3.369,1.231Z" transform="matrix(0.999, -0.035, 0.035, 0.999, 805.771, 1591.325)" fill="rgba(20,21,46,0.32)"/>
    <path id="Path_56223" data-name="Path 56223" d="M0,0C1.024.666,1.739,1.133,2.811,1.83Q.4,2.139,0,0Z" transform="matrix(0.999, -0.035, 0.035, 0.999, 874.247, 1626.348)" fill="rgba(20,21,46,0.32)"/>
    <path id="Path_56224" data-name="Path 56224" d="M1.848.1c1.333.6,1.515,1.521.594,2.981C1.757,2.714,1.066,2.345,0,1.769.624,1.5.945,1.46,1.1,1.278A12.3,12.3,0,0,0,1.951,0L1.842.109Z" transform="matrix(0.999, -0.035, 0.035, 0.999, 608.348, 1539.505)" fill="rgba(20,21,46,0.32)"/>
    <path id="Path_56230" data-name="Path 56230" d="M2.406.885c-.654.4-1.3.818-1.975,1.181-.042.024-.442-.5-.43-.509C.534,1.018,1.1.509,1.66,0c.248.3.5.594.745.885Z" transform="matrix(0.999, -0.035, 0.035, 0.999, 937.172, 1574.315)" fill="rgba(20,21,46,0.32)"/>
    <path id="Path_56236" data-name="Path 56236" d="M0,.006C.7.091,1.412.164,2.109.3a1.745,1.745,0,0,1,.042.66c-.7.133-1.418.224-2.133.315C.018.848.006.424.006,0Z" transform="matrix(0.999, -0.035, 0.035, 0.999, 1309.638, 1602.268)" fill="rgba(20,21,46,0.32)"/>
    <path id="Path_56238" data-name="Path 56238" d="M2.811.976H.055L0,.3C.921.2,1.836.1,2.757,0,2.775.327,2.793.648,2.811.976Z" transform="matrix(0.999, -0.035, 0.035, 0.999, 939.129, 1611.593)" fill="rgba(20,21,46,0.32)"/>
    <path id="Path_56239" data-name="Path 56239" d="M2.46,2.678C-.2,3.357,1.254.939,0,0,2.49.109,1.921,1.793,2.351,2.787Z" transform="matrix(0.999, -0.035, 0.035, 0.999, 607.745, 1536.847)" fill="rgba(20,21,46,0.32)"/>
    <path id="Path_56240" data-name="Path 56240" d="M2.854.521.006.23C.006.151.006.079,0,0H2.872c0,.176-.006.351-.012.521Z" transform="matrix(0.999, -0.035, 0.035, 0.999, 1350.503, 1596.124)" fill="rgba(20,21,46,0.32)"/>
    <path id="Path_56244" data-name="Path 56244" d="M4.017.8H0C1.757-.569,2.89.085,4.017.8Z" transform="matrix(0.999, -0.035, 0.035, 0.999, 613.743, 1735.167)" fill="rgba(20,21,46,0.32)"/>
    <path id="Path_56251" data-name="Path 56251" d="M.413,2.212A6.8,6.8,0,0,1,0,.788C-.017.521.3-.006.425,0A1.783,1.783,0,0,1,1.649.448c.145.212-.212.782-.351,1.188C1,1.824.7,2.018.407,2.205Z" transform="matrix(0.999, -0.035, 0.035, 0.999, 1235.543, 1630.64)" fill="rgba(20,21,46,0.32)"/>
    <path id="Path_56252" data-name="Path 56252" d="M1.266.242C1.078.9.9,1.551.709,2.205.473,2.163.236,2.121,0,2.084.109,1.387.212.691.321,0c.315.085.63.164.945.248Z" transform="matrix(0.999, -0.035, 0.035, 0.999, 938.404, 1522.613)" fill="rgba(20,21,46,0.32)"/>
    <path id="Path_56253" data-name="Path 56253" d="M2.1,1.521C1.4,1.3.7,1.079,0,.854.073.57.152.285.224,0c.715.139,1.43.273,2.139.412C2.272.782,2.181,1.151,2.1,1.521Z" transform="matrix(0.999, -0.035, 0.035, 0.999, 984.13, 1543.334)" fill="rgba(20,21,46,0.32)"/>
    <path id="Path_56258" data-name="Path 56258" d="M0,.779C1.436-.2,2.278-.56,3.114,1.53,1.927,1.245,1.188,1.063,0,.779Z" transform="matrix(0.999, -0.035, 0.035, 0.999, 947.711, 1607.701)" fill="rgba(20,21,46,0.32)"/>
    <path id="Path_56265" data-name="Path 56265" d="M1.024.139C.812.709.606,1.285.394,1.854L0,1.745.254,0c.254.042.509.091.769.133Z" transform="matrix(0.999, -0.035, 0.035, 0.999, 939.153, 1527.395)" fill="rgba(20,21,46,0.32)"/>
    <path id="Path_56271" data-name="Path 56271" d="M0,.164,2.115,0c.03.139.061.285.1.424C1.5.654.794.879.085,1.109.061.794.03.479.006.164Z" transform="matrix(0.999, -0.035, 0.035, 0.999, 1383.513, 1602.155)" fill="rgba(20,21,46,0.32)"/>
    <path id="Path_56274" data-name="Path 56274" d="M.339,0C.879.309,1.424.612,1.963.921c-.121.206-.242.412-.37.618C1.06,1.212.533.879,0,.551.109.37.224.182.333,0Z" transform="matrix(0.999, -0.035, 0.035, 0.999, 689.456, 1566.852)" fill="rgba(20,21,46,0.32)"/>
    <path id="Path_56280" data-name="Path 56280" d="M1.63,1.291C1.085,1.012.545.733,0,.454.042.3.085.151.121,0L1.963.418C1.854.709,1.739,1,1.63,1.29Z" transform="matrix(0.999, -0.035, 0.035, 0.999, 942.483, 1574.154)" fill="rgba(20,21,46,0.32)"/>
    <path id="Path_56293" data-name="Path 56293" d="M.248,0C.794.236,1.339.479,1.884.715c-.073.182-.145.357-.224.539C1.109,1.036.551.812,0,.594.085.394.164.194.248,0Z" transform="matrix(0.999, -0.035, 0.035, 0.999, 624.018, 1549.864)" fill="rgba(20,21,46,0.32)"/>
    <path id="Path_56297" data-name="Path 56297" d="M0,1.842C.055,1.23.109.618.158,0c.17.018.333.03.5.048L.479,1.884C.321,1.872.158,1.854,0,1.842Z" transform="matrix(0.999, -0.035, 0.035, 0.999, 991.326, 1557.208)" fill="rgba(20,21,46,0.32)"/>
    <path id="Path_56298" data-name="Path 56298" d="M.748,1.7C.354,1.181-.034.891,0,.667A.987.987,0,0,1,.7,0a.985.985,0,0,1,.733.636c0,.3-.364.606-.685,1.06Z" transform="matrix(0.999, -0.035, 0.035, 0.999, 982.438, 1570.31)" fill="rgba(20,21,46,0.32)"/>
    <path id="Path_56303" data-name="Path 56303" d="M.642.006c.145.588.285,1.175.43,1.763-.17.048-.339.1-.509.151L0,.176C.212.115.43.061.642,0Z" transform="matrix(0.999, -0.035, 0.035, 0.999, 1133.89, 1616.65)" fill="rgba(20,21,46,0.32)"/>
    <path id="Path_56306" data-name="Path 56306" d="M0,.37,1.89,0a4.256,4.256,0,0,1-.654.83C1.139.9.812.685.006.37Z" transform="matrix(0.999, -0.035, 0.035, 0.999, 1176, 1638.188)" fill="rgba(20,21,46,0.32)"/>
    <path id="Path_56307" data-name="Path 56307" d="M1.515.788c-.509.133-.86.333-1.139.261C.188,1,.061.57,0,.3-.012.237.443-.048.57.007a5.209,5.209,0,0,1,.945.782Z" transform="matrix(0.999, -0.035, 0.035, 0.999, 644.377, 1669.197)" fill="rgba(20,21,46,0.32)"/>
    <path id="Path_56314" data-name="Path 56314" d="M0,0H2.527c0,.115,0,.224.006.339H.006V0Z" transform="matrix(0.999, -0.035, 0.035, 0.999, 620.874, 1736.064)" fill="rgba(20,21,46,0.32)"/>
    <path id="Path_56320" data-name="Path 56320" d="M.957.323C.885.553.818.777.745,1,.5.868.248.729,0,.6.127.389.212.111.4.008.5-.047.77.2.957.317Z" transform="matrix(0.999, -0.035, 0.035, 0.999, 1153.71, 1595.72)" fill="rgba(20,21,46,0.32)"/>
    <path id="Path_56323" data-name="Path 56323" d="M1.339.6l-1.03.612A2.638,2.638,0,0,1,0,.385C-.006.258.358-.033.473,0A3.809,3.809,0,0,1,1.339.6Z" transform="matrix(0.999, -0.035, 0.035, 0.999, 1183.485, 1565.391)" fill="rgba(20,21,46,0.32)"/>
    <path id="Path_56326" data-name="Path 56326" d="M.984.624C.656.721.354.806.057.891.045.679-.052.406.039.273A.789.789,0,0,1,.638,0c.1,0,.188.327.345.624Z" transform="matrix(0.999, -0.035, 0.035, 0.999, 1276.552, 1551.909)" fill="rgba(20,21,46,0.32)"/>
    <path id="Path_56329" data-name="Path 56329" d="M1.02.751C.747,1,.571,1.151.4,1.309A2.586,2.586,0,0,1,0,.527C-.023.376.238.182.365,0c.206.236.412.473.654.745Z" transform="matrix(0.999, -0.035, 0.035, 0.999, 1158.465, 1555.882)" fill="rgba(20,21,46,0.32)"/>
    <path id="Path_56330" data-name="Path 56330" d="M.527,0V1.63c-.133.012-.261.018-.394.03C.091,1.115.042.57,0,.024.176.018.351.006.527,0Z" transform="matrix(0.999, -0.035, 0.035, 0.999, 613.17, 1540.967)" fill="rgba(20,21,46,0.32)"/>
    <path id="Path_56348" data-name="Path 56348" d="M.006.279C.079.188.152.091.218,0A3.029,3.029,0,0,1,.612.448c.024.03-.127.176-.2.273C.273.576.139.43,0,.285Z" transform="matrix(0.999, -0.035, 0.035, 0.999, 1170.706, 1637.972)" fill="rgba(20,21,46,0.32)"/>
    <path id="Path_56350" data-name="Path 56350" d="M.067.006C.588.079,1.109.157,1.63.23c-.024.164-.055.327-.079.491L0,.448C.024.3.048.151.067,0Z" transform="matrix(0.999, -0.035, 0.035, 0.999, 738.671, 1652.404)" fill="rgba(20,21,46,0.32)"/>
    <path id="Path_56355" data-name="Path 56355" d="M1.309.352a4.37,4.37,0,0,1-.364.666A8.427,8.427,0,0,1,0,.564C.115.364.254-.012.333,0A4.453,4.453,0,0,1,1.3.352Z" transform="matrix(0.999, -0.035, 0.035, 0.999, 741.684, 1648.061)" fill="rgba(20,21,46,0.32)"/>
    <path id="Path_56360" data-name="Path 56360" d="M1.394.481C1.169.723.975,1.1.709,1.153.521,1.2.242.808,0,.608A5.827,5.827,0,0,1,.86,0C.927-.028,1.151.263,1.394.481Z" transform="matrix(0.999, -0.035, 0.035, 0.999, 559.437, 1652.919)" fill="rgba(20,21,46,0.32)"/>
    <path id="Path_56361" data-name="Path 56361" d="M.388,0C.558.145.733.285.9.424.782.533.63.745.552.721A2.351,2.351,0,0,1,0,.37Z" transform="matrix(0.999, -0.035, 0.035, 0.999, 1354.786, 1602.795)" fill="rgba(20,21,46,0.32)"/>
    <path id="Path_56366" data-name="Path 56366" d="M1.031.491C.916.788.843.969.77,1.157A4.769,4.769,0,0,1,.007.533C-.042.473.177.188.274,0c.261.164.515.333.757.485Z" transform="matrix(0.999, -0.035, 0.035, 0.999, 947.729, 1610.855)" fill="rgba(20,21,46,0.32)"/>
    <path id="Path_56480" data-name="Path 56480" d="M2.86.521c0-.176.006-.351.012-.521H0C0,.079,0,.151.006.23L2.854.521Z" transform="matrix(0.999, -0.035, 0.035, 0.999, 1009.419, 1737.495)" fill="rgba(20,21,46,0.32)"/>
    <path id="Path_56481" data-name="Path 56481" d="M.109,0,0,.691l2.757.491C2.8.927,2.836.673,2.878.418L.115,0Z" transform="matrix(0.999, -0.035, 0.035, 0.999, 1059.744, 1711.979)" fill="rgba(20,21,46,0.32)"/>
    <path id="Path_56483" data-name="Path 56483" d="M.309,0,0,.564c.515.3,1.03.588,1.551.885l.327-.6C1.357.564.83.285.309,0Z" transform="matrix(0.999, -0.035, 0.035, 0.999, 1151.213, 1661.878)" fill="rgba(20,21,46,0.32)"/>
    <path id="Path_56485" data-name="Path 56485" d="M.988.624C.83.333.745.006.642,0a.789.789,0,0,0-.6.273c-.1.133,0,.406.018.618.3-.085.6-.176.927-.267Z" transform="matrix(0.999, -0.035, 0.035, 0.999, 935.476, 1693.279)" fill="rgba(20,21,46,0.32)"/>
    <path id="Path_56490" data-name="Path 56490" d="M2.854.521.006.23C.006.151.006.079,0,0H2.872c0,.176-.006.351-.012.521Z" transform="matrix(0.999, -0.035, 0.035, 0.999, 1009.425, 1737.495)" fill="rgba(20,21,46,0.32)"/>
    <path id="Path_56491" data-name="Path 56491" d="M.115,0,2.878.418c-.042.254-.079.509-.121.763L0,.691.109,0Z" transform="matrix(0.999, -0.035, 0.035, 0.999, 1059.738, 1711.979)" fill="rgba(20,21,46,0.32)"/>
    <path id="Path_56493" data-name="Path 56493" d="M.309,0C.83.285,1.357.564,1.878.848l-.327.6C1.036,1.151.521.86,0,.564L.309,0Z" transform="matrix(0.999, -0.035, 0.035, 0.999, 1151.213, 1661.878)" fill="rgba(20,21,46,0.32)"/>
    <path id="Path_56495" data-name="Path 56495" d="M.984.624C.657.721.354.806.057.891.045.679-.052.406.039.273A.789.789,0,0,1,.638,0C.741,0,.826.327.984.624Z" transform="matrix(0.999, -0.035, 0.035, 0.999, 935.479, 1693.279)" fill="rgba(20,21,46,0.32)"/>
  </g>
</svg>
