<svg id="Group_599" data-name="Group 599" xmlns="http://www.w3.org/2000/svg" width="302.404" height="82.424" viewBox="0 0 302.404 82.424">
  <path id="Path_43331" data-name="Path 43331" d="M10561.119,2821.609a13.041,13.041,0,0,1-6.868,7.907,12.83,12.83,0,0,1-5.486,1.21,16.128,16.128,0,0,1-6.478-1.446,1.512,1.512,0,1,1,1.207-2.772c3.414,1.487,6.689,1.581,9.469.272a9.934,9.934,0,0,0,5.252-6.006,1.511,1.511,0,1,1,2.9.834Z" transform="translate(-10432.55 -2756.514)" fill="#14152e"/>
  <path id="Path_43332" data-name="Path 43332" d="M10334.24,2773.395a1.511,1.511,0,0,1,2.1-.392q.063.043.12.091l.016.013a1.512,1.512,0,0,1,.269,2.121l-.861,1.11a1.512,1.512,0,0,1-2.441-1.781Z" transform="translate(-10051.079 -2745.051)" fill="#14152e"/>
  <path id="Path_43333" data-name="Path 43333" d="M10359.5,2770.071a1.512,1.512,0,0,1-.017-3.023,22.731,22.731,0,0,1,12.6,3.655,24.164,24.164,0,0,0-7-4.966,1.511,1.511,0,1,1,1.277-2.74,27.176,27.176,0,0,1,9.066,6.878c7.986-9.722,19.712-4.342,27.507-.757,1.388.639,2.708,1.245,3.892,1.722,5.779-1.735,13.61,3.076,22.371,8.465,2.633,1.62,5.355,3.3,8.147,4.873,2.248,1.271,4.456,2.839,3.8,4.843a2.421,2.421,0,0,1-.1.254,1.04,1.04,0,1,1-1.426,1.3c-1.23.56-3.322.874-6.869.874-2.283,0-5.17-.13-8.809-.405a1.027,1.027,0,0,1-1.373-.108q-1.263-.1-2.639-.227a1.036,1.036,0,0,1-1.9-.176q-1.1-.105-2.279-.224a1.041,1.041,0,0,1-2.078-.075,1.268,1.268,0,0,1,.012-.137c-.742-.078-1.511-.161-2.294-.246a1.042,1.042,0,1,1-2.018.383,1.013,1.013,0,0,1,.169-.587q-1.318-.146-2.706-.306a1.046,1.046,0,1,1-1.247-.143c-1.969-.229-4.043-.476-6.234-.744-1.308-.159-2.527-.308-3.635-.44a1.018,1.018,0,0,1-1.074-.128c-.884-.1-1.673-.192-2.336-.263l-.42-.046a1.037,1.037,0,0,1-1.9-.218q-1.143-.138-2.26-.3v0a1.044,1.044,0,0,1-2.088.025,1,1,0,0,1,.057-.342q-1.4-.24-2.723-.535a1.048,1.048,0,1,1-.73-.17,25.649,25.649,0,0,1-5.377-1.858,1.042,1.042,0,0,1-2.021-.336,1.022,1.022,0,0,1,.262-.7,7.542,7.542,0,0,1-2.581-2.985c-.03,0-.06,0-.089,0a17.772,17.772,0,0,0-11.439,2.893,1.512,1.512,0,1,1-1.676-2.517,20.744,20.744,0,0,1,6.884-2.936c-1.491-.116-2.977-.291-4.45-.535a1.511,1.511,0,0,1-.1-2.962l-2.308-.284a1.512,1.512,0,0,1,.369-3l8.077.995a19.932,19.932,0,0,0-8.051-1.739C10359.657,2770.069,10359.577,2770.067,10359.5,2770.071Zm15.716,8.762a6.093,6.093,0,0,0,3.166,2.756,12.756,12.756,0,0,1,1.457-6.8,1.512,1.512,0,0,1,2.668,1.422,9.864,9.864,0,0,0-.949,6.485.41.41,0,0,1,.006.06,68.489,68.489,0,0,0,11.046,1.856c1.716.181,4.208.484,7.095.837,2.054.251,4.818.588,7.93.945a10.1,10.1,0,0,1,.738-4.632,1.512,1.512,0,0,1,2.789,1.168,7.037,7.037,0,0,0-.435,3.813c10.579,1.169,23.556,2.336,27.05,1.334a13.38,13.38,0,0,0-1.929-1.268c-2.839-1.605-5.587-3.3-8.243-4.93-11.533-7.1-18.8-11.185-22.766-6.033a1.511,1.511,0,1,1-2.395-1.843,10.549,10.549,0,0,1,1.137-1.265c-.623-.279-1.263-.574-1.918-.875-1.381-.635-2.82-1.3-4.29-1.91a1.507,1.507,0,0,1-.415.454,15.255,15.255,0,0,0-5.513,7.5,1.512,1.512,0,0,1-1.435,1.035,1.481,1.481,0,0,1-.477-.079,1.511,1.511,0,0,1-.957-1.912,18.311,18.311,0,0,1,5.613-8.21c-5.986-2.035-12.15-2.48-16.709,3.383C10375.29,2774.946,10374.527,2777.2,10375.221,2778.833Z" transform="translate(-10174.399 -2742.637)" fill="#14152e"/>
  <path id="Path_43334" data-name="Path 43334" d="M10618.537,2811.506a1.042,1.042,0,1,1-1.042,1.037A1.046,1.046,0,0,1,10618.537,2811.506Z" transform="translate(-10548.484 -2754.518)" fill="#14152e"/>
  <path id="Path_43335" data-name="Path 43335" d="M10621.439,2807.506a1.042,1.042,0,1,1-1.041,1.037A1.045,1.045,0,0,1,10621.439,2807.506Z" transform="translate(-10553.58 -2753.541)" fill="#14152e"/>
  <path id="Path_43336" data-name="Path 43336" d="M10612.848,2811.506a1.042,1.042,0,1,1-1.041,1.037A1.045,1.045,0,0,1,10612.848,2811.506Z" transform="translate(-10538.495 -2754.518)" fill="#14152e"/>
  <path id="Path_43337" data-name="Path 43337" d="M10624.228,2811.506a1.042,1.042,0,1,1-1.041,1.037A1.046,1.046,0,0,1,10624.228,2811.506Z" transform="translate(-10558.478 -2754.518)" fill="#14152e"/>
  <path id="Path_43338" data-name="Path 43338" d="M10609.961,2807.506a1.042,1.042,0,1,1-1.041,1.037A1.046,1.046,0,0,1,10609.961,2807.506Z" transform="translate(-10533.427 -2753.541)" fill="#14152e"/>
  <path id="Path_43339" data-name="Path 43339" d="M10629.92,2811.506a1.042,1.042,0,1,1-1.041,1.037A1.045,1.045,0,0,1,10629.92,2811.506Z" transform="translate(-10568.471 -2754.518)" fill="#14152e"/>
  <path id="Path_43340" data-name="Path 43340" d="M10632.82,2815.8a1.042,1.042,0,1,1-1.041,1.037A1.046,1.046,0,0,1,10632.82,2815.8Z" transform="translate(-10573.563 -2755.566)" fill="#14152e"/>
  <path id="Path_43341" data-name="Path 43341" d="M10627.129,2815.8a1.042,1.042,0,1,1-1.042,1.037A1.047,1.047,0,0,1,10627.129,2815.8Z" transform="translate(-10563.569 -2755.566)" fill="#14152e"/>
  <path id="Path_43342" data-name="Path 43342" d="M10592.889,2807.506a1.042,1.042,0,1,1-1.041,1.037A1.045,1.045,0,0,1,10592.889,2807.506Z" transform="translate(-10503.451 -2753.541)" fill="#14152e"/>
  <path id="Path_43343" data-name="Path 43343" d="M10601.369,2803.216a1.042,1.042,0,1,1-1.041,1.037A1.045,1.045,0,0,1,10601.369,2803.216Z" transform="translate(-10518.341 -2752.494)" fill="#14152e"/>
  <path id="Path_43344" data-name="Path 43344" d="M10595.677,2803.216a1.042,1.042,0,1,1-1.041,1.037A1.046,1.046,0,0,1,10595.677,2803.216Z" transform="translate(-10508.348 -2752.494)" fill="#14152e"/>
  <path id="Path_43345" data-name="Path 43345" d="M10607.061,2803.216a1.042,1.042,0,1,1-1.041,1.037A1.045,1.045,0,0,1,10607.061,2803.216Z" transform="translate(-10528.334 -2752.494)" fill="#14152e"/>
  <path id="Path_43346" data-name="Path 43346" d="M10635.608,2811.506a1.042,1.042,0,1,1-1.041,1.037A1.045,1.045,0,0,1,10635.608,2811.506Z" transform="translate(-10578.46 -2754.518)" fill="#14152e"/>
  <path id="Path_43347" data-name="Path 43347" d="M10598.58,2807.506a1.042,1.042,0,1,1-1.042,1.037A1.045,1.045,0,0,1,10598.58,2807.506Z" transform="translate(-10513.442 -2753.541)" fill="#14152e"/>
  <path id="Path_43348" data-name="Path 43348" d="M10604.269,2807.506a1.042,1.042,0,1,1-1.041,1.037A1.046,1.046,0,0,1,10604.269,2807.506Z" transform="translate(-10523.434 -2753.541)" fill="#14152e"/>
  <path id="Path_43349" data-name="Path 43349" d="M10607.061,2811.506a1.042,1.042,0,1,1-1.041,1.037A1.045,1.045,0,0,1,10607.061,2811.506Z" transform="translate(-10528.334 -2754.518)" fill="#14152e"/>
  <path id="Path_43350" data-name="Path 43350" d="M10604.269,2799.079a1.043,1.043,0,1,1-1.041,1.038A1.046,1.046,0,0,1,10604.269,2799.079Z" transform="translate(-10523.434 -2751.483)" fill="#14152e"/>
  <path id="Path_43351" data-name="Path 43351" d="M10615.748,2807.506a1.042,1.042,0,1,1-1.041,1.037A1.045,1.045,0,0,1,10615.748,2807.506Z" transform="translate(-10543.588 -2753.541)" fill="#14152e"/>
  <path id="Path_43352" data-name="Path 43352" d="M10689.887,2824.222a1.043,1.043,0,1,1-1.042,1.038A1.047,1.047,0,0,1,10689.887,2824.222Z" transform="translate(-10673.76 -2757.623)" fill="#14152e"/>
  <path id="Path_43353" data-name="Path 43353" d="M10692.773,2819.932a1.042,1.042,0,1,1-1.042,1.037A1.044,1.044,0,0,1,10692.773,2819.932Z" transform="translate(-10678.828 -2756.576)" fill="#14152e"/>
  <path id="Path_43354" data-name="Path 43354" d="M10698.465,2819.932a1.042,1.042,0,1,1-1.041,1.037A1.046,1.046,0,0,1,10698.465,2819.932Z" transform="translate(-10688.821 -2756.576)" fill="#14152e"/>
  <path id="Path_43355" data-name="Path 43355" d="M10638.512,2815.8a1.042,1.042,0,1,1-1.041,1.037A1.046,1.046,0,0,1,10638.512,2815.8Z" transform="translate(-10583.556 -2755.566)" fill="#14152e"/>
  <path id="Path_43356" data-name="Path 43356" d="M10686.985,2819.932a1.042,1.042,0,1,1-1.041,1.037A1.046,1.046,0,0,1,10686.985,2819.932Z" transform="translate(-10668.667 -2756.576)" fill="#14152e"/>
  <path id="Path_43357" data-name="Path 43357" d="M10684.2,2824.222a1.043,1.043,0,1,1-1.041,1.038A1.046,1.046,0,0,1,10684.2,2824.222Z" transform="translate(-10663.771 -2757.623)" fill="#14152e"/>
  <path id="Path_43358" data-name="Path 43358" d="M10681.295,2819.932a1.042,1.042,0,1,1-1.042,1.037A1.047,1.047,0,0,1,10681.295,2819.932Z" transform="translate(-10658.675 -2756.576)" fill="#14152e"/>
  <path id="Path_43359" data-name="Path 43359" d="M10707.055,2815.8a1.042,1.042,0,1,1-1.041,1.037A1.047,1.047,0,0,1,10707.055,2815.8Z" transform="translate(-10703.905 -2755.566)" fill="#14152e"/>
  <path id="Path_43360" data-name="Path 43360" d="M10709.846,2819.932a1.042,1.042,0,1,1-1.042,1.037A1.048,1.048,0,0,1,10709.846,2819.932Z" transform="translate(-10708.804 -2756.576)" fill="#14152e"/>
  <path id="Path_43361" data-name="Path 43361" d="M10701.365,2824.222a1.043,1.043,0,1,1-1.041,1.038A1.044,1.044,0,0,1,10701.365,2824.222Z" transform="translate(-10693.914 -2757.623)" fill="#14152e"/>
  <path id="Path_43362" data-name="Path 43362" d="M10704.153,2819.932a1.042,1.042,0,1,1-1.041,1.037A1.046,1.046,0,0,1,10704.153,2819.932Z" transform="translate(-10698.811 -2756.576)" fill="#14152e"/>
  <path id="Path_43363" data-name="Path 43363" d="M10580.1,2802.8c-.043-.039-.089-.071-.132-.112a1.511,1.511,0,0,1,.395-2.456l26.838-12.8a1.507,1.507,0,0,1,.521-.142,5.751,5.751,0,0,1,1.253.03c.018-.019.03-.041.049-.06,1.252-1.251,7.864-7.461,14.713-6.856.214.019.424.052.632.089a1.512,1.512,0,0,1,.6-1.29c3.6-2.727,9.093-6.34,15.3-6.34h.134a13.354,13.354,0,0,1,7.785,2.516,41.127,41.127,0,0,0,10.279-9.586c.779-1.111,1.508-2.2,2.184-3.24a1.511,1.511,0,0,1,2.57,1.589,34.02,34.02,0,0,1-2.241,3.332,66.067,66.067,0,0,1-5.135,6.528,45.05,45.05,0,0,1,9.933-3.236,1.511,1.511,0,0,1,1.02,2.81l-2.444,1.326a28.6,28.6,0,0,1,7.522.757,1.512,1.512,0,0,1-.468,2.978c-7.809-.615-13-.213-18.043,3.654a1.507,1.507,0,0,1-.524.248,8.52,8.52,0,0,1,.112,1.139,10.772,10.772,0,0,1-2.354,6.746,1.025,1.025,0,0,1,.206.633,1.047,1.047,0,0,1-1.058,1.022,1.03,1.03,0,0,1-.5-.141,14.516,14.516,0,0,1-1.433,1.211,1.042,1.042,0,1,1-1.281,1.008,1.129,1.129,0,0,1,.018-.164c-.314.187-.635.369-.969.537a27.212,27.212,0,0,1-7.951,2.272,1.024,1.024,0,0,1,.2.622,1.044,1.044,0,0,1-2.088-.025,1.027,1.027,0,0,1,.064-.343q-1.154.143-2.287.254a.89.89,0,0,1,.01.114,1.046,1.046,0,0,1-1.057,1.022,1.033,1.033,0,0,1-.668-.259,11.981,11.981,0,0,1-3.166.951l-2.067.379a1.045,1.045,0,1,1-1.284.235l-2.494.457a1.07,1.07,0,0,1,.025.239,1.043,1.043,0,0,1-2.073.136l-2.562.469a1.028,1.028,0,0,1-1.384.253l-9.423,1.726a1.023,1.023,0,0,1,.226.658,1.044,1.044,0,0,1-2.087-.025,1.069,1.069,0,0,1,.051-.3l-2.275.417a1.037,1.037,0,0,1-1.96.358l-5.07.929a40.238,40.238,0,0,1-7.116.778,13.885,13.885,0,0,1-7.478-1.853,1.041,1.041,0,1,1-1.564-1.189Zm71.985-23.329a1.5,1.5,0,0,1-.245.09c.011.022.024.044.036.066C10651.945,2779.576,10652.015,2779.522,10652.085,2779.471Zm-56.372,22.619,24.019-4.4c.013-.012.022-.026.036-.037.83-.7,1.3-3.785.865-4.672a1.512,1.512,0,0,1,2.716-1.328,8.321,8.321,0,0,1,.06,5.364l4.683-.858a5.986,5.986,0,0,0,2.666-.877,1.507,1.507,0,0,1,1.231-.866,65.809,65.809,0,0,0,7.259-.985,1.519,1.519,0,0,1,.105-.239,10.177,10.177,0,0,0,.839-7.942,1.511,1.511,0,1,1,2.882-.908,13.256,13.256,0,0,1-.078,8.022c.427-.166.839-.345,1.227-.54,2.9-1.463,5.79-4.529,5.709-8.083-.105-4.586-5.119-7.823-9.554-7.861h-.108c-5.2,0-10.03,3.137-13.281,5.581a8.306,8.306,0,0,1,4.14,7.327,1.511,1.511,0,0,1-1.51,1.453c-.019,0-.039,0-.059,0a1.511,1.511,0,0,1-1.452-1.568,5.346,5.346,0,0,0-4.635-5.261c-3.948-.348-8.5,2.466-11.54,5.251a10.069,10.069,0,0,1,2.937,4.887,1.512,1.512,0,1,1-2.9.87c-.379-1.264-1.487-4.122-3.747-4.13l-6.806,3.247a7.018,7.018,0,0,1,1.53,4.109,1.512,1.512,0,0,1-3.023,0,4.128,4.128,0,0,0-1.031-2.431,1.546,1.546,0,0,1-.252-.227c-.027-.032-.043-.063-.068-.094l-14.562,6.947C10587.158,2803.328,10591.449,2802.871,10595.713,2802.091Z" transform="translate(-10573.223 -2742.396)" fill="#14152e"/>
  <path id="Path_43364" data-name="Path 43364" d="M10695.675,2824.222a1.043,1.043,0,1,1-1.042,1.038A1.047,1.047,0,0,1,10695.675,2824.222Z" transform="translate(-10683.923 -2757.623)" fill="#14152e"/>
  <path id="Path_43365" data-name="Path 43365" d="M10655.741,2815.8a1.042,1.042,0,1,1-1.041,1.037A1.046,1.046,0,0,1,10655.741,2815.8Z" transform="translate(-10613.809 -2755.566)" fill="#14152e"/>
  <path id="Path_43366" data-name="Path 43366" d="M10652.842,2819.932a1.042,1.042,0,1,1-1.042,1.037A1.047,1.047,0,0,1,10652.842,2819.932Z" transform="translate(-10608.717 -2756.576)" fill="#14152e"/>
  <path id="Path_43367" data-name="Path 43367" d="M10649.893,2815.8a1.042,1.042,0,1,1-1.042,1.037A1.046,1.046,0,0,1,10649.893,2815.8Z" transform="translate(-10603.538 -2755.566)" fill="#14152e"/>
  <path id="Path_43368" data-name="Path 43368" d="M10661.434,2815.8a1.042,1.042,0,1,1-1.042,1.037A1.046,1.046,0,0,1,10661.434,2815.8Z" transform="translate(-10623.802 -2755.566)" fill="#14152e"/>
  <path id="Path_43369" data-name="Path 43369" d="M10664.223,2819.932a1.042,1.042,0,1,1-1.042,1.037A1.046,1.046,0,0,1,10664.223,2819.932Z" transform="translate(-10628.699 -2756.576)" fill="#14152e"/>
  <path id="Path_43370" data-name="Path 43370" d="M10658.533,2819.932a1.042,1.042,0,1,1-1.041,1.037A1.046,1.046,0,0,1,10658.533,2819.932Z" transform="translate(-10618.71 -2756.576)" fill="#14152e"/>
  <path id="Path_43371" data-name="Path 43371" d="M10646.992,2819.932a1.042,1.042,0,1,1-1.041,1.037A1.046,1.046,0,0,1,10646.992,2819.932Z" transform="translate(-10598.446 -2756.576)" fill="#14152e"/>
  <path id="Path_43372" data-name="Path 43372" d="M10675.605,2819.932a1.042,1.042,0,1,1-1.041,1.037A1.046,1.046,0,0,1,10675.605,2819.932Z" transform="translate(-10648.685 -2756.576)" fill="#14152e"/>
  <path id="Path_43373" data-name="Path 43373" d="M10669.914,2819.932a1.042,1.042,0,1,1-1.041,1.037A1.045,1.045,0,0,1,10669.914,2819.932Z" transform="translate(-10638.692 -2756.576)" fill="#14152e"/>
  <path id="Path_43374" data-name="Path 43374" d="M10672.814,2824.222a1.043,1.043,0,1,1-1.042,1.038A1.046,1.046,0,0,1,10672.814,2824.222Z" transform="translate(-10643.784 -2757.623)" fill="#14152e"/>
  <path id="Path_43375" data-name="Path 43375" d="M10678.506,2824.222a1.043,1.043,0,1,1-1.041,1.038A1.047,1.047,0,0,1,10678.506,2824.222Z" transform="translate(-10653.777 -2757.623)" fill="#14152e"/>
  <path id="Path_43376" data-name="Path 43376" d="M10644.2,2815.8a1.042,1.042,0,1,1-1.041,1.037A1.046,1.046,0,0,1,10644.2,2815.8Z" transform="translate(-10593.545 -2755.566)" fill="#14152e"/>
  <path id="Path_43377" data-name="Path 43377" d="M10450.445,2789.219a1.042,1.042,0,1,1-1.047,1.062A1.044,1.044,0,0,1,10450.445,2789.219Z" transform="translate(-10253.339 -2749.076)" fill="#14152e"/>
  <path id="Path_43378" data-name="Path 43378" d="M10453.233,2793.509a1.042,1.042,0,1,1-1.047,1.062A1.045,1.045,0,0,1,10453.233,2793.509Z" transform="translate(-10258.236 -2750.123)" fill="#14152e"/>
  <path id="Path_43379" data-name="Path 43379" d="M10450.445,2797.509a1.042,1.042,0,1,1-1.047,1.062A1.044,1.044,0,0,1,10450.445,2797.509Z" transform="translate(-10253.339 -2751.1)" fill="#14152e"/>
  <path id="Path_43380" data-name="Path 43380" d="M10447.542,2793.509a1.042,1.042,0,1,1-1.047,1.062A1.045,1.045,0,0,1,10447.542,2793.509Z" transform="translate(-10248.243 -2750.123)" fill="#14152e"/>
  <path id="Path_43381" data-name="Path 43381" d="M10410.51,2797.509a1.042,1.042,0,1,1-1.046,1.062A1.044,1.044,0,0,1,10410.51,2797.509Z" transform="translate(-10183.224 -2751.1)" fill="#14152e"/>
  <path id="Path_43382" data-name="Path 43382" d="M10444.658,2797.509a1.042,1.042,0,1,1-1.047,1.062A1.044,1.044,0,0,1,10444.658,2797.509Z" transform="translate(-10243.179 -2751.1)" fill="#14152e"/>
  <path id="Path_43383" data-name="Path 43383" d="M10456.134,2789.219a1.042,1.042,0,1,1-1.047,1.062A1.045,1.045,0,0,1,10456.134,2789.219Z" transform="translate(-10263.328 -2749.076)" fill="#14152e"/>
  <path id="Path_43384" data-name="Path 43384" d="M10458.926,2793.509a1.042,1.042,0,1,1-1.047,1.062A1.045,1.045,0,0,1,10458.926,2793.509Z" transform="translate(-10268.229 -2750.123)" fill="#14152e"/>
  <path id="Path_43385" data-name="Path 43385" d="M10416.2,2797.509a1.042,1.042,0,1,1-1.047,1.062A1.044,1.044,0,0,1,10416.2,2797.509Z" transform="translate(-10193.217 -2751.1)" fill="#14152e"/>
  <path id="Path_43386" data-name="Path 43386" d="M10418.994,2801.8a1.042,1.042,0,1,1-1.047,1.062A1.045,1.045,0,0,1,10418.994,2801.8Z" transform="translate(-10198.117 -2752.147)" fill="#14152e"/>
  <path id="Path_43387" data-name="Path 43387" d="M10421.895,2797.509a1.042,1.042,0,1,1-1.048,1.062A1.044,1.044,0,0,1,10421.895,2797.509Z" transform="translate(-10203.21 -2751.1)" fill="#14152e"/>
  <path id="Path_43388" data-name="Path 43388" d="M10424.684,2801.8a1.042,1.042,0,1,1-1.047,1.062A1.045,1.045,0,0,1,10424.684,2801.8Z" transform="translate(-10208.108 -2752.147)" fill="#14152e"/>
  <path id="Path_43389" data-name="Path 43389" d="M10441.754,2793.509a1.042,1.042,0,1,1-1.046,1.062A1.045,1.045,0,0,1,10441.754,2793.509Z" transform="translate(-10238.082 -2750.123)" fill="#14152e"/>
  <path id="Path_43390" data-name="Path 43390" d="M10410.51,2805.935a1.043,1.043,0,1,1-1.046,1.063A1.045,1.045,0,0,1,10410.51,2805.935Z" transform="translate(-10183.224 -2753.158)" fill="#14152e"/>
  <path id="Path_43391" data-name="Path 43391" d="M10433.274,2797.509a1.042,1.042,0,1,1-1.047,1.062A1.044,1.044,0,0,1,10433.274,2797.509Z" transform="translate(-10223.192 -2751.1)" fill="#14152e"/>
  <path id="Path_43392" data-name="Path 43392" d="M10427.586,2797.509a1.042,1.042,0,1,1-1.047,1.062A1.044,1.044,0,0,1,10427.586,2797.509Z" transform="translate(-10213.203 -2751.1)" fill="#14152e"/>
  <path id="Path_43393" data-name="Path 43393" d="M10438.967,2797.509a1.042,1.042,0,1,1-1.047,1.062A1.045,1.045,0,0,1,10438.967,2797.509Z" transform="translate(-10233.186 -2751.1)" fill="#14152e"/>
  <path id="Path_43394" data-name="Path 43394" d="M10430.374,2801.8a1.042,1.042,0,1,1-1.046,1.062A1.045,1.045,0,0,1,10430.374,2801.8Z" transform="translate(-10218.1 -2752.147)" fill="#14152e"/>
  <path id="Path_43395" data-name="Path 43395" d="M10353.349,2797.678a1.043,1.043,0,1,1-1.047,1.063A1.045,1.045,0,0,1,10353.349,2797.678Z" transform="translate(-10082.858 -2751.141)" fill="#14152e"/>
  <path id="Path_43396" data-name="Path 43396" d="M10370.517,2805.935a1.043,1.043,0,1,1-1.047,1.063A1.044,1.044,0,0,1,10370.517,2805.935Z" transform="translate(-10113.002 -2753.158)" fill="#14152e"/>
  <path id="Path_43397" data-name="Path 43397" d="M10373.309,2801.767a1.042,1.042,0,1,1-1.047,1.062A1.044,1.044,0,0,1,10373.309,2801.767Z" transform="translate(-10117.902 -2752.14)" fill="#14152e"/>
  <path id="Path_43398" data-name="Path 43398" d="M10376.209,2805.935a1.043,1.043,0,1,1-1.047,1.063A1.045,1.045,0,0,1,10376.209,2805.935Z" transform="translate(-10122.995 -2753.158)" fill="#14152e"/>
  <path id="Path_43399" data-name="Path 43399" d="M10407.61,2801.8a1.042,1.042,0,1,1-1.047,1.062A1.045,1.045,0,0,1,10407.61,2801.8Z" transform="translate(-10178.131 -2752.147)" fill="#14152e"/>
  <path id="Path_43400" data-name="Path 43400" d="M10367.615,2801.767a1.042,1.042,0,1,1-1.046,1.062A1.045,1.045,0,0,1,10367.615,2801.767Z" transform="translate(-10107.909 -2752.14)" fill="#14152e"/>
  <path id="Path_43401" data-name="Path 43401" d="M10350.449,2801.8a1.042,1.042,0,1,1-1.047,1.062A1.045,1.045,0,0,1,10350.449,2801.8Z" transform="translate(-10077.767 -2752.147)" fill="#14152e"/>
  <path id="Path_43402" data-name="Path 43402" d="M10413.3,2801.8a1.042,1.042,0,1,1-1.047,1.062A1.045,1.045,0,0,1,10413.3,2801.8Z" transform="translate(-10188.124 -2752.147)" fill="#14152e"/>
  <path id="Path_43403" data-name="Path 43403" d="M10356.139,2801.8a1.042,1.042,0,1,1-1.047,1.062A1.045,1.045,0,0,1,10356.139,2801.8Z" transform="translate(-10087.758 -2752.147)" fill="#14152e"/>
  <path id="Path_43404" data-name="Path 43404" d="M10361.829,2801.8a1.042,1.042,0,1,1-1.046,1.062A1.044,1.044,0,0,1,10361.829,2801.8Z" transform="translate(-10097.749 -2752.147)" fill="#14152e"/>
  <path id="Path_43405" data-name="Path 43405" d="M10379,2801.8a1.042,1.042,0,1,1-1.046,1.062A1.044,1.044,0,0,1,10379,2801.8Z" transform="translate(-10127.892 -2752.147)" fill="#14152e"/>
  <path id="Path_43406" data-name="Path 43406" d="M10398.969,2805.935a1.043,1.043,0,1,1-1.046,1.063A1.045,1.045,0,0,1,10398.969,2805.935Z" transform="translate(-10162.96 -2753.158)" fill="#14152e"/>
  <path id="Path_43407" data-name="Path 43407" d="M10396.069,2801.8a1.042,1.042,0,1,1-1.047,1.062A1.045,1.045,0,0,1,10396.069,2801.8Z" transform="translate(-10157.867 -2752.147)" fill="#14152e"/>
  <path id="Path_43408" data-name="Path 43408" d="M10401.762,2801.8a1.042,1.042,0,1,1-1.047,1.062A1.045,1.045,0,0,1,10401.762,2801.8Z" transform="translate(-10167.86 -2752.147)" fill="#14152e"/>
  <path id="Path_43409" data-name="Path 43409" d="M10404.661,2805.935a1.043,1.043,0,1,1-1.047,1.063A1.045,1.045,0,0,1,10404.661,2805.935Z" transform="translate(-10172.953 -2753.158)" fill="#14152e"/>
  <path id="Path_43410" data-name="Path 43410" d="M10393.28,2805.935a1.043,1.043,0,1,1-1.047,1.063A1.044,1.044,0,0,1,10393.28,2805.935Z" transform="translate(-10152.971 -2753.158)" fill="#14152e"/>
  <path id="Path_43411" data-name="Path 43411" d="M10384.688,2801.8a1.042,1.042,0,1,1-1.047,1.062A1.045,1.045,0,0,1,10384.688,2801.8Z" transform="translate(-10137.885 -2752.147)" fill="#14152e"/>
  <path id="Path_43412" data-name="Path 43412" d="M10387.588,2805.935a1.043,1.043,0,1,1-1.046,1.063A1.045,1.045,0,0,1,10387.588,2805.935Z" transform="translate(-10142.978 -2753.158)" fill="#14152e"/>
  <path id="Path_43413" data-name="Path 43413" d="M10390.381,2801.8a1.042,1.042,0,1,1-1.047,1.062A1.045,1.045,0,0,1,10390.381,2801.8Z" transform="translate(-10147.878 -2752.147)" fill="#14152e"/>
  <path id="Path_43414" data-name="Path 43414" d="M10381.9,2805.935a1.043,1.043,0,1,1-1.047,1.063A1.046,1.046,0,0,1,10381.9,2805.935Z" transform="translate(-10132.986 -2753.158)" fill="#14152e"/>
  <path id="Path_43415" data-name="Path 43415" d="M10577.76,2838.267a1.042,1.042,0,1,1-1.041,1.037A1.045,1.045,0,0,1,10577.76,2838.267Z" transform="translate(-10476.888 -2761.053)" fill="#14152e"/>
  <path id="Path_43416" data-name="Path 43416" d="M10546.4,2842.4a1.042,1.042,0,1,1-1.041,1.037A1.046,1.046,0,0,1,10546.4,2842.4Z" transform="translate(-10421.834 -2762.063)" fill="#14152e"/>
  <path id="Path_43417" data-name="Path 43417" d="M10543.615,2838.267a1.042,1.042,0,1,1-1.041,1.037A1.045,1.045,0,0,1,10543.615,2838.267Z" transform="translate(-10416.937 -2761.053)" fill="#14152e"/>
  <path id="Path_43418" data-name="Path 43418" d="M10552.1,2842.4a1.042,1.042,0,1,1-1.041,1.037A1.046,1.046,0,0,1,10552.1,2842.4Z" transform="translate(-10431.827 -2762.063)" fill="#14152e"/>
  <path id="Path_43419" data-name="Path 43419" d="M10557.787,2842.4a1.042,1.042,0,1,1-1.041,1.037A1.045,1.045,0,0,1,10557.787,2842.4Z" transform="translate(-10441.82 -2762.063)" fill="#14152e"/>
  <path id="Path_43420" data-name="Path 43420" d="M10537.925,2838.267a1.042,1.042,0,1,1-1.042,1.037A1.046,1.046,0,0,1,10537.925,2838.267Z" transform="translate(-10406.945 -2761.053)" fill="#14152e"/>
  <path id="Path_43421" data-name="Path 43421" d="M10540.713,2842.4a1.042,1.042,0,1,1-1.042,1.037A1.046,1.046,0,0,1,10540.713,2842.4Z" transform="translate(-10411.841 -2762.063)" fill="#14152e"/>
  <path id="Path_43422" data-name="Path 43422" d="M10569.168,2842.4a1.042,1.042,0,1,1-1.041,1.037A1.045,1.045,0,0,1,10569.168,2842.4Z" transform="translate(-10461.803 -2762.063)" fill="#14152e"/>
  <path id="Path_43423" data-name="Path 43423" d="M10580.55,2833.976a1.043,1.043,0,1,1-1.042,1.038A1.047,1.047,0,0,1,10580.55,2833.976Z" transform="translate(-10481.786 -2760.005)" fill="#14152e"/>
  <path id="Path_43424" data-name="Path 43424" d="M10563.477,2842.4a1.042,1.042,0,1,1-1.042,1.037A1.046,1.046,0,0,1,10563.477,2842.4Z" transform="translate(-10451.81 -2762.063)" fill="#14152e"/>
  <path id="Path_43425" data-name="Path 43425" d="M10535.023,2833.976a1.043,1.043,0,1,1-1.041,1.038A1.046,1.046,0,0,1,10535.023,2833.976Z" transform="translate(-10401.852 -2760.005)" fill="#14152e"/>
  <path id="Path_43426" data-name="Path 43426" d="M10572.068,2838.267a1.042,1.042,0,1,1-1.042,1.037A1.045,1.045,0,0,1,10572.068,2838.267Z" transform="translate(-10466.895 -2761.053)" fill="#14152e"/>
  <path id="Path_43427" data-name="Path 43427" d="M10524.761,2821.36a1.029,1.029,0,0,1,.407.083,12.6,12.6,0,0,1-4.449-6.646c-.707-2.978-2.576-13.2,3.029-19.775,3.2-3.755,8.131-5.407,14.65-4.922,10.508.781,12.464-6.312,12.547-6.635a1.511,1.511,0,0,1,2.937.716c-.024.1-2.53,9.924-15.71,8.934-5.5-.416-9.582.891-12.123,3.87-3.721,4.36-3.673,11.7-2.389,17.114.76,3.2,4.074,6.248,8.65,7.948,5.609,2.081,11.668,1.668,15.433-1.058,7.644-5.536,5.422-18.777,5.4-18.91a1.521,1.521,0,0,1,.242-1.117,10.277,10.277,0,0,1,7.635-4.124c-1.454-.692-3.512-.943-6.23.343a1.512,1.512,0,0,1-1.645-2.5,41.876,41.876,0,0,0,3.021-2.969c-1.558.924-3.362,2.075-4.968,3.171a1.512,1.512,0,1,1-1.7-2.5c9.66-6.594,10.662-5.78,11.473-5.127a1.84,1.84,0,0,1,.456,2.255,14.781,14.781,0,0,1-2.565,3.734,9.291,9.291,0,0,1,7.555,4.635,1.512,1.512,0,0,1-1.662,2.206c-3.885-.893-7.026.422-8.527,2.142.32,2.384,1.043,10.412-2.59,16.626a1.022,1.022,0,0,1,.092.442,1.047,1.047,0,0,1-1.058,1.023h0a14.709,14.709,0,0,1-1.254,1.471,1.024,1.024,0,0,1,.205.633,1.04,1.04,0,0,1-1.749.744c-.116.09-.229.184-.35.271a14.955,14.955,0,0,1-4.4,2.15c0,.026.008.051.008.077a1.043,1.043,0,0,1-2,.4,19.634,19.634,0,0,1-2.6.3,1.034,1.034,0,0,1-1.468.023,22.574,22.574,0,0,1-2.69-.214,1.037,1.037,0,0,1-.9.508,1.047,1.047,0,0,1-1.014-.859c-.783-.177-1.568-.4-2.35-.656a1.016,1.016,0,0,1,.119.493,1.044,1.044,0,1,1-1.451-.98,21.169,21.169,0,0,1-5.158-2.889,1.023,1.023,0,0,1,.2.627,1.044,1.044,0,1,1-1.046-1.063Z" transform="translate(-10421.696 -2747.389)" fill="#14152e"/>
  <path id="Path_43428" data-name="Path 43428" d="M10512.26,2833.976a1.043,1.043,0,1,1-1.042,1.038A1.047,1.047,0,0,1,10512.26,2833.976Z" transform="translate(-10361.883 -2760.005)" fill="#14152e"/>
  <path id="Path_43429" data-name="Path 43429" d="M10583.45,2838.267a1.042,1.042,0,1,1-1.041,1.037A1.044,1.044,0,0,1,10583.45,2838.267Z" transform="translate(-10486.879 -2761.053)" fill="#14152e"/>
  <path id="Path_43430" data-name="Path 43430" d="M10520.852,2829.84a1.043,1.043,0,1,1-1.042,1.038A1.046,1.046,0,0,1,10520.852,2829.84Z" transform="translate(-10376.969 -2758.995)" fill="#14152e"/>
  <path id="Path_43431" data-name="Path 43431" d="M10526.543,2838.267a1.042,1.042,0,1,1-1.041,1.037A1.045,1.045,0,0,1,10526.543,2838.267Z" transform="translate(-10386.962 -2761.053)" fill="#14152e"/>
  <path id="Path_43432" data-name="Path 43432" d="M10520.852,2838.267a1.042,1.042,0,1,1-1.042,1.037A1.046,1.046,0,0,1,10520.852,2838.267Z" transform="translate(-10376.969 -2761.053)" fill="#14152e"/>
  <path id="Path_43433" data-name="Path 43433" d="M10523.641,2833.976a1.043,1.043,0,1,1-1.041,1.038A1.047,1.047,0,0,1,10523.641,2833.976Z" transform="translate(-10381.867 -2760.005)" fill="#14152e"/>
  <path id="Path_43434" data-name="Path 43434" d="M10515.159,2838.267a1.042,1.042,0,1,1-1.041,1.037A1.045,1.045,0,0,1,10515.159,2838.267Z" transform="translate(-10366.976 -2761.053)" fill="#14152e"/>
  <path id="Path_43435" data-name="Path 43435" d="M10535.023,2842.4a1.042,1.042,0,1,1-1.041,1.037A1.045,1.045,0,0,1,10535.023,2842.4Z" transform="translate(-10401.852 -2762.063)" fill="#14152e"/>
  <path id="Path_43436" data-name="Path 43436" d="M10517.951,2833.976a1.043,1.043,0,1,1-1.041,1.038A1.046,1.046,0,0,1,10517.951,2833.976Z" transform="translate(-10371.876 -2760.005)" fill="#14152e"/>
  <path id="Path_43437" data-name="Path 43437" d="M10532.232,2829.84a1.043,1.043,0,1,1-1.042,1.038A1.046,1.046,0,0,1,10532.232,2829.84Z" transform="translate(-10396.951 -2758.995)" fill="#14152e"/>
  <path id="Path_43438" data-name="Path 43438" d="M10526.543,2829.84a1.043,1.043,0,1,1-1.041,1.038A1.045,1.045,0,0,1,10526.543,2829.84Z" transform="translate(-10386.962 -2758.995)" fill="#14152e"/>
  <path id="Path_43439" data-name="Path 43439" d="M10532.232,2838.267a1.042,1.042,0,1,1-1.042,1.037A1.045,1.045,0,0,1,10532.232,2838.267Z" transform="translate(-10396.951 -2761.053)" fill="#14152e"/>
  <path id="Path_43440" data-name="Path 43440" d="M10529.332,2842.4a1.042,1.042,0,1,1-1.042,1.037A1.046,1.046,0,0,1,10529.332,2842.4Z" transform="translate(-10391.858 -2762.063)" fill="#14152e"/>
  <path id="Path_43441" data-name="Path 43441" d="M10529.332,2833.976a1.043,1.043,0,1,1-1.042,1.038A1.047,1.047,0,0,1,10529.332,2833.976Z" transform="translate(-10391.858 -2760.005)" fill="#14152e"/>
  <path id="Path_43442" data-name="Path 43442" d="M10323.877,2781.325a1.043,1.043,0,1,1-1.041,1.038A1.047,1.047,0,0,1,10323.877,2781.325Z" transform="translate(-10031.121 -2747.148)" fill="#14152e"/>
  <path id="Path_43443" data-name="Path 43443" d="M10321.085,2777.189a1.043,1.043,0,1,1-1.041,1.038A1.047,1.047,0,0,1,10321.085,2777.189Z" transform="translate(-10026.221 -2746.138)" fill="#14152e"/>
  <path id="Path_43444" data-name="Path 43444" d="M10329.568,2789.752a1.042,1.042,0,1,1-1.041,1.037A1.045,1.045,0,0,1,10329.568,2789.752Z" transform="translate(-10041.114 -2749.206)" fill="#14152e"/>
  <path id="Path_43445" data-name="Path 43445" d="M10326.777,2785.615a1.043,1.043,0,1,1-1.042,1.038A1.047,1.047,0,0,1,10326.777,2785.615Z" transform="translate(-10036.214 -2748.196)" fill="#14152e"/>
  <path id="Path_43446" data-name="Path 43446" d="M10321.085,2785.615a1.043,1.043,0,1,1-1.041,1.038A1.047,1.047,0,0,1,10321.085,2785.615Z" transform="translate(-10026.221 -2748.196)" fill="#14152e"/>
  <path id="Path_43447" data-name="Path 43447" d="M10312.5,2781.325a1.043,1.043,0,1,1-1.041,1.038A1.045,1.045,0,0,1,10312.5,2781.325Z" transform="translate(-10011.137 -2747.148)" fill="#14152e"/>
  <path id="Path_43448" data-name="Path 43448" d="M10315.4,2785.615a1.043,1.043,0,1,1-1.041,1.038A1.045,1.045,0,0,1,10315.4,2785.615Z" transform="translate(-10016.231 -2748.196)" fill="#14152e"/>
  <path id="Path_43449" data-name="Path 43449" d="M10318.186,2781.325a1.043,1.043,0,1,1-1.042,1.038A1.047,1.047,0,0,1,10318.186,2781.325Z" transform="translate(-10021.128 -2747.148)" fill="#14152e"/>
  <path id="Path_43450" data-name="Path 43450" d="M10353.376,2790.814a1.044,1.044,0,1,1-1.047-1.062A1.047,1.047,0,0,1,10353.376,2790.814Z" transform="translate(-10081.079 -2749.206)" fill="#14152e"/>
  <path id="Path_43451" data-name="Path 43451" d="M10359.067,2782.387a1.044,1.044,0,1,1-1.046-1.062A1.046,1.046,0,0,1,10359.067,2782.387Z" transform="translate(-10091.072 -2747.148)" fill="#14152e"/>
  <path id="Path_43452" data-name="Path 43452" d="M10361.968,2786.677a1.044,1.044,0,1,1-1.047-1.062A1.047,1.047,0,0,1,10361.968,2786.677Z" transform="translate(-10096.164 -2748.196)" fill="#14152e"/>
  <path id="Path_43453" data-name="Path 43453" d="M10356.279,2786.677a1.044,1.044,0,1,1-1.047-1.062A1.047,1.047,0,0,1,10356.279,2786.677Z" transform="translate(-10086.175 -2748.196)" fill="#14152e"/>
  <path id="Path_43454" data-name="Path 43454" d="M10336.307,2774.562a1.042,1.042,0,0,1,.686-.969,14.964,14.964,0,0,1-5.449-3.366,16.174,16.174,0,0,1-3.333-4.75,16.8,16.8,0,0,1-1.167-10.493,2.812,2.812,0,0,1-.73-.29.964.964,0,0,0-.685-.121,2.3,2.3,0,0,1-2.516-1.5,2.241,2.241,0,0,1,.793-2.363,14.588,14.588,0,0,1,3.233-2.119c.419-.223.825-.44,1.209-.667l-1.62-3.617a2.164,2.164,0,0,1-.172-1.469,2.133,2.133,0,0,1,.948-1.219,7.114,7.114,0,0,1,2.34-.989,1.511,1.511,0,0,1,1.811,1.162,3.415,3.415,0,0,0,.656,1.377c.4-.847.753-1.715,1.088-2.546l.036-.09c1.424-3.566,1.884-4.056,2.6-4.324a1.673,1.673,0,0,1,1.551.2c.907.642.93,1.825.891,3.861,0,.141-.006.274-.008.391l5.733-2.2a1.514,1.514,0,0,1,2.031,1.152,5.918,5.918,0,0,1-.525,3.583,17.012,17.012,0,0,1,11.688,12.564.207.207,0,0,1,0,.026,16.661,16.661,0,0,1-2.213,11.417,1.039,1.039,0,1,1-1.107,1.649,15.685,15.685,0,0,1-1.258,1.432,1.041,1.041,0,1,1-1.092,1.032c0-.008,0-.016,0-.023a13.29,13.29,0,0,1-2.207,1.5,14.486,14.486,0,0,1-2.758,1.12,1.026,1.026,0,0,1,.232.667,1.044,1.044,0,0,1-2.087-.025.97.97,0,0,1,.028-.227,15.784,15.784,0,0,1-2.246.2.44.44,0,0,1,0,.051,1.044,1.044,0,0,1-2.088-.025.906.906,0,0,1,.015-.127,16.06,16.06,0,0,1-2.412-.456,1.024,1.024,0,0,1,.185.608,1.044,1.044,0,0,1-2.088-.025Zm-8.738-22.625c.054-.03.117-.067.194-.114a1.467,1.467,0,0,1,.395-.163c.037-.077.067-.158.105-.234-.277.149-.557.3-.821.45C10327.486,2751.9,10327.528,2751.918,10327.568,2751.938Zm7.687-7.869-.017-.019c-.087.19-.18.382-.271.574.2-.1.4-.2.595-.3A1.5,1.5,0,0,1,10335.255,2744.068Zm6.1-1.277c.332-.02.663-.038,1-.036a2.955,2.955,0,0,0,.433-.511Zm13.073,13.576c-1.143-5.468-6.027-10.1-11.129-10.544-.068-.006-.137,0-.206-.009a1.5,1.5,0,0,1-.708-.031,13,13,0,0,0-11.816,7.878,13.547,13.547,0,0,0,.382,10.541,13.162,13.162,0,0,0,2.709,3.867,12.755,12.755,0,0,0,14.436,2.064C10352.57,2767.738,10355.409,2761.565,10354.429,2756.366Z" transform="translate(-10063.989 -2736.105)" fill="#14152e"/>
  <path id="Path_43455" data-name="Path 43455" d="M10335.259,2789.752a1.042,1.042,0,1,1-1.042,1.037A1.047,1.047,0,0,1,10335.259,2789.752Z" transform="translate(-10051.105 -2749.206)" fill="#14152e"/>
  <path id="Path_43456" data-name="Path 43456" d="M10346.641,2789.752a1.042,1.042,0,1,1-1.041,1.037A1.046,1.046,0,0,1,10346.641,2789.752Z" transform="translate(-10071.09 -2749.206)" fill="#14152e"/>
  <path id="Path_43457" data-name="Path 43457" d="M10332.469,2785.615a1.043,1.043,0,1,1-1.041,1.038A1.046,1.046,0,0,1,10332.469,2785.615Z" transform="translate(-10046.207 -2748.196)" fill="#14152e"/>
  <path id="Path_43458" data-name="Path 43458" d="M10340.949,2789.752a1.042,1.042,0,1,1-1.041,1.037A1.045,1.045,0,0,1,10340.949,2789.752Z" transform="translate(-10061.097 -2749.206)" fill="#14152e"/>
</svg>
