<svg xmlns="http://www.w3.org/2000/svg" width="618" height="245" viewBox="0 0 618 245">
  <g id="Group_825" data-name="Group 825" transform="translate(-279 -2819.5)">
    <text id="All" transform="translate(279 2992.5)" fill="#d9cbb4" font-size="177" font-family="Lumios-Marker, Lumios Marker"><tspan x="0" y="0">All</tspan></text>
    <text id="In" transform="translate(502 2992.5)" fill="#d9cbb4" font-size="177" font-family="Lumios-Marker, Lumios Marker"><tspan x="0" y="0">In</tspan></text>
    <path id="Path_33835" data-name="Path 33835" d="M24.6-30.444c3.363-1.062,10.62-1.947,21.417-2.655q16.461-1.062,23.895-1.062c1.062,0,1.239-1.062.708-3.186-.885-3.009-2.124-4.6-4.071-4.956-2.655-.531-15.576-.177-38.763.708A3.624,3.624,0,0,0,25.134-40a9.88,9.88,0,0,0-2.124,7.965Q23.276-30.179,24.6-30.444Z" transform="translate(444 2978.053)" fill="#d9cbb4"/>
    <text id="One" transform="translate(695 2992.5)" fill="#d9cbb4" font-size="177" font-family="Lumios-Marker, Lumios Marker"><tspan x="0" y="0">One</tspan></text>
    <path id="Path_33836" data-name="Path 33836" d="M24.6-30.444c3.363-1.062,10.62-1.947,21.417-2.655q16.461-1.062,23.895-1.062c1.062,0,1.239-1.062.708-3.186-.885-3.009-2.124-4.6-4.071-4.956-2.655-.531-15.576-.177-38.763.708A3.624,3.624,0,0,0,25.134-40a9.88,9.88,0,0,0-2.124,7.965Q23.276-30.179,24.6-30.444Z" transform="translate(620 2978.053)" fill="#d9cbb4"/>
  </g>
</svg>
