<svg id="Group_592" data-name="Group 592" xmlns="http://www.w3.org/2000/svg" width="203.135" height="83.05" viewBox="0 0 203.135 83.05">
  <path id="Path_42209" data-name="Path 42209" d="M5077.384-1862.994a34.6,34.6,0,0,0-16.365,4.091,34.594,34.594,0,0,0-16.364-4.091,34.6,34.6,0,0,0-16.364,4.091,34.6,34.6,0,0,0-16.364-4.091,34.6,34.6,0,0,0-16.365,4.091,34.592,34.592,0,0,0-16.363-4.091,34.6,34.6,0,0,0-16.365,4.091,34.593,34.593,0,0,0-16.363-4.091,34.758,34.758,0,0,0-34.758,34.758,34.759,34.759,0,0,0,34.758,34.759,34.592,34.592,0,0,0,16.363-4.091,34.6,34.6,0,0,0,16.365,4.091,34.591,34.591,0,0,0,16.363-4.091,34.6,34.6,0,0,0,16.365,4.091,34.594,34.594,0,0,0,16.364-4.091,34.594,34.594,0,0,0,16.364,4.091,34.593,34.593,0,0,0,16.364-4.091,34.6,34.6,0,0,0,16.365,4.091,34.759,34.759,0,0,0,34.758-34.759A34.758,34.758,0,0,0,5077.384-1862.994Z" transform="translate(-4910.359 1862.994)" fill="#d0742d"/>
  <path id="Path_42210" data-name="Path 42210" d="M4946.825-1863.994a36.187,36.187,0,0,1,8.9,1.109,35.946,35.946,0,0,1,7.459,2.809,35.938,35.938,0,0,1,7.458-2.809,36.2,36.2,0,0,1,8.906-1.109,36.2,36.2,0,0,1,8.905,1.109,35.948,35.948,0,0,1,7.458,2.809,35.967,35.967,0,0,1,7.459-2.809,36.2,36.2,0,0,1,8.906-1.109,36.2,36.2,0,0,1,8.906,1.109,35.965,35.965,0,0,1,7.458,2.809,35.977,35.977,0,0,1,7.459-2.809,36.2,36.2,0,0,1,8.905-1.109,36.188,36.188,0,0,1,8.905,1.109,35.961,35.961,0,0,1,7.459,2.809,35.952,35.952,0,0,1,7.458-2.809,36.2,36.2,0,0,1,8.905-1.109,35.892,35.892,0,0,1,14.057,2.838,36,36,0,0,1,11.479,7.738,36.011,36.011,0,0,1,7.738,11.478,35.886,35.886,0,0,1,2.838,14.056,35.89,35.89,0,0,1-2.838,14.057,36.015,36.015,0,0,1-7.738,11.478,36,36,0,0,1-11.479,7.739,35.892,35.892,0,0,1-14.057,2.839,36.194,36.194,0,0,1-8.905-1.109,35.952,35.952,0,0,1-7.458-2.809,35.96,35.96,0,0,1-7.459,2.809,36.182,36.182,0,0,1-8.905,1.109,36.194,36.194,0,0,1-8.905-1.109,35.977,35.977,0,0,1-7.459-2.809,35.965,35.965,0,0,1-7.458,2.809,36.2,36.2,0,0,1-8.906,1.109,36.193,36.193,0,0,1-8.906-1.109,35.967,35.967,0,0,1-7.459-2.809,35.948,35.948,0,0,1-7.458,2.809,36.191,36.191,0,0,1-8.905,1.109,36.2,36.2,0,0,1-8.906-1.109,35.938,35.938,0,0,1-7.458-2.809,35.946,35.946,0,0,1-7.459,2.809,36.187,36.187,0,0,1-8.9,1.109,35.885,35.885,0,0,1-14.056-2.839,35.986,35.986,0,0,1-11.478-7.739,35.982,35.982,0,0,1-7.738-11.478,35.879,35.879,0,0,1-2.838-14.057,35.878,35.878,0,0,1,2.838-14.056,35.979,35.979,0,0,1,7.738-11.478,35.988,35.988,0,0,1,11.478-7.738A35.884,35.884,0,0,1,4946.825-1863.994Zm16.364,6.979-.639-.341a33.452,33.452,0,0,0-15.725-3.931,33.442,33.442,0,0,0-33.4,33.4,33.442,33.442,0,0,0,33.4,33.405,33.453,33.453,0,0,0,15.725-3.931l.639-.341.638.341a33.456,33.456,0,0,0,15.726,3.931,33.447,33.447,0,0,0,15.725-3.931l.639-.341.639.341a33.459,33.459,0,0,0,15.727,3.931,33.449,33.449,0,0,0,15.725-3.931l.638-.341.638.341a33.459,33.459,0,0,0,15.726,3.931,33.453,33.453,0,0,0,15.726-3.931l.639-.341.637.341a33.465,33.465,0,0,0,15.727,3.931,33.444,33.444,0,0,0,33.405-33.405,33.443,33.443,0,0,0-33.405-33.4,33.464,33.464,0,0,0-15.727,3.931l-.637.341-.639-.341a33.453,33.453,0,0,0-15.726-3.931,33.457,33.457,0,0,0-15.726,3.931l-.638.341-.638-.341a33.451,33.451,0,0,0-15.725-3.931,33.458,33.458,0,0,0-15.727,3.931l-.639.341-.639-.341a33.449,33.449,0,0,0-15.725-3.931,33.454,33.454,0,0,0-15.726,3.931Z" transform="translate(-4910.714 1874.821)" fill="#d0742d"/>
</svg>
