<svg xmlns="http://www.w3.org/2000/svg" xmlns:xlink="http://www.w3.org/1999/xlink" width="188.12" height="270.536" viewBox="0 0 188.12 270.536">
  <defs>
    <clipPath id="clip-path">
      <rect id="Rectangle_1877" data-name="Rectangle 1877" width="179" height="264.45" transform="translate(1221 1476)" fill="#fff"/>
    </clipPath>
  </defs>
  <g id="gs-character" transform="matrix(0.999, -0.035, 0.035, 0.999, -1271.768, -1426.241)" clip-path="url(#clip-path)">
    <g id="Group_4498" data-name="Group 4498" transform="translate(-4386.088 416.151)">
      <path id="Path_56931" data-name="Path 56931" d="M5833.751,1257.84a.844.844,0,0,0,.088-1.684,4.25,4.25,0,0,1-3.955-3.559.888.888,0,0,1,.111-.508c.106-.057.212-.12.318-.189l.035-.005c3.369-.439,5.207-1,6.147-1.864a.845.845,0,0,0-1.146-1.241,7.892,7.892,0,0,1-3.293,1.137,5.548,5.548,0,0,0,.47-1.581,38.888,38.888,0,0,1,7.342-.588c.1,2.694,1.083,4.618,2.688,5.2a2.782,2.782,0,0,0,.962.172,4.337,4.337,0,0,0,3.219-1.853,6.273,6.273,0,0,0,1.211-4.7,6.7,6.7,0,0,0-2.047-4.372,3.187,3.187,0,0,0-3.367-.321,4.968,4.968,0,0,0-2.6,4.177,40.25,40.25,0,0,0-7.364.56,8.108,8.108,0,0,0-1.273-3.758,2.6,2.6,0,0,0-3.025-1c-1.566.506-3.125,2.434-3.078,5.6.038,2.513.892,4.283,2.343,4.854a2.6,2.6,0,0,0,.67.155c0,.049-.009.094-.009.144.026,2.232,2.123,4.863,5.464,5.219A.851.851,0,0,0,5833.751,1257.84Z" transform="translate(-110.986 -90.646)" fill="#0e1123"/>
      <path id="Path_56932" data-name="Path 56932" d="M5862.813,1282.376a12.29,12.29,0,0,1-9.685,1.127.861.861,0,1,0-.5,1.647,13.94,13.94,0,0,0,2.858.553c.188.575.354,1.2.516,1.8.54,2.026,1.05,3.94,2.471,4.7a2.6,2.6,0,0,0,1.235.3,3.671,3.671,0,0,0,1.2-.218c3.62-1.25,3.292-8.432,3.243-9.247a.861.861,0,0,0-1.336-.665Z" transform="translate(-126.486 -114.15)" fill="#0e1123"/>
      <path id="Path_56933" data-name="Path 56933" d="M5903.028,1241.137a.845.845,0,0,0,1.524.467,1.5,1.5,0,0,1,1.468-.555,2.941,2.941,0,0,1,2.257,1.692,2.134,2.134,0,0,1-.475,2.232,2.517,2.517,0,0,1-2.842.936.844.844,0,0,0-.622,1.57,3.78,3.78,0,0,0,1.369.24,4.307,4.307,0,0,0,3.407-1.682,3.8,3.8,0,0,0,.73-3.924,4.659,4.659,0,0,0-3.61-2.74,3.453,3.453,0,0,0-1.642.17c-.29-2.655-1.229-8.242-4.2-12.713a.844.844,0,1,0-1.406.935C5902.678,1233.324,5903.025,1241.06,5903.028,1241.137Z" transform="translate(-153.543 -81.922)" fill="#0e1123"/>
      <path id="Path_56934" data-name="Path 56934" d="M5820.075,1215.746a5.279,5.279,0,0,0-.034-3.078,4.913,4.913,0,0,0-3.537-3.366,4.078,4.078,0,0,0-2.051.1,81.085,81.085,0,0,0-17.009-11.655c-1.412-.758-2.765-1.523-4.072-2.294a3.637,3.637,0,0,0-1.184-4.918c-3.679-2.3-5.71-.586-6.28.041a63.5,63.5,0,0,1-19.963-22.923,4.755,4.755,0,0,0-3.691-8.453c-.021,0-.039.011-.06.016-1.209-3.161-2.3-6.473-3.317-9.959a3.746,3.746,0,0,0,1.426-1.456,4.013,4.013,0,0,0-.474-4.5,4.22,4.22,0,0,0-4.021-1.764,23.789,23.789,0,0,0-2.039-3.449.863.863,0,0,0,.042-.164c.356-2.4-.076-4.145-1.287-5.2-1.911-1.663-4.957-.793-5.085-.756a.9.9,0,0,0-.123.05,22.157,22.157,0,0,0-5.985-2.561,20.933,20.933,0,0,1,6.929-8.863.845.845,0,0,0,.293-1.123c-1.248-2.274-2.826-3.66-4.692-4.118a6.331,6.331,0,0,0-4.681.79.868.868,0,0,0-.173.152,22.29,22.29,0,0,0-5.579,12.423c0,.013,0,.025,0,.038-8.677.677-16.675,5.982-21.326,14.337-.054.1-.112.2-.171.314h-.008c-.133,0-3.282-.079-4.264,2.567a3.715,3.715,0,0,0,1.158,4.291.815.815,0,0,0,.3.132,44.719,44.719,0,0,0-1.11,4.674,5.652,5.652,0,0,0-3.864,4.947,5.367,5.367,0,0,0,1.168,4.163,3.638,3.638,0,0,0,1.941,1.079,90.035,90.035,0,0,0,3.538,22.048l-22.937-.659c-6.837-4.606-13.738-11.67-18.011-16.858-.856-8.526-8.125-9.876-13.1-10.159-.5-.617-1.308-1.516-1.979-2.262l-.417-.464.483-.7a9.281,9.281,0,0,0,3.254.582c7.392,0,17.045-7.994,28.214-23.446,9.849-13.628,11.91-25.968,11.9-33.921-.006-8.659-2.336-14.024-2.436-14.248a.844.844,0,0,0-1.587.123,57.157,57.157,0,0,1-10.7,20.792,5.658,5.658,0,0,0-3.674-5.04.845.845,0,0,0-1.085.817c.034,3.68-5.385,14.131-15.271,23.4-9.306,8.725-17.058,18.027-10.963,26.962q-.569.867-1.128,1.74c-3.35-2.812-6.667-4.281-9.87-4.361a9.2,9.2,0,0,0-6.977,2.775,5.788,5.788,0,0,0-1.292,4.789,16.512,16.512,0,0,0,2.455,6.4,5.641,5.641,0,0,0-2.56,4.381,5.794,5.794,0,0,0,1.923,4.592,4.288,4.288,0,0,0-.4,4.88c1.16,2.15,3.8,3.682,6.778,4.141a.841.841,0,0,0,.121.314c3.27,5.125,10.7,7.013,16.688,7.081,1.706,1.6,11.525,10.5,22.941,14.524a14.367,14.367,0,0,0,4.4.489,110.336,110.336,0,0,0,14.579-1.374c7.454-1.077,14.3-2.416,14.371-2.429a.844.844,0,0,0,.606-.483,107.8,107.8,0,0,0,7.236,14.208c1.89,3.115,3.934,6.137,6.1,9.053a.86.86,0,0,0-.105.1,5.029,5.029,0,0,0,.073,5.993,4.178,4.178,0,0,0,3.465,1.757,6.087,6.087,0,0,0,2.45-.561,111.411,111.411,0,0,0,23.467,20.394,5.042,5.042,0,0,0-.133,3.131,4.513,4.513,0,0,0,2.449,2.668,3.974,3.974,0,0,0,1.782.455,3.291,3.291,0,0,0,1.106-.192,4.44,4.44,0,0,0,2.139-1.808,80.936,80.936,0,0,0,9.344,4.141,48,48,0,0,0,16.37,2.906,41.464,41.464,0,0,0,8.793-.911,32.514,32.514,0,0,0,22.109-16.365c.013-.022.023-.046.034-.069C5826.629,1233.691,5826.063,1224.257,5820.075,1215.746Zm-28.781-23.777a1.964,1.964,0,0,1,.627,2.61q-2.432-1.488-4.631-3.014C5787.69,1191.185,5788.881,1190.462,5791.294,1191.969Zm-25.413-29.245a2.971,2.971,0,0,1-.708,3.394q-1.251-2.568-2.341-5.28A2.79,2.79,0,0,1,5765.881,1162.724ZM5751.417,1134a2.887,2.887,0,0,1,.819,2.161,22.217,22.217,0,0,0-2.938-2.761A3.1,3.1,0,0,1,5751.417,1134Zm-11.214-16.5a4.666,4.666,0,0,1,3.256-.5,5.556,5.556,0,0,1,3.234,2.646,23.314,23.314,0,0,0-7.034,9.443,23.745,23.745,0,0,0-3.456-.383c-.357-.013-.713-.016-1.068-.013A20.349,20.349,0,0,1,5740.2,1117.5Zm-30.96,29.063a2.323,2.323,0,0,1,1.81-1.378c-.445.972-.934,2.161-1.411,3.557A2.005,2.005,0,0,1,5709.243,1146.565Zm-2.722,16.443a3.836,3.836,0,0,1-.7-2.881,3.732,3.732,0,0,1,1.855-3.031,48.273,48.273,0,0,0-.427,5.156c-.012.406-.019.823-.021,1.246A1.93,1.93,0,0,1,5706.521,1163.008Zm-53.012-4.505c.29.321.62.689.939,1.05-.261-.006-.509-.013-.734-.02-.407-.014-.8-.005-1.179.014q.414-.607.827-1.208Zm11.1-32c9.373-8.788,14.744-18.487,15.663-23.289.857.689,1.916,2.156,1.458,5.084a.844.844,0,0,0,1.436.722,56.2,56.2,0,0,0,11.886-20.7,41.44,41.44,0,0,1,1.464,11.2c-.011,7.683-2.028,19.616-11.585,32.839-15.829,21.9-24.846,23.673-29.1,22.416,4.188-5.981,8.243-11.466,12.1-16.367a.844.844,0,1,0-1.327-1.045c-5.156,6.547-10.658,14.129-16.354,22.535q-.356.1-.689.22a185.577,185.577,0,0,1,24.391-32.314c-1.415,2.031-2.978,4.246-4.533,6.394a.844.844,0,1,0,1.368.99c4.982-6.882,10.037-14.432,10.087-14.508a.844.844,0,0,0-1.294-1.071,200.144,200.144,0,0,0-26.076,31.092C5649.73,1144.468,5653.013,1137.373,5664.607,1126.5Zm-15.707,43.711c.237.466.663,1.807-1.115,3.449-1.086,1-2.915,1.227-5.071.758l.432-.669c.777-1.2,1.687-2.609,2.722-4.2a5.484,5.484,0,0,0,1.083-.7.858.858,0,0,0,.065-.065A9.665,9.665,0,0,0,5648.9,1170.212Zm-13.153-16.672c2.585-2.759,7.964-3.878,14.7,1.873q-1.347,2.149-2.631,4.334a17.806,17.806,0,0,0-3.4-3.745.844.844,0,0,0-1.053,1.32,15.577,15.577,0,0,1,3.479,4.1q-1.945,3.4-3.747,6.89a4.27,4.27,0,0,1-1.557-.662c-2.758-1.823-6.184-6.773-6.642-10.67A4.12,4.12,0,0,1,5635.747,1153.541Zm-.943,14.5a3.914,3.914,0,0,1,1.808-3.067,16.743,16.743,0,0,0,4,4.081,6.165,6.165,0,0,0,1.7.794q-.964,1.911-1.888,3.854a20.348,20.348,0,0,1-3.622-1.915A4.235,4.235,0,0,1,5634.8,1168.043Zm1.321,8.578a2.626,2.626,0,0,1,.282-3.082,22.067,22.067,0,0,0,3.288,1.72c-.223.479-.446.958-.665,1.44-.118.259-.476,1.047.243,1.439a.919.919,0,0,0,.439.131c.473,0,.828-.532,1.442-1.456.164-.247.354-.537.567-.863a11.378,11.378,0,0,0,2.895.4,7.986,7.986,0,0,0,1.938-.228,2.426,2.426,0,0,1,.187,2.288,2.686,2.686,0,0,1-2.076,1.514C5641.573,1180.354,5637.533,1179.233,5636.125,1176.621Zm78.068,21.891c-.588.115-1.263.244-2,.38a.6.6,0,1,0-1.173.216c-.745.135-1.538.276-2.374.422a.6.6,0,1,0-.24.041c-9.233,1.6-23.1,3.581-26.682,2.32-11.948-4.209-22.472-14.28-22.577-14.382a.845.845,0,0,0-.586-.237c-1.852,0-10.947-.283-15.078-5.57a11.866,11.866,0,0,0,1.41-.1,4.392,4.392,0,0,0,3.382-2.486,4.078,4.078,0,0,0-.145-3.623,4.714,4.714,0,0,0,.8-.588,5.087,5.087,0,0,0,1.873-3.744,20.072,20.072,0,0,0,2.4.828c-.977,2.193-.894,5.44.738,6.824a.844.844,0,1,0,1.092-1.289c-.99-.839-1.038-3.516-.147-5.138a21.34,21.34,0,0,0,4.582.4.844.844,0,0,0-.044-1.688,19.848,19.848,0,0,1-9.378-2.173.815.815,0,0,0-.274-.161,7.6,7.6,0,0,1-1.737-1.332,3.852,3.852,0,0,1-.512-.687.842.842,0,0,0-.256-.585,2.015,2.015,0,0,1-.07-.769c.42-3.958,4.651-4.236,6.453-4.173.265.009.555.016.868.024,4.521.109,12.938.312,13.658,8.955a.848.848,0,0,0,.188.465c4.377,5.35,11.6,12.763,18.745,17.527a.848.848,0,0,0,.444.141l18.939.544a.6.6,0,1,0,.652.019l2.454.071a.6.6,0,1,0,.87.025l.276.008h.025a.839.839,0,0,0,.463-.139c.129.432.266.865.4,1.3-.011,0-.021,0-.033,0a.6.6,0,0,0-.009,1.2.59.59,0,0,0,.381-.134q.5,1.524,1.045,3.068a.6.6,0,0,0,.175,1.175.608.608,0,0,0,.235-.055q.58,1.564,1.224,3.145A.834.834,0,0,0,5714.193,1198.512Zm15.6,29.526a3.457,3.457,0,0,1-.278-3.705q1.781,2.32,3.663,4.544A2.78,2.78,0,0,1,5729.79,1228.038Zm32.655,27.065a1.952,1.952,0,0,1-1.561-.185,2.9,2.9,0,0,1-1.59-1.655,3.124,3.124,0,0,1,0-1.707q2.167,1.335,4.366,2.531A2.645,2.645,0,0,1,5762.445,1255.1Zm57.812-11.245a30.845,30.845,0,0,1-20.958,15.489,44.655,44.655,0,0,1-24.208-1.93c-19.59-7.2-38.756-23.8-51.268-44.412-11.5-18.945-15.215-38.613-14.857-50.7a40.859,40.859,0,0,1,4.633-18.372c4.829-8.673,13.472-13.854,22.54-13.518a21.81,21.81,0,0,1,3.6.432.87.87,0,0,0,.106.054.843.843,0,0,0,.305.057c.019,0,.036-.007.054-.008a20.635,20.635,0,0,1,14.087,11.383,3.581,3.581,0,0,0-1.034,2.015.844.844,0,0,0,1.665.286,1.633,1.633,0,0,1,1.142-1.421,2.53,2.53,0,0,1,2.448,1.148,2.322,2.322,0,0,1,.313,2.63,1.781,1.781,0,0,1-1.69,1.01.844.844,0,0,0-.187,1.679c.091.01.182.013.273.015,6.252,21.354,14.8,36.352,39.416,49.567a81.971,81.971,0,0,1,16.222,11.005,6.406,6.406,0,0,0-.836.792.845.845,0,0,0,1.271,1.112,2.973,2.973,0,0,1,2.865-1.212,3.2,3.2,0,0,1,2.272,2.221,4.016,4.016,0,0,1-1.09,3.993.844.844,0,1,0,1.232,1.155,7.086,7.086,0,0,0,.644-.8C5824.386,1225.377,5824.711,1233.774,5820.257,1243.859Z" fill="#0e1123"/>
      <path id="Path_56935" data-name="Path 56935" d="M5853.77,1355.24a1.79,1.79,0,0,1-1.493.508,2.246,2.246,0,0,1-1.69-.942,3,3,0,0,1,.65-3.678l.069-.063a1.777,1.777,0,0,0,.4-2.588c-1.2-2.039-2.414-4.069-3.592-6.031s-2.4-3.991-3.589-6.027a.844.844,0,0,0-1.024-.364,2.9,2.9,0,0,1-2.126-5.395.845.845,0,0,0,.434-1.156,63.767,63.767,0,0,1-4-12.454.844.844,0,1,0-1.653.344,69.024,69.024,0,0,0,3.793,12.13,4.579,4.579,0,0,0,3.446,8.307c1.092,1.854,2.2,3.7,3.27,5.484,1.176,1.959,2.392,3.984,3.583,6.016a2.345,2.345,0,0,1,.142.273,2.677,2.677,0,0,1-.212.2l-.081.073a4.686,4.686,0,0,0-.93,5.844,3.915,3.915,0,0,0,2.969,1.707q.169.014.336.014a3.4,3.4,0,0,0,2.543-1.065.845.845,0,0,0-1.247-1.14Z" transform="translate(-117.311 -133.879)" fill="#0e1123"/>
      <path id="Path_56936" data-name="Path 56936" d="M5941.035,1306.49a.844.844,0,0,0,1.2-.1,2.455,2.455,0,0,1,3.563-.436c1.158.926,1.025,2.976.139,4.123a.844.844,0,0,0,.034,1.074,47.427,47.427,0,0,0,12.192,10.486c.528.314.99,0,1.4-.285,1.063-.733,2.212-1.362,3.537-.331a3.2,3.2,0,0,1,1.388,2.771,1.31,1.31,0,0,1-.673,1.1.845.845,0,0,0,.362,1.608.837.837,0,0,0,.36-.081,2.956,2.956,0,0,0,1.63-2.439,4.855,4.855,0,0,0-2.029-4.289c-2.391-1.859-4.637-.344-5.508.257a45.2,45.2,0,0,1-10.964-9.43c1.009-1.824.962-4.463-.81-5.879a4.127,4.127,0,0,0-5.3.059,32.08,32.08,0,0,1-8.379-11.966.844.844,0,1,0-1.581.593A34,34,0,0,0,5941.035,1306.49Z" transform="translate(-172.436 -119.897)" fill="#0e1123"/>
      <path id="Path_56937" data-name="Path 56937" d="M5879.636,1359.271a2.3,2.3,0,0,1,.189.243,2.631,2.631,0,0,1-.171.238l-.067.087a4.685,4.685,0,0,0,.141,5.916,3.9,3.9,0,0,0,3.227,1.143,3.658,3.658,0,0,0,1.935-.762c1.812,1.893,7.128,7.272,11.356,9.738a.844.844,0,1,0,.852-1.458c-4.853-2.83-11.53-10.02-11.6-10.092a.844.844,0,0,0-1.336.125,1.788,1.788,0,0,1-1.377.769,2.246,2.246,0,0,1-1.832-.621,3,3,0,0,1-.024-3.736l.058-.075a1.776,1.776,0,0,0-.075-2.616c-1.546-1.791-3.112-3.569-4.626-5.288s-3.075-3.49-4.614-5.275a.845.845,0,0,0-1.074-.172,2.9,2.9,0,0,1-3.064-4.922.846.846,0,0,0,.219-1.216c-1.986-2.652-5.1-9.277-6.587-12.92a.844.844,0,0,0-1.564.637,88.142,88.142,0,0,0,6.331,12.634,4.579,4.579,0,0,0,4.884,7.553c1.408,1.625,2.827,3.236,4.2,4.8C5876.533,1355.713,5878.1,1357.487,5879.636,1359.271Z" transform="translate(-130.834 -140.508)" fill="#0e1123"/>
      <path id="Path_56938" data-name="Path 56938" d="M5932.692,1451.484c-10.782-1.715-22.877-10.844-25.155-12.626a2.054,2.054,0,0,0,.134-1.669.844.844,0,0,0-1.564.633,2.169,2.169,0,0,1-1.015,1.359,1.694,1.694,0,0,1-1.887-.134,2.5,2.5,0,0,1-.952-1.768c-.152-.98.312-2.181,1.16-2.32a.844.844,0,0,0-.273-1.667,2.711,2.711,0,0,0-1.381.672,34.84,34.84,0,0,1-7.018-6.706.844.844,0,0,0-1.333,1.037,35.96,35.96,0,0,0,7.413,7.073,4.333,4.333,0,0,0-.237,2.169,4.2,4.2,0,0,0,1.719,2.937,3.733,3.733,0,0,0,2,.616,3.338,3.338,0,0,0,2.212-.862l.016-.015a87.418,87.418,0,0,0,8.021,5.538c6.664,4.083,12.679,6.572,17.877,7.4a.8.8,0,0,0,.134.011.845.845,0,0,0,.131-1.679Z" transform="translate(-150.299 -197.759)" fill="#0e1123"/>
      <path id="Path_56939" data-name="Path 56939" d="M5983.891,1457.459a.845.845,0,0,0-.709.96c.084.563.135,2.165-.628,2.805a2.748,2.748,0,0,1-2.453.032c-1.234-.411-1.953-.965-2.138-1.646a3.151,3.151,0,0,1,.829-2.43.845.845,0,0,0-.512-1.4c-5.555-.793-14.554-8.11-14.645-8.184a.844.844,0,0,0-1.069,1.307c.357.292,8.258,6.716,14.2,8.286a4.01,4.01,0,0,0-.441,2.849c.339,1.266,1.428,2.214,3.237,2.817a6.354,6.354,0,0,0,1.986.364,3.139,3.139,0,0,0,2.092-.71c1.613-1.361,1.253-4.047,1.206-4.349A.843.843,0,0,0,5983.891,1457.459Z" transform="translate(-190.184 -209.591)" fill="#0e1123"/>
      <path id="Path_56940" data-name="Path 56940" d="M5887.115,1332.509a3.067,3.067,0,0,0-1.351,1.322,4.328,4.328,0,0,0,3.632,5.693,3.625,3.625,0,0,0,1.288-.24,33.1,33.1,0,0,0,7.006,8.661,4.2,4.2,0,0,0-1.615,2.634,3.9,3.9,0,0,0,1.591,3.375,3.2,3.2,0,0,0,2.788.931,3.653,3.653,0,0,0,2.023-1.282,51.62,51.62,0,0,0,8.658,8.224.844.844,0,0,0,.957-1.392c-4.307-2.961-8.979-8.7-9.025-8.76a.846.846,0,0,0-1.41.151c-.174.343-.789,1.262-1.526,1.4a1.612,1.612,0,0,1-1.342-.535,2.36,2.36,0,0,1-1.037-1.908c.111-.957,1.272-1.779,1.709-2.014a.845.845,0,0,0,.15-1.389,31.97,31.97,0,0,1-7.525-9.065,2.406,2.406,0,0,0,.54-2.236.844.844,0,1,0-1.624.464c.13.455-.359.947-.908,1.16a1.937,1.937,0,0,1-2.545-1.212,2.333,2.333,0,0,1-.28-1.893,1.845,1.845,0,0,1,1.2-.8.844.844,0,0,0,.6-1.236l-2.509-4.6a.845.845,0,0,0-1.483.808Z" transform="translate(-145.528 -140.317)" fill="#0e1123"/>
      <path id="Path_56941" data-name="Path 56941" d="M5978.89,1425.774a.844.844,0,0,0-.492-.595c-3.756-1.609-11.72-7.909-11.8-7.973a.844.844,0,0,0-1.049,1.323c.309.245,7.1,5.62,11.252,7.759a4.533,4.533,0,0,0-.683,2.613,3.446,3.446,0,0,0,1.428,2.462,3.711,3.711,0,0,0,2.273.833,3.206,3.206,0,0,0,1.914-.641,3.726,3.726,0,0,0,1.306-4.223.844.844,0,1,0-1.582.593,2.035,2.035,0,0,1-.726,2.27,1.659,1.659,0,0,1-2.148-.166,1.806,1.806,0,0,1-.782-1.272,3.51,3.51,0,0,1,.892-2.238A.844.844,0,0,0,5978.89,1425.774Z" transform="translate(-191.902 -192.034)" fill="#0e1123"/>
      <path id="Path_56942" data-name="Path 56942" d="M6042.8,1455.325a.844.844,0,0,0-.108,1.189,1.552,1.552,0,0,1,.359,1.636,2,2,0,0,1-1.941.884,2.745,2.745,0,0,1-2.446-1.492,2.08,2.08,0,0,1,.065-2.193.844.844,0,1,0-1.374-.982,3.737,3.737,0,0,0-.193,3.948,4.424,4.424,0,0,0,3.948,2.407,3.586,3.586,0,0,0,3.47-1.856,3.228,3.228,0,0,0-.59-3.433A.845.845,0,0,0,6042.8,1455.325Z" transform="translate(-233.193 -213.407)" fill="#0e1123"/>
      <path id="Path_56943" data-name="Path 56943" d="M5909.173,1307.321c-4.428-4.634-7.657-14.454-7.691-14.558a.844.844,0,1,0-1.606.522c.151.464,3.755,11.425,8.887,15.987a.846.846,0,0,0,1.32-.26c.206-.42.825-1.3,1.421-1.359.478-.044.988.485,1.328.938a2.707,2.707,0,0,1,.3,2.957,1.766,1.766,0,0,1-1.98.725.844.844,0,0,0-.3,1.661,4.417,4.417,0,0,0,.792.073,3.485,3.485,0,0,0,2-.6c1.1,1.548,5.316,7.243,10.26,10.7a.844.844,0,0,0,.968-1.384c-5.382-3.767-10.057-10.591-10.1-10.659l0,0a4.432,4.432,0,0,0-.579-4.491,3.227,3.227,0,0,0-2.843-1.6A3.289,3.289,0,0,0,5909.173,1307.321Z" transform="translate(-154.116 -119.898)" fill="#0e1123"/>
      <path id="Path_56944" data-name="Path 56944" d="M6000.994,1394.74a.844.844,0,0,0,.108-1.682,18.336,18.336,0,0,1-9.013-3.756,4.045,4.045,0,0,0,.291-.494,4.247,4.247,0,0,0-1.863-5.7c-1.58-.851-2.931-.979-4.018-.382a3.947,3.947,0,0,0-1.756,2.448c-5.26-2.517-14.033-10.773-14.127-10.861a.844.844,0,0,0-1.159,1.228c.415.392,10.227,9.624,15.626,11.612a.847.847,0,0,0,1.134-.729,3.053,3.053,0,0,1,1.1-2.22,2.778,2.778,0,0,1,2.4.39,2.561,2.561,0,0,1,1.151,3.459,1.571,1.571,0,0,1-2.075.885.844.844,0,1,0-.7,1.538,3.273,3.273,0,0,0,1.356.3,2.985,2.985,0,0,0,1.368-.337,19.728,19.728,0,0,0,10.066,4.285A.886.886,0,0,0,6000.994,1394.74Z" transform="translate(-194.191 -167.225)" fill="#0e1123"/>
      <path id="Path_56945" data-name="Path 56945" d="M5818.206,1347.494a.6.6,0,1,0,.61.584A.6.6,0,0,0,5818.206,1347.494Z" transform="translate(-106.611 -151.859)" fill="#0e1123"/>
      <path id="Path_56946" data-name="Path 56946" d="M5814.477,1344.25a.6.6,0,1,0,.6.594A.6.6,0,0,0,5814.477,1344.25Z" transform="translate(-104.45 -149.985)" fill="#0e1123"/>
      <path id="Path_56947" data-name="Path 56947" d="M5814.483,1337.762a.6.6,0,1,0,.593.6A.6.6,0,0,0,5814.483,1337.762Z" transform="translate(-104.45 -146.236)" fill="#0e1123"/>
      <path id="Path_56948" data-name="Path 56948" d="M5810.69,1341.006a.6.6,0,1,0,.6.592A.6.6,0,0,0,5810.69,1341.006Z" transform="translate(-102.264 -148.11)" fill="#0e1123"/>
      <path id="Path_56949" data-name="Path 56949" d="M5810.688,1347.494a.6.6,0,1,0,.6.59A.6.6,0,0,0,5810.688,1347.494Z" transform="translate(-102.264 -151.859)" fill="#0e1123"/>
      <path id="Path_56950" data-name="Path 56950" d="M5821.954,1350.738a.6.6,0,1,0,.6.593A.6.6,0,0,0,5821.954,1350.738Z" transform="translate(-108.771 -153.734)" fill="#0e1123"/>
      <path id="Path_56951" data-name="Path 56951" d="M5806.848,1350.954a.6.6,0,1,0,.6.59A.6.6,0,0,0,5806.848,1350.954Z" transform="translate(-100.044 -153.858)" fill="#0e1123"/>
      <path id="Path_56952" data-name="Path 56952" d="M5818.222,1341.006a.6.6,0,1,0,.595.6A.6.6,0,0,0,5818.222,1341.006Z" transform="translate(-106.611 -148.11)" fill="#0e1123"/>
      <path id="Path_56953" data-name="Path 56953" d="M5814.482,1350.738a.6.6,0,1,0,.594.6A.6.6,0,0,0,5814.482,1350.738Z" transform="translate(-104.45 -153.734)" fill="#0e1123"/>
      <path id="Path_56954" data-name="Path 56954" d="M5806.848,1344.25a.6.6,0,1,0,.6.59A.6.6,0,0,0,5806.848,1344.25Z" transform="translate(-100.044 -149.985)" fill="#0e1123"/>
      <path id="Path_56955" data-name="Path 56955" d="M5810.685,1334.518a.6.6,0,1,0,.608.586A.6.6,0,0,0,5810.685,1334.518Z" transform="translate(-102.264 -144.361)" fill="#0e1123"/>
      <path id="Path_56956" data-name="Path 56956" d="M5806.854,1337.762a.6.6,0,1,0,.6.6A.6.6,0,0,0,5806.854,1337.762Z" transform="translate(-100.044 -146.236)" fill="#0e1123"/>
    </g>
  </g>
</svg>
