<svg xmlns="http://www.w3.org/2000/svg" xmlns:xlink="http://www.w3.org/1999/xlink" width="37.283" height="57.549" viewBox="0 0 37.283 57.549">
  <defs>
    <clipPath id="clip-path">
      <rect id="Rectangle_1955" data-name="Rectangle 1955" width="34.43" height="11.822" fill="#d9cbb4"/>
    </clipPath>
  </defs>
  <g id="hamburger-close" transform="translate(-372 -20.945)">
    <path id="Path_57374" data-name="Path 57374" d="M-11.161-7.276v-.8c0-1.411-.238-2.108-.867-2.652a4.279,4.279,0,0,0-2.805-.782,4.116,4.116,0,0,0-2.822.833c-.629.595-.867,1.326-.867,2.822v4.369c0,1.479.238,2.227.867,2.805a4.117,4.117,0,0,0,2.822.85,4.1,4.1,0,0,0,2.805-.85c.629-.578.867-1.326.867-2.805V-4.573h-2.72v1.547c0,.867-.289,1.241-.952,1.241-.68,0-.969-.374-.969-1.241V-8.313c0-.867.289-1.241.969-1.241.663,0,.952.374.952,1.241v1.037Zm3.825-4.063h-2.72V0h5.729V-2.074H-7.335ZM3.7-8.177a3.093,3.093,0,0,0-.714-2.4,4.043,4.043,0,0,0-2.89-.935,4.043,4.043,0,0,0-2.89.935,3.093,3.093,0,0,0-.714,2.4v5.015A3.093,3.093,0,0,0-2.8-.765,4.043,4.043,0,0,0,.094.17a4.043,4.043,0,0,0,2.89-.935,3.093,3.093,0,0,0,.714-2.4ZM-.79-8.3c0-.8.289-1.19.884-1.19S.978-9.1.978-8.3v5.253c0,.8-.289,1.19-.884,1.19S-.79-2.244-.79-3.043ZM11.688-7.8V-8.67c0-1.921-1.122-2.839-3.434-2.839-2.346,0-3.587,1.071-3.587,3.077a3.368,3.368,0,0,0,1.751,2.89l1.921,1.36a1.621,1.621,0,0,1,.85,1.343.944.944,0,0,1-.969,1.054.942.942,0,0,1-1-1.02V-3.944H4.5v1.139C4.5-.867,5.771.17,8.168.17c2.516,0,3.74-1.088,3.74-3.281a3.183,3.183,0,0,0-1.7-2.924L8.457-7.293c-.816-.561-1.071-.918-1.071-1.462a.758.758,0,0,1,.8-.8c.527,0,.782.289.782.884V-7.8ZM18.5-11.339H12.86V0h5.9V-2.074H15.58V-4.726h2.771V-6.8H15.58V-9.265H18.5Z" transform="translate(390.521 62)" fill="#d9cbb4"/>
    <path id="Path_57368" data-name="Path 57368" d="M0,17.09l1.029.059.4.023a5.712,5.712,0,0,0,.063,4.454,1.476,1.476,0,0,0-.475.561,4.02,4.02,0,0,0-.038,3.254,4.224,4.224,0,0,0,.848,1.3s17.874,1.364,32.094.3a4.7,4.7,0,0,0,1.134-4.211,1.5,1.5,0,0,0-.154-.379,3.92,3.92,0,0,0,1.083-1.457,3.877,3.877,0,0,0,.259-1.889,3.786,3.786,0,0,0-1.115-2.142,2.767,2.767,0,0,0,.459-.206l.59-.345-.087-.678c-.022-.166-2.336-16.6-18.693-15.695C1.069.943.064,15.909.056,16.06Zm20.256,10.2.009,0,.008,0h-.017M34.213,19.6A1.822,1.822,0,0,1,33.1,21.165a2.2,2.2,0,0,1-2.4-.427l-.089-.067c-2.956-1.99-4.223-1.147-5.266-.112-.53.526-.709.7-2.036-.2-2.851-1.948-4.445-.6-5.5.3-.806.683-1.049.82-1.578.593l-.216-.092c-2.469-1.059-3.959-1.7-6.423.651-.416.4-.416.4-1.046,0A4.4,4.4,0,0,0,4.5,21.172c-.661.2-.921-.051-1.105-.353a3.744,3.744,0,0,1,.274-3.527c6.8.35,21.654.977,28.594.216a.986.986,0,0,0,.13.077c1.17.541,1.815,1.258,1.816,2.018M17.51,2.1a19.573,19.573,0,0,1,2.912.047C30.615,3.1,33.3,12.338,33.894,15.185c-2.631.589-12.124,1-30.371.03a1.039,1.039,0,0,0-.511-.027l-.769-.041C2.752,12,5.284,2.779,17.51,2.1" transform="translate(373 20.945)" fill="#d9cbb4"/>
    <g id="Group_4563" data-name="Group 4563" transform="matrix(0.978, 0.208, -0.208, 0.978, 375.605, 59.772)">
      <g id="Group_4562" data-name="Group 4562" transform="translate(0 0)" clip-path="url(#clip-path)">
        <path id="Path_57369" data-name="Path 57369" d="M32.346,2.082h0m0,0a10.812,10.812,0,0,1-1.131,4.5S20.464,9.74,10.57,9.74a34.646,34.646,0,0,1-6-.475,13.621,13.621,0,0,1-2.489-4s1.939.123,5.015.123c6.046,0,16.486-.476,25.249-3.3m0-2.082H32.28a2.082,2.082,0,0,0-.619.114C23.031,2.888,12.57,3.3,7.1,3.3c-2.962,0-4.865-.118-4.884-.119-.044,0-.088,0-.132,0A2.083,2.083,0,0,0,.062,5.767,14.712,14.712,0,0,0,3,10.637a2.082,2.082,0,0,0,1.2.678,36.777,36.777,0,0,0,6.363.506c10.079,0,20.782-3.114,21.232-3.247a2.082,2.082,0,0,0,1.254-1.025,12.785,12.785,0,0,0,1.371-5.367c0-.034,0-.067,0-.1A2.081,2.081,0,0,0,32.358,0h-.012m0,4.163h0Z" transform="translate(0 0)" fill="#d9cbb4"/>
      </g>
    </g>
  </g>
</svg>
