<svg xmlns="http://www.w3.org/2000/svg" xmlns:xlink="http://www.w3.org/1999/xlink" width="36.265" height="54.098" viewBox="0 0 36.265 54.098">
  <defs>
    <clipPath id="clip-path">
      <rect id="Rectangle_1955" data-name="Rectangle 1955" width="34.43" height="11.822" fill="#14152e"/>
    </clipPath>
  </defs>
  <g id="hamburger" transform="translate(-375.734 -26)">
    <path id="Path_57373" data-name="Path 57373" d="M-11.169,0-9.52-8.976-9.656,0h2.38V-11.339h-4L-12.342-4.59l-1.037-6.749h-4.029V0h2.346L-15.2-8.976-13.549,0ZM-.289-11.339H-5.933V0h5.9V-2.074H-3.213V-4.726H-.442V-6.8H-3.213V-9.265H-.289ZM8.7,0V-11.339H6.375l.051,7.582L3.961-11.339H.952V0H3.281L3.23-7.327,5.763,0Zm5.984-11.339v8.262c0,.85-.289,1.224-.952,1.224-.68,0-.969-.374-.969-1.224v-8.262h-2.72v7.854c0,1.5.238,2.227.867,2.822A4.2,4.2,0,0,0,13.736.17a4.1,4.1,0,0,0,2.805-.833c.646-.6.867-1.326.867-2.822v-7.854Z" transform="translate(394.143 67.055)" fill="#14152e"/>
    <path id="Path_57368" data-name="Path 57368" d="M0,17.09l1.029.059.4.023a5.712,5.712,0,0,0,.063,4.454,1.476,1.476,0,0,0-.475.561,4.02,4.02,0,0,0-.038,3.254,4.224,4.224,0,0,0,.848,1.3s17.874,1.364,32.094.3a4.7,4.7,0,0,0,1.134-4.211,1.5,1.5,0,0,0-.154-.379,3.92,3.92,0,0,0,1.083-1.457,3.877,3.877,0,0,0,.259-1.889,3.786,3.786,0,0,0-1.115-2.142,2.767,2.767,0,0,0,.459-.206l.59-.345-.087-.678c-.022-.166-2.336-16.6-18.693-15.695C1.069.943.064,15.909.056,16.06Zm20.256,10.2.009,0,.008,0h-.017M34.213,19.6A1.822,1.822,0,0,1,33.1,21.165a2.2,2.2,0,0,1-2.4-.427l-.089-.067c-2.956-1.99-4.223-1.147-5.266-.112-.53.526-.709.7-2.036-.2-2.851-1.948-4.445-.6-5.5.3-.806.683-1.049.82-1.578.593l-.216-.092c-2.469-1.059-3.959-1.7-6.423.651-.416.4-.416.4-1.046,0A4.4,4.4,0,0,0,4.5,21.172c-.661.2-.921-.051-1.105-.353a3.744,3.744,0,0,1,.274-3.527c6.8.35,21.654.977,28.594.216a.986.986,0,0,0,.13.077c1.17.541,1.815,1.258,1.816,2.018M17.51,2.1a19.573,19.573,0,0,1,2.912.047C30.615,3.1,33.3,12.338,33.894,15.185c-2.631.589-12.124,1-30.371.03a1.039,1.039,0,0,0-.511-.027l-.769-.041C2.752,12,5.284,2.779,17.51,2.1" transform="translate(375.734 26)" fill="#14152e"/>
    <g id="Group_4562" data-name="Group 4562" transform="translate(376.734 68.276)" clip-path="url(#clip-path)">
      <path id="Path_57369" data-name="Path 57369" d="M32.346,2.082h0m0,0a10.812,10.812,0,0,1-1.131,4.5S20.464,9.74,10.57,9.74a34.646,34.646,0,0,1-6-.475,13.621,13.621,0,0,1-2.489-4s1.939.123,5.015.123c6.046,0,16.486-.476,25.249-3.3m0-2.082H32.28a2.082,2.082,0,0,0-.619.114C23.031,2.888,12.57,3.3,7.1,3.3c-2.962,0-4.865-.118-4.884-.119-.044,0-.088,0-.132,0A2.083,2.083,0,0,0,.062,5.767,14.712,14.712,0,0,0,3,10.637a2.082,2.082,0,0,0,1.2.678,36.777,36.777,0,0,0,6.363.506c10.079,0,20.782-3.114,21.232-3.247a2.082,2.082,0,0,0,1.254-1.025,12.785,12.785,0,0,0,1.371-5.367c0-.034,0-.067,0-.1A2.081,2.081,0,0,0,32.358,0h-.012m0,4.163h0Z" transform="translate(0 0)" fill="#14152e"/>
    </g>
  </g>
</svg>
