<svg xmlns="http://www.w3.org/2000/svg" xmlns:xlink="http://www.w3.org/1999/xlink" width="162" height="192" viewBox="0 0 162 192">
  <defs>
    <clipPath id="clip-path">
      <rect id="Rectangle_218" data-name="Rectangle 218" width="162" height="192" transform="translate(-3656.274 -10413)" fill="#fff"/>
    </clipPath>
  </defs>
  <g id="header-light-right" transform="translate(3656.274 10413)" clip-path="url(#clip-path)">
    <g id="Group_612" data-name="Group 612" transform="translate(-3655.753 -10414.946)">
      <path id="Path_33071" data-name="Path 33071" d="M8342.295-2005.675l-53.47-1.313-14.193-56.4h51.227l.2.7Zm-51.954-3.21,49.376,1.213-15.319-53.787h-47.286Z" transform="translate(-8223.731 2129.658)" fill="#14152e"/>
      <path id="Path_33072" data-name="Path 33072" d="M8342.311-2007.433l-1.654-1,1.85-3.064-15.582-54.9H8278.4l-2.324,2.543-1.427-1.3,2.9-3.171h50.84l16.21,57.11Z" transform="translate(-8223.735 2131.413)" fill="#14152e"/>
      <g id="Ellipse_5" data-name="Ellipse 5" transform="translate(56.511 64.913)">
        <ellipse id="Ellipse_9" data-name="Ellipse 9" cx="17.727" cy="24.496" rx="17.727" ry="24.496" transform="translate(0 19.314) rotate(-33.007)" fill="none"/>
        <path id="Path_33073" data-name="Path 33073" d="M8321.867-2008.469c-7.187,0-15.311-4.825-20.646-13.041a29.808,29.808,0,0,1-5.1-17.194c.248-5.772,2.6-10.391,6.625-13.005h0c4.023-2.614,9.2-2.885,14.574-.766a29.8,29.8,0,0,1,13.636,11.652,29.8,29.8,0,0,1,5.1,17.194c-.248,5.772-2.6,10.39-6.625,13A13.7,13.7,0,0,1,8321.867-2008.469Zm-11.521-43.482a11.871,11.871,0,0,0-6.551,1.864h0c-3.484,2.263-5.525,6.336-5.745,11.466a27.867,27.867,0,0,0,4.791,16.058c4.971,7.65,12.457,12.18,18.977,12.18a11.883,11.883,0,0,0,6.56-1.864c3.484-2.264,5.525-6.336,5.744-11.466a27.849,27.849,0,0,0-4.791-16.058,27.859,27.859,0,0,0-12.724-10.906A17.135,17.135,0,0,0,8310.347-2051.951Z" transform="translate(-8287.876 2061.366)" fill="#14152e"/>
      </g>
      <g id="Ellipse_6" data-name="Ellipse 6" transform="translate(61.838 66.747)">
        <ellipse id="Ellipse_10" data-name="Ellipse 10" cx="15.471" cy="22.562" rx="15.471" ry="22.562" transform="translate(0 16.856) rotate(-33.007)" fill="rgba(0,0,0,0)"/>
        <path id="Path_33074" data-name="Path 33074" d="M8326.929-2010.937c-6.455,0-13.942-4.582-18.946-12.285-6.777-10.433-6.471-22.7.684-27.349,3.526-2.292,8.127-2.419,12.953-.361a28.583,28.583,0,0,1,12.311,10.854,28.585,28.585,0,0,1,4.913,15.661c-.081,5.245-2.067,9.4-5.6,11.687A11.438,11.438,0,0,1,8326.929-2010.937Zm-11.9-39.513a9.615,9.615,0,0,0-5.313,1.5c-6.261,4.066-6.312,15.135-.115,24.673s16.329,13.991,22.589,9.925c2.971-1.93,4.646-5.515,4.716-10.1a26.64,26.64,0,0,0-4.6-14.579,26.645,26.645,0,0,0-11.449-10.128A14.928,14.928,0,0,0,8315.033-2050.45Z" transform="translate(-8295.69 2058.997)" fill="#14152e"/>
      </g>
      <path id="Path_33070" data-name="Path 33070" d="M8278.852-2066.939l31.6,1.717h0l-33.6,1.98Z" transform="translate(-8224.521 2130.92)" fill="#14152e"/>
      <path id="Subtraction_5" data-name="Subtraction 5" d="M42.31,78.413h0l-1.082-1.6c3.692-2.5,7.583-4.912,11.344-7.248l.021-.014.007,0C60.394,64.7,68.452,59.7,75.244,53.731,83.975,46.065,84.7,33.5,82.47,24.305A31.131,31.131,0,0,0,67.822,5.22l.088-2.145A33,33,0,0,1,78.3,11.727a31.615,31.615,0,0,1,6.046,12.12c2.364,9.751,1.549,23.1-7.829,31.334C69.6,61.258,61.47,66.31,53.607,71.2l-.014.008-.015.009c-3.558,2.209-7.591,4.713-11.267,7.2ZM1.064,36.686h0L0,35.073c6.222-4.1,12.837-9.154,19.235-14.04l0,0,.059-.045C26.92,15.16,34.8,9.136,42.345,4.448a31.867,31.867,0,0,1,7-3.348A21.663,21.663,0,0,1,56.117,0a22.293,22.293,0,0,1,3.3.251l-.108,1.941a20.371,20.371,0,0,0-3.156-.251c-4.172,0-8.235,1.319-12.788,4.149C35.917,10.72,28.078,16.709,20.5,22.5l0,0-.021.016-.1.073c-6.409,4.9-13.037,9.958-19.312,14.092Z" transform="translate(74.236 28.1)" fill="#14152e" stroke="rgba(0,0,0,0)" stroke-width="1"/>
      <path id="Path_33076" data-name="Path 33076" d="M8343.949-2117.2l-1.928-.146,3.706-48.888h10.5l-3.483,42.283-1.926-.158,3.311-40.191h-6.606Z" transform="translate(-8247.699 2166.238)" fill="#14152e"/>
      <g id="Group_610" data-name="Group 610" transform="translate(112.848 66.508)">
        <path id="Path_33078" data-name="Path 33078" d="M8413.521-2052.242a5.393,5.393,0,0,1-5.387-5.386,5.393,5.393,0,0,1,5.387-5.387,5.393,5.393,0,0,1,5.388,5.387A5.393,5.393,0,0,1,8413.521-2052.242Zm0-8.841a3.457,3.457,0,0,0-3.454,3.454,3.458,3.458,0,0,0,3.454,3.454,3.459,3.459,0,0,0,3.455-3.454A3.459,3.459,0,0,0,8413.521-2061.083Z" transform="translate(-8390.505 2063.016)" fill="#14152e"/>
        <g id="Group_364" data-name="Group 364" transform="translate(2.156 20.236)">
          <path id="Path_33079" data-name="Path 33079" d="M8413.048-2029.06a.313.313,0,0,0-.1.432.312.312,0,0,0,.428.094.313.313,0,0,0,.1-.427A.311.311,0,0,0,8413.048-2029.06Z" transform="translate(-8387.914 2030.719)" fill="#14152e"/>
          <path id="Path_33080" data-name="Path 33080" d="M8411.356-2028.018a.311.311,0,0,0-.1.432.312.312,0,0,0,.428.094.311.311,0,0,0,.1-.427A.311.311,0,0,0,8411.356-2028.018Z" transform="translate(-8387.312 2030.348)" fill="#14152e"/>
          <path id="Path_33081" data-name="Path 33081" d="M8409.667-2026.977a.312.312,0,0,0-.1.432.312.312,0,0,0,.428.094.311.311,0,0,0,.1-.426A.312.312,0,0,0,8409.667-2026.977Z" transform="translate(-8386.711 2029.978)" fill="#14152e"/>
          <path id="Path_33082" data-name="Path 33082" d="M8407.976-2025.935a.312.312,0,0,0-.1.432.312.312,0,0,0,.428.094.313.313,0,0,0,.1-.426A.312.312,0,0,0,8407.976-2025.935Z" transform="translate(-8386.109 2029.607)" fill="#14152e"/>
          <path id="Path_33083" data-name="Path 33083" d="M8406.286-2024.893a.311.311,0,0,0-.1.432.312.312,0,0,0,.428.094.312.312,0,0,0,.1-.427A.31.31,0,0,0,8406.286-2024.893Z" transform="translate(-8385.509 2029.237)" fill="#14152e"/>
          <path id="Path_33084" data-name="Path 33084" d="M8404.595-2023.852a.311.311,0,0,0-.1.433.31.31,0,0,0,.427.094.311.311,0,0,0,.1-.426A.311.311,0,0,0,8404.595-2023.852Z" transform="translate(-8384.906 2028.866)" fill="#14152e"/>
          <path id="Path_33085" data-name="Path 33085" d="M8402.9-2022.81a.311.311,0,0,0-.1.432.312.312,0,0,0,.428.094.312.312,0,0,0,.1-.426A.312.312,0,0,0,8402.9-2022.81Z" transform="translate(-8384.304 2028.496)" fill="#14152e"/>
          <path id="Path_33086" data-name="Path 33086" d="M8401.214-2021.768a.312.312,0,0,0-.1.432.312.312,0,0,0,.428.094.311.311,0,0,0,.1-.427A.311.311,0,0,0,8401.214-2021.768Z" transform="translate(-8383.704 2028.125)" fill="#14152e"/>
          <path id="Path_33087" data-name="Path 33087" d="M8399.523-2020.727a.311.311,0,0,0-.1.432.311.311,0,0,0,.428.094.31.31,0,0,0,.1-.426A.31.31,0,0,0,8399.523-2020.727Z" transform="translate(-8383.104 2027.755)" fill="#14152e"/>
          <path id="Path_33088" data-name="Path 33088" d="M8397.832-2019.685a.312.312,0,0,0-.1.432.312.312,0,0,0,.428.094.312.312,0,0,0,.1-.426A.311.311,0,0,0,8397.832-2019.685Z" transform="translate(-8382.502 2027.384)" fill="#14152e"/>
          <path id="Path_33089" data-name="Path 33089" d="M8396.142-2018.643a.31.31,0,0,0-.1.432.312.312,0,0,0,.428.094.312.312,0,0,0,.1-.427A.311.311,0,0,0,8396.142-2018.643Z" transform="translate(-8381.899 2027.014)" fill="#14152e"/>
          <path id="Path_33090" data-name="Path 33090" d="M8394.452-2017.6a.312.312,0,0,0-.1.432.312.312,0,0,0,.428.094.312.312,0,0,0,.1-.426A.312.312,0,0,0,8394.452-2017.6Z" transform="translate(-8381.299 2026.643)" fill="#14152e"/>
          <path id="Path_33091" data-name="Path 33091" d="M8392.761-2016.56a.311.311,0,0,0-.1.432.311.311,0,0,0,.427.094.312.312,0,0,0,.1-.426A.311.311,0,0,0,8392.761-2016.56Z" transform="translate(-8380.697 2026.273)" fill="#14152e"/>
          <path id="Path_33092" data-name="Path 33092" d="M8391.068-2015.518a.311.311,0,0,0-.1.432.312.312,0,0,0,.428.094.313.313,0,0,0,.1-.427A.311.311,0,0,0,8391.068-2015.518Z" transform="translate(-8380.095 2025.902)" fill="#14152e"/>
          <path id="Path_33093" data-name="Path 33093" d="M8389.38-2014.477a.313.313,0,0,0-.1.432.312.312,0,0,0,.428.094.312.312,0,0,0,.1-.426A.311.311,0,0,0,8389.38-2014.477Z" transform="translate(-8379.495 2025.532)" fill="#14152e"/>
          <path id="Path_33094" data-name="Path 33094" d="M8387.688-2013.435a.311.311,0,0,0-.1.432.312.312,0,0,0,.428.094.31.31,0,0,0,.1-.426A.311.311,0,0,0,8387.688-2013.435Z" transform="translate(-8378.893 2025.161)" fill="#14152e"/>
          <path id="Path_33095" data-name="Path 33095" d="M8386-2012.393a.312.312,0,0,0-.1.433.313.313,0,0,0,.428.094.312.312,0,0,0,.1-.427A.312.312,0,0,0,8386-2012.393Z" transform="translate(-8378.293 2024.791)" fill="#14152e"/>
          <path id="Path_33096" data-name="Path 33096" d="M8384.308-2011.352a.312.312,0,0,0-.1.432.311.311,0,0,0,.428.094.312.312,0,0,0,.1-.426A.312.312,0,0,0,8384.308-2011.352Z" transform="translate(-8377.692 2024.42)" fill="#14152e"/>
          <path id="Path_33097" data-name="Path 33097" d="M8382.618-2010.31a.312.312,0,0,0-.1.432.313.313,0,0,0,.429.094.311.311,0,0,0,.1-.426A.31.31,0,0,0,8382.618-2010.31Z" transform="translate(-8377.091 2024.05)" fill="#14152e"/>
          <path id="Path_33098" data-name="Path 33098" d="M8380.927-2009.268a.31.31,0,0,0-.1.432.311.311,0,0,0,.427.094.313.313,0,0,0,.1-.427A.311.311,0,0,0,8380.927-2009.268Z" transform="translate(-8376.488 2023.679)" fill="#14152e"/>
          <path id="Path_33099" data-name="Path 33099" d="M8379.235-2008.227a.312.312,0,0,0-.1.433.312.312,0,0,0,.428.093.312.312,0,0,0,.1-.426A.311.311,0,0,0,8379.235-2008.227Z" transform="translate(-8375.888 2023.309)" fill="#14152e"/>
          <path id="Path_33100" data-name="Path 33100" d="M8377.546-2007.185a.312.312,0,0,0-.1.432.312.312,0,0,0,.428.094.31.31,0,0,0,.1-.426A.311.311,0,0,0,8377.546-2007.185Z" transform="translate(-8375.287 2022.938)" fill="#14152e"/>
          <path id="Path_33101" data-name="Path 33101" d="M8375.854-2006.143a.311.311,0,0,0-.1.432.312.312,0,0,0,.428.094.312.312,0,0,0,.1-.427A.311.311,0,0,0,8375.854-2006.143Z" transform="translate(-8374.686 2022.568)" fill="#14152e"/>
          <path id="Path_33102" data-name="Path 33102" d="M8413-2027.275a.313.313,0,0,0-.1.432.312.312,0,0,0,.428.094.312.312,0,0,0,.1-.426A.311.311,0,0,0,8413-2027.275Z" transform="translate(-8387.897 2030.084)" fill="#14152e"/>
          <path id="Path_33103" data-name="Path 33103" d="M8411.313-2026.233a.31.31,0,0,0-.1.432.312.312,0,0,0,.428.094.311.311,0,0,0,.1-.427A.311.311,0,0,0,8411.313-2026.233Z" transform="translate(-8387.296 2029.713)" fill="#14152e"/>
          <path id="Path_33104" data-name="Path 33104" d="M8409.62-2025.192a.312.312,0,0,0-.1.432.312.312,0,0,0,.428.094.311.311,0,0,0,.1-.426A.312.312,0,0,0,8409.62-2025.192Z" transform="translate(-8386.693 2029.343)" fill="#14152e"/>
          <path id="Path_33105" data-name="Path 33105" d="M8407.933-2024.15a.312.312,0,0,0-.1.432.312.312,0,0,0,.428.094.312.312,0,0,0,.1-.426A.311.311,0,0,0,8407.933-2024.15Z" transform="translate(-8386.094 2028.972)" fill="#14152e"/>
          <path id="Path_33106" data-name="Path 33106" d="M8406.24-2023.108a.311.311,0,0,0-.1.432.312.312,0,0,0,.428.094.313.313,0,0,0,.1-.427A.311.311,0,0,0,8406.24-2023.108Z" transform="translate(-8385.491 2028.602)" fill="#14152e"/>
          <path id="Path_33107" data-name="Path 33107" d="M8404.551-2022.067a.313.313,0,0,0-.1.432.312.312,0,0,0,.428.094.311.311,0,0,0,.1-.426A.311.311,0,0,0,8404.551-2022.067Z" transform="translate(-8384.892 2028.231)" fill="#14152e"/>
          <path id="Path_33108" data-name="Path 33108" d="M8402.86-2021.025a.311.311,0,0,0-.1.432.312.312,0,0,0,.428.094.311.311,0,0,0,.1-.426A.311.311,0,0,0,8402.86-2021.025Z" transform="translate(-8384.289 2027.861)" fill="#14152e"/>
          <path id="Path_33109" data-name="Path 33109" d="M8401.17-2019.983a.313.313,0,0,0-.1.432.312.312,0,0,0,.428.094.312.312,0,0,0,.1-.427A.312.312,0,0,0,8401.17-2019.983Z" transform="translate(-8383.688 2027.49)" fill="#14152e"/>
          <path id="Path_33110" data-name="Path 33110" d="M8399.479-2018.942a.311.311,0,0,0-.1.433.312.312,0,0,0,.428.093.312.312,0,0,0,.1-.426A.311.311,0,0,0,8399.479-2018.942Z" transform="translate(-8383.088 2027.12)" fill="#14152e"/>
          <path id="Path_33111" data-name="Path 33111" d="M8397.787-2017.9a.312.312,0,0,0-.1.432.311.311,0,0,0,.428.094.313.313,0,0,0,.1-.426A.311.311,0,0,0,8397.787-2017.9Z" transform="translate(-8382.484 2026.749)" fill="#14152e"/>
          <path id="Path_33112" data-name="Path 33112" d="M8396.1-2016.858a.313.313,0,0,0-.1.432.314.314,0,0,0,.43.094.312.312,0,0,0,.1-.427A.311.311,0,0,0,8396.1-2016.858Z" transform="translate(-8381.885 2026.379)" fill="#14152e"/>
          <path id="Path_33113" data-name="Path 33113" d="M8394.405-2015.816a.311.311,0,0,0-.1.432.313.313,0,0,0,.428.094.314.314,0,0,0,.1-.427A.313.313,0,0,0,8394.405-2015.816Z" transform="translate(-8381.281 2026.008)" fill="#14152e"/>
          <path id="Path_33114" data-name="Path 33114" d="M8392.717-2014.775a.314.314,0,0,0-.1.432.312.312,0,0,0,.428.094.31.31,0,0,0,.1-.426A.312.312,0,0,0,8392.717-2014.775Z" transform="translate(-8380.684 2025.638)" fill="#14152e"/>
          <path id="Path_33115" data-name="Path 33115" d="M8391.027-2013.733a.31.31,0,0,0-.1.432.312.312,0,0,0,.428.094.312.312,0,0,0,.1-.427A.31.31,0,0,0,8391.027-2013.733Z" transform="translate(-8380.081 2025.267)" fill="#14152e"/>
          <path id="Path_33116" data-name="Path 33116" d="M8389.336-2012.691a.312.312,0,0,0-.1.432.313.313,0,0,0,.428.094.311.311,0,0,0,.1-.427A.31.31,0,0,0,8389.336-2012.691Z" transform="translate(-8379.479 2024.897)" fill="#14152e"/>
          <path id="Path_33117" data-name="Path 33117" d="M8387.646-2011.65a.311.311,0,0,0-.1.432.311.311,0,0,0,.428.094.311.311,0,0,0,.1-.426A.311.311,0,0,0,8387.646-2011.65Z" transform="translate(-8378.878 2024.526)" fill="#14152e"/>
          <path id="Path_33118" data-name="Path 33118" d="M8385.952-2010.608a.311.311,0,0,0-.1.432.312.312,0,0,0,.428.094.312.312,0,0,0,.1-.427A.312.312,0,0,0,8385.952-2010.608Z" transform="translate(-8378.275 2024.156)" fill="#14152e"/>
          <path id="Path_33119" data-name="Path 33119" d="M8384.265-2009.566a.311.311,0,0,0-.1.432.311.311,0,0,0,.427.094.311.311,0,0,0,.1-.427A.311.311,0,0,0,8384.265-2009.566Z" transform="translate(-8377.677 2023.785)" fill="#14152e"/>
          <path id="Path_33120" data-name="Path 33120" d="M8382.572-2008.525a.311.311,0,0,0-.1.432.312.312,0,0,0,.428.094.311.311,0,0,0,.1-.426A.311.311,0,0,0,8382.572-2008.525Z" transform="translate(-8377.073 2023.415)" fill="#14152e"/>
          <path id="Path_33121" data-name="Path 33121" d="M8380.883-2007.483a.313.313,0,0,0-.1.432.312.312,0,0,0,.428.094.311.311,0,0,0,.1-.426A.311.311,0,0,0,8380.883-2007.483Z" transform="translate(-8376.474 2023.044)" fill="#14152e"/>
          <path id="Path_33122" data-name="Path 33122" d="M8379.192-2006.441a.31.31,0,0,0-.1.432.312.312,0,0,0,.428.094.311.311,0,0,0,.1-.427A.311.311,0,0,0,8379.192-2006.441Z" transform="translate(-8375.871 2022.674)" fill="#14152e"/>
          <path id="Path_33123" data-name="Path 33123" d="M8377.5-2005.4a.314.314,0,0,0-.1.432.312.312,0,0,0,.428.094.311.311,0,0,0,.1-.426A.313.313,0,0,0,8377.5-2005.4Z" transform="translate(-8375.271 2022.303)" fill="#14152e"/>
          <path id="Path_33124" data-name="Path 33124" d="M8375.812-2004.358a.311.311,0,0,0-.1.432.311.311,0,0,0,.428.094.312.312,0,0,0,.1-.426A.311.311,0,0,0,8375.812-2004.358Z" transform="translate(-8374.669 2021.933)" fill="#14152e"/>
          <path id="Path_33125" data-name="Path 33125" d="M8411.5-2031.563a.313.313,0,0,0-.1.432.313.313,0,0,0,.429.094.312.312,0,0,0,.1-.427A.311.311,0,0,0,8411.5-2031.563Z" transform="translate(-8387.365 2031.609)" fill="#14152e"/>
          <path id="Path_33126" data-name="Path 33126" d="M8409.814-2030.521a.31.31,0,0,0-.1.432.312.312,0,0,0,.428.094.31.31,0,0,0,.1-.427A.31.31,0,0,0,8409.814-2030.521Z" transform="translate(-8386.763 2031.239)" fill="#14152e"/>
          <path id="Path_33127" data-name="Path 33127" d="M8408.124-2029.48a.313.313,0,0,0-.1.432.312.312,0,0,0,.428.094.312.312,0,0,0,.1-.426A.311.311,0,0,0,8408.124-2029.48Z" transform="translate(-8386.162 2030.868)" fill="#14152e"/>
          <path id="Path_33128" data-name="Path 33128" d="M8406.434-2028.438a.313.313,0,0,0-.1.432.312.312,0,0,0,.428.094.311.311,0,0,0,.1-.427A.311.311,0,0,0,8406.434-2028.438Z" transform="translate(-8385.561 2030.498)" fill="#14152e"/>
          <path id="Path_33129" data-name="Path 33129" d="M8404.743-2027.4a.312.312,0,0,0-.1.432.313.313,0,0,0,.428.094.312.312,0,0,0,.1-.427A.311.311,0,0,0,8404.743-2027.4Z" transform="translate(-8384.96 2030.127)" fill="#14152e"/>
          <path id="Path_33130" data-name="Path 33130" d="M8403.051-2026.355a.312.312,0,0,0-.1.432.312.312,0,0,0,.428.094.31.31,0,0,0,.1-.426A.311.311,0,0,0,8403.051-2026.355Z" transform="translate(-8384.356 2029.756)" fill="#14152e"/>
          <path id="Path_33131" data-name="Path 33131" d="M8401.362-2025.313a.313.313,0,0,0-.1.432.313.313,0,0,0,.428.094.312.312,0,0,0,.1-.427A.312.312,0,0,0,8401.362-2025.313Z" transform="translate(-8383.757 2029.386)" fill="#14152e"/>
          <path id="Path_33132" data-name="Path 33132" d="M8399.671-2024.271a.313.313,0,0,0-.1.432.314.314,0,0,0,.429.094.311.311,0,0,0,.1-.427A.311.311,0,0,0,8399.671-2024.271Z" transform="translate(-8383.155 2029.016)" fill="#14152e"/>
          <path id="Path_33133" data-name="Path 33133" d="M8397.981-2023.23a.311.311,0,0,0-.1.432.312.312,0,0,0,.428.094.312.312,0,0,0,.1-.426A.311.311,0,0,0,8397.981-2023.23Z" transform="translate(-8382.554 2028.645)" fill="#14152e"/>
          <path id="Path_33134" data-name="Path 33134" d="M8396.29-2022.188a.312.312,0,0,0-.1.432.311.311,0,0,0,.427.094.312.312,0,0,0,.1-.426A.313.313,0,0,0,8396.29-2022.188Z" transform="translate(-8381.954 2028.274)" fill="#14152e"/>
          <path id="Path_33135" data-name="Path 33135" d="M8394.6-2021.146a.311.311,0,0,0-.1.432.312.312,0,0,0,.428.094.312.312,0,0,0,.1-.427A.311.311,0,0,0,8394.6-2021.146Z" transform="translate(-8381.352 2027.904)" fill="#14152e"/>
          <path id="Path_33136" data-name="Path 33136" d="M8392.909-2020.105a.313.313,0,0,0-.1.432.312.312,0,0,0,.428.094.312.312,0,0,0,.1-.426A.311.311,0,0,0,8392.909-2020.105Z" transform="translate(-8380.75 2027.534)" fill="#14152e"/>
          <path id="Path_33137" data-name="Path 33137" d="M8391.217-2019.063a.309.309,0,0,0-.1.432.309.309,0,0,0,.426.094.31.31,0,0,0,.1-.426A.311.311,0,0,0,8391.217-2019.063Z" transform="translate(-8380.148 2027.163)" fill="#14152e"/>
          <path id="Path_33138" data-name="Path 33138" d="M8389.528-2018.021a.311.311,0,0,0-.1.432.312.312,0,0,0,.428.094.313.313,0,0,0,.1-.427A.311.311,0,0,0,8389.528-2018.021Z" transform="translate(-8379.549 2026.793)" fill="#14152e"/>
          <path id="Path_33139" data-name="Path 33139" d="M8387.838-2016.98a.313.313,0,0,0-.1.432.313.313,0,0,0,.429.094.311.311,0,0,0,.1-.426A.31.31,0,0,0,8387.838-2016.98Z" transform="translate(-8378.947 2026.422)" fill="#14152e"/>
          <path id="Path_33140" data-name="Path 33140" d="M8386.146-2015.938a.311.311,0,0,0-.1.432.312.312,0,0,0,.428.094.31.31,0,0,0,.1-.426A.311.311,0,0,0,8386.146-2015.938Z" transform="translate(-8378.345 2026.052)" fill="#14152e"/>
          <path id="Path_33141" data-name="Path 33141" d="M8384.456-2014.9a.312.312,0,0,0-.1.432.312.312,0,0,0,.428.094.313.313,0,0,0,.1-.427A.311.311,0,0,0,8384.456-2014.9Z" transform="translate(-8377.745 2025.681)" fill="#14152e"/>
          <path id="Path_33142" data-name="Path 33142" d="M8382.766-2013.855a.313.313,0,0,0-.1.432.312.312,0,0,0,.428.094.31.31,0,0,0,.1-.426A.311.311,0,0,0,8382.766-2013.855Z" transform="translate(-8377.144 2025.311)" fill="#14152e"/>
          <path id="Path_33143" data-name="Path 33143" d="M8381.075-2012.813a.312.312,0,0,0-.1.432.312.312,0,0,0,.428.094.311.311,0,0,0,.1-.426A.311.311,0,0,0,8381.075-2012.813Z" transform="translate(-8376.542 2024.94)" fill="#14152e"/>
          <path id="Path_33144" data-name="Path 33144" d="M8379.383-2011.771a.312.312,0,0,0-.1.432.312.312,0,0,0,.428.094.311.311,0,0,0,.1-.426A.311.311,0,0,0,8379.383-2011.771Z" transform="translate(-8375.938 2024.57)" fill="#14152e"/>
          <path id="Path_33145" data-name="Path 33145" d="M8377.694-2010.73a.313.313,0,0,0-.1.432.312.312,0,0,0,.428.094.311.311,0,0,0,.1-.426A.312.312,0,0,0,8377.694-2010.73Z" transform="translate(-8375.34 2024.199)" fill="#14152e"/>
          <path id="Path_33146" data-name="Path 33146" d="M8376-2009.688a.312.312,0,0,0-.1.432.313.313,0,0,0,.429.094.311.311,0,0,0,.1-.426A.311.311,0,0,0,8376-2009.688Z" transform="translate(-8374.738 2023.828)" fill="#14152e"/>
          <path id="Path_33147" data-name="Path 33147" d="M8374.313-2008.646a.312.312,0,0,0-.1.432.313.313,0,0,0,.428.094.313.313,0,0,0,.1-.427A.312.312,0,0,0,8374.313-2008.646Z" transform="translate(-8374.136 2023.458)" fill="#14152e"/>
          <path id="Path_33148" data-name="Path 33148" d="M8411.462-2029.778a.311.311,0,0,0-.1.432.312.312,0,0,0,.428.094.313.313,0,0,0,.1-.426A.311.311,0,0,0,8411.462-2029.778Z" transform="translate(-8387.35 2030.974)" fill="#14152e"/>
          <path id="Path_33149" data-name="Path 33149" d="M8409.771-2028.736a.312.312,0,0,0-.1.432.312.312,0,0,0,.428.094.311.311,0,0,0,.1-.427A.311.311,0,0,0,8409.771-2028.736Z" transform="translate(-8386.748 2030.604)" fill="#14152e"/>
          <path id="Path_33150" data-name="Path 33150" d="M8408.081-2027.7a.312.312,0,0,0-.1.432.312.312,0,0,0,.428.094.312.312,0,0,0,.1-.426A.312.312,0,0,0,8408.081-2027.7Z" transform="translate(-8386.146 2030.233)" fill="#14152e"/>
          <path id="Path_33151" data-name="Path 33151" d="M8406.39-2026.653a.311.311,0,0,0-.1.432.312.312,0,0,0,.428.094.31.31,0,0,0,.1-.426A.311.311,0,0,0,8406.39-2026.653Z" transform="translate(-8385.544 2029.863)" fill="#14152e"/>
          <path id="Path_33152" data-name="Path 33152" d="M8404.7-2025.611a.312.312,0,0,0-.1.432.312.312,0,0,0,.428.094.312.312,0,0,0,.1-.426A.311.311,0,0,0,8404.7-2025.611Z" transform="translate(-8384.944 2029.492)" fill="#14152e"/>
          <path id="Path_33153" data-name="Path 33153" d="M8403.009-2024.57a.313.313,0,0,0-.1.432.312.312,0,0,0,.428.094.313.313,0,0,0,.1-.426A.312.312,0,0,0,8403.009-2024.57Z" transform="translate(-8384.343 2029.122)" fill="#14152e"/>
          <path id="Path_33154" data-name="Path 33154" d="M8401.316-2023.528a.312.312,0,0,0-.1.432.312.312,0,0,0,.428.094.311.311,0,0,0,.1-.426A.31.31,0,0,0,8401.316-2023.528Z" transform="translate(-8383.739 2028.751)" fill="#14152e"/>
          <path id="Path_33155" data-name="Path 33155" d="M8399.628-2022.486a.313.313,0,0,0-.1.432.313.313,0,0,0,.428.094.312.312,0,0,0,.1-.427A.311.311,0,0,0,8399.628-2022.486Z" transform="translate(-8383.14 2028.38)" fill="#14152e"/>
          <path id="Path_33156" data-name="Path 33156" d="M8397.935-2021.445a.312.312,0,0,0-.1.432.311.311,0,0,0,.428.094.311.311,0,0,0,.1-.426A.311.311,0,0,0,8397.935-2021.445Z" transform="translate(-8382.538 2028.01)" fill="#14152e"/>
          <path id="Path_33157" data-name="Path 33157" d="M8396.247-2020.4a.311.311,0,0,0-.1.432.312.312,0,0,0,.428.094.311.311,0,0,0,.1-.426A.312.312,0,0,0,8396.247-2020.4Z" transform="translate(-8381.938 2027.64)" fill="#14152e"/>
          <path id="Path_33158" data-name="Path 33158" d="M8394.556-2019.361a.311.311,0,0,0-.1.432.312.312,0,0,0,.428.094.312.312,0,0,0,.1-.427A.311.311,0,0,0,8394.556-2019.361Z" transform="translate(-8381.337 2027.269)" fill="#14152e"/>
          <path id="Path_33159" data-name="Path 33159" d="M8392.865-2018.32a.311.311,0,0,0-.1.433.31.31,0,0,0,.427.093.31.31,0,0,0,.1-.426A.311.311,0,0,0,8392.865-2018.32Z" transform="translate(-8380.735 2026.899)" fill="#14152e"/>
          <path id="Path_33160" data-name="Path 33160" d="M8391.175-2017.278a.312.312,0,0,0-.1.432.312.312,0,0,0,.428.094.31.31,0,0,0,.1-.426A.311.311,0,0,0,8391.175-2017.278Z" transform="translate(-8380.134 2026.528)" fill="#14152e"/>
          <path id="Path_33161" data-name="Path 33161" d="M8389.482-2016.236a.311.311,0,0,0-.1.432.312.312,0,0,0,.428.094.311.311,0,0,0,.1-.427A.31.31,0,0,0,8389.482-2016.236Z" transform="translate(-8379.531 2026.158)" fill="#14152e"/>
          <path id="Path_33162" data-name="Path 33162" d="M8387.794-2015.194a.312.312,0,0,0-.1.432.312.312,0,0,0,.427.094.312.312,0,0,0,.1-.427A.31.31,0,0,0,8387.794-2015.194Z" transform="translate(-8378.932 2025.787)" fill="#14152e"/>
          <path id="Path_33163" data-name="Path 33163" d="M8386.1-2014.153a.313.313,0,0,0-.1.432.311.311,0,0,0,.428.094.31.31,0,0,0,.1-.426A.312.312,0,0,0,8386.1-2014.153Z" transform="translate(-8378.328 2025.417)" fill="#14152e"/>
          <path id="Path_33164" data-name="Path 33164" d="M8384.413-2013.111a.312.312,0,0,0-.1.432.312.312,0,0,0,.428.094.313.313,0,0,0,.1-.427A.312.312,0,0,0,8384.413-2013.111Z" transform="translate(-8377.729 2025.046)" fill="#14152e"/>
          <path id="Path_33165" data-name="Path 33165" d="M8382.722-2012.069a.31.31,0,0,0-.1.432.312.312,0,0,0,.428.094.311.311,0,0,0,.1-.426A.31.31,0,0,0,8382.722-2012.069Z" transform="translate(-8377.127 2024.676)" fill="#14152e"/>
          <path id="Path_33166" data-name="Path 33166" d="M8381.032-2011.028a.312.312,0,0,0-.1.432.312.312,0,0,0,.428.094.311.311,0,0,0,.1-.426A.312.312,0,0,0,8381.032-2011.028Z" transform="translate(-8376.526 2024.305)" fill="#14152e"/>
          <path id="Path_33167" data-name="Path 33167" d="M8379.341-2009.986a.312.312,0,0,0-.1.432.312.312,0,0,0,.428.094.314.314,0,0,0,.1-.427A.312.312,0,0,0,8379.341-2009.986Z" transform="translate(-8375.924 2023.935)" fill="#14152e"/>
          <path id="Path_33168" data-name="Path 33168" d="M8377.648-2008.944a.312.312,0,0,0-.1.432.312.312,0,0,0,.428.094.311.311,0,0,0,.1-.427A.309.309,0,0,0,8377.648-2008.944Z" transform="translate(-8375.321 2023.564)" fill="#14152e"/>
          <path id="Path_33169" data-name="Path 33169" d="M8375.96-2007.9a.312.312,0,0,0-.1.432.312.312,0,0,0,.428.094.312.312,0,0,0,.1-.426A.311.311,0,0,0,8375.96-2007.9Z" transform="translate(-8374.723 2023.194)" fill="#14152e"/>
          <path id="Path_33170" data-name="Path 33170" d="M8374.267-2006.861a.312.312,0,0,0-.1.432.312.312,0,0,0,.428.094.311.311,0,0,0,.1-.427A.311.311,0,0,0,8374.267-2006.861Z" transform="translate(-8374.119 2022.823)" fill="#14152e"/>
        </g>
        <path id="Path_33171" data-name="Path 33171" d="M8409.657-2033.726a.312.312,0,0,0-.1.432.311.311,0,0,0,.427.094.311.311,0,0,0,.1-.427A.311.311,0,0,0,8409.657-2033.726Z" transform="translate(-8384.552 2052.615)" fill="#14152e"/>
        <path id="Path_33172" data-name="Path 33172" d="M8407.966-2032.685a.311.311,0,0,0-.1.432.311.311,0,0,0,.428.094.311.311,0,0,0,.1-.426A.311.311,0,0,0,8407.966-2032.685Z" transform="translate(-8383.95 2052.244)" fill="#14152e"/>
        <path id="Path_33173" data-name="Path 33173" d="M8406.276-2031.643a.31.31,0,0,0-.1.432.312.312,0,0,0,.428.094.313.313,0,0,0,.1-.427A.311.311,0,0,0,8406.276-2031.643Z" transform="translate(-8383.348 2051.874)" fill="#14152e"/>
        <path id="Path_33174" data-name="Path 33174" d="M8404.585-2030.6a.313.313,0,0,0-.1.432.313.313,0,0,0,.428.094.311.311,0,0,0,.1-.427A.312.312,0,0,0,8404.585-2030.6Z" transform="translate(-8382.747 2051.503)" fill="#14152e"/>
        <path id="Path_33175" data-name="Path 33175" d="M8402.895-2029.56a.311.311,0,0,0-.1.432.311.311,0,0,0,.428.094.311.311,0,0,0,.1-.426A.311.311,0,0,0,8402.895-2029.56Z" transform="translate(-8382.146 2051.133)" fill="#14152e"/>
        <path id="Path_33176" data-name="Path 33176" d="M8401.2-2028.518a.312.312,0,0,0-.1.432.311.311,0,0,0,.427.094.313.313,0,0,0,.1-.427A.312.312,0,0,0,8401.2-2028.518Z" transform="translate(-8381.545 2050.762)" fill="#14152e"/>
        <path id="Path_33177" data-name="Path 33177" d="M8399.514-2027.476a.313.313,0,0,0-.1.432.313.313,0,0,0,.428.094.311.311,0,0,0,.1-.427A.311.311,0,0,0,8399.514-2027.476Z" transform="translate(-8380.943 2050.392)" fill="#14152e"/>
        <path id="Path_33178" data-name="Path 33178" d="M8397.823-2026.435a.312.312,0,0,0-.1.432.311.311,0,0,0,.428.094.313.313,0,0,0,.1-.426A.311.311,0,0,0,8397.823-2026.435Z" transform="translate(-8380.342 2050.021)" fill="#14152e"/>
        <path id="Path_33179" data-name="Path 33179" d="M8396.132-2025.393a.312.312,0,0,0-.1.432.312.312,0,0,0,.428.094.311.311,0,0,0,.1-.426A.311.311,0,0,0,8396.132-2025.393Z" transform="translate(-8379.741 2049.651)" fill="#14152e"/>
        <path id="Path_33180" data-name="Path 33180" d="M8394.442-2024.351a.311.311,0,0,0-.1.432.312.312,0,0,0,.428.094.313.313,0,0,0,.1-.427A.311.311,0,0,0,8394.442-2024.351Z" transform="translate(-8379.14 2049.28)" fill="#14152e"/>
        <path id="Path_33181" data-name="Path 33181" d="M8392.751-2023.31a.313.313,0,0,0-.1.432.312.312,0,0,0,.428.094.311.311,0,0,0,.1-.426A.311.311,0,0,0,8392.751-2023.31Z" transform="translate(-8378.538 2048.91)" fill="#14152e"/>
        <path id="Path_33182" data-name="Path 33182" d="M8391.061-2022.268a.311.311,0,0,0-.1.432.312.312,0,0,0,.428.094.309.309,0,0,0,.1-.426A.31.31,0,0,0,8391.061-2022.268Z" transform="translate(-8377.936 2048.539)" fill="#14152e"/>
        <path id="Path_33183" data-name="Path 33183" d="M8389.37-2021.226a.313.313,0,0,0-.1.432.312.312,0,0,0,.428.094.314.314,0,0,0,.1-.427A.312.312,0,0,0,8389.37-2021.226Z" transform="translate(-8377.337 2048.169)" fill="#14152e"/>
        <path id="Path_33184" data-name="Path 33184" d="M8387.68-2020.185a.311.311,0,0,0-.1.432.311.311,0,0,0,.428.094.312.312,0,0,0,.1-.426A.311.311,0,0,0,8387.68-2020.185Z" transform="translate(-8376.734 2047.798)" fill="#14152e"/>
        <path id="Path_33185" data-name="Path 33185" d="M8385.989-2019.143a.313.313,0,0,0-.1.432.312.312,0,0,0,.428.094.31.31,0,0,0,.1-.426A.311.311,0,0,0,8385.989-2019.143Z" transform="translate(-8376.133 2047.428)" fill="#14152e"/>
        <path id="Path_33186" data-name="Path 33186" d="M8384.3-2018.1a.312.312,0,0,0-.1.432.312.312,0,0,0,.428.094.312.312,0,0,0,.1-.427A.311.311,0,0,0,8384.3-2018.1Z" transform="translate(-8375.531 2047.057)" fill="#14152e"/>
        <path id="Path_33187" data-name="Path 33187" d="M8382.608-2017.06a.31.31,0,0,0-.1.432.311.311,0,0,0,.428.094.313.313,0,0,0,.1-.426A.311.311,0,0,0,8382.608-2017.06Z" transform="translate(-8374.93 2046.687)" fill="#14152e"/>
        <path id="Path_33188" data-name="Path 33188" d="M8380.917-2016.018a.313.313,0,0,0-.1.432.312.312,0,0,0,.428.094.31.31,0,0,0,.1-.426A.313.313,0,0,0,8380.917-2016.018Z" transform="translate(-8374.33 2046.316)" fill="#14152e"/>
        <path id="Path_33189" data-name="Path 33189" d="M8379.227-2014.976a.311.311,0,0,0-.1.432.312.312,0,0,0,.428.094.312.312,0,0,0,.1-.427A.311.311,0,0,0,8379.227-2014.976Z" transform="translate(-8373.728 2045.946)" fill="#14152e"/>
        <path id="Path_33190" data-name="Path 33190" d="M8377.536-2013.935a.312.312,0,0,0-.1.432.31.31,0,0,0,.427.094.312.312,0,0,0,.1-.426A.311.311,0,0,0,8377.536-2013.935Z" transform="translate(-8373.127 2045.575)" fill="#14152e"/>
        <path id="Path_33191" data-name="Path 33191" d="M8375.844-2012.893a.311.311,0,0,0-.1.432.311.311,0,0,0,.427.094.31.31,0,0,0,.1-.426A.311.311,0,0,0,8375.844-2012.893Z" transform="translate(-8372.522 2045.205)" fill="#14152e"/>
        <path id="Path_33192" data-name="Path 33192" d="M8374.155-2011.851a.311.311,0,0,0-.1.432.312.312,0,0,0,.428.094.313.313,0,0,0,.1-.427A.311.311,0,0,0,8374.155-2011.851Z" transform="translate(-8371.925 2044.834)" fill="#14152e"/>
        <path id="Path_33193" data-name="Path 33193" d="M8372.464-2010.81a.312.312,0,0,0-.1.432.311.311,0,0,0,.428.094.31.31,0,0,0,.1-.426A.311.311,0,0,0,8372.464-2010.81Z" transform="translate(-8371.323 2044.464)" fill="#14152e"/>
        <path id="Path_33194" data-name="Path 33194" d="M8409.613-2031.941a.311.311,0,0,0-.1.432.312.312,0,0,0,.428.094.311.311,0,0,0,.1-.427A.311.311,0,0,0,8409.613-2031.941Z" transform="translate(-8384.536 2051.98)" fill="#14152e"/>
        <path id="Path_33195" data-name="Path 33195" d="M8407.923-2030.9a.312.312,0,0,0-.1.432.312.312,0,0,0,.428.094.312.312,0,0,0,.1-.426A.311.311,0,0,0,8407.923-2030.9Z" transform="translate(-8383.934 2051.609)" fill="#14152e"/>
        <path id="Path_33196" data-name="Path 33196" d="M8406.23-2029.858a.311.311,0,0,0-.1.432.312.312,0,0,0,.428.094.311.311,0,0,0,.1-.426A.31.31,0,0,0,8406.23-2029.858Z" transform="translate(-8383.331 2051.239)" fill="#14152e"/>
        <path id="Path_33197" data-name="Path 33197" d="M8404.542-2028.816a.311.311,0,0,0-.1.432.312.312,0,0,0,.428.094.312.312,0,0,0,.1-.426A.311.311,0,0,0,8404.542-2028.816Z" transform="translate(-8382.731 2050.868)" fill="#14152e"/>
        <path id="Path_33198" data-name="Path 33198" d="M8402.851-2027.775a.312.312,0,0,0-.1.432.311.311,0,0,0,.428.094.311.311,0,0,0,.1-.426A.311.311,0,0,0,8402.851-2027.775Z" transform="translate(-8382.131 2050.498)" fill="#14152e"/>
        <path id="Path_33199" data-name="Path 33199" d="M8401.161-2026.733a.311.311,0,0,0-.1.432.312.312,0,0,0,.428.094.311.311,0,0,0,.1-.426A.312.312,0,0,0,8401.161-2026.733Z" transform="translate(-8381.529 2050.127)" fill="#14152e"/>
        <path id="Path_33200" data-name="Path 33200" d="M8399.47-2025.691a.31.31,0,0,0-.1.432.311.311,0,0,0,.427.094.312.312,0,0,0,.1-.427A.311.311,0,0,0,8399.47-2025.691Z" transform="translate(-8380.927 2049.757)" fill="#14152e"/>
        <path id="Path_33201" data-name="Path 33201" d="M8397.78-2024.65a.312.312,0,0,0-.1.432.312.312,0,0,0,.428.094.312.312,0,0,0,.1-.426A.312.312,0,0,0,8397.78-2024.65Z" transform="translate(-8380.325 2049.386)" fill="#14152e"/>
        <path id="Path_33202" data-name="Path 33202" d="M8396.089-2023.608a.313.313,0,0,0-.1.432.312.312,0,0,0,.428.094.311.311,0,0,0,.1-.426A.312.312,0,0,0,8396.089-2023.608Z" transform="translate(-8379.726 2049.016)" fill="#14152e"/>
        <path id="Path_33203" data-name="Path 33203" d="M8394.4-2022.566a.312.312,0,0,0-.1.432.312.312,0,0,0,.428.094.311.311,0,0,0,.1-.427A.31.31,0,0,0,8394.4-2022.566Z" transform="translate(-8379.122 2048.645)" fill="#14152e"/>
        <path id="Path_33204" data-name="Path 33204" d="M8392.708-2021.525a.313.313,0,0,0-.1.433.312.312,0,0,0,.428.093.312.312,0,0,0,.1-.426A.312.312,0,0,0,8392.708-2021.525Z" transform="translate(-8378.522 2048.275)" fill="#14152e"/>
        <path id="Path_33205" data-name="Path 33205" d="M8391.017-2020.483a.312.312,0,0,0-.1.432.311.311,0,0,0,.428.094.311.311,0,0,0,.1-.426A.311.311,0,0,0,8391.017-2020.483Z" transform="translate(-8377.921 2047.904)" fill="#14152e"/>
        <path id="Path_33206" data-name="Path 33206" d="M8389.327-2019.441a.311.311,0,0,0-.1.432.312.312,0,0,0,.428.094.313.313,0,0,0,.1-.427A.311.311,0,0,0,8389.327-2019.441Z" transform="translate(-8377.32 2047.534)" fill="#14152e"/>
        <path id="Path_33207" data-name="Path 33207" d="M8387.636-2018.4a.31.31,0,0,0-.1.432.311.311,0,0,0,.427.094.314.314,0,0,0,.1-.427A.311.311,0,0,0,8387.636-2018.4Z" transform="translate(-8376.719 2047.163)" fill="#14152e"/>
        <path id="Path_33208" data-name="Path 33208" d="M8385.945-2017.358a.311.311,0,0,0-.1.432.311.311,0,0,0,.428.094.311.311,0,0,0,.1-.426A.311.311,0,0,0,8385.945-2017.358Z" transform="translate(-8376.117 2046.793)" fill="#14152e"/>
        <path id="Path_33209" data-name="Path 33209" d="M8384.255-2016.316a.312.312,0,0,0-.1.432.312.312,0,0,0,.428.094.313.313,0,0,0,.1-.427A.311.311,0,0,0,8384.255-2016.316Z" transform="translate(-8375.516 2046.422)" fill="#14152e"/>
        <path id="Path_33210" data-name="Path 33210" d="M8382.563-2015.274a.311.311,0,0,0-.1.432.312.312,0,0,0,.428.094.311.311,0,0,0,.1-.427A.309.309,0,0,0,8382.563-2015.274Z" transform="translate(-8374.913 2046.052)" fill="#14152e"/>
        <path id="Path_33211" data-name="Path 33211" d="M8380.874-2014.233a.311.311,0,0,0-.1.432.312.312,0,0,0,.428.094.312.312,0,0,0,.1-.426A.311.311,0,0,0,8380.874-2014.233Z" transform="translate(-8374.314 2045.681)" fill="#14152e"/>
        <path id="Path_33212" data-name="Path 33212" d="M8379.183-2013.191a.312.312,0,0,0-.1.432.312.312,0,0,0,.428.094.312.312,0,0,0,.1-.426A.311.311,0,0,0,8379.183-2013.191Z" transform="translate(-8373.713 2045.311)" fill="#14152e"/>
        <path id="Path_33213" data-name="Path 33213" d="M8377.493-2012.149a.311.311,0,0,0-.1.433.313.313,0,0,0,.428.094.312.312,0,0,0,.1-.427A.311.311,0,0,0,8377.493-2012.149Z" transform="translate(-8373.111 2044.941)" fill="#14152e"/>
        <path id="Path_33214" data-name="Path 33214" d="M8375.8-2011.108a.311.311,0,0,0-.1.432.31.31,0,0,0,.427.094.312.312,0,0,0,.1-.426A.311.311,0,0,0,8375.8-2011.108Z" transform="translate(-8372.509 2044.57)" fill="#14152e"/>
        <path id="Path_33215" data-name="Path 33215" d="M8374.112-2010.066a.311.311,0,0,0-.1.432.312.312,0,0,0,.428.094.31.31,0,0,0,.1-.427A.309.309,0,0,0,8374.112-2010.066Z" transform="translate(-8371.908 2044.199)" fill="#14152e"/>
        <path id="Path_33216" data-name="Path 33216" d="M8372.421-2009.024a.313.313,0,0,0-.1.432.313.313,0,0,0,.428.094.312.312,0,0,0,.1-.427A.312.312,0,0,0,8372.421-2009.024Z" transform="translate(-8371.307 2043.829)" fill="#14152e"/>
        <path id="Path_33217" data-name="Path 33217" d="M8408.115-2036.229a.311.311,0,0,0-.1.432.313.313,0,0,0,.428.094.311.311,0,0,0,.1-.427A.309.309,0,0,0,8408.115-2036.229Z" transform="translate(-8384.003 2053.505)" fill="#14152e"/>
        <path id="Path_33218" data-name="Path 33218" d="M8406.424-2035.188a.314.314,0,0,0-.1.432.312.312,0,0,0,.428.094.312.312,0,0,0,.1-.426A.312.312,0,0,0,8406.424-2035.188Z" transform="translate(-8383.401 2053.135)" fill="#14152e"/>
        <path id="Path_33219" data-name="Path 33219" d="M8404.733-2034.146a.311.311,0,0,0-.1.432.312.312,0,0,0,.428.094.311.311,0,0,0,.1-.427A.311.311,0,0,0,8404.733-2034.146Z" transform="translate(-8382.799 2052.764)" fill="#14152e"/>
        <path id="Path_33220" data-name="Path 33220" d="M8403.043-2033.1a.313.313,0,0,0-.1.432.313.313,0,0,0,.428.094.312.312,0,0,0,.1-.426A.312.312,0,0,0,8403.043-2033.1Z" transform="translate(-8382.197 2052.394)" fill="#14152e"/>
        <path id="Path_33221" data-name="Path 33221" d="M8401.353-2032.063a.311.311,0,0,0-.1.432.311.311,0,0,0,.428.094.312.312,0,0,0,.1-.426A.311.311,0,0,0,8401.353-2032.063Z" transform="translate(-8381.597 2052.023)" fill="#14152e"/>
        <path id="Path_33222" data-name="Path 33222" d="M8399.66-2031.021a.311.311,0,0,0-.1.432.312.312,0,0,0,.428.094.313.313,0,0,0,.1-.427A.311.311,0,0,0,8399.66-2031.021Z" transform="translate(-8380.994 2051.653)" fill="#14152e"/>
        <path id="Path_33223" data-name="Path 33223" d="M8397.971-2029.979a.313.313,0,0,0-.1.432.313.313,0,0,0,.428.094.312.312,0,0,0,.1-.427A.311.311,0,0,0,8397.971-2029.979Z" transform="translate(-8380.395 2051.282)" fill="#14152e"/>
        <path id="Path_33224" data-name="Path 33224" d="M8396.28-2028.938a.311.311,0,0,0-.1.432.311.311,0,0,0,.428.094.311.311,0,0,0,.1-.426A.311.311,0,0,0,8396.28-2028.938Z" transform="translate(-8379.793 2050.912)" fill="#14152e"/>
        <path id="Path_33225" data-name="Path 33225" d="M8394.59-2027.9a.313.313,0,0,0-.1.432.312.312,0,0,0,.428.094.312.312,0,0,0,.1-.427A.312.312,0,0,0,8394.59-2027.9Z" transform="translate(-8379.192 2050.541)" fill="#14152e"/>
        <path id="Path_33226" data-name="Path 33226" d="M8392.9-2026.854a.31.31,0,0,0-.1.432.312.312,0,0,0,.428.094.312.312,0,0,0,.1-.427A.31.31,0,0,0,8392.9-2026.854Z" transform="translate(-8378.591 2050.17)" fill="#14152e"/>
        <path id="Path_33227" data-name="Path 33227" d="M8391.206-2025.813a.312.312,0,0,0-.1.432.312.312,0,0,0,.428.094.313.313,0,0,0,.1-.426A.314.314,0,0,0,8391.206-2025.813Z" transform="translate(-8377.987 2049.8)" fill="#14152e"/>
        <path id="Path_33228" data-name="Path 33228" d="M8389.519-2024.771a.311.311,0,0,0-.1.432.312.312,0,0,0,.428.094.311.311,0,0,0,.1-.426A.311.311,0,0,0,8389.519-2024.771Z" transform="translate(-8377.388 2049.43)" fill="#14152e"/>
        <path id="Path_33229" data-name="Path 33229" d="M8387.825-2023.729a.311.311,0,0,0-.1.432.312.312,0,0,0,.428.094.313.313,0,0,0,.1-.427A.312.312,0,0,0,8387.825-2023.729Z" transform="translate(-8376.786 2049.059)" fill="#14152e"/>
        <path id="Path_33230" data-name="Path 33230" d="M8386.137-2022.688a.311.311,0,0,0-.1.432.309.309,0,0,0,.426.094.311.311,0,0,0,.1-.426A.312.312,0,0,0,8386.137-2022.688Z" transform="translate(-8376.187 2048.689)" fill="#14152e"/>
        <path id="Path_33231" data-name="Path 33231" d="M8384.447-2021.646a.31.31,0,0,0-.1.432.312.312,0,0,0,.428.094.311.311,0,0,0,.1-.426A.31.31,0,0,0,8384.447-2021.646Z" transform="translate(-8375.584 2048.318)" fill="#14152e"/>
        <path id="Path_33232" data-name="Path 33232" d="M8382.756-2020.6a.313.313,0,0,0-.1.432.312.312,0,0,0,.428.094.313.313,0,0,0,.1-.427A.312.312,0,0,0,8382.756-2020.6Z" transform="translate(-8374.983 2047.948)" fill="#14152e"/>
        <path id="Path_33233" data-name="Path 33233" d="M8381.065-2019.563a.311.311,0,0,0-.1.432.311.311,0,0,0,.428.094.31.31,0,0,0,.1-.426A.311.311,0,0,0,8381.065-2019.563Z" transform="translate(-8374.382 2047.577)" fill="#14152e"/>
        <path id="Path_33234" data-name="Path 33234" d="M8379.373-2018.521a.312.312,0,0,0-.1.432.312.312,0,0,0,.428.094.31.31,0,0,0,.1-.426A.311.311,0,0,0,8379.373-2018.521Z" transform="translate(-8373.779 2047.207)" fill="#14152e"/>
        <path id="Path_33235" data-name="Path 33235" d="M8377.685-2017.479a.311.311,0,0,0-.1.432.311.311,0,0,0,.428.094.313.313,0,0,0,.1-.426A.311.311,0,0,0,8377.685-2017.479Z" transform="translate(-8373.179 2046.836)" fill="#14152e"/>
        <path id="Path_33236" data-name="Path 33236" d="M8375.992-2016.438a.311.311,0,0,0-.1.432.312.312,0,0,0,.428.094.313.313,0,0,0,.1-.426A.311.311,0,0,0,8375.992-2016.438Z" transform="translate(-8372.576 2046.466)" fill="#14152e"/>
        <path id="Path_33237" data-name="Path 33237" d="M8374.3-2015.4a.313.313,0,0,0-.1.432.313.313,0,0,0,.428.094.311.311,0,0,0,.1-.426A.312.312,0,0,0,8374.3-2015.4Z" transform="translate(-8371.977 2046.095)" fill="#14152e"/>
        <path id="Path_33238" data-name="Path 33238" d="M8372.612-2014.354a.311.311,0,0,0-.1.433.312.312,0,0,0,.428.094.312.312,0,0,0,.1-.427A.311.311,0,0,0,8372.612-2014.354Z" transform="translate(-8371.375 2045.724)" fill="#14152e"/>
        <path id="Path_33239" data-name="Path 33239" d="M8370.922-2013.313a.314.314,0,0,0-.1.432.312.312,0,0,0,.428.094.311.311,0,0,0,.1-.426A.312.312,0,0,0,8370.922-2013.313Z" transform="translate(-8370.774 2045.354)" fill="#14152e"/>
        <path id="Path_33240" data-name="Path 33240" d="M8408.07-2034.444a.312.312,0,0,0-.1.432.312.312,0,0,0,.428.094.313.313,0,0,0,.1-.427A.312.312,0,0,0,8408.07-2034.444Z" transform="translate(-8383.987 2052.87)" fill="#14152e"/>
        <path id="Path_33241" data-name="Path 33241" d="M8406.38-2033.4a.312.312,0,0,0-.1.432.312.312,0,0,0,.428.094.311.311,0,0,0,.1-.426A.311.311,0,0,0,8406.38-2033.4Z" transform="translate(-8383.386 2052.5)" fill="#14152e"/>
        <path id="Path_33242" data-name="Path 33242" d="M8404.69-2032.361a.313.313,0,0,0-.1.432.312.312,0,0,0,.428.094.31.31,0,0,0,.1-.426A.311.311,0,0,0,8404.69-2032.361Z" transform="translate(-8382.784 2052.129)" fill="#14152e"/>
        <path id="Path_33243" data-name="Path 33243" d="M8403-2031.319a.311.311,0,0,0-.1.432.312.312,0,0,0,.428.094.311.311,0,0,0,.1-.426A.311.311,0,0,0,8403-2031.319Z" transform="translate(-8382.183 2051.759)" fill="#14152e"/>
        <path id="Path_33244" data-name="Path 33244" d="M8401.309-2030.278a.311.311,0,0,0-.1.432.311.311,0,0,0,.428.094.312.312,0,0,0,.1-.426A.312.312,0,0,0,8401.309-2030.278Z" transform="translate(-8381.582 2051.388)" fill="#14152e"/>
        <path id="Path_33245" data-name="Path 33245" d="M8399.619-2029.236a.312.312,0,0,0-.1.432.313.313,0,0,0,.429.094.313.313,0,0,0,.1-.426A.312.312,0,0,0,8399.619-2029.236Z" transform="translate(-8380.981 2051.017)" fill="#14152e"/>
        <path id="Path_33246" data-name="Path 33246" d="M8397.928-2028.194a.311.311,0,0,0-.1.432.311.311,0,0,0,.427.094.313.313,0,0,0,.1-.427A.311.311,0,0,0,8397.928-2028.194Z" transform="translate(-8380.379 2050.647)" fill="#14152e"/>
        <path id="Path_33247" data-name="Path 33247" d="M8396.237-2027.153a.312.312,0,0,0-.1.432.312.312,0,0,0,.428.094.312.312,0,0,0,.1-.426A.311.311,0,0,0,8396.237-2027.153Z" transform="translate(-8379.777 2050.277)" fill="#14152e"/>
        <path id="Path_33248" data-name="Path 33248" d="M8394.547-2026.111a.312.312,0,0,0-.1.432.312.312,0,0,0,.428.094.311.311,0,0,0,.1-.426A.311.311,0,0,0,8394.547-2026.111Z" transform="translate(-8379.178 2049.906)" fill="#14152e"/>
        <path id="Path_33249" data-name="Path 33249" d="M8392.856-2025.069a.311.311,0,0,0-.1.432.312.312,0,0,0,.428.094.314.314,0,0,0,.1-.427A.311.311,0,0,0,8392.856-2025.069Z" transform="translate(-8378.576 2049.535)" fill="#14152e"/>
        <path id="Path_33250" data-name="Path 33250" d="M8391.166-2024.028a.311.311,0,0,0-.1.432.311.311,0,0,0,.428.094.31.31,0,0,0,.1-.426A.31.31,0,0,0,8391.166-2024.028Z" transform="translate(-8377.975 2049.165)" fill="#14152e"/>
        <path id="Path_33251" data-name="Path 33251" d="M8389.475-2022.986a.312.312,0,0,0-.1.432.312.312,0,0,0,.428.094.312.312,0,0,0,.1-.426A.312.312,0,0,0,8389.475-2022.986Z" transform="translate(-8377.373 2048.795)" fill="#14152e"/>
        <path id="Path_33252" data-name="Path 33252" d="M8387.784-2021.944a.312.312,0,0,0-.1.432.313.313,0,0,0,.429.094.313.313,0,0,0,.1-.426A.311.311,0,0,0,8387.784-2021.944Z" transform="translate(-8376.772 2048.424)" fill="#14152e"/>
        <path id="Path_33253" data-name="Path 33253" d="M8386.094-2020.9a.312.312,0,0,0-.1.432.312.312,0,0,0,.428.094.31.31,0,0,0,.1-.426A.312.312,0,0,0,8386.094-2020.9Z" transform="translate(-8376.17 2048.054)" fill="#14152e"/>
        <path id="Path_33254" data-name="Path 33254" d="M8384.4-2019.861a.313.313,0,0,0-.1.432.311.311,0,0,0,.428.094.312.312,0,0,0,.1-.426A.312.312,0,0,0,8384.4-2019.861Z" transform="translate(-8375.569 2047.683)" fill="#14152e"/>
        <path id="Path_33255" data-name="Path 33255" d="M8382.712-2018.819a.311.311,0,0,0-.1.432.312.312,0,0,0,.428.094.311.311,0,0,0,.1-.427A.311.311,0,0,0,8382.712-2018.819Z" transform="translate(-8374.968 2047.313)" fill="#14152e"/>
        <path id="Path_33256" data-name="Path 33256" d="M8381.021-2017.778a.314.314,0,0,0-.1.433.312.312,0,0,0,.428.094.31.31,0,0,0,.1-.426A.312.312,0,0,0,8381.021-2017.778Z" transform="translate(-8374.367 2046.942)" fill="#14152e"/>
        <path id="Path_33257" data-name="Path 33257" d="M8379.331-2016.736a.312.312,0,0,0-.1.432.311.311,0,0,0,.428.094.311.311,0,0,0,.1-.426A.311.311,0,0,0,8379.331-2016.736Z" transform="translate(-8373.766 2046.572)" fill="#14152e"/>
        <path id="Path_33258" data-name="Path 33258" d="M8377.641-2015.694a.31.31,0,0,0-.1.432.31.31,0,0,0,.427.094.312.312,0,0,0,.1-.427A.312.312,0,0,0,8377.641-2015.694Z" transform="translate(-8373.164 2046.201)" fill="#14152e"/>
        <path id="Path_33259" data-name="Path 33259" d="M8375.951-2014.652a.312.312,0,0,0-.1.432.314.314,0,0,0,.429.094.313.313,0,0,0,.1-.427A.311.311,0,0,0,8375.951-2014.652Z" transform="translate(-8372.563 2045.831)" fill="#14152e"/>
        <path id="Path_33260" data-name="Path 33260" d="M8374.26-2013.611a.311.311,0,0,0-.1.432.31.31,0,0,0,.427.094.312.312,0,0,0,.1-.426A.311.311,0,0,0,8374.26-2013.611Z" transform="translate(-8371.961 2045.46)" fill="#14152e"/>
        <path id="Path_33261" data-name="Path 33261" d="M8372.569-2012.569a.313.313,0,0,0-.1.432.312.312,0,0,0,.428.094.312.312,0,0,0,.1-.427A.311.311,0,0,0,8372.569-2012.569Z" transform="translate(-8371.36 2045.09)" fill="#14152e"/>
        <path id="Path_33262" data-name="Path 33262" d="M8431.694-2040.579a.311.311,0,0,0-.1.432.312.312,0,0,0,.428.094.313.313,0,0,0,.1-.427A.312.312,0,0,0,8431.694-2040.579Z" transform="translate(-8392.387 2055.052)" fill="#14152e"/>
        <path id="Path_33263" data-name="Path 33263" d="M8430.006-2039.538a.312.312,0,0,0-.1.432.31.31,0,0,0,.427.094.31.31,0,0,0,.1-.426A.312.312,0,0,0,8430.006-2039.538Z" transform="translate(-8391.789 2054.682)" fill="#14152e"/>
        <path id="Path_33264" data-name="Path 33264" d="M8428.316-2038.5a.31.31,0,0,0-.1.432.312.312,0,0,0,.428.094.312.312,0,0,0,.1-.426A.311.311,0,0,0,8428.316-2038.5Z" transform="translate(-8391.187 2054.311)" fill="#14152e"/>
        <path id="Path_33265" data-name="Path 33265" d="M8426.625-2037.454a.312.312,0,0,0-.1.432.312.312,0,0,0,.428.094.314.314,0,0,0,.1-.427A.312.312,0,0,0,8426.625-2037.454Z" transform="translate(-8390.587 2053.94)" fill="#14152e"/>
        <path id="Path_33266" data-name="Path 33266" d="M8424.935-2036.413a.311.311,0,0,0-.1.432.311.311,0,0,0,.428.094.31.31,0,0,0,.1-.426A.311.311,0,0,0,8424.935-2036.413Z" transform="translate(-8389.984 2053.57)" fill="#14152e"/>
        <path id="Path_33267" data-name="Path 33267" d="M8423.241-2035.371a.311.311,0,0,0-.1.432.312.312,0,0,0,.428.094.311.311,0,0,0,.1-.426A.312.312,0,0,0,8423.241-2035.371Z" transform="translate(-8389.382 2053.2)" fill="#14152e"/>
        <path id="Path_33268" data-name="Path 33268" d="M8421.554-2034.329a.311.311,0,0,0-.1.432.311.311,0,0,0,.427.094.313.313,0,0,0,.1-.427A.311.311,0,0,0,8421.554-2034.329Z" transform="translate(-8388.782 2052.829)" fill="#14152e"/>
        <path id="Path_33269" data-name="Path 33269" d="M8419.86-2033.288a.311.311,0,0,0-.1.433.312.312,0,0,0,.428.093.312.312,0,0,0,.1-.426A.312.312,0,0,0,8419.86-2033.288Z" transform="translate(-8388.179 2052.459)" fill="#14152e"/>
        <path id="Path_33270" data-name="Path 33270" d="M8418.172-2032.246a.313.313,0,0,0-.1.432.312.312,0,0,0,.429.094.311.311,0,0,0,.1-.426A.311.311,0,0,0,8418.172-2032.246Z" transform="translate(-8387.58 2052.088)" fill="#14152e"/>
        <path id="Path_33271" data-name="Path 33271" d="M8416.481-2031.2a.31.31,0,0,0-.1.432.312.312,0,0,0,.428.094.311.311,0,0,0,.1-.427A.311.311,0,0,0,8416.481-2031.2Z" transform="translate(-8386.979 2051.718)" fill="#14152e"/>
        <path id="Path_33272" data-name="Path 33272" d="M8414.791-2030.162a.312.312,0,0,0-.1.432.313.313,0,0,0,.428.094.312.312,0,0,0,.1-.427A.312.312,0,0,0,8414.791-2030.162Z" transform="translate(-8386.378 2051.347)" fill="#14152e"/>
        <path id="Path_33273" data-name="Path 33273" d="M8424.891-2034.627a.311.311,0,0,0-.1.432.312.312,0,0,0,.428.094.311.311,0,0,0,.1-.427A.311.311,0,0,0,8424.891-2034.627Z" transform="translate(-8389.97 2052.935)" fill="#14152e"/>
        <path id="Path_33274" data-name="Path 33274" d="M8423.2-2033.586a.312.312,0,0,0-.1.432.311.311,0,0,0,.428.094.312.312,0,0,0,.1-.426A.311.311,0,0,0,8423.2-2033.586Z" transform="translate(-8389.369 2052.565)" fill="#14152e"/>
        <path id="Path_33275" data-name="Path 33275" d="M8421.51-2032.544a.312.312,0,0,0-.1.432.311.311,0,0,0,.427.094.311.311,0,0,0,.1-.427A.313.313,0,0,0,8421.51-2032.544Z" transform="translate(-8388.768 2052.194)" fill="#14152e"/>
        <path id="Path_33276" data-name="Path 33276" d="M8419.819-2031.5a.312.312,0,0,0-.1.432.313.313,0,0,0,.428.094.312.312,0,0,0,.1-.426A.311.311,0,0,0,8419.819-2031.5Z" transform="translate(-8388.166 2051.824)" fill="#14152e"/>
        <path id="Path_33277" data-name="Path 33277" d="M8418.127-2030.461a.312.312,0,0,0-.1.432.312.312,0,0,0,.428.094.312.312,0,0,0,.1-.426A.311.311,0,0,0,8418.127-2030.461Z" transform="translate(-8387.563 2051.453)" fill="#14152e"/>
        <path id="Path_33278" data-name="Path 33278" d="M8416.438-2029.419a.312.312,0,0,0-.1.432.312.312,0,0,0,.428.094.31.31,0,0,0,.1-.426A.312.312,0,0,0,8416.438-2029.419Z" transform="translate(-8386.964 2051.083)" fill="#14152e"/>
        <path id="Path_33279" data-name="Path 33279" d="M8414.747-2028.377a.311.311,0,0,0-.1.432.312.312,0,0,0,.428.094.312.312,0,0,0,.1-.427A.311.311,0,0,0,8414.747-2028.377Z" transform="translate(-8386.362 2050.712)" fill="#14152e"/>
        <path id="Path_33280" data-name="Path 33280" d="M8435.224-2046.207a.312.312,0,0,0-.1.432.312.312,0,0,0,.428.094.311.311,0,0,0,.1-.427A.311.311,0,0,0,8435.224-2046.207Z" transform="translate(-8393.644 2057.054)" fill="#14152e"/>
        <path id="Path_33281" data-name="Path 33281" d="M8433.536-2045.166a.311.311,0,0,0-.1.432.312.312,0,0,0,.428.094.311.311,0,0,0,.1-.426A.312.312,0,0,0,8433.536-2045.166Z" transform="translate(-8393.044 2056.684)" fill="#14152e"/>
        <path id="Path_33282" data-name="Path 33282" d="M8431.845-2044.124a.312.312,0,0,0-.1.432.311.311,0,0,0,.427.094.312.312,0,0,0,.1-.426A.312.312,0,0,0,8431.845-2044.124Z" transform="translate(-8392.443 2056.313)" fill="#14152e"/>
        <path id="Path_33283" data-name="Path 33283" d="M8430.155-2043.082a.31.31,0,0,0-.1.432.312.312,0,0,0,.428.094.312.312,0,0,0,.1-.427A.31.31,0,0,0,8430.155-2043.082Z" transform="translate(-8391.841 2055.942)" fill="#14152e"/>
        <path id="Path_33284" data-name="Path 33284" d="M8428.464-2042.041a.312.312,0,0,0-.1.432.312.312,0,0,0,.428.094.31.31,0,0,0,.1-.426A.311.311,0,0,0,8428.464-2042.041Z" transform="translate(-8391.24 2055.572)" fill="#14152e"/>
        <path id="Path_33285" data-name="Path 33285" d="M8426.774-2041a.312.312,0,0,0-.1.432.312.312,0,0,0,.428.094.311.311,0,0,0,.1-.426A.31.31,0,0,0,8426.774-2041Z" transform="translate(-8390.64 2055.201)" fill="#14152e"/>
        <path id="Path_33286" data-name="Path 33286" d="M8425.083-2039.957a.311.311,0,0,0-.1.432.312.312,0,0,0,.428.094.313.313,0,0,0,.1-.427A.311.311,0,0,0,8425.083-2039.957Z" transform="translate(-8390.038 2054.831)" fill="#14152e"/>
        <path id="Path_33287" data-name="Path 33287" d="M8423.39-2038.916a.312.312,0,0,0-.1.432.311.311,0,0,0,.428.094.312.312,0,0,0,.1-.426A.312.312,0,0,0,8423.39-2038.916Z" transform="translate(-8389.435 2054.46)" fill="#14152e"/>
        <path id="Path_33288" data-name="Path 33288" d="M8421.7-2037.874a.311.311,0,0,0-.1.432.312.312,0,0,0,.428.094.313.313,0,0,0,.1-.426A.311.311,0,0,0,8421.7-2037.874Z" transform="translate(-8388.836 2054.09)" fill="#14152e"/>
        <path id="Path_33289" data-name="Path 33289" d="M8420.011-2036.832a.312.312,0,0,0-.1.432.311.311,0,0,0,.427.094.311.311,0,0,0,.1-.427A.311.311,0,0,0,8420.011-2036.832Z" transform="translate(-8388.234 2053.719)" fill="#14152e"/>
        <path id="Path_33290" data-name="Path 33290" d="M8418.321-2035.791a.311.311,0,0,0-.1.432.312.312,0,0,0,.428.094.311.311,0,0,0,.1-.426A.312.312,0,0,0,8418.321-2035.791Z" transform="translate(-8387.632 2053.349)" fill="#14152e"/>
        <path id="Path_33291" data-name="Path 33291" d="M8416.63-2034.749a.313.313,0,0,0-.1.432.312.312,0,0,0,.428.094.312.312,0,0,0,.1-.426A.312.312,0,0,0,8416.63-2034.749Z" transform="translate(-8387.03 2052.979)" fill="#14152e"/>
        <path id="Path_33292" data-name="Path 33292" d="M8414.94-2033.707a.31.31,0,0,0-.1.432.311.311,0,0,0,.428.094.31.31,0,0,0,.1-.426A.31.31,0,0,0,8414.94-2033.707Z" transform="translate(-8386.43 2052.608)" fill="#14152e"/>
        <path id="Path_33293" data-name="Path 33293" d="M8413.249-2032.666a.313.313,0,0,0-.1.433.312.312,0,0,0,.428.093.311.311,0,0,0,.1-.426A.311.311,0,0,0,8413.249-2032.666Z" transform="translate(-8385.829 2052.238)" fill="#14152e"/>
        <path id="Path_33294" data-name="Path 33294" d="M8433.492-2043.381a.313.313,0,0,0-.1.433.312.312,0,0,0,.428.094.312.312,0,0,0,.1-.426A.313.313,0,0,0,8433.492-2043.381Z" transform="translate(-8393.029 2056.049)" fill="#14152e"/>
        <path id="Path_33295" data-name="Path 33295" d="M8431.8-2042.339a.311.311,0,0,0-.1.432.31.31,0,0,0,.427.094.312.312,0,0,0,.1-.426A.311.311,0,0,0,8431.8-2042.339Z" transform="translate(-8392.427 2055.678)" fill="#14152e"/>
        <path id="Path_33296" data-name="Path 33296" d="M8430.111-2041.3a.31.31,0,0,0-.1.432.312.312,0,0,0,.428.094.311.311,0,0,0,.1-.426A.31.31,0,0,0,8430.111-2041.3Z" transform="translate(-8391.825 2055.308)" fill="#14152e"/>
        <path id="Path_33297" data-name="Path 33297" d="M8428.421-2040.255a.312.312,0,0,0-.1.432.313.313,0,0,0,.428.094.313.313,0,0,0,.1-.427A.311.311,0,0,0,8428.421-2040.255Z" transform="translate(-8391.226 2054.937)" fill="#14152e"/>
        <path id="Path_33298" data-name="Path 33298" d="M8426.729-2039.214a.311.311,0,0,0-.1.432.311.311,0,0,0,.428.094.312.312,0,0,0,.1-.426A.311.311,0,0,0,8426.729-2039.214Z" transform="translate(-8390.623 2054.566)" fill="#14152e"/>
        <path id="Path_33299" data-name="Path 33299" d="M8425.04-2038.172a.312.312,0,0,0-.1.432.312.312,0,0,0,.428.094.312.312,0,0,0,.1-.427A.311.311,0,0,0,8425.04-2038.172Z" transform="translate(-8390.022 2054.196)" fill="#14152e"/>
        <path id="Path_33300" data-name="Path 33300" d="M8423.349-2037.13a.31.31,0,0,0-.1.432.313.313,0,0,0,.428.094.313.313,0,0,0,.1-.426A.312.312,0,0,0,8423.349-2037.13Z" transform="translate(-8389.42 2053.825)" fill="#14152e"/>
        <path id="Path_33301" data-name="Path 33301" d="M8421.658-2036.089a.313.313,0,0,0-.1.432.312.312,0,0,0,.428.094.313.313,0,0,0,.1-.426A.312.312,0,0,0,8421.658-2036.089Z" transform="translate(-8388.82 2053.455)" fill="#14152e"/>
        <path id="Path_33302" data-name="Path 33302" d="M8419.968-2035.047a.311.311,0,0,0-.1.432.311.311,0,0,0,.427.094.311.311,0,0,0,.1-.427A.311.311,0,0,0,8419.968-2035.047Z" transform="translate(-8388.218 2053.084)" fill="#14152e"/>
        <path id="Path_33303" data-name="Path 33303" d="M8418.276-2034.005a.31.31,0,0,0-.1.432.313.313,0,0,0,.428.094.312.312,0,0,0,.1-.427A.311.311,0,0,0,8418.276-2034.005Z" transform="translate(-8387.616 2052.714)" fill="#14152e"/>
        <path id="Path_33304" data-name="Path 33304" d="M8416.587-2032.964a.311.311,0,0,0-.1.432.31.31,0,0,0,.427.094.312.312,0,0,0,.1-.426A.311.311,0,0,0,8416.587-2032.964Z" transform="translate(-8387.016 2052.344)" fill="#14152e"/>
        <path id="Path_33305" data-name="Path 33305" d="M8414.9-2031.922a.311.311,0,0,0-.1.432.312.312,0,0,0,.428.094.312.312,0,0,0,.1-.426A.312.312,0,0,0,8414.9-2031.922Z" transform="translate(-8386.415 2051.973)" fill="#14152e"/>
        <path id="Path_33306" data-name="Path 33306" d="M8413.206-2030.88a.312.312,0,0,0-.1.432.314.314,0,0,0,.429.094.313.313,0,0,0,.1-.427A.31.31,0,0,0,8413.206-2030.88Z" transform="translate(-8385.813 2051.602)" fill="#14152e"/>
        <path id="Path_33307" data-name="Path 33307" d="M8438.449-2051.5a.312.312,0,0,0-.1.432.31.31,0,0,0,.427.094.31.31,0,0,0,.1-.426A.311.311,0,0,0,8438.449-2051.5Z" transform="translate(-8394.792 2058.935)" fill="#14152e"/>
        <path id="Path_33308" data-name="Path 33308" d="M8436.759-2050.454a.312.312,0,0,0-.1.432.312.312,0,0,0,.428.094.31.31,0,0,0,.1-.426A.311.311,0,0,0,8436.759-2050.454Z" transform="translate(-8394.189 2058.564)" fill="#14152e"/>
        <path id="Path_33309" data-name="Path 33309" d="M8435.069-2049.412a.312.312,0,0,0-.1.432.312.312,0,0,0,.428.094.312.312,0,0,0,.1-.427A.31.31,0,0,0,8435.069-2049.412Z" transform="translate(-8393.59 2058.194)" fill="#14152e"/>
        <path id="Path_33310" data-name="Path 33310" d="M8433.378-2048.371a.312.312,0,0,0-.1.432.31.31,0,0,0,.427.094.311.311,0,0,0,.1-.426A.311.311,0,0,0,8433.378-2048.371Z" transform="translate(-8392.987 2057.823)" fill="#14152e"/>
        <path id="Path_33311" data-name="Path 33311" d="M8431.686-2047.329a.312.312,0,0,0-.1.432.312.312,0,0,0,.428.094.31.31,0,0,0,.1-.426A.311.311,0,0,0,8431.686-2047.329Z" transform="translate(-8392.385 2057.453)" fill="#14152e"/>
        <path id="Path_33312" data-name="Path 33312" d="M8430-2046.287a.312.312,0,0,0-.1.432.313.313,0,0,0,.428.094.313.313,0,0,0,.1-.427A.311.311,0,0,0,8430-2046.287Z" transform="translate(-8391.785 2057.083)" fill="#14152e"/>
        <path id="Path_33313" data-name="Path 33313" d="M8428.3-2045.246a.312.312,0,0,0-.1.432.311.311,0,0,0,.428.094.311.311,0,0,0,.1-.426A.311.311,0,0,0,8428.3-2045.246Z" transform="translate(-8391.182 2056.712)" fill="#14152e"/>
        <path id="Path_33314" data-name="Path 33314" d="M8426.616-2044.2a.312.312,0,0,0-.1.432.312.312,0,0,0,.428.094.312.312,0,0,0,.1-.426A.312.312,0,0,0,8426.616-2044.2Z" transform="translate(-8390.583 2056.341)" fill="#14152e"/>
        <path id="Path_33315" data-name="Path 33315" d="M8424.925-2043.162a.312.312,0,0,0-.1.432.312.312,0,0,0,.428.094.314.314,0,0,0,.1-.427A.312.312,0,0,0,8424.925-2043.162Z" transform="translate(-8389.981 2055.971)" fill="#14152e"/>
        <path id="Path_33316" data-name="Path 33316" d="M8423.235-2042.121a.31.31,0,0,0-.1.432.311.311,0,0,0,.428.094.31.31,0,0,0,.1-.426A.31.31,0,0,0,8423.235-2042.121Z" transform="translate(-8389.38 2055.601)" fill="#14152e"/>
        <path id="Path_33317" data-name="Path 33317" d="M8421.544-2041.079a.313.313,0,0,0-.1.432.312.312,0,0,0,.428.094.312.312,0,0,0,.1-.426A.311.311,0,0,0,8421.544-2041.079Z" transform="translate(-8388.778 2055.23)" fill="#14152e"/>
        <path id="Path_33318" data-name="Path 33318" d="M8419.854-2040.037a.311.311,0,0,0-.1.432.311.311,0,0,0,.427.094.311.311,0,0,0,.1-.427A.311.311,0,0,0,8419.854-2040.037Z" transform="translate(-8388.179 2054.859)" fill="#14152e"/>
        <path id="Path_33319" data-name="Path 33319" d="M8418.163-2039a.311.311,0,0,0-.1.432.311.311,0,0,0,.428.094.312.312,0,0,0,.1-.426A.311.311,0,0,0,8418.163-2039Z" transform="translate(-8387.577 2054.489)" fill="#14152e"/>
        <path id="Path_33320" data-name="Path 33320" d="M8416.47-2037.954a.312.312,0,0,0-.1.432.312.312,0,0,0,.428.094.311.311,0,0,0,.1-.426A.312.312,0,0,0,8416.47-2037.954Z" transform="translate(-8386.974 2054.118)" fill="#14152e"/>
        <path id="Path_33321" data-name="Path 33321" d="M8414.781-2036.912a.312.312,0,0,0-.1.432.312.312,0,0,0,.428.094.311.311,0,0,0,.1-.427A.311.311,0,0,0,8414.781-2036.912Z" transform="translate(-8386.374 2053.748)" fill="#14152e"/>
        <path id="Path_33322" data-name="Path 33322" d="M8413.091-2035.871a.312.312,0,0,0-.1.433.312.312,0,0,0,.428.093.311.311,0,0,0,.1-.426A.311.311,0,0,0,8413.091-2035.871Z" transform="translate(-8385.772 2053.377)" fill="#14152e"/>
        <path id="Path_33323" data-name="Path 33323" d="M8411.4-2034.829a.312.312,0,0,0-.1.432.311.311,0,0,0,.428.094.311.311,0,0,0,.1-.426A.31.31,0,0,0,8411.4-2034.829Z" transform="translate(-8385.172 2053.007)" fill="#14152e"/>
        <path id="Path_33324" data-name="Path 33324" d="M8436.716-2048.669a.313.313,0,0,0-.1.432.312.312,0,0,0,.428.094.312.312,0,0,0,.1-.426A.311.311,0,0,0,8436.716-2048.669Z" transform="translate(-8394.175 2057.929)" fill="#14152e"/>
        <path id="Path_33325" data-name="Path 33325" d="M8435.024-2047.627a.31.31,0,0,0-.1.432.312.312,0,0,0,.428.094.312.312,0,0,0,.1-.427A.311.311,0,0,0,8435.024-2047.627Z" transform="translate(-8393.572 2057.559)" fill="#14152e"/>
        <path id="Path_33326" data-name="Path 33326" d="M8433.335-2046.586a.312.312,0,0,0-.1.433.312.312,0,0,0,.428.094.311.311,0,0,0,.1-.426A.312.312,0,0,0,8433.335-2046.586Z" transform="translate(-8392.973 2057.188)" fill="#14152e"/>
        <path id="Path_33327" data-name="Path 33327" d="M8431.644-2045.544a.311.311,0,0,0-.1.432.311.311,0,0,0,.428.094.313.313,0,0,0,.1-.426A.312.312,0,0,0,8431.644-2045.544Z" transform="translate(-8392.371 2056.818)" fill="#14152e"/>
        <path id="Path_33328" data-name="Path 33328" d="M8429.953-2044.5a.312.312,0,0,0-.1.432.312.312,0,0,0,.428.094.312.312,0,0,0,.1-.427A.311.311,0,0,0,8429.953-2044.5Z" transform="translate(-8391.77 2056.448)" fill="#14152e"/>
        <path id="Path_33329" data-name="Path 33329" d="M8428.263-2043.46a.311.311,0,0,0-.1.432.311.311,0,0,0,.427.094.312.312,0,0,0,.1-.427A.31.31,0,0,0,8428.263-2043.46Z" transform="translate(-8391.168 2056.077)" fill="#14152e"/>
        <path id="Path_33330" data-name="Path 33330" d="M8426.572-2042.419a.313.313,0,0,0-.1.432.312.312,0,0,0,.428.094.313.313,0,0,0,.1-.426A.313.313,0,0,0,8426.572-2042.419Z" transform="translate(-8390.568 2055.706)" fill="#14152e"/>
        <path id="Path_33331" data-name="Path 33331" d="M8424.882-2041.377a.312.312,0,0,0-.1.432.312.312,0,0,0,.428.094.311.311,0,0,0,.1-.426A.311.311,0,0,0,8424.882-2041.377Z" transform="translate(-8389.967 2055.336)" fill="#14152e"/>
        <path id="Path_33332" data-name="Path 33332" d="M8423.191-2040.335a.311.311,0,0,0-.1.432.312.312,0,0,0,.428.094.312.312,0,0,0,.1-.427A.309.309,0,0,0,8423.191-2040.335Z" transform="translate(-8389.365 2054.965)" fill="#14152e"/>
        <path id="Path_33333" data-name="Path 33333" d="M8421.5-2039.294a.311.311,0,0,0-.1.432.311.311,0,0,0,.428.094.312.312,0,0,0,.1-.426A.311.311,0,0,0,8421.5-2039.294Z" transform="translate(-8388.764 2054.595)" fill="#14152e"/>
        <path id="Path_33334" data-name="Path 33334" d="M8419.81-2038.252a.311.311,0,0,0-.1.432.312.312,0,0,0,.428.094.311.311,0,0,0,.1-.427A.311.311,0,0,0,8419.81-2038.252Z" transform="translate(-8388.162 2054.224)" fill="#14152e"/>
        <path id="Path_33335" data-name="Path 33335" d="M8418.119-2037.21a.313.313,0,0,0-.1.432.313.313,0,0,0,.428.094.313.313,0,0,0,.1-.426A.312.312,0,0,0,8418.119-2037.21Z" transform="translate(-8387.562 2053.854)" fill="#14152e"/>
        <path id="Path_33336" data-name="Path 33336" d="M8416.429-2036.169a.311.311,0,0,0-.1.432.31.31,0,0,0,.427.094.312.312,0,0,0,.1-.426A.311.311,0,0,0,8416.429-2036.169Z" transform="translate(-8386.959 2053.483)" fill="#14152e"/>
        <path id="Path_33337" data-name="Path 33337" d="M8414.738-2035.127a.313.313,0,0,0-.1.432.312.312,0,0,0,.428.094.313.313,0,0,0,.1-.427A.313.313,0,0,0,8414.738-2035.127Z" transform="translate(-8386.358 2053.113)" fill="#14152e"/>
        <path id="Path_33338" data-name="Path 33338" d="M8413.048-2034.085a.313.313,0,0,0-.1.432.313.313,0,0,0,.428.094.313.313,0,0,0,.1-.427A.311.311,0,0,0,8413.048-2034.085Z" transform="translate(-8385.758 2052.742)" fill="#14152e"/>
        <path id="Path_33339" data-name="Path 33339" d="M8411.356-2033.044a.311.311,0,0,0-.1.432.311.311,0,0,0,.428.094.311.311,0,0,0,.1-.426A.311.311,0,0,0,8411.356-2033.044Z" transform="translate(-8385.155 2052.372)" fill="#14152e"/>
        <path id="Path_33340" data-name="Path 33340" d="M8440.288-2056.082a.312.312,0,0,0-.1.432.312.312,0,0,0,.428.094.311.311,0,0,0,.1-.427A.311.311,0,0,0,8440.288-2056.082Z" transform="translate(-8395.446 2060.566)" fill="#14152e"/>
        <path id="Path_33341" data-name="Path 33341" d="M8438.6-2055.04a.312.312,0,0,0-.1.432.313.313,0,0,0,.428.094.313.313,0,0,0,.1-.427A.312.312,0,0,0,8438.6-2055.04Z" transform="translate(-8394.844 2060.195)" fill="#14152e"/>
        <path id="Path_33342" data-name="Path 33342" d="M8436.908-2054a.312.312,0,0,0-.1.433.313.313,0,0,0,.429.094.312.312,0,0,0,.1-.426A.312.312,0,0,0,8436.908-2054Z" transform="translate(-8394.244 2059.825)" fill="#14152e"/>
        <path id="Path_33343" data-name="Path 33343" d="M8435.214-2052.957a.312.312,0,0,0-.1.432.312.312,0,0,0,.428.094.312.312,0,0,0,.1-.427A.312.312,0,0,0,8435.214-2052.957Z" transform="translate(-8393.64 2059.455)" fill="#14152e"/>
        <path id="Path_33344" data-name="Path 33344" d="M8433.526-2051.915a.313.313,0,0,0-.1.432.313.313,0,0,0,.428.094.313.313,0,0,0,.1-.427A.311.311,0,0,0,8433.526-2051.915Z" transform="translate(-8393.041 2059.084)" fill="#14152e"/>
        <path id="Path_33345" data-name="Path 33345" d="M8431.835-2050.874a.312.312,0,0,0-.1.433.312.312,0,0,0,.428.094.309.309,0,0,0,.1-.426A.311.311,0,0,0,8431.835-2050.874Z" transform="translate(-8392.439 2058.714)" fill="#14152e"/>
        <path id="Path_33346" data-name="Path 33346" d="M8430.145-2049.832a.312.312,0,0,0-.1.432.312.312,0,0,0,.428.094.313.313,0,0,0,.1-.426A.312.312,0,0,0,8430.145-2049.832Z" transform="translate(-8391.839 2058.343)" fill="#14152e"/>
        <path id="Path_33347" data-name="Path 33347" d="M8428.455-2048.79a.311.311,0,0,0-.1.432.312.312,0,0,0,.428.094.312.312,0,0,0,.1-.427A.31.31,0,0,0,8428.455-2048.79Z" transform="translate(-8391.237 2057.973)" fill="#14152e"/>
        <path id="Path_33348" data-name="Path 33348" d="M8426.764-2047.749a.312.312,0,0,0-.1.432.311.311,0,0,0,.428.094.311.311,0,0,0,.1-.426A.311.311,0,0,0,8426.764-2047.749Z" transform="translate(-8390.636 2057.602)" fill="#14152e"/>
        <path id="Path_33349" data-name="Path 33349" d="M8425.073-2046.707a.313.313,0,0,0-.1.432.313.313,0,0,0,.429.094.312.312,0,0,0,.1-.426A.311.311,0,0,0,8425.073-2046.707Z" transform="translate(-8390.035 2057.231)" fill="#14152e"/>
        <path id="Path_33350" data-name="Path 33350" d="M8423.38-2045.665a.311.311,0,0,0-.1.432.312.312,0,0,0,.428.094.313.313,0,0,0,.1-.427A.312.312,0,0,0,8423.38-2045.665Z" transform="translate(-8389.432 2056.861)" fill="#14152e"/>
        <path id="Path_33351" data-name="Path 33351" d="M8421.692-2044.624a.312.312,0,0,0-.1.432.311.311,0,0,0,.428.094.31.31,0,0,0,.1-.426A.31.31,0,0,0,8421.692-2044.624Z" transform="translate(-8388.832 2056.491)" fill="#14152e"/>
        <path id="Path_33352" data-name="Path 33352" d="M8420-2043.582a.312.312,0,0,0-.1.432.312.312,0,0,0,.428.094.312.312,0,0,0,.1-.426A.311.311,0,0,0,8420-2043.582Z" transform="translate(-8388.23 2056.12)" fill="#14152e"/>
        <path id="Path_33353" data-name="Path 33353" d="M8418.311-2042.54a.313.313,0,0,0-.1.432.313.313,0,0,0,.428.094.311.311,0,0,0,.1-.427A.312.312,0,0,0,8418.311-2042.54Z" transform="translate(-8387.63 2055.75)" fill="#14152e"/>
        <path id="Path_33354" data-name="Path 33354" d="M8416.62-2041.5a.312.312,0,0,0-.1.432.312.312,0,0,0,.428.094.311.311,0,0,0,.1-.426A.311.311,0,0,0,8416.62-2041.5Z" transform="translate(-8387.028 2055.379)" fill="#14152e"/>
        <path id="Path_33355" data-name="Path 33355" d="M8414.93-2040.457a.313.313,0,0,0-.1.432.312.312,0,0,0,.428.094.312.312,0,0,0,.1-.426A.312.312,0,0,0,8414.93-2040.457Z" transform="translate(-8386.426 2055.009)" fill="#14152e"/>
        <path id="Path_33356" data-name="Path 33356" d="M8413.24-2039.415a.312.312,0,0,0-.1.432.313.313,0,0,0,.429.094.313.313,0,0,0,.1-.427A.312.312,0,0,0,8413.24-2039.415Z" transform="translate(-8385.825 2054.638)" fill="#14152e"/>
        <path id="Path_33357" data-name="Path 33357" d="M8411.547-2038.374a.312.312,0,0,0-.1.432.312.312,0,0,0,.428.094.311.311,0,0,0,.1-.426A.311.311,0,0,0,8411.547-2038.374Z" transform="translate(-8385.223 2054.268)" fill="#14152e"/>
        <path id="Path_33358" data-name="Path 33358" d="M8409.858-2037.332a.312.312,0,0,0-.1.432.312.312,0,0,0,.428.094.312.312,0,0,0,.1-.426A.311.311,0,0,0,8409.858-2037.332Z" transform="translate(-8384.623 2053.897)" fill="#14152e"/>
        <path id="Path_33359" data-name="Path 33359" d="M8438.555-2053.255a.311.311,0,0,0-.1.432.311.311,0,0,0,.427.094.31.31,0,0,0,.1-.427A.311.311,0,0,0,8438.555-2053.255Z" transform="translate(-8394.83 2059.561)" fill="#14152e"/>
        <path id="Path_33360" data-name="Path 33360" d="M8436.864-2052.214a.311.311,0,0,0-.1.432.311.311,0,0,0,.428.094.312.312,0,0,0,.1-.426A.311.311,0,0,0,8436.864-2052.214Z" transform="translate(-8394.229 2059.19)" fill="#14152e"/>
        <path id="Path_33361" data-name="Path 33361" d="M8435.173-2051.172a.313.313,0,0,0-.1.432.312.312,0,0,0,.428.094.311.311,0,0,0,.1-.426A.311.311,0,0,0,8435.173-2051.172Z" transform="translate(-8393.627 2058.82)" fill="#14152e"/>
        <path id="Path_33362" data-name="Path 33362" d="M8433.482-2050.13a.311.311,0,0,0-.1.432.312.312,0,0,0,.428.094.311.311,0,0,0,.1-.427A.311.311,0,0,0,8433.482-2050.13Z" transform="translate(-8393.025 2058.449)" fill="#14152e"/>
        <path id="Path_33363" data-name="Path 33363" d="M8431.792-2049.089a.313.313,0,0,0-.1.432.312.312,0,0,0,.428.094.311.311,0,0,0,.1-.426A.311.311,0,0,0,8431.792-2049.089Z" transform="translate(-8392.425 2058.079)" fill="#14152e"/>
        <path id="Path_33364" data-name="Path 33364" d="M8430.1-2048.047a.313.313,0,0,0-.1.432.312.312,0,0,0,.428.094.311.311,0,0,0,.1-.426A.311.311,0,0,0,8430.1-2048.047Z" transform="translate(-8391.823 2057.708)" fill="#14152e"/>
        <path id="Path_33365" data-name="Path 33365" d="M8428.411-2047.005a.312.312,0,0,0-.1.432.312.312,0,0,0,.428.094.312.312,0,0,0,.1-.427A.311.311,0,0,0,8428.411-2047.005Z" transform="translate(-8391.222 2057.338)" fill="#14152e"/>
        <path id="Path_33366" data-name="Path 33366" d="M8426.719-2045.964a.313.313,0,0,0-.1.433.312.312,0,0,0,.428.093.31.31,0,0,0,.1-.426A.311.311,0,0,0,8426.719-2045.964Z" transform="translate(-8390.618 2056.967)" fill="#14152e"/>
        <path id="Path_33367" data-name="Path 33367" d="M8425.03-2044.922a.312.312,0,0,0-.1.432.312.312,0,0,0,.428.094.312.312,0,0,0,.1-.426A.311.311,0,0,0,8425.03-2044.922Z" transform="translate(-8390.02 2056.597)" fill="#14152e"/>
        <path id="Path_33368" data-name="Path 33368" d="M8423.339-2043.88a.312.312,0,0,0-.1.432.312.312,0,0,0,.428.094.31.31,0,0,0,.1-.427A.311.311,0,0,0,8423.339-2043.88Z" transform="translate(-8389.418 2056.226)" fill="#14152e"/>
        <path id="Path_33369" data-name="Path 33369" d="M8421.649-2042.838a.311.311,0,0,0-.1.432.313.313,0,0,0,.428.094.313.313,0,0,0,.1-.426A.311.311,0,0,0,8421.649-2042.838Z" transform="translate(-8388.815 2055.856)" fill="#14152e"/>
        <path id="Path_33370" data-name="Path 33370" d="M8419.958-2041.8a.311.311,0,0,0-.1.432.31.31,0,0,0,.427.094.313.313,0,0,0,.1-.426A.313.313,0,0,0,8419.958-2041.8Z" transform="translate(-8388.215 2055.485)" fill="#14152e"/>
        <path id="Path_33371" data-name="Path 33371" d="M8418.268-2040.755a.311.311,0,0,0-.1.432.312.312,0,0,0,.428.094.311.311,0,0,0,.1-.427A.311.311,0,0,0,8418.268-2040.755Z" transform="translate(-8387.613 2055.115)" fill="#14152e"/>
        <path id="Path_33372" data-name="Path 33372" d="M8416.577-2039.713a.313.313,0,0,0-.1.432.313.313,0,0,0,.428.094.313.313,0,0,0,.1-.427A.311.311,0,0,0,8416.577-2039.713Z" transform="translate(-8387.013 2054.744)" fill="#14152e"/>
        <path id="Path_33373" data-name="Path 33373" d="M8414.885-2038.672a.311.311,0,0,0-.1.432.31.31,0,0,0,.427.094.312.312,0,0,0,.1-.426A.311.311,0,0,0,8414.885-2038.672Z" transform="translate(-8386.408 2054.374)" fill="#14152e"/>
        <path id="Path_33374" data-name="Path 33374" d="M8413.2-2037.63a.31.31,0,0,0-.1.432.312.312,0,0,0,.428.094.312.312,0,0,0,.1-.427A.311.311,0,0,0,8413.2-2037.63Z" transform="translate(-8385.809 2054.003)" fill="#14152e"/>
        <path id="Path_33375" data-name="Path 33375" d="M8411.5-2036.588a.313.313,0,0,0-.1.432.314.314,0,0,0,.429.094.312.312,0,0,0,.1-.427A.31.31,0,0,0,8411.5-2036.588Z" transform="translate(-8385.209 2053.633)" fill="#14152e"/>
        <path id="Path_33376" data-name="Path 33376" d="M8409.814-2035.547a.311.311,0,0,0-.1.432.311.311,0,0,0,.428.094.31.31,0,0,0,.1-.426A.311.311,0,0,0,8409.814-2035.547Z" transform="translate(-8384.606 2053.262)" fill="#14152e"/>
      </g>
      <path id="Path_33077" data-name="Path 33077" d="M8410.093-2093.782l-1.93-.1,3.685-72.358h10.483l-3.445,72.453-1.931-.092,3.349-70.428h-6.618Z" transform="translate(-8277.667 2166.238)" fill="#14152e"/>
      <g id="Group_366" data-name="Group 366" transform="translate(0 88.93)">
        <path id="Line_12" data-name="Line 12" d="M-.533,17.83a.972.972,0,0,1-.177-.016.966.966,0,0,1-.774-1.126L1.738-.71a.966.966,0,0,1,1.126-.774A.966.966,0,0,1,3.638-.358L.417,17.039A.967.967,0,0,1-.533,17.83Z" transform="translate(98.149 52.402)" fill="#14152e"/>
        <path id="Line_14" data-name="Line 14" d="M.968,19.33a.967.967,0,0,1-.951-1.143L3.238.791a.966.966,0,1,1,1.9.352l-3.222,17.4A.967.967,0,0,1,.968,19.33Z" transform="matrix(0.809, 0.588, -0.588, 0.809, 59.007, 38.346)" fill="#14152e"/>
        <path id="Line_16" data-name="Line 16" d="M-.534,1.077A.967.967,0,0,1-1.5.175.966.966,0,0,1-.6-.854L9.067-1.5A.966.966,0,0,1,10.1-.6.966.966,0,0,1,9.2.431l-9.665.644Z" transform="translate(16.964 17.608)" fill="#14152e"/>
        <path id="Line_17" data-name="Line 17" d="M-.534,1.722A.967.967,0,0,1-1.5.817.966.966,0,0,1-.6-.209L19.378-1.5a.967.967,0,0,1,1.027.9A.966.966,0,0,1,19.5.431L-.471,1.72Z" transform="translate(9.876 1.5)" fill="#14152e"/>
        <path id="Line_18" data-name="Line 18" d="M-.535,4.943a.967.967,0,0,1-.959-.858A.966.966,0,0,1-.642,3.016l39.948-4.51a.967.967,0,0,1,1.069.852A.966.966,0,0,1,39.523.427L-.425,4.937A.978.978,0,0,1-.535,4.943Z" transform="translate(1.5 6.01)" fill="#14152e"/>
        <path id="Line_15" data-name="Line 15" d="M-.533,24.887a.964.964,0,0,1-.721-.322A.966.966,0,0,1-1.178,23.2L26.179-1.254a.966.966,0,0,1,1.365.076A.966.966,0,0,1,27.467.187L.111,24.641A.963.963,0,0,1-.533,24.887Z" transform="translate(34.361 35.68)" fill="#14152e"/>
        <path id="Line_13" data-name="Line 13" d="M-.533,55.845a.969.969,0,0,1-.22-.025.966.966,0,0,1-.722-1.16L11.411-.753a.966.966,0,0,1,1.16-.722.966.966,0,0,1,.722,1.16L.408,55.1A.967.967,0,0,1-.533,55.845Z" transform="translate(82.685 45.959)" fill="#14152e"/>
      </g>
    </g>
  </g>
</svg>
