<svg xmlns="http://www.w3.org/2000/svg" xmlns:xlink="http://www.w3.org/1999/xlink" width="160" height="190" viewBox="0 0 160 190">
  <defs>
    <clipPath id="clip-path">
      <rect id="Rectangle_237" data-name="Rectangle 237" width="160" height="190" fill="#fff"/>
    </clipPath>
  </defs>
  <g id="header-light-right" clip-path="url(#clip-path)">
    <g id="Group_649" data-name="Group 649" transform="translate(1.755 -1.93)">
      <path id="Path_50467" data-name="Path 50467" d="M8274.63-2006.18l53-1.3,14.068-55.91h-50.776l-.2.7Zm51.5-3.182-48.942,1.2,15.185-53.316h46.872Z" transform="translate(-8233.847 2129.078)" fill="#14152e"/>
      <path id="Path_50468" data-name="Path 50468" d="M8276.91-2007.967l1.64-.991-1.834-3.037,15.446-54.416h48.1l2.3,2.521,1.416-1.293-2.875-3.144h-50.394l-16.068,56.61Z" transform="translate(-8236.137 2130.861)" fill="#14152e"/>
      <g id="Ellipse_5" data-name="Ellipse 5" transform="translate(46.367 64.344)">
        <ellipse id="Ellipse_17" data-name="Ellipse 17" cx="17.572" cy="24.281" rx="17.572" ry="24.281" transform="translate(29.472 59.869) rotate(-146.993)" fill="none"/>
        <path id="Path_50469" data-name="Path 50469" d="M8310.181-2008.867c7.125,0,15.177-4.783,20.467-12.926a29.555,29.555,0,0,0,5.058-17.044c-.246-5.722-2.578-10.3-6.565-12.891h0c-3.989-2.591-9.12-2.86-14.448-.759a29.535,29.535,0,0,0-13.516,11.55,29.529,29.529,0,0,0-5.057,17.044c.244,5.721,2.576,10.3,6.565,12.891A13.584,13.584,0,0,0,8310.181-2008.867Zm11.421-43.1a11.766,11.766,0,0,1,6.493,1.848h0c3.454,2.243,5.476,6.28,5.694,11.365a27.624,27.624,0,0,1-4.749,15.918c-4.927,7.583-12.349,12.073-18.81,12.074a11.773,11.773,0,0,1-6.5-1.847c-3.455-2.244-5.477-6.28-5.694-11.365a27.607,27.607,0,0,1,4.749-15.917A27.609,27.609,0,0,1,8315.4-2050.7,16.985,16.985,0,0,1,8321.6-2051.968Z" transform="translate(-8287.948 2061.3)" fill="#14152e"/>
      </g>
      <g id="Ellipse_6" data-name="Ellipse 6" transform="translate(46.926 66.163)">
        <ellipse id="Ellipse_18" data-name="Ellipse 18" cx="15.336" cy="22.364" rx="15.336" ry="22.364" transform="translate(25.721 54.218) rotate(-146.993)" fill="rgba(0,0,0,0)"/>
        <path id="Path_50470" data-name="Path 50470" d="M8314.9-2011.3c6.4,0,13.821-4.542,18.781-12.177,6.718-10.342,6.414-22.5-.679-27.109-3.5-2.272-8.055-2.4-12.839-.358a28.342,28.342,0,0,0-12.2,10.759,28.334,28.334,0,0,0-4.868,15.524c.08,5.2,2.05,9.313,5.546,11.584A11.34,11.34,0,0,0,8314.9-2011.3Zm11.791-39.167a9.531,9.531,0,0,1,5.268,1.489c6.205,4.031,6.256,15,.115,24.457s-16.186,13.869-22.392,9.838c-2.944-1.913-4.6-5.466-4.675-10.007a26.41,26.41,0,0,1,4.562-14.451,26.407,26.407,0,0,1,11.348-10.039A14.8,14.8,0,0,1,8326.7-2050.467Z" transform="translate(-8295.781 2058.939)" fill="#14152e"/>
      </g>
      <path id="Path_33070" data-name="Path 33070" d="M8308.176-2066.939l-31.327,1.7h0l33.311,1.963Z" transform="translate(-8203.722 2130.359)" fill="#14152e"/>
      <path id="Subtraction_8" data-name="Subtraction 8" d="M41.94,0h0L40.867,1.588c3.66,2.475,7.516,4.869,11.245,7.184l.021.013.007,0c7.725,4.8,15.713,9.762,22.446,15.676,8.654,7.6,9.374,20.05,7.162,29.168A30.858,30.858,0,0,1,67.228,72.552l.087,2.126a32.711,32.711,0,0,0,10.3-8.576A31.338,31.338,0,0,0,83.61,54.087c2.343-9.666,1.535-22.9-7.761-31.06C68.993,17,60.932,12,53.137,7.154l-.014-.008-.015-.009C49.582,4.947,45.584,2.465,41.94,0ZM1.055,41.361h0L0,42.961c6.168,4.066,12.725,9.074,19.066,13.917l0,0,.058.044C26.684,62.7,34.5,68.67,41.974,73.317a31.588,31.588,0,0,0,6.935,3.318,21.473,21.473,0,0,0,6.717,1.09,22.1,22.1,0,0,0,3.271-.249l-.107-1.924a20.191,20.191,0,0,1-3.128.249c-4.135,0-8.163-1.307-12.676-4.113C35.6,67.1,27.832,61.163,20.317,55.422l0,0-.021-.016-.094-.072C13.845,50.478,7.275,45.46,1.055,41.362Z" transform="translate(84.724 105.58) rotate(180)" fill="#14152e" stroke="rgba(0,0,0,0)" stroke-width="1"/>
      <path id="Path_50473" data-name="Path 50473" d="M8354.188-2117.633l1.912-.145-3.674-48.46h-10.405l3.452,41.913,1.909-.157-3.28-39.839h6.547Z" transform="translate(-8291.286 2166.238)" fill="#14152e"/>
      <g id="Group_647" data-name="Group 647" transform="translate(1.532 65.926)">
        <path id="Path_50474" data-name="Path 50474" d="M8413.473-2052.336a5.345,5.345,0,0,0,5.34-5.34,5.345,5.345,0,0,0-5.34-5.34,5.345,5.345,0,0,0-5.34,5.34A5.345,5.345,0,0,0,8413.473-2052.336Zm0-8.763a3.427,3.427,0,0,1,3.424,3.424,3.427,3.427,0,0,1-3.424,3.423,3.428,3.428,0,0,1-3.424-3.423A3.428,3.428,0,0,1,8413.473-2061.1Z" transform="translate(-8391.368 2063.016)" fill="#14152e"/>
        <g id="Group_646" data-name="Group 646" transform="translate(17.398 20.059)">
          <path id="Path_50475" data-name="Path 50475" d="M8413.367-2029.061a.309.309,0,0,1,.1.429.308.308,0,0,1-.423.093.309.309,0,0,1-.1-.423A.308.308,0,0,1,8413.367-2029.061Z" transform="translate(-8412.899 2030.705)" fill="#14152e"/>
          <path id="Path_50476" data-name="Path 50476" d="M8411.676-2028.019a.308.308,0,0,1,.1.428.309.309,0,0,1-.423.093.308.308,0,0,1-.1-.423A.308.308,0,0,1,8411.676-2028.019Z" transform="translate(-8410.128 2030.328)" fill="#14152e"/>
          <path id="Path_50477" data-name="Path 50477" d="M8409.986-2026.978a.308.308,0,0,1,.1.428.308.308,0,0,1-.424.093.308.308,0,0,1-.1-.422A.309.309,0,0,1,8409.986-2026.978Z" transform="translate(-8407.358 2029.952)" fill="#14152e"/>
          <path id="Path_50478" data-name="Path 50478" d="M8408.3-2025.936a.309.309,0,0,1,.1.429.309.309,0,0,1-.424.093.308.308,0,0,1-.1-.422A.309.309,0,0,1,8408.3-2025.936Z" transform="translate(-8404.589 2029.575)" fill="#14152e"/>
          <path id="Path_50479" data-name="Path 50479" d="M8406.605-2024.894a.308.308,0,0,1,.1.429.311.311,0,0,1-.425.093.31.31,0,0,1-.1-.423A.308.308,0,0,1,8406.605-2024.894Z" transform="translate(-8401.819 2029.199)" fill="#14152e"/>
          <path id="Path_50480" data-name="Path 50480" d="M8404.915-2023.852a.307.307,0,0,1,.1.429.309.309,0,0,1-.424.093.308.308,0,0,1-.1-.422A.308.308,0,0,1,8404.915-2023.852Z" transform="translate(-8399.049 2028.823)" fill="#14152e"/>
          <path id="Path_50481" data-name="Path 50481" d="M8403.223-2022.81a.309.309,0,0,1,.1.428.309.309,0,0,1-.424.093.309.309,0,0,1-.1-.422A.308.308,0,0,1,8403.223-2022.81Z" transform="translate(-8396.277 2028.446)" fill="#14152e"/>
          <path id="Path_50482" data-name="Path 50482" d="M8401.533-2021.769a.308.308,0,0,1,.1.428.308.308,0,0,1-.423.094.309.309,0,0,1-.1-.423A.308.308,0,0,1,8401.533-2021.769Z" transform="translate(-8393.507 2028.07)" fill="#14152e"/>
          <path id="Path_50483" data-name="Path 50483" d="M8399.843-2020.727a.309.309,0,0,1,.1.428.307.307,0,0,1-.423.093.309.309,0,0,1-.1-.422A.308.308,0,0,1,8399.843-2020.727Z" transform="translate(-8390.737 2027.693)" fill="#14152e"/>
          <path id="Path_50484" data-name="Path 50484" d="M8398.152-2019.686a.308.308,0,0,1,.1.429.308.308,0,0,1-.423.093.308.308,0,0,1-.1-.422A.309.309,0,0,1,8398.152-2019.686Z" transform="translate(-8387.968 2027.317)" fill="#14152e"/>
          <path id="Path_50485" data-name="Path 50485" d="M8396.462-2018.644a.308.308,0,0,1,.1.428.308.308,0,0,1-.423.093.31.31,0,0,1-.1-.423A.308.308,0,0,1,8396.462-2018.644Z" transform="translate(-8385.197 2026.941)" fill="#14152e"/>
          <path id="Path_50486" data-name="Path 50486" d="M8394.771-2017.6a.309.309,0,0,1,.1.429.309.309,0,0,1-.424.093.308.308,0,0,1-.1-.422A.31.31,0,0,1,8394.771-2017.6Z" transform="translate(-8382.426 2026.565)" fill="#14152e"/>
          <path id="Path_50487" data-name="Path 50487" d="M8393.081-2016.561a.308.308,0,0,1,.1.428.307.307,0,0,1-.422.094.308.308,0,0,1-.1-.422A.309.309,0,0,1,8393.081-2016.561Z" transform="translate(-8379.655 2026.188)" fill="#14152e"/>
          <path id="Path_50488" data-name="Path 50488" d="M8391.389-2015.519a.31.31,0,0,1,.1.429.31.31,0,0,1-.424.093.308.308,0,0,1-.1-.423A.308.308,0,0,1,8391.389-2015.519Z" transform="translate(-8376.884 2025.812)" fill="#14152e"/>
          <path id="Path_50489" data-name="Path 50489" d="M8389.7-2014.477a.308.308,0,0,1,.1.428.309.309,0,0,1-.424.093.308.308,0,0,1-.1-.422A.307.307,0,0,1,8389.7-2014.477Z" transform="translate(-8374.115 2025.435)" fill="#14152e"/>
          <path id="Path_50490" data-name="Path 50490" d="M8388.008-2013.435a.307.307,0,0,1,.1.428.309.309,0,0,1-.424.093.307.307,0,0,1-.1-.422A.307.307,0,0,1,8388.008-2013.435Z" transform="translate(-8371.345 2025.059)" fill="#14152e"/>
          <path id="Path_50491" data-name="Path 50491" d="M8386.317-2012.393a.308.308,0,0,1,.1.428.308.308,0,0,1-.423.093.309.309,0,0,1-.1-.423A.307.307,0,0,1,8386.317-2012.393Z" transform="translate(-8368.575 2024.682)" fill="#14152e"/>
          <path id="Path_50492" data-name="Path 50492" d="M8384.628-2011.352a.308.308,0,0,1,.1.428.307.307,0,0,1-.423.093.307.307,0,0,1-.1-.422A.308.308,0,0,1,8384.628-2011.352Z" transform="translate(-8365.804 2024.306)" fill="#14152e"/>
          <path id="Path_50493" data-name="Path 50493" d="M8382.937-2010.31a.309.309,0,0,1,.1.428.309.309,0,0,1-.424.094.309.309,0,0,1-.1-.422A.308.308,0,0,1,8382.937-2010.31Z" transform="translate(-8363.034 2023.93)" fill="#14152e"/>
          <path id="Path_50494" data-name="Path 50494" d="M8381.247-2009.268a.307.307,0,0,1,.1.428.306.306,0,0,1-.422.094.309.309,0,0,1-.1-.423A.308.308,0,0,1,8381.247-2009.268Z" transform="translate(-8360.266 2023.553)" fill="#14152e"/>
          <path id="Path_50495" data-name="Path 50495" d="M8379.555-2008.228a.31.31,0,0,1,.1.429.309.309,0,0,1-.424.093.308.308,0,0,1-.1-.422A.308.308,0,0,1,8379.555-2008.228Z" transform="translate(-8357.493 2023.177)" fill="#14152e"/>
          <path id="Path_50496" data-name="Path 50496" d="M8377.865-2007.186a.31.31,0,0,1,.1.429.307.307,0,0,1-.423.093.307.307,0,0,1-.1-.422A.31.31,0,0,1,8377.865-2007.186Z" transform="translate(-8354.722 2022.801)" fill="#14152e"/>
          <path id="Path_50497" data-name="Path 50497" d="M8376.175-2006.144a.309.309,0,0,1,.1.428.31.31,0,0,1-.425.093.309.309,0,0,1-.1-.423A.309.309,0,0,1,8376.175-2006.144Z" transform="translate(-8351.952 2022.424)" fill="#14152e"/>
          <path id="Path_50498" data-name="Path 50498" d="M8413.324-2027.275a.31.31,0,0,1,.1.428.309.309,0,0,1-.424.093.309.309,0,0,1-.1-.422A.308.308,0,0,1,8413.324-2027.275Z" transform="translate(-8412.829 2030.059)" fill="#14152e"/>
          <path id="Path_50499" data-name="Path 50499" d="M8411.633-2026.234a.307.307,0,0,1,.1.428.308.308,0,0,1-.423.094.307.307,0,0,1-.1-.423A.306.306,0,0,1,8411.633-2026.234Z" transform="translate(-8410.06 2029.683)" fill="#14152e"/>
          <path id="Path_50500" data-name="Path 50500" d="M8409.941-2025.193a.309.309,0,0,1,.1.429.31.31,0,0,1-.425.093.309.309,0,0,1-.1-.422A.309.309,0,0,1,8409.941-2025.193Z" transform="translate(-8407.286 2029.307)" fill="#14152e"/>
          <path id="Path_50501" data-name="Path 50501" d="M8408.251-2024.151a.309.309,0,0,1,.1.429.31.31,0,0,1-.425.093.308.308,0,0,1-.1-.422A.309.309,0,0,1,8408.251-2024.151Z" transform="translate(-8404.515 2028.93)" fill="#14152e"/>
          <path id="Path_50502" data-name="Path 50502" d="M8406.561-2023.109a.307.307,0,0,1,.1.428.31.31,0,0,1-.425.093.31.31,0,0,1-.1-.423A.308.308,0,0,1,8406.561-2023.109Z" transform="translate(-8401.747 2028.554)" fill="#14152e"/>
          <path id="Path_50503" data-name="Path 50503" d="M8404.871-2022.068a.309.309,0,0,1,.1.429.31.31,0,0,1-.425.093.309.309,0,0,1-.1-.422A.308.308,0,0,1,8404.871-2022.068Z" transform="translate(-8398.977 2028.178)" fill="#14152e"/>
          <path id="Path_50504" data-name="Path 50504" d="M8403.181-2021.026a.306.306,0,0,1,.1.428.308.308,0,0,1-.423.094.308.308,0,0,1-.1-.422A.307.307,0,0,1,8403.181-2021.026Z" transform="translate(-8396.207 2027.801)" fill="#14152e"/>
          <path id="Path_50505" data-name="Path 50505" d="M8401.49-2019.984a.309.309,0,0,1,.1.428.309.309,0,0,1-.424.093.31.31,0,0,1-.1-.423A.308.308,0,0,1,8401.49-2019.984Z" transform="translate(-8393.438 2027.425)" fill="#14152e"/>
          <path id="Path_50506" data-name="Path 50506" d="M8399.8-2018.942a.309.309,0,0,1,.1.429.308.308,0,0,1-.423.093.308.308,0,0,1-.1-.422A.307.307,0,0,1,8399.8-2018.942Z" transform="translate(-8390.667 2027.049)" fill="#14152e"/>
          <path id="Path_50507" data-name="Path 50507" d="M8398.107-2017.9a.309.309,0,0,1,.1.429.308.308,0,0,1-.423.093.308.308,0,0,1-.1-.422A.309.309,0,0,1,8398.107-2017.9Z" transform="translate(-8387.895 2026.672)" fill="#14152e"/>
          <path id="Path_50508" data-name="Path 50508" d="M8396.417-2016.859a.309.309,0,0,1,.1.429.309.309,0,0,1-.424.093.308.308,0,0,1-.1-.423A.307.307,0,0,1,8396.417-2016.859Z" transform="translate(-8385.124 2026.296)" fill="#14152e"/>
          <path id="Path_50509" data-name="Path 50509" d="M8394.727-2015.817a.308.308,0,0,1,.1.429.309.309,0,0,1-.423.093.309.309,0,0,1-.1-.423A.309.309,0,0,1,8394.727-2015.817Z" transform="translate(-8382.354 2025.92)" fill="#14152e"/>
          <path id="Path_50510" data-name="Path 50510" d="M8393.037-2014.776a.311.311,0,0,1,.1.429.31.31,0,0,1-.425.093.308.308,0,0,1-.1-.422A.309.309,0,0,1,8393.037-2014.776Z" transform="translate(-8379.584 2025.543)" fill="#14152e"/>
          <path id="Path_50511" data-name="Path 50511" d="M8391.346-2013.734a.307.307,0,0,1,.1.429.309.309,0,0,1-.424.093.308.308,0,0,1-.1-.423A.308.308,0,0,1,8391.346-2013.734Z" transform="translate(-8376.813 2025.167)" fill="#14152e"/>
          <path id="Path_50512" data-name="Path 50512" d="M8389.656-2012.692a.309.309,0,0,1,.1.429.312.312,0,0,1-.425.093.309.309,0,0,1-.1-.423A.307.307,0,0,1,8389.656-2012.692Z" transform="translate(-8374.045 2024.79)" fill="#14152e"/>
          <path id="Path_50513" data-name="Path 50513" d="M8387.966-2011.651a.307.307,0,0,1,.1.429.309.309,0,0,1-.424.093.307.307,0,0,1-.1-.422A.308.308,0,0,1,8387.966-2011.651Z" transform="translate(-8371.273 2024.414)" fill="#14152e"/>
          <path id="Path_50514" data-name="Path 50514" d="M8386.273-2010.609a.309.309,0,0,1,.1.429.309.309,0,0,1-.424.093.31.31,0,0,1-.1-.423A.308.308,0,0,1,8386.273-2010.609Z" transform="translate(-8368.502 2024.038)" fill="#14152e"/>
          <path id="Path_50515" data-name="Path 50515" d="M8384.583-2009.567a.309.309,0,0,1,.1.428.31.31,0,0,1-.424.093.309.309,0,0,1-.1-.423A.307.307,0,0,1,8384.583-2009.567Z" transform="translate(-8365.733 2023.661)" fill="#14152e"/>
          <path id="Path_50516" data-name="Path 50516" d="M8382.893-2008.526a.308.308,0,0,1,.1.428.309.309,0,0,1-.424.093.309.309,0,0,1-.1-.422A.308.308,0,0,1,8382.893-2008.526Z" transform="translate(-8362.963 2023.285)" fill="#14152e"/>
          <path id="Path_50517" data-name="Path 50517" d="M8381.2-2007.483a.311.311,0,0,1,.1.428.309.309,0,0,1-.423.094.309.309,0,0,1-.1-.423A.308.308,0,0,1,8381.2-2007.483Z" transform="translate(-8360.192 2022.908)" fill="#14152e"/>
          <path id="Path_50518" data-name="Path 50518" d="M8379.512-2006.442a.308.308,0,0,1,.1.429.31.31,0,0,1-.424.093.307.307,0,0,1-.1-.423A.306.306,0,0,1,8379.512-2006.442Z" transform="translate(-8357.423 2022.532)" fill="#14152e"/>
          <path id="Path_50519" data-name="Path 50519" d="M8377.822-2005.4a.31.31,0,0,1,.1.428.308.308,0,0,1-.423.093.308.308,0,0,1-.1-.422A.31.31,0,0,1,8377.822-2005.4Z" transform="translate(-8354.651 2022.156)" fill="#14152e"/>
          <path id="Path_50520" data-name="Path 50520" d="M8376.132-2004.359a.309.309,0,0,1,.1.429.31.31,0,0,1-.425.093.307.307,0,0,1-.1-.422A.308.308,0,0,1,8376.132-2004.359Z" transform="translate(-8351.882 2021.779)" fill="#14152e"/>
          <path id="Path_50521" data-name="Path 50521" d="M8411.825-2031.564a.31.31,0,0,1,.1.428.31.31,0,0,1-.424.094.309.309,0,0,1-.1-.423A.308.308,0,0,1,8411.825-2031.564Z" transform="translate(-8410.372 2031.609)" fill="#14152e"/>
          <path id="Path_50522" data-name="Path 50522" d="M8410.135-2030.522a.307.307,0,0,1,.1.428.308.308,0,0,1-.423.094.31.31,0,0,1-.1-.423A.307.307,0,0,1,8410.135-2030.522Z" transform="translate(-8407.602 2031.233)" fill="#14152e"/>
          <path id="Path_50523" data-name="Path 50523" d="M8408.444-2029.48a.31.31,0,0,1,.1.428.309.309,0,0,1-.424.093.308.308,0,0,1-.1-.422A.309.309,0,0,1,8408.444-2029.48Z" transform="translate(-8404.833 2030.856)" fill="#14152e"/>
          <path id="Path_50524" data-name="Path 50524" d="M8406.754-2028.439a.308.308,0,0,1,.1.429.308.308,0,0,1-.423.093.309.309,0,0,1-.1-.423A.307.307,0,0,1,8406.754-2028.439Z" transform="translate(-8402.063 2030.48)" fill="#14152e"/>
          <path id="Path_50525" data-name="Path 50525" d="M8405.062-2027.4a.309.309,0,0,1,.1.429.308.308,0,0,1-.423.093.309.309,0,0,1-.1-.423A.309.309,0,0,1,8405.062-2027.4Z" transform="translate(-8399.289 2030.104)" fill="#14152e"/>
          <path id="Path_50526" data-name="Path 50526" d="M8403.372-2026.355a.309.309,0,0,1,.1.428.308.308,0,0,1-.424.093.308.308,0,0,1-.1-.422A.309.309,0,0,1,8403.372-2026.355Z" transform="translate(-8396.52 2029.727)" fill="#14152e"/>
          <path id="Path_50527" data-name="Path 50527" d="M8401.681-2025.313a.307.307,0,0,1,.1.428.309.309,0,0,1-.424.093.31.31,0,0,1-.1-.423A.308.308,0,0,1,8401.681-2025.313Z" transform="translate(-8393.75 2029.351)" fill="#14152e"/>
          <path id="Path_50528" data-name="Path 50528" d="M8399.991-2024.271a.31.31,0,0,1,.1.428.311.311,0,0,1-.425.093.309.309,0,0,1-.1-.423A.308.308,0,0,1,8399.991-2024.271Z" transform="translate(-8390.98 2028.974)" fill="#14152e"/>
          <path id="Path_50529" data-name="Path 50529" d="M8398.3-2023.23a.306.306,0,0,1,.1.428.308.308,0,0,1-.423.093.309.309,0,0,1-.1-.422A.308.308,0,0,1,8398.3-2023.23Z" transform="translate(-8388.211 2028.598)" fill="#14152e"/>
          <path id="Path_50530" data-name="Path 50530" d="M8396.61-2022.188a.31.31,0,0,1,.1.429.308.308,0,0,1-.423.093.308.308,0,0,1-.1-.422A.308.308,0,0,1,8396.61-2022.188Z" transform="translate(-8385.44 2028.221)" fill="#14152e"/>
          <path id="Path_50531" data-name="Path 50531" d="M8394.92-2021.146a.308.308,0,0,1,.1.428.308.308,0,0,1-.423.093.309.309,0,0,1-.1-.423A.307.307,0,0,1,8394.92-2021.146Z" transform="translate(-8382.67 2027.845)" fill="#14152e"/>
          <path id="Path_50532" data-name="Path 50532" d="M8393.228-2020.105a.309.309,0,0,1,.1.428.307.307,0,0,1-.423.094.309.309,0,0,1-.1-.422A.308.308,0,0,1,8393.228-2020.105Z" transform="translate(-8379.897 2027.469)" fill="#14152e"/>
          <path id="Path_50533" data-name="Path 50533" d="M8391.537-2019.063a.307.307,0,0,1,.1.428.306.306,0,0,1-.422.093.307.307,0,0,1-.1-.422A.307.307,0,0,1,8391.537-2019.063Z" transform="translate(-8377.128 2027.092)" fill="#14152e"/>
          <path id="Path_50534" data-name="Path 50534" d="M8389.847-2018.021a.308.308,0,0,1,.1.428.308.308,0,0,1-.423.093.31.31,0,0,1-.1-.423A.31.31,0,0,1,8389.847-2018.021Z" transform="translate(-8374.358 2026.716)" fill="#14152e"/>
          <path id="Path_50535" data-name="Path 50535" d="M8388.156-2016.98a.309.309,0,0,1,.1.428.308.308,0,0,1-.424.093.306.306,0,0,1-.1-.422A.309.309,0,0,1,8388.156-2016.98Z" transform="translate(-8371.586 2026.34)" fill="#14152e"/>
          <path id="Path_50536" data-name="Path 50536" d="M8386.467-2015.938a.308.308,0,0,1,.1.429.309.309,0,0,1-.424.093.308.308,0,0,1-.1-.422A.309.309,0,0,1,8386.467-2015.938Z" transform="translate(-8368.817 2025.963)" fill="#14152e"/>
          <path id="Path_50537" data-name="Path 50537" d="M8384.776-2014.9a.309.309,0,0,1,.1.428.309.309,0,0,1-.424.093.31.31,0,0,1-.1-.423A.308.308,0,0,1,8384.776-2014.9Z" transform="translate(-8366.048 2025.587)" fill="#14152e"/>
          <path id="Path_50538" data-name="Path 50538" d="M8383.086-2013.855a.307.307,0,0,1,.1.428.308.308,0,0,1-.424.093.307.307,0,0,1-.1-.422A.307.307,0,0,1,8383.086-2013.855Z" transform="translate(-8363.278 2025.211)" fill="#14152e"/>
          <path id="Path_50539" data-name="Path 50539" d="M8381.394-2012.813a.309.309,0,0,1,.1.428.309.309,0,0,1-.424.093.309.309,0,0,1-.1-.422A.308.308,0,0,1,8381.394-2012.813Z" transform="translate(-8360.506 2024.834)" fill="#14152e"/>
          <path id="Path_50540" data-name="Path 50540" d="M8379.7-2011.772a.307.307,0,0,1,.1.429.306.306,0,0,1-.422.093.309.309,0,0,1-.1-.423A.307.307,0,0,1,8379.7-2011.772Z" transform="translate(-8357.736 2024.458)" fill="#14152e"/>
          <path id="Path_50541" data-name="Path 50541" d="M8378.014-2010.73a.309.309,0,0,1,.1.428.307.307,0,0,1-.423.093.309.309,0,0,1-.1-.422A.308.308,0,0,1,8378.014-2010.73Z" transform="translate(-8354.966 2024.081)" fill="#14152e"/>
          <path id="Path_50542" data-name="Path 50542" d="M8376.322-2009.688a.309.309,0,0,1,.1.428.309.309,0,0,1-.424.093.308.308,0,0,1-.1-.422A.307.307,0,0,1,8376.322-2009.688Z" transform="translate(-8352.196 2023.705)" fill="#14152e"/>
          <path id="Path_50543" data-name="Path 50543" d="M8374.633-2008.647a.308.308,0,0,1,.1.429.308.308,0,0,1-.423.093.31.31,0,0,1-.1-.423A.308.308,0,0,1,8374.633-2008.647Z" transform="translate(-8349.426 2023.329)" fill="#14152e"/>
          <path id="Path_50544" data-name="Path 50544" d="M8411.78-2029.778a.309.309,0,0,1,.1.428.308.308,0,0,1-.423.093.309.309,0,0,1-.1-.422A.309.309,0,0,1,8411.78-2029.778Z" transform="translate(-8410.301 2030.964)" fill="#14152e"/>
          <path id="Path_50545" data-name="Path 50545" d="M8410.091-2028.737a.309.309,0,0,1,.1.428.308.308,0,0,1-.423.094.309.309,0,0,1-.1-.423A.308.308,0,0,1,8410.091-2028.737Z" transform="translate(-8407.53 2030.588)" fill="#14152e"/>
          <path id="Path_50546" data-name="Path 50546" d="M8408.4-2027.7a.308.308,0,0,1,.1.429.307.307,0,0,1-.423.093.309.309,0,0,1-.1-.422A.309.309,0,0,1,8408.4-2027.7Z" transform="translate(-8404.761 2030.211)" fill="#14152e"/>
          <path id="Path_50547" data-name="Path 50547" d="M8406.71-2026.654a.309.309,0,0,1,.1.429.308.308,0,0,1-.423.093.309.309,0,0,1-.1-.422A.308.308,0,0,1,8406.71-2026.654Z" transform="translate(-8401.99 2029.835)" fill="#14152e"/>
          <path id="Path_50548" data-name="Path 50548" d="M8405.02-2025.612a.308.308,0,0,1,.1.428.308.308,0,0,1-.423.093.309.309,0,0,1-.1-.423A.309.309,0,0,1,8405.02-2025.612Z" transform="translate(-8399.219 2029.458)" fill="#14152e"/>
          <path id="Path_50549" data-name="Path 50549" d="M8403.329-2024.571a.31.31,0,0,1,.1.429.309.309,0,0,1-.424.093.308.308,0,0,1-.1-.422A.309.309,0,0,1,8403.329-2024.571Z" transform="translate(-8396.449 2029.082)" fill="#14152e"/>
          <path id="Path_50550" data-name="Path 50550" d="M8401.637-2023.528a.308.308,0,0,1,.1.428.31.31,0,0,1-.425.093.308.308,0,0,1-.1-.422A.307.307,0,0,1,8401.637-2023.528Z" transform="translate(-8393.679 2028.706)" fill="#14152e"/>
          <path id="Path_50551" data-name="Path 50551" d="M8399.946-2022.487a.308.308,0,0,1,.1.429.309.309,0,0,1-.424.093.309.309,0,0,1-.1-.423A.309.309,0,0,1,8399.946-2022.487Z" transform="translate(-8390.908 2028.329)" fill="#14152e"/>
          <path id="Path_50552" data-name="Path 50552" d="M8398.257-2021.445a.308.308,0,0,1,.1.428.308.308,0,0,1-.423.093.307.307,0,0,1-.1-.422A.308.308,0,0,1,8398.257-2021.445Z" transform="translate(-8388.138 2027.953)" fill="#14152e"/>
          <path id="Path_50553" data-name="Path 50553" d="M8396.565-2020.4a.308.308,0,0,1,.1.428.307.307,0,0,1-.423.093.308.308,0,0,1-.1-.422A.307.307,0,0,1,8396.565-2020.4Z" transform="translate(-8385.368 2027.576)" fill="#14152e"/>
          <path id="Path_50554" data-name="Path 50554" d="M8394.876-2019.362a.308.308,0,0,1,.1.428.308.308,0,0,1-.423.094.308.308,0,0,1-.1-.423A.308.308,0,0,1,8394.876-2019.362Z" transform="translate(-8382.598 2027.2)" fill="#14152e"/>
          <path id="Path_50555" data-name="Path 50555" d="M8393.185-2018.32a.308.308,0,0,1,.1.429.308.308,0,0,1-.423.093.308.308,0,0,1-.1-.422A.308.308,0,0,1,8393.185-2018.32Z" transform="translate(-8379.828 2026.824)" fill="#14152e"/>
          <path id="Path_50556" data-name="Path 50556" d="M8391.5-2017.279a.309.309,0,0,1,.1.428.307.307,0,0,1-.423.093.308.308,0,0,1-.1-.422A.309.309,0,0,1,8391.5-2017.279Z" transform="translate(-8377.058 2026.447)" fill="#14152e"/>
          <path id="Path_50557" data-name="Path 50557" d="M8389.8-2016.237a.309.309,0,0,1,.1.428.309.309,0,0,1-.424.093.309.309,0,0,1-.1-.423A.308.308,0,0,1,8389.8-2016.237Z" transform="translate(-8374.286 2026.071)" fill="#14152e"/>
          <path id="Path_50558" data-name="Path 50558" d="M8388.112-2015.195a.309.309,0,0,1,.1.428.31.31,0,0,1-.424.093.308.308,0,0,1-.1-.423A.308.308,0,0,1,8388.112-2015.195Z" transform="translate(-8371.515 2025.695)" fill="#14152e"/>
          <path id="Path_50559" data-name="Path 50559" d="M8386.422-2014.154a.309.309,0,0,1,.1.429.309.309,0,0,1-.425.093.308.308,0,0,1-.1-.422A.308.308,0,0,1,8386.422-2014.154Z" transform="translate(-8368.745 2025.318)" fill="#14152e"/>
          <path id="Path_50560" data-name="Path 50560" d="M8384.733-2013.112a.308.308,0,0,1,.1.428.309.309,0,0,1-.424.093.31.31,0,0,1-.1-.423A.309.309,0,0,1,8384.733-2013.112Z" transform="translate(-8365.977 2024.942)" fill="#14152e"/>
          <path id="Path_50561" data-name="Path 50561" d="M8383.042-2012.069a.308.308,0,0,1,.1.428.311.311,0,0,1-.425.094.31.31,0,0,1-.1-.423A.307.307,0,0,1,8383.042-2012.069Z" transform="translate(-8363.206 2024.565)" fill="#14152e"/>
          <path id="Path_50562" data-name="Path 50562" d="M8381.352-2011.028a.307.307,0,0,1,.1.429.307.307,0,0,1-.423.093.309.309,0,0,1-.1-.422A.308.308,0,0,1,8381.352-2011.028Z" transform="translate(-8360.436 2024.189)" fill="#14152e"/>
          <path id="Path_50563" data-name="Path 50563" d="M8379.661-2009.987a.309.309,0,0,1,.1.429.308.308,0,0,1-.423.093.309.309,0,0,1-.1-.423A.308.308,0,0,1,8379.661-2009.987Z" transform="translate(-8357.666 2023.813)" fill="#14152e"/>
          <path id="Path_50564" data-name="Path 50564" d="M8377.969-2008.945a.309.309,0,0,1,.1.428.31.31,0,0,1-.424.093.309.309,0,0,1-.1-.423A.306.306,0,0,1,8377.969-2008.945Z" transform="translate(-8354.894 2023.437)" fill="#14152e"/>
          <path id="Path_50565" data-name="Path 50565" d="M8376.278-2007.9a.308.308,0,0,1,.1.428.308.308,0,0,1-.423.093.308.308,0,0,1-.1-.422A.308.308,0,0,1,8376.278-2007.9Z" transform="translate(-8352.124 2023.06)" fill="#14152e"/>
          <path id="Path_50566" data-name="Path 50566" d="M8374.589-2006.862a.309.309,0,0,1,.1.428.309.309,0,0,1-.424.094.309.309,0,0,1-.1-.423A.308.308,0,0,1,8374.589-2006.862Z" transform="translate(-8349.354 2022.684)" fill="#14152e"/>
        </g>
        <path id="Path_50567" data-name="Path 50567" d="M8409.976-2033.727a.308.308,0,0,1,.1.428.31.31,0,0,1-.424.093.31.31,0,0,1-.1-.423A.308.308,0,0,1,8409.976-2033.727Z" transform="translate(-8389.945 2052.45)" fill="#14152e"/>
        <path id="Path_50568" data-name="Path 50568" d="M8408.285-2032.685a.307.307,0,0,1,.1.428.308.308,0,0,1-.424.093.307.307,0,0,1-.1-.422A.307.307,0,0,1,8408.285-2032.685Z" transform="translate(-8387.174 2052.073)" fill="#14152e"/>
        <path id="Path_50569" data-name="Path 50569" d="M8406.595-2031.644a.307.307,0,0,1,.1.428.308.308,0,0,1-.423.093.309.309,0,0,1-.1-.423A.307.307,0,0,1,8406.595-2031.644Z" transform="translate(-8384.404 2051.697)" fill="#14152e"/>
        <path id="Path_50570" data-name="Path 50570" d="M8404.905-2030.6a.31.31,0,0,1,.1.429.309.309,0,0,1-.423.093.307.307,0,0,1-.1-.423A.308.308,0,0,1,8404.905-2030.6Z" transform="translate(-8381.634 2051.321)" fill="#14152e"/>
        <path id="Path_50571" data-name="Path 50571" d="M8403.215-2029.561a.308.308,0,0,1,.1.429.307.307,0,0,1-.423.093.307.307,0,0,1-.1-.422A.307.307,0,0,1,8403.215-2029.561Z" transform="translate(-8378.864 2050.944)" fill="#14152e"/>
        <path id="Path_50572" data-name="Path 50572" d="M8401.524-2028.519a.31.31,0,0,1,.1.428.308.308,0,0,1-.423.094.31.31,0,0,1-.1-.423A.308.308,0,0,1,8401.524-2028.519Z" transform="translate(-8376.095 2050.568)" fill="#14152e"/>
        <path id="Path_50573" data-name="Path 50573" d="M8399.834-2027.477a.308.308,0,0,1,.1.429.308.308,0,0,1-.423.093.308.308,0,0,1-.1-.423A.307.307,0,0,1,8399.834-2027.477Z" transform="translate(-8373.324 2050.192)" fill="#14152e"/>
        <path id="Path_50574" data-name="Path 50574" d="M8398.142-2026.435a.309.309,0,0,1,.1.428.309.309,0,0,1-.424.093.308.308,0,0,1-.1-.422A.31.31,0,0,1,8398.142-2026.435Z" transform="translate(-8370.552 2049.815)" fill="#14152e"/>
        <path id="Path_50575" data-name="Path 50575" d="M8396.451-2025.393a.309.309,0,0,1,.1.428.31.31,0,0,1-.425.093.308.308,0,0,1-.1-.422A.308.308,0,0,1,8396.451-2025.393Z" transform="translate(-8367.781 2049.439)" fill="#14152e"/>
        <path id="Path_50576" data-name="Path 50576" d="M8394.762-2024.351a.308.308,0,0,1,.1.428.309.309,0,0,1-.424.093.31.31,0,0,1-.1-.423A.308.308,0,0,1,8394.762-2024.351Z" transform="translate(-8365.012 2049.062)" fill="#14152e"/>
        <path id="Path_50577" data-name="Path 50577" d="M8393.071-2023.31a.309.309,0,0,1,.1.428.309.309,0,0,1-.424.093.307.307,0,0,1-.1-.422A.308.308,0,0,1,8393.071-2023.31Z" transform="translate(-8362.242 2048.686)" fill="#14152e"/>
        <path id="Path_50578" data-name="Path 50578" d="M8391.381-2022.268a.307.307,0,0,1,.1.428.309.309,0,0,1-.424.093.308.308,0,0,1-.1-.422A.307.307,0,0,1,8391.381-2022.268Z" transform="translate(-8359.473 2048.31)" fill="#14152e"/>
        <path id="Path_50579" data-name="Path 50579" d="M8389.69-2021.226a.309.309,0,0,1,.1.428.308.308,0,0,1-.423.094.31.31,0,0,1-.1-.423A.308.308,0,0,1,8389.69-2021.226Z" transform="translate(-8356.702 2047.933)" fill="#14152e"/>
        <path id="Path_50580" data-name="Path 50580" d="M8388-2020.186a.308.308,0,0,1,.1.428.307.307,0,0,1-.423.093.308.308,0,0,1-.1-.422A.307.307,0,0,1,8388-2020.186Z" transform="translate(-8353.933 2047.557)" fill="#14152e"/>
        <path id="Path_50581" data-name="Path 50581" d="M8386.308-2019.144a.309.309,0,0,1,.1.429.308.308,0,0,1-.423.093.308.308,0,0,1-.1-.422A.309.309,0,0,1,8386.308-2019.144Z" transform="translate(-8351.16 2047.18)" fill="#14152e"/>
        <path id="Path_50582" data-name="Path 50582" d="M8384.617-2018.1a.309.309,0,0,1,.1.428.308.308,0,0,1-.423.093.309.309,0,0,1-.1-.423A.307.307,0,0,1,8384.617-2018.1Z" transform="translate(-8348.39 2046.804)" fill="#14152e"/>
        <path id="Path_50583" data-name="Path 50583" d="M8382.928-2017.061a.308.308,0,0,1,.1.428.307.307,0,0,1-.423.093.309.309,0,0,1-.1-.422A.308.308,0,0,1,8382.928-2017.061Z" transform="translate(-8345.621 2046.428)" fill="#14152e"/>
        <path id="Path_50584" data-name="Path 50584" d="M8381.237-2016.019a.31.31,0,0,1,.1.428.309.309,0,0,1-.424.093.307.307,0,0,1-.1-.422A.31.31,0,0,1,8381.237-2016.019Z" transform="translate(-8342.85 2046.051)" fill="#14152e"/>
        <path id="Path_50585" data-name="Path 50585" d="M8379.547-2014.977a.308.308,0,0,1,.1.429.309.309,0,0,1-.424.093.309.309,0,0,1-.1-.423A.308.308,0,0,1,8379.547-2014.977Z" transform="translate(-8340.079 2045.675)" fill="#14152e"/>
        <path id="Path_50586" data-name="Path 50586" d="M8377.856-2013.935a.31.31,0,0,1,.1.429.31.31,0,0,1-.425.093.309.309,0,0,1-.1-.422A.309.309,0,0,1,8377.856-2013.935Z" transform="translate(-8337.309 2045.299)" fill="#14152e"/>
        <path id="Path_50587" data-name="Path 50587" d="M8376.165-2012.893a.309.309,0,0,1,.1.428.309.309,0,0,1-.424.093.308.308,0,0,1-.1-.422A.308.308,0,0,1,8376.165-2012.893Z" transform="translate(-8334.538 2044.922)" fill="#14152e"/>
        <path id="Path_50588" data-name="Path 50588" d="M8374.474-2011.852a.306.306,0,0,1,.1.428.308.308,0,0,1-.423.094.31.31,0,0,1-.1-.423A.308.308,0,0,1,8374.474-2011.852Z" transform="translate(-8331.769 2044.546)" fill="#14152e"/>
        <path id="Path_50589" data-name="Path 50589" d="M8372.784-2010.81a.309.309,0,0,1,.1.428.307.307,0,0,1-.423.093.308.308,0,0,1-.1-.422A.308.308,0,0,1,8372.784-2010.81Z" transform="translate(-8328.999 2044.169)" fill="#14152e"/>
        <path id="Path_50590" data-name="Path 50590" d="M8409.933-2031.942a.307.307,0,0,1,.1.428.309.309,0,0,1-.424.093.309.309,0,0,1-.1-.423A.307.307,0,0,1,8409.933-2031.942Z" transform="translate(-8389.874 2051.805)" fill="#14152e"/>
        <path id="Path_50591" data-name="Path 50591" d="M8408.243-2030.9a.308.308,0,0,1,.1.428.309.309,0,0,1-.424.093.308.308,0,0,1-.1-.422A.308.308,0,0,1,8408.243-2030.9Z" transform="translate(-8387.104 2051.428)" fill="#14152e"/>
        <path id="Path_50592" data-name="Path 50592" d="M8406.551-2029.859a.309.309,0,0,1,.1.429.309.309,0,0,1-.424.093.308.308,0,0,1-.1-.422A.307.307,0,0,1,8406.551-2029.859Z" transform="translate(-8384.332 2051.052)" fill="#14152e"/>
        <path id="Path_50593" data-name="Path 50593" d="M8404.86-2028.817a.308.308,0,0,1,.1.429.309.309,0,0,1-.424.093.309.309,0,0,1-.1-.423A.308.308,0,0,1,8404.86-2028.817Z" transform="translate(-8381.563 2050.676)" fill="#14152e"/>
        <path id="Path_50594" data-name="Path 50594" d="M8403.171-2027.775a.31.31,0,0,1,.1.428.309.309,0,0,1-.424.093.308.308,0,0,1-.1-.422A.308.308,0,0,1,8403.171-2027.775Z" transform="translate(-8378.793 2050.299)" fill="#14152e"/>
        <path id="Path_50595" data-name="Path 50595" d="M8401.48-2026.734a.309.309,0,0,1,.1.429.308.308,0,0,1-.423.093.309.309,0,0,1-.1-.422A.308.308,0,0,1,8401.48-2026.734Z" transform="translate(-8376.022 2049.923)" fill="#14152e"/>
        <path id="Path_50596" data-name="Path 50596" d="M8399.79-2025.692a.309.309,0,0,1,.1.429.308.308,0,0,1-.423.093.309.309,0,0,1-.1-.423A.308.308,0,0,1,8399.79-2025.692Z" transform="translate(-8373.252 2049.546)" fill="#14152e"/>
        <path id="Path_50597" data-name="Path 50597" d="M8398.1-2024.651a.308.308,0,0,1,.1.429.308.308,0,0,1-.423.093.309.309,0,0,1-.1-.422A.309.309,0,0,1,8398.1-2024.651Z" transform="translate(-8370.481 2049.17)" fill="#14152e"/>
        <path id="Path_50598" data-name="Path 50598" d="M8396.409-2023.608a.309.309,0,0,1,.1.428.308.308,0,0,1-.423.093.308.308,0,0,1-.1-.422A.309.309,0,0,1,8396.409-2023.608Z" transform="translate(-8367.711 2048.794)" fill="#14152e"/>
        <path id="Path_50599" data-name="Path 50599" d="M8394.717-2022.567a.309.309,0,0,1,.1.428.31.31,0,0,1-.425.093.309.309,0,0,1-.1-.423A.308.308,0,0,1,8394.717-2022.567Z" transform="translate(-8364.939 2048.417)" fill="#14152e"/>
        <path id="Path_50600" data-name="Path 50600" d="M8393.026-2021.526a.308.308,0,0,1,.1.429.31.31,0,0,1-.424.093.308.308,0,0,1-.1-.422A.308.308,0,0,1,8393.026-2021.526Z" transform="translate(-8362.17 2048.041)" fill="#14152e"/>
        <path id="Path_50601" data-name="Path 50601" d="M8391.337-2020.483a.309.309,0,0,1,.1.428.309.309,0,0,1-.424.093.308.308,0,0,1-.1-.422A.308.308,0,0,1,8391.337-2020.483Z" transform="translate(-8359.4 2047.664)" fill="#14152e"/>
        <path id="Path_50602" data-name="Path 50602" d="M8389.646-2019.442a.308.308,0,0,1,.1.429.308.308,0,0,1-.423.093.31.31,0,0,1-.1-.423A.308.308,0,0,1,8389.646-2019.442Z" transform="translate(-8356.63 2047.288)" fill="#14152e"/>
        <path id="Path_50603" data-name="Path 50603" d="M8387.956-2018.4a.309.309,0,0,1,.1.429.308.308,0,0,1-.423.093.309.309,0,0,1-.1-.423A.308.308,0,0,1,8387.956-2018.4Z" transform="translate(-8353.859 2046.912)" fill="#14152e"/>
        <path id="Path_50604" data-name="Path 50604" d="M8386.266-2017.358a.308.308,0,0,1,.1.428.307.307,0,0,1-.423.093.309.309,0,0,1-.1-.422A.308.308,0,0,1,8386.266-2017.358Z" transform="translate(-8351.091 2046.535)" fill="#14152e"/>
        <path id="Path_50605" data-name="Path 50605" d="M8384.575-2016.317a.31.31,0,0,1,.1.428.309.309,0,0,1-.424.094.309.309,0,0,1-.1-.423A.308.308,0,0,1,8384.575-2016.317Z" transform="translate(-8348.32 2046.159)" fill="#14152e"/>
        <path id="Path_50606" data-name="Path 50606" d="M8382.882-2015.275a.308.308,0,0,1,.1.428.31.31,0,0,1-.424.093.309.309,0,0,1-.1-.423A.305.305,0,0,1,8382.882-2015.275Z" transform="translate(-8345.548 2045.783)" fill="#14152e"/>
        <path id="Path_50607" data-name="Path 50607" d="M8381.192-2014.234a.309.309,0,0,1,.1.429.308.308,0,0,1-.423.093.308.308,0,0,1-.1-.422A.31.31,0,0,1,8381.192-2014.234Z" transform="translate(-8342.776 2045.406)" fill="#14152e"/>
        <path id="Path_50608" data-name="Path 50608" d="M8379.5-2013.192a.309.309,0,0,1,.1.429.309.309,0,0,1-.424.093.309.309,0,0,1-.1-.423A.309.309,0,0,1,8379.5-2013.192Z" transform="translate(-8340.007 2045.03)" fill="#14152e"/>
        <path id="Path_50609" data-name="Path 50609" d="M8377.813-2012.15a.308.308,0,0,1,.1.429.31.31,0,0,1-.424.093.31.31,0,0,1-.1-.423A.309.309,0,0,1,8377.813-2012.15Z" transform="translate(-8337.237 2044.654)" fill="#14152e"/>
        <path id="Path_50610" data-name="Path 50610" d="M8376.122-2011.109a.308.308,0,0,1,.1.428.308.308,0,0,1-.423.094.308.308,0,0,1-.1-.422A.308.308,0,0,1,8376.122-2011.109Z" transform="translate(-8334.469 2044.277)" fill="#14152e"/>
        <path id="Path_50611" data-name="Path 50611" d="M8374.432-2010.067a.307.307,0,0,1,.1.428.309.309,0,0,1-.424.093.309.309,0,0,1-.1-.423A.307.307,0,0,1,8374.432-2010.067Z" transform="translate(-8331.698 2043.901)" fill="#14152e"/>
        <path id="Path_50612" data-name="Path 50612" d="M8372.741-2009.025a.309.309,0,0,1,.1.428.309.309,0,0,1-.423.093.309.309,0,0,1-.1-.423A.308.308,0,0,1,8372.741-2009.025Z" transform="translate(-8328.928 2043.524)" fill="#14152e"/>
        <path id="Path_50613" data-name="Path 50613" d="M8408.434-2036.23a.308.308,0,0,1,.1.428.309.309,0,0,1-.423.093.307.307,0,0,1-.1-.423A.308.308,0,0,1,8408.434-2036.23Z" transform="translate(-8387.416 2053.354)" fill="#14152e"/>
        <path id="Path_50614" data-name="Path 50614" d="M8406.744-2035.188a.31.31,0,0,1,.1.428.31.31,0,0,1-.425.093.308.308,0,0,1-.1-.422A.309.309,0,0,1,8406.744-2035.188Z" transform="translate(-8384.646 2052.978)" fill="#14152e"/>
        <path id="Path_50615" data-name="Path 50615" d="M8405.053-2034.147a.307.307,0,0,1,.1.429.309.309,0,0,1-.424.093.308.308,0,0,1-.1-.423A.307.307,0,0,1,8405.053-2034.147Z" transform="translate(-8381.877 2052.601)" fill="#14152e"/>
        <path id="Path_50616" data-name="Path 50616" d="M8403.363-2033.1a.309.309,0,0,1,.1.428.311.311,0,0,1-.425.093.309.309,0,0,1-.1-.423A.307.307,0,0,1,8403.363-2033.1Z" transform="translate(-8379.107 2052.225)" fill="#14152e"/>
        <path id="Path_50617" data-name="Path 50617" d="M8401.673-2032.063a.306.306,0,0,1,.1.428.307.307,0,0,1-.423.094.308.308,0,0,1-.1-.422A.308.308,0,0,1,8401.673-2032.063Z" transform="translate(-8376.337 2051.849)" fill="#14152e"/>
        <path id="Path_50618" data-name="Path 50618" d="M8399.98-2031.021a.308.308,0,0,1,.1.428.31.31,0,0,1-.424.094.31.31,0,0,1-.1-.423A.308.308,0,0,1,8399.98-2031.021Z" transform="translate(-8373.565 2051.472)" fill="#14152e"/>
        <path id="Path_50619" data-name="Path 50619" d="M8398.291-2029.98a.309.309,0,0,1,.1.428.307.307,0,0,1-.422.093.308.308,0,0,1-.1-.423A.307.307,0,0,1,8398.291-2029.98Z" transform="translate(-8370.796 2051.096)" fill="#14152e"/>
        <path id="Path_50620" data-name="Path 50620" d="M8396.6-2028.938a.309.309,0,0,1,.1.429.308.308,0,0,1-.424.093.308.308,0,0,1-.1-.422A.308.308,0,0,1,8396.6-2028.938Z" transform="translate(-8368.025 2050.719)" fill="#14152e"/>
        <path id="Path_50621" data-name="Path 50621" d="M8394.91-2027.9a.31.31,0,0,1,.1.428.308.308,0,0,1-.423.093.308.308,0,0,1-.1-.423A.308.308,0,0,1,8394.91-2027.9Z" transform="translate(-8365.256 2050.343)" fill="#14152e"/>
        <path id="Path_50622" data-name="Path 50622" d="M8393.219-2026.854a.308.308,0,0,1,.1.428.31.31,0,0,1-.424.093.309.309,0,0,1-.1-.423A.308.308,0,0,1,8393.219-2026.854Z" transform="translate(-8362.485 2049.967)" fill="#14152e"/>
        <path id="Path_50623" data-name="Path 50623" d="M8391.527-2025.813a.309.309,0,0,1,.1.429.31.31,0,0,1-.425.093.309.309,0,0,1-.1-.422A.309.309,0,0,1,8391.527-2025.813Z" transform="translate(-8359.713 2049.59)" fill="#14152e"/>
        <path id="Path_50624" data-name="Path 50624" d="M8389.839-2024.771a.309.309,0,0,1,.1.428.31.31,0,0,1-.425.093.309.309,0,0,1-.1-.422A.309.309,0,0,1,8389.839-2024.771Z" transform="translate(-8356.944 2049.214)" fill="#14152e"/>
        <path id="Path_50625" data-name="Path 50625" d="M8388.146-2023.73a.308.308,0,0,1,.1.429.31.31,0,0,1-.425.093.31.31,0,0,1-.1-.423A.308.308,0,0,1,8388.146-2023.73Z" transform="translate(-8354.174 2048.837)" fill="#14152e"/>
        <path id="Path_50626" data-name="Path 50626" d="M8386.457-2022.688a.308.308,0,0,1,.1.428.309.309,0,0,1-.424.093.309.309,0,0,1-.1-.422A.308.308,0,0,1,8386.457-2022.688Z" transform="translate(-8351.403 2048.461)" fill="#14152e"/>
        <path id="Path_50627" data-name="Path 50627" d="M8384.766-2021.646a.305.305,0,0,1,.1.428.308.308,0,0,1-.423.093.308.308,0,0,1-.1-.422A.307.307,0,0,1,8384.766-2021.646Z" transform="translate(-8348.633 2048.085)" fill="#14152e"/>
        <path id="Path_50628" data-name="Path 50628" d="M8383.076-2020.6a.31.31,0,0,1,.1.428.309.309,0,0,1-.424.094.31.31,0,0,1-.1-.423A.308.308,0,0,1,8383.076-2020.6Z" transform="translate(-8345.864 2047.708)" fill="#14152e"/>
        <path id="Path_50629" data-name="Path 50629" d="M8381.385-2019.563a.308.308,0,0,1,.1.429.307.307,0,0,1-.423.093.307.307,0,0,1-.1-.422A.306.306,0,0,1,8381.385-2019.563Z" transform="translate(-8343.094 2047.332)" fill="#14152e"/>
        <path id="Path_50630" data-name="Path 50630" d="M8379.693-2018.521a.309.309,0,0,1,.1.428.309.309,0,0,1-.424.093.308.308,0,0,1-.1-.422A.309.309,0,0,1,8379.693-2018.521Z" transform="translate(-8340.321 2046.956)" fill="#14152e"/>
        <path id="Path_50631" data-name="Path 50631" d="M8378-2017.479a.308.308,0,0,1,.1.428.308.308,0,0,1-.423.093.309.309,0,0,1-.1-.423A.307.307,0,0,1,8378-2017.479Z" transform="translate(-8337.553 2046.579)" fill="#14152e"/>
        <path id="Path_50632" data-name="Path 50632" d="M8376.313-2016.438a.308.308,0,0,1,.1.428.309.309,0,0,1-.424.094.309.309,0,0,1-.1-.422A.31.31,0,0,1,8376.313-2016.438Z" transform="translate(-8334.78 2046.203)" fill="#14152e"/>
        <path id="Path_50633" data-name="Path 50633" d="M8374.623-2015.4a.309.309,0,0,1,.1.429.309.309,0,0,1-.424.093.309.309,0,0,1-.1-.422A.309.309,0,0,1,8374.623-2015.4Z" transform="translate(-8332.011 2045.827)" fill="#14152e"/>
        <path id="Path_50634" data-name="Path 50634" d="M8372.933-2014.354a.308.308,0,0,1,.1.428.309.309,0,0,1-.424.093.31.31,0,0,1-.1-.423A.309.309,0,0,1,8372.933-2014.354Z" transform="translate(-8329.241 2045.45)" fill="#14152e"/>
        <path id="Path_50635" data-name="Path 50635" d="M8371.242-2013.313a.309.309,0,0,1,.1.428.31.31,0,0,1-.425.093.309.309,0,0,1-.1-.422A.308.308,0,0,1,8371.242-2013.313Z" transform="translate(-8326.472 2045.074)" fill="#14152e"/>
        <path id="Path_50636" data-name="Path 50636" d="M8408.39-2034.444a.309.309,0,0,1,.1.428.309.309,0,0,1-.424.093.309.309,0,0,1-.1-.423A.309.309,0,0,1,8408.39-2034.444Z" transform="translate(-8387.345 2052.709)" fill="#14152e"/>
        <path id="Path_50637" data-name="Path 50637" d="M8406.7-2033.4a.309.309,0,0,1,.1.428.31.31,0,0,1-.425.093.308.308,0,0,1-.1-.422A.308.308,0,0,1,8406.7-2033.4Z" transform="translate(-8384.574 2052.333)" fill="#14152e"/>
        <path id="Path_50638" data-name="Path 50638" d="M8405.01-2032.361a.308.308,0,0,1,.1.428.309.309,0,0,1-.424.093.309.309,0,0,1-.1-.422A.308.308,0,0,1,8405.01-2032.361Z" transform="translate(-8381.806 2051.956)" fill="#14152e"/>
        <path id="Path_50639" data-name="Path 50639" d="M8403.318-2031.319a.308.308,0,0,1,.1.428.31.31,0,0,1-.425.094.309.309,0,0,1-.1-.423A.307.307,0,0,1,8403.318-2031.319Z" transform="translate(-8379.036 2051.58)" fill="#14152e"/>
        <path id="Path_50640" data-name="Path 50640" d="M8401.629-2030.278a.307.307,0,0,1,.1.428.307.307,0,0,1-.423.093.309.309,0,0,1-.1-.422A.308.308,0,0,1,8401.629-2030.278Z" transform="translate(-8376.266 2051.204)" fill="#14152e"/>
        <path id="Path_50641" data-name="Path 50641" d="M8399.938-2029.237a.309.309,0,0,1,.1.428.309.309,0,0,1-.424.093.309.309,0,0,1-.1-.422A.308.308,0,0,1,8399.938-2029.237Z" transform="translate(-8373.495 2050.827)" fill="#14152e"/>
        <path id="Path_50642" data-name="Path 50642" d="M8398.248-2028.195a.308.308,0,0,1,.1.428.307.307,0,0,1-.422.093.309.309,0,0,1-.1-.423A.308.308,0,0,1,8398.248-2028.195Z" transform="translate(-8370.726 2050.451)" fill="#14152e"/>
        <path id="Path_50643" data-name="Path 50643" d="M8396.556-2027.154a.309.309,0,0,1,.1.429.308.308,0,0,1-.423.093.308.308,0,0,1-.1-.422A.308.308,0,0,1,8396.556-2027.154Z" transform="translate(-8367.954 2050.075)" fill="#14152e"/>
        <path id="Path_50644" data-name="Path 50644" d="M8394.865-2026.112a.309.309,0,0,1,.1.429.308.308,0,0,1-.423.093.308.308,0,0,1-.1-.422A.307.307,0,0,1,8394.865-2026.112Z" transform="translate(-8365.184 2049.698)" fill="#14152e"/>
        <path id="Path_50645" data-name="Path 50645" d="M8393.176-2025.07a.308.308,0,0,1,.1.428.308.308,0,0,1-.423.093.31.31,0,0,1-.1-.423A.309.309,0,0,1,8393.176-2025.07Z" transform="translate(-8362.413 2049.322)" fill="#14152e"/>
        <path id="Path_50646" data-name="Path 50646" d="M8391.484-2024.028a.308.308,0,0,1,.1.428.307.307,0,0,1-.423.093.307.307,0,0,1-.1-.422A.309.309,0,0,1,8391.484-2024.028Z" transform="translate(-8359.643 2048.945)" fill="#14152e"/>
        <path id="Path_50647" data-name="Path 50647" d="M8389.795-2022.986a.309.309,0,0,1,.1.429.309.309,0,0,1-.424.093.309.309,0,0,1-.1-.422A.309.309,0,0,1,8389.795-2022.986Z" transform="translate(-8356.872 2048.569)" fill="#14152e"/>
        <path id="Path_50648" data-name="Path 50648" d="M8388.1-2021.944a.308.308,0,0,1,.1.428.311.311,0,0,1-.425.093.31.31,0,0,1-.1-.423A.307.307,0,0,1,8388.1-2021.944Z" transform="translate(-8354.104 2048.192)" fill="#14152e"/>
        <path id="Path_50649" data-name="Path 50649" d="M8386.414-2020.9a.307.307,0,0,1,.1.428.308.308,0,0,1-.424.093.309.309,0,0,1-.1-.422A.308.308,0,0,1,8386.414-2020.9Z" transform="translate(-8351.334 2047.816)" fill="#14152e"/>
        <path id="Path_50650" data-name="Path 50650" d="M8384.722-2019.861a.309.309,0,0,1,.1.428.307.307,0,0,1-.423.093.309.309,0,0,1-.1-.422A.308.308,0,0,1,8384.722-2019.861Z" transform="translate(-8348.562 2047.44)" fill="#14152e"/>
        <path id="Path_50651" data-name="Path 50651" d="M8383.032-2018.819a.309.309,0,0,1,.1.428.308.308,0,0,1-.423.094.309.309,0,0,1-.1-.423A.308.308,0,0,1,8383.032-2018.819Z" transform="translate(-8345.792 2047.063)" fill="#14152e"/>
        <path id="Path_50652" data-name="Path 50652" d="M8381.342-2017.779a.309.309,0,0,1,.1.429.308.308,0,0,1-.423.093.309.309,0,0,1-.1-.422A.308.308,0,0,1,8381.342-2017.779Z" transform="translate(-8343.021 2046.687)" fill="#14152e"/>
        <path id="Path_50653" data-name="Path 50653" d="M8379.651-2016.737a.309.309,0,0,1,.1.429.307.307,0,0,1-.423.093.308.308,0,0,1-.1-.422A.309.309,0,0,1,8379.651-2016.737Z" transform="translate(-8340.251 2046.311)" fill="#14152e"/>
        <path id="Path_50654" data-name="Path 50654" d="M8377.961-2015.695a.308.308,0,0,1,.1.428.308.308,0,0,1-.423.093.31.31,0,0,1-.1-.423A.308.308,0,0,1,8377.961-2015.695Z" transform="translate(-8337.481 2045.934)" fill="#14152e"/>
        <path id="Path_50655" data-name="Path 50655" d="M8376.271-2014.653a.31.31,0,0,1,.1.429.31.31,0,0,1-.424.093.31.31,0,0,1-.1-.423A.309.309,0,0,1,8376.271-2014.653Z" transform="translate(-8334.711 2045.558)" fill="#14152e"/>
        <path id="Path_50656" data-name="Path 50656" d="M8374.58-2013.612a.308.308,0,0,1,.1.428.308.308,0,0,1-.423.094.309.309,0,0,1-.1-.422A.309.309,0,0,1,8374.58-2013.612Z" transform="translate(-8331.94 2045.182)" fill="#14152e"/>
        <path id="Path_50657" data-name="Path 50657" d="M8372.888-2012.569a.309.309,0,0,1,.1.428.309.309,0,0,1-.424.093.309.309,0,0,1-.1-.423A.308.308,0,0,1,8372.888-2012.569Z" transform="translate(-8329.168 2044.805)" fill="#14152e"/>
        <path id="Path_50658" data-name="Path 50658" d="M8432.016-2040.579a.308.308,0,0,1,.1.428.309.309,0,0,1-.424.093.31.31,0,0,1-.1-.423A.308.308,0,0,1,8432.016-2040.579Z" transform="translate(-8426.062 2054.926)" fill="#14152e"/>
        <path id="Path_50659" data-name="Path 50659" d="M8430.326-2039.538a.31.31,0,0,1,.1.428.309.309,0,0,1-.424.093.309.309,0,0,1-.1-.422A.308.308,0,0,1,8430.326-2039.538Z" transform="translate(-8423.291 2054.55)" fill="#14152e"/>
        <path id="Path_50660" data-name="Path 50660" d="M8428.635-2038.5a.307.307,0,0,1,.1.428.308.308,0,0,1-.423.093.308.308,0,0,1-.1-.422A.307.307,0,0,1,8428.635-2038.5Z" transform="translate(-8420.521 2054.173)" fill="#14152e"/>
        <path id="Path_50661" data-name="Path 50661" d="M8426.945-2037.455a.309.309,0,0,1,.1.428.309.309,0,0,1-.424.093.31.31,0,0,1-.1-.423A.308.308,0,0,1,8426.945-2037.455Z" transform="translate(-8417.752 2053.797)" fill="#14152e"/>
        <path id="Path_50662" data-name="Path 50662" d="M8425.255-2036.413a.308.308,0,0,1,.1.428.308.308,0,0,1-.423.093.307.307,0,0,1-.1-.422A.308.308,0,0,1,8425.255-2036.413Z" transform="translate(-8414.98 2053.42)" fill="#14152e"/>
        <path id="Path_50663" data-name="Path 50663" d="M8423.563-2035.372a.309.309,0,0,1,.1.429.31.31,0,0,1-.425.093.309.309,0,0,1-.1-.422A.31.31,0,0,1,8423.563-2035.372Z" transform="translate(-8412.208 2053.044)" fill="#14152e"/>
        <path id="Path_50664" data-name="Path 50664" d="M8421.873-2034.33a.308.308,0,0,1,.1.428.309.309,0,0,1-.424.093.309.309,0,0,1-.1-.423A.309.309,0,0,1,8421.873-2034.33Z" transform="translate(-8409.438 2052.667)" fill="#14152e"/>
        <path id="Path_50665" data-name="Path 50665" d="M8420.182-2033.288a.308.308,0,0,1,.1.429.311.311,0,0,1-.425.093.309.309,0,0,1-.1-.422A.308.308,0,0,1,8420.182-2033.288Z" transform="translate(-8406.669 2052.291)" fill="#14152e"/>
        <path id="Path_50666" data-name="Path 50666" d="M8418.492-2032.247a.309.309,0,0,1,.1.429.31.31,0,0,1-.425.093.309.309,0,0,1-.1-.422A.308.308,0,0,1,8418.492-2032.247Z" transform="translate(-8403.899 2051.915)" fill="#14152e"/>
        <path id="Path_50667" data-name="Path 50667" d="M8416.8-2031.2a.307.307,0,0,1,.1.428.308.308,0,0,1-.423.093.31.31,0,0,1-.1-.423A.308.308,0,0,1,8416.8-2031.2Z" transform="translate(-8401.13 2051.538)" fill="#14152e"/>
        <path id="Path_50668" data-name="Path 50668" d="M8415.111-2030.163a.309.309,0,0,1,.1.429.31.31,0,0,1-.424.093.31.31,0,0,1-.1-.423A.307.307,0,0,1,8415.111-2030.163Z" transform="translate(-8398.359 2051.162)" fill="#14152e"/>
        <path id="Path_50669" data-name="Path 50669" d="M8425.211-2034.628a.309.309,0,0,1,.1.429.308.308,0,0,1-.423.093.31.31,0,0,1-.1-.423A.309.309,0,0,1,8425.211-2034.628Z" transform="translate(-8414.908 2052.775)" fill="#14152e"/>
        <path id="Path_50670" data-name="Path 50670" d="M8423.521-2033.586a.309.309,0,0,1,.1.428.308.308,0,0,1-.423.093.308.308,0,0,1-.1-.422A.31.31,0,0,1,8423.521-2033.586Z" transform="translate(-8412.138 2052.399)" fill="#14152e"/>
        <path id="Path_50671" data-name="Path 50671" d="M8421.83-2032.545a.309.309,0,0,1,.1.429.309.309,0,0,1-.424.093.31.31,0,0,1-.1-.423A.309.309,0,0,1,8421.83-2032.545Z" transform="translate(-8409.368 2052.023)" fill="#14152e"/>
        <path id="Path_50672" data-name="Path 50672" d="M8420.137-2031.5a.308.308,0,0,1,.1.429.311.311,0,0,1-.425.093.31.31,0,0,1-.1-.423A.307.307,0,0,1,8420.137-2031.5Z" transform="translate(-8406.598 2051.646)" fill="#14152e"/>
        <path id="Path_50673" data-name="Path 50673" d="M8418.447-2030.462a.309.309,0,0,1,.1.429.309.309,0,0,1-.424.093.308.308,0,0,1-.1-.422A.308.308,0,0,1,8418.447-2030.462Z" transform="translate(-8403.827 2051.27)" fill="#14152e"/>
        <path id="Path_50674" data-name="Path 50674" d="M8416.758-2029.42a.31.31,0,0,1,.1.429.308.308,0,0,1-.423.093.307.307,0,0,1-.1-.422A.308.308,0,0,1,8416.758-2029.42Z" transform="translate(-8401.057 2050.893)" fill="#14152e"/>
        <path id="Path_50675" data-name="Path 50675" d="M8415.066-2028.378a.308.308,0,0,1,.1.428.308.308,0,0,1-.423.093.308.308,0,0,1-.1-.423A.307.307,0,0,1,8415.066-2028.378Z" transform="translate(-8398.286 2050.517)" fill="#14152e"/>
        <path id="Path_50676" data-name="Path 50676" d="M8435.546-2046.208a.309.309,0,0,1,.1.428.309.309,0,0,1-.424.094.308.308,0,0,1-.1-.423A.309.309,0,0,1,8435.546-2046.208Z" transform="translate(-8431.844 2056.959)" fill="#14152e"/>
        <path id="Path_50677" data-name="Path 50677" d="M8433.854-2045.167a.308.308,0,0,1,.1.429.309.309,0,0,1-.424.093.308.308,0,0,1-.1-.422A.31.31,0,0,1,8433.854-2045.167Z" transform="translate(-8429.073 2056.583)" fill="#14152e"/>
        <path id="Path_50678" data-name="Path 50678" d="M8432.165-2044.125a.31.31,0,0,1,.1.429.309.309,0,0,1-.424.093.308.308,0,0,1-.1-.422A.309.309,0,0,1,8432.165-2044.125Z" transform="translate(-8426.304 2056.206)" fill="#14152e"/>
        <path id="Path_50679" data-name="Path 50679" d="M8430.475-2043.083a.307.307,0,0,1,.1.428.309.309,0,0,1-.424.093.31.31,0,0,1-.1-.423A.308.308,0,0,1,8430.475-2043.083Z" transform="translate(-8423.534 2055.83)" fill="#14152e"/>
        <path id="Path_50680" data-name="Path 50680" d="M8428.784-2042.042a.309.309,0,0,1,.1.428.31.31,0,0,1-.425.093.308.308,0,0,1-.1-.422A.308.308,0,0,1,8428.784-2042.042Z" transform="translate(-8420.764 2055.454)" fill="#14152e"/>
        <path id="Path_50681" data-name="Path 50681" d="M8427.094-2041a.308.308,0,0,1,.1.428.308.308,0,0,1-.423.094.308.308,0,0,1-.1-.422A.307.307,0,0,1,8427.094-2041Z" transform="translate(-8417.995 2055.077)" fill="#14152e"/>
        <path id="Path_50682" data-name="Path 50682" d="M8425.4-2039.958a.309.309,0,0,1,.1.429.308.308,0,0,1-.423.093.308.308,0,0,1-.1-.423A.308.308,0,0,1,8425.4-2039.958Z" transform="translate(-8415.223 2054.701)" fill="#14152e"/>
        <path id="Path_50683" data-name="Path 50683" d="M8423.712-2038.916a.309.309,0,0,1,.1.428.308.308,0,0,1-.424.093.308.308,0,0,1-.1-.422A.308.308,0,0,1,8423.712-2038.916Z" transform="translate(-8412.452 2054.324)" fill="#14152e"/>
        <path id="Path_50684" data-name="Path 50684" d="M8422.021-2037.874a.309.309,0,0,1,.1.428.308.308,0,0,1-.423.093.308.308,0,0,1-.1-.422A.308.308,0,0,1,8422.021-2037.874Z" transform="translate(-8409.682 2053.948)" fill="#14152e"/>
        <path id="Path_50685" data-name="Path 50685" d="M8420.331-2036.833a.309.309,0,0,1,.1.428.307.307,0,0,1-.422.094.308.308,0,0,1-.1-.423A.308.308,0,0,1,8420.331-2036.833Z" transform="translate(-8406.911 2053.572)" fill="#14152e"/>
        <path id="Path_50686" data-name="Path 50686" d="M8418.641-2035.791a.308.308,0,0,1,.1.428.308.308,0,0,1-.423.093.308.308,0,0,1-.1-.422A.309.309,0,0,1,8418.641-2035.791Z" transform="translate(-8404.142 2053.196)" fill="#14152e"/>
        <path id="Path_50687" data-name="Path 50687" d="M8416.95-2034.75a.31.31,0,0,1,.1.428.309.309,0,0,1-.424.093.307.307,0,0,1-.1-.422A.309.309,0,0,1,8416.95-2034.75Z" transform="translate(-8401.372 2052.819)" fill="#14152e"/>
        <path id="Path_50688" data-name="Path 50688" d="M8415.26-2033.708a.308.308,0,0,1,.1.428.308.308,0,0,1-.424.093.31.31,0,0,1-.1-.423A.308.308,0,0,1,8415.26-2033.708Z" transform="translate(-8398.602 2052.443)" fill="#14152e"/>
        <path id="Path_50689" data-name="Path 50689" d="M8413.567-2032.667a.309.309,0,0,1,.1.429.309.309,0,0,1-.424.093.308.308,0,0,1-.1-.422A.308.308,0,0,1,8413.567-2032.667Z" transform="translate(-8395.83 2052.067)" fill="#14152e"/>
        <path id="Path_50690" data-name="Path 50690" d="M8433.813-2043.381a.31.31,0,0,1,.1.429.31.31,0,0,1-.425.093.309.309,0,0,1-.1-.422A.309.309,0,0,1,8433.813-2043.381Z" transform="translate(-8429.003 2055.938)" fill="#14152e"/>
        <path id="Path_50691" data-name="Path 50691" d="M8432.121-2042.34a.309.309,0,0,1,.1.429.309.309,0,0,1-.424.093.308.308,0,0,1-.1-.422A.309.309,0,0,1,8432.121-2042.34Z" transform="translate(-8426.231 2055.562)" fill="#14152e"/>
        <path id="Path_50692" data-name="Path 50692" d="M8430.431-2041.3a.308.308,0,0,1,.1.429.309.309,0,0,1-.424.093.309.309,0,0,1-.1-.423A.308.308,0,0,1,8430.431-2041.3Z" transform="translate(-8423.463 2055.185)" fill="#14152e"/>
        <path id="Path_50693" data-name="Path 50693" d="M8428.74-2040.256a.307.307,0,0,1,.1.429.309.309,0,0,1-.423.093.309.309,0,0,1-.1-.423A.307.307,0,0,1,8428.74-2040.256Z" transform="translate(-8420.692 2054.809)" fill="#14152e"/>
        <path id="Path_50694" data-name="Path 50694" d="M8427.05-2039.214a.309.309,0,0,1,.1.429.308.308,0,0,1-.423.093.308.308,0,0,1-.1-.422A.308.308,0,0,1,8427.05-2039.214Z" transform="translate(-8417.923 2054.432)" fill="#14152e"/>
        <path id="Path_50695" data-name="Path 50695" d="M8425.359-2038.172a.309.309,0,0,1,.1.429.309.309,0,0,1-.424.093.309.309,0,0,1-.1-.423A.308.308,0,0,1,8425.359-2038.172Z" transform="translate(-8415.152 2054.056)" fill="#14152e"/>
        <path id="Path_50696" data-name="Path 50696" d="M8423.669-2037.131a.308.308,0,0,1,.1.429.309.309,0,0,1-.423.093.309.309,0,0,1-.1-.423A.307.307,0,0,1,8423.669-2037.131Z" transform="translate(-8412.382 2053.68)" fill="#14152e"/>
        <path id="Path_50697" data-name="Path 50697" d="M8421.979-2036.089a.309.309,0,0,1,.1.428.309.309,0,0,1-.424.094.309.309,0,0,1-.1-.422A.308.308,0,0,1,8421.979-2036.089Z" transform="translate(-8409.612 2053.303)" fill="#14152e"/>
        <path id="Path_50698" data-name="Path 50698" d="M8420.286-2035.047a.309.309,0,0,1,.1.428.308.308,0,0,1-.423.093.309.309,0,0,1-.1-.423A.307.307,0,0,1,8420.286-2035.047Z" transform="translate(-8406.841 2052.927)" fill="#14152e"/>
        <path id="Path_50699" data-name="Path 50699" d="M8418.6-2034.005a.307.307,0,0,1,.1.428.309.309,0,0,1-.423.093.307.307,0,0,1-.1-.423A.308.308,0,0,1,8418.6-2034.005Z" transform="translate(-8404.068 2052.55)" fill="#14152e"/>
        <path id="Path_50700" data-name="Path 50700" d="M8416.905-2032.964a.309.309,0,0,1,.1.428.308.308,0,0,1-.424.093.308.308,0,0,1-.1-.422A.308.308,0,0,1,8416.905-2032.964Z" transform="translate(-8401.299 2052.174)" fill="#14152e"/>
        <path id="Path_50701" data-name="Path 50701" d="M8415.217-2031.922a.308.308,0,0,1,.1.428.309.309,0,0,1-.424.093.308.308,0,0,1-.1-.423A.31.31,0,0,1,8415.217-2031.922Z" transform="translate(-8398.528 2051.798)" fill="#14152e"/>
        <path id="Path_50702" data-name="Path 50702" d="M8413.524-2030.881a.309.309,0,0,1,.1.429.311.311,0,0,1-.425.093.31.31,0,0,1-.1-.423A.307.307,0,0,1,8413.524-2030.881Z" transform="translate(-8395.761 2051.421)" fill="#14152e"/>
        <path id="Path_50703" data-name="Path 50703" d="M8438.77-2051.5a.307.307,0,0,1,.1.429.309.309,0,0,1-.424.093.309.309,0,0,1-.1-.422A.309.309,0,0,1,8438.77-2051.5Z" transform="translate(-8437.127 2058.87)" fill="#14152e"/>
        <path id="Path_50704" data-name="Path 50704" d="M8437.079-2050.454a.31.31,0,0,1,.1.428.308.308,0,0,1-.423.093.308.308,0,0,1-.1-.422A.308.308,0,0,1,8437.079-2050.454Z" transform="translate(-8434.357 2058.493)" fill="#14152e"/>
        <path id="Path_50705" data-name="Path 50705" d="M8435.389-2049.412a.307.307,0,0,1,.1.428.308.308,0,0,1-.423.094.309.309,0,0,1-.1-.423A.307.307,0,0,1,8435.389-2049.412Z" transform="translate(-8431.587 2058.117)" fill="#14152e"/>
        <path id="Path_50706" data-name="Path 50706" d="M8433.7-2048.372a.31.31,0,0,1,.1.429.308.308,0,0,1-.423.093.308.308,0,0,1-.1-.422A.309.309,0,0,1,8433.7-2048.372Z" transform="translate(-8428.817 2057.741)" fill="#14152e"/>
        <path id="Path_50707" data-name="Path 50707" d="M8432.006-2047.33a.309.309,0,0,1,.1.429.309.309,0,0,1-.424.093.307.307,0,0,1-.1-.422A.307.307,0,0,1,8432.006-2047.33Z" transform="translate(-8426.045 2057.365)" fill="#14152e"/>
        <path id="Path_50708" data-name="Path 50708" d="M8430.315-2046.288a.309.309,0,0,1,.1.429.308.308,0,0,1-.423.093.31.31,0,0,1-.1-.423A.308.308,0,0,1,8430.315-2046.288Z" transform="translate(-8423.275 2056.988)" fill="#14152e"/>
        <path id="Path_50709" data-name="Path 50709" d="M8428.626-2045.247a.31.31,0,0,1,.1.429.307.307,0,0,1-.423.093.306.306,0,0,1-.1-.422A.309.309,0,0,1,8428.626-2045.247Z" transform="translate(-8420.504 2056.612)" fill="#14152e"/>
        <path id="Path_50710" data-name="Path 50710" d="M8426.935-2044.2a.308.308,0,0,1,.1.429.309.309,0,0,1-.424.093.308.308,0,0,1-.1-.422A.308.308,0,0,1,8426.935-2044.2Z" transform="translate(-8417.733 2056.235)" fill="#14152e"/>
        <path id="Path_50711" data-name="Path 50711" d="M8425.245-2043.162a.309.309,0,0,1,.1.428.309.309,0,0,1-.424.094.309.309,0,0,1-.1-.423A.309.309,0,0,1,8425.245-2043.162Z" transform="translate(-8414.965 2055.859)" fill="#14152e"/>
        <path id="Path_50712" data-name="Path 50712" d="M8423.554-2042.121a.307.307,0,0,1,.1.429.308.308,0,0,1-.424.093.307.307,0,0,1-.1-.422A.306.306,0,0,1,8423.554-2042.121Z" transform="translate(-8412.195 2055.483)" fill="#14152e"/>
        <path id="Path_50713" data-name="Path 50713" d="M8421.864-2041.079a.308.308,0,0,1,.1.428.309.309,0,0,1-.424.093.308.308,0,0,1-.1-.422A.308.308,0,0,1,8421.864-2041.079Z" transform="translate(-8409.425 2055.106)" fill="#14152e"/>
        <path id="Path_50714" data-name="Path 50714" d="M8420.174-2040.037a.307.307,0,0,1,.1.428.308.308,0,0,1-.423.093.309.309,0,0,1-.1-.423A.307.307,0,0,1,8420.174-2040.037Z" transform="translate(-8406.654 2054.73)" fill="#14152e"/>
        <path id="Path_50715" data-name="Path 50715" d="M8418.481-2039a.308.308,0,0,1,.1.428.309.309,0,0,1-.424.093.309.309,0,0,1-.1-.422A.308.308,0,0,1,8418.481-2039Z" transform="translate(-8403.883 2054.354)" fill="#14152e"/>
        <path id="Path_50716" data-name="Path 50716" d="M8416.791-2037.954a.309.309,0,0,1,.1.428.309.309,0,0,1-.424.093.308.308,0,0,1-.1-.422A.307.307,0,0,1,8416.791-2037.954Z" transform="translate(-8401.113 2053.977)" fill="#14152e"/>
        <path id="Path_50717" data-name="Path 50717" d="M8415.1-2036.913a.308.308,0,0,1,.1.428.308.308,0,0,1-.423.093.31.31,0,0,1-.1-.423A.308.308,0,0,1,8415.1-2036.913Z" transform="translate(-8398.344 2053.601)" fill="#14152e"/>
        <path id="Path_50718" data-name="Path 50718" d="M8413.411-2035.871a.31.31,0,0,1,.1.429.308.308,0,0,1-.423.093.308.308,0,0,1-.1-.422A.308.308,0,0,1,8413.411-2035.871Z" transform="translate(-8395.573 2053.225)" fill="#14152e"/>
        <path id="Path_50719" data-name="Path 50719" d="M8411.721-2034.829a.308.308,0,0,1,.1.428.307.307,0,0,1-.423.093.307.307,0,0,1-.1-.422A.308.308,0,0,1,8411.721-2034.829Z" transform="translate(-8392.802 2052.848)" fill="#14152e"/>
        <path id="Path_50720" data-name="Path 50720" d="M8437.034-2048.669a.308.308,0,0,1,.1.428.307.307,0,0,1-.423.094.308.308,0,0,1-.1-.422A.307.307,0,0,1,8437.034-2048.669Z" transform="translate(-8434.285 2057.849)" fill="#14152e"/>
        <path id="Path_50721" data-name="Path 50721" d="M8435.344-2047.628a.307.307,0,0,1,.1.429.308.308,0,0,1-.423.093.308.308,0,0,1-.1-.423A.307.307,0,0,1,8435.344-2047.628Z" transform="translate(-8431.515 2057.472)" fill="#14152e"/>
        <path id="Path_50722" data-name="Path 50722" d="M8433.653-2046.586a.309.309,0,0,1,.1.429.308.308,0,0,1-.423.093.308.308,0,0,1-.1-.422A.307.307,0,0,1,8433.653-2046.586Z" transform="translate(-8428.745 2057.096)" fill="#14152e"/>
        <path id="Path_50723" data-name="Path 50723" d="M8431.964-2045.544a.308.308,0,0,1,.1.428.307.307,0,0,1-.423.093.307.307,0,0,1-.1-.422A.308.308,0,0,1,8431.964-2045.544Z" transform="translate(-8425.974 2056.719)" fill="#14152e"/>
        <path id="Path_50724" data-name="Path 50724" d="M8430.273-2044.5a.31.31,0,0,1,.1.429.309.309,0,0,1-.424.093.309.309,0,0,1-.1-.423A.308.308,0,0,1,8430.273-2044.5Z" transform="translate(-8423.204 2056.343)" fill="#14152e"/>
        <path id="Path_50725" data-name="Path 50725" d="M8428.583-2043.461a.308.308,0,0,1,.1.428.307.307,0,0,1-.422.093.309.309,0,0,1-.1-.423A.308.308,0,0,1,8428.583-2043.461Z" transform="translate(-8420.436 2055.967)" fill="#14152e"/>
        <path id="Path_50726" data-name="Path 50726" d="M8426.893-2042.42a.31.31,0,0,1,.1.429.309.309,0,0,1-.424.093.308.308,0,0,1-.1-.422A.309.309,0,0,1,8426.893-2042.42Z" transform="translate(-8417.664 2055.59)" fill="#14152e"/>
        <path id="Path_50727" data-name="Path 50727" d="M8425.2-2041.378a.309.309,0,0,1,.1.429.309.309,0,0,1-.424.093.309.309,0,0,1-.1-.423A.309.309,0,0,1,8425.2-2041.378Z" transform="translate(-8414.893 2055.214)" fill="#14152e"/>
        <path id="Path_50728" data-name="Path 50728" d="M8423.51-2040.336a.308.308,0,0,1,.1.429.311.311,0,0,1-.425.093.309.309,0,0,1-.1-.423A.307.307,0,0,1,8423.51-2040.336Z" transform="translate(-8412.123 2054.838)" fill="#14152e"/>
        <path id="Path_50729" data-name="Path 50729" d="M8421.82-2039.295a.308.308,0,0,1,.1.429.309.309,0,0,1-.424.093.308.308,0,0,1-.1-.422A.308.308,0,0,1,8421.82-2039.295Z" transform="translate(-8409.353 2054.461)" fill="#14152e"/>
        <path id="Path_50730" data-name="Path 50730" d="M8420.13-2038.253a.307.307,0,0,1,.1.428.309.309,0,0,1-.424.093.309.309,0,0,1-.1-.423A.308.308,0,0,1,8420.13-2038.253Z" transform="translate(-8406.583 2054.085)" fill="#14152e"/>
        <path id="Path_50731" data-name="Path 50731" d="M8418.439-2037.211a.31.31,0,0,1,.1.428.31.31,0,0,1-.424.093.31.31,0,0,1-.1-.423A.308.308,0,0,1,8418.439-2037.211Z" transform="translate(-8403.813 2053.708)" fill="#14152e"/>
        <path id="Path_50732" data-name="Path 50732" d="M8416.749-2036.17a.309.309,0,0,1,.1.429.308.308,0,0,1-.423.093.308.308,0,0,1-.1-.422A.309.309,0,0,1,8416.749-2036.17Z" transform="translate(-8401.043 2053.332)" fill="#14152e"/>
        <path id="Path_50733" data-name="Path 50733" d="M8415.059-2035.128a.31.31,0,0,1,.1.429.308.308,0,0,1-.423.093.309.309,0,0,1-.1-.423A.308.308,0,0,1,8415.059-2035.128Z" transform="translate(-8398.272 2052.956)" fill="#14152e"/>
        <path id="Path_50734" data-name="Path 50734" d="M8413.367-2034.086a.309.309,0,0,1,.1.429.309.309,0,0,1-.423.093.309.309,0,0,1-.1-.423A.308.308,0,0,1,8413.367-2034.086Z" transform="translate(-8395.501 2052.579)" fill="#14152e"/>
        <path id="Path_50735" data-name="Path 50735" d="M8411.676-2033.044a.308.308,0,0,1,.1.428.308.308,0,0,1-.423.093.308.308,0,0,1-.1-.422A.308.308,0,0,1,8411.676-2033.044Z" transform="translate(-8392.73 2052.203)" fill="#14152e"/>
        <path id="Path_50736" data-name="Path 50736" d="M8440.608-2056.083a.308.308,0,0,1,.1.428.308.308,0,0,1-.423.093.308.308,0,0,1-.1-.423A.308.308,0,0,1,8440.608-2056.083Z" transform="translate(-8440.14 2060.527)" fill="#14152e"/>
        <path id="Path_50737" data-name="Path 50737" d="M8438.918-2055.041a.308.308,0,0,1,.1.428.309.309,0,0,1-.423.093.309.309,0,0,1-.1-.423A.309.309,0,0,1,8438.918-2055.041Z" transform="translate(-8437.369 2060.151)" fill="#14152e"/>
        <path id="Path_50738" data-name="Path 50738" d="M8437.228-2054a.31.31,0,0,1,.1.429.31.31,0,0,1-.425.093.309.309,0,0,1-.1-.422A.309.309,0,0,1,8437.228-2054Z" transform="translate(-8434.6 2059.775)" fill="#14152e"/>
        <path id="Path_50739" data-name="Path 50739" d="M8435.535-2052.958a.308.308,0,0,1,.1.428.31.31,0,0,1-.424.093.308.308,0,0,1-.1-.423A.308.308,0,0,1,8435.535-2052.958Z" transform="translate(-8431.829 2059.398)" fill="#14152e"/>
        <path id="Path_50740" data-name="Path 50740" d="M8433.845-2051.916a.308.308,0,0,1,.1.428.31.31,0,0,1-.424.093.308.308,0,0,1-.1-.423A.308.308,0,0,1,8433.845-2051.916Z" transform="translate(-8429.058 2059.021)" fill="#14152e"/>
        <path id="Path_50741" data-name="Path 50741" d="M8432.154-2050.875a.307.307,0,0,1,.1.429.308.308,0,0,1-.423.093.307.307,0,0,1-.1-.422A.307.307,0,0,1,8432.154-2050.875Z" transform="translate(-8426.288 2058.645)" fill="#14152e"/>
        <path id="Path_50742" data-name="Path 50742" d="M8430.465-2049.832a.309.309,0,0,1,.1.429.308.308,0,0,1-.423.093.308.308,0,0,1-.1-.422A.308.308,0,0,1,8430.465-2049.832Z" transform="translate(-8423.519 2058.269)" fill="#14152e"/>
        <path id="Path_50743" data-name="Path 50743" d="M8428.773-2048.79a.307.307,0,0,1,.1.428.308.308,0,0,1-.423.093.308.308,0,0,1-.1-.423A.307.307,0,0,1,8428.773-2048.79Z" transform="translate(-8420.747 2057.892)" fill="#14152e"/>
        <path id="Path_50744" data-name="Path 50744" d="M8427.084-2047.75a.309.309,0,0,1,.1.429.308.308,0,0,1-.423.093.308.308,0,0,1-.1-.422A.308.308,0,0,1,8427.084-2047.75Z" transform="translate(-8417.979 2057.516)" fill="#14152e"/>
        <path id="Path_50745" data-name="Path 50745" d="M8425.393-2046.708a.309.309,0,0,1,.1.429.309.309,0,0,1-.424.093.308.308,0,0,1-.1-.422A.308.308,0,0,1,8425.393-2046.708Z" transform="translate(-8415.208 2057.14)" fill="#14152e"/>
        <path id="Path_50746" data-name="Path 50746" d="M8423.7-2045.666a.309.309,0,0,1,.1.428.309.309,0,0,1-.424.093.309.309,0,0,1-.1-.423A.309.309,0,0,1,8423.7-2045.666Z" transform="translate(-8412.436 2056.763)" fill="#14152e"/>
        <path id="Path_50747" data-name="Path 50747" d="M8422.011-2044.625a.309.309,0,0,1,.1.428.309.309,0,0,1-.425.093.308.308,0,0,1-.1-.422A.308.308,0,0,1,8422.011-2044.625Z" transform="translate(-8409.665 2056.387)" fill="#14152e"/>
        <path id="Path_50748" data-name="Path 50748" d="M8420.32-2043.583a.309.309,0,0,1,.1.429.31.31,0,0,1-.425.093.307.307,0,0,1-.1-.422A.308.308,0,0,1,8420.32-2043.583Z" transform="translate(-8406.895 2056.01)" fill="#14152e"/>
        <path id="Path_50749" data-name="Path 50749" d="M8418.631-2042.541a.308.308,0,0,1,.1.428.309.309,0,0,1-.424.093.309.309,0,0,1-.1-.423A.308.308,0,0,1,8418.631-2042.541Z" transform="translate(-8404.126 2055.634)" fill="#14152e"/>
        <path id="Path_50750" data-name="Path 50750" d="M8416.939-2041.5a.309.309,0,0,1,.1.428.31.31,0,0,1-.425.093.307.307,0,0,1-.1-.422A.307.307,0,0,1,8416.939-2041.5Z" transform="translate(-8401.355 2055.258)" fill="#14152e"/>
        <path id="Path_50751" data-name="Path 50751" d="M8415.25-2040.457a.307.307,0,0,1,.1.428.308.308,0,0,1-.423.093.308.308,0,0,1-.1-.422A.308.308,0,0,1,8415.25-2040.457Z" transform="translate(-8398.587 2054.881)" fill="#14152e"/>
        <path id="Path_50752" data-name="Path 50752" d="M8413.559-2039.416a.309.309,0,0,1,.1.429.309.309,0,0,1-.424.093.309.309,0,0,1-.1-.423A.308.308,0,0,1,8413.559-2039.416Z" transform="translate(-8395.815 2054.505)" fill="#14152e"/>
        <path id="Path_50753" data-name="Path 50753" d="M8411.867-2038.374a.309.309,0,0,1,.1.428.309.309,0,0,1-.424.093.309.309,0,0,1-.1-.422A.308.308,0,0,1,8411.867-2038.374Z" transform="translate(-8393.044 2054.129)" fill="#14152e"/>
        <path id="Path_50754" data-name="Path 50754" d="M8410.177-2037.332a.309.309,0,0,1,.1.428.308.308,0,0,1-.423.093.307.307,0,0,1-.1-.422A.307.307,0,0,1,8410.177-2037.332Z" transform="translate(-8390.273 2053.752)" fill="#14152e"/>
        <path id="Path_50755" data-name="Path 50755" d="M8438.875-2053.256a.308.308,0,0,1,.1.428.308.308,0,0,1-.423.093.308.308,0,0,1-.1-.423A.308.308,0,0,1,8438.875-2053.256Z" transform="translate(-8437.3 2059.506)" fill="#14152e"/>
        <path id="Path_50756" data-name="Path 50756" d="M8437.183-2052.214a.309.309,0,0,1,.1.428.308.308,0,0,1-.424.093.309.309,0,0,1-.1-.422A.309.309,0,0,1,8437.183-2052.214Z" transform="translate(-8434.527 2059.13)" fill="#14152e"/>
        <path id="Path_50757" data-name="Path 50757" d="M8435.494-2051.173a.31.31,0,0,1,.1.429.309.309,0,0,1-.424.093.307.307,0,0,1-.1-.422A.31.31,0,0,1,8435.494-2051.173Z" transform="translate(-8431.757 2058.753)" fill="#14152e"/>
        <path id="Path_50758" data-name="Path 50758" d="M8433.8-2050.131a.306.306,0,0,1,.1.428.309.309,0,0,1-.424.093.309.309,0,0,1-.1-.423A.307.307,0,0,1,8433.8-2050.131Z" transform="translate(-8428.988 2058.377)" fill="#14152e"/>
        <path id="Path_50759" data-name="Path 50759" d="M8432.112-2049.089a.309.309,0,0,1,.1.428.309.309,0,0,1-.424.093.307.307,0,0,1-.1-.422A.308.308,0,0,1,8432.112-2049.089Z" transform="translate(-8426.218 2058)" fill="#14152e"/>
        <path id="Path_50760" data-name="Path 50760" d="M8430.422-2048.047a.307.307,0,0,1,.1.428.308.308,0,0,1-.423.094.307.307,0,0,1-.1-.422A.307.307,0,0,1,8430.422-2048.047Z" transform="translate(-8423.448 2057.624)" fill="#14152e"/>
        <path id="Path_50761" data-name="Path 50761" d="M8428.729-2047.005a.309.309,0,0,1,.1.428.31.31,0,0,1-.424.093.31.31,0,0,1-.1-.423A.308.308,0,0,1,8428.729-2047.005Z" transform="translate(-8420.677 2057.248)" fill="#14152e"/>
        <path id="Path_50762" data-name="Path 50762" d="M8427.039-2045.965a.308.308,0,0,1,.1.429.306.306,0,0,1-.422.093.307.307,0,0,1-.1-.422A.308.308,0,0,1,8427.039-2045.965Z" transform="translate(-8417.905 2056.871)" fill="#14152e"/>
        <path id="Path_50763" data-name="Path 50763" d="M8425.349-2044.922a.307.307,0,0,1,.1.428.309.309,0,0,1-.424.093.309.309,0,0,1-.1-.422A.308.308,0,0,1,8425.349-2044.922Z" transform="translate(-8415.136 2056.495)" fill="#14152e"/>
        <path id="Path_50764" data-name="Path 50764" d="M8423.659-2043.881a.31.31,0,0,1,.1.429.308.308,0,0,1-.423.093.306.306,0,0,1-.1-.423A.308.308,0,0,1,8423.659-2043.881Z" transform="translate(-8412.365 2056.118)" fill="#14152e"/>
        <path id="Path_50765" data-name="Path 50765" d="M8421.969-2042.839a.308.308,0,0,1,.1.429.309.309,0,0,1-.423.093.308.308,0,0,1-.1-.423A.309.309,0,0,1,8421.969-2042.839Z" transform="translate(-8409.595 2055.742)" fill="#14152e"/>
        <path id="Path_50766" data-name="Path 50766" d="M8420.278-2041.8a.31.31,0,0,1,.1.428.309.309,0,0,1-.424.093.309.309,0,0,1-.1-.422A.309.309,0,0,1,8420.278-2041.8Z" transform="translate(-8406.825 2055.365)" fill="#14152e"/>
        <path id="Path_50767" data-name="Path 50767" d="M8418.588-2040.755a.308.308,0,0,1,.1.428.309.309,0,0,1-.424.094.308.308,0,0,1-.1-.423A.308.308,0,0,1,8418.588-2040.755Z" transform="translate(-8404.056 2054.989)" fill="#14152e"/>
        <path id="Path_50768" data-name="Path 50768" d="M8416.9-2039.714a.308.308,0,0,1,.1.429.31.31,0,0,1-.424.093.309.309,0,0,1-.1-.423A.308.308,0,0,1,8416.9-2039.714Z" transform="translate(-8401.284 2054.613)" fill="#14152e"/>
        <path id="Path_50769" data-name="Path 50769" d="M8415.205-2038.672a.307.307,0,0,1,.1.429.308.308,0,0,1-.423.093.308.308,0,0,1-.1-.422A.307.307,0,0,1,8415.205-2038.672Z" transform="translate(-8398.514 2054.237)" fill="#14152e"/>
        <path id="Path_50770" data-name="Path 50770" d="M8413.515-2037.63a.307.307,0,0,1,.1.429.308.308,0,0,1-.423.093.309.309,0,0,1-.1-.423A.308.308,0,0,1,8413.515-2037.63Z" transform="translate(-8395.743 2053.86)" fill="#14152e"/>
        <path id="Path_50771" data-name="Path 50771" d="M8411.825-2036.589a.31.31,0,0,1,.1.428.31.31,0,0,1-.424.093.309.309,0,0,1-.1-.423A.307.307,0,0,1,8411.825-2036.589Z" transform="translate(-8392.975 2053.484)" fill="#14152e"/>
        <path id="Path_50772" data-name="Path 50772" d="M8410.135-2035.547a.308.308,0,0,1,.1.428.308.308,0,0,1-.423.094.309.309,0,0,1-.1-.422A.308.308,0,0,1,8410.135-2035.547Z" transform="translate(-8390.204 2053.107)" fill="#14152e"/>
      </g>
      <path id="Path_50773" data-name="Path 50773" d="M8420.294-2094.416l1.914-.1-3.652-71.725h-10.392l3.414,71.818,1.913-.091-3.318-69.812h6.562Z" transform="translate(-8393.252 2166.238)" fill="#14152e"/>
      <g id="Group_648" data-name="Group 648" transform="translate(57.398 88.151)">
        <path id="Line_12" data-name="Line 12" d="M2.65,17.661a.959.959,0,0,0,.943-1.133L.4-.717A.958.958,0,0,0-.717-1.484.958.958,0,0,0-1.484-.368L1.709,16.877A.958.958,0,0,0,2.65,17.661Z" transform="translate(1.5 51.956)" fill="#14152e"/>
        <path id="Line_14" data-name="Line 14" d="M.959,0A.959.959,0,0,0,.016,1.133L3.21,18.377a.958.958,0,0,0,1.884-.349L1.9.784A.958.958,0,0,0,.959,0Z" transform="matrix(-0.809, 0.588, -0.588, -0.809, 53.684, 53.512)" fill="#14152e"/>
        <path id="Line_16" data-name="Line 16" d="M9.039,1.055A.958.958,0,0,0,9.1-.859L-.478-1.5A.958.958,0,0,0-1.5-.606.958.958,0,0,0-.606.414l9.58.639Z" transform="translate(75.587 17.467)" fill="#14152e"/>
        <path id="Line_17" data-name="Line 17" d="M19.258,1.693a.958.958,0,0,0,.061-1.914L-.48-1.5A.958.958,0,0,0-1.5-.6.958.958,0,0,0-.6.414L19.2,1.691Z" transform="translate(72.394 1.5)" fill="#14152e"/>
        <path id="Line_18" data-name="Line 18" d="M39.057,4.887a.958.958,0,0,0,.106-1.91L-.435-1.494A.958.958,0,0,0-1.494-.65.958.958,0,0,0-.65.41l39.6,4.471A.969.969,0,0,0,39.057,4.887Z" transform="translate(60.898 5.971)" fill="#14152e"/>
        <path id="Line_15" data-name="Line 15" d="M26.574,24.655a.958.958,0,0,0,.639-1.672L.1-1.256a.958.958,0,0,0-1.353.076A.958.958,0,0,0-1.18.172L25.936,24.412A.954.954,0,0,0,26.574,24.655Z" transform="translate(40.806 35.381)" fill="#14152e"/>
        <path id="Line_13" data-name="Line 13" d="M12.231,55.343a.959.959,0,0,0,.934-1.175L.391-.759a.958.958,0,0,0-1.15-.716.958.958,0,0,0-.716,1.15L11.3,54.6A.958.958,0,0,0,12.231,55.343Z" transform="translate(7.248 45.569)" fill="#14152e"/>
      </g>
    </g>
  </g>
</svg>
