<svg id="Iconly_Bold_Arrow---Left-Circle" data-name="Iconly/Bold/Arrow---Left-Circle" xmlns="http://www.w3.org/2000/svg" width="20" height="20" viewBox="0 0 20 20">
  <g id="Arrow---Left-Circle" transform="translate(0 0)">
    <path id="Path_662" data-name="Path 662" d="M10,0,9.72,0A10,10,0,1,0,10,0ZM8.02,6A.737.737,0,0,1,9.08,6h0l3.49,3.47a.748.748,0,0,1,0,1.06h0L9.08,14a.7.7,0,0,1-.52.22.745.745,0,0,1-.53-1.28h0L10.98,10,8.03,7.06A.745.745,0,0,1,8.02,6Z" transform="translate(0 0)" fill="#d0742d"/>
  </g>
</svg>
