<svg xmlns="http://www.w3.org/2000/svg" width="22.954" height="22.954" viewBox="0 0 22.954 22.954">
  <g id="Icon_feather-arrow-right" data-name="Icon feather-arrow-right" transform="translate(0 22.954) rotate(-90)">
    <path id="Path_56499" data-name="Path 56499" d="M1.673,22.954A1.673,1.673,0,0,1,0,21.281V1.673a1.673,1.673,0,0,1,3.346,0V21.281A1.673,1.673,0,0,1,1.673,22.954Z" transform="translate(9.804 0)" fill="#d9cbb4"/>
    <path id="Path_56500" data-name="Path 56500" d="M11.477,13.15a1.668,1.668,0,0,1-1.183-.49l-9.8-9.8A1.673,1.673,0,1,1,2.856.49l8.621,8.621L20.1.49a1.673,1.673,0,0,1,2.366,2.366l-9.8,9.8A1.668,1.668,0,0,1,11.477,13.15Z" transform="translate(0 9.804)" fill="#d9cbb4"/>
  </g>
</svg>
