<svg xmlns="http://www.w3.org/2000/svg" xmlns:xlink="http://www.w3.org/1999/xlink" width="214" height="296" viewBox="0 0 214 296">
  <defs>
    <clipPath id="clip-path">
      <rect id="Rectangle_2434" data-name="Rectangle 2434" width="214" height="296" transform="translate(0 125)" fill="#fff"/>
    </clipPath>
  </defs>
  <g id="menu-character" transform="translate(0 -125)" clip-path="url(#clip-path)">
    <g id="Group_4557" data-name="Group 4557" transform="translate(-96.092 126.552)">
      <path id="Path_57181" data-name="Path 57181" d="M307.461,27.638c-1.444-1.275-4.06-1.162-4.931-.9a3.2,3.2,0,0,0-1.114-1.692,2.436,2.436,0,0,0,.39-.218.861.861,0,0,0,.337-.887c-.032-.138-3.268-13.782-16.956-11.731-13.66,2.046-13.329,14.713-13.323,14.84a.859.859,0,0,0,.858.826h.031l.357-.013a4.728,4.728,0,0,0,.512,3.927,1.046,1.046,0,0,0-.285.415,3.191,3.191,0,0,0,.212,2.573,3.349,3.349,0,0,0,.869,1.056,1.265,1.265,0,0,0-1,.917,1.868,1.868,0,0,0-.01.739c-4.026.215-6,4.1-6.543,6.426-4.279,6.434-15.343,22.888-17.072,24.663-2.569,1.708-15.546,6.3-22.565,8.67q.606-5.331.948-10.255c.055.005.116.009.185.009a2.238,2.238,0,0,0,1.09-.3,5.214,5.214,0,0,0,2.112-3.409,5.392,5.392,0,0,0-2.686-5.992.84.84,0,0,0-.274-.091c.059-4.1-.058-7.875-.352-11.281a4.62,4.62,0,0,0,1.022-4.372,4.571,4.571,0,0,0-2.13-2.872,42.419,42.419,0,0,0-1.209-4.231.838.838,0,0,0,.193-.25c1.212-2.528,1.336-4.523.37-5.93-1.15-1.673-3.458-1.89-4.486-1.9a25.81,25.81,0,0,0-15.857-11.347A22.385,22.385,0,0,0,203.947,2.18a.87.87,0,0,0-.126-.192A6.33,6.33,0,0,0,199.518,0a7.615,7.615,0,0,0-5.6,2.74.843.843,0,0,0-.011,1.158,20.932,20.932,0,0,1,4.41,10.779,22.851,22.851,0,0,0-18.868,15.034c-.522,1.532-1.025,3.484-1.552,5.8a.836.836,0,0,0-.345,0c-.13.028-3.2.728-3.5,3.53a3.71,3.71,0,0,0,2.173,3.868.9.9,0,0,0,.091.027l-.056.27c-.3,1.46-.618,3-.953,4.6-.737.173-3.97,1.1-4.893,4.229a5.079,5.079,0,0,0,2.1,6.118.839.839,0,0,0,.4.1c.022,0,.043-.007.064-.008-.768,3.2-1.628,6.536-2.6,9.942-3.491-.432-28.066-3.5-31.845-4.718-3.811-1.233-26.153-14.607-26.378-14.742a.819.819,0,0,0-.185-.08A29.006,29.006,0,0,0,111,42.04a14.087,14.087,0,0,1,.036-5.091c.414-3.344.883-7.135-4.03-7.79a5.573,5.573,0,0,0-4.725,1.551c-1.809,1.69-2.874,4.433-3.423,7.1-3.838-3.223-8.605-5.728-20.755-5.614-4.18.041-5.731,2.29-5.79,4.381a4.812,4.812,0,0,0,.073.918c-2.226,1.381-3.531,3.216-3.6,5.09-.045,1.263.438,3.125,2.993,4.817l.05.031a5.721,5.721,0,0,0-2.083,4.293,4.474,4.474,0,0,0,3.1,4.208,38.649,38.649,0,0,0,4.715,1.38c3.563.89,7.6,1.9,9.475,4.371,2.293,3.024,7.7,6.742,12.163,6.741a6.068,6.068,0,0,0,3.328-.906c3.221,1.326,26.016,10.691,30.231,12.016s28.935,2.353,33.049,2.515A127.971,127.971,0,0,1,160.259,94.7a5.228,5.228,0,0,0-4.663,7.837.828.828,0,0,0,.2.223c-.459.79-.917,1.576-1.37,2.35a164.555,164.555,0,0,0-8.839,16.513,3.477,3.477,0,0,0-2.759.483,4.622,4.622,0,0,0-.113,7.726,35.885,35.885,0,0,0-.776,4.024c-1.523-.246-4.559-.468-10.68-.791-7.888-.416-16.378-.654-23.294-.654-7.214,0-9.848.661-15.983,5.617-8.487,6.854-19.888,16.866-24.392,20.85a.853.853,0,0,0-.115-.118c-1.786-1.494-3.333-2.067-4.73-1.749-1.754.4-2.734,2.086-3.462,3.684-.261.572-1.259.895-2.415,1.268-2.293.741-5.434,1.755-6.124,6-.37,2.276-1.445,2.9-2.806,3.694a6.1,6.1,0,0,0-3.244,3.54,4.69,4.69,0,0,0-.165.688c-.478-1.609-2.054-3.157-4.059-1.885-.311.2-.666.266-.942.478l-.372-.159c-.016-.07-.029-.119-.034-.136A2.952,2.952,0,0,0,35.5,172a2.843,2.843,0,0,0-.943.487,37.921,37.921,0,0,0-4.383-1.2c-6.2-1.668-14.849-3.013-20.793.045-3.535,1.819-5.552,5.243-6.326,9.65a.789.789,0,0,0-.08.049,9.248,9.248,0,0,0-2.925,4.272c-.161.534-.343,1.139,7.928,9.627,5.2,5.333,11.04,10.923,15.631,14.954,20.664,18.143,27.162,19.241,27.429,19.279l.2.028.191-.065a7.63,7.63,0,0,0,3.591-3.435c.469-.472,9.88-9.916,16.122-20.078a.917.917,0,0,0,.081-.773,5.306,5.306,0,0,0,.966.1,4.086,4.086,0,0,0,1.171-.172,4.187,4.187,0,0,0,2.842-3.183c.3-1.036,1.457-1.494,3.313-2.155,1.91-.68,4.074-1.451,5.483-3.478a16.069,16.069,0,0,0,1.734-3.213,4.543,4.543,0,0,1,2.161-2.652,4.936,4.936,0,0,0,2.646-3.65,5.837,5.837,0,0,0-1.911-4.384c8.413-10.2,20.769-24.059,23.9-24.582,9.366-1.561,30.569-4.269,32.765-4.548a39.241,39.241,0,0,0,3.392,4.5c5.439,6.263,13.129,9.5,21.714,9.5a36.733,36.733,0,0,0,6.48-.594c.282,3.622,1.9,24.84,1.531,29.823-.327,4.367-4.355,23.155-6.033,30.659-1.054-.058-3.374.016-4.764,1.594a4.954,4.954,0,0,0-.863,4.439,4.53,4.53,0,0,1-.46,3.38,16.086,16.086,0,0,0-1.164,3.465c-.52,2.419.4,4.529,1.2,6.391.782,1.8,1.234,2.954.689,3.877a4.2,4.2,0,0,0-.384,4.266c.279.531.858,1.625,3.355,2.694a.843.843,0,0,0-.134.359c-.012.094-1.183,9.505-1.789,15.447-.448,4.394-.814,8.045.762,9.549a.839.839,0,0,0-.186.376,9.457,9.457,0,0,0-.079,3.8.609.609,0,0,0-.15-.023.582.582,0,1,0,.428.97,2.992,2.992,0,0,0,.166.352l.194.334.379.071c.026,0,.688.126,2,.3a.57.57,0,0,0-.127.369.582.582,0,0,0,1.164-.014.571.571,0,0,0-.047-.225q.586.073,1.288.154a.56.56,0,0,0-.007.085.581.581,0,0,0,1.159.042c.4.042.824.085,1.272.129a.577.577,0,0,0,1.056.1c.469.043.967.085,1.479.127a.575.575,0,0,0,.755.061c4.386.342,10.24.649,17.609.728a.58.58,0,1,0,.383,0q.967.01,1.969.013a.583.583,0,1,0,.469,0l.871,0h1.055a.582.582,0,1,0,.471,0c.664,0,1.321-.007,1.966-.012a.582.582,0,1,0,.386,0q1.095-.011,2.149-.027a.581.581,0,1,0,.11,0c4.361-.07,8.169-.212,11.184-.422,1.706-.119,2.98-.245,3.94-.376a.578.578,0,0,0,.452.212.586.586,0,0,0,.533-.366,7.706,7.706,0,0,0,1.286-.325.566.566,0,0,0-.01.121.582.582,0,1,0,.7-.58,1.328,1.328,0,0,0,.105-.2,7.8,7.8,0,0,0,.378-.985.582.582,0,1,0,.116-.411,9.412,9.412,0,0,0,.2-3.469l.113-.341c2.347-7.114-.3-14.049-7.664-20.057a36.808,36.808,0,0,0-5.478-4.031l-.008,0a2.944,2.944,0,0,0-2.527-2.3,3.162,3.162,0,0,0-1.619-3.188,4.824,4.824,0,0,0-.237-3.826A3.166,3.166,0,0,1,210,245.6c2.634-3.409,1.228-6.4.2-8.586-.515-1.1-.959-2.042-.722-2.616.672-1.627,1.236-3.5.326-5.06-.725-1.241-2.2-1.983-4.52-2.269a.913.913,0,0,0-.1,0c.062-2.918.142-5.7.221-8.4.323-11.1.578-19.861-.84-26.566-3.271-15.461-9.28-33.677-9.34-33.859a.814.814,0,0,0-.07-.156q1.389-1.3,2.79-2.839a4.339,4.339,0,0,0,2.3.644,4.4,4.4,0,0,0,3.22-7.5,124.475,124.475,0,0,0,17.189-34.912,2.46,2.46,0,0,0,.5.052,2.807,2.807,0,0,0,1.328-.351,3.512,3.512,0,0,0,1.791-2.5,6.368,6.368,0,0,0-1.4-4.441.837.837,0,0,0-.274-.25q.1-.493.2-.982c1.019-5.1,1.908-10.064,2.664-14.863,3.5-.19,30.03-1.828,36.7-8.08,6.811-6.752,23.412-24.129,25.66-26.483a32.215,32.215,0,0,0,5.471-.827c6.664-1.445,7.9-3.355,9.662-6.888.344-.69.729-1.408,1.136-2.17,1.628-3.046,3.312-6.195,3.147-8.661a3.307,3.307,0,0,0-.419-1.381,23.606,23.606,0,0,0,1.551-4.822,3.166,3.166,0,0,0-.919-3.2m-5,.763a.865.865,0,0,0,.573.011,4.563,4.563,0,0,1,3.271.536,1.451,1.451,0,0,1,.361,1.547,21.738,21.738,0,0,1-1.155,3.8,3.547,3.547,0,0,0-.425-.219,4.2,4.2,0,0,0-3.626.265,1.281,1.281,0,0,0-.288-.691,1.487,1.487,0,0,0-.126-.131,3.761,3.761,0,0,0,.6-3.454,1.053,1.053,0,0,0-.125-.245,3.327,3.327,0,0,0,.941-1.417M285.007,41.269a.858.858,0,0,0-.6-.248,52.731,52.731,0,0,1-7.249-.557,11.579,11.579,0,0,1-2.026-3.046,33.423,33.423,0,0,1,4.038-.186c2.331-.033,5.231-.075,8.569-.366a70.128,70.128,0,0,0,9.554-1.532c.92-.2,1.865-.41,2.39-.458-.021.064-.049.14-.085.228a.849.849,0,0,0-.023.561,56.1,56.1,0,0,0-5.538,5.539,21.223,21.223,0,0,0-9.027.065M274.9,21.137c1.882-4.029,5.428-6.46,10.541-7.226a16.622,16.622,0,0,1,2.458-.19c8.7,0,11.686,7.639,12.39,9.956-3.118,1.117-16.306,2.014-25.6,2.4a.859.859,0,0,0-.416.017l-.667.027a14.524,14.524,0,0,1,1.292-4.987m24.182,4.584a.849.849,0,0,0,.117.055c1.033.366,1.636.922,1.7,1.568a1.555,1.555,0,0,1-.819,1.417,1.872,1.872,0,0,1-2.069-.171.881.881,0,0,0-.079-.049c-2.636-1.438-3.631-.632-4.425.317-.4.478-.55.656-1.749-.009-2.543-1.409-3.774-.152-4.59.68-.629.644-.824.779-1.3.627l-.19-.061c-2.156-.695-3.457-1.115-5.341,1.05-.326.375-.326.375-.9.088A3.709,3.709,0,0,0,276,31.018c-.549.225-.794.03-.975-.215a3.182,3.182,0,0,1-.044-3.013c5.753-.241,18.322-.882,24.1-2.069M229.937,62.867c-.564,2.121-1.351,2.489-1.6,2.449a.205.205,0,0,1,.051.013l-.122.4q.216-3.406.3-6.588a3.548,3.548,0,0,1,1.37,3.728m-4.825-33.629a3.517,3.517,0,0,1,0,3.018,34.947,34.947,0,0,0-1.994-4.086,3.044,3.044,0,0,1,1.992,1.068M199.457,1.688a4.649,4.649,0,0,1,3.024,1.339A20.4,20.4,0,0,1,204.5,14.734a23.13,23.13,0,0,0-4.5-.2,23.332,23.332,0,0,0-4.332-11.142,5.491,5.491,0,0,1,3.789-1.7m-23.726,37.54a2.51,2.51,0,0,1,1.77-1.934q-.4,1.851-.834,3.955a2,2,0,0,1-.937-2.021m-2.417,17.443c-.021-.011-2.154-1.19-1.28-4.154a4.607,4.607,0,0,1,2.873-2.808c-.476,2.229-.992,4.565-1.559,6.986-.012-.008-.022-.017-.035-.024m-70.481,9.147a1.168,1.168,0,0,0-.964.117c-2.02,1.532-5.149.511-6.834-.234a18.03,18.03,0,0,1-6.644-5.036c-2.233-2.945-6.577-4.031-10.41-4.988a37.576,37.576,0,0,1-4.5-1.311,2.8,2.8,0,0,1-2.038-2.641,3.954,3.954,0,0,1,2.1-3.385,49.474,49.474,0,0,0,7.5,2.341,27.206,27.206,0,0,1,6.073,1.974.843.843,0,0,0,.9-1.428c-1.344-.844-3.757-1.463-6.551-2.179-3.16-.81-6.741-1.728-8.739-3.052-1.507-1-2.281-2.157-2.239-3.351.043-1.217.931-2.466,2.465-3.5A8.665,8.665,0,0,0,80.3,43.491c3.164.207,9.414,2.315,9.476,2.336a.835.835,0,0,0,.271.045.843.843,0,0,0,.271-1.642c-.265-.09-6.523-2.2-9.908-2.422-4.266-.279-6.461-3.191-6.406-5.186.047-1.692,1.588-2.717,4.121-2.742,13.36-.146,17.364,3.142,20.423,5.882a20.394,20.394,0,0,0-.135,3.623.843.843,0,1,0,1.682-.109c-.208-3.214.69-8.856,3.342-11.334a3.908,3.908,0,0,1,3.351-1.112c3.118.416,3.037,2.212,2.58,5.911a15.518,15.518,0,0,0,.006,5.726c1.234,4.7,1.23,9.381-.008,11.638a.843.843,0,1,0,1.478.811,10.845,10.845,0,0,0,1.084-4.359c3.769,2.25,22.426,13.335,26.09,14.519,2.8.9,15.813,2.689,24.531,3.821a.577.577,0,0,0,1.047.136l2.557.327a.575.575,0,0,0,.917.116l.969.122a.581.581,0,1,0,.94.461.573.573,0,0,0-.122-.359l1.047.13q-.633,2.146-1.331,4.32a.565.565,0,0,0-.165-.031.581.581,0,0,0-.192,1.132q-.482,1.469-1,2.943a.581.581,0,1,0-.568.711.573.573,0,0,0,.365-.131q-.244.69-.5,1.382a.582.582,0,0,0-.33.217c-.421-.016-1.389-.055-2.738-.113a.579.579,0,0,0-.339-.121.568.568,0,0,0-.323.092c-7.891-.347-26.148-1.25-29.516-2.308-4.371-1.374-30.18-12-30.44-12.108m54.262,32.272a3.649,3.649,0,0,1,2.236-1.611c-.376.708-.758,1.412-1.152,2.111-.46.819-.929,1.638-1.4,2.455a3.646,3.646,0,0,1,.315-2.955m-14.718,27.656a2.807,2.807,0,0,1,1.335-2.21,1.968,1.968,0,0,1,1.2-.33c-.659,1.621-1.239,3.239-1.72,4.856a2.785,2.785,0,0,1-.816-2.315M54.153,224.087c-4.1-1.425-7.329-3.625-11.557-7.3a.853.853,0,0,0,.143-.1c3.14-2.794,5.9-4.077,8.443-3.926,2.639.158,5.319,1.859,8.425,5.345-2.268,2.752-4.745,5.211-5.454,5.986M39.62,184.952a11.259,11.259,0,0,0,.6-7.694,1.475,1.475,0,0,1,2.766-1.029,14.209,14.209,0,0,1-.645,9.868,1.475,1.475,0,0,1-2.719-1.146m-4.893-1.627c1.747-4.539.349-7.432.289-7.553a1.475,1.475,0,0,1,2.619-1.358c.087.165,2.1,4.117-.155,9.971a1.475,1.475,0,1,1-2.753-1.06m-5.871,17.5,8.18-9.809a.632.632,0,0,1,.893-.085c1.6,1.348,3.051,2.57,4.5,3.8a3.371,3.371,0,0,1,.334.366c1,1.14,1.636,2.393.963,3.951a3.119,3.119,0,0,1-2.889,2.016.642.642,0,0,0-.586.793l0,.007a3.785,3.785,0,0,1-1.583,4.245,3.417,3.417,0,0,1-4.319.055c-1.535-1.058-2.927-2.325-4.372-3.511-.342-.281-.668-.58-1.066-.94a.64.64,0,0,1-.056-.883M11.121,172.366c4.46-2.295,9.81-1.413,16.078,0a59.233,59.233,0,0,1,.322,9.051c-.154,8.4-8.216,14.076-9.083,14.913A120.68,120.68,0,0,1,4.614,181.832a13.29,13.29,0,0,1,6.507-9.465m39.946,55.077c-1.267-.37-8.3-2.979-26.35-18.823-9.925-8.714-21.7-21.017-22.972-23.089a7.435,7.435,0,0,1,1.616-2.562c1.319,1.633,7.216,8.625,20.412,20.464,9.216,8.269,22.2,19.337,29.31,22.126a6.363,6.363,0,0,1-2.016,1.883m38.79-41.17A3.375,3.375,0,0,1,88,188.653a6.127,6.127,0,0,0-2.825,3.426,14.4,14.4,0,0,1-1.567,2.91c-1.1,1.582-2.912,2.228-4.664,2.852-1.87.666-3.8,1.355-4.365,3.268a2.6,2.6,0,0,1-1.671,2.032c-1.636.449-5.293-.6-13.421-8.162-13.011-12.1-13.853-17.264-13.2-19.264a4.532,4.532,0,0,1,2.491-2.608,6.165,6.165,0,0,0,3.621-4.88c.524-3.226,2.788-3.956,4.977-4.664,1.472-.475,2.862-.924,3.431-2.173.556-1.222,1.265-2.5,2.3-2.739.823-.186,1.9.268,3.206,1.344l-.208.185a.84.84,0,0,0-1.295.99c2.381,5.577,10.759,15.8,22.166,24.539a.843.843,0,1,0,1.026-1.338l-.172-.134.711-.873a4.129,4.129,0,0,1,1.31,2.908M143.322,151.6a.582.582,0,1,0-.543.07c-1.492.193-3.381.439-5.5.718a.578.578,0,0,0-.926.122l-1.341.178a.579.579,0,0,0-1.129.15c-7.1.948-15.578,2.122-20.632,2.965-4.953.825-23.208,23.039-26.743,27.39-10.578-8.41-17.155-16.914-19.567-21.5,1.765-1.57,16.006-14.213,26.1-22.362,5.892-4.759,8.088-5.242,14.924-5.242,11.522,0,24.621.645,30.825,1.138a.581.581,0,0,0,1.112.093c.5.045.926.087,1.286.127a.554.554,0,0,0,.564.237q-.087,1.2-.075,2.4h-.013a.582.582,0,1,0,.005,1.163c.015,0,.028,0,.043-.005q.066,1.238.248,2.478a.572.572,0,0,0-.3-.084.581.581,0,1,0,.439.956c.073.4.158.8.251,1.2a.566.566,0,0,0-.051.246.581.581,0,0,0,.219.44,27.3,27.3,0,0,0,1.509,4.28.58.58,0,1,0,.483,1.027q.384.779.828,1.559l-2.016.259m27.455,121.29c.06-.591.126-1.217.2-1.864,4.349.816,6.446,4.184,6.911,11.039l-1.648-.212c-1.551-.2-3.082-.4-4.606-.583-1.308-.159-1.5-2.038-.853-8.38m23.757.924,0,0a4.628,4.628,0,0,1,1.115,4.222c-.259,1.757-1.128,2.623-2.292,2.771a34.057,34.057,0,0,1-3.97.1c-.313,0-.627-.018-1.007-.04-.241-.014-.435-.3-.439-.635-.049-4.183-.1-8.328-.15-12.614,0-.349.193-.631.44-.629,1.483.013,2.826.023,4.17.039a1.753,1.753,0,0,1,.349.067,2.8,2.8,0,0,1,2.345,2.39,3.885,3.885,0,0,1-.618,3.356.807.807,0,0,0,.053.972m30.218,13.335c-1.17.459-7.866,1.15-21.876,1.19-19.067.042-29.348-1.418-31.539-1.772a7.181,7.181,0,0,1-.043-3.591c0-.008,0-.016,0-.025.044.007.081.021.127.026,1.519.184,3.045.381,4.592.581a181.622,181.622,0,0,0,24.792,1.939,165.745,165.745,0,0,0,24.435-1.916,7.484,7.484,0,0,1-.49,3.569m.776-5.348a165.011,165.011,0,0,1-24.434,1.972.831.831,0,0,0-.007-.091,17.085,17.085,0,0,1,4.277-14.959,15.172,15.172,0,0,1,13.078-4.451c6.443,5.336,8.886,11.382,7.086,17.529m-14.471-23.8a1.475,1.475,0,1,1-.155,2.946,10.165,10.165,0,0,0-8.157,2.813,1.475,1.475,0,1,1-2.081-2.092,12.945,12.945,0,0,1,10.394-3.668m-1.394-1.5a13.983,13.983,0,0,0-9.877,3.963,1.472,1.472,0,0,1-1.566-2.447c2.5-2.257,7.738-4.249,10.5-3.336a1.473,1.473,0,0,1,.947,1.821m-1.346-26.307c.532.911.081,2.3-.43,3.537-.527,1.276.1,2.6.755,4,.977,2.078,1.986,4.226-.005,6.8a4.817,4.817,0,0,0-.766,5.511,3.114,3.114,0,0,1,.164,2.742c-3.659-.423-8.663,1.937-10.987,4.11a3.128,3.128,0,0,0-.716,1.012c-2.784.038-8.713-.054-12.063-.288-11.067-.774-14.328-2.723-15.115-4.221a2.581,2.581,0,0,1,.343-2.592c1.019-1.724.2-3.611-.592-5.436-.74-1.7-1.5-3.466-1.1-5.345a14.391,14.391,0,0,1,1.055-3.129,6.139,6.139,0,0,0,.575-4.413,3.362,3.362,0,0,1,.467-2.967,4.181,4.181,0,0,1,3.088-1.023c-.11.479-.2.846-.254,1.085l-.152-.031a.859.859,0,1,0-.361,1.681,56.205,56.205,0,0,0,10.583.743c9.031,0,19.678-.916,22.344-1.257a.858.858,0,0,0,0-1.7c0-.082,0-.161.005-.243,1.675.217,2.741.693,3.164,1.417m-4.595-11.586c-.1,3.364-.2,6.842-.264,10.574-5.622.57-21.154,1.7-29.063.676.175-.674.44-1.874.929-4.08.421-1.9,1.27-5.777,2.232-10.354,1.488-7.085,3.31-16.161,3.535-19.163.254-3.4-.362-13.718-.9-21.449a.577.577,0,0,0-.066-.951q-.049-.7-.1-1.368a.58.58,0,0,0-.08-1.114c-.03-.411-.059-.806-.087-1.184a.582.582,0,0,0-.034-1.162c-.018,0-.035,0-.052.005-.035-.474-.068-.908-.1-1.3a.581.581,0,0,0-.066-1.158l-.023,0c-.019-.247-.035-.45-.047-.6.446-.1.894-.21,1.343-.326a.58.58,0,0,0,.485.917.581.581,0,0,0,.235-1.107q.558-.154,1.118-.327a.576.576,0,0,0,1.021-.326q2.082-.692,4.177-1.617a17.833,17.833,0,0,0,1.777-.916.6.6,0,0,0-.009.088.582.582,0,1,0,.763-.549c.327-.209.656-.432.986-.667a.58.58,0,1,0,.811-.593c.329-.251.66-.516.991-.789a.583.583,0,0,0,.592.581.577.577,0,0,0,.28-.082c.239.746.557,1.747.934,2.956a.575.575,0,0,0-.063.258.582.582,0,0,0,.3.508q.212.687.445,1.445a.57.57,0,0,0-.168-.027.582.582,0,1,0,.449.95c2.046,6.736,4.962,16.9,6.905,26.084,1.377,6.508,1.124,15.183.8,26.168m-1.285-65.405a2.9,2.9,0,0,1-3.336.733q1.675-1.938,3.337-4.155a2.9,2.9,0,0,1,0,3.421m20.17-42.786a1.848,1.848,0,0,1-.923,1.27,1.144,1.144,0,0,1-.543.141q.521-1.829.958-3.635a3.623,3.623,0,0,1,.508,2.224m-1.454-5.746c-4.563,22.816-21.678,51.572-33.913,56.981-14.1,6.233-28,4.184-36.283-5.349-6.669-7.679-8.855-15.575-6.88-24.849,1.777-8.343,6.645-16.682,11.8-25.51,1.246-2.133,2.533-4.34,3.772-6.541,10.671-18.971,15.241-41.171,18.266-55.862a130.571,130.571,0,0,1,3.13-13.3,21.159,21.159,0,0,1,17.523-13.91c8.717-1.061,17.049,3.178,22.29,11.342a35.447,35.447,0,0,1,4.46,10.642,3.4,3.4,0,0,0-2.492,1.629.843.843,0,1,0,1.418.911,1.632,1.632,0,0,1,1.6-.862,2.526,2.526,0,0,1,1.8,2.009,2.917,2.917,0,0,1-.614,2.745.841.841,0,0,0-.414.388,1.473,1.473,0,0,1-1.6.284.843.843,0,0,0-.826,1.47,2.733,2.733,0,0,0,1.346.347,3.2,3.2,0,0,0,1.111-.207c1.061,14.154-.877,34.53-5.5,57.639m81.43-59.792c-.413.772-.8,1.5-1.158,2.211-1.544,3.089-2.319,4.639-8.489,5.977a25.321,25.321,0,0,1-5.422.792l-.4-.025-.277.29c-.185.195-18.619,19.517-25.861,26.7-4.217,3.953-17.893,5.973-27.1,6.911a.589.589,0,0,0,.064-.27.6.6,0,1,0-1.07.371c-3.322.322-5.94.5-7.128.567q.46-3.021.847-5.947a.6.6,0,1,0,.131-.993c.069-.537.136-1.07.2-1.6.013,0,.027.005.042.005a.6.6,0,0,0,.609-.6.59.59,0,0,0-.083-.3c2.422-.816,20.2-6.851,23.345-9.024l.107-.088c2-1.921,15.872-22.761,17.447-25.131l.091-.138.034-.16a9.53,9.53,0,0,1,1.25-2.9,4.634,4.634,0,0,1,4.343-2.321,17.2,17.2,0,0,0,1.97,2.622.858.858,0,0,0,.5.273c.119.02,2.344.384,5.211.548a.857.857,0,0,0,1.139,1.124c5.247-2.361,11.138-.811,11.2-.8l.533.145.354-.424a54.534,54.534,0,0,1,6.058-6.058c1.243-1.036,2.43-1.391,3.344-1a1.885,1.885,0,0,1,.668.483.861.861,0,0,0,.154.2,1.712,1.712,0,0,1,.3.824c.132,1.974-1.5,5.035-2.948,7.735" transform="translate(0 -0.001)" fill="#d9cbb4"/>
      <path id="Path_57182" data-name="Path 57182" d="M541.47,202.869a.6.6,0,1,0,.6.589.6.6,0,0,0-.6-.589" transform="translate(-312.883 -117.354)" fill="#d9cbb4"/>
      <path id="Path_57183" data-name="Path 57183" d="M541.467,189.893a.6.6,0,1,0,.607.585.6.6,0,0,0-.607-.585" transform="translate(-312.883 -109.849)" fill="#d9cbb4"/>
      <path id="Path_57184" data-name="Path 57184" d="M541.473,196.381a.6.6,0,1,0,.6.591.6.6,0,0,0-.6-.591" transform="translate(-312.883 -113.602)" fill="#d9cbb4"/>
      <path id="Path_57185" data-name="Path 57185" d="M537.63,206.329a.6.6,0,1,0,.6.589.6.6,0,0,0-.6-.589" transform="translate(-310.662 -119.356)" fill="#d9cbb4"/>
      <path id="Path_57186" data-name="Path 57186" d="M537.63,199.625a.6.6,0,1,0,.6.589.6.6,0,0,0-.6-.589" transform="translate(-310.662 -115.479)" fill="#d9cbb4"/>
      <path id="Path_57187" data-name="Path 57187" d="M545.262,186.649a.6.6,0,1,0,.6.6.6.6,0,0,0-.6-.6" transform="translate(-315.072 -107.972)" fill="#d9cbb4"/>
      <path id="Path_57188" data-name="Path 57188" d="M548.988,202.869a.6.6,0,1,0,.609.583.6.6,0,0,0-.609-.583" transform="translate(-317.234 -117.354)" fill="#d9cbb4"/>
      <path id="Path_57189" data-name="Path 57189" d="M545.259,199.625a.6.6,0,1,0,.6.594.6.6,0,0,0-.6-.594" transform="translate(-315.072 -115.479)" fill="#d9cbb4"/>
      <path id="Path_57190" data-name="Path 57190" d="M549,196.381a.6.6,0,1,0,.594.6.6.6,0,0,0-.594-.6" transform="translate(-317.236 -113.602)" fill="#d9cbb4"/>
      <path id="Path_57191" data-name="Path 57191" d="M545.266,193.137a.6.6,0,1,0,.592.6.6.6,0,0,0-.592-.6" transform="translate(-315.07 -111.725)" fill="#d9cbb4"/>
      <path id="Path_57192" data-name="Path 57192" d="M545.265,206.113a.6.6,0,1,0,.593.6.6.6,0,0,0-.593-.6" transform="translate(-315.072 -119.231)" fill="#d9cbb4"/>
      <path id="Path_57193" data-name="Path 57193" d="M549,189.893a.6.6,0,1,0,.6.595.6.6,0,0,0-.6-.595" transform="translate(-317.236 -109.849)" fill="#d9cbb4"/>
      <path id="Path_57194" data-name="Path 57194" d="M552.734,199.625a.6.6,0,1,0,.6.589.6.6,0,0,0-.6-.589" transform="translate(-319.398 -115.479)" fill="#d9cbb4"/>
      <path id="Path_57195" data-name="Path 57195" d="M79.071,475.887a1.774,1.774,0,0,0,2.538-.124,1.877,1.877,0,0,0,.064-2.7,30.094,30.094,0,0,0-2.446-2.365.632.632,0,0,0-.911.065l-1.841,2.191a.641.641,0,0,0,.074.9c.914.763,1.687,1.441,2.521,2.03" transform="translate(-44.15 -272.191)" fill="#d9cbb4"/>
      <path id="Path_57196" data-name="Path 57196" d="M87.12,464.508a7.829,7.829,0,0,0,1.539.936,1.541,1.541,0,0,0,1.8-2.345,7.731,7.731,0,0,0-2.518-2.28.632.632,0,0,0-.8.163l-1.3,1.616a.641.641,0,0,0,.066.877c.443.4.811.737,1.21,1.034" transform="translate(-49.576 -266.525)" fill="#d9cbb4"/>
      <path id="Path_57197" data-name="Path 57197" d="M395.376,181.2a85.97,85.97,0,0,0,7.311-17.473.846.846,0,0,0-.986-1.073,1.7,1.7,0,0,1-2.057-1.029,2.681,2.681,0,0,1,.675-2.623,2.406,2.406,0,0,1,2.666-.5.842.842,0,0,0,1.049-.477c.977-2.366,3.148-15.4,3.221-16.667a.843.843,0,0,0-1.684-.1c-.052.9-1.881,12.02-2.868,15.437a3.983,3.983,0,0,0-3.585,1.118,4.385,4.385,0,0,0-1.064,4.369,3.148,3.148,0,0,0,2.669,2.162A90.36,90.36,0,0,1,394.4,179.5a3.592,3.592,0,0,0-4.061-.053,4.626,4.626,0,0,0-2.086,4.415,4.387,4.387,0,0,0,3.067,3.551.843.843,0,1,0,.542-1.6,2.7,2.7,0,0,1-1.938-2.185,2.914,2.914,0,0,1,1.368-2.793c1.325-.908,2.7.46,2.755.516a.843.843,0,0,0,1.329-.152" transform="translate(-224.57 -81.258)" fill="#d9cbb4"/>
      <path id="Path_57198" data-name="Path 57198" d="M408.339,210.887a2.5,2.5,0,0,1-.931-3.585c.583-1.026,1.73-1.763,2.786-1.19a.844.844,0,0,0,1.095-.26,55.1,55.1,0,0,0,6.682-14.434.842.842,0,0,0-.353-.948,3.855,3.855,0,0,1-1.09-1.193,2.925,2.925,0,0,1,.25-3.215,2.313,2.313,0,0,1,3.047-.82.843.843,0,0,0,1.175-.481,88.96,88.96,0,0,0,3.658-16.308.843.843,0,1,0-1.676-.191,86.786,86.786,0,0,1-3.317,15.148,3.83,3.83,0,0,0-4.314,1.752,4.637,4.637,0,0,0,.834,6.334,55.556,55.556,0,0,1-5.917,12.838,3.985,3.985,0,0,0-4.325,2.133,4.163,4.163,0,0,0,.843,5.379l-3.6,6.04a.843.843,0,1,0,1.449.862l3.994-6.707a.843.843,0,0,0-.293-1.155" transform="translate(-233.164 -96.903)" fill="#d9cbb4"/>
      <path id="Path_57199" data-name="Path 57199" d="M480.064,208.516c.056-.465.731-2.367,1.384-4.208,1.378-3.881,3.421-9.64,4.164-14.012a3.2,3.2,0,0,0,.759.1q.151,0,.3-.015c1.6-.153,2.819-1.434,3.25-3.427a3.445,3.445,0,0,0-.587-3.026,4.719,4.719,0,0,0-2.907-1.5,118.645,118.645,0,0,0,2.573-17.289.843.843,0,0,0-1.683-.1,115.7,115.7,0,0,1-2.754,17.938.845.845,0,0,0,.818,1.043,3.869,3.869,0,0,1,2.644.968,1.824,1.824,0,0,1,.247,1.606c-.272,1.257-.914,2.024-1.762,2.105a1.786,1.786,0,0,1-1.76-1.163.843.843,0,1,0-1.55.662,3.748,3.748,0,0,0,.839,1.221c-.617,4.268-2.761,10.312-4.184,14.32-1.36,3.829-1.59,4.552-1.448,5.084a.843.843,0,0,0,1.652-.312" transform="translate(-276.727 -95.016)" fill="#d9cbb4"/>
      <path id="Path_57200" data-name="Path 57200" d="M458.147,187.242a3.372,3.372,0,0,0-1.955-1.5,21.894,21.894,0,0,0,1.614-6.857.843.843,0,1,0-1.686,0c0,2.848-1.859,7.137-1.878,7.18a.843.843,0,0,0,.758,1.181,1.959,1.959,0,0,1,1.69.848,2.559,2.559,0,0,1-.3,2.452c-.383.7-.852,1.04-1.391,1.011a2.412,2.412,0,0,1-1.844-1.571.843.843,0,0,0-1.561.637,4.523,4.523,0,0,0,1.387,1.851c0,.009-.011.017-.016.027-2.049,4.463-4.682,14.216-4.794,14.628a.843.843,0,0,0,1.113,1.007,1.822,1.822,0,0,1,1.718.542,1.771,1.771,0,0,1,.224,2.041,1.8,1.8,0,0,1-.993,1.069,3.137,3.137,0,0,1-2.1-.177.843.843,0,0,0-1.184.57,29.274,29.274,0,0,1-3.772,7.994.843.843,0,0,0,1.392.951,32.209,32.209,0,0,0,3.784-7.669,4.226,4.226,0,0,0,2.471-.091,3.783,3.783,0,0,0,1.388-5.859,3.719,3.719,0,0,0-2.1-1.079A116.742,116.742,0,0,1,454.5,193.2c0-.007,0-.014.007-.021a3.009,3.009,0,0,0,.4.058c.05,0,.1,0,.158,0a3.152,3.152,0,0,0,2.807-1.891c1.123-2.058.656-3.457.278-4.108" transform="translate(-256.283 -102.991)" fill="#d9cbb4"/>
      <path id="Path_57201" data-name="Path 57201" d="M443.065,564.909c-7.857,2.167-20.461.3-20.587.277a.86.86,0,0,0-.258,1.7,81.941,81.941,0,0,0,11.1.8,39.938,39.938,0,0,0,10.205-1.118.86.86,0,0,0-.457-1.657" transform="translate(-243.82 -326.768)" fill="#d9cbb4"/>
      <path id="Path_57202" data-name="Path 57202" d="M444.346,585.7c-2.558.821-10.711,2-18.841,1.149a.86.86,0,1,0-.179,1.71,59.139,59.139,0,0,0,6.128.307,51.588,51.588,0,0,0,13.418-1.529.86.86,0,0,0-.526-1.637" transform="translate(-245.594 -338.786)" fill="#d9cbb4"/>
      <path id="Path_57203" data-name="Path 57203" d="M496.69,205.837a42.841,42.841,0,0,0,1.134-10.072.843.843,0,0,0-.843-.837h-.006a.843.843,0,0,0-.838.849,41.118,41.118,0,0,1-1.274,10.428.843.843,0,0,0,.667,1.038,2.895,2.895,0,0,1-.944,5.712.844.844,0,0,0-.924.57l-4.433,13.435a1.773,1.773,0,0,0,.931,2.442l.082.047a3,3,0,0,1,1.406,3.455,2.243,2.243,0,0,1-1.453,1.273,1.784,1.784,0,0,1-1.564-.183.843.843,0,0,0-1.3.471,43.262,43.262,0,0,1-5.46,12.362.843.843,0,1,0,1.418.913,44.934,44.934,0,0,0,5.409-11.89,3.669,3.669,0,0,0,1.991-.06,3.905,3.905,0,0,0,2.54-2.288,4.677,4.677,0,0,0-2.132-5.509l-.094-.054-.251-.143a2.108,2.108,0,0,1,.083-.307l4.23-12.822a4.572,4.572,0,0,0,1.629-8.828" transform="translate(-278.67 -112.761)" fill="#d9cbb4"/>
      <path id="Path_57204" data-name="Path 57204" d="M464.773,103.489a3.118,3.118,0,0,0,1.114-.207c1.311-.5,2.656-2.081,2.714-5.035a38.846,38.846,0,0,1,7.339.372,5.582,5.582,0,0,0,.521,1.566,7.882,7.882,0,0,1-3.318-1.038.843.843,0,0,0-1.107,1.271c.964.839,2.815,1.342,6.189,1.681l.033,0c.109.067.218.127.327.182a.9.9,0,0,1,.124.5,4.243,4.243,0,0,1-3.843,3.667.843.843,0,0,0,.113,1.679.887.887,0,0,0,.115-.008c3.325-.453,5.341-3.139,5.3-5.368,0-.047-.009-.09-.013-.136a2.584,2.584,0,0,0,.664-.182c1.431-.613,2.232-2.4,2.2-4.913-.045-3.162-1.657-5.041-3.234-5.5a2.6,2.6,0,0,0-2.99,1.091,8.07,8.07,0,0,0-1.173,3.786,40.229,40.229,0,0,0-7.355-.342,5.1,5.1,0,0,0-2.925-4.2,2.946,2.946,0,0,0-3.2.572c-1.579,1.572-2.975,6.193-.534,9.008a3.847,3.847,0,0,0,2.939,1.545" transform="translate(-266.393 -53.167)" fill="#d9cbb4"/>
      <path id="Path_57205" data-name="Path 57205" d="M463.235,143.435a3.728,3.728,0,0,0,1.114.184,2.6,2.6,0,0,0,1.311-.339c1.4-.8,1.849-2.721,2.328-4.758.143-.609.291-1.236.463-1.816a13.927,13.927,0,0,0,2.836-.636.86.86,0,1,0-.547-1.63,12.366,12.366,0,0,1-9.7-.843.859.859,0,0,0-1.313.7c-.025.814-.143,7.992,3.506,9.134" transform="translate(-265.938 -77.209)" fill="#d9cbb4"/>
      <path id="Path_57206" data-name="Path 57206" d="M428.053,90.014a4.367,4.367,0,0,0,2.8,1.045,4.063,4.063,0,0,0,2.157-.6.843.843,0,0,0-.924-1.41,2.514,2.514,0,0,1-2.97-.341,2.13,2.13,0,0,1-.914-2.087,2.936,2.936,0,0,1,1.865-2.111,1.5,1.5,0,0,1,1.547.246.843.843,0,0,0,1.407-.624A41.071,41.071,0,0,1,435.6,70.862a.843.843,0,1,0-1.563-.63,41.6,41.6,0,0,0-2.647,12.561,3.386,3.386,0,0,0-1.863.123,4.651,4.651,0,0,0-2.978,3.408,3.8,3.8,0,0,0,1.507,3.69" transform="translate(-246.711 -40.322)" fill="#d9cbb4"/>
      <path id="Path_57207" data-name="Path 57207" d="M450.459,641.93a8.985,8.985,0,0,0,1.127.02,4.1,4.1,0,0,0,1.259-.262,1.437,1.437,0,0,0,.726-1.5,1.4,1.4,0,0,0-.844-1.417,3.994,3.994,0,0,0-2.406-.139.6.6,0,0,0-.355.63c.017.683.034,1.343.051,2.047.008.337.2.612.441.624" transform="translate(-260.293 -369.359)" fill="#d9cbb4"/>
      <path id="Path_57208" data-name="Path 57208" d="M453.021,651.568a15.5,15.5,0,0,0-2.406-.249c-.254-.017-.462.266-.459.625.009.986.017,1.88.026,2.826,0,.352.21.638.458.639a20.8,20.8,0,0,0,2.292-.052c.847-.094,1.266-.716,1.3-1.7.041-1.051-.374-1.9-1.215-2.09" transform="translate(-260.402 -376.771)" fill="#d9cbb4"/>
      <path id="Path_57209" data-name="Path 57209" d="M164.6,420.83c-.1-.078-9.67-7.915-12.179-14.28a.843.843,0,1,0-1.569.618c2.672,6.777,12.277,14.639,12.685,14.971a.843.843,0,0,0,1.064-1.308" transform="translate(-87.23 -234.87)" fill="#d9cbb4"/>
      <path id="Path_57210" data-name="Path 57210" d="M134.045,419.4a.843.843,0,1,0-1.525.72c1.388,2.94,6.3,9.775,12.45,15.107a.843.843,0,1,0,1.105-1.273c-6.177-5.36-10.883-12.124-12.031-14.554" transform="translate(-76.611 -242.332)" fill="#d9cbb4"/>
      <path id="Path_57211" data-name="Path 57211" d="M361.659,260.248a.843.843,0,0,0,.207-1.174,2.7,2.7,0,0,0-1.11-.912,71.668,71.668,0,0,0,3.724-8.36.843.843,0,0,0-1.585-.574,70.21,70.21,0,0,1-3.9,8.659,4.33,4.33,0,0,0-2.051.726,4.418,4.418,0,0,0-1.889,2.761,3.35,3.35,0,0,0,1.123,3.193c-3.206,6.615-6.066,14.111-3.148,26.348a.843.843,0,0,0,.819.648.828.828,0,0,0,.2-.024.843.843,0,0,0,.624-1.015c-2.8-11.756-.019-18.954,3.073-25.319.005-.01.007-.02.011-.03.059,0,.118.013.177.013a2.623,2.623,0,0,0,2.022-.906.843.843,0,0,0-1.294-1.081,1.1,1.1,0,0,1-1.375.1,1.649,1.649,0,0,1-.571-1.619A2.73,2.73,0,0,1,357.9,260c.816-.562,2.1-.664,2.589.039a.844.844,0,0,0,1.174.207" transform="translate(-203.514 -143.851)" fill="#d9cbb4"/>
      <path id="Path_57212" data-name="Path 57212" d="M382.936,312.3a.843.843,0,0,0-1.142.344,37.916,37.916,0,0,0-4.082,12.18,4.141,4.141,0,0,0-3.947,1.072,4.723,4.723,0,0,0-.9,5.01,3.839,3.839,0,0,0,2.018,2.146,2.959,2.959,0,0,0,1.134.226,2.68,2.68,0,0,0,1.993-.841.843.843,0,0,0-1.251-1.131,1.135,1.135,0,0,1-1.229.19,2.208,2.208,0,0,1-1.107-1.232,3,3,0,0,1,.539-3.182,2.4,2.4,0,0,1,2.939-.339.843.843,0,0,0,1.325-.583,36.257,36.257,0,0,1,4.051-12.718.843.843,0,0,0-.344-1.142" transform="translate(-215.488 -180.602)" fill="#d9cbb4"/>
      <path id="Path_57213" data-name="Path 57213" d="M453.417,291.634a.843.843,0,0,0-1.071.523,64.04,64.04,0,0,1-7.561,15.134,1.574,1.574,0,0,0-.277,1.493,1.593,1.593,0,0,0,.421.561,4.356,4.356,0,0,1,1.474,3.183,2.749,2.749,0,0,1-1.747,2.542,2.038,2.038,0,0,1-1.561-.184,1.613,1.613,0,0,1-.821-.975.843.843,0,1,0-1.63.43,3.1,3.1,0,0,0,.727,1.309,18.341,18.341,0,0,1-4.006,4.534.843.843,0,0,0,1.063,1.31,20.05,20.05,0,0,0,4.346-4.907,3.768,3.768,0,0,0,1.336.251,3.493,3.493,0,0,0,1.058-.162,4.418,4.418,0,0,0,2.921-4.1,5.948,5.948,0,0,0-1.9-4.357,65.738,65.738,0,0,0,7.749-15.516.843.843,0,0,0-.524-1.071" transform="translate(-252.824 -168.677)" fill="#d9cbb4"/>
      <path id="Path_57214" data-name="Path 57214" d="M422.8,304.329a.842.842,0,0,0-1.126.393c-1.607,3.33-3.345,6.652-5.165,9.874a.843.843,0,0,0,.5,1.226.953.953,0,0,1,.615.571,3.023,3.023,0,0,1-.107,2.313,2.73,2.73,0,0,1-1.5,1.533,1.179,1.179,0,0,1-.913-.149.635.635,0,0,1-.307-.412.843.843,0,0,0-1.666.26,2.283,2.283,0,0,0,1.061,1.57,2.887,2.887,0,0,0,1.551.454,2.694,2.694,0,0,0,.73-.1,4.241,4.241,0,0,0,2.571-2.443,4.64,4.64,0,0,0,.113-3.725,2.788,2.788,0,0,0-.764-1.014c1.686-3.019,3.3-6.118,4.8-9.224a.843.843,0,0,0-.393-1.125" transform="translate(-238.982 -175.998)" fill="#d9cbb4"/>
      <path id="Path_57215" data-name="Path 57215" d="M416.077,373.245a.843.843,0,1,0-1.041,1.326,1.6,1.6,0,1,1-2.426,2.01.843.843,0,0,0-1.5.776,3.256,3.256,0,0,0,2.283,1.654,3.637,3.637,0,0,0,.723.074,3.153,3.153,0,0,0,2.025-.706,3.408,3.408,0,0,0-.067-5.133" transform="translate(-237.764 -215.809)" fill="#d9cbb4"/>
      <path id="Path_57216" data-name="Path 57216" d="M323.88,344.436a.582.582,0,1,0,.581.579.584.584,0,0,0-.581-.579" transform="translate(-187.018 -199.248)" fill="#d9cbb4"/>
      <path id="Path_57217" data-name="Path 57217" d="M326.781,357.152a.581.581,0,1,0,.581.579.584.584,0,0,0-.581-.579" transform="translate(-188.695 -206.604)" fill="#d9cbb4"/>
      <path id="Path_57218" data-name="Path 57218" d="M323.88,352.862a.582.582,0,1,0,.581.579.584.584,0,0,0-.581-.579" transform="translate(-187.018 -204.122)" fill="#d9cbb4"/>
      <path id="Path_57219" data-name="Path 57219" d="M323.88,327.585a.582.582,0,1,0,.581.579.584.584,0,0,0-.581-.579" transform="translate(-187.018 -189.5)" fill="#d9cbb4"/>
      <path id="Path_57220" data-name="Path 57220" d="M323.88,336.01a.582.582,0,1,0,.581.579.584.584,0,0,0-.581-.579" transform="translate(-187.018 -194.373)" fill="#d9cbb4"/>
      <path id="Path_57221" data-name="Path 57221" d="M321.089,331.875a.582.582,0,1,0,.581.579.584.584,0,0,0-.581-.579" transform="translate(-185.402 -191.981)" fill="#d9cbb4"/>
      <path id="Path_57222" data-name="Path 57222" d="M318.189,352.862a.582.582,0,1,0,.581.579.584.584,0,0,0-.581-.579" transform="translate(-183.725 -204.122)" fill="#d9cbb4"/>
      <path id="Path_57223" data-name="Path 57223" d="M318.235,344.436a.582.582,0,1,0,.581.579.584.584,0,0,0-.581-.579" transform="translate(-183.752 -199.248)" fill="#d9cbb4"/>
      <path id="Path_57224" data-name="Path 57224" d="M321.089,340.3a.582.582,0,1,0,.581.579.584.584,0,0,0-.581-.579" transform="translate(-185.402 -196.855)" fill="#d9cbb4"/>
      <path id="Path_57225" data-name="Path 57225" d="M326.781,348.726a.582.582,0,1,0,.581.579.584.584,0,0,0-.581-.579" transform="translate(-188.695 -201.729)" fill="#d9cbb4"/>
      <path id="Path_57226" data-name="Path 57226" d="M321.089,348.726a.582.582,0,1,0,.581.579.584.584,0,0,0-.581-.579" transform="translate(-185.402 -201.729)" fill="#d9cbb4"/>
      <path id="Path_57227" data-name="Path 57227" d="M321.089,357.152a.582.582,0,1,0,.581.579.584.584,0,0,0-.581-.579" transform="translate(-185.402 -206.604)" fill="#d9cbb4"/>
      <path id="Path_57228" data-name="Path 57228" d="M332.471,323.449a.582.582,0,1,0,.581.579.584.584,0,0,0-.581-.579" transform="translate(-191.986 -187.107)" fill="#d9cbb4"/>
      <path id="Path_57229" data-name="Path 57229" d="M332.471,331.875a.582.582,0,1,0,.581.579.584.584,0,0,0-.581-.579" transform="translate(-191.986 -191.981)" fill="#d9cbb4"/>
      <path id="Path_57230" data-name="Path 57230" d="M332.471,357.152a.582.582,0,1,0,.581.579.584.584,0,0,0-.581-.579" transform="translate(-191.986 -206.604)" fill="#d9cbb4"/>
      <path id="Path_57231" data-name="Path 57231" d="M332.471,348.726a.582.582,0,1,0,.581.579.584.584,0,0,0-.581-.579" transform="translate(-191.986 -201.729)" fill="#d9cbb4"/>
      <path id="Path_57232" data-name="Path 57232" d="M332.471,340.3a.582.582,0,1,0,.581.579.584.584,0,0,0-.581-.579" transform="translate(-191.986 -196.855)" fill="#d9cbb4"/>
      <path id="Path_57233" data-name="Path 57233" d="M326.781,340.3a.581.581,0,1,0,.581.579.584.584,0,0,0-.581-.579" transform="translate(-188.695 -196.855)" fill="#d9cbb4"/>
      <path id="Path_57234" data-name="Path 57234" d="M338.162,348.726a.582.582,0,1,0,.581.579.584.584,0,0,0-.581-.579" transform="translate(-195.279 -201.729)" fill="#d9cbb4"/>
      <path id="Path_57235" data-name="Path 57235" d="M335.261,352.862a.582.582,0,1,0,.581.579.584.584,0,0,0-.581-.579" transform="translate(-193.602 -204.122)" fill="#d9cbb4"/>
      <path id="Path_57236" data-name="Path 57236" d="M335.261,344.436a.582.582,0,1,0,.581.579.584.584,0,0,0-.581-.579" transform="translate(-193.602 -199.248)" fill="#d9cbb4"/>
      <path id="Path_57237" data-name="Path 57237" d="M329.57,327.585a.582.582,0,1,0,.581.579.584.584,0,0,0-.581-.579" transform="translate(-190.309 -189.5)" fill="#d9cbb4"/>
      <path id="Path_57238" data-name="Path 57238" d="M326.781,331.875a.581.581,0,1,0,.581.579.584.584,0,0,0-.581-.579" transform="translate(-188.695 -191.981)" fill="#d9cbb4"/>
      <path id="Path_57239" data-name="Path 57239" d="M329.57,352.862a.582.582,0,1,0,.581.579.584.584,0,0,0-.581-.579" transform="translate(-190.309 -204.122)" fill="#d9cbb4"/>
      <path id="Path_57240" data-name="Path 57240" d="M326.781,323.449a.582.582,0,1,0,.581.579.584.584,0,0,0-.581-.579" transform="translate(-188.695 -187.107)" fill="#d9cbb4"/>
      <path id="Path_57241" data-name="Path 57241" d="M329.57,344.436a.582.582,0,1,0,.581.579.584.584,0,0,0-.581-.579" transform="translate(-190.309 -199.248)" fill="#d9cbb4"/>
      <path id="Path_57242" data-name="Path 57242" d="M329.57,336.01a.582.582,0,1,0,.581.579.584.584,0,0,0-.581-.579" transform="translate(-190.309 -194.373)" fill="#d9cbb4"/>
      <path id="Path_57243" data-name="Path 57243" d="M446.3,392.428a.582.582,0,1,0,.584.575.583.583,0,0,0-.584-.575" transform="translate(-257.834 -227.01)" fill="#d9cbb4"/>
      <path id="Path_57244" data-name="Path 57244" d="M450.586,395.218a.582.582,0,1,0,.584.575.583.583,0,0,0-.584-.575" transform="translate(-260.316 -228.624)" fill="#d9cbb4"/>
      <path id="Path_57245" data-name="Path 57245" d="M446.3,398.119a.582.582,0,1,0,.584.575.583.583,0,0,0-.584-.575" transform="translate(-257.834 -230.302)" fill="#d9cbb4"/>
      <path id="Path_57246" data-name="Path 57246" d="M450.586,400.909a.582.582,0,1,0,.584.575.583.583,0,0,0-.584-.575" transform="translate(-260.316 -231.916)" fill="#d9cbb4"/>
      <path id="Path_57247" data-name="Path 57247" d="M446.3,386.738a.582.582,0,1,0,.584.575.583.583,0,0,0-.584-.575" transform="translate(-257.834 -223.718)" fill="#d9cbb4"/>
      <path id="Path_57248" data-name="Path 57248" d="M442.161,395.218a.582.582,0,1,0,.584.575.583.583,0,0,0-.584-.575" transform="translate(-255.443 -228.624)" fill="#d9cbb4"/>
      <path id="Path_57249" data-name="Path 57249" d="M442.161,406.595a.582.582,0,1,0,.584.575.583.583,0,0,0-.584-.575" transform="translate(-255.443 -235.205)" fill="#d9cbb4"/>
      <path id="Path_57250" data-name="Path 57250" d="M442.161,400.909a.582.582,0,1,0,.584.575.583.583,0,0,0-.584-.575" transform="translate(-255.443 -231.916)" fill="#d9cbb4"/>
      <path id="Path_57251" data-name="Path 57251" d="M442.161,389.527a.582.582,0,1,0,.584.575.583.583,0,0,0-.584-.575" transform="translate(-255.443 -225.332)" fill="#d9cbb4"/>
      <path id="Path_57252" data-name="Path 57252" d="M446.3,403.764a.582.582,0,1,0,.584.575.583.583,0,0,0-.584-.575" transform="translate(-257.834 -233.567)" fill="#d9cbb4"/>
      <path id="Path_57253" data-name="Path 57253" d="M459.012,383.589a.582.582,0,1,0,.584.575.583.583,0,0,0-.584-.575" transform="translate(-265.191 -221.896)" fill="#d9cbb4"/>
      <path id="Path_57254" data-name="Path 57254" d="M459.012,395.218a.582.582,0,1,0,.584.575.583.583,0,0,0-.584-.575" transform="translate(-265.191 -228.624)" fill="#d9cbb4"/>
      <path id="Path_57255" data-name="Path 57255" d="M450.586,389.527a.582.582,0,1,0,.584.575.583.583,0,0,0-.584-.575" transform="translate(-260.316 -225.332)" fill="#d9cbb4"/>
      <path id="Path_57256" data-name="Path 57256" d="M462.958,398.119a.582.582,0,1,0,.584.575.583.583,0,0,0-.584-.575" transform="translate(-267.473 -230.302)" fill="#d9cbb4"/>
      <path id="Path_57257" data-name="Path 57257" d="M459.012,400.909a.582.582,0,1,0,.584.575.583.583,0,0,0-.584-.575" transform="translate(-265.191 -231.916)" fill="#d9cbb4"/>
      <path id="Path_57258" data-name="Path 57258" d="M454.722,398.119a.582.582,0,1,0,.584.575.583.583,0,0,0-.584-.575" transform="translate(-262.709 -230.302)" fill="#d9cbb4"/>
      <path id="Path_57259" data-name="Path 57259" d="M454.722,403.81a.582.582,0,1,0,.584.575.583.583,0,0,0-.584-.575" transform="translate(-262.709 -233.594)" fill="#d9cbb4"/>
      <path id="Path_57260" data-name="Path 57260" d="M454.722,386.738a.582.582,0,1,0,.584.575.583.583,0,0,0-.584-.575" transform="translate(-262.709 -223.718)" fill="#d9cbb4"/>
      <path id="Path_57261" data-name="Path 57261" d="M454.722,392.428a.582.582,0,1,0,.584.575.583.583,0,0,0-.584-.575" transform="translate(-262.709 -227.01)" fill="#d9cbb4"/>
      <path id="Path_57262" data-name="Path 57262" d="M459.012,389.527a.582.582,0,1,0,.584.575.583.583,0,0,0-.584-.575" transform="translate(-265.191 -225.332)" fill="#d9cbb4"/>
      <path id="Path_57263" data-name="Path 57263" d="M433.735,395.218a.582.582,0,1,0,.584.575.583.583,0,0,0-.584-.575" transform="translate(-250.568 -228.624)" fill="#d9cbb4"/>
      <path id="Path_57264" data-name="Path 57264" d="M433.735,406.595a.582.582,0,1,0,.584.575.583.583,0,0,0-.584-.575" transform="translate(-250.568 -235.205)" fill="#d9cbb4"/>
      <path id="Path_57265" data-name="Path 57265" d="M433.735,400.909a.582.582,0,1,0,.584.575.583.583,0,0,0-.584-.575" transform="translate(-250.568 -231.916)" fill="#d9cbb4"/>
      <path id="Path_57266" data-name="Path 57266" d="M437.871,403.8a.582.582,0,1,0,.584.575.583.583,0,0,0-.584-.575" transform="translate(-252.961 -233.591)" fill="#d9cbb4"/>
      <path id="Path_57267" data-name="Path 57267" d="M437.871,409.5a.582.582,0,1,0,.584.575.583.583,0,0,0-.584-.575" transform="translate(-252.961 -236.883)" fill="#d9cbb4"/>
      <path id="Path_57268" data-name="Path 57268" d="M437.871,392.428a.582.582,0,1,0,.584.575.583.583,0,0,0-.584-.575" transform="translate(-252.961 -227.01)" fill="#d9cbb4"/>
      <path id="Path_57269" data-name="Path 57269" d="M429.445,409.5a.582.582,0,1,0,.584.575.583.583,0,0,0-.584-.575" transform="translate(-248.088 -236.883)" fill="#d9cbb4"/>
      <path id="Path_57270" data-name="Path 57270" d="M433.735,412.286a.582.582,0,1,0,.584.575.583.583,0,0,0-.584-.575" transform="translate(-250.568 -238.497)" fill="#d9cbb4"/>
      <path id="Path_57271" data-name="Path 57271" d="M429.445,403.8a.582.582,0,1,0,.584.575.583.583,0,0,0-.584-.575" transform="translate(-248.088 -233.591)" fill="#d9cbb4"/>
      <path id="Path_57272" data-name="Path 57272" d="M429.445,398.119a.582.582,0,1,0,.584.575.583.583,0,0,0-.584-.575" transform="translate(-248.088 -230.302)" fill="#d9cbb4"/>
      <path id="Path_57273" data-name="Path 57273" d="M437.871,398.119a.582.582,0,1,0,.584.575.583.583,0,0,0-.584-.575" transform="translate(-252.961 -230.302)" fill="#d9cbb4"/>
      <path id="Path_57274" data-name="Path 57274" d="M478.384,692.209a.582.582,0,1,0,.581.579.584.584,0,0,0-.581-.579" transform="translate(-276.395 -400.425)" fill="#d9cbb4"/>
      <path id="Path_57275" data-name="Path 57275" d="M472.693,692.209a.582.582,0,1,0,.58.579.584.584,0,0,0-.58-.579" transform="translate(-273.102 -400.425)" fill="#d9cbb4"/>
      <path id="Path_57276" data-name="Path 57276" d="M467,692.209a.582.582,0,1,0,.581.579.584.584,0,0,0-.581-.579" transform="translate(-269.811 -400.425)" fill="#d9cbb4"/>
      <path id="Path_57277" data-name="Path 57277" d="M484.075,692.209a.582.582,0,1,0,.581.579.584.584,0,0,0-.581-.579" transform="translate(-279.686 -400.425)" fill="#d9cbb4"/>
      <path id="Path_57278" data-name="Path 57278" d="M489.766,692.209a.582.582,0,1,0,.581.579.584.584,0,0,0-.581-.579" transform="translate(-282.979 -400.425)" fill="#d9cbb4"/>
      <path id="Path_57279" data-name="Path 57279" d="M460.911,692.209a.582.582,0,1,0,.581.579.584.584,0,0,0-.581-.579" transform="translate(-266.287 -400.425)" fill="#d9cbb4"/>
      <path id="Path_57280" data-name="Path 57280" d="M463.7,687.919a.582.582,0,1,0,.581.579.584.584,0,0,0-.581-.579" transform="translate(-267.9 -397.943)" fill="#d9cbb4"/>
      <path id="Path_57281" data-name="Path 57281" d="M455.22,692.209a.582.582,0,1,0,.581.579.584.584,0,0,0-.581-.579" transform="translate(-262.994 -400.425)" fill="#d9cbb4"/>
      <path id="Path_57282" data-name="Path 57282" d="M449.529,692.209a.582.582,0,1,0,.58.579.584.584,0,0,0-.58-.579" transform="translate(-259.701 -400.425)" fill="#d9cbb4"/>
      <path id="Path_57283" data-name="Path 57283" d="M452.32,687.919a.582.582,0,1,0,.581.579.584.584,0,0,0-.581-.579" transform="translate(-261.316 -397.943)" fill="#d9cbb4"/>
      <path id="Path_57284" data-name="Path 57284" d="M458.01,687.919a.582.582,0,1,0,.581.579.584.584,0,0,0-.581-.579" transform="translate(-264.607 -397.943)" fill="#d9cbb4"/>
      <path id="Path_57285" data-name="Path 57285" d="M526.7,687.919a.582.582,0,1,0,.581.579.584.584,0,0,0-.581-.579" transform="translate(-304.344 -397.943)" fill="#d9cbb4"/>
      <path id="Path_57286" data-name="Path 57286" d="M540.983,683.783a.582.582,0,1,0,.581.579.584.584,0,0,0-.581-.579" transform="translate(-312.605 -395.551)" fill="#d9cbb4"/>
      <path id="Path_57287" data-name="Path 57287" d="M543.773,679.493a.582.582,0,1,0,.581.579.584.584,0,0,0-.581-.579" transform="translate(-314.219 -393.069)" fill="#d9cbb4"/>
      <path id="Path_57288" data-name="Path 57288" d="M540.983,692.209a.582.582,0,1,0,.581.579.584.584,0,0,0-.581-.579" transform="translate(-312.605 -400.425)" fill="#d9cbb4"/>
      <path id="Path_57289" data-name="Path 57289" d="M543.773,687.919a.582.582,0,1,0,.581.579.584.584,0,0,0-.581-.579" transform="translate(-314.219 -397.943)" fill="#d9cbb4"/>
      <path id="Path_57290" data-name="Path 57290" d="M538.082,687.919a.582.582,0,1,0,.581.579.584.584,0,0,0-.581-.579" transform="translate(-310.928 -397.943)" fill="#d9cbb4"/>
      <path id="Path_57291" data-name="Path 57291" d="M558.055,683.783a.582.582,0,1,0,.581.579.584.584,0,0,0-.581-.579" transform="translate(-322.482 -395.551)" fill="#d9cbb4"/>
      <path id="Path_57292" data-name="Path 57292" d="M555.154,687.919a.582.582,0,1,0,.581.579.584.584,0,0,0-.581-.579" transform="translate(-320.803 -397.943)" fill="#d9cbb4"/>
      <path id="Path_57293" data-name="Path 57293" d="M546.673,683.783a.582.582,0,1,0,.581.579.584.584,0,0,0-.581-.579" transform="translate(-315.896 -395.551)" fill="#d9cbb4"/>
      <path id="Path_57294" data-name="Path 57294" d="M563.746,683.783a.582.582,0,1,0,.581.579.584.584,0,0,0-.581-.579" transform="translate(-325.773 -395.551)" fill="#d9cbb4"/>
      <path id="Path_57295" data-name="Path 57295" d="M535.292,692.209a.582.582,0,1,0,.581.579.584.584,0,0,0-.581-.579" transform="translate(-309.314 -400.425)" fill="#d9cbb4"/>
      <path id="Path_57296" data-name="Path 57296" d="M549.464,687.919a.582.582,0,1,0,.581.579.583.583,0,0,0-.581-.579" transform="translate(-317.512 -397.943)" fill="#d9cbb4"/>
      <path id="Path_57297" data-name="Path 57297" d="M549.464,679.493a.582.582,0,1,0,.581.579.583.583,0,0,0-.581-.579" transform="translate(-317.512 -393.069)" fill="#d9cbb4"/>
      <path id="Path_57298" data-name="Path 57298" d="M552.364,683.783a.582.582,0,1,0,.581.579.584.584,0,0,0-.581-.579" transform="translate(-319.189 -395.551)" fill="#d9cbb4"/>
      <path id="Path_57299" data-name="Path 57299" d="M506.838,692.209a.582.582,0,1,0,.581.579.584.584,0,0,0-.581-.579" transform="translate(-292.854 -400.425)" fill="#d9cbb4"/>
      <path id="Path_57300" data-name="Path 57300" d="M509.628,687.919a.582.582,0,1,0,.581.579.584.584,0,0,0-.581-.579" transform="translate(-294.467 -397.943)" fill="#d9cbb4"/>
      <path id="Path_57301" data-name="Path 57301" d="M503.937,687.919a.582.582,0,1,0,.581.579.584.584,0,0,0-.581-.579" transform="translate(-291.176 -397.943)" fill="#d9cbb4"/>
      <path id="Path_57302" data-name="Path 57302" d="M512.529,692.209a.581.581,0,1,0,.581.579.584.584,0,0,0-.581-.579" transform="translate(-296.146 -400.425)" fill="#d9cbb4"/>
      <path id="Path_57303" data-name="Path 57303" d="M501.148,692.209a.582.582,0,1,0,.581.579.584.584,0,0,0-.581-.579" transform="translate(-289.563 -400.425)" fill="#d9cbb4"/>
      <path id="Path_57304" data-name="Path 57304" d="M498.246,687.919a.582.582,0,1,0,.581.579.584.584,0,0,0-.581-.579" transform="translate(-287.883 -397.943)" fill="#d9cbb4"/>
      <path id="Path_57305" data-name="Path 57305" d="M446.629,687.919a.582.582,0,1,0,.581.579.584.584,0,0,0-.581-.579" transform="translate(-258.025 -397.943)" fill="#d9cbb4"/>
      <path id="Path_57306" data-name="Path 57306" d="M532.391,687.919a.582.582,0,1,0,.581.579.584.584,0,0,0-.581-.579" transform="translate(-307.635 -397.943)" fill="#d9cbb4"/>
      <path id="Path_57307" data-name="Path 57307" d="M529.6,692.209a.582.582,0,1,0,.581.579.584.584,0,0,0-.581-.579" transform="translate(-306.021 -400.425)" fill="#d9cbb4"/>
      <path id="Path_57308" data-name="Path 57308" d="M495.457,692.209a.582.582,0,1,0,.581.579.584.584,0,0,0-.581-.579" transform="translate(-286.27 -400.425)" fill="#d9cbb4"/>
      <path id="Path_57309" data-name="Path 57309" d="M518.22,692.209a.582.582,0,1,0,.581.579.584.584,0,0,0-.581-.579" transform="translate(-299.438 -400.425)" fill="#d9cbb4"/>
      <path id="Path_57310" data-name="Path 57310" d="M523.91,692.209a.582.582,0,1,0,.581.579.584.584,0,0,0-.581-.579" transform="translate(-302.729 -400.425)" fill="#d9cbb4"/>
      <path id="Path_57311" data-name="Path 57311" d="M515.319,687.919a.582.582,0,1,0,.581.579.584.584,0,0,0-.581-.579" transform="translate(-297.76 -397.943)" fill="#d9cbb4"/>
      <path id="Path_57312" data-name="Path 57312" d="M521.009,687.919a.582.582,0,1,0,.581.579.584.584,0,0,0-.581-.579" transform="translate(-301.051 -397.943)" fill="#d9cbb4"/>
      <path id="Path_57313" data-name="Path 57313" d="M372.649,679.493a.582.582,0,1,0,.581.579.584.584,0,0,0-.581-.579" transform="translate(-215.229 -393.069)" fill="#d9cbb4"/>
      <path id="Path_57314" data-name="Path 57314" d="M372.649,687.919a.582.582,0,1,0,.581.579.584.584,0,0,0-.581-.579" transform="translate(-215.229 -397.943)" fill="#d9cbb4"/>
      <path id="Path_57315" data-name="Path 57315" d="M375.549,683.783a.582.582,0,1,0,.581.579.584.584,0,0,0-.581-.579" transform="translate(-216.906 -395.551)" fill="#d9cbb4"/>
      <path id="Path_57316" data-name="Path 57316" d="M389.721,687.919a.582.582,0,1,0,.581.579.584.584,0,0,0-.581-.579" transform="translate(-225.105 -397.943)" fill="#d9cbb4"/>
      <path id="Path_57317" data-name="Path 57317" d="M369.859,683.783a.582.582,0,1,0,.581.579.584.584,0,0,0-.581-.579" transform="translate(-213.615 -395.551)" fill="#d9cbb4"/>
      <path id="Path_57318" data-name="Path 57318" d="M366.958,687.919a.582.582,0,1,0,.581.579.584.584,0,0,0-.581-.579" transform="translate(-211.938 -397.943)" fill="#d9cbb4"/>
      <path id="Path_57319" data-name="Path 57319" d="M378.339,687.919a.582.582,0,1,0,.58.579.584.584,0,0,0-.58-.579" transform="translate(-218.52 -397.943)" fill="#d9cbb4"/>
      <path id="Path_57320" data-name="Path 57320" d="M386.931,692.209a.582.582,0,1,0,.581.579.584.584,0,0,0-.581-.579" transform="translate(-223.49 -400.425)" fill="#d9cbb4"/>
      <path id="Path_57321" data-name="Path 57321" d="M386.931,683.783a.582.582,0,1,0,.581.579.584.584,0,0,0-.581-.579" transform="translate(-223.49 -395.551)" fill="#d9cbb4"/>
      <path id="Path_57322" data-name="Path 57322" d="M384.03,679.493a.582.582,0,1,0,.581.579.584.584,0,0,0-.581-.579" transform="translate(-221.813 -393.069)" fill="#d9cbb4"/>
      <path id="Path_57323" data-name="Path 57323" d="M381.24,683.783a.582.582,0,1,0,.581.579.584.584,0,0,0-.581-.579" transform="translate(-220.199 -395.551)" fill="#d9cbb4"/>
      <path id="Path_57324" data-name="Path 57324" d="M381.24,692.209a.582.582,0,1,0,.581.579.584.584,0,0,0-.581-.579" transform="translate(-220.199 -400.425)" fill="#d9cbb4"/>
      <path id="Path_57325" data-name="Path 57325" d="M378.339,679.493a.582.582,0,1,0,.58.579.584.584,0,0,0-.58-.579" transform="translate(-218.52 -393.069)" fill="#d9cbb4"/>
      <path id="Path_57326" data-name="Path 57326" d="M384.03,687.919a.582.582,0,1,0,.581.579.584.584,0,0,0-.581-.579" transform="translate(-221.813 -397.943)" fill="#d9cbb4"/>
      <path id="Path_57327" data-name="Path 57327" d="M443.839,692.209a.582.582,0,1,0,.581.579.584.584,0,0,0-.581-.579" transform="translate(-256.41 -400.425)" fill="#d9cbb4"/>
      <path id="Path_57328" data-name="Path 57328" d="M364.168,683.783a.582.582,0,1,0,.581.579.584.584,0,0,0-.581-.579" transform="translate(-210.322 -395.551)" fill="#d9cbb4"/>
      <path id="Path_57329" data-name="Path 57329" d="M423.865,687.919a.582.582,0,1,0,.581.579.584.584,0,0,0-.581-.579" transform="translate(-244.855 -397.943)" fill="#d9cbb4"/>
      <path id="Path_57330" data-name="Path 57330" d="M426.766,692.209a.582.582,0,1,0,.581.579.584.584,0,0,0-.581-.579" transform="translate(-246.535 -400.425)" fill="#d9cbb4"/>
      <path id="Path_57331" data-name="Path 57331" d="M418.175,687.919a.582.582,0,1,0,.581.579.584.584,0,0,0-.581-.579" transform="translate(-241.564 -397.943)" fill="#d9cbb4"/>
      <path id="Path_57332" data-name="Path 57332" d="M421.076,692.209a.582.582,0,1,0,.581.579.584.584,0,0,0-.581-.579" transform="translate(-243.242 -400.425)" fill="#d9cbb4"/>
      <path id="Path_57333" data-name="Path 57333" d="M438.148,692.209a.582.582,0,1,0,.581.579.584.584,0,0,0-.581-.579" transform="translate(-253.119 -400.425)" fill="#d9cbb4"/>
      <path id="Path_57334" data-name="Path 57334" d="M429.556,687.919a.582.582,0,1,0,.581.579.584.584,0,0,0-.581-.579" transform="translate(-248.148 -397.943)" fill="#d9cbb4"/>
      <path id="Path_57335" data-name="Path 57335" d="M440.938,687.919a.582.582,0,1,0,.581.579.584.584,0,0,0-.581-.579" transform="translate(-254.732 -397.943)" fill="#d9cbb4"/>
      <path id="Path_57336" data-name="Path 57336" d="M415.385,692.209a.582.582,0,1,0,.581.579.584.584,0,0,0-.581-.579" transform="translate(-239.951 -400.425)" fill="#d9cbb4"/>
      <path id="Path_57337" data-name="Path 57337" d="M389.721,679.493a.582.582,0,1,0,.581.579.584.584,0,0,0-.581-.579" transform="translate(-225.105 -393.069)" fill="#d9cbb4"/>
      <path id="Path_57338" data-name="Path 57338" d="M432.457,692.209a.582.582,0,1,0,.581.579.584.584,0,0,0-.581-.579" transform="translate(-249.826 -400.425)" fill="#d9cbb4"/>
      <path id="Path_57339" data-name="Path 57339" d="M435.247,687.919a.582.582,0,1,0,.581.579.584.584,0,0,0-.581-.579" transform="translate(-251.439 -397.943)" fill="#d9cbb4"/>
      <path id="Path_57340" data-name="Path 57340" d="M398.313,692.209a.582.582,0,1,0,.581.579.584.584,0,0,0-.581-.579" transform="translate(-230.074 -400.425)" fill="#d9cbb4"/>
      <path id="Path_57341" data-name="Path 57341" d="M395.412,679.493a.582.582,0,1,0,.581.579.584.584,0,0,0-.581-.579" transform="translate(-228.396 -393.069)" fill="#d9cbb4"/>
      <path id="Path_57342" data-name="Path 57342" d="M412.484,687.919a.582.582,0,1,0,.581.579.584.584,0,0,0-.581-.579" transform="translate(-238.271 -397.943)" fill="#d9cbb4"/>
      <path id="Path_57343" data-name="Path 57343" d="M392.622,683.783a.582.582,0,1,0,.581.579.584.584,0,0,0-.581-.579" transform="translate(-226.783 -395.551)" fill="#d9cbb4"/>
      <path id="Path_57344" data-name="Path 57344" d="M392.622,692.209a.582.582,0,1,0,.581.579.584.584,0,0,0-.581-.579" transform="translate(-226.783 -400.425)" fill="#d9cbb4"/>
      <path id="Path_57345" data-name="Path 57345" d="M395.412,687.919a.582.582,0,1,0,.581.579.584.584,0,0,0-.581-.579" transform="translate(-228.396 -397.943)" fill="#d9cbb4"/>
      <path id="Path_57346" data-name="Path 57346" d="M401.1,687.919a.582.582,0,1,0,.581.579.584.584,0,0,0-.581-.579" transform="translate(-231.688 -397.943)" fill="#d9cbb4"/>
      <path id="Path_57347" data-name="Path 57347" d="M398.313,683.783a.582.582,0,1,0,.581.579.584.584,0,0,0-.581-.579" transform="translate(-230.074 -395.551)" fill="#d9cbb4"/>
      <path id="Path_57348" data-name="Path 57348" d="M409.694,692.209a.582.582,0,1,0,.581.579.584.584,0,0,0-.581-.579" transform="translate(-236.658 -400.425)" fill="#d9cbb4"/>
      <path id="Path_57349" data-name="Path 57349" d="M406.793,687.919a.582.582,0,1,0,.581.579.584.584,0,0,0-.581-.579" transform="translate(-234.98 -397.943)" fill="#d9cbb4"/>
      <path id="Path_57350" data-name="Path 57350" d="M404,692.209a.582.582,0,1,0,.581.579.584.584,0,0,0-.581-.579" transform="translate(-233.367 -400.425)" fill="#d9cbb4"/>
      <path id="Path_57351" data-name="Path 57351" d="M404,683.783a.582.582,0,1,0,.581.579.584.584,0,0,0-.581-.579" transform="translate(-233.367 -395.551)" fill="#d9cbb4"/>
      <path id="Path_57352" data-name="Path 57352" d="M386.128,174.212a.582.582,0,1,0-.579-.581.583.583,0,0,0,.579.581" transform="translate(-223.029 -100.104)" fill="#d9cbb4"/>
      <path id="Path_57353" data-name="Path 57353" d="M394.554,179.9a.582.582,0,1,0-.579-.581.583.583,0,0,0,.579.581" transform="translate(-227.904 -103.396)" fill="#d9cbb4"/>
      <path id="Path_57354" data-name="Path 57354" d="M390.264,177a.582.582,0,1,0-.579-.581.583.583,0,0,0,.579.581" transform="translate(-225.422 -101.718)" fill="#d9cbb4"/>
      <path id="Path_57355" data-name="Path 57355" d="M390.264,182.693a.582.582,0,1,0-.579-.581.583.583,0,0,0,.579.581" transform="translate(-225.422 -105.01)" fill="#d9cbb4"/>
      <path id="Path_57356" data-name="Path 57356" d="M386.128,179.9a.582.582,0,1,0-.579-.581.583.583,0,0,0,.579.581" transform="translate(-223.029 -103.396)" fill="#d9cbb4"/>
      <path id="Path_57357" data-name="Path 57357" d="M381.852,181.529a.582.582,0,1,0,.57.589.583.583,0,0,0-.57-.589" transform="translate(-220.547 -105.01)" fill="#d9cbb4"/>
      <path id="Path_57358" data-name="Path 57358" d="M394.554,168.521a.582.582,0,1,0-.579-.581.583.583,0,0,0,.579.581" transform="translate(-227.904 -96.812)" fill="#d9cbb4"/>
      <path id="Path_57359" data-name="Path 57359" d="M394.554,174.212a.582.582,0,1,0-.579-.581.583.583,0,0,0,.579.581" transform="translate(-227.904 -100.104)" fill="#d9cbb4"/>
      <path id="Path_57360" data-name="Path 57360" d="M390.264,165.62a.582.582,0,1,0-.579-.581.583.583,0,0,0,.579.581" transform="translate(-225.422 -95.134)" fill="#d9cbb4"/>
      <path id="Path_57361" data-name="Path 57361" d="M390.264,171.311a.582.582,0,1,0-.579-.581.583.583,0,0,0,.579.581" transform="translate(-225.422 -98.426)" fill="#d9cbb4"/>
      <path id="Path_57362" data-name="Path 57362" d="M386.128,168.521a.582.582,0,1,0-.579-.581.583.583,0,0,0,.579.581" transform="translate(-223.029 -96.812)" fill="#d9cbb4"/>
      <path id="Path_57363" data-name="Path 57363" d="M398.69,171.311a.582.582,0,1,0-.579-.581.583.583,0,0,0,.579.581" transform="translate(-230.297 -98.426)" fill="#d9cbb4"/>
      <path id="Path_57364" data-name="Path 57364" d="M381.852,175.838a.582.582,0,1,0,.57.589.583.583,0,0,0-.57-.589" transform="translate(-220.547 -101.718)" fill="#d9cbb4"/>
      <path id="Path_57365" data-name="Path 57365" d="M386.128,185.594a.582.582,0,1,0-.579-.581.583.583,0,0,0,.579.581" transform="translate(-223.029 -106.688)" fill="#d9cbb4"/>
      <path id="Path_57366" data-name="Path 57366" d="M381.852,187.219a.582.582,0,1,0,.57.589.583.583,0,0,0-.57-.589" transform="translate(-220.547 -108.302)" fill="#d9cbb4"/>
      <path id="Path_57367" data-name="Path 57367" d="M390.264,188.383a.582.582,0,1,0-.579-.581.583.583,0,0,0,.579.581" transform="translate(-225.422 -108.302)" fill="#d9cbb4"/>
    </g>
  </g>
</svg>
