<svg xmlns="http://www.w3.org/2000/svg" width="200.429" height="69.517" viewBox="0 0 200.429 69.517">
  <path id="Path_42209" data-name="Path 42209" d="M5077.384-1862.994a34.6,34.6,0,0,0-16.365,4.091,34.594,34.594,0,0,0-16.364-4.091,34.6,34.6,0,0,0-16.364,4.091,34.6,34.6,0,0,0-16.364-4.091,34.6,34.6,0,0,0-16.365,4.091,34.592,34.592,0,0,0-16.363-4.091,34.6,34.6,0,0,0-16.365,4.091,34.593,34.593,0,0,0-16.363-4.091,34.758,34.758,0,0,0-34.758,34.758,34.759,34.759,0,0,0,34.758,34.759,34.592,34.592,0,0,0,16.363-4.091,34.6,34.6,0,0,0,16.365,4.091,34.591,34.591,0,0,0,16.363-4.091,34.6,34.6,0,0,0,16.365,4.091,34.594,34.594,0,0,0,16.364-4.091,34.594,34.594,0,0,0,16.364,4.091,34.593,34.593,0,0,0,16.364-4.091,34.6,34.6,0,0,0,16.365,4.091,34.759,34.759,0,0,0,34.758-34.759A34.758,34.758,0,0,0,5077.384-1862.994Z" transform="translate(-4911.713 1862.994)" fill="#d0742d"/>
</svg>
