<svg xmlns="http://www.w3.org/2000/svg" width="143.449" height="42.12" viewBox="0 0 143.449 42.12">
  <g id="site-logo" transform="translate(-300 -300)">
    <g id="Group_13" data-name="Group 13" transform="translate(300 300)">
      <g id="Group_12" data-name="Group 12" transform="translate(0 0)">
        <g id="Group_7" data-name="Group 7" transform="translate(58.434)">
          <path id="Path_5" data-name="Path 5" d="M973.109,326.544l-6.134-8.573H966.9v8.573h-6.493V300h8.681a16.387,16.387,0,0,1,6.277.969,8.78,8.78,0,0,1,4.878,8.178c0,4.2-2.511,7.641-6.6,8.358l7.21,9.04Zm-3.695-13.2c2.69,0,4.34-1.256,4.34-3.8,0-2.3-1.722-3.587-4.269-3.587H966.9v7.389Z" transform="translate(-960.411 -300)" fill="#14152e"/>
        </g>
        <g id="Group_8" data-name="Group 8" transform="translate(85.776)">
          <path id="Path_6" data-name="Path 6" d="M1269.429,313.307A13.056,13.056,0,0,1,1282.908,300c7.812,0,13.514,5.737,13.514,13.307a12.933,12.933,0,0,1-13.2,13.238C1275.132,326.544,1269.429,320.876,1269.429,313.307Zm13.5-7.569c-4.113,0-6.982,3.6-6.982,7.569s2.921,7.569,6.964,7.569h.018c4.044,0,6.964-3.6,6.964-7.569s-2.869-7.569-6.982-7.569" transform="translate(-1269.429 -300)" fill="#14152e"/>
        </g>
        <g id="Group_9" data-name="Group 9">
          <path id="Path_7" data-name="Path 7" d="M315.818,311.955a6.805,6.805,0,0,0,3.148-5.3,7.115,7.115,0,0,0-2.386-5.13c-1.275-1.175-2.268-1.513-4.486-1.522H300v26.544h9.729c4.2,0,5.56-.323,7.641-1.794a7.494,7.494,0,0,0,3.085-6.277C320.454,315.617,318.822,313.632,315.818,311.955Zm-9.827-7.511h3.6a2.948,2.948,0,0,1,2.959,2.959,2.9,2.9,0,0,1-2.9,2.846H305.99Zm7.826,13.794a3.552,3.552,0,0,1-3.552,3.552H305.99v-7.1h4.274a3.552,3.552,0,0,1,3.552,3.552Z" transform="translate(-300 -300)" fill="#14152e"/>
        </g>
        <g id="Group_10" data-name="Group 10" transform="translate(26.15 0)">
          <path id="Path_8" data-name="Path 8" d="M610.791,300l-3.946,10.654L602.9,300h-7.354l7.927,16.9v9.649h6.744V316.9l7.927-16.9Z" transform="translate(-595.546 -300)" fill="#14152e"/>
        </g>
        <g id="Group_11" data-name="Group 11" transform="translate(121.065)">
          <path id="Path_9" data-name="Path 9" d="M1684.757,326.544l-10.187-16.214.179,8.107v8.107h-6.493V300h5.847l10.223,16.613-.179-8.306V300h6.493v26.544Z" transform="translate(-1668.257 -300)" fill="#14152e"/>
        </g>
      </g>
    </g>
    <g id="Group_15" data-name="Group 15" transform="translate(342.357 334.257)">
      <g id="Group_14" data-name="Group 14" transform="translate(0 0)">
        <path id="Path_10" data-name="Path 10" d="M781.151,688.711c1.24,0,1.718.58,1.718,2.094,0,.979-.239,1.434-.808,1.548.672.159.933.649.933,1.741,0,1.661-.432,2.208-1.741,2.208h-2.538v-7.59Zm-.58,3.107c.535,0,.66-.171.66-.933,0-.717-.125-.922-.58-.922h-.319v1.855Zm.182,3.266c.467,0,.592-.216.592-1,0-.819-.159-1.024-.774-1.024h-.239v2.026Z" transform="translate(-778.716 -688.574)" fill="#14152e"/>
        <path id="Path_11" data-name="Path 11" d="M886.127,694.253a6.223,6.223,0,0,1-.057.694,1.418,1.418,0,0,1-.694,1.172,2.707,2.707,0,0,1-1.354.319,2.1,2.1,0,0,1-1.957-.956,2.817,2.817,0,0,1-.2-1.229v-5.542h1.627v5.542c0,.649.125.865.5.865.353,0,.489-.228.489-.865v-5.542h1.65Z" transform="translate(-872.734 -688.574)" fill="#14152e"/>
        <path id="Path_12" data-name="Path 12" d="M988.921,696.3h-1.6v-7.59h2.447a1.558,1.558,0,0,1,1.752,1.935,2.585,2.585,0,0,1-.273,1.365,1.063,1.063,0,0,1-.546.376c.535.239.728.615.808,1.559v1.6a3.729,3.729,0,0,0,.057.751H989.9v-2.139c0-.046-.046-.512-.057-.569-.057-.364-.285-.523-.751-.523a.5.5,0,0,0-.171.023Zm.273-4.438c.558,0,.705-.216.705-1.024,0-.694-.137-.9-.592-.9h-.387v1.923Z" transform="translate(-968.86 -688.574)" fill="#14152e"/>
        <path id="Path_13" data-name="Path 13" d="M1094.6,690.764v4.131h-1.491v-.376a1.468,1.468,0,0,1-1.149.512,1.551,1.551,0,0,1-1.274-.6,2.668,2.668,0,0,1-.353-1.491v-3.505a2.525,2.525,0,0,1,.4-1.6,2.245,2.245,0,0,1,1.787-.66,1.928,1.928,0,0,1,2.083,2.208v.478h-1.627v-.774c0-.421-.182-.649-.512-.649-.421,0-.524.228-.524,1.161v3c.046.751.046.751.1.865a.476.476,0,0,0,.455.285c.33,0,.5-.273.5-.808v-.865h-.6v-1.309Z" transform="translate(-1062.758 -687.168)" fill="#14152e"/>
        <path id="Path_14" data-name="Path 14" d="M1199.112,691.7v1.354H1197.4v1.889h2.105V696.3h-3.721v-7.59h3.516v1.343h-1.9v1.65Z" transform="translate(-1158.886 -688.574)" fill="#14152e"/>
        <path id="Path_15" data-name="Path 15" d="M1294.749,696.3h-1.6v-7.59h2.447a1.558,1.558,0,0,1,1.752,1.935,2.587,2.587,0,0,1-.273,1.365,1.063,1.063,0,0,1-.546.376c.535.239.728.615.808,1.559v1.6a3.724,3.724,0,0,0,.057.751h-1.661v-2.139c0-.046-.046-.512-.057-.569-.057-.364-.285-.523-.751-.523a.5.5,0,0,0-.171.023Zm.273-4.438c.558,0,.705-.216.705-1.024,0-.694-.137-.9-.592-.9h-.387v1.923Z" transform="translate(-1247.627 -688.574)" fill="#14152e"/>
        <path id="Path_16" data-name="Path 16" d="M1397.579,689.751v-.6c0-.444-.182-.683-.523-.683a.47.47,0,0,0-.512.523c0,.432.125.6,1.047,1.411,1.32,1.149,1.661,1.707,1.661,2.708a1.82,1.82,0,0,1-2.083,1.923,2.211,2.211,0,0,1-2.071-.933,2.318,2.318,0,0,1-.228-1.252v-.569h1.65v.694c0,.523.182.785.569.785a.508.508,0,0,0,.523-.58c0-.512-.2-.831-.922-1.422-1.377-1.138-1.764-1.73-1.764-2.674a1.835,1.835,0,0,1,2.071-1.912,1.978,1.978,0,0,1,2.037,1.206,5.425,5.425,0,0,1,.114,1.377Z" transform="translate(-1340.353 -687.168)" fill="#14152e"/>
      </g>
    </g>
  </g>
</svg>
