<svg xmlns="http://www.w3.org/2000/svg" width="143.658" height="58.733" viewBox="0 0 143.658 58.733">
  <g id="vegetarian-btn" transform="translate(-887.473 -1523.303)">
    <g id="btn" transform="translate(887.473 1523.303)">
      <path id="Path_42209" data-name="Path 42209" d="M5028.875-1862.994a24.468,24.468,0,0,0-11.573,2.893,24.462,24.462,0,0,0-11.573-2.893,24.466,24.466,0,0,0-11.573,2.893,24.461,24.461,0,0,0-11.572-2.893,24.469,24.469,0,0,0-11.574,2.893,24.458,24.458,0,0,0-11.572-2.893,24.465,24.465,0,0,0-11.573,2.893,24.464,24.464,0,0,0-11.572-2.893,24.581,24.581,0,0,0-24.581,24.581,24.582,24.582,0,0,0,24.581,24.582,24.464,24.464,0,0,0,11.572-2.893,24.465,24.465,0,0,0,11.573,2.893,24.458,24.458,0,0,0,11.572-2.893,24.469,24.469,0,0,0,11.574,2.893,24.461,24.461,0,0,0,11.572-2.893,24.466,24.466,0,0,0,11.573,2.893,24.462,24.462,0,0,0,11.573-2.893,24.468,24.468,0,0,0,11.573,2.893,24.582,24.582,0,0,0,24.582-24.582A24.581,24.581,0,0,0,5028.875-1862.994Z" transform="translate(-4910.756 1862.994)" fill="#14152e"/>
      <path id="Path_42210" data-name="Path 42210" d="M4936.251-1863.994a25.6,25.6,0,0,1,6.3.784,25.456,25.456,0,0,1,5.274,1.987,25.439,25.439,0,0,1,5.275-1.987,25.6,25.6,0,0,1,6.3-.784,25.6,25.6,0,0,1,6.3.784,25.452,25.452,0,0,1,5.274,1.987,25.464,25.464,0,0,1,5.275-1.987,25.6,25.6,0,0,1,6.3-.784,25.6,25.6,0,0,1,6.3.784,25.446,25.446,0,0,1,5.274,1.987,25.45,25.45,0,0,1,5.275-1.987,25.6,25.6,0,0,1,6.3-.784,25.594,25.594,0,0,1,6.3.784,25.429,25.429,0,0,1,5.275,1.987,25.46,25.46,0,0,1,5.275-1.987,25.6,25.6,0,0,1,6.3-.784,25.379,25.379,0,0,1,9.941,2.007,25.45,25.45,0,0,1,8.118,5.473,25.452,25.452,0,0,1,5.472,8.117,25.37,25.37,0,0,1,2.008,9.941,25.37,25.37,0,0,1-2.008,9.941,25.457,25.457,0,0,1-5.472,8.117,25.455,25.455,0,0,1-8.118,5.473,25.379,25.379,0,0,1-9.941,2.007,25.592,25.592,0,0,1-6.3-.784,25.446,25.446,0,0,1-5.275-1.986,25.414,25.414,0,0,1-5.275,1.986,25.583,25.583,0,0,1-6.3.784,25.592,25.592,0,0,1-6.3-.784,25.435,25.435,0,0,1-5.275-1.986,25.431,25.431,0,0,1-5.274,1.986,25.592,25.592,0,0,1-6.3.784,25.59,25.59,0,0,1-6.3-.784,25.45,25.45,0,0,1-5.275-1.986,25.437,25.437,0,0,1-5.274,1.986,25.593,25.593,0,0,1-6.3.784,25.586,25.586,0,0,1-6.3-.784,25.425,25.425,0,0,1-5.275-1.986,25.442,25.442,0,0,1-5.274,1.986,25.592,25.592,0,0,1-6.3.784,25.379,25.379,0,0,1-9.941-2.007,25.453,25.453,0,0,1-8.117-5.473,25.457,25.457,0,0,1-5.473-8.118,25.376,25.376,0,0,1-2.007-9.941,25.378,25.378,0,0,1,2.007-9.941,25.454,25.454,0,0,1,5.473-8.117,25.448,25.448,0,0,1,8.117-5.473A25.379,25.379,0,0,1,4936.251-1863.994Zm11.572,4.936-.452-.241a23.657,23.657,0,0,0-11.121-2.78,23.65,23.65,0,0,0-23.624,23.624,23.651,23.651,0,0,0,23.624,23.625,23.657,23.657,0,0,0,11.121-2.78l.452-.241.451.241a23.66,23.66,0,0,0,11.122,2.78,23.651,23.651,0,0,0,11.121-2.78l.452-.241.452.241a23.663,23.663,0,0,0,11.122,2.78,23.654,23.654,0,0,0,11.121-2.78l.452-.241.451.241a23.662,23.662,0,0,0,11.122,2.78,23.655,23.655,0,0,0,11.121-2.78l.452-.241.452.241a23.659,23.659,0,0,0,11.121,2.78,23.651,23.651,0,0,0,23.624-23.625,23.651,23.651,0,0,0-23.624-23.624,23.659,23.659,0,0,0-11.121,2.78l-.452.241-.452-.241a23.653,23.653,0,0,0-11.121-2.78,23.662,23.662,0,0,0-11.122,2.78l-.451.241-.452-.241a23.654,23.654,0,0,0-11.121-2.78,23.663,23.663,0,0,0-11.122,2.78l-.452.241-.452-.241a23.651,23.651,0,0,0-11.121-2.78,23.659,23.659,0,0,0-11.122,2.78Z" transform="translate(-4910.713 1871.651)" fill="#14152e"/>
    </g>
    <text id="Vegetarian" transform="translate(960 1557.486)" fill="#d9cbb4" font-size="26" font-family="NimbusSansT-BlackCondensed, NimbuSanTBlaCon" font-weight="800"><tspan x="-59" y="0">VEGETARIAN</tspan></text>
  </g>
</svg>
